<?xml version="1.0" encoding="UTF-8"?>
<!-- Generated by Pixelmator Pro 3.3.2 -->
<svg width="681" height="100" viewBox="0 0 681 100" xmlns="http://www.w3.org/2000/svg" xmlns:xlink="http://www.w3.org/1999/xlink">
    <path id="Path" fill="#ffffff" stroke="none" d="M 42.307899 27.440201 C 39.136803 24.710602 35.112198 23.327301 30.3666 23.327301 L -0.3881 23.327301 L -0.3881 80.466003 L 31.418701 80.466003 C 36.223198 80.466003 40.321404 78.943001 43.602898 75.933998 C 46.928497 72.888 48.613403 68.981003 48.613403 64.316002 C 48.613403 61.056999 47.752602 58.297897 46.053001 56.112701 C 44.3386 53.905403 42.124001 52.3088 39.475304 51.367104 L 38.9897 51.190498 L 38.9897 49.851402 L 39.423798 49.652702 C 41.7267 48.615303 43.595497 47.055496 44.978699 45.017502 C 46.347298 42.935303 47.038902 40.595596 47.038902 38.0793 C 47.031502 33.723602 45.442299 30.140404 42.307899 27.440201 Z M 12.5686 34.724197 L 27.475098 34.724197 C 29.365997 34.724197 30.903702 35.3349 32.036797 36.526802 C 33.155098 37.711403 33.721703 39.087303 33.721703 40.617599 C 33.721703 42.140701 33.125702 43.545998 31.948502 44.7967 C 30.815399 45.996002 29.314499 46.599297 27.475098 46.599297 L 12.5686 46.599297 L 12.5686 34.724197 Z M 33.4347 67.193001 C 32.191299 68.502998 30.601997 69.165001 28.703796 69.165001 L 12.5686 69.165001 L 12.5686 56.936699 L 28.696404 56.936699 C 30.572601 56.936699 32.154503 57.5327 33.397903 58.7099 C 34.648697 59.820999 35.288803 61.181999 35.288803 62.741997 C 35.296204 64.397003 34.670799 65.890999 33.4347 67.193001 Z"/>
    <path id="path1" fill="#ffffff" stroke="none" d="M 101.117004 35.857201 L 101.117004 23.334702 L 56.927498 23.334702 L 56.927498 80.473999 L 101.117004 80.473999 L 101.117004 67.950996 L 69.891998 67.950996 L 69.891998 57.378197 L 96.746994 57.378197 L 96.746994 45.723801 L 69.891998 45.723801 L 69.891998 35.857201 L 101.117004 35.857201 Z"/>
    <path id="path2" fill="#ffffff" stroke="none" d="M 388.018005 28.955902 C 382.757996 24.320602 376.09201 21.973495 368.218994 21.973495 C 359.375 21.973495 352.149994 24.894501 346.727997 30.662804 C 341.290009 36.379601 338.539001 43.568001 338.539001 52.014503 C 338.539001 60.402 341.290009 67.524002 346.727997 73.190002 C 352.15799 78.839996 359.390015 81.702003 368.22699 81.702003 C 376.334991 81.702003 383.110992 79.325996 388.372009 74.632004 C 393.425995 70.121002 396.428009 64.346001 397.303986 57.466499 L 383.928009 57.466499 C 383.02301 60.910004 381.220001 63.712997 378.557007 65.794998 L 378.549011 65.803001 C 375.746002 67.929001 372.27301 69.010002 368.22699 69.010002 C 363.13501 69.010002 359.06601 67.339996 356.138 64.043999 C 353.231995 60.719002 351.752991 56.612999 351.752991 51.845299 C 351.752991 47.077599 353.195007 43.001503 356.041992 39.734703 C 358.971008 36.438499 363.01001 34.738899 368.042999 34.672699 C 372.037994 34.6138 375.451996 35.6586 378.203003 37.799698 C 380.792999 39.756798 382.596008 42.3834 383.552002 45.606003 L 397.105011 45.606003 C 396.118988 38.947403 393.06601 33.348297 388.018005 28.955902 Z"/>
    <path id="path3" fill="#ffffff" stroke="none" d="M 441.912994 65.472 L 441.912994 80.385002 L 454.862 80.385002 L 454.862 62.941002 C 454.862 56.980904 452.588013 53.530197 447.902008 52.382401 L 447.342987 52.242599 L 447.342987 50.9403 L 447.652008 50.719597 C 451.329987 48.092903 453.110992 44.230202 453.110992 38.895897 C 453.110992 33.856003 451.35199 30.1036 447.725006 27.425499 C 444.13501 24.681099 439.22699 23.290497 433.127991 23.290497 L 403.615997 23.290497 L 403.615997 80.385002 L 416.572998 80.385002 L 416.572998 61.505997 L 437.851013 61.505997 C 440.471008 61.505997 441.912994 62.911003 441.912994 65.472 Z M 416.572998 50.211899 L 416.572998 35.805801 L 431.994995 35.805801 C 434.371002 35.805801 436.350006 36.416397 437.872986 37.630402 C 439.447998 38.873901 440.25 40.625 440.25 42.8396 C 440.25 45.149902 439.454987 46.981903 437.894989 48.291603 C 436.431 49.5718 434.415009 50.219299 431.906006 50.219299 L 416.572998 50.219299 L 416.572998 50.211899 Z"/>
    <path id="path4" fill="#ffffff" stroke="none" d="M 496.586975 23.283096 L 482.18103 47.592598 L 467.773987 23.283096 L 453.161987 23.283096 L 475.573975 59.666 L 475.573975 80.385002 L 488.530029 80.385002 L 488.530029 59.578003 L 510.853027 23.283096 L 496.586975 23.283096 Z"/>
    <path id="path5" fill="#ffffff" stroke="none" d="M 559.781006 57.606201 C 563.635986 53.853897 565.593994 48.997902 565.593994 43.178001 C 565.593994 37.520103 563.666016 32.752296 559.869019 29.014702 C 556.057983 25.2108 551.289978 23.283096 545.698975 23.283096 L 516.187012 23.283096 L 516.187012 80.377998 L 529.143982 80.377998 L 529.143982 63.241997 L 545.705994 63.241997 C 551.245972 63.249001 555.984985 61.350998 559.781006 57.606201 Z M 529.143982 51.080101 L 529.143982 35.798401 L 544.388977 35.798401 C 546.552002 35.798401 548.427979 36.5121 549.958984 37.910004 C 551.562988 39.256401 552.379028 41.066399 552.379028 43.259003 C 552.379028 45.620697 551.59198 47.5411 550.039978 48.961098 C 548.508972 50.366402 546.604004 51.072701 544.382019 51.072701 L 529.143982 51.072701 L 529.143982 51.080101 Z"/>
    <path id="path6" fill="#ffffff" stroke="none" d="M 619.450989 23.283096 L 568.559021 23.283096 L 568.559021 35.798401 L 587.526001 35.798401 L 587.526001 80.385002 L 600.482971 80.385002 L 600.482971 35.798401 L 619.450989 35.798401 L 619.450989 23.283096 Z"/>
    <path id="path7" fill="#ffffff" stroke="none" d="M 650.403992 21.973495 C 641.383972 21.973495 634.004028 24.894501 628.463989 30.662804 C 622.916016 36.438499 620.098999 43.619499 620.098999 52.007103 C 620.098999 60.343002 622.908997 67.464996 628.45697 73.181999 C 633.997009 78.833 641.383972 81.702003 650.396973 81.702003 C 659.409973 81.702003 666.796997 78.833 672.336975 73.181999 C 677.88501 67.464996 680.695007 60.343002 680.695007 52.014503 C 680.695007 43.6269 677.88501 36.4459 672.330017 30.670197 C 666.796997 24.894501 659.416992 21.973495 650.403992 21.973495 Z M 662.830994 63.962997 C 659.734009 67.310997 655.546997 69.010002 650.403992 69.010002 C 645.203003 69.010002 640.987 67.310997 637.888977 63.962997 C 634.857971 60.629997 633.320007 56.5541 633.320007 51.845299 C 633.320007 47.070198 634.857971 42.986702 637.888977 39.712601 C 640.987 36.364899 645.203003 34.665298 650.403992 34.665298 C 655.614014 34.665298 659.79303 36.364899 662.838989 39.720001 C 665.921021 42.986702 667.489014 47.062798 667.489014 51.845299 C 667.489014 56.5541 665.921997 60.638 662.830994 63.962997 Z"/>
    <path id="path8" fill="#c9fd35" fill-rule="evenodd" stroke="none" d="M 166.953003 82.313004 C 166.953003 80.591003 165.546997 79.185997 163.826004 79.185997 L 152.119995 79.185997 C 149.580994 79.185997 147.520996 77.125999 147.520996 74.587997 L 147.520996 25.6008 C 147.520996 23.062401 149.580994 20.994995 152.119995 20.994995 L 163.826004 20.994995 C 165.546997 20.994995 166.953003 19.589699 166.953003 17.867996 L 166.953003 3.020401 C 166.953003 1.298706 165.546997 -0.106598 163.826004 -0.106598 L 148.985001 -0.106598 C 147.264008 -0.106598 145.858002 1.298706 145.858002 3.020401 L 145.858002 15.123596 C 145.858002 17.654602 143.798004 19.722099 141.259995 19.722099 L 129.554001 19.722099 C 127.832001 19.722099 126.427002 21.127396 126.427002 22.849098 L 126.427002 77.338997 C 126.427002 79.060997 127.832001 80.466003 129.554001 80.466003 L 141.259995 80.466003 C 143.798004 80.466003 145.858002 82.533997 145.858002 85.071999 L 145.858002 97.167999 C 145.858002 98.889999 147.264008 100.294998 148.985001 100.294998 L 163.826004 100.294998 C 165.546997 100.294998 166.953003 98.889999 166.953003 97.167999 L 166.953003 82.313004 Z"/>
    <path id="path9" fill="#c9fd35" stroke="none" d="M 175.679001 78.038002 C 175.679001 79.406998 176.789993 80.525002 178.166 80.525002 L 192.005005 80.525002 C 193.373993 80.525002 194.492004 79.414001 194.492004 78.038002 L 194.492004 25.887703 C 194.492004 24.519203 193.380997 23.400902 192.005005 23.400902 L 178.166 23.400902 C 176.796997 23.400902 175.679001 24.511902 175.679001 25.887703 L 175.679001 78.038002 Z"/>
    <path id="path10" fill="#c9fd35" fill-rule="evenodd" stroke="none" d="M 268.214996 41.986099 C 268.214996 40.617599 267.104004 39.499298 265.727997 39.499298 L 254.816986 39.499298 C 253.234985 39.499298 251.815002 38.557503 251.190002 37.108002 L 245.907013 24.894501 C 245.516998 23.989502 244.618988 23.400902 243.626007 23.400902 L 211.001999 23.400902 C 209.634003 23.400902 208.516006 24.511902 208.516006 25.887703 L 208.516006 78.045998 C 208.516006 79.414001 209.626999 80.531998 211.001999 80.531998 L 224.848999 80.531998 C 226.217987 80.531998 227.335999 79.420998 227.335999 78.045998 L 227.335999 44.561302 C 227.335999 42.3834 229.109009 40.602898 231.295013 40.602898 L 245.458008 40.602898 C 247.635986 40.602898 249.415985 42.376099 249.415985 44.561302 L 249.415985 78.045998 C 249.415985 79.414001 250.527008 80.531998 251.903015 80.531998 L 265.743011 80.531998 C 267.110992 80.531998 268.230011 79.420998 268.230011 78.045998 L 268.230011 41.986099 L 268.214996 41.986099 Z"/>
    <path id="path11" fill="#c9fd35" fill-rule="evenodd" stroke="none" d="M 279.251007 100.287994 L 294.098999 100.287994 C 295.821014 100.287994 297.226013 98.882004 297.226013 97.160995 L 297.226013 85.065002 C 297.226013 82.526001 299.286011 80.459 301.824005 80.459 L 313.529999 80.459 C 315.252014 80.459 316.657013 79.054001 316.657013 77.332001 L 316.657013 22.849098 C 316.657013 21.127396 315.252014 19.722099 313.529999 19.722099 L 301.824005 19.722099 C 299.286011 19.722099 297.226013 17.662003 297.226013 15.123596 L 297.226013 3.020401 C 297.226013 1.298706 295.821014 -0.106598 294.098999 -0.106598 L 279.251007 -0.106598 C 277.529999 -0.106598 276.123993 1.298706 276.123993 3.020401 L 276.123993 17.867996 C 276.123993 19.589699 277.529999 20.994995 279.251007 20.994995 L 290.957001 20.994995 C 293.496002 20.994995 295.556 23.062401 295.556 25.6008 L 295.556 74.595001 C 295.556 77.125999 293.496002 79.193001 290.957001 79.193001 L 279.251007 79.193001 C 277.529999 79.193001 276.123993 80.598999 276.123993 82.32 L 276.123993 97.167999 C 276.123993 98.882004 277.529999 100.287994 279.251007 100.287994 Z"/>
</svg>
