<svg id="be19315f-2b7a-4304-9ea2-81ca66a26336" data-name="katman 1" xmlns="http://www.w3.org/2000/svg" viewBox="0 0 1576.99 599.87"><defs><style>.bdcfc5e1-ab91-4661-a031-73a05c5a9f7d{fill:#fff;}</style></defs><path class="bdcfc5e1-ab91-4661-a031-73a05c5a9f7d" d="M299.93,0A299.94,299.94,0,0,0,0,299.93a10,10,0,0,0,20,0C20,145.58,145.58,20,299.93,20S579.87,145.58,579.87,299.93a278.32,278.32,0,0,1-43.15,149.16c-6.49-9.61-15.13-18.9-25-27.69a10.23,10.23,0,0,0-1.87-1.65c-36.71-32.06-88.86-57.22-109.47-66.51,4.48-14.75,10.27-44.53-2.67-75.13-8.34-19.74-2-31.94,1.32-36.43,59.83-9.44,132.77,28.13,133.51,28.52A10,10,0,0,0,546,256.52c-36.22-66-120.35-88.77-135.72-92.44a211.73,211.73,0,0,0-69.66-33.69c-38.89-10.3-96.13-11.26-147.93,42.68-52.3,54.45-68,118.72-71.92,163A307.74,307.74,0,0,0,123.21,412c-41.3,18.61-67.4,45.3-68.55,46.49A10,10,0,0,0,69,472.39c.27-.28,27.69-28.2,69.27-45.13,41.78-17,81.59-17.59,82-17.59a10,10,0,0,0,7.86-16.08c-.15-.2-15.25-20.2-21.64-51.86-8.58-42.55,2.4-84.16,32.64-123.65a10,10,0,1,0-15.88-12.16C181,261.07,180.18,312.37,186.9,345.69A167.36,167.36,0,0,0,203,390.83a277.38,277.38,0,0,0-60.76,13.56,292.4,292.4,0,0,1-1.62-66.5c3.66-41.14,18.15-100.71,66.42-151,36-37.5,79-50.07,127.77-37.37,37.4,9.75,64.46,31.33,64.72,31.54a10,10,0,0,0,4.21,2c.74.16,62,13.74,102.68,54.22-30-10.86-74.33-22.31-114.45-14.72a10,10,0,0,0-4.86,2.42c-1,.89-24.07,22.44-7.83,60.86,14.39,34.05-.44,68.36-.58,68.68A10,10,0,0,0,384,367.89a584.29,584.29,0,0,1,64.46,32.84,353.24,353.24,0,0,1,42.74,29.32c-27.65,42.67-73.11,73.41-135.3,91.44a10,10,0,1,0,5.57,19.21c65.7-19.05,114.33-51.69,144.77-97.12,8.11,8.16,14.16,16.06,18,23.59-51.09,68.36-132.64,112.7-224.36,112.7a10,10,0,1,0,0,20A299.93,299.93,0,0,0,512,87.85,298,298,0,0,0,299.93,0Z"/><path class="bdcfc5e1-ab91-4661-a031-73a05c5a9f7d" d="M343.27,299.93a43.34,43.34,0,1,0-43.34,43.34A43.38,43.38,0,0,0,343.27,299.93Zm-66.67,0a23.34,23.34,0,1,1,23.33,23.34A23.36,23.36,0,0,1,276.6,299.93Z"/><path class="bdcfc5e1-ab91-4661-a031-73a05c5a9f7d" d="M830.5,156.64a58.5,58.5,0,0,0-16,7.77,55.62,55.62,0,0,0-11.87,11.2,62.49,62.49,0,0,0-8,13.24,67.63,67.63,0,0,0-4.52,14,66.22,66.22,0,0,0-1.46,13.25V336.42A67.73,67.73,0,0,0,791.54,357a58.52,58.52,0,0,0,7.77,16.07,54,54,0,0,0,11.2,11.79,64.61,64.61,0,0,0,13.24,7.95,68.36,68.36,0,0,0,14,4.53A66,66,0,0,0,851,398.8h160.3V354.37H851q-8.55,0-13.24-4.7t-4.7-13.25v-120q0-9.06,4.61-13.67T851,198.16h160.3V153.73H851A67,67,0,0,0,830.5,156.64Z"/><path class="bdcfc5e1-ab91-4661-a031-73a05c5a9f7d" d="M1268.69,182.7a98.38,98.38,0,0,0-32.47-21.28,106.83,106.83,0,0,0-40.85-7.69h-120a22.9,22.9,0,0,0-8.89,1.71,21.08,21.08,0,0,0-7.09,4.78,23,23,0,0,0-4.7,7.18,22.45,22.45,0,0,0-1.71,8.72V376.41a22.9,22.9,0,0,0,1.71,8.89,21.41,21.41,0,0,0,11.79,11.79,22.9,22.9,0,0,0,8.89,1.71h120a106.83,106.83,0,0,0,40.85-7.69,96.34,96.34,0,0,0,53.91-53.66,106.64,106.64,0,0,0,7.78-41.19v-40a106.79,106.79,0,0,0-7.78-41.1A97.55,97.55,0,0,0,1268.69,182.7Zm-15.21,113.56a64.87,64.87,0,0,1-4.19,23.84,52.06,52.06,0,0,1-11.88,18.29A53.6,53.6,0,0,1,1219,350.18a64.37,64.37,0,0,1-23.67,4.19h-97.92V198.16h97.92a64.37,64.37,0,0,1,23.67,4.19,53.75,53.75,0,0,1,18.37,11.79,51.94,51.94,0,0,1,11.88,18.37,65.08,65.08,0,0,1,4.19,23.76Z"/><path class="bdcfc5e1-ab91-4661-a031-73a05c5a9f7d" d="M1564.94,284.64a64.29,64.29,0,0,0-12.73-13.76,77.2,77.2,0,0,0-15.13-9.48,76.13,76.13,0,0,0-16-5.56,78.53,78.53,0,0,0-15.21-2H1403.35q-12.64,0-19.74-7.44t-7.09-20.25q0-12.65,7.09-20.34t19.74-7.69H1554.6V153.73H1403.35a79,79,0,0,0-23.24,3.85,68.06,68.06,0,0,0-40.93,34.86q-7.1,13.76-7.09,33.75t7.09,33.84A67.67,67.67,0,0,0,1357,282.42a69.76,69.76,0,0,0,23.16,12.39,79.34,79.34,0,0,0,23.24,3.84h102.2a29.66,29.66,0,0,1,11.2,2.05,24,24,0,0,1,8.54,5.81,26.05,26.05,0,0,1,5.38,8.89,32.4,32.4,0,0,1,1.88,11.28q0,12.65-7.09,20.17t-19.91,7.52H1334.14V398.8h171.41a74.42,74.42,0,0,0,15.3-1.71,76.62,76.62,0,0,0,16-5.3,78.82,78.82,0,0,0,15.21-9.23,58.68,58.68,0,0,0,12.81-13.67,70.37,70.37,0,0,0,8.8-18.54,77.92,77.92,0,0,0,3.34-23.67,79.35,79.35,0,0,0-3.25-23.58A67.83,67.83,0,0,0,1564.94,284.64Z"/></svg>