<?xml version="1.0" encoding="UTF-8"?>
<!-- Generated by Pixelmator Pro 3.3.2 -->
<svg width="135" height="22" viewBox="0 0 135 22" xmlns="http://www.w3.org/2000/svg" xmlns:xlink="http://www.w3.org/1999/xlink">
    <path id="Path" fill="#ffffff" stroke="none" d="M 23.410999 4.487999 L 23.410999 7.04 L 22.607 7.04 C 20.103001 7.04 18.493 8.801 18.493 11.443 L 18.493 17.43 L 15.721 17.43 L 15.721 4.664 L 18.493 4.664 L 18.493 7.922 C 18.941 5.985001 20.193001 4.4 22.607 4.4 C 22.875 4.4 23.143 4.4 23.410999 4.487999 Z M 38.619999 4.657 L 33.200001 17.422001 L 31.156 22 L 28.49 22 L 30.622999 17.246 L 25.291 4.656 L 28.046 4.656 L 31.867001 14.076 L 35.777 4.569 L 38.619999 4.569 L 38.619999 4.657 Z M 54.513 11 C 54.513 15.4 51.314999 17.6 48.294998 17.6 C 45.986 17.6 44.299 16.368 43.855 15.312 L 43.764999 15.312 L 43.764999 22 L 41.013 22 L 41.013 4.664 L 43.765999 4.664 L 43.765999 6.688 L 43.855 6.688 C 44.299 5.719999 45.986 4.4 48.294998 4.4 C 51.403999 4.4 54.513 6.6 54.513 11 Z M 51.848 11 C 51.848 8.272 49.805 6.864 47.763 6.864 C 45.720001 6.864 43.676998 8.272 43.676998 11 C 43.676998 13.728 45.720001 15.136 47.763 15.136 C 49.894001 15.136 51.848 13.728 51.848 11 Z M 60.828999 6.8 L 60.828999 13.741 C 60.828999 14.444 61.183998 15.059 62.247002 15.059 C 62.513 15.059 62.956001 14.971 63.398998 14.795 L 63.398998 16.903999 C 62.956001 17.254999 62.069 17.431 61.361 17.431 C 59.410999 17.431 57.993999 16.465 57.993999 14.181 L 57.993999 6.8 L 56.220001 6.8 L 56.220001 4.605 L 57.993 4.605 L 57.993 1.354 L 60.738998 1.354 L 60.738998 4.604 L 63.308998 4.604 L 63.308998 6.801001 L 60.827999 6.801001 Z M 65.620003 11 C 65.620003 6.688 68.974998 4.4 72.239998 4.4 C 75.595001 4.4 78.949997 6.688 78.949997 11 C 78.949997 15.312 75.595001 17.6 72.239998 17.6 C 68.974998 17.6 65.620003 15.312 65.620003 11 Z M 76.212997 11 C 76.212997 8.36 74.359001 6.864 72.240997 6.864 C 70.122002 6.864 68.268997 8.36 68.268997 11 C 68.268997 13.64 70.209999 15.136 72.240997 15.136 C 74.271004 15.136 76.212997 13.64 76.212997 11 Z M 89.374001 4.487999 L 89.374001 7.04 L 88.569 7.04 C 86.065002 7.04 84.455002 8.801 84.455002 11.443 L 84.455002 17.43 L 81.683998 17.43 L 81.683998 4.664 L 84.456001 4.664 L 84.456001 7.922 C 84.903 5.985001 86.153999 4.4 88.569 4.4 C 88.836998 4.4 89.105003 4.4 89.374001 4.487999 Z M 119.448997 9.944 L 119.448997 17.43 L 116.700996 17.43 L 116.700996 10.385 C 116.700996 8.183 115.459999 6.95 113.598 6.95 C 111.736 6.95 110.405998 8.183 110.405998 10.385 L 110.405998 17.43 L 107.657997 17.43 L 107.657997 4.748001 L 110.405998 4.748001 L 110.405998 6.686 C 111.115997 5.541 112.445 4.572001 114.484001 4.572001 C 117.233002 4.484001 119.448997 6.157 119.448997 9.944 Z M 127.246002 12.237 L 125.461998 14.174 L 125.461998 17.431 L 122.695999 17.431 L 122.695999 0 L 125.461998 0 L 125.461998 10.652 L 130.904007 4.666 L 134.205002 4.666 L 128.940994 10.388 L 134.828995 17.431 L 131.707001 17.431 L 127.246002 12.237 Z M 104.924004 10.899 L 104.924004 4.327 L 102.170998 4.327 L 102.170998 6.364 L 102.082001 6.364 C 101.638 5.301001 99.949997 4.062 97.641998 4.062 C 94.622002 4.062 91.424004 6.275 91.424004 10.702 C 91.424004 15.129 94.621002 17.341999 97.640999 17.431 C 97.961998 17.431 98.271004 17.405001 98.566002 17.358 C 99.122002 17.017 99.736 16.472 100.469002 15.645 C 100.031998 15.579 99.679001 15.532 99.378998 15.491 C 98.323997 15.349 97.889999 15.29 96.621002 14.838 C 95.974998 14.608 94.833 13.586 94.490997 12.626 C 94.236 12.081 94.087997 11.44 94.087997 10.702 C 94.087997 7.957 96.130997 6.541 98.174004 6.541 C 100.217003 6.541 102.260002 7.957 102.260002 10.701 L 102.259003 10.789 C 103.261002 10.823 104.197998 10.864 104.924004 10.899 Z"/>
    <path id="path1" fill="#ffffff" stroke="#ffffff" stroke-width="1.196" d="M 100.685997 18.445 L 100.148003 17.923 L 102.480003 15.397 L 99.968002 13.045 L 100.507004 12.523 L 103.556999 15.397 L 100.685997 18.445 Z"/>
    <path id="path2" fill="#ffffff" stroke="none" d="M 5.542 15.03 C 4.916 14.792 4.269 14.435 3.807 13.905 C 3.117803 13.094745 2.741119 12.064715 2.745 11.001 C 2.745 8.361 4.605 6.864 6.729 6.864 C 7.792 6.864 8.854 7.216 9.563 8.008 C 9.773 8.218 9.943 8.435 10.079 8.656 L 10.577 8.468 C 11.267 8.208 11.956 7.947001 12.646 7.681 C 11.446 5.524 9.088 4.4 6.729 4.4 C 3.365 4.4 -0 6.688 -0 11 C -0 15.243 3.256 17.527 6.565 17.6 C 7.145 17.110001 7.805 16.445 8.297 15.948 L 8.638 15.604 C 7.498 15.604 6.358 15.413 5.542 15.03 Z"/>
    <path id="path3" fill="#ffffff" stroke="#ffffff" stroke-width="1.196" d="M 8.75 18.784 L 8.211 18.261999 L 10.544 15.736 L 8.032 13.384 L 8.57 12.861 L 11.62 15.736 L 8.75 18.784 Z"/>
</svg>
