<svg width="281" height="42" viewBox="0 0 281 42" fill="none" xmlns="http://www.w3.org/2000/svg">
<path fill-rule="evenodd" clip-rule="evenodd" d="M31 0H0V42H31V0ZM14.2777 9.10109V33.0352H16.587V9.10109H23.2838V6.95453H16.587V9.10109H14.2777ZM14.2777 9.10109H7.58082V6.95453H14.2777L14.2777 9.10109ZM23.2838 35.1818H16.587V33.0353H23.2838V35.1818ZM7.58082 35.1818H14.2777V33.0353H7.58082V35.1818Z" fill="white"/>
<path d="M56.7981 30.3183C56.9207 30.8089 56.9821 31.4223 56.9821 32.1583C56.9821 32.8636 56.9207 33.4769 56.7981 33.9983H47.5981C47.4754 33.4769 47.4141 32.8636 47.4141 32.1583C47.4141 31.4223 47.4754 30.8089 47.5981 30.3183H50.3581C50.2354 29.7969 50.1741 29.1836 50.1741 28.4783C50.1741 27.7423 50.2354 27.1289 50.3581 26.6383C50.2354 26.1169 50.1741 25.5036 50.1741 24.7983C50.1741 24.0623 50.2354 23.4489 50.3581 22.9583C50.2354 22.4369 50.1741 21.8236 50.1741 21.1183C50.1741 20.3823 50.2354 19.7689 50.3581 19.2783C50.2354 18.7569 50.1741 18.1436 50.1741 17.4383C50.1741 16.7023 50.2354 16.0889 50.3581 15.5983C50.2354 15.0769 50.1741 14.4636 50.1741 13.7583C50.1741 13.0223 50.2354 12.4089 50.3581 11.9183H47.5981C47.4754 11.3969 47.4141 10.7836 47.4141 10.0783C47.4141 9.34228 47.4754 8.72895 47.5981 8.23828H56.7981C56.9207 8.72895 56.9821 9.34228 56.9821 10.0783C56.9821 10.7836 56.9207 11.3969 56.7981 11.9183H54.0381C54.1607 12.4089 54.2221 13.0223 54.2221 13.7583C54.2221 14.4636 54.1607 15.0769 54.0381 15.5983C54.1607 16.0889 54.2221 16.7023 54.2221 17.4383C54.2221 18.1436 54.1607 18.7569 54.0381 19.2783C54.1607 19.7689 54.2221 20.3823 54.2221 21.1183C54.2221 21.8236 54.1607 22.4369 54.0381 22.9583C54.1607 23.4489 54.2221 24.0623 54.2221 24.7983C54.2221 25.5036 54.1607 26.1169 54.0381 26.6383C54.1607 27.1289 54.2221 27.7423 54.2221 28.4783C54.2221 29.1836 54.1607 29.7969 54.0381 30.3183H56.7981Z" fill="white"/>
<path d="M78.16 10.0783C78.16 10.7836 78.0987 11.3969 77.976 11.9183H72.456C72.5787 12.4089 72.64 13.0223 72.64 13.7583C72.64 14.4636 72.5787 15.0769 72.456 15.5983C72.5787 16.0889 72.64 16.7023 72.64 17.4383C72.64 18.1436 72.5787 18.7569 72.456 19.2783C72.5787 19.7689 72.64 20.3823 72.64 21.1183C72.64 21.8236 72.5787 22.4369 72.456 22.9583C72.5787 23.4489 72.64 24.0623 72.64 24.7983C72.64 25.5036 72.5787 26.1169 72.456 26.6383C72.5787 27.1289 72.64 27.7423 72.64 28.4783C72.64 29.1836 72.5787 29.7969 72.456 30.3183C72.5787 30.8089 72.64 31.4223 72.64 32.1583C72.64 32.8636 72.5787 33.4769 72.456 33.9983H68.776C68.6534 33.4769 68.592 32.8636 68.592 32.1583C68.592 31.4223 68.6534 30.8089 68.776 30.3183C68.6534 29.7969 68.592 29.1836 68.592 28.4783C68.592 27.7423 68.6534 27.1289 68.776 26.6383C68.6534 26.1169 68.592 25.5036 68.592 24.7983C68.592 24.0623 68.6534 23.4489 68.776 22.9583C68.6534 22.4369 68.592 21.8236 68.592 21.1183C68.592 20.3823 68.6534 19.7689 68.776 19.2783C68.6534 18.7569 68.592 18.1436 68.592 17.4383C68.592 16.7023 68.6534 16.0889 68.776 15.5983C68.6534 15.0769 68.592 14.4636 68.592 13.7583C68.592 13.0223 68.6534 12.4089 68.776 11.9183H63.256C63.1334 11.3969 63.072 10.7836 63.072 10.0783C63.072 9.34228 63.1334 8.72895 63.256 8.23828H77.976C78.0987 8.72895 78.16 9.34228 78.16 10.0783Z" fill="white"/>
<path d="M112.052 30.3183C112.175 30.8089 112.236 31.4223 112.236 32.1583C112.236 32.8636 112.175 33.4769 112.052 33.9983H102.852C102.729 33.4769 102.668 32.8636 102.668 32.1583C102.668 31.4223 102.729 30.8089 102.852 30.3183H105.612C105.489 29.7969 105.428 29.1836 105.428 28.4783C105.428 27.7423 105.489 27.1289 105.612 26.6383C105.489 26.1169 105.428 25.5036 105.428 24.7983C105.428 24.0623 105.489 23.4489 105.612 22.9583C105.489 22.4369 105.428 21.8236 105.428 21.1183C105.428 20.3823 105.489 19.7689 105.612 19.2783C105.489 18.7569 105.428 18.1436 105.428 17.4383C105.428 16.7023 105.489 16.0889 105.612 15.5983C105.489 15.0769 105.428 14.4636 105.428 13.7583C105.428 13.0223 105.489 12.4089 105.612 11.9183H102.852C102.729 11.3969 102.668 10.7836 102.668 10.0783C102.668 9.34228 102.729 8.72895 102.852 8.23828H112.052C112.175 8.72895 112.236 9.34228 112.236 10.0783C112.236 10.7836 112.175 11.3969 112.052 11.9183H109.292C109.415 12.4089 109.476 13.0223 109.476 13.7583C109.476 14.4636 109.415 15.0769 109.292 15.5983C109.415 16.0889 109.476 16.7023 109.476 17.4383C109.476 18.1436 109.415 18.7569 109.292 19.2783C109.415 19.7689 109.476 20.3823 109.476 21.1183C109.476 21.8236 109.415 22.4369 109.292 22.9583C109.415 23.4489 109.476 24.0623 109.476 24.7983C109.476 25.5036 109.415 26.1169 109.292 26.6383C109.415 27.1289 109.476 27.7423 109.476 28.4783C109.476 29.1836 109.415 29.7969 109.292 30.3183H112.052Z" fill="white"/>
<path d="M121.914 17.4383C121.914 18.1436 121.853 18.7569 121.73 19.2783H123.57C123.693 19.7689 123.754 20.3823 123.754 21.1183C123.754 21.8236 123.693 22.4369 123.57 22.9583H122.19C122.313 23.4489 122.374 24.0623 122.374 24.7983C122.374 25.5036 122.313 26.1169 122.19 26.6383C122.313 27.1289 122.374 27.7423 122.374 28.4783C122.374 29.1836 122.313 29.7969 122.19 30.3183C122.313 30.8089 122.374 31.4223 122.374 32.1583C122.374 32.8636 122.313 33.4769 122.19 33.9983H118.51C118.387 33.4769 118.326 32.8636 118.326 32.1583C118.326 31.4223 118.387 30.8089 118.51 30.3183C118.387 29.7969 118.326 29.1836 118.326 28.4783C118.326 27.7423 118.387 27.1289 118.51 26.6383C118.387 26.1169 118.326 25.5036 118.326 24.7983C118.326 24.0623 118.387 23.4489 118.51 22.9583C118.387 22.4369 118.326 21.8236 118.326 21.1183C118.326 20.3823 118.387 19.7689 118.51 19.2783C118.387 18.7569 118.326 18.1436 118.326 17.4383C118.326 16.7023 118.387 16.0889 118.51 15.5983H121.73C121.853 16.0889 121.914 16.7023 121.914 17.4383ZM133.23 22.9583C133.353 23.4489 133.414 24.0623 133.414 24.7983C133.414 25.5036 133.353 26.1169 133.23 26.6383C133.353 27.1289 133.414 27.7423 133.414 28.4783C133.414 29.1836 133.353 29.7969 133.23 30.3183C133.353 30.8089 133.414 31.4223 133.414 32.1583C133.414 32.8636 133.353 33.4769 133.23 33.9983H129.55C129.427 33.4769 129.366 32.8636 129.366 32.1583C129.366 31.4223 129.427 30.8089 129.55 30.3183C129.427 29.7969 129.366 29.1836 129.366 28.4783C129.366 27.7423 129.427 27.1289 129.55 26.6383C129.427 26.1169 129.366 25.5036 129.366 24.7983C129.366 24.0623 129.427 23.4489 129.55 22.9583C129.427 22.4369 129.366 21.8236 129.366 21.1183C129.366 20.3823 129.427 19.7689 129.55 19.2783H123.57C123.447 18.7569 123.386 18.1436 123.386 17.4383C123.386 16.7023 123.447 16.0889 123.57 15.5983H130.93C131.053 16.0889 131.114 16.7023 131.114 17.4383C131.114 18.1436 131.053 18.7569 130.93 19.2783H133.23C133.353 19.7689 133.414 20.3823 133.414 21.1183C133.414 21.8236 133.353 22.4369 133.23 22.9583Z" fill="white"/>
<path d="M151.648 11.9183C151.771 12.4089 151.832 13.0223 151.832 13.7583C151.832 14.4636 151.771 15.0769 151.648 15.5983C151.771 16.0889 151.832 16.7023 151.832 17.4383C151.832 18.1436 151.771 18.7569 151.648 19.2783C151.771 19.7689 151.832 20.3823 151.832 21.1183C151.832 21.8236 151.771 22.4369 151.648 22.9583C151.771 23.4489 151.832 24.0623 151.832 24.7983C151.832 25.5036 151.771 26.1169 151.648 26.6383C151.771 27.1289 151.832 27.7423 151.832 28.4783C151.832 29.1836 151.771 29.7969 151.648 30.3183C151.771 30.8089 151.832 31.4223 151.832 32.1583C151.832 32.8636 151.771 33.4769 151.648 33.9983H147.968C147.845 33.4769 147.784 32.8636 147.784 32.1583C147.784 31.4223 147.845 30.8089 147.968 30.3183H146.588C146.465 29.7969 146.404 29.1836 146.404 28.4783C146.404 27.7423 146.465 27.1289 146.588 26.6383H147.968C147.845 26.1169 147.784 25.5036 147.784 24.7983C147.784 24.0623 147.845 23.4489 147.968 22.9583H146.588C146.465 22.4369 146.404 21.8236 146.404 21.1183C146.404 20.3823 146.465 19.7689 146.588 19.2783H147.968C147.845 18.7569 147.784 18.1436 147.784 17.4383C147.784 16.7023 147.845 16.0889 147.968 15.5983C147.845 15.0769 147.784 14.4636 147.784 13.7583C147.784 13.0223 147.845 12.4089 147.968 11.9183C147.845 11.3969 147.784 10.7836 147.784 10.0783C147.784 9.34228 147.845 8.72895 147.968 8.23828H151.648C151.771 8.72895 151.832 9.34228 151.832 10.0783C151.832 10.7836 151.771 11.3969 151.648 11.9183ZM145.852 17.4383C145.852 18.1436 145.791 18.7569 145.668 19.2783H141.068C141.191 19.7689 141.252 20.3823 141.252 21.1183C141.252 21.8236 141.191 22.4369 141.068 22.9583H139.688C139.811 23.4489 139.872 24.0623 139.872 24.7983C139.872 25.5036 139.811 26.1169 139.688 26.6383H141.068C141.191 27.1289 141.252 27.7423 141.252 28.4783C141.252 29.1836 141.191 29.7969 141.068 30.3183H145.668C145.791 30.8089 145.852 31.4223 145.852 32.1583C145.852 32.8636 145.791 33.4769 145.668 33.9983H140.608C140.485 33.4769 140.424 32.8636 140.424 32.1583C140.424 31.4223 140.485 30.8089 140.608 30.3183H138.308C138.185 29.7969 138.124 29.1836 138.124 28.4783C138.124 27.7423 138.185 27.1289 138.308 26.6383H136.928C136.805 26.1169 136.744 25.5036 136.744 24.7983C136.744 24.0623 136.805 23.4489 136.928 22.9583H138.308C138.185 22.4369 138.124 21.8236 138.124 21.1183C138.124 20.3823 138.185 19.7689 138.308 19.2783H140.608C140.485 18.7569 140.424 18.1436 140.424 17.4383C140.424 16.7023 140.485 16.0889 140.608 15.5983H145.668C145.791 16.0889 145.852 16.7023 145.852 17.4383Z" fill="white"/>
<path d="M160.59 28.4783C160.59 29.1836 160.529 29.7969 160.406 30.3183H165.006C165.129 30.8089 165.19 31.4223 165.19 32.1583C165.19 32.8636 165.129 33.4769 165.006 33.9983H157.646C157.523 33.4769 157.462 32.8636 157.462 32.1583C157.462 31.4223 157.523 30.8089 157.646 30.3183H155.346C155.223 29.7969 155.162 29.1836 155.162 28.4783C155.162 27.7423 155.223 27.1289 155.346 26.6383C155.223 26.1169 155.162 25.5036 155.162 24.7983C155.162 24.0623 155.223 23.4489 155.346 22.9583C155.223 22.4369 155.162 21.8236 155.162 21.1183C155.162 20.3823 155.223 19.7689 155.346 19.2783C155.223 18.7569 155.162 18.1436 155.162 17.4383C155.162 16.7023 155.223 16.0889 155.346 15.5983H159.026C159.149 16.0889 159.21 16.7023 159.21 17.4383C159.21 18.1436 159.149 18.7569 159.026 19.2783C159.149 19.7689 159.21 20.3823 159.21 21.1183C159.21 21.8236 159.149 22.4369 159.026 22.9583C159.149 23.4489 159.21 24.0623 159.21 24.7983C159.21 25.5036 159.149 26.1169 159.026 26.6383H160.406C160.529 27.1289 160.59 27.7423 160.59 28.4783ZM170.066 19.2783C170.189 19.7689 170.25 20.3823 170.25 21.1183C170.25 21.8236 170.189 22.4369 170.066 22.9583C170.189 23.4489 170.25 24.0623 170.25 24.7983C170.25 25.5036 170.189 26.1169 170.066 26.6383C170.189 27.1289 170.25 27.7423 170.25 28.4783C170.25 29.1836 170.189 29.7969 170.066 30.3183C170.189 30.8089 170.25 31.4223 170.25 32.1583C170.25 32.8636 170.189 33.4769 170.066 33.9983H166.386C166.263 33.4769 166.202 32.8636 166.202 32.1583C166.202 31.4223 166.263 30.8089 166.386 30.3183H165.006C164.883 29.7969 164.822 29.1836 164.822 28.4783C164.822 27.7423 164.883 27.1289 165.006 26.6383H166.386C166.263 26.1169 166.202 25.5036 166.202 24.7983C166.202 24.0623 166.263 23.4489 166.386 22.9583C166.263 22.4369 166.202 21.8236 166.202 21.1183C166.202 20.3823 166.263 19.7689 166.386 19.2783C166.263 18.7569 166.202 18.1436 166.202 17.4383C166.202 16.7023 166.263 16.0889 166.386 15.5983H170.066C170.189 16.0889 170.25 16.7023 170.25 17.4383C170.25 18.1436 170.189 18.7569 170.066 19.2783Z" fill="white"/>
<path d="M187.748 28.4783C187.748 29.1836 187.687 29.7969 187.564 30.3183H185.724C185.847 30.8089 185.908 31.4223 185.908 32.1583C185.908 32.8636 185.847 33.4769 185.724 33.9983H175.604C175.481 33.4769 175.42 32.8636 175.42 32.1583C175.42 31.4223 175.481 30.8089 175.604 30.3183H183.884C183.761 29.7969 183.7 29.1836 183.7 28.4783C183.7 27.7423 183.761 27.1289 183.884 26.6383H176.524C176.401 26.1169 176.34 25.5036 176.34 24.7983C176.34 24.0623 176.401 23.4489 176.524 22.9583H174.684C174.561 22.4369 174.5 21.8236 174.5 21.1183C174.5 20.3823 174.561 19.7689 174.684 19.2783H176.524C176.401 18.7569 176.34 18.1436 176.34 17.4383C176.34 16.7023 176.401 16.0889 176.524 15.5983H186.644C186.767 16.0889 186.828 16.7023 186.828 17.4383C186.828 18.1436 186.767 18.7569 186.644 19.2783H178.364C178.487 19.7689 178.548 20.3823 178.548 21.1183C178.548 21.8236 178.487 22.4369 178.364 22.9583H185.724C185.847 23.4489 185.908 24.0623 185.908 24.7983C185.908 25.5036 185.847 26.1169 185.724 26.6383H187.564C187.687 27.1289 187.748 27.7423 187.748 28.4783Z" fill="white"/>
<path d="M205.062 30.3183C205.184 30.8089 205.246 31.4223 205.246 32.1583C205.246 32.8636 205.184 33.4769 205.062 33.9983H197.702C197.579 33.4769 197.518 32.8636 197.518 32.1583C197.518 31.4223 197.579 30.8089 197.702 30.3183H195.862C195.739 29.7969 195.678 29.1836 195.678 28.4783C195.678 27.7423 195.739 27.1289 195.862 26.6383C195.739 26.1169 195.678 25.5036 195.678 24.7983C195.678 24.0623 195.739 23.4489 195.862 22.9583C195.739 22.4369 195.678 21.8236 195.678 21.1183C195.678 20.3823 195.739 19.7689 195.862 19.2783H192.182C192.059 18.7569 191.998 18.1436 191.998 17.4383C191.998 16.7023 192.059 16.0889 192.182 15.5983H195.862C195.739 15.0769 195.678 14.4636 195.678 13.7583C195.678 13.0223 195.739 12.4089 195.862 11.9183C195.739 11.3969 195.678 10.7836 195.678 10.0783C195.678 9.34228 195.739 8.72895 195.862 8.23828H199.542C199.664 8.72895 199.726 9.34228 199.726 10.0783C199.726 10.7836 199.664 11.3969 199.542 11.9183C199.664 12.4089 199.726 13.0223 199.726 13.7583C199.726 14.4636 199.664 15.0769 199.542 15.5983H205.062C205.184 16.0889 205.246 16.7023 205.246 17.4383C205.246 18.1436 205.184 18.7569 205.062 19.2783H199.542C199.664 19.7689 199.726 20.3823 199.726 21.1183C199.726 21.8236 199.664 22.4369 199.542 22.9583C199.664 23.4489 199.726 24.0623 199.726 24.7983C199.726 25.5036 199.664 26.1169 199.542 26.6383C199.664 27.1289 199.726 27.7423 199.726 28.4783C199.726 29.1836 199.664 29.7969 199.542 30.3183H205.062Z" fill="white"/>
<path d="M225.32 19.2783C225.442 19.7689 225.504 20.3823 225.504 21.1183C225.504 21.8236 225.442 22.4369 225.32 22.9583H221.64C221.517 22.4369 221.456 21.8236 221.456 21.1183C221.456 20.3823 221.517 19.7689 221.64 19.2783H218.42C218.542 19.7689 218.604 20.3823 218.604 21.1183C218.604 21.8236 218.542 22.4369 218.42 22.9583H217.04C217.162 23.4489 217.224 24.0623 217.224 24.7983C217.224 25.5036 217.162 26.1169 217.04 26.6383C217.162 27.1289 217.224 27.7423 217.224 28.4783C217.224 29.1836 217.162 29.7969 217.04 30.3183H219.8C219.922 30.8089 219.984 31.4223 219.984 32.1583C219.984 32.8636 219.922 33.4769 219.8 33.9983H210.6C210.477 33.4769 210.416 32.8636 210.416 32.1583C210.416 31.4223 210.477 30.8089 210.6 30.3183H213.36C213.237 29.7969 213.176 29.1836 213.176 28.4783C213.176 27.7423 213.237 27.1289 213.36 26.6383C213.237 26.1169 213.176 25.5036 213.176 24.7983C213.176 24.0623 213.237 23.4489 213.36 22.9583C213.237 22.4369 213.176 21.8236 213.176 21.1183C213.176 20.3823 213.237 19.7689 213.36 19.2783H210.6C210.477 18.7569 210.416 18.1436 210.416 17.4383C210.416 16.7023 210.477 16.0889 210.6 15.5983H215.2C215.322 16.0889 215.384 16.7023 215.384 17.4383C215.384 18.1436 215.322 18.7569 215.2 19.2783H217.04C216.917 18.7569 216.856 18.1436 216.856 17.4383C216.856 16.7023 216.917 16.0889 217.04 15.5983H223.94C224.062 16.0889 224.124 16.7023 224.124 17.4383C224.124 18.1436 224.062 18.7569 223.94 19.2783H225.32Z" fill="white"/>
<path d="M234.538 11.9183C234.415 11.3969 234.354 10.7836 234.354 10.0783C234.354 9.34228 234.415 8.72895 234.538 8.23828H238.218C238.34 8.72895 238.402 9.34228 238.402 10.0783C238.402 10.7836 238.34 11.3969 238.218 11.9183H234.538ZM241.898 30.3183C242.02 30.8089 242.082 31.4223 242.082 32.1583C242.082 32.8636 242.02 33.4769 241.898 33.9983H230.858C230.735 33.4769 230.674 32.8636 230.674 32.1583C230.674 31.4223 230.735 30.8089 230.858 30.3183H234.538C234.415 29.7969 234.354 29.1836 234.354 28.4783C234.354 27.7423 234.415 27.1289 234.538 26.6383C234.415 26.1169 234.354 25.5036 234.354 24.7983C234.354 24.0623 234.415 23.4489 234.538 22.9583C234.415 22.4369 234.354 21.8236 234.354 21.1183C234.354 20.3823 234.415 19.7689 234.538 19.2783H231.778C231.655 18.7569 231.594 18.1436 231.594 17.4383C231.594 16.7023 231.655 16.0889 231.778 15.5983H238.218C238.34 16.0889 238.402 16.7023 238.402 17.4383C238.402 18.1436 238.34 18.7569 238.218 19.2783C238.34 19.7689 238.402 20.3823 238.402 21.1183C238.402 21.8236 238.34 22.4369 238.218 22.9583C238.34 23.4489 238.402 24.0623 238.402 24.7983C238.402 25.5036 238.34 26.1169 238.218 26.6383C238.34 27.1289 238.402 27.7423 238.402 28.4783C238.402 29.1836 238.34 29.7969 238.218 30.3183H241.898Z" fill="white"/>
<path d="M254.796 11.9183C254.673 11.3969 254.612 10.7836 254.612 10.0783C254.612 9.34228 254.673 8.72895 254.796 8.23828H258.476C258.598 8.72895 258.66 9.34228 258.66 10.0783C258.66 10.7836 258.598 11.3969 258.476 11.9183H254.796ZM258.476 15.5983C258.598 16.0889 258.66 16.7023 258.66 17.4383C258.66 18.1436 258.598 18.7569 258.476 19.2783C258.598 19.7689 258.66 20.3823 258.66 21.1183C258.66 21.8236 258.598 22.4369 258.476 22.9583C258.598 23.4489 258.66 24.0623 258.66 24.7983C258.66 25.5036 258.598 26.1169 258.476 26.6383C258.598 27.1289 258.66 27.7423 258.66 28.4783C258.66 29.1836 258.598 29.7969 258.476 30.3183C258.598 30.8089 258.66 31.4223 258.66 32.1583C258.66 32.8636 258.598 33.4769 258.476 33.9983H256.636C256.758 34.4889 256.82 35.1023 256.82 35.8383C256.82 36.5436 256.758 37.1569 256.636 37.6783H254.796C254.918 38.1689 254.98 38.7823 254.98 39.5183C254.98 40.2236 254.918 40.837 254.796 41.3583H249.276C249.153 40.837 249.092 40.2236 249.092 39.5183C249.092 38.7823 249.153 38.1689 249.276 37.6783H252.956C252.833 37.1569 252.772 36.5436 252.772 35.8383C252.772 35.1023 252.833 34.4889 252.956 33.9983H254.796C254.673 33.4769 254.612 32.8636 254.612 32.1583C254.612 31.4223 254.673 30.8089 254.796 30.3183C254.673 29.7969 254.612 29.1836 254.612 28.4783C254.612 27.7423 254.673 27.1289 254.796 26.6383C254.673 26.1169 254.612 25.5036 254.612 24.7983C254.612 24.0623 254.673 23.4489 254.796 22.9583C254.673 22.4369 254.612 21.8236 254.612 21.1183C254.612 20.3823 254.673 19.7689 254.796 19.2783H251.116C250.993 18.7569 250.932 18.1436 250.932 17.4383C250.932 16.7023 250.993 16.0889 251.116 15.5983H258.476Z" fill="white"/>
<path d="M280.574 30.3183C280.696 30.8089 280.758 31.4223 280.758 32.1583C280.758 32.8636 280.696 33.4769 280.574 33.9983H276.894C276.771 33.4769 276.71 32.8636 276.71 32.1583C276.71 31.4223 276.771 30.8089 276.894 30.3183H275.054C274.931 29.7969 274.87 29.1836 274.87 28.4783C274.87 27.7423 274.931 27.1289 275.054 26.6383H269.534C269.656 27.1289 269.718 27.7423 269.718 28.4783C269.718 29.1836 269.656 29.7969 269.534 30.3183H275.054C275.176 30.8089 275.238 31.4223 275.238 32.1583C275.238 32.8636 275.176 33.4769 275.054 33.9983H267.694C267.571 33.4769 267.51 32.8636 267.51 32.1583C267.51 31.4223 267.571 30.8089 267.694 30.3183H265.854C265.731 29.7969 265.67 29.1836 265.67 28.4783C265.67 27.7423 265.731 27.1289 265.854 26.6383H267.694C267.571 26.1169 267.51 25.5036 267.51 24.7983C267.51 24.0623 267.571 23.4489 267.694 22.9583H275.054C274.931 22.4369 274.87 21.8236 274.87 21.1183C274.87 20.3823 274.931 19.7689 275.054 19.2783H268.614C268.491 18.7569 268.43 18.1436 268.43 17.4383C268.43 16.7023 268.491 16.0889 268.614 15.5983H276.894C277.016 16.0889 277.078 16.7023 277.078 17.4383C277.078 18.1436 277.016 18.7569 276.894 19.2783H278.734C278.856 19.7689 278.918 20.3823 278.918 21.1183C278.918 21.8236 278.856 22.4369 278.734 22.9583C278.856 23.4489 278.918 24.0623 278.918 24.7983C278.918 25.5036 278.856 26.1169 278.734 26.6383C278.856 27.1289 278.918 27.7423 278.918 28.4783C278.918 29.1836 278.856 29.7969 278.734 30.3183H280.574Z" fill="white"/>
</svg>
