<?xml version="1.0" encoding="utf-8"?>
<!-- Generator: Adobe Illustrator 27.0.1, SVG Export Plug-In . SVG Version: 6.00 Build 0)  -->
<svg version="1.1" id="Слой_1" xmlns="http://www.w3.org/2000/svg" xmlns:xlink="http://www.w3.org/1999/xlink" x="0px" y="0px"
	 viewBox="0 0 255.3 61.8" style="enable-background:new 0 0 255.3 61.8;" xml:space="preserve">
<style type="text/css">
	.st0{fill-rule:evenodd;clip-rule:evenodd;fill:#FFFFFF;}
	.st1{fill-rule:evenodd;clip-rule:evenodd;fill:#1274D9;}
</style>
<g id="Слой_2_00000126285125413525976760000010179002571087278744_">
	<path class="st0" d="M12.2,14.3L8.4,28.5v6.4l1.4,6.6l1,3.5l5,2.5l10.6,1.2c0,0,10.2-5.8,10.6-6c0.3-0.2,10.1-8.3,10.1-8.3l2.5-7.2
		V18l-3.4-5.2l-3.7-2.5H23.6L12.2,14.3z"/>
</g>
<g id="Слой_1_00000085211002845995635570000013257164243209558663_">
	<g>
		<path class="st1" d="M29.6,4.6c14,0,25.3,11.3,25.3,25.3c0,14-11.3,25.3-25.3,25.3c-14,0-25.3-11.3-25.3-25.3
			C4.4,15.9,15.7,4.6,29.6,4.6 M30.5,17.6L30.5,17.6h-0.9v1.7h-2h-0.3v18.4h2.3v1.6h0.9v-1.6h2.2V19.4h-2.2V17.6z M34.7,27.4
			L34.7,27.4h-0.3v2.4h2.2v3.6h0.8v-3.6h2.2v-2.4h-2.2v-3.6h-0.8v3.6H34.7z M41.4,15.3L41.4,15.3h-0.3v18.2h2.2V35h0.8v-1.5h2.2
			V15.3h-2.2v-1.8h-0.8v1.8H41.4z M13,25.9L13,25.9h-0.3v18.3H15v2h0.9v-2h2.2V25.9h-2.2v-1.7H15v1.7H13z M20.4,38.7L20.4,38.7h-0.3
			V44h2.3v1.7h0.9V44h2.2v-5.3h-2.2V37h-0.9v1.7C22.3,38.7,20.4,38.7,20.4,38.7z"/>
		<path class="st0" d="M65.2,30.3c0,1.6,0.7,2.3,2.3,2.3h10.3c1.6,0,2.3-0.7,2.3-2.3V26h-5v1.2c0,0.4-0.2,0.7-0.7,0.7h-2.9
			c-0.4,0-0.7-0.2-0.7-0.7V12.6c0-1.6-0.7-2.3-2.3-2.3h-5.3V15h1.3c0.4,0,0.7,0.2,0.7,0.7C65.2,15.7,65.2,30.3,65.2,30.3z
			 M83.3,14.7L83.3,14.7h4.5v-4.4h-4.5V14.7z M82.9,30.3L82.9,30.3c0,1.6,0.7,2.3,2.3,2.3h5V28H89c-0.4,0-0.7-0.2-0.7-0.7v-8.5
			c0-1.6-0.7-2.3-2.3-2.3h-5V21h1.2c0.4,0,0.7,0.2,0.7,0.7V30.3z M91.5,30L91.5,30c0,0,2.5,2.9,7.1,2.9c3.7,0,6.6-2,6.6-5.2
			c0-5.4-8.1-5.2-8.1-6.8c0-0.5,0.7-0.7,1.4-0.7c0.8,0,1.5,0.3,1.5,0.7v0.8h4.7v-1.9c0-2.9-3.6-3.6-6.2-3.6c-3.4,0-6.6,1.5-6.6,4.9
			c0,5.2,8,5.6,8,7c0,0.6-0.4,0.8-1.2,0.8c-2.5,0-4.7-2.3-4.7-2.3L91.5,30z M108.5,26.6L108.5,26.6c0,5.4,4.9,6.1,7.5,6.1
			c0.9,0,1.5-0.1,1.5-0.1v-4.7c0,0-0.3,0-0.7,0c-1,0-2.9-0.2-2.9-2.1v-5.2h3.4v-4.2h-3.4v-4.3h-5.2v4.3h-2.2v4.2h2.1L108.5,26.6
			L108.5,26.6z M121.4,14.7L121.4,14.7h4.5v-4.4h-4.5V14.7z M121,30.3L121,30.3c0,1.6,0.7,2.3,2.3,2.3h5V28H127
			c-0.4,0-0.7-0.2-0.7-0.7v-8.5c0-1.6-0.7-2.3-2.3-2.3h-5V21h1.2c0.4,0,0.7,0.2,0.7,0.7L121,30.3L121,30.3z M131.4,32.5L131.4,32.5
			h5.4v-7.1c0-0.8,0.1-1.5,0.3-2.1c0.5-1.4,1.5-2.3,3.2-2.3c1.2,0,1.8,0.6,1.8,2.1v7.1c0,1.6,0.7,2.3,2.3,2.3h5V28h-1.2
			c-0.4,0-0.7-0.2-0.7-0.7v-5.2c0-4.5-2.5-6-5.8-6c-2.8,0-4.3,1.5-5.1,2.8h-0.1c0,0,0-0.2,0-0.4v-0.2c0-1.1-0.8-1.8-2.2-1.8h-4.8V21
			h1.2c0.4,0,0.7,0.2,0.7,0.7L131.4,32.5L131.4,32.5z M150.5,24L150.5,24c0,4.1,2.4,8.1,7.2,8.1c1.9,0,3.1-0.5,4-1.5h0.1
			c0,0,0,0.4,0,0.6v0.2c0,2.4-1.8,3.1-3.7,3.1c-2.5,0-4.5-1-4.5-1l-1.6,4.2c1.6,0.8,3.9,1.4,6.1,1.4c4.4,0,9-2.1,9-8v-9.4
			c0-0.4,0.3-0.6,0.7-0.6h1.1v-4.5h-4.9c-1.2,0-1.7,0.8-1.7,1.3V18h-0.1c0,0-1.4-1.9-4.6-1.9C152.9,16.2,150.5,20,150.5,24
			 M159,27.6L159,27.6c-2.1,0-3.1-1.8-3.1-3.8c0-1.8,1-3.2,2.9-3.2c1.6,0,3.1,0.6,3.1,3.5C161.9,26.9,160.4,27.6,159,27.6
			 M171.8,32.5L171.8,32.5h4.9v-5.1h-4.9V32.5z M181.3,32.5L181.3,32.5h5.6v-8.7h7.5v8.7h5.6V15.7c0-0.4,0.2-0.7,0.7-0.7h1.3v-4.7
			h-5.3c-1.6,0-2.3,0.7-2.3,2.3v6.6h-7.5v-6.6c0-1.6-0.7-2.3-2.3-2.3h-5.3V15h1.3c0.4,0,0.7,0.2,0.7,0.7L181.3,32.5L181.3,32.5z
			 M203.4,24.5L203.4,24.5c0,4.3,3.1,8.4,8.8,8.4c4.3,0,6.8-2.5,6.8-2.5l-2.1-3.6c0,0-2,1.7-4.3,1.7c-1.7,0-3.3-0.9-3.7-2.9h10.1
			c0,0,0.1-1.1,0.1-1.6c0-4.4-2.7-7.7-7.4-7.7C206.6,16.2,203.4,19.8,203.4,24.5 M209.1,22.2L209.1,22.2c0.3-1.2,1.1-2.1,2.7-2.1
			c1.1,0,1.9,1.1,1.9,2.1H209.1z M222.5,30.3L222.5,30.3c0,1.6,0.7,2.3,2.3,2.3h5V28h-1.2c-0.4,0-0.7-0.2-0.7-0.7V12.6
			c0-1.6-0.7-2.3-2.3-2.3h-5v4.5h1.2c0.4,0,0.7,0.2,0.7,0.7V30.3z M232.9,38.8L232.9,38.8h5.4v-5.8c0-0.8-0.1-1.4-0.1-1.4h0.1
			c0,0,1.5,1.4,4.1,1.4c4.3,0,7.5-3.3,7.5-8.4c0-5-2.9-8.4-7.2-8.4c-3.4,0-4.8,2.1-4.8,2.1h-0.1v-0.3c0-0.7-0.5-1.4-2.1-1.4H231V21
			h1.2c0.4,0,0.7,0.2,0.7,0.7L232.9,38.8L232.9,38.8z M238.1,24.6L238.1,24.6c0-2.8,1.5-3.9,3.1-3.9c1.9,0,3.1,1.6,3.1,3.9
			c0,2.5-1.5,3.8-3.1,3.8C239.1,28.5,238.1,26.6,238.1,24.6"/>
	</g>
	<g id="listing_on_crypto_exchanges_1_">
		<g>
			<path class="st0" d="M65.2,51.4h1.5v-10h-1.5V51.4z M68.6,51.4H70v-6.6h-1.5V51.4z M69.3,41.8c-0.5,0-0.9,0.3-0.9,0.9
				c0,0.6,0.4,0.9,0.9,0.9c0.5,0,0.9-0.3,0.9-0.9C70.2,42.1,69.8,41.8,69.3,41.8z M73.1,46.6c0-0.5,0.6-0.7,1.2-0.7
				c0.8,0,1.7,0.3,2.3,0.6v-1.3c-0.6-0.3-1.5-0.6-2.4-0.6c-1.3,0-2.6,0.5-2.6,2c0,2.4,4,1.9,4,3.1c0,0.5-0.6,0.7-1.4,0.7
				s-1.8-0.2-2.5-0.7V51c0.6,0.4,1.6,0.6,2.6,0.6c1.5,0,2.8-0.5,2.8-1.9C77,47.3,73.1,47.8,73.1,46.6z M80.3,49.1v-3h2.4v-1.3h-2.4
				v-2.3l-1.5,0.4v2h-1.2v1.3h1.2v3.3c0,1.5,1,2.2,2.3,2.2c0.6,0,1.3-0.1,1.8-0.3V50c-0.4,0.2-0.9,0.3-1.3,0.3
				C80.7,50.3,80.3,50,80.3,49.1z M84.1,51.4h1.5v-6.6h-1.5L84.1,51.4L84.1,51.4z M84.9,41.8c-0.5,0-0.9,0.3-0.9,0.9
				c0,0.6,0.4,0.9,0.9,0.9c0.5,0,0.9-0.3,0.9-0.9C85.8,42.1,85.4,41.8,84.9,41.8z M91.1,44.6c-1,0-1.8,0.5-2.3,1.1v-0.9h-1.3v6.6
				h1.5v-4.4c0.4-0.5,1-1.1,1.8-1.1c0.9,0,1.5,0.5,1.5,1.6v3.9h1.5v-4.1C93.8,45.8,92.7,44.6,91.1,44.6z M101,45.9
				c-0.5-0.6-1.3-1.2-2.5-1.2c-2,0-3.3,1.6-3.3,3.5c0,1.9,1.3,3.5,3.3,3.5c1.2,0,1.9-0.5,2.4-1.1v0.8c0,1.5-1.1,1.9-2.4,1.9
				c-0.9,0-1.8-0.2-2.5-0.7V54c0.8,0.4,1.7,0.6,2.7,0.6c1.9,0,3.7-0.9,3.7-3.3v-6.5H101L101,45.9L101,45.9z M100.8,49
				c-0.3,0.7-1.1,1.3-2.1,1.3c-1.2,0-2.1-0.9-2.1-2.2c0-1.3,0.9-2.2,2.1-2.2c1,0,1.8,0.7,2.1,1.4V49z M110.5,44.6
				c-1.8,0-3.6,1.2-3.6,3.5c0,2.3,1.7,3.5,3.6,3.5c1.9,0,3.6-1.2,3.6-3.5C114.1,45.8,112.4,44.6,110.5,44.6z M110.5,50.3
				c-1.2,0-2.1-0.8-2.1-2.1c0-1.3,0.9-2.1,2.1-2.1c1.2,0,2.1,0.8,2.1,2.1C112.6,49.4,111.8,50.3,110.5,50.3z M119.1,44.6
				c-1,0-1.8,0.5-2.3,1.1v-0.9h-1.3v6.6h1.5v-4.4c0.4-0.5,1-1.1,1.8-1.1c0.9,0,1.5,0.5,1.5,1.6v3.9h1.5v-4.1
				C121.9,45.8,120.8,44.6,119.1,44.6z M128,48.1c0-1.5,1.2-2.2,2.4-2.2c0.7,0,1.3,0.2,1.8,0.5v-1.3c-0.6-0.3-1.3-0.5-2-0.5
				c-1.8,0-3.6,1.1-3.6,3.5c0,2.3,1.8,3.4,3.6,3.4c0.8,0,1.6-0.2,2.2-0.5v-1.4c-0.5,0.3-1.2,0.5-1.9,0.5
				C129.1,50.3,128,49.6,128,48.1z M135,45.9v-1.1h-1.3v6.6h1.5v-4c0.4-0.9,1.4-1.5,2.6-1.3v-1.4C136.5,44.6,135.5,45.1,135,45.9z
				 M141.8,49.8l-2.2-5H138l3.1,6.6l-0.1,0.3c-0.4,1-0.9,1.5-1.6,1.5c-0.2,0-0.5,0-0.7-0.1v1.2c0.3,0.1,0.6,0.1,0.9,0.1
				c1,0,1.9-0.6,2.7-2.3l3.1-7.5h-1.5L141.8,49.8z M150.3,44.6c-1.2,0-2,0.6-2.5,1.2v-1h-1.3v9.6h1.5v-3.9c0.5,0.5,1.2,1,2.4,1
				c2,0,3.3-1.6,3.3-3.5C153.6,46.2,152.3,44.6,150.3,44.6z M150,50.3c-1,0-1.8-0.7-2.1-1.4v-1.6c0.3-0.7,1.1-1.4,2.1-1.4
				c1.2,0,2.1,0.9,2.1,2.2C152.1,49.4,151.2,50.3,150,50.3z M156.8,49.1v-3h2.4v-1.3h-2.4v-2.3l-1.5,0.4v2h-1.2v1.3h1.2v3.3
				c0,1.5,1,2.2,2.3,2.2c0.6,0,1.3-0.1,1.8-0.3V50c-0.4,0.2-0.9,0.3-1.3,0.3C157.2,50.3,156.8,50,156.8,49.1z M163.8,44.6
				c-1.8,0-3.6,1.2-3.6,3.5c0,2.3,1.7,3.5,3.6,3.5c1.9,0,3.6-1.2,3.6-3.5C167.4,45.8,165.6,44.6,163.8,44.6z M163.8,50.3
				c-1.2,0-2.1-0.8-2.1-2.1c0-1.3,0.9-2.1,2.1-2.1c1.2,0,2.1,0.8,2.1,2.1C165.9,49.4,165,50.3,163.8,50.3z M175,44.6
				c-1.5,0-3.3,1.1-3.3,3.5c0,2.3,1.7,3.5,3.7,3.5c0.9,0,1.8-0.2,2.4-0.5v-1.3c-0.6,0.3-1.3,0.5-2.1,0.5c-1.2,0-2.4-0.5-2.5-1.7h5
				C178.5,46.8,177.6,44.6,175,44.6z M176.8,47.6h-3.7c0.1-1.1,0.9-1.7,1.9-1.7C176.5,45.9,176.8,47,176.8,47.6z M185.3,44.8h-1.7
				l-1.6,2.2l-1.6-2.2h-1.7l2.4,3.2l-2.5,3.4h1.7l1.7-2.3l1.7,2.3h1.7l-2.5-3.4L185.3,44.8z M187.3,48.1c0-1.5,1.2-2.2,2.4-2.2
				c0.7,0,1.3,0.2,1.8,0.5v-1.3c-0.6-0.3-1.3-0.5-2-0.5c-1.8,0-3.6,1.1-3.6,3.5c0,2.3,1.8,3.4,3.6,3.4c0.8,0,1.6-0.2,2.2-0.5v-1.4
				c-0.5,0.3-1.2,0.5-1.9,0.5C188.4,50.3,187.3,49.6,187.3,48.1z M196.5,44.6c-0.9,0-1.6,0.4-2.1,0.9v-3.7h-1.5v9.6h1.5v-4.4
				c0.4-0.5,1-1.1,1.8-1.1c0.9,0,1.5,0.5,1.5,1.6v3.9h1.5v-4.1C199.3,45.8,198.2,44.6,196.5,44.6z M206.7,49.9v-2.4
				c0-2-1.2-2.9-3.1-2.9c-1.1,0-2,0.3-2.5,0.4v1.3c0.6-0.3,1.4-0.5,2.4-0.5c1.1,0,1.7,0.6,1.7,1.4v0.2c-0.5-0.1-1.2-0.2-1.7-0.2
				c-1.4,0-2.9,0.5-2.9,2.2c0,1.4,1.1,2,2.3,2c1,0,1.8-0.3,2.5-0.9c0.2,0.5,0.7,0.8,1.3,0.8c0.3,0,0.7-0.1,0.9-0.2v-1.1
				c-0.1,0-0.3,0.1-0.4,0.1C206.9,50.4,206.7,50.3,206.7,49.9z M205.2,49.7c-0.5,0.5-1.2,0.8-1.9,0.8c-0.7,0-1.2-0.3-1.2-1
				c0-0.8,0.9-1.1,1.7-1.1c0.5,0,1,0.1,1.4,0.2L205.2,49.7L205.2,49.7z M212.2,44.6c-1,0-1.8,0.5-2.3,1.1v-0.9h-1.3v6.6h1.5v-4.4
				c0.4-0.5,1-1.1,1.8-1.1c0.9,0,1.5,0.5,1.5,1.6v3.9h1.5v-4.1C214.9,45.8,213.9,44.6,212.2,44.6z M222.1,45.9
				c-0.5-0.6-1.3-1.2-2.5-1.2c-2,0-3.3,1.6-3.3,3.5c0,1.9,1.3,3.5,3.3,3.5c1.2,0,1.9-0.5,2.4-1.1v0.8c0,1.5-1.1,1.9-2.4,1.9
				c-0.9,0-1.8-0.2-2.5-0.7V54c0.8,0.4,1.7,0.6,2.7,0.6c1.9,0,3.7-0.9,3.7-3.3v-6.5h-1.3L222.1,45.9L222.1,45.9z M221.9,49
				c-0.3,0.7-1.1,1.3-2.1,1.3c-1.2,0-2-0.9-2-2.2c0-1.3,0.9-2.2,2-2.2c1,0,1.8,0.7,2.1,1.4V49z M228.2,44.6c-1.5,0-3.3,1.1-3.3,3.5
				c0,2.3,1.7,3.5,3.7,3.5c0.9,0,1.8-0.2,2.4-0.5v-1.3c-0.6,0.3-1.3,0.5-2.1,0.5c-1.2,0-2.4-0.5-2.5-1.7h5
				C231.7,46.8,230.8,44.6,228.2,44.6z M230,47.6h-3.7c0.1-1.1,0.9-1.7,1.9-1.7C229.7,45.9,230,47,230,47.6z M233.9,46.6
				c0-0.5,0.6-0.7,1.2-0.7c0.8,0,1.7,0.3,2.3,0.6v-1.3c-0.6-0.3-1.5-0.6-2.4-0.6c-1.3,0-2.6,0.5-2.6,2c0,2.4,4,1.9,4,3.1
				c0,0.5-0.6,0.7-1.4,0.7c-0.8,0-1.8-0.2-2.5-0.7V51c0.6,0.4,1.6,0.6,2.6,0.6c1.5,0,2.8-0.5,2.8-1.9
				C237.9,47.3,233.9,47.8,233.9,46.6z"/>
		</g>
	</g>
</g>
</svg>
