<svg width="395" height="101" viewBox="0 0 395 101" fill="none" xmlns="http://www.w3.org/2000/svg">
<path d="M94.4889 33.3085C94.4889 33.3085 93.9697 33.3085 94.4889 33.3085C91.8931 37.6064 89.8165 40.8298 87.7398 44.5904C84.6248 49.4255 82.0288 54.7979 78.9138 59.0957C76.8372 62.3191 73.7221 66.617 70.0879 68.766C59.7045 74.6755 27.516 77.8989 20.7668 72.5266C17.1326 69.8404 17.6519 64.4681 20.2477 61.2447C21.8052 59.0957 24.401 58.5585 26.9969 58.5585C29.0736 58.5585 31.6693 58.5585 33.746 59.0957C37.3802 59.633 41.0143 59.633 44.6485 59.633C52.436 59.633 59.7046 59.633 66.973 58.0213C69.5688 57.4841 72.1645 56.4096 74.2412 54.2606C76.837 51.5745 78.9138 47.8138 81.5097 44.5904C84.1055 40.2926 86.7014 35.9947 89.2972 32.234C90.3356 30.6223 91.3738 29.0106 92.4121 27.3989C84.1054 11.2819 68.0113 0 48.8021 0C21.8052 0 0 22.5638 0 50.5C0 78.4362 21.8052 101 48.8021 101C75.7989 101 97.6038 78.4362 97.6038 50.5C97.0846 44.0532 96.0464 38.1436 94.4889 33.3085Z" fill="black"/>
<path d="M133.756 65.2609L135.745 62.5147C137.071 60.4551 138.397 60.4551 140.386 61.8282C141.712 62.5147 145.027 64.5744 149.006 64.5744C152.321 64.5744 153.647 63.2013 153.647 61.1417C153.647 54.2762 133.093 55.6493 133.093 40.5454C133.093 31.6203 140.386 25.4414 149.669 25.4414C154.973 25.4414 160.278 27.501 162.267 28.8741C164.256 30.2472 164.256 32.3069 163.593 33.68L162.267 37.1127C160.941 39.8588 158.951 39.1723 157.625 38.4857C155.636 37.1126 153.647 36.4261 150.332 36.4261C147.017 36.4261 145.027 37.7992 145.027 39.8588C145.027 46.7243 165.582 45.3512 165.582 60.4551C165.582 68.6936 159.615 75.559 149.006 75.559C142.375 75.559 136.408 72.8129 134.418 70.7533C133.092 68.6936 131.766 67.3205 133.756 65.2609Z" fill="black"/>
<path d="M183.478 35.7366H172.869C170.217 35.7366 169.554 34.3635 169.554 32.3038V29.5577C169.554 26.8115 170.88 26.125 172.869 26.125H205.359C208.011 26.125 208.674 27.4981 208.674 29.5577V32.3038C208.674 35.05 207.348 35.7366 205.359 35.7366H194.75V70.0637C194.75 72.8099 193.424 73.4964 191.435 73.4964H187.456C184.804 73.4964 184.141 72.1233 184.141 70.0637V35.7366H183.478Z" fill="black"/>
<path d="M220.618 28.8711C221.281 26.8115 222.607 26.125 224.596 26.125H230.563C232.553 26.125 233.879 26.8115 234.542 28.8711L247.803 70.0637C248.466 72.8099 247.803 74.183 245.151 74.183H241.172C239.183 74.183 237.857 73.4964 237.194 70.7503L235.205 63.8848H220.618L218.629 70.7503C217.966 72.8099 216.639 74.183 214.65 74.183H210.672C208.02 74.183 206.694 72.8099 208.02 70.0637L220.618 28.8711ZM232.553 54.2732L229.901 44.6616C229.238 41.9155 227.911 36.4231 227.911 36.4231C227.911 36.4231 226.585 41.9155 225.922 44.6616L223.27 54.2732H232.553Z" fill="black"/>
<path d="M255.093 29.5577C255.093 26.8115 256.419 26.125 258.408 26.125H271.006C275.647 26.125 278.299 26.125 280.289 27.4981C285.593 29.5577 288.908 34.3635 288.908 41.2289C288.908 46.0347 286.256 52.2136 281.615 54.2732C281.615 54.2732 282.278 54.9598 283.604 57.0194L290.234 69.3772C291.56 72.1233 290.235 73.4964 287.582 73.4964H282.941C280.952 73.4964 279.625 72.8099 278.962 70.7503L272.332 57.0194H267.028V69.3772C267.028 72.1233 265.701 72.8099 263.712 72.8099H258.408C255.756 72.8099 255.093 71.4368 255.093 69.3772V29.5577ZM271.006 48.0943C274.321 48.0943 276.973 46.0347 276.973 41.9154C276.973 39.1693 276.311 37.7962 274.321 37.1097C272.995 36.4231 271.669 36.4231 270.343 36.4231H266.365V48.0943H271.006Z" fill="black"/>
<path d="M306.808 35.7366H296.199C293.547 35.7366 292.884 34.3635 292.884 32.3038V29.5577C292.884 26.8115 294.21 26.125 296.199 26.125H328.688C331.34 26.125 332.004 27.4981 332.004 29.5577V32.3038C332.004 35.05 330.677 35.7366 328.688 35.7366H318.08V70.0637C318.08 72.8099 316.754 73.4964 314.764 73.4964H310.786C308.134 73.4964 307.471 72.1233 307.471 70.0637V35.7366H306.808Z" fill="black"/>
<path d="M338.636 29.5577C338.636 26.8115 339.962 26.125 341.951 26.125H345.93C348.582 26.125 349.245 27.4981 349.245 29.5577V70.0637C349.245 72.8099 347.919 73.4964 345.93 73.4964H341.951C339.299 73.4964 338.636 72.1233 338.636 70.0637V29.5577Z" fill="black"/>
<path d="M369.804 35.7366H359.196C356.543 35.7366 355.88 34.3635 355.88 32.3038V29.5577C355.88 26.8115 357.206 26.125 359.196 26.125H391.685C394.337 26.125 395 27.4981 395 29.5577V32.3038C395 35.05 393.674 35.7366 391.685 35.7366H381.076V70.0637C381.076 72.8099 379.75 73.4964 377.761 73.4964H373.783C371.131 73.4964 370.468 72.1233 370.468 70.0637V35.7366H369.804Z" fill="black"/>
</svg>
