<svg width="281" height="48" viewBox="0 0 281 48" fill="none" xmlns="http://www.w3.org/2000/svg">
<g clip-path="url(#clip0_298_1023)">
<path d="M5.20107 39.744C1.8303 36.5347 0.0512848 31.8836 0.0512848 25.9301V3H13.628V25.465C13.628 28.3487 14.0962 30.5813 15.2197 31.8836C16.3433 33.1859 17.7946 33.7905 19.7609 33.7905C21.7272 33.7905 23.319 33.1394 24.3021 31.8836C25.4257 30.5813 25.8938 28.3487 25.8938 25.465V3H39.2833V25.7441C39.2833 31.6975 37.5043 36.3487 34.1335 39.6975C30.5755 43.0463 25.8938 44.6742 19.6205 44.6742C13.4407 44.7207 8.61866 43.1394 5.20107 39.744ZM74.1614 14.4418H62.3637V3H99.489V14.2558H87.6913V44.6742H74.1146L74.1614 14.4418ZM111.942 42.1626C108.665 40.4417 105.856 37.9301 103.89 34.7673C101.97 31.558 100.987 28.0231 100.987 24.0232C100.987 20.0232 101.97 16.4883 103.89 13.279C105.809 10.0697 108.571 7.65113 111.942 5.8837C115.313 3.79069 119.199 3 123.553 3C127.906 3 131.792 3.97674 135.163 5.74417C138.44 7.46509 141.249 9.97671 143.215 13.1395C145.135 16.2092 146.118 19.8836 146.118 23.8836C146.118 27.8836 145.135 31.4185 143.215 34.6278C141.296 37.8371 138.534 40.2556 135.163 42.0231C131.792 43.7905 127.906 44.7672 123.553 44.7672C119.199 44.7207 115.313 43.93 111.942 42.1626ZM128.047 32.7208C129.451 31.8836 130.575 30.6278 131.277 29.1859C132.073 27.7441 132.401 25.9766 132.401 23.8836C132.401 21.7906 132.073 20.0232 131.277 18.5813C130.481 17.1395 129.358 15.8371 128.047 15.0465C126.736 14.2558 125.144 13.7441 123.506 13.7441C120.229 13.7441 117.232 15.6046 115.734 18.5348C114.938 19.9767 114.611 21.7441 114.611 23.8371C114.611 25.9301 115.079 27.6976 115.734 29.1394C116.53 30.5813 117.654 31.8836 118.965 32.6743C120.275 33.465 121.867 33.9766 123.506 33.9766C125.144 33.8371 126.783 33.5115 128.047 32.7208ZM151.174 3.09301H171.024C175.565 3.09301 179.404 3.88371 182.962 5.51161C186.239 7.04649 189.002 9.41857 191.015 12.3953C192.934 15.4651 193.917 19.6976 193.917 23.7441C193.917 27.7441 192.934 32.4882 191.015 35.558C189.095 38.6277 186.474 40.8603 182.962 42.4417C179.592 44.0231 175.519 44.8603 171.024 44.8603H151.174V3.09301ZM170.509 34.5347C174.442 34.5347 175.94 33.2324 177.719 31.6045C179.498 29.9766 180.294 26.8138 180.294 23.7441C180.294 20.6743 179.498 18.2557 177.719 16.4883C175.94 14.9069 173.74 13.6046 170.509 13.6046C167.279 13.6046 164.704 13.6046 164.704 13.6046V34.4882C164.704 34.4882 166.577 34.5347 170.509 34.5347ZM225.565 36.8603H210.256L207.213 44.8603H193.496L211.226 3H224.615L241.904 44.9998H227.859C227.859 45.0463 225.565 36.8603 225.565 36.8603ZM221.867 27.2325L217.981 17.1395L214.095 27.2325H221.867ZM265.78 29.3255V44.8603H252.204V28.9999L237.035 3H251.408L259.647 17.4651L267.887 3H280.949C280.949 3.04651 265.78 29.3255 265.78 29.3255Z" fill="#0D0C22"/>
<path fill-rule="evenodd" clip-rule="evenodd" d="M50.6128 18.8139C55.0083 18.8139 58.5716 15.2738 58.5716 10.9069C58.5716 6.54006 55.0083 3 50.6128 3C46.2173 3 42.6541 6.54006 42.6541 10.9069C42.6541 15.2738 46.2173 18.8139 50.6128 18.8139ZM50.6128 14.6279C52.6813 14.6279 54.3581 12.9619 54.3581 10.9069C54.3581 8.85194 52.6813 7.18603 50.6128 7.18603C48.5444 7.18603 46.8675 8.85194 46.8675 10.9069C46.8675 12.9619 48.5444 14.6279 50.6128 14.6279Z" fill="#0D0C22"/>
<path fill-rule="evenodd" clip-rule="evenodd" d="M50.6128 18.8139C55.0083 18.8139 58.5716 15.2738 58.5716 10.9069C58.5716 6.54006 55.0083 3 50.6128 3C46.2173 3 42.6541 6.54006 42.6541 10.9069C42.6541 15.2738 46.2173 18.8139 50.6128 18.8139ZM50.6128 14.6279C52.6813 14.6279 54.3581 12.9619 54.3581 10.9069C54.3581 8.85194 52.6813 7.18603 50.6128 7.18603C48.5444 7.18603 46.8675 8.85194 46.8675 10.9069C46.8675 12.9619 48.5444 14.6279 50.6128 14.6279Z" fill="#F86F03"/>
</g>
<defs>
<clipPath id="clip0_298_1023">
<rect width="280.897" height="48" fill="white" transform="translate(0.0512848)"/>
</clipPath>
</defs>
</svg>
