<?xml version="1.0" encoding="UTF-8"?>
<!-- Generated by Pixelmator Pro 3.3.2 -->
<svg width="490" height="125" viewBox="0 0 490 125" xmlns="http://www.w3.org/2000/svg" xmlns:xlink="http://www.w3.org/1999/xlink">
    <path id="Path" fill="#ffffff" stroke="none" d="M 28.810101 5.511971 C 22.730101 12.281998 22.010099 23.681999 26.680099 39.382004 C 30.680099 52.821999 37.740101 66.202003 41.600101 72.982002 C 42.2001 74.012001 43.3601 75.972 44.400101 77.732002 C 45.250099 79.171997 44.070099 80.952003 42.410099 80.722 C 38.1301 80.122002 31.6101 79.152 28.330099 78.362 C 20.8801 76.482002 13.2801 74.052002 8.14005 69.101997 C 5.92005 66.882004 4.92005 64.472 5.20005 61.922001 C 5.54005 58.712006 7.98005 55.442001 11.8801 52.942001 C 14.6301 51.122002 18.010099 49.492004 22.2101 47.951996 L 20.8601 43.962006 C 15.2001 45.841995 8.80005 48.412003 4.20005 53.162003 C -1.37995 58.781998 -1.39995 67.071999 4.14005 72.862 C 10.3501 79.262001 18.3701 82.022003 26.730101 84.501999 C 32.2901 86.042 38.230099 87.232002 44.870098 88.132004 C 48.640099 88.912003 52.560101 86.421997 53.420101 82.692001 C 53.850101 81.022003 53.640099 79.181999 52.850101 77.632004 L 52.850101 77.601997 C 52.850101 77.601997 52.7901 77.522003 52.7701 77.472 C 52.730099 77.391998 52.7001 77.342003 52.690102 77.311996 L 51.140099 74.512001 C 43.830101 61.242001 35.2001 43.701996 33.310101 25.641998 C 32.7201 17.872002 34.070099 13.132004 37.310101 11.571999 C 41.2201 9.681969 47.760101 12.592003 55.250099 19.542 L 62.580101 11.251999 C 59.870098 8.961967 56.170101 6.041969 51.6101 3.711967 C 47.830101 1.691971 43.650101 0.631966 39.840099 0.72197 C 35.430099 0.83197 31.6201 2.491974 28.810101 5.511971 Z"/>
    <path id="path1" fill="#ffffff" stroke="none" d="M 36.090099 124.321999 C 45.000099 126.202003 55.2201 121.122002 66.490097 109.232002 C 76.130096 99.052002 84.190102 86.241997 88.130096 79.512001 C 88.730103 78.482002 89.840103 76.491997 90.840103 74.711998 C 91.660103 73.251999 93.800102 73.391998 94.420097 74.942001 C 96.0401 78.942001 98.460098 85.082001 99.420097 88.311996 C 101.510002 95.702003 103.209999 103.491997 101.5 110.421997 C 100.690002 113.452003 99.100098 115.522003 96.750099 116.552002 C 93.800102 117.851997 89.750099 117.382004 85.640099 115.251999 C 82.690102 113.781998 79.590103 111.671997 76.150101 108.792 L 73.380096 111.952003 C 77.840103 115.912003 83.260101 120.171997 89.680099 121.781998 C 97.340103 123.802002 104.519997 119.681999 106.769997 111.982002 C 109.209999 103.402 107.589996 95.082001 105.550003 86.601997 C 104.110001 81.012001 102.169998 75.281998 99.630096 69.071999 C 98.420097 65.412003 94.310097 63.271999 90.640099 64.382004 C 88.980103 64.842003 87.490097 65.952003 86.550102 67.412003 L 86.530098 67.442001 C 86.530098 67.442001 86.480103 67.522003 86.450104 67.561996 C 86.400101 67.641998 86.370102 67.681999 86.350098 67.711998 L 84.700104 70.461998 C 76.870102 83.421997 65.990097 99.671997 51.2901 110.332001 C 44.850101 114.732002 40.080101 115.931999 37.100101 113.902 C 33.510101 111.461998 32.760101 104.342003 35.030102 94.382004 L 24.180099 92.181999 C 23.5501 95.671997 22.8701 100.342003 23.1301 105.452003 C 23.2701 109.741997 24.4401 113.891998 26.430099 117.141998 C 28.730101 120.902 32.070099 123.382004 36.090099 124.302002 L 36.090099 124.321999 Z"/>
    <path id="path2" fill="#ffffff" stroke="none" d="M 134.889999 57.022003 C 132.059998 48.372002 122.550003 42.052002 106.620003 38.242004 C 92.980103 34.981995 77.8601 34.412003 70.060097 34.362 C 68.870102 34.362 66.590103 34.391998 64.550102 34.412003 C 62.8801 34.431999 61.930099 32.512001 62.960098 31.192001 C 65.620102 27.792 69.7201 22.622002 72.0401 20.171997 C 77.390099 14.662003 83.2901 9.292023 90.150101 7.312019 C 93.180099 6.49202 95.770103 6.842018 97.840103 8.362022 C 100.440002 10.262001 102.059998 14.001999 102.269997 18.632004 C 102.470001 21.921997 102.199997 25.662003 101.419998 30.071999 L 105.550003 30.891998 C 106.75 25.052002 107.730003 18.222 105.910004 11.862 C 103.830002 4.222023 96.670097 0.052017 88.880096 1.962021 C 80.230103 4.142021 73.840103 9.702019 67.510101 15.701996 C 63.390099 19.742004 59.400101 24.292 55.2901 29.601997 C 52.730099 32.472 52.930099 37.112 55.730099 39.731995 C 56.960098 40.942001 58.660099 41.681999 60.400101 41.762001 L 60.430099 41.762001 C 60.430099 41.762001 60.5201 41.762001 60.580101 41.762001 C 60.670101 41.762001 60.730099 41.762001 60.760101 41.762001 L 63.960098 41.821999 C 79.100098 42.122002 98.6101 43.421997 115.190002 50.811996 C 122.220001 54.181999 125.639999 57.722 125.370003 61.312 C 125.050003 65.641998 119.260002 69.851997 109.5 72.862 L 113.019997 83.351997 C 116.360001 82.152 120.739998 80.412003 125.040001 77.622002 C 128.690002 75.362 131.699997 72.272003 133.509995 68.921997 C 135.619995 65.052002 136.089996 60.921997 134.880005 56.972 L 134.889999 57.022003 Z"/>
    <path id="path3" fill="#ffffff" stroke="none" d="M 191.119995 93.262001 C 188.850006 93.262001 187.070007 92.832001 185.800003 91.972 C 184.520004 91.112 183.610001 89.982002 183.059998 88.561996 C 182.509995 87.152 182.229996 85.641998 182.229996 84.031998 L 182.229996 54.692001 L 176.580002 54.692001 L 176.580002 48.542 L 182.399994 48.542 L 183.729996 36.321999 L 189.550003 36.321999 L 189.550003 48.542 L 197.779999 48.542 L 197.779999 54.692001 L 189.550003 54.692001 L 189.550003 82.952003 C 189.550003 84.342003 189.800003 85.372002 190.300003 86.071999 C 190.800003 86.762001 191.740005 87.112 193.130005 87.112 L 197.779999 87.112 L 197.779999 91.931999 C 197.220001 92.211998 196.559998 92.431999 195.779999 92.601997 C 195 92.772003 194.210007 92.921997 193.410004 93.061996 C 192.610001 93.202003 191.839996 93.272003 191.119995 93.272003 L 191.119995 93.262001 Z"/>
    <path id="path4" fill="#ffffff" stroke="none" d="M 201.009995 92.262001 L 216.720001 69.902 L 201.759995 48.542 L 210.570007 48.542 L 221.210007 64.171997 L 221.630005 64.171997 L 232.270004 48.542 L 240.580002 48.542 L 225.619995 69.652 L 241.410004 92.262001 L 232.679993 92.262001 L 221.210007 75.391998 L 220.789993 75.391998 L 209.320007 92.262001 L 201.009995 92.262001 Z"/>
    <path id="path5" fill="#ffffff" stroke="none" d="M 249.639999 92.261902 L 249.639999 35.241898 L 290.040009 35.241898 L 290.040009 42.061905 L 257.540009 42.061905 L 257.540009 60.351898 L 287.130005 60.351898 L 287.130005 67.081902 L 257.540009 67.081902 L 257.540009 92.261902 L 249.639999 92.261902 Z"/>
    <path id="path6" fill="#ffffff" stroke="none" d="M 312.640015 93.262001 C 308.429993 93.262001 305.049988 92.181999 302.5 90.022003 C 299.950012 87.862 298.679993 84.092003 298.679993 78.722 L 298.679993 48.552002 L 305.98999 48.552002 L 305.98999 77.722 C 305.98999 79.552002 306.209991 81.042 306.649994 82.211998 C 307.089996 83.372002 307.730011 84.292 308.559998 84.952003 C 309.390015 85.612 310.369995 86.092003 311.51001 86.362 C 312.640015 86.641998 313.880005 86.772003 315.209991 86.772003 C 317.320007 86.772003 319.26001 86.272003 321.029999 85.272003 C 322.799988 84.272003 324.26001 82.821999 325.390015 80.912003 C 326.519989 79.001999 327.089996 76.772003 327.089996 74.222 L 327.089996 48.542 L 334.399994 48.542 L 334.399994 92.262001 L 328.5 92.262001 L 327.829987 85.692001 L 327.25 85.692001 C 326.089996 87.461998 324.769989 88.902 323.299988 90.012001 C 321.829987 91.122002 320.200012 91.942001 318.399994 92.461998 C 316.600006 92.991997 314.670013 93.251999 312.619995 93.251999 L 312.640015 93.262001 Z"/>
    <path id="path7" fill="#ffffff" stroke="none" d="M 361.100006 93.261902 C 358.109985 93.261902 355.470001 92.951897 353.200012 92.351898 C 350.929993 91.741898 349.040009 90.851898 347.549988 89.691902 C 346.059998 88.531898 344.920013 87.141899 344.140015 85.531898 C 343.359985 83.921898 342.980011 82.091904 342.980011 80.041901 L 342.980011 79.2519 C 342.980011 79.0019 343.01001 78.792 343.059998 78.632004 L 350.290009 78.632004 C 350.23999 78.851898 350.209991 79.051903 350.209991 79.211899 L 350.209991 79.711899 C 350.26001 81.651901 350.779999 83.171898 351.75 84.281898 C 352.720001 85.391899 354.059998 86.161903 355.779999 86.6119 C 357.5 87.051903 359.410004 87.271896 361.51001 87.271896 C 363.339996 87.271896 365.029999 87.041901 366.579987 86.561897 C 368.130005 86.091904 369.359985 85.371902 370.279999 84.401901 C 371.190002 83.4319 371.649994 82.202003 371.649994 80.702003 C 371.649994 78.872002 371.049988 77.471901 369.859985 76.5019 C 368.670013 75.531898 367.100006 74.771896 365.160004 74.211899 C 363.220001 73.661903 361.200012 73.081902 359.089996 72.461899 C 357.320007 71.961899 355.540009 71.411903 353.769989 70.801903 C 352 70.191902 350.399994 69.441902 348.98999 68.561897 C 347.579987 67.671898 346.440002 66.521896 345.579987 65.1119 C 344.720001 63.7019 344.290009 61.9119 344.290009 59.7519 C 344.290009 57.811905 344.690002 56.091904 345.48999 54.601898 C 346.290009 53.101898 347.440002 51.831902 348.940002 50.781898 C 350.440002 49.731903 352.25 48.941895 354.390015 48.411896 C 356.519989 47.881897 358.890015 47.621902 361.5 47.621902 C 364.269989 47.621902 366.700012 47.921906 368.769989 48.531898 C 370.850006 49.141899 372.579987 50.0019 373.970001 51.1119 C 375.350006 52.221901 376.380005 53.481903 377.040009 54.891899 C 377.709991 56.301895 378.040009 57.811905 378.040009 59.421906 L 378.040009 60.381897 C 378.040009 60.6819 378.01001 60.921906 377.959991 61.0919 L 370.809998 61.0919 L 370.809998 60.1819 C 370.809998 59.071899 370.519989 58.011902 369.940002 56.981903 C 369.359985 55.961899 368.359985 55.121902 366.950012 54.491898 C 365.540009 53.851898 363.579987 53.531898 361.089996 53.531898 C 359.480011 53.531898 358.100006 53.651901 356.929993 53.901901 C 355.769989 54.151901 354.799988 54.541901 354.019989 55.061905 C 353.23999 55.591904 352.660004 56.201904 352.279999 56.891899 C 351.890015 57.581902 351.700012 58.371902 351.700012 59.261902 C 351.700012 60.701904 352.170013 61.811901 353.109985 62.581902 C 354.049988 63.3619 355.309998 63.991901 356.890015 64.491898 C 358.470001 64.991898 360.170013 65.541901 362 66.151901 C 363.940002 66.711899 365.920013 67.271896 367.940002 67.851898 C 369.959991 68.4319 371.820007 69.171898 373.51001 70.051903 C 375.200012 70.941902 376.559998 72.141899 377.579987 73.671898 C 378.600006 75.191902 379.119995 77.202003 379.119995 79.702003 C 379.119995 82.031998 378.679993 84.051903 377.790009 85.771896 C 376.899994 87.491997 375.640015 88.901901 374.01001 90.011902 C 372.380005 91.121902 370.459991 91.941902 368.279999 92.461899 C 366.089996 92.991898 363.690002 93.2519 361.089996 93.2519 L 361.100006 93.261902 Z"/>
    <path id="path8" fill="#ffffff" stroke="none" d="M 388.200012 40.311996 L 388.200012 32.162003 L 395.51001 32.162003 L 395.51001 40.311996 L 388.200012 40.311996 Z M 388.200012 92.262001 L 388.200012 48.542 L 395.51001 48.542 L 395.51001 92.262001 L 388.200012 92.262001 Z"/>
    <path id="path9" fill="#ffffff" stroke="none" d="M 424.850006 93.262001 C 420.420013 93.262001 416.690002 92.442001 413.670013 90.811996 C 410.649994 89.181999 408.350006 86.671997 406.769989 83.292 C 405.190002 79.912003 404.399994 75.622002 404.399994 70.412003 C 404.399994 65.202003 405.190002 60.841995 406.769989 57.492004 C 408.350006 54.141998 410.649994 51.641998 413.670013 50.012001 C 416.690002 48.382004 420.420013 47.561996 424.850006 47.561996 C 429.279999 47.561996 433.01001 48.382004 436.029999 50.012001 C 439.049988 51.641998 441.329987 54.141998 442.890015 57.492004 C 444.440002 60.841995 445.220001 65.152 445.220001 70.412003 C 445.220001 75.671997 444.440002 79.912003 442.890015 83.292 C 441.339996 86.671997 439.049988 89.181999 436.029999 90.811996 C 433.01001 92.442001 429.279999 93.262001 424.850006 93.262001 Z M 424.850006 87.112 C 427.679993 87.112 430.029999 86.561996 431.910004 85.452003 C 433.790009 84.342003 435.220001 82.612 436.190002 80.251999 C 437.160004 77.902 437.640015 74.921997 437.640015 71.311996 L 437.640015 69.482002 C 437.640015 65.821999 437.149994 62.832001 436.190002 60.501999 C 435.220001 58.171997 433.790009 56.462006 431.910004 55.352005 C 430.029999 54.242004 427.670013 53.692001 424.850006 53.692001 C 422.029999 53.692001 419.649994 54.251999 417.73999 55.352005 C 415.829987 56.462006 414.399994 58.181999 413.459991 60.501999 C 412.519989 62.832001 412.049988 65.821999 412.049988 69.482002 L 412.049988 71.311996 C 412.049988 74.912003 412.519989 77.891998 413.459991 80.251999 C 414.399994 82.612 415.829987 84.342003 417.73999 85.452003 C 419.649994 86.561996 422.019989 87.112 424.850006 87.112 Z"/>
    <path id="path10" fill="#ffffff" stroke="none" d="M 454.279999 92.262001 L 454.279999 48.542 L 460.179993 48.542 L 460.839996 55.112 L 461.420013 55.112 C 462.579987 53.341995 463.899994 51.902 465.369995 50.792 C 466.839996 49.681999 468.470001 48.872002 470.269989 48.341995 C 472.070007 47.811996 474 47.552002 476.049988 47.552002 C 478.820007 47.552002 481.25 48.022003 483.320007 48.962006 C 485.399994 49.902 487.029999 51.431999 488.220001 53.531998 C 489.410004 55.641998 490.01001 58.492004 490.01001 62.091999 L 490.01001 92.262001 L 482.700012 92.262001 L 482.700012 63.091999 C 482.700012 61.262001 482.459991 59.772003 481.98999 58.602005 C 481.519989 57.431999 480.880005 56.522003 480.079987 55.862 C 479.279999 55.201996 478.309998 54.731995 477.170013 54.451996 C 476.029999 54.171997 474.769989 54.042 473.390015 54.042 C 471.339996 54.042 469.399994 54.542 467.570007 55.542 C 465.73999 56.542 464.290009 57.981995 463.209991 59.862 C 462.130005 61.742001 461.589996 63.992001 461.589996 66.592003 L 461.589996 92.272003 L 454.279999 92.272003 L 454.279999 92.262001 Z"/>
</svg>
