<?xml version="1.0" encoding="UTF-8"?>
<!-- Generated by Pixelmator Pro 3.2.3 -->
<svg width="5351" height="1203" viewBox="0 0 5351 1203" xmlns="http://www.w3.org/2000/svg" xmlns:xlink="http://www.w3.org/1999/xlink">
    <g id="Group">
        <path id="Belgrade-Blockchain-Week" fill="#ffffff" fill-rule="evenodd" stroke="none" d="M 1717.751953 1097.363281 C 1679.674561 1097.363281 1647.187744 1084.177368 1620.289063 1057.802734 C 1593.390137 1031.428223 1579.939453 999.026123 1579.939453 960.599609 C 1579.939453 922.172974 1593.390137 889.77301 1620.289063 863.398438 C 1647.187744 837.023804 1679.674561 823.835938 1717.751953 823.835938 C 1755.82959 823.835938 1788.317871 837.023804 1815.216797 863.398438 C 1842.115479 889.77301 1855.564453 922.172974 1855.564453 960.599609 C 1855.564453 999.026123 1842.115479 1031.515137 1815.216797 1058.064453 C 1788.317871 1084.264404 1755.82959 1097.363281 1717.751953 1097.363281 Z M 2027.960938 1097.363281 C 1988.835449 1097.363281 1955.82251 1084.438477 1928.923828 1058.587891 C 1902.024902 1032.737305 1888.576172 1000.074158 1888.576172 960.599609 C 1888.576172 921.124939 1902.024902 888.461914 1928.923828 862.611328 C 1955.82251 836.760742 1988.835449 823.835938 2027.960938 823.835938 C 2054.859863 823.835938 2079.6604 830.823486 2102.367188 844.796875 C 2125.073975 858.770264 2142.016602 877.283936 2153.195313 900.339844 L 2084.027344 937.019531 C 2072.499268 910.81958 2053.811768 897.720703 2027.960938 897.720703 C 2011.192871 897.720703 1997.043457 903.657715 1985.515625 915.535156 C 1973.987549 927.412537 1968.224609 942.434387 1968.224609 960.599609 C 1968.224609 978.764893 1973.987549 993.786804 1985.515625 1005.664063 C 1997.043457 1017.541321 2011.192871 1023.480469 2027.960938 1023.480469 C 2053.811768 1023.480469 2072.499268 1010.379639 2084.027344 984.179688 L 2153.195313 1020.859375 C 2142.016602 1043.915283 2125.073975 1062.43103 2102.367188 1076.404297 C 2079.6604 1090.377563 2054.859863 1097.363281 2027.960938 1097.363281 Z M 2597.023438 1097.363281 C 2557.897949 1097.363281 2524.886963 1084.438477 2497.988281 1058.587891 C 2471.089355 1032.737305 2457.640625 1000.074097 2457.640625 960.599609 C 2457.640625 921.125 2471.089355 888.461914 2497.988281 862.611328 C 2524.886963 836.760803 2557.897949 823.835938 2597.023438 823.835938 C 2623.922363 823.835938 2648.725098 830.823486 2671.431641 844.796875 C 2694.138428 858.770264 2711.081055 877.283936 2722.259766 900.339844 L 2653.091797 937.019531 C 2641.563721 910.819641 2622.874268 897.720703 2597.023438 897.720703 C 2580.255371 897.720703 2566.108154 903.657715 2554.580078 915.535156 C 2543.052002 927.412537 2537.289063 942.434448 2537.289063 960.599609 C 2537.289063 978.764893 2543.052002 993.786804 2554.580078 1005.664063 C 2566.108154 1017.541321 2580.255371 1023.480469 2597.023438 1023.480469 C 2622.874268 1023.480469 2641.563721 1010.379578 2653.091797 984.179688 L 2722.259766 1020.859375 C 2711.081055 1043.915283 2694.138428 1062.43103 2671.431641 1076.404297 C 2648.725098 1090.377563 2623.922363 1097.363281 2597.023438 1097.363281 Z M 3193.335938 1097.363281 C 3155.60791 1097.363281 3124.692139 1084.001221 3100.587891 1057.277344 C 3076.483887 1030.553467 3064.431641 998.327515 3064.431641 960.599609 C 3064.431641 922.871704 3076.483887 890.645752 3100.587891 863.921875 C 3124.692139 837.197998 3155.60791 823.835938 3193.335938 823.835938 C 3218.138672 823.835938 3238.749268 831.171692 3255.167969 845.84375 L 3255.167969 829.599609 L 3334.292969 829.599609 L 3334.292969 1091.599609 L 3255.167969 1091.599609 L 3255.167969 1074.832031 C 3239.098633 1089.853271 3218.488037 1097.363281 3193.335938 1097.363281 Z M 4595.035156 1097.363281 C 4555.560059 1097.363281 4522.462402 1084.875732 4495.738281 1059.898438 C 4469.01416 1034.921265 4455.652344 1001.82074 4455.652344 960.599609 C 4455.652344 921.474365 4468.75293 888.898254 4494.953125 862.873047 C 4521.15332 836.847839 4553.990234 823.835938 4593.464844 823.835938 C 4630.14502 823.835938 4661.059082 835.013916 4686.210938 857.371094 C 4711.363281 879.728271 4723.939453 911.168823 4723.939453 951.691406 C 4723.939453 961.822021 4723.415039 971.080933 4722.367188 979.464844 L 4532.15625 979.464844 C 4534.252441 994.486145 4541.413574 1005.925232 4553.640625 1013.785156 C 4565.867188 1021.64502 4580.014648 1025.576172 4596.083984 1025.576172 C 4610.406738 1025.576172 4623.157227 1022.693726 4634.335938 1016.929688 C 4645.514648 1011.165649 4653.898926 1004.090942 4659.488281 995.707031 L 4718.175781 1039.724609 C 4705.600098 1057.540527 4688.656738 1071.600952 4667.347656 1081.90625 C 4646.038086 1092.211548 4621.933594 1097.363281 4595.035156 1097.363281 Z M 4897.382813 1097.363281 C 4857.908203 1097.363281 4824.810059 1084.875732 4798.085938 1059.898438 C 4771.361816 1034.921265 4758 1001.82074 4758 960.599609 C 4758 921.474365 4771.101074 888.898254 4797.300781 862.873047 C 4823.500977 836.847839 4856.337402 823.835938 4895.8125 823.835938 C 4932.492676 823.835938 4963.408203 835.013916 4988.560547 857.371094 C 5013.712402 879.728271 5026.289063 911.168823 5026.289063 951.691406 C 5026.289063 961.822021 5025.763184 971.080933 5024.714844 979.464844 L 4834.503906 979.464844 C 4836.600098 994.486145 4843.761719 1005.925232 4855.988281 1013.785156 C 4868.215332 1021.64502 4882.362305 1025.576172 4898.431641 1025.576172 C 4912.754395 1025.576172 4925.504883 1022.693726 4936.683594 1016.929688 C 4947.862305 1011.165649 4956.246582 1004.090942 4961.835938 995.707031 L 5020.523438 1039.724609 C 5007.947266 1057.540527 4991.004883 1071.600952 4969.695313 1081.90625 C 4948.38623 1092.211548 4924.281738 1097.363281 4897.382813 1097.363281 Z M 1129.300781 1091.599609 L 1129.300781 719.560547 L 1269.207031 719.560547 C 1299.599121 719.560547 1325.624512 730.30127 1347.283203 751.785156 C 1368.942139 773.269043 1379.771484 799.383667 1379.771484 830.125 C 1379.771484 854.927551 1370.864746 876.236816 1353.048828 894.052734 C 1369.118164 902.436768 1381.955811 914.31311 1391.5625 929.683594 C 1401.169189 945.054138 1405.972656 962.521301 1405.972656 982.083984 C 1405.972656 1012.825256 1395.143311 1038.763794 1373.484375 1059.898438 C 1351.825684 1081.033081 1324.927734 1091.599609 1292.789063 1091.599609 L 1129.300781 1091.599609 Z M 1452.083984 1091.599609 L 1452.083984 709.080078 L 1531.207031 709.080078 L 1531.207031 1091.599609 L 1452.083984 1091.599609 Z M 2195.640625 1091.599609 L 2195.640625 709.080078 L 2274.763672 709.080078 L 2274.763672 923.396484 L 2351.267578 829.599609 L 2445.064453 829.599609 L 2348.648438 948.023438 L 2468.121094 1091.599609 L 2372.228516 1091.599609 L 2274.763672 974.748047 L 2274.763672 1091.599609 L 2195.640625 1091.599609 Z M 2764.703125 1091.599609 L 2764.703125 709.080078 L 2843.828125 709.080078 L 2843.828125 848.464844 C 2861.294922 832.046326 2884.000488 823.835938 2911.947266 823.835938 C 2945.483398 823.835938 2971.595947 834.578613 2990.285156 856.0625 C 3008.974609 877.546387 3018.320313 906.278442 3018.320313 942.259766 L 3018.320313 1091.599609 L 2939.195313 1091.599609 L 2939.195313 955.884766 C 2939.195313 937.370239 2935.527588 922.696533 2928.191406 911.867188 C 2920.855469 901.037781 2909.677734 895.623047 2894.65625 895.623047 C 2873.346924 895.623047 2856.404297 903.659363 2843.828125 919.728516 L 2843.828125 1091.599609 L 2764.703125 1091.599609 Z M 3399.267578 1091.599609 L 3399.267578 829.599609 L 3478.392578 829.599609 L 3478.392578 1091.599609 L 3399.267578 1091.599609 Z M 3543.367188 1091.599609 L 3543.367188 829.599609 L 3622.492188 829.599609 L 3622.492188 848.464844 C 3639.958984 832.046326 3662.664551 823.835938 3690.611328 823.835938 C 3724.147461 823.835938 3750.259766 834.578613 3768.949219 856.0625 C 3787.638672 877.546387 3796.984375 906.278442 3796.984375 942.259766 L 3796.984375 1091.599609 L 3717.859375 1091.599609 L 3717.859375 955.884766 C 3717.859375 937.370239 3714.191406 922.696533 3706.855469 911.867188 C 3699.519531 901.037781 3688.341797 895.623047 3673.320313 895.623047 C 3652.01123 895.623047 3635.067871 903.659363 3622.492188 919.728516 L 3622.492188 1091.599609 L 3543.367188 1091.599609 Z M 4052.695313 1091.599609 L 3936.892578 719.560547 L 4024.923828 719.560547 L 4092.519531 956.408203 L 4164.832031 719.560547 L 4238.191406 719.560547 L 4310.503906 956.931641 L 4378.099609 719.560547 L 4467.179688 719.560547 L 4351.375 1091.599609 L 4275.919922 1091.599609 L 4201.511719 846.892578 L 4127.628906 1091.599609 L 4052.695313 1091.599609 Z M 5076.068359 1091.599609 L 5076.068359 709.080078 L 5155.191406 709.080078 L 5155.191406 923.396484 L 5231.695313 829.599609 L 5325.492188 829.599609 L 5229.076172 948.023438 L 5348.546875 1091.599609 L 5252.65625 1091.599609 L 5155.191406 974.748047 L 5155.191406 1091.599609 L 5076.068359 1091.599609 Z M 3205.388672 1025.576172 C 3225.999512 1025.576172 3242.592041 1017.191772 3255.167969 1000.423828 L 3255.167969 920.251953 C 3242.242676 903.833435 3225.650146 895.623047 3205.388672 895.623047 C 3187.921875 895.623047 3173.685791 901.912231 3162.681641 914.488281 C 3151.677734 927.064331 3146.175781 942.434448 3146.175781 960.599609 C 3146.175781 978.764893 3151.677734 994.136963 3162.681641 1006.712891 C 3173.685791 1019.288818 3187.921875 1025.576172 3205.388672 1025.576172 Z M 1717.751953 1023.480469 C 1734.52002 1023.480469 1748.40625 1017.715454 1759.410156 1006.1875 C 1770.414307 994.659546 1775.916016 979.463562 1775.916016 960.599609 C 1775.916016 941.735718 1770.414307 926.539795 1759.410156 915.011719 C 1748.40625 903.483643 1734.52002 897.720703 1717.751953 897.720703 C 1700.983887 897.720703 1687.0979 903.483643 1676.09375 915.011719 C 1665.0896 926.539795 1659.587891 941.735718 1659.587891 960.599609 C 1659.587891 979.463562 1665.002686 994.659546 1675.832031 1006.1875 C 1687.010742 1017.715454 1700.983887 1023.480469 1717.751953 1023.480469 Z M 1212.615234 1015.095703 L 1285.976563 1015.095703 C 1297.155273 1015.095703 1306.411865 1011.514893 1313.748047 1004.353516 C 1321.083984 997.192139 1324.751953 988.372498 1324.751953 977.892578 C 1324.751953 967.412659 1320.99707 958.591064 1313.486328 951.429688 C 1305.975586 944.268311 1296.629883 940.6875 1285.451172 940.6875 L 1212.615234 940.6875 L 1212.615234 1015.095703 Z M 4534.251953 927.587891 L 4645.339844 927.587891 C 4642.195801 914.662476 4635.558105 904.881531 4625.427734 898.244141 C 4615.296875 891.606812 4603.942871 888.287109 4591.367188 888.287109 C 4578.092285 888.287109 4566.040527 891.519714 4555.210938 897.982422 C 4544.381836 904.445129 4537.395996 914.31311 4534.251953 927.587891 Z M 4836.599609 927.587891 L 4947.6875 927.587891 C 4944.543457 914.662476 4937.90625 904.881531 4927.775391 898.244141 C 4917.64502 891.606812 4906.291016 888.287109 4893.714844 888.287109 C 4880.44043 888.287109 4868.389648 891.519714 4857.560547 897.982422 C 4846.730957 904.445129 4839.743652 914.31311 4836.599609 927.587891 Z M 1212.615234 869.947266 L 1259.775391 869.947266 C 1270.954346 869.947266 1280.212646 866.455444 1287.548828 859.46875 C 1294.884766 852.482056 1298.552734 843.74762 1298.552734 833.267578 C 1298.552734 822.787537 1294.884766 813.880981 1287.548828 806.544922 C 1280.212646 799.208862 1270.954346 795.539063 1259.775391 795.539063 L 1212.615234 795.539063 L 1212.615234 869.947266 Z M 3438.568359 804.447266 C 3425.293945 804.447266 3413.766113 799.643799 3403.984375 790.037109 C 3394.203125 780.430359 3389.3125 768.81543 3389.3125 755.191406 C 3389.3125 741.567322 3394.203125 729.952393 3403.984375 720.345703 C 3413.766113 710.738953 3425.293945 705.935547 3438.568359 705.935547 C 3452.541992 705.935547 3464.330566 710.738953 3473.9375 720.345703 C 3483.544434 729.952393 3488.347656 741.567322 3488.347656 755.191406 C 3488.347656 768.81543 3483.544434 780.430359 3473.9375 790.037109 C 3464.330566 799.643799 3452.541992 804.447266 3438.568359 804.447266 Z M 2019.052734 600.896484 C 1971.193848 600.896484 1932.942383 589.716858 1904.296875 567.359375 L 1945.691406 508.148438 C 1966.302246 523.86853 1990.406494 531.728516 2018.003906 531.728516 C 2034.422852 531.728516 2048.746094 527.362305 2060.972656 518.628906 C 2073.199463 509.895569 2079.3125 497.319092 2079.3125 480.900391 L 2079.3125 465.703125 C 2063.243164 480.724548 2042.282471 488.236328 2016.431641 488.236328 C 1979.052979 488.236328 1947.963135 475.659973 1923.160156 450.507813 C 1898.357422 425.355713 1885.957031 394.265564 1885.957031 357.236328 C 1885.957031 320.20697 1898.357422 289.116943 1923.160156 263.964844 C 1947.963135 238.812744 1979.052979 226.236328 2016.431641 226.236328 C 2041.933105 226.236328 2062.893799 233.572021 2079.3125 248.244141 L 2079.3125 232 L 2158.435547 232 L 2158.435547 479.851563 C 2158.435547 498.366333 2155.64209 514.784729 2150.052734 529.107422 C 2144.463379 543.430176 2137.214844 554.958008 2128.306641 563.691406 C 2119.398682 572.424744 2108.656006 579.673462 2096.080078 585.4375 C 2083.503906 591.201538 2071.014648 595.219543 2058.613281 597.490234 C 2046.211914 599.760925 2033.026123 600.896484 2019.052734 600.896484 Z M 1578.892578 499.763672 C 1539.417725 499.763672 1506.317871 487.276306 1479.59375 462.298828 C 1452.869629 437.321411 1439.507813 404.221436 1439.507813 363 C 1439.507813 323.874634 1452.608398 291.298828 1478.808594 265.273438 C 1505.008545 239.247925 1537.845459 226.236328 1577.320313 226.236328 C 1614.000488 226.236328 1644.916016 237.414063 1670.068359 259.771484 C 1695.220459 282.128906 1707.796875 313.569031 1707.796875 354.091797 C 1707.796875 364.222534 1707.272461 373.479248 1706.224609 381.863281 L 1516.011719 381.863281 C 1518.107666 396.884705 1525.269287 408.325562 1537.496094 416.185547 C 1549.722656 424.045593 1563.870117 427.976563 1579.939453 427.976563 C 1594.262207 427.976563 1607.012695 425.094116 1618.191406 419.330078 C 1629.370117 413.56604 1637.754395 406.491516 1643.34375 398.107422 L 1702.03125 442.125 C 1689.455322 459.94104 1672.512451 474.001221 1651.203125 484.306641 C 1629.893555 494.612 1605.79126 499.763672 1578.892578 499.763672 Z M 2534.667969 499.763672 C 2496.939697 499.763672 2466.02417 486.401917 2441.919922 459.677734 C 2417.815918 432.953613 2405.763672 400.727844 2405.763672 363 C 2405.763672 325.272217 2417.815918 293.046387 2441.919922 266.322266 C 2466.02417 239.598145 2496.939697 226.236328 2534.667969 226.236328 C 2559.470703 226.236328 2580.081299 233.572021 2596.5 248.244141 L 2596.5 232 L 2675.625 232 L 2675.625 494 L 2596.5 494 L 2596.5 477.232422 C 2580.430664 492.253845 2559.820068 499.763672 2534.667969 499.763672 Z M 2853.783203 499.763672 C 2816.055176 499.763672 2785.139404 486.401917 2761.035156 459.677734 C 2736.931152 432.953613 2724.878906 400.727783 2724.878906 363 C 2724.878906 325.272278 2736.931152 293.046387 2761.035156 266.322266 C 2785.139404 239.598145 2816.055176 226.236328 2853.783203 226.236328 C 2878.585938 226.236328 2899.196533 233.572021 2915.615234 248.244141 L 2915.615234 111.480469 L 2994.740234 111.480469 L 2994.740234 494 L 2915.615234 494 L 2915.615234 477.232422 C 2899.545898 492.253845 2878.935303 499.763672 2853.783203 499.763672 Z M 3183.378906 499.763672 C 3143.904053 499.763672 3110.806152 487.276306 3084.082031 462.298828 C 3057.35791 437.321411 3043.996094 404.22113 3043.996094 363 C 3043.996094 323.874939 3057.096924 291.298828 3083.296875 265.273438 C 3109.49707 239.247925 3142.33374 226.236328 3181.808594 226.236328 C 3218.48877 226.236328 3249.404297 237.414063 3274.556641 259.771484 C 3299.708496 282.128906 3312.285156 313.569336 3312.285156 354.091797 C 3312.285156 364.222534 3311.758789 373.479248 3310.710938 381.863281 L 3120.5 381.863281 C 3122.595947 396.884705 3129.757813 408.325562 3141.984375 416.185547 C 3154.211182 424.045593 3168.358398 427.976563 3184.427734 427.976563 C 3198.750488 427.976563 3211.500977 425.094116 3222.679688 419.330078 C 3233.858398 413.56604 3242.242676 406.491516 3247.832031 398.107422 L 3306.519531 442.125 C 3293.943359 459.94104 3277.000977 474.001221 3255.691406 484.306641 C 3234.38208 494.612 3210.277832 499.763672 3183.378906 499.763672 Z M 1129.300781 494 L 1129.300781 121.960938 L 1269.207031 121.960938 C 1299.599121 121.960938 1325.624512 132.701416 1347.283203 154.185547 C 1368.942139 175.669678 1379.771484 201.781921 1379.771484 232.523438 C 1379.771484 257.326172 1370.864746 278.63501 1353.048828 296.451172 C 1369.118164 304.835205 1381.955811 316.713257 1391.5625 332.083984 C 1401.169189 347.454773 1405.972656 364.921631 1405.972656 384.484375 C 1405.972656 415.225769 1395.143311 441.164063 1373.484375 462.298828 C 1351.825684 483.433655 1324.927734 494 1292.789063 494 L 1129.300781 494 Z M 1757.576172 494 L 1757.576172 111.480469 L 1836.699219 111.480469 L 1836.699219 494 L 1757.576172 494 Z M 2223.412109 494 L 2223.412109 232 L 2302.535156 232 L 2302.535156 261.34375 C 2306.727295 251.911743 2314.23877 244.138794 2325.068359 238.025391 C 2335.897705 231.911987 2347.773926 228.855469 2360.699219 228.855469 C 2372.57666 228.855469 2383.231934 230.602417 2392.664063 234.095703 L 2380.611328 307.980469 C 2377.81665 305.884521 2370.480957 304.835938 2358.603516 304.835938 C 2332.40332 304.835938 2313.714111 312.695923 2302.535156 328.416016 L 2302.535156 494 L 2223.412109 494 Z M 2546.720703 427.976563 C 2567.331543 427.976563 2583.923828 419.592346 2596.5 402.824219 L 2596.5 322.652344 C 2583.574707 306.233643 2566.982178 298.023438 2546.720703 298.023438 C 2529.253906 298.023438 2515.017822 304.312622 2504.013672 316.888672 C 2493.009766 329.464783 2487.507813 344.834595 2487.507813 363 C 2487.507813 381.165405 2493.009766 396.535278 2504.013672 409.111328 C 2515.017822 421.687378 2529.253906 427.976563 2546.720703 427.976563 Z M 2865.835938 427.976563 C 2886.446777 427.976563 2903.039307 419.592346 2915.615234 402.824219 L 2915.615234 322.652344 C 2902.689941 306.233643 2886.097412 298.023438 2865.835938 298.023438 C 2848.369141 298.023438 2834.133057 304.312622 2823.128906 316.888672 C 2812.125 329.464783 2806.625 344.834595 2806.625 363 C 2806.625 381.165405 2812.125 396.535278 2823.128906 409.111328 C 2834.133057 421.687378 2848.369141 427.976563 2865.835938 427.976563 Z M 1212.615234 417.496094 L 1285.976563 417.496094 C 1297.155273 417.496094 1306.411865 413.915222 1313.748047 406.753906 C 1321.083984 399.592529 1324.751953 390.77301 1324.751953 380.292969 C 1324.751953 369.812927 1320.99707 360.991455 1313.486328 353.830078 C 1305.975586 346.668701 1296.629883 343.087891 1285.451172 343.087891 L 1212.615234 343.087891 L 1212.615234 417.496094 Z M 2029.53125 416.447266 C 2050.14209 416.447266 2066.736328 408.064941 2079.3125 391.296875 L 2079.3125 322.652344 C 2066.387207 306.233643 2049.792725 298.023438 2029.53125 298.023438 C 2011.365723 298.023438 1996.520264 303.525269 1984.992188 314.529297 C 1973.464111 325.533325 1967.699219 339.769531 1967.699219 357.236328 C 1967.699219 374.703064 1973.464111 388.937317 1984.992188 399.941406 C 1996.520264 410.945435 2011.365723 416.447266 2029.53125 416.447266 Z M 1518.107422 329.988281 L 1629.195313 329.988281 C 1626.05127 317.062927 1619.414063 307.28186 1609.283203 300.644531 C 1599.152588 294.00708 1587.800537 290.6875 1575.224609 290.6875 C 1561.949707 290.6875 1549.897705 293.920166 1539.068359 300.382813 C 1528.23877 306.845581 1521.251465 316.713562 1518.107422 329.988281 Z M 3122.595703 329.988281 L 3233.683594 329.988281 C 3230.539551 317.062927 3223.902344 307.28186 3213.771484 300.644531 C 3203.640869 294.00708 3192.287109 290.6875 3179.710938 290.6875 C 3166.436279 290.6875 3154.38623 293.920166 3143.556641 300.382813 C 3132.727295 306.845581 3125.739746 316.713562 3122.595703 329.988281 Z M 1212.615234 272.347656 L 1259.775391 272.347656 C 1270.954346 272.347656 1280.212646 268.853882 1287.548828 261.867188 C 1294.884766 254.880493 1298.552734 246.148071 1298.552734 235.667969 C 1298.552734 225.187988 1294.884766 216.279419 1287.548828 208.943359 C 1280.212646 201.6073 1270.954346 197.939453 1259.775391 197.939453 L 1212.615234 197.939453 L 1212.615234 272.347656 Z"/>
        <path id="Path" fill="#ffffff" fill-rule="evenodd" stroke="none" d="M 334.913544 1202 L 121.651871 1086.950928 L 545.369141 1086.950928 L 334.913544 1202 Z M 26.245327 1005.574768 L 6.602804 927.004639 L 663.224304 927.004639 L 640.775696 1005.574768 L 26.245327 1005.574768 Z M 0.990654 851.240662 L 0.990654 772.670532 L 668.836426 772.670532 L 668.836426 851.240662 L 0.990654 851.240662 Z M 0.990654 696.906555 L 0.990654 606.481873 L 17.032413 606.481873 L 63.672447 606.481873 L 31.282013 572.792542 L 121.980705 572.792542 L 83.106705 539.108704 L 178.990067 539.108704 L 138.822632 517.082092 L 178.990067 495.055481 L 83.106705 495.055481 L 121.980705 461.371643 L 31.282013 461.371643 L 63.672447 427.682312 L 17.032413 427.682312 L 0.990654 427.682312 L 0.990654 340.535034 L 668.836426 340.535034 L 668.836426 427.682312 L 655.600769 427.682312 L 608.960754 427.682312 L 641.351135 461.371643 L 550.652466 461.371643 L 589.526489 495.055481 L 503.743896 495.055481 L 493.643127 495.055481 L 407.866028 495.055481 L 446.740021 461.371643 L 356.041321 461.371643 L 388.431763 427.682312 L 341.791718 427.682312 L 295.14621 427.682312 L 327.536652 461.371643 L 236.84343 461.371643 L 275.711945 495.055481 L 179.834076 495.055481 L 220.001495 517.082092 L 179.834076 539.108704 L 275.711945 539.108704 L 236.84343 572.792542 L 327.536652 572.792542 L 295.14621 606.481873 L 341.791718 606.481873 L 388.431763 606.481873 L 356.041321 572.792542 L 446.740021 572.792542 L 407.866028 539.108704 L 493.643127 539.108704 L 503.743896 539.108704 L 589.526489 539.108704 L 550.652466 572.792542 L 641.351135 572.792542 L 608.960754 606.481873 L 655.600769 606.481873 L 668.836426 606.481873 L 668.836426 696.906555 L 0.990654 696.906555 Z M 0.990654 574.650452 L 0.990654 572.792542 L 2.777335 572.792542 L 0.990654 574.650452 Z M 498.696259 536.340942 L 463.58194 517.082092 L 498.696259 497.823181 L 533.810547 517.082092 L 498.696259 536.340942 Z M 0.990654 461.371643 L 0.990654 459.513733 L 2.777335 461.371643 L 0.990654 461.371643 Z M 87.978973 259.158875 L 51.5 29.060791 L 138.488312 15.030396 L 144.100464 87.988281 L 211.446259 82.376221 L 208.640182 3.80603 L 301.240662 1 L 301.240662 79.570068 L 337.719635 79.570068 L 374.198608 79.570068 L 374.198608 1 L 466.799072 3.80603 L 463.992981 82.376221 L 531.338806 87.988281 L 536.950928 15.030396 L 623.93927 29.060791 L 587.460266 259.158875 L 337.719635 259.158875 L 87.978973 259.158875 Z"/>
    </g>
</svg>
