<?xml version="1.0" encoding="UTF-8"?>
<!-- Generated by Pixelmator Pro 3.2.3 -->
<svg width="787" height="1205" viewBox="0 0 787 1205" xmlns="http://www.w3.org/2000/svg" xmlns:xlink="http://www.w3.org/1999/xlink">
    <path id="Path" fill="none" stroke="#d9d9d9" stroke-width="3" stroke-linecap="round" stroke-linejoin="round" d="M -1.38913 1204.680054 L -233.613007 1380.77002 L -233.557999 1064.060059 L -233.557999 1061.040039 L -235.964996 1062.869995 L -417.705994 1200.670044 L -417.627014 887.961975 L -417.627014 887.21698 L -418.220001 886.767029 L -601.19397 747.815002 L -602.101013 747.125977 L -603.007996 747.814026 L -657.911011 789.484985 L -785.778992 886.518005 L -785.757996 691.804993 L -785.737 497.092041 L -657.890015 594.140015 L -602.973999 635.825989 L -602.067993 636.513977 L -601.161011 635.825989 L -418.15799 496.97699 L -417.565002 496.526978 L -417.565002 495.782959 L -417.485992 183.072021 L -235.785004 320.98999 L -233.378998 322.817017 L -233.378006 319.796021 L -233.322998 3.089722 L -1.16949 179.265991 L -0.263088 179.953979 L 0.643602 179.266968 L 232.867996 3.17688 L 232.813004 319.883057 L 232.811996 322.904053 L 235.218994 321.078979 L 416.960999 183.271973 L 416.881989 495.983032 L 416.881989 496.728027 L 417.475006 497.177979 L 600.447998 636.130981 L 601.35498 636.820007 L 602.263 636.130981 L 657.164978 594.460022 L 785.031982 497.427979 L 784.966003 692.234009 L 786.460022 692.234009 L 784.966003 692.234009 L 784.945007 886.947021 L 657.098022 789.898987 L 602.182007 748.213989 L 601.276001 747.525024 L 600.369019 748.213013 L 417.367004 887.062012 L -1.38913 1204.680054 Z"/>
</svg>
