<svg width="1295" height="1214" viewBox="0 0 1295 1214" fill="none" xmlns="http://www.w3.org/2000/svg">
<path d="M908.075 979.729L972.396 847.765L999.885 791.364L1000.22 790.682L999.65 790.178L843.31 651.401L842.938 651.071L842.451 651.167L562.573 706.598L653.843 519.326L654.725 517.515L652.75 517.907L369.311 574.065L485.891 335.009L486.224 334.327L485.657 333.823L286.81 157.211L570.25 101.052L572.225 100.66L570.72 99.3234L414.984 -39.0022L694.862 -94.4326L695.349 -94.5291L695.566 -94.9752L787.212 -282.906L787.544 -283.589L786.977 -284.093L740.059 -325.725L630.256 -423.177L804.793 -457.771L979.33 -492.365L915.009 -360.401L887.52 -304L887.187 -303.318L887.755 -302.814L1044.1 -164.036L1044.47 -163.707L1044.95 -163.803L1324.83 -219.234L1233.56 -31.9615L1232.68 -30.1511L1234.66 -30.5425L1518.1 -86.7017L1401.61 152.38L1401.27 153.062L1401.84 153.566L1600.69 330.178L1317.25 386.337L1315.27 386.728L1316.78 388.065L1472.51 526.391L1192.64 581.821L1192.15 581.918L1191.93 582.364L1100.29 770.295L1099.95 770.977L1100.52 771.481L1147.44 813.114L1257.24 910.566L1082.61 945.135L1082.81 946.116L1082.61 945.135L908.075 979.729Z" stroke="#DBFE87" stroke-width="2"/>
</svg>
