<svg xmlns="http://www.w3.org/2000/svg" width="250" height="250" viewBox="0 0 250 250" fill="none">
  <g clip-path="url(#clip0_988_296)">
    <path d="M125.128 250C112.143 250 99.0906 247.949 86.3967 243.815C54.6534 233.496 28.8384 211.457 13.6843 181.712C-1.46978 151.985 -4.13499 118.123 6.18415 86.3968C16.4862 54.6535 38.5425 28.8385 68.2698 13.6844C98.0143 -1.46966 131.859 -4.13487 163.602 6.18427C195.346 16.5034 221.161 38.5597 236.315 68.2871C251.469 98.0144 254.134 131.876 243.815 163.62C233.496 195.363 211.456 221.178 181.712 236.332C163.876 245.421 144.57 250.017 125.128 250.017V250ZM124.871 5.12502C106.215 5.12502 87.7122 9.53287 70.6105 18.2461C42.0961 32.768 20.9453 57.5408 11.0533 87.9686C1.16126 118.396 3.72396 150.874 18.2459 179.389C32.7679 207.903 57.5407 229.054 87.9685 238.946C118.413 248.838 150.874 246.275 179.389 231.753C207.903 217.231 229.054 192.458 238.946 162.031C248.838 131.603 246.275 99.1249 231.753 70.6106C217.231 42.0963 192.458 20.9454 162.013 11.0534C149.832 7.08976 137.309 5.12502 124.871 5.12502Z" fill="#0078FF"/>
    <path d="M52.6894 96.4942L49.1699 112.844C47.9911 118.346 45.4967 119.627 42.4215 118.978C39.8929 118.431 38.6116 116.62 38.3212 114.279C37.074 116.791 35.1263 118.67 32.034 118.004C28.5829 117.269 26.6523 114.689 27.7628 109.496L31.5556 91.9326L52.7064 96.4942H52.6894ZM33.2299 108.351C32.9566 109.615 32.837 110.64 34.4771 110.999C36.1343 111.358 36.4418 110.316 36.6981 109.103L38.5091 100.68L35.0409 99.9282L33.2299 108.351ZM41.1743 108.829C40.8668 110.264 40.7472 111.358 42.4044 111.717C43.9933 112.058 44.3008 111.085 44.6254 109.581L46.1801 102.337L42.729 101.603L41.1743 108.846V108.829Z" fill="#0078FF"/>
    <path d="M47.6151 128.528L51.818 150.243L46.573 151.251L43.7198 136.489L40.73 137.07L43.4807 151.233L38.714 152.156L35.9634 137.976L32.9394 138.557L35.8096 153.318L30.5646 154.326L26.3618 132.611L47.5981 128.494L47.6151 128.528Z" fill="#0078FF"/>
    <path d="M54.91 157.623L58.737 163.586L45.5476 172.043L53.3382 184.19L48.3153 187.402L36.7148 169.292L54.9271 157.623H54.91Z" fill="#0078FF"/>
    <path d="M63.7598 189.281C67.6892 183.541 75.0186 183.096 82.4162 188.153C89.1818 192.766 91.8299 198.78 89.2843 203.171L83.0142 198.883C83.4413 197.567 82.0574 195.158 79.0847 193.142C75.2577 190.528 71.7041 190.87 69.9102 193.484C67.9968 196.303 69.466 199.6 73.7201 202.505C75.7532 203.906 78.2134 205.17 80.6394 205.734L81.2374 204.862L73.8226 199.805L76.2999 196.166L88.4129 204.435L83.1509 212.157C79.1872 212.089 74.1131 210.039 69.9957 207.22C62.3588 202.009 59.8986 194.97 63.7768 189.298L63.7598 189.281Z" fill="#0078FF"/>
    <path d="M100.663 198.951L118.089 201.582C123.949 202.47 126.546 205.136 125.88 209.458C125.436 212.414 123.539 214.105 120.515 214.532C123.232 215.13 124.718 216.958 124.325 219.589L123.608 224.305L116.603 223.245L117.15 219.675C117.44 217.761 116.979 217.129 115.083 216.839L105.344 215.369L104.422 221.417L97.417 220.358L100.646 198.968L100.663 198.951ZM114.946 211.081C116.825 211.372 118.158 211.201 118.414 209.475C118.67 207.75 117.44 207.22 115.561 206.947L106.796 205.631L106.164 209.766L114.929 211.081H114.946Z" fill="#0078FF"/>
    <path d="M143.648 199.703L152.293 197.038L169.258 214.447L162.031 216.685L159.024 213.422L147.304 217.044L146.638 221.451L139.445 223.673L143.648 199.72V199.703ZM155.18 209.27L149.354 202.966L148.107 211.457L155.197 209.27H155.18Z" fill="#0078FF"/>
    <path d="M167.891 190.221L179.27 179.765C183.882 175.528 190.289 175.767 194.543 180.38C198.78 184.993 198.541 191.451 193.928 195.688L182.55 206.144L167.908 190.221H167.891ZM187.761 193.245C190.904 190.34 191.331 187.743 189.144 185.352C186.958 182.977 184.344 183.216 181.2 186.103L177.134 189.845L183.694 196.986L187.761 193.262V193.245Z" fill="#0078FF"/>
    <path d="M191.041 166.388L200.045 146.194L204.914 148.363L198.797 162.099L201.582 163.329L207.459 150.157L211.884 152.139L206.007 165.311L208.809 166.558L214.925 152.822L219.795 154.992L210.791 175.186L191.041 166.388Z" fill="#0078FF"/>
    <path d="M57.9512 64.2042L76.1976 48.6742L79.4779 52.5354L61.2314 68.0653L57.9512 64.2042Z" fill="#0078FF"/>
    <path d="M105.327 27.5576L127.349 25.5416L127.828 30.8549L112.861 32.2217L113.135 35.2457L127.503 33.9302L127.947 38.7651L113.579 40.0806L113.852 43.1388L128.836 41.772L129.314 47.0854L107.292 49.1013L105.327 27.5576Z" fill="#0078FF"/>
    <path d="M142.264 26.7717L166.832 34.4256L165.055 40.1148L156.171 37.3471L151.507 52.2962L144.741 50.1948L149.405 35.2457L140.487 32.4609L142.264 26.7717Z" fill="#0078FF"/>
    <path d="M180.26 41.7549L185.574 46.4361L180.397 52.3133L190.118 60.8727L195.295 54.9956L200.608 59.6768L186.308 75.9072L180.995 71.226L186.189 65.3318L176.468 56.7724L171.274 62.6666L165.96 57.9854L180.26 41.7549Z" fill="#0078FF"/>
    <path d="M210.688 94.6833L215.591 118.123L210.637 119.166L205.733 95.7254L210.688 94.6833Z" fill="#0078FF"/>
    <path d="M118.602 143.375L88.4302 109.154L108.676 173.922L163.159 133.448L118.602 143.375Z" fill="#0078FF"/>
    <path d="M120.943 136.182L90.7539 102.081L94.5809 90.2754L99.9796 87.3198L102.508 92.9406L100.629 98.6981L105.703 100.355L103.977 105.669L112.656 108.488L114.331 103.345L117.201 104.268C119.012 98.7152 120.806 93.1456 122.617 87.5931L120.362 83.3903L123.727 73.037L130.271 75.1555L128.853 79.5121L134.303 81.2889L135.721 76.9323L143.768 79.5462L142.35 83.9028L147.8 85.6796L149.218 81.323L155.761 83.4415L152.395 93.7948L148.107 95.8792C146.296 101.432 144.502 107.001 142.691 112.554L145.476 113.459L143.802 118.602L152.635 121.472L154.36 116.159L159.383 117.782L161.262 112.024L166.593 108.966L169.224 114.536L165.397 126.324L120.925 136.199L120.943 136.182Z" fill="#0078FF"/>
  </g>
  <defs>
    <clipPath id="clip0_988_296">
      <rect width="250" height="250" fill="white"/>
    </clipPath>
  </defs>
</svg>