<svg xmlns="http://www.w3.org/2000/svg" viewBox="0 0 830.77 435"><defs><style>.cls-1{fill:#fcfcfc;}</style></defs><g id="Layer_2" data-name="Layer 2"><g id="Layer_1-2" data-name="Layer 1"><polygon class="cls-1" points="415.37 132.96 339.12 87.91 415.37 195.34 491.65 87.91 415.37 132.96"/><path class="cls-1" d="M415.38,118.3,339.2,73.44V49.34l8.21-8.68,8,8.85V61.26h10.37V72.09h17.71V61.58h5.84v-34l-6.67-6.43V0h13.36V8.9h11.12V0H423.6V8.9h11.12V0h13.36V21.12l-6.68,6.43v34h5.68V72.09h18V61.26h10.24V49.51l8-8.85,8.21,8.68V73.4l-76.19,44.9Z"/><path class="cls-1" d="M3.29,406.08a3.17,3.17,0,0,1-2.37-.92A3.2,3.2,0,0,1,0,402.8V317.38a3.15,3.15,0,0,1,3.29-3.28H64.65a3.15,3.15,0,0,1,3.29,3.28v12.36A3.15,3.15,0,0,1,64.65,333H22.73v17.74h39a3.09,3.09,0,0,1,2.37,1,3.42,3.42,0,0,1,.92,2.43v11.43a3.28,3.28,0,0,1-.92,2.3,3.09,3.09,0,0,1-2.37,1h-39v18.26h43A3.15,3.15,0,0,1,69,390.45V402.8a3.2,3.2,0,0,1-.92,2.36,3.16,3.16,0,0,1-2.36.92Z"/><path class="cls-1" d="M103.55,406.08a3.15,3.15,0,0,1-3.28-3.28V334.73H76.87a3.07,3.07,0,0,1-2.36-1,3.22,3.22,0,0,1-.92-2.3V317.38a3.16,3.16,0,0,1,.92-2.36,3.2,3.2,0,0,1,2.36-.92h70.7a3.15,3.15,0,0,1,3.29,3.28v14.06a3.26,3.26,0,0,1-.92,2.3,3.09,3.09,0,0,1-2.37,1H124.18V402.8a3.2,3.2,0,0,1-.92,2.36,3.16,3.16,0,0,1-2.36.92Z"/><path class="cls-1" d="M162.16,406.08a3.15,3.15,0,0,1-3.29-3.28V317.38a3.15,3.15,0,0,1,3.29-3.28h17a3.24,3.24,0,0,1,2.37.92,3.2,3.2,0,0,1,.92,2.36v31.67h32.45V317.38a3.15,3.15,0,0,1,3.29-3.28h17a3.24,3.24,0,0,1,2.37.92,3.2,3.2,0,0,1,.92,2.36V402.8a3.15,3.15,0,0,1-3.29,3.28h-17a3.15,3.15,0,0,1-3.29-3.28V370.08H182.4V402.8a3.15,3.15,0,0,1-3.29,3.28Z"/><path class="cls-1" d="M285.82,406.08a3.15,3.15,0,0,1-3.29-3.28V317.38a3.15,3.15,0,0,1,3.29-3.28H325.9q11.3,0,18.52,3.15a22.42,22.42,0,0,1,10.71,9,26.63,26.63,0,0,1,3.49,13.87,18.6,18.6,0,0,1-1.78,8.34,20.15,20.15,0,0,1-4.33,6,19.62,19.62,0,0,1-4.8,3.42,23.35,23.35,0,0,1,8.87,7.75,21.07,21.07,0,0,1,3.88,12.62,27.73,27.73,0,0,1-3.88,14.91,25,25,0,0,1-11.3,9.59q-7.42,3.36-18.2,3.35Zm20.23-55.45h17.22q5.39,0,8.08-2.76a9.77,9.77,0,0,0,2.69-7.1,9.38,9.38,0,0,0-2.69-6.9q-2.7-2.69-8.08-2.69H306.05Zm0,38.37h18.4c3.77,0,6.61-1.09,8.54-3.28a11.41,11.41,0,0,0-.06-15.25c-2-2.1-4.8-3.15-8.48-3.15h-18.4Z"/><path class="cls-1" d="M401.19,407.4q-15.51,0-24.7-8.41t-9.6-25v-4.6a38.15,38.15,0,0,1,4.67-17.8,28.34,28.34,0,0,1,11.83-11.31,38.22,38.22,0,0,1,17.67-3.87q11.56,0,19.12,4.6a29.16,29.16,0,0,1,11.37,12.48,40.89,40.89,0,0,1,3.81,18v3.16a3.07,3.07,0,0,1-1,2.36,3.22,3.22,0,0,1-2.3.92H390v.92a22,22,0,0,0,1.32,7,10.64,10.64,0,0,0,3.68,5,9.87,9.87,0,0,0,6,1.84,10.09,10.09,0,0,0,4.4-.85,11.64,11.64,0,0,0,3-2,23.3,23.3,0,0,0,1.84-1.91,6.89,6.89,0,0,1,1.91-1.64,5.87,5.87,0,0,1,2.3-.33h16.29a3.25,3.25,0,0,1,2.17.72,2.2,2.2,0,0,1,.72,2,11.62,11.62,0,0,1-2.23,5.39,27.21,27.21,0,0,1-6.11,6.24,33.47,33.47,0,0,1-10.06,5.06A45.5,45.5,0,0,1,401.19,407.4ZM390,365h22.21v-.26a20,20,0,0,0-1.25-7.36,10.13,10.13,0,0,0-3.81-4.86,10.74,10.74,0,0,0-6.11-1.71,10.14,10.14,0,0,0-6,1.71,10.83,10.83,0,0,0-3.74,4.86,19,19,0,0,0-1.32,7.36Z"/><path class="cls-1" d="M447.05,406.08a3.16,3.16,0,0,1-2.36-.92,3.2,3.2,0,0,1-.92-2.36V316.07a3.24,3.24,0,0,1,.92-2.37,3.2,3.2,0,0,1,2.36-.92h15.51a3.15,3.15,0,0,1,3.29,3.29V402.8a3.15,3.15,0,0,1-3.29,3.28Z"/><path class="cls-1" d="M510.92,435q-10.12,0-16.76-2.63a32.66,32.66,0,0,1-10.51-6.31,25.13,25.13,0,0,1-5.58-7.29,16.89,16.89,0,0,1-1.84-5.72,2.63,2.63,0,0,1,.92-2.37,3.67,3.67,0,0,1,2.49-.92h16.69a3.46,3.46,0,0,1,2,.6,4,4,0,0,1,1.38,2,18.7,18.7,0,0,0,1.77,3,8.07,8.07,0,0,0,3.16,2.57,13.11,13.11,0,0,0,5.58,1,15.16,15.16,0,0,0,6.57-1.25,8.16,8.16,0,0,0,3.95-4.07,18.23,18.23,0,0,0,1.31-7.56v-8.8a22.33,22.33,0,0,1-7.75,5.32,28.86,28.86,0,0,1-11.44,2,32.87,32.87,0,0,1-11.82-2,21.21,21.21,0,0,1-8.55-5.92,28.22,28.22,0,0,1-5.32-9.59,49.18,49.18,0,0,1-2.3-13c-.09-2.28-.09-4.55,0-6.83a50.36,50.36,0,0,1,2.24-12.75,28.12,28.12,0,0,1,5.32-9.72,22.72,22.72,0,0,1,8.61-6.24,30,30,0,0,1,11.82-2.17,25.63,25.63,0,0,1,12.16,2.69,26.64,26.64,0,0,1,8.34,6.77V341a3.26,3.26,0,0,1,.92-2.3,3.09,3.09,0,0,1,2.37-1H541.8a3.29,3.29,0,0,1,2.43,1,3.13,3.13,0,0,1,1,2.3v63.2q0,10-4.08,16.83a26,26,0,0,1-11.69,10.38Q521.83,435,510.92,435ZM510,387.56a11.71,11.71,0,0,0,6.83-1.84,11.07,11.07,0,0,0,3.88-4.73,17.3,17.3,0,0,0,1.38-6.18c.09-1,.13-2.32.13-4.07s0-3.07-.13-3.95a17.52,17.52,0,0,0-1.38-6.3,10.58,10.58,0,0,0-3.88-4.67,12,12,0,0,0-6.83-1.77,11.59,11.59,0,0,0-6.9,1.84,10.08,10.08,0,0,0-3.68,5,26.52,26.52,0,0,0-1.38,7q-.14,2.9,0,5.92a26.52,26.52,0,0,0,1.38,7,10.15,10.15,0,0,0,3.68,5A11.66,11.66,0,0,0,510,387.56Z"/><path class="cls-1" d="M560.07,406.08a3.15,3.15,0,0,1-3.29-3.28V341a3.26,3.26,0,0,1,.92-2.3,3.08,3.08,0,0,1,2.37-1h15.11a3.07,3.07,0,0,1,2.36,1,3.26,3.26,0,0,1,.92,2.3v5.25a24.63,24.63,0,0,1,8.48-6.3,26.55,26.55,0,0,1,11.1-2.24h5.78a3.26,3.26,0,0,1,2.3.92,3.09,3.09,0,0,1,1,2.37v13.53a3.38,3.38,0,0,1-3.29,3.29H591.08c-3.59,0-6.38,1-8.35,2.95s-3,4.76-3,8.35V402.8a3.07,3.07,0,0,1-1,2.36,3.41,3.41,0,0,1-2.43.92Z"/><path class="cls-1" d="M633,407.4a28.9,28.9,0,0,1-12.68-2.69,22.73,22.73,0,0,1-8.87-7.3,18.1,18.1,0,0,1,4.33-25.16q7.62-5.46,20.24-7.43l16.43-2.5v-1.83q0-4.74-2-7.23t-7.22-2.5a11,11,0,0,0-6,1.45,10.12,10.12,0,0,0-3.62,3.94,3.76,3.76,0,0,1-3.28,1.71H615.65a2.88,2.88,0,0,1-2.23-.86,2.44,2.44,0,0,1-.66-2,11.33,11.33,0,0,1,1.77-5.46A23.2,23.2,0,0,1,620,343.4a30,30,0,0,1,9.46-5,43.23,43.23,0,0,1,13.93-2,47.28,47.28,0,0,1,14.59,2,25.46,25.46,0,0,1,9.79,5.52,22.53,22.53,0,0,1,5.58,8.34,29.27,29.27,0,0,1,1.84,10.58V402.8a3.07,3.07,0,0,1-1,2.36,3.22,3.22,0,0,1-2.3.92H656.65a3.15,3.15,0,0,1-3.28-3.28v-4.6a19.11,19.11,0,0,1-4.6,4.6,23.92,23.92,0,0,1-6.77,3.35A29.52,29.52,0,0,1,633,407.4Zm6.17-15a14.53,14.53,0,0,0,6.9-1.64,11.53,11.53,0,0,0,4.86-5.13,19,19,0,0,0,1.78-8.74v-1.84l-11.17,2q-6.18,1.06-9,3.22a6.29,6.29,0,0,0-2.83,5.06,5.74,5.74,0,0,0,1.32,3.81,8.4,8.4,0,0,0,3.41,2.43A12.46,12.46,0,0,0,639.17,392.42Z"/><path class="cls-1" d="M711.58,407.4a30.19,30.19,0,0,1-11.37-2,23.23,23.23,0,0,1-8.67-6,27.83,27.83,0,0,1-5.58-9.73,45,45,0,0,1-2.24-13.07c-.09-1.75-.13-3.31-.13-4.67s0-2.87.13-4.53A43.5,43.5,0,0,1,686,354.57a29.32,29.32,0,0,1,5.51-9.72,23.36,23.36,0,0,1,8.68-6.24,29,29,0,0,1,11.43-2.17,26.87,26.87,0,0,1,11.3,2.17,25.81,25.81,0,0,1,8,5.58V316.07a3.15,3.15,0,0,1,3.28-3.29h16a3.26,3.26,0,0,1,2.3.92,3.11,3.11,0,0,1,1,2.37V402.8a3.07,3.07,0,0,1-1,2.36,3.22,3.22,0,0,1-2.3.92H735.37a3.15,3.15,0,0,1-3.29-3.28v-4.21a24.56,24.56,0,0,1-8.15,6.31A27.36,27.36,0,0,1,711.58,407.4Zm7.1-17.61A10.63,10.63,0,0,0,729.52,383a19.06,19.06,0,0,0,1.38-6.57c.08-1.76.13-3.42.13-5s0-3.19-.13-4.86a15.8,15.8,0,0,0-1.45-6.11,11.09,11.09,0,0,0-3.94-4.6,12,12,0,0,0-6.83-1.77,11.59,11.59,0,0,0-6.9,1.84,9.74,9.74,0,0,0-3.62,5,27.84,27.84,0,0,0-1.31,7,42.68,42.68,0,0,0,0,8.15,28,28,0,0,0,1.31,7,9.78,9.78,0,0,0,3.62,5A11.59,11.59,0,0,0,718.68,389.79Z"/><path class="cls-1" d="M796.6,407.4q-15.51,0-24.7-8.41t-9.6-25v-4.6a38.15,38.15,0,0,1,4.67-17.8,28.34,28.34,0,0,1,11.83-11.31,38.22,38.22,0,0,1,17.67-3.87q11.56,0,19.12,4.6A29.16,29.16,0,0,1,827,353.52a40.89,40.89,0,0,1,3.81,18v3.16a3.07,3.07,0,0,1-1,2.36,3.22,3.22,0,0,1-2.3.92H785.43v.92a22,22,0,0,0,1.32,7,10.64,10.64,0,0,0,3.68,5,9.87,9.87,0,0,0,6,1.84,10.09,10.09,0,0,0,4.4-.85,11.64,11.64,0,0,0,3-2,23.3,23.3,0,0,0,1.84-1.91,6.89,6.89,0,0,1,1.91-1.64,5.85,5.85,0,0,1,2.29-.33h16.3a3.27,3.27,0,0,1,2.17.72,2.2,2.2,0,0,1,.72,2,11.62,11.62,0,0,1-2.23,5.39,27.42,27.42,0,0,1-6.11,6.24,33.47,33.47,0,0,1-10.06,5.06A45.5,45.5,0,0,1,796.6,407.4ZM785.43,365h22.21v-.26a20,20,0,0,0-1.25-7.36,10.13,10.13,0,0,0-3.81-4.86,10.74,10.74,0,0,0-6.11-1.71,10.14,10.14,0,0,0-6,1.71,10.83,10.83,0,0,0-3.74,4.86,19,19,0,0,0-1.32,7.36Z"/></g></g></svg>