<svg width="814" height="648" viewBox="0 0 814 648" fill="none" xmlns="http://www.w3.org/2000/svg">
  <path d="M116.577 503.644L147.529 462.545L147.986 461.939L147.525 461.336L115.434 419.371L115.132 418.977L114.636 418.979L44.039 419.228L74.8049 378.375L76.0166 376.766L74.0025 376.774L2.48782 377.032L42.029 324.554L42.4857 323.948L42.0249 323.345L2.12716 271.14L73.6429 270.882L75.6565 270.874L74.4338 269.274L43.3845 228.646L113.981 228.397L114.478 228.395L114.776 227.999L146.573 185.798L147.03 185.192L146.568 184.589L115.312 143.725L202.232 143.405L171.279 184.503L170.823 185.109L171.284 185.712L203.375 227.677L203.677 228.071L204.173 228.069L274.77 227.82L244.004 268.673L242.792 270.282L244.806 270.275L316.322 270.016L276.801 322.505L276.345 323.111L276.806 323.714L316.703 375.919L245.188 376.177L243.174 376.184L244.397 377.784L275.446 418.412L204.849 418.662L204.353 418.664L204.054 419.06L172.258 461.261L171.801 461.867L172.262 462.47L203.518 503.334L116.577 503.644Z" stroke="#FC9E4F" stroke-width="2"/>
  <path d="M611.577 503.644L642.529 462.545L642.986 461.939L642.525 461.336L610.434 419.371L610.132 418.977L609.636 418.979L539.039 419.228L569.805 378.375L571.017 376.766L569.003 376.774L497.488 377.032L537.029 324.554L537.486 323.948L537.025 323.345L497.127 271.14L568.643 270.882L570.657 270.874L569.434 269.274L538.384 228.646L608.981 228.397L609.478 228.395L609.776 227.999L641.573 185.798L642.03 185.192L641.568 184.589L610.312 143.725L697.232 143.405L666.279 184.503L665.823 185.109L666.284 185.712L698.375 227.677L698.677 228.071L699.173 228.069L769.77 227.82L739.004 268.673L737.792 270.282L739.806 270.275L811.322 270.016L771.801 322.505L771.345 323.111L771.806 323.714L811.703 375.919L740.188 376.177L738.174 376.184L739.397 377.784L770.446 418.412L699.849 418.662L699.353 418.664L699.054 419.06L667.258 461.261L666.801 461.867L667.262 462.47L698.518 503.334L611.577 503.644Z" stroke="#FC9E4F" stroke-width="2"/>
  <path d="M451.85 248.663L451.405 248.665L451.108 248.996L405.493 299.979L362.401 249.332L362.101 248.978L361.636 248.98L291.039 249.23L321.805 208.376L323.017 206.768L321.003 206.775L249.488 207.033L289.03 154.555L289.486 153.949L289.025 153.346L249.128 101.141L320.643 100.883L322.657 100.876L321.434 99.2757L290.385 58.6477L360.982 58.3981L361.467 58.3964L361.766 58.0141L405.487 2.10806L450.392 57.699L450.694 58.0723L451.173 58.0707L521.77 57.8211L491.004 98.6743L489.793 100.283L491.807 100.276L563.322 100.017L523.802 152.507L523.345 153.113L523.806 153.715L563.704 205.92L492.188 206.178L490.174 206.186L491.397 207.786L522.447 248.414L451.85 248.663Z" stroke="#DBFE87" stroke-width="2"/>
  <path d="M451.85 595.007L451.405 595.009L451.108 595.341L405.493 646.323L362.401 595.676L362.101 595.323L361.636 595.324L291.039 595.574L321.805 554.721L323.017 553.112L321.003 553.119L249.488 553.378L289.03 500.899L289.486 500.293L289.025 499.69L249.128 447.486L320.643 447.227L322.657 447.22L321.434 445.62L290.385 404.992L360.982 404.742L361.467 404.741L361.766 404.358L405.487 348.452L450.392 404.043L450.694 404.417L451.173 404.415L521.77 404.165L491.004 445.018L489.793 446.627L491.807 446.62L563.322 446.362L523.802 498.851L523.345 499.457L523.806 500.06L563.704 552.264L492.188 552.523L490.174 552.53L491.397 554.13L522.447 594.758L451.85 595.007Z" stroke="#FC9E4F" stroke-width="2"/>
</svg>
