<svg width="48" height="49" viewBox="0 0 48 49" fill="none" xmlns="http://www.w3.org/2000/svg">
<path d="M42 8.76034V39.4662C42 40.1683 41.7211 40.8416 41.2247 41.338C40.7283 41.8344 40.055 42.1133 39.3529 42.1133H8.64706C7.94502 42.1133 7.27173 41.8344 6.77531 41.338C6.27889 40.8416 6 40.1683 6 39.4662V8.76034C6 8.0583 6.27889 7.38501 6.77531 6.88859C7.27173 6.39217 7.94502 6.11328 8.64706 6.11328H39.3529C40.055 6.11328 40.7283 6.39217 41.2247 6.88859C41.7211 7.38501 42 8.0583 42 8.76034ZM16.5882 19.878H11.2941V36.8192H16.5882V19.878ZM17.0647 14.0545C17.0675 13.654 16.9914 13.2569 16.8407 12.8859C16.69 12.5148 16.4677 12.1771 16.1866 11.892C15.9054 11.6068 15.5707 11.3799 15.2018 11.2241C14.8329 11.0683 14.4369 10.9866 14.0365 10.9839H13.9412C13.1268 10.9839 12.3458 11.3074 11.7699 11.8832C11.1941 12.4591 10.8706 13.2401 10.8706 14.0545C10.8706 14.8688 11.1941 15.6498 11.7699 16.2257C12.3458 16.8015 13.1268 17.125 13.9412 17.125C14.3417 17.1349 14.7402 17.0657 15.1139 16.9215C15.4877 16.7773 15.8293 16.5609 16.1194 16.2846C16.4095 16.0083 16.6423 15.6775 16.8045 15.3112C16.9667 14.9449 17.0551 14.5502 17.0647 14.1498V14.0545ZM36.7059 26.5274C36.7059 21.4345 33.4659 19.4545 30.2471 19.4545C29.1932 19.4017 28.1438 19.6262 27.2037 20.1055C26.2637 20.5848 25.4657 21.3022 24.8894 22.1862H24.7412V19.878H19.7647V36.8192H25.0588V27.8086C24.9823 26.8857 25.273 25.97 25.8678 25.2602C26.4625 24.5505 27.3133 24.1041 28.2353 24.018H28.4365C30.12 24.018 31.3694 25.0768 31.3694 27.745V36.8192H36.6635L36.7059 26.5274Z" fill="white"/>
</svg>
