<svg width="46" height="47" viewBox="0 0 46 47" fill="none" xmlns="http://www.w3.org/2000/svg">
<path fill-rule="evenodd" clip-rule="evenodd" d="M42.1668 23.113C42.1668 33.6984 33.5856 42.2796 23.0002 42.2796C12.4147 42.2796 3.8335 33.6984 3.8335 23.113C3.8335 12.5275 12.4147 3.94629 23.0002 3.94629C33.5856 3.94629 42.1668 12.5275 42.1668 23.113ZM23.687 18.096C21.8227 18.8714 18.0969 20.4763 12.5094 22.9107C11.6021 23.2715 11.1268 23.6244 11.0835 23.9696C11.0104 24.5529 11.7408 24.7826 12.7355 25.0953C12.8708 25.1379 13.011 25.182 13.1547 25.2287C14.1334 25.5468 15.4498 25.9189 16.1341 25.9337C16.7549 25.9471 17.4477 25.6912 18.2127 25.166C23.4332 21.6419 26.1281 19.8607 26.2973 19.8223C26.4167 19.7952 26.5821 19.7612 26.6941 19.8608C26.8062 19.9604 26.7952 20.149 26.7833 20.1997C26.7109 20.5081 23.8437 23.1738 22.3598 24.5533C21.8973 24.9834 21.5691 25.2884 21.5021 25.3581C21.3518 25.5142 21.1987 25.6618 21.0515 25.8037C20.1423 26.6801 19.4605 27.3374 21.0892 28.4106C21.8719 28.9264 22.4982 29.3529 23.123 29.7784C23.8054 30.2431 24.486 30.7066 25.3666 31.2838C25.5909 31.4309 25.8052 31.5837 26.0139 31.7324C26.808 32.2986 27.5215 32.8072 28.4029 32.7261C28.915 32.679 29.4441 32.1974 29.7127 30.7611C30.3477 27.3666 31.5958 20.0119 31.8842 16.9812C31.9095 16.7157 31.8777 16.3758 31.8522 16.2267C31.8266 16.0775 31.7733 15.865 31.5794 15.7076C31.3498 15.5213 30.9952 15.482 30.8367 15.4848C30.1158 15.4975 29.0098 15.8821 23.687 18.096Z" fill="white"/>
</svg>
