<svg width="48" height="49" viewBox="0 0 48 49" fill="none" xmlns="http://www.w3.org/2000/svg">
<path d="M39.9049 15.9537C39.9293 16.3064 39.9293 16.659 39.9293 17.0149C39.9293 27.8587 31.6742 40.3649 16.5793 40.3649V40.3584C12.1203 40.3649 7.75381 39.0876 4 36.6793C4.64839 36.7573 5.30002 36.7963 5.95328 36.7979C9.64859 36.8012 13.2383 35.5613 16.1454 33.2781C12.6338 33.2115 9.55434 30.9218 8.47857 27.5792C9.70871 27.8164 10.9762 27.7677 12.1836 27.4378C8.35507 26.6643 5.60065 23.3005 5.60065 19.3939C5.60065 19.3582 5.60065 19.324 5.60065 19.2899C6.74142 19.9253 8.01869 20.2779 9.32521 20.3169C5.71928 17.907 4.60776 13.1099 6.78529 9.35938C10.9519 14.4863 17.0993 17.6031 23.6986 17.933C23.0372 15.0827 23.9407 12.0959 26.0727 10.0923C29.378 6.98522 34.5765 7.14447 37.6835 10.4481C39.5214 10.0858 41.283 9.41138 42.895 8.45587C42.2823 10.3555 41.0002 11.9692 39.2874 12.9946C40.9141 12.8028 42.5034 12.3673 44 11.7027C42.8982 13.3537 41.5105 14.7918 39.9049 15.9537Z" fill="white"/>
</svg>
