<svg width="1627" height="260" viewBox="0 0 1627 260" xmlns="http://www.w3.org/2000/svg" xmlns:xlink="http://www.w3.org/1999/xlink">
    <g id="Group">
        <path id="ETHBelgrade" fill="none" stroke="#000000" stroke-width="5" stroke-linecap="round" stroke-linejoin="round" d="M 1557.376831 203.946838 C 1537.19519 203.946838 1520.273193 197.562073 1506.610352 184.792236 C 1492.94751 172.0224 1486.116211 155.100464 1486.116211 134.025757 C 1486.116211 114.022705 1492.813599 97.368652 1506.208496 84.062988 C 1519.603394 70.757385 1536.391479 64.104675 1556.57312 64.104675 C 1575.325928 64.104675 1591.131836 69.819763 1603.990967 81.250122 C 1616.850098 92.68042 1623.279541 108.754089 1623.279541 129.471558 C 1623.279541 134.650879 1623.011475 139.383667 1622.47583 143.670044 L 1525.229248 143.670044 C 1526.300781 151.349792 1529.962036 157.198853 1536.213013 161.217285 C 1542.463989 165.235779 1549.697021 167.244995 1557.912598 167.244995 C 1565.235229 167.244995 1571.753906 165.771545 1577.468994 162.824707 C 1583.184326 159.877808 1587.470459 156.26123 1590.328125 151.974854 L 1620.33252 174.47821 C 1613.903076 183.586731 1605.241211 190.775269 1594.34668 196.043884 C 1583.452148 201.312561 1571.128906 203.946838 1557.376831 203.946838 Z M 1526.300781 117.148254 L 1583.094971 117.148254 C 1581.487549 110.5401 1578.094238 105.539429 1572.914795 102.146057 C 1567.735474 98.752686 1561.931152 97.05603 1555.501587 97.05603 C 1548.714844 97.05603 1542.553223 98.708008 1537.016724 102.012085 C 1531.480103 105.316162 1527.908203 110.361511 1526.300781 117.148254 Z"/>
        <path id="Shape" fill="none" stroke="#000000" stroke-width="5" stroke-linecap="round" stroke-linejoin="round" d="M 1388.869751 203.946838 C 1369.581055 203.946838 1353.775269 197.11554 1341.451904 183.452759 C 1329.128662 169.789917 1322.967041 153.314453 1322.967041 134.025757 C 1322.967041 114.737122 1329.128662 98.261597 1341.451904 84.598816 C 1353.775269 70.935974 1369.581055 64.104675 1388.869751 64.104675 C 1401.550171 64.104675 1412.087402 67.855225 1420.481567 75.356384 L 1420.481567 5.435303 L 1460.93396 5.435303 L 1460.93396 201 L 1420.481567 201 L 1420.481567 192.427307 C 1412.265991 200.107056 1401.72876 203.946838 1388.869751 203.946838 Z M 1395.031372 167.244995 C 1405.568604 167.244995 1414.052002 162.958679 1420.481567 154.385925 L 1420.481567 113.397705 C 1413.873413 105.003601 1405.390015 100.80658 1395.031372 100.80658 C 1386.10144 100.80658 1378.823608 104.021301 1373.197754 110.450867 C 1367.571899 116.880432 1364.759033 124.738647 1364.759033 134.025757 C 1364.759033 143.312927 1367.571899 151.171143 1373.197754 157.600708 C 1378.823608 164.030273 1386.10144 167.244995 1395.031372 167.244995 Z"/>
        <path id="path1" fill="none" stroke="#000000" stroke-width="5" stroke-linecap="round" stroke-linejoin="round" d="M 1225.720459 203.946838 C 1206.431763 203.946838 1190.626099 197.11554 1178.302734 183.452759 C 1165.97937 169.789917 1159.817871 153.314453 1159.817871 134.025757 C 1159.817871 114.737122 1165.97937 98.261597 1178.302734 84.598816 C 1190.626099 70.935974 1206.431763 64.104675 1225.720459 64.104675 C 1238.401001 64.104675 1248.938232 67.855225 1257.332275 75.356384 L 1257.332275 67.051575 L 1297.78479 67.051575 L 1297.78479 201 L 1257.332275 201 L 1257.332275 192.427307 C 1249.116821 200.107056 1238.57959 203.946838 1225.720459 203.946838 Z M 1231.88208 167.244995 C 1242.419434 167.244995 1250.90271 162.958679 1257.332275 154.385925 L 1257.332275 113.397705 C 1250.724121 105.003601 1242.240845 100.80658 1231.88208 100.80658 C 1222.952148 100.80658 1215.674438 104.021301 1210.048584 110.450867 C 1204.422607 116.880432 1201.609741 124.738647 1201.609741 134.025757 C 1201.609741 143.312927 1204.422607 151.171143 1210.048584 157.600708 C 1215.674438 164.030273 1222.952148 167.244995 1231.88208 167.244995 Z"/>
        <path id="path2" fill="none" stroke="#000000" stroke-width="5" stroke-linecap="round" stroke-linejoin="round" d="M 1066.589722 201 L 1066.589722 67.051575 L 1107.042236 67.051575 L 1107.042236 82.053772 C 1109.185303 77.231628 1113.025146 73.257874 1118.561768 70.132385 C 1124.098267 67.006897 1130.170532 65.444153 1136.778687 65.444153 C 1142.851074 65.444153 1148.298218 66.337158 1153.120483 68.123169 L 1146.958862 105.896606 C 1145.530029 104.825012 1141.779541 104.289246 1135.707153 104.289246 C 1122.312256 104.289246 1112.757324 108.307617 1107.042236 116.344604 L 1107.042236 201 Z"/>
        <path id="path3" fill="none" stroke="#000000" stroke-width="5" stroke-linecap="round" stroke-linejoin="round" d="M 962.109985 255.65094 C 937.641968 255.65094 918.085693 249.935913 903.440552 238.505554 L 924.60437 208.233215 C 935.141724 216.270142 947.464844 220.288574 961.574219 220.288574 C 969.968262 220.288574 977.290771 218.056152 983.541748 213.591125 C 989.792725 209.12616 992.918091 202.696716 992.918091 194.302551 L 992.918091 186.533569 C 984.702515 194.213318 973.986816 198.053162 960.770508 198.053162 C 941.6604 198.053162 925.765381 191.623657 913.084839 178.764587 C 900.404297 165.905457 894.064209 150.010376 894.064209 131.078918 C 894.064209 112.147461 900.404297 96.25238 913.084839 83.39325 C 925.765381 70.53418 941.6604 64.104675 960.770508 64.104675 C 973.808228 64.104675 984.523926 67.855225 992.918091 75.356384 L 992.918091 67.051575 L 1033.370483 67.051575 L 1033.370483 193.766785 C 1033.370483 203.232544 1031.941772 211.626526 1029.084229 218.949097 C 1026.226563 226.271667 1022.520752 232.165344 1017.966431 236.63031 C 1013.412231 241.095276 1007.92041 244.801147 1001.490845 247.747986 C 995.061279 250.694885 988.676392 252.748718 982.336182 253.909607 C 975.995972 255.070557 969.253906 255.65094 962.109985 255.65094 Z M 967.467896 161.351257 C 978.005249 161.351257 986.488525 157.064941 992.918091 148.492188 L 992.918091 113.397705 C 986.309937 105.003601 977.82666 100.80658 967.467896 100.80658 C 958.180786 100.80658 950.590454 103.619446 944.696655 109.2453 C 938.802856 114.871155 935.856079 122.148987 935.856079 131.078918 C 935.856079 140.00885 938.802856 147.286621 944.696655 152.912537 C 950.590454 158.538391 958.180786 161.351257 967.467896 161.351257 Z"/>
        <path id="path4" fill="none" stroke="#000000" stroke-width="5" stroke-linecap="round" stroke-linejoin="round" d="M 828.429443 201 L 828.429443 5.435303 L 868.881836 5.435303 L 868.881836 201 Z"/>
        <path id="path5" fill="none" stroke="#000000" stroke-width="5" stroke-linecap="round" stroke-linejoin="round" d="M 737.076538 203.946838 C 716.894897 203.946838 699.9729 197.562073 686.310181 184.792236 C 672.647339 172.0224 665.81604 155.100464 665.81604 134.025757 C 665.81604 114.022705 672.513428 97.368652 685.908325 84.062988 C 699.303223 70.757385 716.091187 64.104675 736.272949 64.104675 C 755.025757 64.104675 770.831543 69.819763 783.690674 81.250122 C 796.549805 92.68042 802.979248 108.754089 802.979248 129.471558 C 802.979248 134.650879 802.711304 139.383667 802.175537 143.670044 L 704.928955 143.670044 C 706.00061 151.349792 709.661743 157.198853 715.91272 161.217285 C 722.163696 165.235779 729.396851 167.244995 737.612427 167.244995 C 744.934937 167.244995 751.453735 165.771545 757.168823 162.824707 C 762.884033 159.877808 767.170288 156.26123 770.027954 151.974854 L 800.032349 174.47821 C 793.602783 183.586731 784.940918 190.775269 774.046387 196.043884 C 763.151855 201.312561 750.828735 203.946838 737.076538 203.946838 Z M 706.000488 117.148254 L 762.794678 117.148254 C 761.187256 110.5401 757.793945 105.539429 752.614624 102.146057 C 747.435181 98.752686 741.630859 97.05603 735.201294 97.05603 C 728.414551 97.05603 722.25293 98.708008 716.716431 102.012085 C 711.17981 105.316162 707.60791 110.361511 706.000488 117.148254 Z"/>
        <path id="path6" fill="none" stroke="#000000" stroke-width="5" stroke-linecap="round" stroke-linejoin="round" d="M 507.221069 201 L 507.221069 10.793213 L 578.749512 10.793213 C 594.287598 10.793213 607.593018 16.285034 618.666138 27.26886 C 629.739258 38.252686 635.275757 51.602783 635.275757 67.319458 C 635.275757 80 630.721558 90.894348 621.613037 100.002869 C 629.828613 104.289246 636.391968 110.361511 641.303467 118.219849 C 646.214966 126.078186 648.670654 135.007996 648.670654 145.009521 C 648.670654 160.726257 643.134155 173.987 632.061035 184.792236 C 620.987915 195.597473 607.235962 201 590.804932 201 Z M 549.81665 161.887085 L 587.322266 161.887085 C 593.037354 161.887085 597.770142 160.056458 601.520752 156.395142 C 605.271362 152.733887 607.146606 148.224365 607.146606 142.866394 C 607.146606 137.508423 605.226685 132.99884 601.386841 129.337585 C 597.546997 125.676331 592.769531 123.845703 587.054321 123.845703 L 549.81665 123.845703 Z M 549.81665 87.679626 L 573.927368 87.679626 C 579.642578 87.679626 584.375366 85.893677 588.125977 82.321655 C 591.876465 78.749695 593.751709 74.28479 593.751709 68.926819 C 593.751709 63.568848 591.876465 59.014648 588.125977 55.264099 C 584.375366 51.51355 579.642578 49.638245 573.927368 49.638245 L 549.81665 49.638245 Z"/>
        <path id="path7" fill="#000000" fill-rule="evenodd" stroke="none" d="M 305.226807 201 L 305.226807 10.793213 L 347.822388 10.793213 L 347.822388 85.268555 L 424.440918 85.268555 L 424.440918 10.793213 L 467.036499 10.793213 L 467.036499 201 L 424.440918 201 L 424.440918 125.720947 L 347.822388 125.720947 L 347.822388 201 Z"/>
        <path id="path8" fill="#000000" fill-rule="evenodd" stroke="none" d="M 187.352173 201 L 187.352173 51.51355 L 138.862854 51.51355 L 138.862854 10.793213 L 279.240845 10.793213 L 279.240845 51.51355 L 230.215698 51.51355 L 230.215698 201 Z"/>
        <path id="path9" fill="#000000" fill-rule="evenodd" stroke="none" d="M 0.092255 201 L 0.092255 10.793213 L 120.645874 10.793213 L 120.645874 51.51355 L 42.687866 51.51355 L 42.687866 85.536438 L 104.572021 85.536438 L 104.572021 126.256775 L 42.687866 126.256775 L 42.687866 160.279663 L 120.645874 160.279663 L 120.645874 201 Z"/>
    </g>
</svg>
