<svg width="231" height="60" viewBox="0 0 231 60" fill="none" xmlns="http://www.w3.org/2000/svg">
<g clip-path="url(#clip0_988_211)">
<mask id="mask0_988_211" style="mask-type:luminance" maskUnits="userSpaceOnUse" x="-65" y="-12" width="361" height="84">
<path d="M295.445 -11.8817H-64.4458V71.9017H295.445V-11.8817Z" fill="white"/>
</mask>
<g mask="url(#mask0_988_211)">
<g clip-path="url(#clip1_988_211)">
<path d="M51.6709 34.6281H61.2107C64.4257 34.6281 65.4387 35.9024 65.4387 37.7424C65.4387 39.2646 64.5801 40.218 63.3077 40.6787C64.855 41.0855 66.1428 41.969 66.1428 43.828C66.1428 45.8968 64.9383 47.3301 61.9149 47.3301H51.6709V34.6312V34.6281ZM59.9353 39.7031C60.7784 39.7031 61.396 39.6332 61.396 38.6417C61.396 37.6502 60.8123 37.6343 59.9353 37.6343H55.7073V39.7031H59.9353ZM60.624 44.3206C61.3621 44.3206 61.9488 44.2666 61.9488 43.2783C61.9488 42.2899 61.3312 42.2359 60.624 42.2359H55.7073V44.3238H60.624V44.3206Z" fill="#0078FF"/>
<path d="M83.0605 34.6281H87.1001V43.8249H95.3336V47.3269H83.0605V34.6281Z" fill="#0078FF"/>
<path d="M96.334 41.0474C96.334 36.9606 99.6509 34.3261 104.756 34.3261C109.432 34.3261 112.609 36.36 112.816 39.3313H108.487C108.264 38.5527 106.837 37.8441 104.79 37.8441C102.143 37.8441 100.58 39.1883 100.58 41.0442C100.58 43.0431 102.335 44.1585 105.272 44.1585C106.68 44.1585 108.246 43.9647 109.567 43.434V42.8143H104.447V40.2307H112.816V45.7125C110.926 46.9868 107.884 47.6764 105.031 47.6764C99.7528 47.6764 96.334 45.0769 96.334 41.0442V41.0474Z" fill="#0078FF"/>
<path d="M115.043 34.6281H125.099C128.484 34.6281 130.17 35.9532 130.17 38.5178C130.17 40.2688 129.24 41.4192 127.576 41.9308C129.157 42.0357 130.155 42.9732 130.155 44.5303V47.3237H126.115V45.2009C126.115 44.0696 125.806 43.7327 124.707 43.7327H119.086V47.3237H115.047V34.6249L115.043 34.6281ZM124.135 40.4118C125.219 40.4118 125.958 40.1989 125.958 39.1724C125.958 38.146 125.219 37.9521 124.135 37.9521H119.083V40.4118H124.135Z" fill="#0078FF"/>
<path d="M138.036 34.6281H143.193L149.5 47.3269H145.185L144.101 44.9753H137.106L136.007 47.3269H131.711L138.036 34.6281ZM142.712 41.9849L140.596 37.4405L138.481 41.9849H142.708H142.712Z" fill="#0078FF"/>
<path d="M150.991 34.6281H159.268C162.844 34.6281 165.438 37.2816 165.438 40.9584C165.438 44.6352 162.844 47.3237 159.268 47.3237H150.991V34.6249V34.6281ZM157.634 43.8249C160.074 43.8249 161.26 42.8683 161.26 40.9584C161.26 39.0485 160.074 38.1301 157.634 38.1301H155.031V43.8249H157.634Z" fill="#0078FF"/>
<path d="M51.6709 14.5947H64.2867V17.7249H55.7104V19.5109H64.2867V22.3582H55.7104V24.1633H64.2867V27.2935H51.6709V14.5947Z" fill="#0078FF"/>
<path d="M65.7661 14.5947H80.4449V17.7249H75.133V27.2935H71.0935V17.7249H65.7661V14.5947Z" fill="#0078FF"/>
<path d="M81.9238 14.5947H85.9634V19.5109H91.964V14.5947H96.0035V27.2935H91.964V22.3582H85.9634V27.2935H81.9238V14.5947Z" fill="#0078FF"/>
<path d="M68.1255 34.6281H80.7413V37.7583H72.165V39.5442H80.7413V42.3916H72.165V44.1967H80.7413V47.3269H68.1255V34.6281Z" fill="#0078FF"/>
<path d="M167.384 34.6281H180V37.7583H171.424V39.5442H180V42.3916H171.424V44.1967H180V47.3269H167.384V34.6281Z" fill="#0078FF"/>
<path d="M20.3459 40.1893L0 27.821L20.3459 57.3182L40.701 27.821L20.3459 40.1893Z" fill="#0078FF"/>
<path d="M20.3519 36.163L0.0214844 23.8455V17.2291L2.21111 14.8425L4.35441 17.2736V20.4992H7.12155V23.4737H11.8467V20.5881H13.4063V11.242L11.6243 9.47826V3.68179H15.1883V6.12559H18.1561V3.68179H22.5416V6.12559H25.5094V3.68179H29.0734V9.48144L27.2914 11.2452V20.5881H28.8078V23.4768H33.6225V20.5023H36.3526V17.2768L38.4897 14.8457L40.6793 17.2323V23.8359L20.3519 36.163Z" fill="#0078FF"/>
</g>
</g>
</g>
<defs>
<clipPath id="clip0_988_211">
<rect width="231" height="59" fill="white" transform="translate(0 0.51001)"/>
</clipPath>
<clipPath id="clip1_988_211">
<rect width="180" height="53.6364" fill="white" transform="translate(0 3.68179)"/>
</clipPath>
</defs>
</svg>
