<svg width="1625" height="264" viewBox="0 0 1625 264" xmlns="http://www.w3.org/2000/svg" xmlns:xlink="http://www.w3.org/1999/xlink">
    <g id="Group">
        <path id="Shape" fill="none" stroke="#ffffff" stroke-width="5" stroke-linecap="round" stroke-linejoin="round" d="M 1554.760864 205.934509 C 1534.664063 205.934509 1517.81311 199.576477 1504.207764 186.860352 C 1490.602295 174.144165 1483.799683 157.293274 1483.799683 136.30719 C 1483.799683 116.388123 1490.468872 99.804016 1503.807495 86.554321 C 1517.14624 73.304565 1533.863647 66.679871 1553.960571 66.679871 C 1572.634644 66.679871 1588.374023 72.370911 1601.179199 83.753235 C 1613.984131 95.135498 1620.386719 111.141602 1620.386719 131.772034 C 1620.386719 136.929626 1620.119873 141.642578 1619.586426 145.91095 L 1522.748291 145.91095 C 1523.81543 153.558411 1527.461304 159.382874 1533.685913 163.38446 C 1539.910645 167.386047 1547.113403 169.38678 1555.294434 169.38678 C 1562.586182 169.38678 1569.077637 167.919556 1574.768799 164.985107 C 1580.459961 162.050598 1584.728271 158.449219 1587.57373 154.180847 L 1617.452148 176.589661 C 1611.049561 185.659912 1602.424072 192.818176 1591.575439 198.064758 C 1580.726563 203.311279 1568.4552 205.934509 1554.760864 205.934509 Z M 1523.81543 119.500549 L 1580.37085 119.500549 C 1578.770264 112.920166 1575.391113 107.940491 1570.233643 104.561401 C 1565.07605 101.182251 1559.296021 99.492737 1552.893433 99.492737 C 1546.135254 99.492737 1539.999512 101.137817 1534.486206 104.427979 C 1528.9729 107.718201 1525.416016 112.74231 1523.81543 119.500549 Z"/>
        <path id="NFTBelgrade" fill="none" stroke="#ffffff" stroke-width="5" stroke-linecap="round" stroke-linejoin="round" d="M 1386.96167 205.934509 C 1367.754028 205.934509 1352.014771 199.131897 1339.743164 185.526489 C 1327.47168 171.921082 1321.335938 155.514771 1321.335938 136.30719 C 1321.335938 117.099548 1327.47168 100.693237 1339.743164 87.08783 C 1352.014771 73.482422 1367.754028 66.679871 1386.96167 66.679871 C 1399.588989 66.679871 1410.081787 70.414612 1418.440674 77.884216 L 1418.440674 8.256897 L 1458.723145 8.256897 L 1458.723145 203 L 1418.440674 203 L 1418.440674 194.463318 C 1410.259644 202.110779 1399.766846 205.934509 1386.96167 205.934509 Z M 1393.097412 169.38678 C 1403.590454 169.38678 1412.038208 165.11853 1418.440674 156.581787 L 1418.440674 115.765747 C 1411.860352 107.406921 1403.412598 103.227539 1393.097412 103.227539 C 1384.205078 103.227539 1376.957764 106.428711 1371.355591 112.831299 C 1365.753296 119.233826 1362.952271 127.059021 1362.952271 136.30719 C 1362.952271 145.555298 1365.753296 153.380493 1371.355591 159.78302 C 1376.957764 166.185608 1384.205078 169.38678 1393.097412 169.38678 Z"/>
        <path id="path1" fill="none" stroke="#ffffff" stroke-width="5" stroke-linecap="round" stroke-linejoin="round" d="M 1224.497925 205.934509 C 1205.290283 205.934509 1189.550903 199.131897 1177.279419 185.526489 C 1165.007935 171.921082 1158.872192 155.514771 1158.872192 136.30719 C 1158.872192 117.099548 1165.007935 100.693237 1177.279419 87.08783 C 1189.550903 73.482422 1205.290283 66.679871 1224.497925 66.679871 C 1237.125244 66.679871 1247.618042 70.414612 1255.976929 77.884216 L 1255.976929 69.614319 L 1296.259399 69.614319 L 1296.259399 203 L 1255.976929 203 L 1255.976929 194.463318 C 1247.795898 202.110779 1237.302979 205.934509 1224.497925 205.934509 Z M 1230.633667 169.38678 C 1241.126709 169.38678 1249.574463 165.11853 1255.976929 156.581787 L 1255.976929 115.765747 C 1249.396606 107.406921 1240.948853 103.227539 1230.633667 103.227539 C 1221.741211 103.227539 1214.494019 106.428711 1208.891846 112.831299 C 1203.289551 119.233826 1200.488525 127.059021 1200.488525 136.30719 C 1200.488525 145.555298 1203.289551 153.380493 1208.891846 159.78302 C 1214.494019 166.185608 1221.741211 169.38678 1230.633667 169.38678 Z"/>
        <path id="path2" fill="none" stroke="#ffffff" stroke-width="5" stroke-linecap="round" stroke-linejoin="round" d="M 1066.035767 203 L 1066.035767 69.614319 L 1106.318237 69.614319 L 1106.318237 84.553528 C 1108.452393 79.751587 1112.276123 75.794556 1117.789429 72.68219 C 1123.302734 69.569824 1129.349487 68.013672 1135.92981 68.013672 C 1141.976685 68.013672 1147.401001 68.902954 1152.202881 70.681396 L 1146.067139 108.296143 C 1144.644409 107.229065 1140.909668 106.695557 1134.862793 106.695557 C 1121.52417 106.695557 1112.009399 110.697083 1106.318237 118.700256 L 1106.318237 203 Z"/>
        <path id="path3" fill="none" stroke="#ffffff" stroke-width="5" stroke-linecap="round" stroke-linejoin="round" d="M 961.994995 257.421326 C 937.629761 257.421326 918.15564 251.730286 903.572021 240.347961 L 924.646973 210.20282 C 935.140015 218.205994 947.411377 222.20752 961.461426 222.20752 C 969.820313 222.20752 977.111938 219.984436 983.33667 215.538269 C 989.561401 211.092041 992.673584 204.689575 992.673584 196.330688 L 992.673584 188.59436 C 984.492676 196.241821 973.821899 200.065491 960.661133 200.065491 C 941.631348 200.065491 925.802979 193.663086 913.175781 180.857971 C 900.548584 168.052917 894.234985 152.224609 894.234985 133.372681 C 894.234985 114.520752 900.548584 98.692444 913.175781 85.88739 C 925.802979 73.082275 941.631348 66.679871 960.661133 66.679871 C 973.644043 66.679871 984.314819 70.414612 992.673584 77.884216 L 992.673584 69.614319 L 1032.956177 69.614319 L 1032.956177 195.79718 C 1032.956177 205.223145 1031.533325 213.581909 1028.687744 220.873657 C 1025.842163 228.165466 1022.151855 234.034363 1017.616821 238.480591 C 1013.081665 242.926819 1007.612915 246.617126 1001.210327 249.551575 C 994.807739 252.486084 988.449829 254.531311 982.13623 255.687317 C 975.82251 256.843384 969.108887 257.421326 961.994995 257.421326 Z M 967.330322 163.517822 C 977.823364 163.517822 986.271118 159.249512 992.673584 150.71283 L 992.673584 115.765747 C 986.093262 107.406921 977.64563 103.227539 967.330322 103.227539 C 958.082275 103.227539 950.523804 106.028564 944.654785 111.630798 C 938.785767 117.233032 935.851318 124.480225 935.851318 133.372681 C 935.851318 142.265076 938.785767 149.512329 944.654785 155.114563 C 950.523804 160.716797 958.082275 163.517822 967.330322 163.517822 Z"/>
        <path id="path4" fill="none" stroke="#ffffff" stroke-width="5" stroke-linecap="round" stroke-linejoin="round" d="M 828.875977 203 L 828.875977 8.256897 L 869.158569 8.256897 L 869.158569 203 Z"/>
        <path id="path5" fill="none" stroke="#ffffff" stroke-width="5" stroke-linecap="round" stroke-linejoin="round" d="M 737.906982 205.934509 C 717.810181 205.934509 700.959229 199.576477 687.353882 186.860352 C 673.748413 174.144165 666.945801 157.293274 666.945801 136.30719 C 666.945801 116.388123 673.61499 99.804016 686.953735 86.554321 C 700.292358 73.304565 717.009766 66.679871 737.106689 66.679871 C 755.780762 66.679871 771.520142 72.370911 784.325195 83.753235 C 797.130249 95.135498 803.532715 111.141602 803.532715 131.772034 C 803.532715 136.929626 803.265991 141.642578 802.732422 145.91095 L 705.894409 145.91095 C 706.961548 153.558411 710.607422 159.382874 716.832031 163.38446 C 723.056763 167.386047 730.259521 169.38678 738.440552 169.38678 C 745.7323 169.38678 752.223755 167.919556 757.914917 164.985107 C 763.605957 162.050598 767.874268 158.449219 770.719849 154.180847 L 800.598267 176.589661 C 794.195679 185.659912 785.57019 192.818176 774.721436 198.064758 C 763.872681 203.311279 751.601318 205.934509 737.906982 205.934509 Z M 706.961548 119.500549 L 763.51709 119.500549 C 761.916382 112.920166 758.537354 107.940491 753.379761 104.561401 C 748.222168 101.182251 742.442139 99.492737 736.039551 99.492737 C 729.281372 99.492737 723.14563 101.137817 717.632324 104.427979 C 712.119141 107.718201 708.562134 112.74231 706.961548 119.500549 Z"/>
        <path id="path6" fill="none" stroke="#ffffff" stroke-width="5" stroke-linecap="round" stroke-linejoin="round" d="M 509.017212 203 L 509.017212 13.592346 L 580.245117 13.592346 C 595.717896 13.592346 608.967407 19.061096 619.994019 29.998779 C 631.02063 40.936462 636.533936 54.230408 636.533936 69.881104 C 636.533936 82.508362 631.998779 93.356934 622.928589 102.427185 C 631.109619 106.695557 637.645386 112.74231 642.536255 120.567627 C 647.427124 128.393005 649.872437 137.285278 649.872437 147.244812 C 649.872437 162.895447 644.359253 176.100525 633.332642 186.860352 C 622.30603 197.620178 608.611938 203 592.249878 203 Z M 551.433838 164.051392 L 588.78186 164.051392 C 594.473022 164.051392 599.185913 162.228455 602.920654 158.582581 C 606.655518 154.936707 608.522949 150.446045 608.522949 145.110596 C 608.522949 139.775146 606.611084 135.284546 602.787354 131.638672 C 598.963623 127.992798 594.206177 126.169861 588.515015 126.169861 L 551.433838 126.169861 Z M 551.433838 90.155701 L 575.443237 90.155701 C 581.134399 90.155701 585.84729 88.377258 589.582153 84.820313 C 593.316895 81.263306 595.184326 76.8172 595.184326 71.48175 C 595.184326 66.146301 593.316895 61.611206 589.582153 57.876404 C 585.84729 54.141541 581.134399 52.27417 575.443237 52.27417 L 551.433838 52.27417 Z"/>
        <path id="path7" fill="#ffffff" fill-rule="evenodd" stroke="none" d="M 391.637817 203 L 391.637817 54.141602 L 343.352173 54.141602 L 343.352173 13.592346 L 483.140381 13.592346 L 483.140381 54.141602 L 434.321228 54.141602 L 434.321228 203 Z"/>
        <path id="path8" fill="#ffffff" fill-rule="evenodd" stroke="none" d="M 212.100647 203 L 212.100647 13.592346 L 328.679749 13.592346 L 328.679749 54.141602 L 254.517334 54.141602 L 254.517334 88.28833 L 312.406677 88.28833 L 312.406677 128.837585 L 254.517334 128.837585 L 254.517334 203 Z"/>
        <path id="path9" fill="#ffffff" fill-rule="evenodd" stroke="none" d="M 172.084961 203 L 135.537292 203 L 43.234436 85.88739 L 43.234436 203 L 0.81778 203 L 0.81778 13.592346 L 37.365417 13.592346 L 129.40155 130.704956 L 129.40155 13.592346 L 172.084961 13.592346 Z"/>
    </g>
</svg>
