<?xml version="1.0" encoding="UTF-8"?>
<!-- Generated by Pixelmator Pro 3.3.2 -->
<svg width="1932" height="488" viewBox="0 0 1932 488" xmlns="http://www.w3.org/2000/svg" xmlns:xlink="http://www.w3.org/1999/xlink">
    <path id="Line" fill="#ffffff" fill-rule="evenodd" stroke="#ffffff" stroke-width="4" d="M 966 312 L 966 156"/>
    <g id="Group">
        <path id="path1" fill="#ffffff" fill-rule="evenodd" stroke="#ffffff" stroke-width="4" d="M 1012 282 L 1012 146"/>
        <path id="Line-copy-2" fill="#ffffff" fill-rule="evenodd" stroke="#ffffff" stroke-width="4" d="M 1689 312 L 1689 280"/>
        <path id="Line-copy" fill="#ffffff" fill-rule="evenodd" stroke="#ffffff" stroke-width="4" d="M 1010 280 L 1689 282"/>
    </g>
    <path id="path2" fill="#ffffff" fill-rule="evenodd" stroke="#ffffff" stroke-width="4" d="M 921 282 L 921 146"/>
    <path id="path3" fill="#ffffff" fill-rule="evenodd" stroke="#ffffff" stroke-width="4" d="M 260 312 L 260 280"/>
    <path id="path4" fill="#ffffff" fill-rule="evenodd" stroke="#ffffff" stroke-width="4" d="M 923 280 L 260.000031 282.004333"/>
    <text id="ETH-Belgrade" xml:space="preserve" x="966" y="85" text-anchor="middle" font-family="Rubik" font-size="87" font-weight="700" fill="#ffffff">ETH Belgrade</text>
    <g id="g1">
        <path id="Ellipse" fill="#ffffff" fill-rule="evenodd" stroke="none" d="M 933 156 C 933 148.820313 927.179688 143 920 143 C 912.820313 143 907 148.820313 907 156 C 907 163.179688 912.820313 169 920 169 C 927.179688 169 933 163.179688 933 156 Z"/>
        <path id="Ellipse-copy" fill="#ffffff" fill-rule="evenodd" stroke="none" d="M 979 156 C 979 148.820313 973.179688 143 966 143 C 958.820313 143 953 148.820313 953 156 C 953 163.179688 958.820313 169 966 169 C 973.179688 169 979 163.179688 979 156 Z"/>
        <path id="Ellipse-copy-2" fill="#ffffff" fill-rule="evenodd" stroke="none" d="M 1025 156 C 1025 148.820313 1019.179688 143 1012 143 C 1004.820313 143 999 148.820313 999 156 C 999 163.179688 1004.820313 169 1012 169 C 1019.179688 169 1025 163.179688 1025 156 Z"/>
    </g>
    <path id="Polygon" fill="#ffffff" fill-rule="evenodd" stroke="none" d="M 965.5 325 L 984.119568 305.5 L 946.880432 305.5 Z"/>
    <path id="Polygon-copy" fill="#ffffff" fill-rule="evenodd" stroke="none" d="M 259.5 325 L 278.119537 305.5 L 240.880463 305.5 Z"/>
    <path id="Polygon-copy-2" fill="#ffffff" fill-rule="evenodd" stroke="none" d="M 1688.5 325 L 1707.119507 305.5 L 1669.880493 305.5 Z"/>
    <g id="g2"/>
    <g id="con">
        <text id="Conference" xml:space="preserve" x="260" y="411" text-anchor="middle" font-family="Rubik" font-size="87" font-weight="700" fill="#ffffff">Conference</text>
        <text id="Once-a-year" xml:space="preserve" x="260" y="475" text-anchor="middle" font-family="Rubik" font-size="36" fill="#929292">Once a year</text>
    </g>
    <g id="hak">
        <text id="Hackathon" xml:space="preserve" x="1689" y="411" text-anchor="middle" font-family="Rubik" font-size="87" font-weight="700" fill="#ffffff">Hackathon</text>
        <text id="text1" xml:space="preserve" x="1689" y="475" text-anchor="middle" font-family="Rubik" font-size="36" fill="#929292">Once a year</text>
    </g>
    <g id="pro">
        <text id="Community" xml:space="preserve" x="974" y="411" text-anchor="middle" font-family="Rubik" font-size="87" font-weight="700" fill="#ffffff">Community</text>
        <text id="Programme-hapening-throughout-the" xml:space="preserve" x="974" y="475" text-anchor="middle" font-family="Rubik" font-size="36" fill="#929292">Programme hapening throughout the year</text>
    </g>
</svg>
