<?xml version="1.0" encoding="UTF-8"?>
<!-- Generated by Pixelmator Pro 3.3.2 -->
<svg width="474" height="201" viewBox="0 0 474 201" xmlns="http://www.w3.org/2000/svg" xmlns:xlink="http://www.w3.org/1999/xlink">
    <path id="Path" fill="#ffffff" stroke="none" d="M 34.212399 82.278999 L 9.52995 77.015999 L 18.422899 5.691406 L 128.768005 5.691406 L 128.768005 31.644196 L 41.290401 31.644196 L 38.023602 56.326599 C 45.646099 51.970901 58.713299 47.252197 76.317596 47.252197 C 112.614998 47.252197 138.75 64.130997 138.75 91.897995 C 138.75 119.848007 109.529999 137.996002 71.780403 137.996002 C 36.753201 137.996002 8.804 124.203003 0.637023 100.246994 L 28.0418 88.632004 C 34.575298 104.240005 49.638901 112.951004 71.961899 112.951004 C 92.107101 112.951004 108.441002 105.873001 108.441002 92.261002 C 108.441002 79.375999 93.558998 71.389999 70.873001 71.389999 C 55.0835 71.389999 42.742298 76.109001 34.212399 82.278999 Z"/>
    <path id="path1" fill="#ffffff" stroke="none" d="M 386.303009 132 L 372.147003 132 L 302.092987 1.691406 L 315.885986 1.691406 L 379.225006 120.022003 L 442.746002 1.691406 L 456.358002 1.691406 L 386.303009 132 Z"/>
    <path id="path2" fill="#ffffff" stroke="none" d="M 283.298004 151.600998 C 270.593994 148.697006 257.345001 140.167007 250.811005 131.093002 C 243.552002 133.089005 235.748001 133.996002 227.580994 133.996002 C 184.024002 133.996002 151.899994 105.865997 151.899994 66.846008 C 151.899994 27.825699 184.024002 -0.304993 227.580994 -0.304993 C 271.138 -0.304993 303.260986 27.825699 303.260986 66.846008 C 303.260986 92.979996 288.742004 114.395996 266.056 125.466003 C 272.589996 131.819 282.752991 136.899994 293.097992 139.078003 L 283.298004 151.600998 Z M 227.580994 15.303009 C 193.460999 15.303009 169.505005 36.174194 169.505005 66.846008 C 169.505005 97.516998 193.460999 118.388 227.580994 118.388 C 261.700989 118.388 285.476013 97.516998 285.476013 66.846008 C 285.476013 36.174194 261.700989 15.303009 227.580994 15.303009 Z"/>
    <path id="path3" fill="#ffffff" stroke="none" d="M 32.666599 195 L 32.666599 178.681 L 43.4995 178.681 L 43.4995 180.487 L 34.772999 180.487 L 34.772999 186.343002 L 42.481098 186.343002 L 42.481098 188.125 L 34.772999 188.125 L 34.772999 195 L 32.666599 195 Z M 49.560001 178.681 L 58.957802 178.681 L 58.957802 180.487 L 55.300499 180.487 L 55.300499 193.195007 L 58.957802 193.195007 L 58.957802 195 L 49.560001 195 L 49.560001 193.195007 L 53.2173 193.195007 L 53.2173 180.487 L 49.560001 180.487 L 49.560001 178.681 Z M 65.538498 195 L 65.538498 178.681 L 76.371399 178.681 L 76.371399 180.487 L 67.644897 180.487 L 67.644897 186.343002 L 75.352997 186.343002 L 75.352997 188.125 L 67.644897 188.125 L 67.644897 195 L 65.538498 195 Z M 81.992104 178.681 L 95.324898 178.681 L 95.324898 180.487 L 89.723297 180.487 L 89.723297 195 L 87.616898 195 L 87.616898 180.487 L 81.992104 180.487 L 81.992104 178.681 Z M 101.259003 178.681 L 103.364998 178.681 L 103.364998 186.042007 L 112.669998 186.042007 L 112.669998 178.681 L 114.777 178.681 L 114.777 195 L 112.669998 195 L 112.669998 187.871002 L 103.364998 187.871002 L 103.364998 195 L 101.259003 195 L 101.259003 178.681 Z M 148.332993 198.703995 C 143.865997 197.800995 140.139008 197.546005 135.278 198.264008 L 135.093002 196.574005 C 137.337997 196.227005 140.485992 195.856003 142.800995 194.352005 C 141.966995 194.699005 140.740997 195.022995 139.397995 195.022995 C 135.231995 195.022995 132.292007 191.457993 132.292007 186.783005 C 132.292007 181.968002 135.207993 178.427002 140.046005 178.427002 C 144.815002 178.427002 147.731003 182.014008 147.731003 186.852005 C 147.731003 192.014008 144.791 194.860992 141.667007 196.134003 C 143.634003 196.134003 145.716995 196.412003 148.332993 196.921005 L 148.332993 198.703995 Z M 134.421005 186.759995 C 134.421005 190.578995 136.528 193.240997 140.022995 193.240997 C 143.565002 193.240997 145.602005 190.856995 145.602005 186.828995 C 145.602005 182.940002 143.565002 180.255005 140.022995 180.255005 C 136.481995 180.255005 134.421005 182.848007 134.421005 186.759995 Z M 153.664001 188.934998 L 153.664001 178.681 L 155.770996 178.681 L 155.770996 188.496002 C 155.770996 191.759003 156.811996 193.425995 160.214996 193.425995 C 163.617996 193.425995 164.705994 191.759003 164.705994 188.496002 L 164.705994 178.681 L 166.811996 178.681 L 166.811996 188.934998 C 166.811996 193.009003 164.705994 195.255005 160.214996 195.255005 C 155.723999 195.255005 153.664001 193.009003 153.664001 188.934998 Z M 171.612 195 L 177.190002 178.681 L 180.962997 178.681 L 186.518997 195 L 184.320007 195 L 182.212997 188.75 L 175.917007 188.75 L 173.787994 195 L 171.612 195 Z M 176.518997 186.945007 L 181.587997 186.945007 L 179.065002 179.468002 L 176.518997 186.945007 Z M 192.130005 195 L 192.130005 178.681 L 198.171005 178.681 C 201.990997 178.681 204.537003 179.537994 204.537003 183.149002 C 204.537003 185.602005 203.425995 186.828995 201.690002 187.268997 L 202.893005 187.268997 C 204.190002 187.268997 204.559998 188.033005 204.559998 188.981995 L 204.559998 195 L 202.477005 195 L 202.477005 188.542007 L 194.235992 188.542007 L 194.235992 195 L 192.130005 195 Z M 194.235992 186.735992 L 198.171005 186.735992 C 200.809998 186.735992 202.453995 186.434998 202.453995 183.612 C 202.453995 180.718002 200.809998 180.487 198.171005 180.487 L 194.235992 180.487 L 194.235992 186.735992 Z M 209.645996 178.681 L 222.979004 178.681 L 222.979004 180.487 L 217.376999 180.487 L 217.376999 195 L 215.270996 195 L 215.270996 180.487 L 209.645996 180.487 L 209.645996 178.681 Z M 228.912003 195 L 228.912003 178.681 L 240.255005 178.681 L 240.255005 180.487 L 231.018997 180.487 L 231.018997 185.949005 L 239.097 185.949005 L 239.097 187.709 L 231.018997 187.709 L 231.018997 193.195007 L 240.255005 193.195007 L 240.255005 195 L 228.912003 195 Z M 246.513 195 L 246.513 178.681 L 252.554001 178.681 C 256.372986 178.681 258.919006 179.537994 258.919006 183.149002 C 258.919006 185.602005 257.808014 186.828995 256.071991 187.268997 L 257.276001 187.268997 C 258.571991 187.268997 258.942993 188.033005 258.942993 188.981995 L 258.942993 195 L 256.859009 195 L 256.859009 188.542007 L 248.619003 188.542007 L 248.619003 195 L 246.513 195 Z M 248.619003 186.735992 L 252.554001 186.735992 C 255.192993 186.735992 256.835999 186.434998 256.835999 183.612 C 256.835999 180.718002 255.192993 180.487 252.554001 180.487 L 248.619003 180.487 L 248.619003 186.735992 Z M 281.186005 195 L 275.630005 178.681 L 277.806 178.681 L 283.084015 194.190002 L 288.360992 178.681 L 290.536987 178.681 L 284.959015 195 L 281.186005 195 Z M 296.306 195 L 296.306 178.681 L 307.648987 178.681 L 307.648987 180.487 L 298.412994 180.487 L 298.412994 185.949005 L 306.490997 185.949005 L 306.490997 187.709 L 298.412994 187.709 L 298.412994 193.195007 L 307.648987 193.195007 L 307.648987 195 L 296.306 195 Z M 313.906006 195 L 313.906006 178.681 L 317.795013 178.681 L 326.127991 194.259003 L 326.127991 178.681 L 328.210999 178.681 L 328.210999 195 L 324.322998 195 L 316.013 179.421997 L 316.013 195 L 313.906006 195 Z M 334.13501 178.681 L 347.467987 178.681 L 347.467987 180.487 L 341.865997 180.487 L 341.865997 195 L 339.76001 195 L 339.76001 180.487 L 334.13501 180.487 L 334.13501 178.681 Z M 353.209991 188.934998 L 353.209991 178.681 L 355.316986 178.681 L 355.316986 188.496002 C 355.316986 191.759003 356.358002 193.425995 359.760986 193.425995 C 363.164001 193.425995 364.252014 191.759003 364.252014 188.496002 L 364.252014 178.681 L 366.358002 178.681 L 366.358002 188.934998 C 366.358002 193.009003 364.252014 195.255005 359.760986 195.255005 C 355.270996 195.255005 353.209991 193.009003 353.209991 188.934998 Z M 372.946014 195 L 372.946014 178.681 L 378.987 178.681 C 382.806 178.681 385.352997 179.537994 385.352997 183.149002 C 385.352997 185.602005 384.242004 186.828995 382.505005 187.268997 L 383.709015 187.268997 C 385.005005 187.268997 385.376007 188.033005 385.376007 188.981995 L 385.376007 195 L 383.292999 195 L 383.292999 188.542007 L 375.052002 188.542007 L 375.052002 195 L 372.946014 195 Z M 375.052002 186.735992 L 378.987 186.735992 C 381.626007 186.735992 383.269012 186.434998 383.269012 183.612 C 383.269012 180.718002 381.626007 180.487 378.987 180.487 L 375.052002 180.487 L 375.052002 186.735992 Z M 392.083008 195 L 392.083008 178.681 L 403.424988 178.681 L 403.424988 180.487 L 394.188995 180.487 L 394.188995 185.949005 L 402.268005 185.949005 L 402.268005 187.709 L 394.188995 187.709 L 394.188995 193.195007 L 403.424988 193.195007 L 403.424988 195 L 392.083008 195 Z M 422.311005 190.647995 C 422.311005 193.565002 420.412994 195.255005 416.061005 195.255005 C 411.106995 195.255005 408.492004 192.962997 408.492004 188.865997 L 410.621002 188.865997 C 410.621002 191.990997 412.496002 193.472 416.106995 193.472 C 418.931 193.472 420.181 192.570007 420.181 190.764008 C 420.181 189.490997 419.347992 188.518997 417.450012 188.033005 L 412.890015 186.852005 C 410.320007 186.181 409.256012 184.699005 409.256012 182.755005 C 409.256012 179.931 411.292999 178.427002 415.041992 178.427002 C 419.487 178.427002 421.825012 180.556 421.825012 184.074005 L 419.671997 184.074005 C 419.671997 181.481995 418.121002 180.186005 415.041992 180.186005 C 412.65799 180.186005 411.38501 180.996002 411.38501 182.662003 C 411.38501 183.820007 412.079987 184.699005 413.862 185.162003 L 418.376007 186.296997 C 421.014008 186.968002 422.311005 188.496002 422.311005 190.647995 Z"/>
</svg>
