<?xml version="1.0" encoding="UTF-8"?>
<!-- Generated by Pixelmator Pro 3.3.2 -->
<svg width="86" height="50" viewBox="0 0 86 50" xmlns="http://www.w3.org/2000/svg" xmlns:xlink="http://www.w3.org/1999/xlink">
    <path id="Path" fill="#fd2064" fill-rule="evenodd" stroke="none" d="M 0.000795 0 L -0 0 L -0 7.407394 L 0.000795 7.407394 L 0.000795 17.592552 L -0 17.592552 L -0 25 L 28.666487 25 L 28.666487 17.592552 L 7.398598 17.592552 L 7.398598 7.407394 L 28.666487 7.407394 L 28.666487 0 L 0.000795 0 Z M 37.913815 16.666359 L 37.913815 25 L 29.591167 25 L 29.591167 16.666359 L 29.59045 16.666359 L 29.59045 8.333035 L 29.591167 8.333035 L 29.591167 0 L 37.913815 0 L 37.913815 8.333035 L 49.935543 8.333035 L 49.935543 0 L 58.258015 0 L 58.258015 25 L 49.935543 25 L 49.935543 16.666359 L 37.913815 16.666359 Z M 67.504265 7.407394 L 67.504265 9.259464 L 85.999825 9.259464 L 85.999825 15.740948 L 67.504265 15.740948 L 67.504265 17.592499 L 85.999825 17.592499 L 85.999825 24.999821 L 67.504265 24.999821 L 67.504265 25 L 59.181618 25 L 59.181618 0 L 85.999825 0 L 85.999825 7.407394 L 67.504265 7.407394 Z M 66.57959 34.259285 L 66.57959 25.925894 L 59.181797 25.925894 L 59.181797 41.666607 L 68.429482 41.666607 L 68.429482 50 L 76.751953 50 L 76.751953 41.666607 L 86 41.666607 L 86 25.925894 L 78.602203 25.925894 L 78.602203 34.259285 L 66.57959 34.259285 Z M 58.258015 46.296074 L 50.662243 41.666607 L 58.258015 41.666607 L 58.258015 25.925894 L 29.59045 25.925894 L 29.59045 32.407497 L 29.591167 32.407497 L 29.591167 34.259285 L 29.59045 34.259285 L 29.59045 41.666607 L 29.591167 41.666607 L 29.591167 49.999825 L 37.913815 49.999825 L 37.913815 41.974819 L 49.935543 49.999825 L 58.258015 49.999825 L 58.258015 46.296074 Z M 51.784901 32.407497 L 51.784901 34.259285 L 37.913815 34.259285 L 37.913815 32.407497 L 51.784901 32.407497 Z M 21.070179 41.666607 L 28.665951 46.296074 L 28.665951 49.999825 L 20.343479 49.999825 L 8.323188 41.975891 L 8.323188 50 L 0.00065 50 L 0.00065 41.666607 L -0 41.666607 L -0 34.259109 L 0.000651 34.259109 L 0.000651 32.407322 L -0 32.407322 L -0 25.925894 L 28.666487 25.925894 L 28.666487 32.407322 L 28.665951 32.407322 L 28.665951 34.259109 L 28.666487 34.259109 L 28.666487 41.666607 L 21.070179 41.666607 Z M 22.192837 34.259109 L 22.192837 32.407322 L 8.323188 32.407322 L 8.323188 34.259109 L 22.192837 34.259109 Z"/>
</svg>
