<?xml version="1.0" encoding="UTF-8"?> <svg xmlns="http://www.w3.org/2000/svg" viewBox="0 0 205.00 37.00"><path fill="#c2e9a0" stroke="none" fill-opacity="1" stroke-width="1" stroke-opacity="1" id="tSvg15d4941e996" title="Path 1" d="M6.3238 12.5537C4.2159 12.5537 2.1079 12.5537 0 12.5537C0 14.646 0 16.7383 0 18.8306C2.1079 18.8306 4.2159 18.8306 6.3238 18.8306C6.3238 16.7383 6.3238 14.646 6.3238 12.5537Z"></path><path fill="#c2e9a0" stroke="none" fill-opacity="1" stroke-width="1" stroke-opacity="1" id="tSvg185ee700c9e" title="Path 2" d="M31.2474 6.2769C29.5628 6.2769 27.8782 6.2769 26.1936 6.2769C25.8429 6.2769 25.5586 6.5591 25.5586 6.9072C25.5586 8.5792 25.5586 10.2513 25.5586 11.9234C25.5586 12.2715 25.8429 12.5537 26.1936 12.5537C27.8782 12.5537 29.5628 12.5537 31.2474 12.5537C31.5981 12.5537 31.8824 12.2715 31.8824 11.9234C31.8824 10.2513 31.8824 8.5792 31.8824 6.9072C31.8824 6.5591 31.5981 6.2769 31.2474 6.2769Z"></path><path fill="#c2e9a0" stroke="none" fill-opacity="1" stroke-width="1" stroke-opacity="1" id="tSvgf5a7ea098f" title="Path 3" d="M18.4679 12.5537C16.7833 12.5537 15.0987 12.5537 13.4141 12.5537C13.0634 12.5537 12.7791 12.8359 12.7791 13.184C12.7791 14.8561 12.7791 16.5282 12.7791 18.2003C12.7791 18.5484 13.0634 18.8306 13.4141 18.8306C15.0987 18.8306 16.7833 18.8306 18.4679 18.8306C18.8186 18.8306 19.1029 18.5484 19.1029 18.2003C19.1029 16.5282 19.1029 14.8561 19.1029 13.184C19.1029 12.8359 18.8186 12.5537 18.4679 12.5537Z"></path><path fill="#c2e9a0" stroke="none" fill-opacity="1" stroke-width="1" stroke-opacity="1" id="tSvg2b87ebaeed" title="Path 4" d="M24.9236 25.1074C18.9353 25.1074 12.9471 25.1074 6.9588 25.1074C6.6081 25.1074 6.3238 25.3896 6.3238 25.7377C6.3238 27.4098 6.3238 29.0819 6.3238 30.754C6.3238 31.1021 6.6081 31.3843 6.9588 31.3843C12.9471 31.3843 18.9353 31.3843 24.9236 31.3843C25.2743 31.3843 25.5586 31.1021 25.5586 30.754C25.5586 29.0819 25.5586 27.4098 25.5586 25.7377C25.5586 25.3896 25.2743 25.1074 24.9236 25.1074Z"></path><path fill="#c2e9a0" stroke="none" fill-opacity="1" stroke-width="1" stroke-opacity="1" id="tSvg7040254a22" title="Path 5" d="M0.635 6.2769C2.3196 6.2769 4.0042 6.2769 5.6888 6.2769C6.0392 6.2769 6.3238 6.5593 6.3238 6.9072C6.3238 12.7638 6.3238 18.6205 6.3238 24.4771C6.3238 24.8249 6.0392 25.1074 5.6888 25.1074C4.0042 25.1074 2.3196 25.1074 0.635 25.1074C0.2846 25.1074 0 24.8249 0 24.4771C0 18.6205 0 12.7638 0 6.9072C0 6.5593 0.2846 6.2769 0.635 6.2769ZM6.3238 0.6303C6.3238 2.3024 6.3238 3.9745 6.3238 5.6466C6.3238 5.9944 6.6084 6.2769 6.9588 6.2769C12.9471 6.2769 18.9353 6.2769 24.9236 6.2769C25.2741 6.2769 25.5586 5.9944 25.5586 5.6466C25.5586 3.9745 25.5586 2.3024 25.5586 0.6303C25.5586 0.2825 25.2741 0 24.9236 0C18.9353 0 12.9471 0 6.9588 0C6.6084 0 6.3238 0.2825 6.3238 0.6303Z"></path><path fill="#c2e9a0" stroke="none" fill-opacity="1" stroke-width="1" stroke-opacity="1" id="tSvg13341aa3979" title="Path 6" d="M6.3265 5.6937C6.3634 5.9997 6.6058 6.2403 6.9141 6.2769C6.6058 6.3135 6.3634 6.5541 6.3265 6.8601C6.2896 6.5541 6.0472 6.3135 5.7389 6.2769C6.0472 6.2403 6.2896 5.9997 6.3265 5.6937Z"></path><path fill="#c2e9a0" stroke="none" fill-opacity="1" stroke-width="1" stroke-opacity="1" id="tSvg12864479b67" title="Path 7" d="M25.5584 5.6937C25.5953 5.9997 25.8377 6.2403 26.146 6.2769C25.8377 6.3135 25.5953 6.5541 25.5584 6.8601C25.5215 6.5541 25.2791 6.3135 24.9708 6.2769C25.2791 6.2403 25.5215 5.9997 25.5584 5.6937Z"></path><path fill="#c2e9a0" stroke="none" fill-opacity="1" stroke-width="1" stroke-opacity="1" id="tSvg67774b338b" title="Path 8" d="M6.3265 24.5242C6.3634 24.8302 6.6058 25.0708 6.9141 25.1074C6.6058 25.144 6.3634 25.3847 6.3265 25.6907C6.2896 25.3847 6.0472 25.144 5.7389 25.1074C6.0472 25.0708 6.2896 24.8302 6.3265 24.5242Z"></path><path fill="#f9fbf6" stroke="none" fill-opacity="1" stroke-width="1" stroke-opacity="1" id="tSvg3f932a5d65" title="Path 9" d="M198.859 31.3102C198.859 24.9314 198.859 18.5526 198.859 12.1738C200.61 12.1738 202.361 12.1738 204.112 12.1738C204.112 18.5526 204.112 24.9314 204.112 31.3102C202.361 31.3102 200.61 31.3102 198.859 31.3102Z"></path><path fill="#f9fbf6" stroke="none" fill-opacity="1" stroke-width="1" stroke-opacity="1" id="tSvgb47ec58dea" title="Path 10" d="M188.487 17.0569C190.616 17.0569 192.349 17.4177 193.686 18.1391C195.024 18.843 195.692 19.9956 195.692 21.5969C195.692 23.4094 195.692 25.2218 195.692 27.0343C195.692 27.3334 195.763 27.5798 195.904 27.7733C196.044 27.9669 196.256 28.0637 196.537 28.0637C196.8537 28.0637 197.1703 28.0637 197.487 28.0637C197.487 29.0755 197.487 30.0873 197.487 31.0991C197.435 31.1343 197.294 31.1959 197.065 31.2839C196.854 31.3543 196.546 31.4247 196.141 31.495C195.736 31.583 195.27 31.627 194.742 31.627C193.722 31.627 192.877 31.4774 192.208 31.1783C191.557 30.8616 191.109 30.4304 190.862 29.8849C190.194 30.4128 189.446 30.8352 188.619 31.1519C187.792 31.4686 186.824 31.627 185.715 31.627C182.442 31.627 180.806 30.3249 180.806 27.7205C180.806 26.3656 181.166 25.3362 181.888 24.6323C182.627 23.9109 183.683 23.4182 185.055 23.1542C186.428 22.8903 188.223 22.7583 190.44 22.7583C190.44 22.5295 190.44 22.3008 190.44 22.072C190.44 21.5265 190.246 21.113 189.859 20.8314C189.49 20.5499 189.006 20.4091 188.407 20.4091C187.862 20.4091 187.387 20.5059 186.982 20.6995C186.595 20.893 186.401 21.201 186.401 21.6233C186.401 21.6585 186.401 21.6937 186.401 21.7289C184.6767 21.7289 182.9523 21.7289 181.228 21.7289C181.21 21.6409 181.202 21.5177 181.202 21.3593C181.202 20.0396 181.826 18.9926 183.076 18.2183C184.343 17.4441 186.146 17.0569 188.487 17.0569ZM190.44 25.2394C188.944 25.2394 187.836 25.4066 187.114 25.7409C186.41 26.0577 186.058 26.4888 186.058 27.0343C186.058 27.9141 186.657 28.354 187.853 28.354C188.539 28.354 189.138 28.1693 189.648 27.7997C190.176 27.4302 190.44 26.9727 190.44 26.4272C190.44 26.0313 190.44 25.6353 190.44 25.2394Z"></path><path fill="#f9fbf6" stroke="none" fill-opacity="1" stroke-width="1" stroke-opacity="1" id="tSvg27d550b0d7" title="Path 11" d="M179.688 17.3736C179.688 18.5614 179.688 19.7492 179.688 20.937C178.7027 20.937 177.7173 20.937 176.732 20.937C176.732 22.7055 176.732 24.4739 176.732 26.2424C176.732 26.8758 176.837 27.3422 177.048 27.6413C177.26 27.9229 177.647 28.0636 178.21 28.0636C178.7027 28.0636 179.1953 28.0636 179.688 28.0636C179.688 29.093 179.688 30.1224 179.688 31.1518C179.266 31.2926 178.72 31.407 178.051 31.495C177.383 31.583 176.802 31.627 176.309 31.627C174.761 31.627 173.564 31.3454 172.72 30.7823C171.893 30.2192 171.479 29.2602 171.479 27.9053C171.479 25.5825 171.479 23.2598 171.479 20.937C170.828 20.937 170.177 20.937 169.526 20.937C169.526 19.7492 169.526 18.5614 169.526 17.3736C170.2473 17.3736 170.9687 17.3736 171.69 17.3736C172.0683 15.9659 172.4467 14.5581 172.825 13.1504C174.1273 13.1504 175.4297 13.1504 176.732 13.1504C176.732 14.5581 176.732 15.9659 176.732 17.3736C177.7173 17.3736 178.7027 17.3736 179.688 17.3736Z"></path><path fill="#f9fbf6" stroke="none" fill-opacity="1" stroke-width="1" stroke-opacity="1" id="tSvge30aa11a73" title="Path 12" d="M162.32 15.7372C162.32 14.5494 162.32 13.3616 162.32 12.1738C164.071 12.1738 165.822 12.1738 167.573 12.1738C167.573 13.3616 167.573 14.5494 167.573 15.7372C165.822 15.7372 164.071 15.7372 162.32 15.7372ZM162.32 31.3102C162.32 26.6647 162.32 22.0192 162.32 17.3737C164.071 17.3737 165.822 17.3737 167.573 17.3737C167.573 22.0192 167.573 26.6647 167.573 31.3102C165.822 31.3102 164.071 31.3102 162.32 31.3102Z"></path><path fill="#f9fbf6" stroke="none" fill-opacity="1" stroke-width="1" stroke-opacity="1" id="tSvg27a0e2984" title="Path 13" d="M154.244 17.0569C156.126 17.0569 157.578 17.6728 158.599 18.9046C159.619 20.1364 160.13 21.9576 160.13 24.3684C160.13 26.7615 159.619 28.574 158.599 29.8058C157.578 31.0199 156.126 31.627 154.244 31.627C152.625 31.627 151.323 31.0991 150.337 30.0433C150.337 32.1989 150.337 34.3545 150.337 36.5101C148.586 36.5101 146.835 36.5101 145.084 36.5101C145.084 30.1313 145.084 23.7525 145.084 17.3737C146.5093 17.3737 147.9347 17.3737 149.36 17.3737C149.5097 18.0336 149.6593 18.6934 149.809 19.3533C150.83 17.8224 152.308 17.0569 154.244 17.0569ZM152.607 20.937C151.833 20.937 151.252 21.2098 150.865 21.7553C150.478 22.3008 150.284 23.0134 150.284 23.8933C150.284 24.1836 150.284 24.474 150.284 24.7643C150.284 25.6441 150.478 26.3656 150.865 26.9287C151.252 27.4742 151.833 27.7469 152.607 27.7469C154.12 27.7469 154.877 26.8407 154.877 25.0283C154.877 24.562 154.877 24.0956 154.877 23.6293C154.877 21.8344 154.12 20.937 152.607 20.937Z"></path><path fill="#f9fbf6" stroke="none" fill-opacity="1" stroke-width="1" stroke-opacity="1" id="tSvg134ac52964f" title="Path 14" d="M134.612 17.0569C136.741 17.0569 138.475 17.4177 139.812 18.1391C141.149 18.843 141.818 19.9956 141.818 21.5969C141.818 23.4094 141.818 25.2218 141.818 27.0343C141.818 27.3334 141.888 27.5798 142.029 27.7733C142.17 27.9669 142.381 28.0637 142.663 28.0637C142.9797 28.0637 143.2963 28.0637 143.613 28.0637C143.613 29.0755 143.613 30.0873 143.613 31.0991C143.56 31.1343 143.419 31.1959 143.191 31.2839C142.979 31.3543 142.671 31.4247 142.267 31.495C141.862 31.583 141.396 31.627 140.868 31.627C139.847 31.627 139.002 31.4774 138.334 31.1783C137.683 30.8616 137.234 30.4304 136.988 29.8849C136.319 30.4128 135.571 30.8352 134.744 31.1519C133.917 31.4686 132.949 31.627 131.841 31.627C128.568 31.627 126.931 30.3249 126.931 27.7205C126.931 26.3656 127.292 25.3362 128.013 24.6323C128.752 23.9109 129.808 23.4182 131.181 23.1542C132.553 22.8903 134.348 22.7583 136.565 22.7583C136.565 22.5295 136.565 22.3008 136.565 22.072C136.565 21.5265 136.372 21.113 135.985 20.8314C135.615 20.5499 135.131 20.4091 134.533 20.4091C133.987 20.4091 133.512 20.5059 133.108 20.6995C132.72 20.893 132.527 21.201 132.527 21.6233C132.527 21.6585 132.527 21.6937 132.527 21.7289C130.8023 21.7289 129.0777 21.7289 127.353 21.7289C127.336 21.6409 127.327 21.5177 127.327 21.3593C127.327 20.0396 127.952 18.9926 129.201 18.2183C130.468 17.4441 132.272 17.0569 134.612 17.0569ZM136.565 25.2394C135.07 25.2394 133.961 25.4066 133.24 25.7409C132.536 26.0577 132.184 26.4888 132.184 27.0343C132.184 27.9141 132.782 28.354 133.979 28.354C134.665 28.354 135.263 28.1693 135.773 27.7997C136.301 27.4302 136.565 26.9727 136.565 26.4272C136.565 26.0313 136.565 25.6353 136.565 25.2394Z"></path><path fill="#f9fbf6" stroke="none" fill-opacity="1" stroke-width="1" stroke-opacity="1" id="tSvg41eafe4d29" title="Path 15" d="M116.734 12.8338C119.426 12.8338 121.556 13.5112 123.122 14.8662C124.688 16.2035 125.471 18.1216 125.471 20.6203C123.6143 20.6203 121.7577 20.6203 119.901 20.6203C119.901 19.5645 119.62 18.7287 119.057 18.1128C118.511 17.4969 117.728 17.189 116.708 17.189C115.529 17.189 114.658 17.5585 114.095 18.2975C113.549 19.0366 113.276 20.066 113.276 21.3858C113.276 21.9489 113.276 22.512 113.276 23.0751C113.276 24.3772 113.549 25.4066 114.095 26.1633C114.658 26.9023 115.511 27.2719 116.655 27.2719C117.781 27.2719 118.635 26.9815 119.215 26.4008C119.796 25.8201 120.086 25.0019 120.086 23.9461C121.881 23.9461 123.676 23.9461 125.471 23.9461C125.471 26.4272 124.705 28.3277 123.174 29.6474C121.661 30.9672 119.514 31.627 116.734 31.627C113.637 31.627 111.288 30.8352 109.687 29.2515C108.103 27.6678 107.311 25.3274 107.311 22.2304C107.311 19.1334 108.103 16.793 109.687 15.2093C111.288 13.6256 113.637 12.8338 116.734 12.8338Z"></path><path fill="#f9fbf6" stroke="none" fill-opacity="1" stroke-width="1" stroke-opacity="1" id="tSvg8724998519" title="Path 16" d="M93.4258 30.8879C92.7044 32.8411 91.8158 34.3192 90.76 35.3222C89.7217 36.3428 88.2612 36.8531 86.3784 36.8531C85.2346 36.8531 84.2228 36.6948 83.3429 36.378C83.3429 35.331 83.3429 34.284 83.3429 33.237C84.0468 33.237 84.7506 33.237 85.4545 33.237C86.7743 33.237 87.5573 32.5947 87.8037 31.3102C85.956 26.6647 84.1084 22.0191 82.2607 17.3736C84.1436 17.3736 86.0264 17.3736 87.9093 17.3736C88.7979 20.4618 89.6866 23.5501 90.5752 26.6383C90.6368 26.6383 90.6984 26.6383 90.76 26.6383C91.5782 23.5501 92.3965 20.4618 93.2147 17.3736C94.9392 17.3736 96.6636 17.3736 98.3881 17.3736C96.734 21.8784 95.0799 26.3831 93.4258 30.8879Z"></path><path fill="#f9fbf6" stroke="none" fill-opacity="1" stroke-width="1" stroke-opacity="1" id="tSvg128b0b4def6" title="Path 17" d="M74.8608 17.0569C76.7261 17.0569 78.301 17.4265 79.5855 18.1655C80.8877 18.887 81.5387 20.0132 81.5387 21.5441C79.911 21.5441 78.2834 21.5441 76.6557 21.5441C76.6557 21.0338 76.4269 20.6731 75.9694 20.4619C75.6527 20.2859 75.2567 20.198 74.7816 20.198C73.5147 20.198 72.8812 20.4971 72.8812 21.0954C72.8812 21.4297 73.1011 21.6673 73.541 21.8081C73.981 21.9488 74.7024 22.0984 75.7054 22.2568C76.9372 22.4327 77.9666 22.6439 78.7937 22.8903C79.6207 23.119 80.3422 23.5413 80.9581 24.1572C81.5739 24.7555 81.8819 25.6001 81.8819 26.6911C81.8819 28.4684 81.2132 29.7354 79.8759 30.492C78.5561 31.2487 76.8228 31.627 74.676 31.627C73.4443 31.627 72.2829 31.4598 71.1919 31.1255C70.1009 30.7736 69.2123 30.2369 68.526 29.5154C67.8397 28.7939 67.4966 27.8789 67.4966 26.7703C69.1243 26.7703 70.752 26.7703 72.3797 26.7703C72.3797 26.8055 72.3797 26.8407 72.3797 26.8759C72.3973 27.4742 72.6436 27.8965 73.1187 28.1429C73.6114 28.3716 74.1305 28.486 74.676 28.486C76.1366 28.486 76.8668 28.1429 76.8668 27.4566C76.8668 27.1047 76.6381 26.8495 76.1806 26.6911C75.723 26.5328 74.9752 26.3656 73.937 26.1896C72.6876 25.9785 71.6582 25.7497 70.8488 25.5034C70.0569 25.257 69.3618 24.8435 68.7635 24.2628C68.1653 23.6645 67.8661 22.8375 67.8661 21.7817C67.8661 20.0748 68.5084 18.8606 69.793 18.1391C71.0951 17.4177 72.7844 17.0569 74.8608 17.0569Z"></path><path fill="#f9fbf6" stroke="none" fill-opacity="1" stroke-width="1" stroke-opacity="1" id="tSvg21eb6f702a" title="Path 18" d="M58.0398 17.0569C60.169 17.0569 61.9023 17.4177 63.2397 18.1391C64.577 18.843 65.2457 19.9956 65.2457 21.5969C65.2457 23.4094 65.2457 25.2218 65.2457 27.0343C65.2457 27.3334 65.3161 27.5798 65.4569 27.7733C65.5976 27.9669 65.8088 28.0637 66.0903 28.0637C66.4071 28.0637 66.7238 28.0637 67.0406 28.0637C67.0406 29.0755 67.0406 30.0873 67.0406 31.0991C66.9878 31.1343 66.847 31.1959 66.6182 31.2839C66.4071 31.3543 66.0991 31.4247 65.6944 31.495C65.2897 31.583 64.8234 31.627 64.2955 31.627C63.2749 31.627 62.4302 31.4774 61.7615 31.1783C61.1105 30.8616 60.6618 30.4304 60.4154 29.8849C59.7467 30.4128 58.9989 30.8352 58.1718 31.1519C57.3448 31.4686 56.377 31.627 55.2684 31.627C51.9954 31.627 50.3589 30.3249 50.3589 27.7205C50.3589 26.3656 50.7196 25.3362 51.4411 24.6323C52.1801 23.9109 53.2359 23.4182 54.6085 23.1542C55.981 22.8903 57.7759 22.7583 59.9931 22.7583C59.9931 22.5295 59.9931 22.3008 59.9931 22.072C59.9931 21.5265 59.7995 21.113 59.4124 20.8314C59.0429 20.5499 58.5589 20.4091 57.9607 20.4091C57.4152 20.4091 56.9401 20.5059 56.5353 20.6995C56.1482 20.893 55.9546 21.201 55.9546 21.6233C55.9546 21.6585 55.9546 21.6937 55.9546 21.7289C54.2301 21.7289 52.5057 21.7289 50.7812 21.7289C50.7636 21.6409 50.7548 21.5177 50.7548 21.3593C50.7548 20.0396 51.3795 18.9926 52.6289 18.2183C53.8958 17.4441 55.6995 17.0569 58.0398 17.0569ZM59.9931 25.2394C58.4974 25.2394 57.3888 25.4066 56.6673 25.7409C55.9634 26.0577 55.6115 26.4888 55.6115 27.0343C55.6115 27.9141 56.2098 28.354 57.4064 28.354C58.0926 28.354 58.6909 28.1693 59.2012 27.7997C59.7291 27.4302 59.9931 26.9727 59.9931 26.4272C59.9931 26.0313 59.9931 25.6353 59.9931 25.2394Z"></path><path fill="#f9fbf6" stroke="none" fill-opacity="1" stroke-width="1" stroke-opacity="1" id="tSvg8577b6b59c" title="Path 19" d="M33 14.1504C33 13.5981 33.4477 13.1504 34 13.1504C38.9017 13.1504 43.8034 13.1504 48.7051 13.1504C48.7051 14.6021 48.7051 16.0539 48.7051 17.5056C45.4145 17.5056 42.1239 17.5056 38.8333 17.5056C38.8333 18.3414 38.8333 19.1773 38.8333 20.0131C41.6488 20.0131 44.4642 20.0131 47.2797 20.0131C47.2797 21.4033 47.2797 22.7934 47.2797 24.1836C44.4642 24.1836 41.6488 24.1836 38.8333 24.1836C38.8333 25.1074 38.8333 26.0312 38.8333 26.955C42.1855 26.955 45.5376 26.955 48.8898 26.955C48.8898 28.4067 48.8898 29.8585 48.8898 31.3102C43.5932 31.3102 38.2966 31.3102 33 31.3102C33 25.5903 33 19.8703 33 14.1504Z"></path></svg> 