<?xml version="1.0" encoding="UTF-8"?> <svg xmlns="http://www.w3.org/2000/svg" width="196" height="56" viewBox="0 0 196 56" fill="none"><path d="M0 54.7405V24.4577H5.88943V54.7405H0ZM5.05993 42.1296V37.1516L17.1706 37.1101V42.0881L5.05993 42.1296ZM5.05993 29.4357V24.4577H17.7512V29.4357H5.05993Z" fill="white"></path><path d="M34.8625 55.5287C32.0422 55.5287 29.6643 54.9894 27.7288 53.9109C25.7933 52.8323 24.3141 51.3251 23.291 49.3892C22.2956 47.4256 21.7979 45.1302 21.7979 42.503V24.4577H27.6874V42.8348C27.6874 44.2729 27.9639 45.5451 28.5169 46.6513C29.0699 47.7299 29.8717 48.5733 30.9224 49.1818C32.0007 49.7625 33.3141 50.0529 34.8625 50.0529C36.3833 50.0529 37.669 49.7625 38.7197 49.1818C39.798 48.5733 40.5999 47.7299 41.1252 46.6513C41.6782 45.5727 41.9547 44.3006 41.9547 42.8348V24.4577H47.8441V42.503C47.8441 45.1302 47.3464 47.4256 46.351 49.3892C45.3833 51.3251 43.9317 52.8323 41.9962 53.9109C40.0607 54.9894 37.6828 55.5287 34.8625 55.5287Z" fill="white"></path><path d="M51.3186 54.7405L55.6389 24.4577H65.2432L73.9131 49.8455L75.2751 49.8455L74.2542 50.5922L80.1288 13.2227H84.1822L79.8118 54.7405H70.1067L60.8302 29.3527H59.42L60.5105 28.6046L56.7933 54.7405H51.3186Z" fill="white"></path><path d="M94.1077 54.9065V49.4307H100.37C101.946 49.4307 103.343 49.1956 104.559 48.7255C105.804 48.2277 106.854 47.5363 107.711 46.6513C108.569 45.7663 109.218 44.7292 109.661 43.54C110.131 42.3232 110.366 40.9819 110.366 39.5162C110.366 37.9951 110.131 36.64 109.661 35.4508C109.218 34.2339 108.569 33.1969 107.711 32.3395C106.854 31.4822 105.804 30.8323 104.559 30.3898C103.343 29.9473 101.946 29.7261 100.37 29.7261H94.1077V24.2503H99.9971C102.734 24.2503 105.126 24.6513 107.172 25.4533C109.218 26.2553 110.919 27.3615 112.274 28.772C113.628 30.1548 114.638 31.745 115.301 33.5426C115.993 35.3125 116.338 37.1516 116.338 39.0598V39.9725C116.338 41.7977 115.993 43.5954 115.301 45.3653C114.638 47.1353 113.628 48.7393 112.274 50.1774C110.919 51.6155 109.218 52.7632 107.172 53.6205C105.126 54.4778 102.734 54.9065 99.9971 54.9065H94.1077ZM89.0478 54.9065V24.2503H94.9372V54.9065H89.0478Z" fill="white"></path><path d="M120.782 54.7405V24.4577H126.547V54.7405H120.782ZM125.718 54.7405V49.7625H139.446V54.7405H125.718ZM125.718 41.8392V36.8612H138.368V41.8392H125.718ZM125.718 29.4357V24.4577H139.114V29.4357H125.718Z" fill="white"></path><path d="M144.66 54.7405V24.2503H150.549V54.7405H144.66ZM163.157 54.7405L153.867 41.5488H160.462L170.042 54.7405H163.157ZM148.807 44.6186V39.848H156.521C157.6 39.848 158.526 39.6268 159.3 39.1843C160.102 38.7418 160.724 38.1196 161.167 37.3175C161.609 36.5155 161.83 35.6029 161.83 34.5796C161.83 33.5287 161.609 32.6023 161.167 31.8003C160.724 30.9983 160.102 30.376 159.3 29.9335C158.526 29.491 157.6 29.2698 156.521 29.2698H148.807V24.2503H155.899C158.333 24.2503 160.434 24.6098 162.204 25.3289C164.001 26.0479 165.383 27.1403 166.351 28.606C167.319 30.0718 167.803 31.9109 167.803 34.1233V34.7871C167.803 37.0272 167.305 38.8663 166.31 40.3043C165.342 41.7424 163.973 42.821 162.204 43.54C160.434 44.2591 158.333 44.6186 155.899 44.6186H148.807Z" fill="white"></path><path d="M183.765 55.5287C181.083 55.5287 178.816 55.1001 176.963 54.2427C175.138 53.3854 173.742 52.21 172.774 50.7167C171.806 49.1956 171.322 47.4809 171.322 45.5727H177.087C177.087 46.3747 177.309 47.1629 177.751 47.9373C178.193 48.684 178.899 49.2924 179.866 49.7625C180.862 50.2327 182.161 50.4678 183.765 50.4678C185.203 50.4678 186.405 50.2603 187.373 49.8455C188.341 49.4307 189.06 48.8914 189.53 48.2276C190 47.5363 190.235 46.7619 190.235 45.9046C190.235 44.826 189.779 43.9687 188.866 43.3326C187.954 42.6689 186.544 42.2541 184.636 42.0881L181.981 41.8807C179.078 41.6318 176.756 40.733 175.014 39.1843C173.299 37.6079 172.442 35.5338 172.442 32.9618C172.442 31.0259 172.899 29.3666 173.811 27.9838C174.723 26.5734 175.995 25.4948 177.627 24.7481C179.286 23.9737 181.221 23.5866 183.433 23.5866C185.728 23.5866 187.705 23.9876 189.364 24.7896C191.023 25.5916 192.309 26.7255 193.221 28.1912C194.134 29.6293 194.59 31.3301 194.59 33.2937H188.825C188.825 32.464 188.617 31.7035 188.203 31.0121C187.816 30.293 187.221 29.7261 186.419 29.3113C185.645 28.8688 184.65 28.6475 183.433 28.6475C182.272 28.6475 181.304 28.8411 180.53 29.2283C179.756 29.6155 179.175 30.1409 178.788 30.8047C178.401 31.4684 178.207 32.1874 178.207 32.9618C178.207 33.9021 178.553 34.7317 179.244 35.4508C179.935 36.1422 181.028 36.5432 182.521 36.6538L185.175 36.9027C187.332 37.0686 189.226 37.525 190.857 38.2717C192.488 39.0184 193.747 40.0278 194.631 41.2999C195.544 42.5721 196 44.107 196 45.9046C196 47.8128 195.502 49.4998 194.507 50.9656C193.511 52.4036 192.088 53.5237 190.235 54.3257C188.41 55.1277 186.253 55.5287 183.765 55.5287Z" fill="white"></path><path d="M79.8561 10.4734L73.8338 53.3268L79.8731 54.1756L85.8959 11.3181L88.7547 12.5495C86.6723 8.9752 85.1997 5.07917 84.3975 1.02142L84.3634 0.849028L84.3122 0.949562C82.4184 4.6639 79.8763 8.00979 76.8058 10.8297L79.8561 10.4734Z" fill="url(#paint0_linear_8_66)"></path><defs><linearGradient id="paint0_linear_8_66" x1="84.7513" y1="2.07683" x2="76.2586" y2="50.9257" gradientUnits="userSpaceOnUse"><stop stop-color="#FFE204"></stop><stop offset="0.373412" stop-color="#FFA100"></stop><stop offset="0.666644" stop-color="#FF0862"></stop><stop offset="1" stop-color="white"></stop></linearGradient></defs></svg> 