<svg viewBox="0 0 200 81" fill="white" xmlns="http://www.w3.org/2000/svg" class="max-w-20 w-full"><path d="M86.1814 0L52.0042 78.903H33.9662L0 0H19.7257L43.7764 56.3291L68.1435 0H86.1814Z" class="fill-black dark:fill-white"></path><path d="M127.321 54.7468C127.321 68.038 117.089 80.2743 94.6204 80.2743C83.5445 80.2743 72.1521 77.2152 64.5571 71.8355L71.6246 57.8059C77.6373 62.3418 85.9706 64.8734 94.1985 64.8734C103.376 64.8734 108.966 61.1814 108.966 54.7468C108.966 48.7342 104.536 45.0422 94.1985 45.0422H85.8651V33.0169L102.11 14.6624H68.5656V0H123.84V11.8143L106.013 32.0675C120.148 34.3882 127.321 43.1435 127.321 54.7468Z" class="fill-black dark:fill-white"></path><path d="M200 0L165.823 78.903H147.785L113.713 0H133.439L157.489 56.3291L181.856 0H200Z" class="fill-black dark:fill-white"></path></svg>