<?xml version="1.0" encoding="UTF-8"?>
<!-- Generated by Pixelmator Pro 3.3.2 -->
<svg width="250" height="39" viewBox="0 0 250 39" xmlns="http://www.w3.org/2000/svg" xmlns:xlink="http://www.w3.org/1999/xlink">
    <g id="Ebene1">
        <g id="Group">
            <path id="Path" fill="#ffffff" stroke="none" d="M 109.564224 9.130589 C 109.862389 9.405884 110 9.795883 110 10.32353 C 110 9.795883 109.862389 9.405884 109.564224 9.130589 Z"/>
            <path id="path1" fill="#ffffff" stroke="none" d="M 228.990814 11.952353 L 237.362381 28.424118 L 237.362381 28.424118 L 228.990814 11.952353 Z"/>
            <path id="path2" fill="#ffffff" stroke="none" d="M 100.504585 11.103529 C 100.596329 11.310001 100.756882 11.470589 100.940361 11.608236 C 101.146782 11.72294 101.42202 11.814705 101.788994 11.88353 C 101.42202 11.814705 101.146782 11.72294 100.940361 11.608236 C 100.73394 11.49353 100.596329 11.310001 100.504585 11.103529 Z"/>
            <path id="path3" fill="#ffffff" stroke="none" d="M 85.114677 9.130589 C 84.816513 9.405884 84.65596 9.795883 84.65596 10.32353 C 84.65596 10.621765 84.701836 10.874117 84.793579 11.103529 C 84.701836 10.897058 84.65596 10.644707 84.65596 10.32353 C 84.65596 9.795883 84.816513 9.405884 85.114677 9.130589 Z"/>
            <path id="path4" fill="#ffffff" stroke="none" d="M 93.64679 11.860588 C 93.990822 11.791765 94.266052 11.700001 94.449539 11.585295 C 94.633026 11.470589 94.793579 11.28706 94.885315 11.080587 C 94.793579 11.28706 94.655968 11.447647 94.449539 11.585295 C 94.266052 11.700001 93.990822 11.791765 93.64679 11.860588 Z"/>
            <path id="path5" fill="#ffffff" stroke="none" d="M 87.293579 11.952353 C 86.284401 11.952353 85.596329 11.837646 85.229355 11.585295 C 85.045876 11.470589 84.908257 11.28706 84.816513 11.080587 C 84.908257 11.28706 85.045876 11.447647 85.229355 11.585295 C 85.596329 11.837646 86.284401 11.952353 87.293579 11.952353 L 95.68808 28.401176 L 95.68808 28.401176 L 87.293579 11.952353 Z"/>
            <path id="path6" fill="#ffffff" stroke="none" d="M 104.013756 11.952353 L 97.706421 24.592941 L 95.665138 20.417648 L 97.706421 24.592941 L 104.013756 11.952353 Z"/>
            <path id="path7" fill="#ffffff" stroke="none" d="M 241.032104 36.568237 C 240.940369 36.361767 240.779831 36.178234 240.596329 36.06353 C 240.504593 35.994705 240.366974 35.948822 240.229355 35.902943 C 240.366974 35.948822 240.504593 35.994705 240.596329 36.06353 C 240.80275 36.178234 240.940369 36.338821 241.032104 36.568237 Z"/>
            <path id="path8" fill="#ffffff" stroke="none" d="M 226.490829 11.103529 C 226.582565 11.310001 226.720184 11.470589 226.903671 11.608236 C 227.087158 11.72294 227.362381 11.814705 227.706421 11.88353 C 227.362381 11.814705 227.087158 11.72294 226.903671 11.608236 C 226.720184 11.49353 226.582565 11.310001 226.490829 11.103529 Z"/>
            <path id="path9" fill="#ffffff" stroke="none" d="M 226.35321 10.32353 C 226.35321 9.795883 226.513763 9.405884 226.81192 9.130589 C 226.513763 9.405884 226.35321 9.795883 226.35321 10.32353 Z"/>
            <path id="path10" fill="#ffffff" stroke="none" d="M 245.68808 11.952353 L 239.380737 24.592941 L 233.188065 11.952353 L 239.380737 24.592941 L 245.68808 11.952353 Z"/>
            <path id="path11" fill="#ffffff" stroke="none" d="M 243.119263 8.832354 C 242.821106 8.901176 242.61467 8.969999 242.477066 9.107647 C 242.339462 9.222355 242.224777 9.382942 242.15596 9.589413 C 242.224777 9.382942 242.339462 9.222355 242.477066 9.107647 C 242.61467 8.992941 242.844025 8.901176 243.119263 8.832354 Z"/>
            <path id="path12" fill="#ffffff" stroke="none" d="M 235.321091 11.860588 C 235.665131 11.791765 235.940369 11.700001 236.12384 11.585295 C 236.307343 11.470589 236.46788 11.28706 236.559631 11.080587 C 236.46788 11.28706 236.330276 11.447647 236.12384 11.585295 C 235.940369 11.700001 235.665131 11.791765 235.321091 11.860588 Z"/>
            <path id="path13" fill="#ffffff" stroke="none" d="M 242.178894 11.103529 C 242.27063 11.310001 242.431183 11.470589 242.61467 11.608236 C 242.821106 11.72294 243.096329 11.814705 243.463303 11.88353 C 243.096329 11.814705 242.821106 11.72294 242.61467 11.608236 C 242.408264 11.49353 242.27063 11.310001 242.178894 11.103529 Z"/>
            <path id="path14" fill="#ffffff" stroke="none" d="M 110 10.32353 C 110 10.897058 109.839447 11.310001 109.495415 11.539412 C 109.839447 11.28706 110 10.897058 110 10.32353 Z"/>
            <path id="path15" fill="#ffffff" stroke="none" d="M 226.926605 37.371178 L 226.926605 37.371178 C 226.926605 36.958233 227.041275 36.66 227.201828 36.384708 C 227.041275 36.637058 226.926605 36.958233 226.926605 37.371178 Z"/>
            <path id="path16" fill="#ffffff" stroke="none" d="M 82.95871 35.719414 L 59.403667 35.719414 C 58.509174 35.719414 57.77523 36.453529 57.77523 37.348236 C 57.77523 38.242943 58.509174 38.977058 59.403667 38.977058 L 82.935776 38.977058 C 82.77523 38.518234 82.660553 38.013531 82.660553 37.371178 C 82.660553 36.728825 82.798164 36.178234 82.981651 35.719414 Z"/>
            <path id="path17" fill="#ffffff" stroke="none" d="M 224.633026 35.719414 L 101.811928 35.719414 C 101.995415 36.178234 102.133026 36.705883 102.133026 37.371178 C 102.133026 38.036472 101.995415 38.518234 101.834869 38.977058 L 224.610092 38.977058 C 224.449539 38.518234 224.334854 38.013531 224.334854 37.371178 C 224.334854 36.728825 224.472488 36.178234 224.65596 35.719414 Z"/>
            <path id="path18" fill="#ffffff" stroke="none" d="M 24.311928 8.740587 L 17.247705 8.740587 C 16.376146 8.740587 15.802752 8.855293 15.504588 9.084705 C 15.206422 9.314119 15.068808 9.727058 15.068808 10.32353 C 15.068808 10.942942 15.275229 11.378824 15.688074 11.608236 C 16.100918 11.837646 16.903669 11.952353 18.073395 11.952353 L 19.449541 11.952353 L 12.844036 26.772352 L 6.880734 11.952353 L 7.729358 11.952353 C 8.761468 11.952353 9.449541 11.837646 9.83945 11.585295 C 10.229358 11.332941 10.412844 10.92 10.412844 10.32353 C 10.412844 9.727058 10.275229 9.314119 9.977064 9.084705 C 9.678899 8.855293 9.105505 8.740587 8.233945 8.740587 L 1.834862 8.740587 C 1.215596 8.740587 0.779817 8.878235 0.458716 9.130589 C 0.16055 9.405884 -0 9.795883 -0 10.32353 C -0 10.92 0.183486 11.355883 0.550459 11.585295 C 0.917431 11.837646 1.605505 11.952353 2.614679 11.952353 L 10.137615 28.65353 C 10.527523 29.502354 10.894495 30.05294 11.238532 30.305294 C 11.605504 30.557648 12.110092 30.672352 12.752294 30.672352 C 13.463303 30.672352 14.013762 30.557648 14.380733 30.305294 C 14.747706 30.05294 15.137614 29.502354 15.504588 28.67647 L 23.050459 11.975294 L 23.463303 11.975294 C 24.472477 11.975294 25.160551 11.860588 25.527523 11.608236 C 25.894495 11.355883 26.077982 10.942942 26.077982 10.346472 C 26.077982 9.818823 25.917431 9.428823 25.619267 9.153528 C 25.3211 8.878235 24.862385 8.763529 24.243118 8.763529 Z"/>
            <path id="path19" fill="#ffffff" stroke="none" d="M 49.174313 20.302942 C 50.756878 20.302942 51.743118 20.165295 52.087154 19.867058 C 52.454132 19.568825 52.614681 18.995296 52.614681 18.146471 C 52.614681 15.370588 51.559631 13.007647 49.426605 11.057646 C 47.316513 9.107647 44.633026 8.121176 41.422016 8.121176 C 37.866974 8.121176 35 9.17647 32.77523 11.264118 C 30.573395 13.351765 29.449541 16.081766 29.449541 19.454119 C 29.449541 22.826469 30.504587 25.418823 32.591743 27.414703 C 34.678898 29.410587 37.454128 30.42 40.940369 30.42 C 42.545868 30.42 44.151375 30.213528 45.779816 29.823528 C 47.408257 29.433529 48.967892 28.859999 50.504589 28.125881 C 51.215595 27.781765 51.720181 27.414703 52.041286 27.047646 C 52.362385 26.680588 52.522934 26.290588 52.522934 25.831764 C 52.522934 25.37294 52.362385 25.051764 52.06422 24.753529 C 51.766056 24.455292 51.376144 24.317646 50.917435 24.317646 C 50.458717 24.317646 49.19725 24.799412 47.110092 25.74 C 45.000004 26.703529 43.073395 27.162354 41.284405 27.162354 C 38.922016 27.162354 37.06422 26.56588 35.688076 25.349998 C 34.334862 24.157059 33.577984 22.436472 33.463303 20.234119 L 49.174313 20.234119 Z M 33.577984 17.297647 C 34.01376 15.416471 34.93119 13.925293 36.330276 12.869999 C 37.729359 11.791765 39.426605 11.264118 41.444954 11.264118 C 43.325687 11.264118 44.908257 11.814705 46.192657 12.915882 C 47.477066 14.017057 48.233948 15.485294 48.463303 17.297647 L 33.577984 17.297647 Z"/>
            <path id="path20" fill="#ffffff" stroke="none" d="M 59.56422 29.869411 L 74.518349 29.869411 C 75.229355 29.869411 75.733948 29.754705 75.986244 29.525291 C 76.261467 29.295883 76.376144 28.859999 76.376144 28.240589 C 76.376144 27.690001 76.238533 27.299999 75.963303 27.047646 C 75.688072 26.795294 75.252296 26.680588 74.65596 26.680588 L 67.064217 26.680588 L 67.064217 17.160002 C 68.669724 15.324707 70.114677 13.994118 71.444954 13.145296 C 72.77523 12.296471 74.013763 11.88353 75.206421 11.88353 C 75.871567 11.88353 76.605507 12.11294 77.43119 12.571766 C 78.256882 13.030588 78.85321 13.26 79.197243 13.26 C 79.701836 13.26 80.160553 13.053528 80.573395 12.617647 C 80.986244 12.181767 81.192665 11.677059 81.192665 11.126471 C 81.192665 10.254707 80.779816 9.566471 79.93119 9.015882 C 79.105507 8.465294 78.004585 8.189999 76.628441 8.189999 C 74.816513 8.189999 73.119263 8.625883 71.559631 9.520588 C 70 10.415295 68.486237 11.745882 67.041283 13.558235 L 67.041283 9.681177 C 67.041283 9.382942 66.926605 9.153528 66.720184 8.992941 C 66.513763 8.832354 66.192665 8.763529 65.779816 8.763529 L 60.573395 8.763529 C 59.954128 8.763529 59.518349 8.901176 59.220184 9.153528 C 58.92202 9.428823 58.784401 9.818823 58.784401 10.346472 C 58.784401 10.965881 58.967888 11.401766 59.334866 11.631176 C 59.701836 11.860588 60.619267 11.975294 62.110092 11.975294 L 63.669724 11.975294 L 63.669724 26.657646 L 59.701836 26.657646 C 59.036697 26.657646 58.555046 26.795294 58.256882 27.047646 C 57.93578 27.299999 57.798168 27.71294 57.798168 28.240589 C 57.798168 28.768234 57.958717 29.204117 58.256882 29.479412 C 58.555046 29.754705 59.01376 29.892353 59.610092 29.892353 Z"/>
            <path id="path21" fill="#ffffff" stroke="none" d="M 126.444954 30.442942 C 128.050461 30.442942 129.65596 30.236471 131.284409 29.84647 C 132.912842 29.45647 134.472473 28.88294 136.009171 28.148823 C 136.720184 27.804705 137.224777 27.437645 137.545868 27.070587 C 137.866974 26.703529 138.027527 26.31353 138.027527 25.854706 C 138.027527 25.395882 137.866974 25.074705 137.568802 24.77647 C 137.270645 24.478233 136.880737 24.340588 136.422012 24.340588 C 135.963303 24.340588 134.701828 24.822353 132.614685 25.762941 C 130.504593 26.726471 128.577988 27.185295 126.788986 27.185295 C 124.426605 27.185295 122.568802 26.588821 121.192657 25.37294 C 119.839447 24.179998 119.082565 22.45941 118.967888 20.257059 L 134.678909 20.257059 C 136.261475 20.257059 137.247711 20.119413 137.591751 19.821177 C 137.958725 19.522942 138.119263 18.949411 138.119263 18.10059 C 138.119263 15.324707 137.064209 12.961763 134.931198 11.011765 C 132.821106 9.061764 130.137619 8.075293 126.926605 8.075293 C 123.371559 8.075293 120.504593 9.130589 118.279816 11.218237 C 116.07798 13.305883 114.954124 16.035881 114.954124 19.408236 C 114.954124 22.780588 116.009178 25.37294 118.096336 27.368824 C 120.183487 29.364704 122.958717 30.374119 126.444954 30.374119 Z M 121.811928 12.869999 C 123.211014 11.791765 124.908257 11.264118 126.926605 11.264118 C 128.807343 11.264118 130.389908 11.814705 131.674316 12.915882 C 132.958725 14.017057 133.715591 15.485294 133.944962 17.297647 L 119.059631 17.297647 C 119.495407 15.416471 120.412842 13.925293 121.811928 12.869999 Z"/>
            <path id="path22" fill="#ffffff" stroke="none" d="M 151.422012 30.442942 C 152.981644 30.442942 154.495407 30.144707 155.963303 29.548235 C 157.431198 28.951763 158.807327 28.10294 160.045868 26.955881 L 160.229355 28.355293 C 160.321106 28.837059 160.504593 29.227058 160.779816 29.479412 C 161.055054 29.731764 161.399094 29.869411 161.834854 29.869411 L 165.435776 29.869411 C 166.055054 29.869411 166.513763 29.731764 166.811935 29.45647 C 167.110092 29.181175 167.270645 28.768234 167.270645 28.217648 C 167.270645 27.621176 167.087158 27.208237 166.720184 26.978823 C 166.35321 26.749411 165.642212 26.634706 164.541275 26.634706 L 163.417435 26.634706 L 163.417435 16.288237 C 163.417435 13.627058 162.729355 11.608236 161.35321 10.231764 C 159.977066 8.878235 157.958725 8.189999 155.275223 8.189999 C 152.591736 8.189999 150.504593 8.511177 148.807327 9.130589 C 147.133026 9.75 146.284393 10.507059 146.284393 11.424707 C 146.284393 11.998236 146.422012 12.45706 146.720184 12.801176 C 147.018341 13.168234 147.38533 13.328825 147.821091 13.328825 C 148.302765 13.328825 149.266052 13.007647 150.733948 12.365295 C 152.201843 11.72294 153.53212 11.401766 154.701828 11.401766 C 156.467896 11.401766 157.775238 11.814705 158.600922 12.66353 C 159.449539 13.512354 159.862381 14.797058 159.862381 16.540588 L 159.862381 16.701176 C 158.922028 16.448824 158.004593 16.288237 157.087158 16.173531 C 156.192657 16.058823 155.298157 16.012941 154.403671 16.012941 C 151.055054 16.012941 148.440369 16.678236 146.605499 18.008825 C 144.747711 19.339413 143.830276 21.197647 143.830276 23.606468 C 143.830276 25.625294 144.518341 27.277058 145.917435 28.538824 C 147.316528 29.800589 149.151367 30.442942 151.422012 30.442942 Z M 149.518356 20.142355 C 150.871552 19.339413 152.729355 18.949411 155.068802 18.949411 C 155.848618 18.949411 156.628448 19.018234 157.408249 19.132942 C 158.18808 19.27059 159.013763 19.454119 159.839462 19.729412 L 159.839462 22.207058 C 159.839462 23.308235 159.013763 24.363529 157.362381 25.37294 C 155.711014 26.382351 153.922012 26.887058 151.972488 26.887058 C 150.665146 26.887058 149.587158 26.542942 148.738525 25.877647 C 147.889923 25.212353 147.477066 24.363529 147.477066 23.308235 C 147.477066 21.977646 148.165131 20.899412 149.518356 20.096472 Z"/>
            <path id="path23" fill="#ffffff" stroke="none" d="M 173.142197 29.869411 L 188.096329 29.869411 C 188.807343 29.869411 189.311935 29.754705 189.564224 29.525291 C 189.839447 29.295883 189.954132 28.859999 189.954132 28.240589 C 189.954132 27.690001 189.816513 27.299999 189.54129 27.047646 C 189.266052 26.795294 188.830276 26.680588 188.233948 26.680588 L 180.642212 26.680588 L 180.642212 17.160002 C 182.247711 15.324707 183.692657 13.994118 185.022934 13.145296 C 186.35321 12.296471 187.591751 11.88353 188.784393 11.88353 C 189.449539 11.88353 190.183487 12.11294 191.009171 12.571766 C 191.834854 13.030588 192.431198 13.26 192.775238 13.26 C 193.279816 13.26 193.738541 13.053528 194.151382 12.617647 C 194.564224 12.181767 194.770645 11.677059 194.770645 11.126471 C 194.770645 10.254707 194.357788 9.566471 193.509186 9.015882 C 192.683487 8.465294 191.582565 8.189999 190.206421 8.189999 C 188.394501 8.189999 186.69725 8.625883 185.137619 9.520588 C 183.577988 10.415295 182.064209 11.745882 180.619263 13.558235 L 180.619263 9.681177 C 180.619263 9.382942 180.504578 9.153528 180.298172 8.992941 C 180.091736 8.832354 179.77063 8.763529 179.357788 8.763529 L 174.151382 8.763529 C 173.53212 8.763529 173.096329 8.901176 172.798157 9.153528 C 172.5 9.428823 172.362396 9.818823 172.362396 10.346472 C 172.362396 10.965881 172.545883 11.401766 172.912842 11.631176 C 173.279831 11.860588 174.197235 11.975294 175.688065 11.975294 L 177.247711 11.975294 L 177.247711 26.657646 L 173.279831 26.657646 C 172.614685 26.657646 172.133041 26.795294 171.834854 27.047646 C 171.513763 27.299999 171.376144 27.71294 171.376144 28.240589 C 171.376144 28.768234 171.536697 29.204117 171.834854 29.479412 C 172.133041 29.754705 172.591736 29.892353 173.18808 29.892353 Z"/>
            <path id="path24" fill="#ffffff" stroke="none" d="M 203.027512 29.869411 L 219.908249 29.869411 C 220.619278 29.869411 221.123856 29.754705 221.376144 29.525291 C 221.628433 29.295883 221.766068 28.859999 221.766068 28.240589 C 221.766068 27.690001 221.628433 27.299999 221.376144 27.047646 C 221.100922 26.795294 220.68808 26.680588 220.114685 26.680588 L 212.935776 26.680588 L 212.935776 0.871761 C 212.935776 0.573528 212.821106 0.344116 212.591751 0.183529 C 212.362381 0.022942 212.041275 -0.068825 211.628433 -0.068825 L 204.082581 -0.068825 C 203.486237 -0.068825 203.027512 0.068825 202.729355 0.344116 C 202.408264 0.619411 202.270645 1.032356 202.270645 1.582943 C 202.270645 2.202351 202.454117 2.638233 202.821106 2.867645 C 203.188065 3.097061 204.128433 3.211765 205.596329 3.211765 L 209.472488 3.211765 L 209.472488 26.634706 L 203.142197 26.634706 C 202.5 26.634706 202.018356 26.772352 201.69725 27.024708 C 201.37616 27.277058 201.215607 27.690001 201.215607 28.217648 C 201.215607 28.745295 201.37616 29.181175 201.674316 29.45647 C 201.995407 29.731764 202.431198 29.869411 203.027512 29.869411 Z"/>
            <path id="path25" fill="#ffffff" stroke="none" d="M 245.80275 35.696472 C 244.908249 35.696472 244.174316 36.430588 244.174316 37.325291 C 244.174316 38.220001 244.908249 38.954117 245.80275 38.954117 C 246.697235 38.954117 247.431183 38.220001 247.431183 37.325291 C 247.431183 36.430588 246.697235 35.696472 245.80275 35.696472 Z"/>
            <path id="path26" fill="#ffffff" stroke="none" d="M 109.564224 9.130589 C 109.266052 8.855293 108.807335 8.740587 108.188072 8.740587 L 102.545868 8.740587 C 101.674316 8.740587 101.100922 8.855293 100.802757 9.084705 C 100.504585 9.314119 100.366966 9.727058 100.366966 10.32353 C 100.366966 10.621765 100.412842 10.874117 100.504585 11.103529 C 100.596329 11.310001 100.756882 11.470589 100.940361 11.608236 C 101.146782 11.72294 101.42202 11.814705 101.788994 11.88353 C 102.155968 11.952353 102.591743 11.975294 103.119263 11.975294 L 104.013756 11.975294 L 97.706421 24.592941 L 95.665138 20.440588 L 91.513763 11.975294 L 92.362389 11.975294 C 92.866974 11.975294 93.30275 11.952353 93.64679 11.88353 C 93.990822 11.814705 94.266052 11.72294 94.449539 11.608236 C 94.633026 11.49353 94.793579 11.310001 94.885315 11.103529 C 94.977066 10.897058 95.022934 10.644707 95.022934 10.32353 C 95.022934 9.727058 94.885315 9.314119 94.587158 9.084705 C 94.288994 8.855293 93.738533 8.740587 92.866974 8.740587 L 86.490822 8.740587 C 85.871559 8.740587 85.435783 8.878235 85.114677 9.130589 C 84.816513 9.405884 84.65596 9.795883 84.65596 10.32353 C 84.65596 10.621765 84.701836 10.874117 84.793579 11.103529 C 84.885315 11.310001 85.022934 11.470589 85.206429 11.608236 C 85.573395 11.860588 86.261467 11.975294 87.270638 11.975294 L 95.665138 28.424118 L 91.972473 35.719414 L 91.972473 35.719414 C 91.972473 35.719414 87.018349 35.719414 87.018349 35.719414 C 86.42202 35.719414 85.986244 35.857059 85.688072 36.132351 C 85.61927 36.20118 85.573395 36.292942 85.527527 36.384708 C 85.366974 36.637058 85.252289 36.958233 85.252289 37.371178 C 85.252289 37.967648 85.389908 38.380589 85.665131 38.632942 C 85.80275 38.747646 86.009171 38.839409 86.261467 38.908234 C 86.467888 38.954117 86.743118 38.977058 87.041283 38.977058 L 97.84404 38.977058 C 98.371559 38.977058 98.807343 38.839409 99.105499 38.587059 C 99.266052 38.449413 99.380737 38.288822 99.449539 38.082352 C 99.518349 37.875885 99.564217 37.646473 99.564217 37.371178 C 99.564217 37.049999 99.518349 36.797646 99.426605 36.568237 C 99.334862 36.361767 99.174316 36.178234 98.990822 36.06353 C 98.899078 35.994705 98.761475 35.948822 98.623856 35.902943 C 98.18808 35.765293 97.56881 35.696472 96.720177 35.696472 L 95.733948 35.696472 C 95.733948 35.696472 107.752289 11.929411 107.752289 11.929411 C 108.600914 11.906469 109.19725 11.768824 109.541283 11.516472 C 109.885323 11.264118 110.045868 10.874117 110.045868 10.300589 C 110.045868 9.772942 109.908249 9.382942 109.610092 9.107647 Z"/>
            <path id="path27" fill="#ffffff" stroke="none" d="M 95.665138 20.417648 L 91.513763 11.952353 L 91.513763 11.952353 L 95.665138 20.417648 Z"/>
            <path id="path28" fill="#ffffff" stroke="none" d="M 94.885315 11.103529 C 94.977066 10.897058 95.022934 10.644707 95.022934 10.32353 C 95.022934 9.727058 94.885315 9.314119 94.587158 9.084705 C 94.885315 9.314119 95.022934 9.727058 95.022934 10.32353 C 95.022934 10.621765 94.977066 10.874117 94.885315 11.103529 Z"/>
            <path id="path29" fill="#ffffff" stroke="none" d="M 240.871552 38.380589 C 241.077988 38.128235 241.192673 37.80706 241.192673 37.371178 C 241.192673 37.049999 241.14679 36.797646 241.055038 36.568237 C 241.14679 36.774704 241.192673 37.049999 241.192673 37.371178 C 241.192673 37.80706 241.055038 38.105293 240.871552 38.380589 Z"/>
            <path id="path30" fill="#ffffff" stroke="none" d="M 226.926605 37.371178 C 226.926605 37.967648 227.064224 38.380589 227.339462 38.632942 C 227.064224 38.380589 226.926605 37.967648 226.926605 37.371178 L 226.926605 37.371178 Z"/>
            <path id="path31" fill="#ffffff" stroke="none" d="M 251.238541 9.130589 C 250.940369 8.855293 250.481644 8.740587 249.862396 8.740587 L 244.220184 8.740587 C 243.784409 8.740587 243.417419 8.763529 243.142212 8.832354 C 242.866974 8.901176 242.637619 8.969999 242.500015 9.107647 C 242.362381 9.222355 242.247711 9.382942 242.178894 9.589413 C 242.110092 9.795883 242.064224 10.048235 242.064224 10.346472 C 242.064224 10.644707 242.110092 10.897058 242.201828 11.126471 C 242.293579 11.332941 242.454132 11.49353 242.637619 11.631176 C 242.844025 11.745882 243.119263 11.837646 243.486252 11.906469 C 243.85321 11.975294 244.289001 11.998236 244.816513 11.998236 L 245.710999 11.998236 L 239.403656 24.615883 L 233.211014 11.998236 L 234.059647 11.998236 C 234.564209 11.998236 235 11.975294 235.34404 11.906469 C 235.68808 11.837646 235.963303 11.745882 236.14679 11.631176 C 236.330276 11.516472 236.490829 11.332941 236.582565 11.126471 C 236.674316 10.92 236.720184 10.667646 236.720184 10.346472 C 236.720184 9.75 236.582565 9.337059 236.284393 9.107647 C 235.986237 8.878235 235.435776 8.763529 234.564209 8.763529 L 228.188065 8.763529 C 227.568817 8.763529 227.133026 8.901176 226.81192 9.153528 C 226.513763 9.428823 226.35321 9.818823 226.35321 10.346472 C 226.35321 10.644707 226.399078 10.897058 226.490829 11.126471 C 226.582565 11.355883 226.720184 11.49353 226.903671 11.631176 C 227.087158 11.745882 227.362381 11.837646 227.706421 11.906469 C 228.050461 11.975294 228.463303 11.998236 228.967896 11.998236 L 237.362381 28.44706 L 233.669724 35.742352 L 233.669724 35.742352 C 233.669724 35.742352 228.715607 35.742352 228.715607 35.742352 C 228.119263 35.742352 227.683472 35.880001 227.385315 36.155293 C 227.316513 36.224117 227.27063 36.31588 227.224777 36.407646 C 227.064224 36.66 226.949539 36.981174 226.949539 37.394119 C 226.949539 37.990589 227.087158 38.40353 227.362381 38.65588 C 227.5 38.770588 227.706421 38.86235 227.95871 38.931175 C 228.165146 38.977058 228.440369 39 228.715607 39 C 228.761459 39 228.807343 39 228.85321 39 L 239.357803 39 C 239.954132 39 240.412842 38.86235 240.710999 38.587059 C 240.779831 38.541176 240.80275 38.449413 240.848633 38.380589 C 241.055038 38.128235 241.169724 37.80706 241.169724 37.371178 C 241.169724 37.049999 241.12384 36.797646 241.032104 36.568237 C 240.940369 36.361767 240.779831 36.178234 240.596329 36.06353 C 240.504593 35.994705 240.366974 35.948822 240.229355 35.902943 C 240.091751 35.857059 239.908249 35.811176 239.724762 35.788235 C 239.357803 35.719414 238.876144 35.696472 238.325699 35.696472 L 237.362381 35.696472 L 249.380737 11.929411 C 250.229355 11.906469 250.825684 11.768824 251.169724 11.516472 C 251.513763 11.264118 251.674316 10.874117 251.674316 10.300589 C 251.674316 9.772942 251.513763 9.382942 251.215591 9.107647 Z"/>
        </g>
    </g>
</svg>
