<?xml version="1.0" encoding="UTF-8"?> <svg xmlns="http://www.w3.org/2000/svg" width="195" height="36" viewBox="0 0 195 36" fill="none"><g clip-path="url(#clip0_1314_965)"><path d="M170.457 14.5416L165.982 14.6098V21.3342H157.968L168.013 6.24701L164.592 3.7666L153.103 20.6174V25.8513H165.982V32.7009H170.457V25.8513H174.953V21.3342H170.457V14.5416Z" fill="#FAF7F6"></path><path d="M32.8294 15.4399L40.0512 10.0468L37.1191 5.73451L32.9597 8.84071L26.8891 0H20.7424L0 30.2882V36H47.6314V30.2882L37.4231 15.3831L32.8294 15.4399ZM5.91863 30.7092L23.8157 4.58534L28.833 11.9241L21.8827 17.1125L12.5649 30.7092H5.91863ZM18.7767 30.7092L23.8157 23.359L28.8547 30.7092H18.7876H18.7767ZM35.0666 30.7092L27.3886 19.5019L31.7869 16.2137L41.7128 30.7092H35.0666Z" fill="#FAF7F6"></path><path d="M128.396 11.1621H123.629V32.7234H128.396V11.1621Z" fill="#FAF7F6"></path><path d="M128.396 3.32227H123.618V8.31721H128.396V3.32227Z" fill="#FAF7F6"></path><path d="M97.7932 27.558V15.8273H103.158V11.1509H97.7932V3.27734L93.1126 6.87279V11.1509H89.5614V15.8273H93.1126V30.8576L96.1316 33.2015L104.754 30.4708L103.408 25.783L97.7932 27.558Z" fill="#FAF7F6"></path><path d="M113.736 27.558V15.8273H119.969V11.1509H113.736V3.27734L109.055 6.87279V11.1509H105.71V15.8273H109.055V30.8576L112.063 33.2015L120.697 30.4708L119.339 25.783L113.736 27.558Z" fill="#FAF7F6"></path><path d="M81.7315 13.6987C77.9631 10.1715 71.9141 9.63676 67.6028 14.0514C63.476 18.284 63.476 25.5887 67.6028 29.8213C71.9141 34.236 77.9631 33.7012 81.7315 30.1741V32.7341H86.2709V11.1387H81.7315V13.6987ZM70.8499 26.5103C68.6127 24.0299 68.6127 19.8315 70.8499 17.351C74.7486 12.9022 81.5794 15.9516 81.6011 21.9364C81.5794 27.9098 74.7594 30.9591 70.8499 26.5103Z" fill="#FAF7F6"></path><path d="M141.711 15.3945C144.132 15.3945 146.228 16.9647 147.151 19.2175L151.148 16.6119C149.378 12.9824 145.805 10.502 141.711 10.502C135.846 10.502 131.079 15.5765 131.079 21.8117C131.079 28.0468 135.846 33.1214 141.711 33.1214C145.74 33.1214 149.258 30.7207 151.061 27.1935L146.902 24.9406C145.881 26.8977 143.937 28.2175 141.711 28.2175C138.431 28.2175 135.759 25.3389 135.759 21.8117C135.759 18.2845 138.431 15.4059 141.711 15.4059" fill="#FAF7F6"></path><path d="M182.783 28.1263L190.689 20.082C192.817 17.8519 194.218 15.6901 194.218 12.015C194.218 6.83802 190.493 3.28809 185.161 3.28809C179.829 3.28809 175.876 6.61046 175.713 12.3222H180.491C180.611 9.53461 182.717 7.80515 185.346 7.80515C187.615 7.80515 189.537 9.44358 189.537 12.0719C189.537 13.881 188.169 15.929 186.486 17.6585L175.832 28.2856V32.723H194.989V28.1263H182.772H182.783Z" fill="#FAF7F6"></path></g><defs><clipPath id="clip0_1314_965"><rect width="195" height="36" fill="white"></rect></clipPath></defs></svg> 