<svg width="290" height="85" viewBox="0 0 290 85" fill="none" xmlns="http://www.w3.org/2000/svg">
<path d="M90.1754 20.8382H95.8246V39.8538H95.9649C96.9123 38.2033 98.3158 36.8622 100 35.9682C101.754 34.971 103.754 34.4208 105.754 34.3864C109.93 34.3864 116.596 36.8966 116.596 47.4188V65.5405H110.982V48.0722C110.982 43.1549 109.123 39.0286 103.789 39.0286C100.14 39.0286 97.2281 41.5388 96.2105 44.5648C95.8947 45.4244 95.7544 46.3185 95.8246 47.2125V65.5749H90.1754V20.8382Z" fill="white"/>
<path d="M143.018 65.5061L142.561 61.6548H142.386C140.667 64.0618 137.298 66.1938 132.877 66.1938C126.596 66.1938 123.368 61.8611 123.368 57.4597C123.368 50.101 130.035 46.0778 142.035 46.1465V45.5276C142.035 43.0174 141.333 38.4784 134.982 38.4784C132.14 38.4784 129.333 39.2693 126.912 40.7479L125.649 37.1029C128.211 35.4524 131.93 34.3864 135.86 34.3864C145.368 34.3864 147.684 40.7479 147.684 46.8343V58.2162C147.649 60.6576 147.825 63.099 148.211 65.5061H143.018ZM142.175 49.9634C136 49.8259 129.018 50.9262 129.018 56.8063C129.018 60.3825 131.474 62.1018 134.351 62.1018C137.719 62.205 140.772 60.1418 141.86 57.0126C142.07 56.4625 142.175 55.8435 142.175 55.2589V49.9634Z" fill="white"/>
<path d="M163.018 26.5119C163.088 28.4032 161.684 29.9162 159.439 29.9162C157.579 29.9505 156.07 28.4719 156.035 26.6838C156.035 26.6495 156.035 26.5807 156.035 26.5463C156 24.6894 157.474 23.142 159.404 23.0733C159.474 23.0733 159.509 23.0733 159.579 23.0733C161.684 23.0389 163.018 24.5519 163.018 26.5119ZM156.737 35.0397H162.386V65.4717H156.737V35.0397Z" fill="white"/>
<path d="M171.754 43.2925C171.754 40.1633 171.684 37.5843 171.509 35.0397H176.491L176.807 40.0601H176.947C178.491 37.1717 182.105 34.352 187.228 34.352C191.544 34.352 198.211 36.8622 198.211 47.3157V65.5061H192.561V47.969C192.561 43.0518 190.702 38.9598 185.368 38.9598C181.649 38.9598 178.772 41.5388 177.789 44.6335C177.509 45.4588 177.404 46.3529 177.404 47.2125V65.5061H171.754V43.2925Z" fill="white"/>
<path d="M213.158 23.1077H207.579V65.5061H213.158V23.1077Z" fill="white"/>
<path d="M222.912 23.6922C226.842 23.1077 230.807 22.7982 234.772 22.7982C242.807 22.7982 248.526 24.6207 252.281 28.0937C256.14 31.5667 258.386 36.4496 258.386 43.3269C258.386 50.2385 256.211 55.9123 252.14 59.7979C248.105 63.7524 241.439 65.8843 233.018 65.8843C229.614 65.9187 226.246 65.7468 222.877 65.3685V23.6922H222.912ZM228.491 61.1734C230.351 61.4141 232.246 61.5173 234.14 61.4829C246.07 61.4829 252.561 54.9495 252.561 43.4988C252.632 33.4923 246.842 27.1309 235.053 27.1309C232.842 27.0965 230.667 27.3028 228.491 27.7154V61.1734Z" fill="white"/>
<path d="M288.07 45.6307H271.263V60.9327H290V65.5061H265.649V23.1077H289.018V27.7154H271.263V41.0917H288.07V45.6307Z" fill="white"/>
<path d="M62.5614 50.0666C61.2632 55.3277 58.7017 59.5228 54.9123 62.7208C50.5263 66.4001 45.1579 68.2226 38.807 68.2226C30.4211 68.2226 23.8246 65.4717 19.0175 59.9355C15.8947 56.3593 13.7895 52.061 12.9123 47.4188H9.1579C10.2456 53.8491 12.9474 59.1446 17.2632 63.3741C22.7719 68.8416 29.9649 71.5581 38.807 71.5581C46.7719 71.5581 53.4035 68.9791 58.7018 63.7868C62.6316 60.073 65.2982 55.2589 66.3509 50.0322L62.5614 50.0666Z" fill="white"/>
<path d="M57.7544 50.0666C56.7018 53.4708 54.6667 56.5312 51.9298 58.8695C48.3158 61.9299 43.8596 63.4429 38.6316 63.4429C31.7193 63.4429 26.2456 61.1734 22.2807 56.6C18.5614 52.3705 16.7018 46.9718 16.7018 40.4384C16.7018 34.0425 18.7018 28.6439 22.6667 24.2768C26.7719 19.7034 32.1053 17.4339 38.6316 17.4339C43.2982 17.4339 47.3333 18.5687 50.7368 20.8038C52.6316 22.0073 54.2456 23.6234 55.5088 25.4803H58.9474C57.614 22.8326 55.614 20.5287 53.193 18.775C49.2982 16.0241 44.4561 14.6142 38.6667 14.6142C30.6667 14.6142 24.3509 17.4339 19.7544 23.0389C15.7193 27.8874 13.7193 33.6643 13.7193 40.404C13.7193 48.3817 16.1053 54.7087 20.8772 59.4197C25.4386 63.9243 31.3684 66.1938 38.7018 66.1938C45.2632 66.1938 50.7368 64.0618 55.1228 59.7635C57.9298 57.1158 59.9649 53.7459 61.0526 50.0666H57.7544Z" fill="white"/>
<path d="M70.4912 50.0666C69.0877 58.2162 65.5789 64.612 60 69.323C54.3509 74.1027 47.3684 76.4753 39.1579 76.4753C28.3158 76.4753 19.7544 72.8991 13.5088 65.7468C7.68421 59.1102 4.73684 50.6512 4.73684 40.404C4.73684 30.3632 7.85965 21.9041 14.1053 15.0612C20.5614 7.90887 28.9123 4.33269 39.1228 4.33269C46.4561 4.33269 52.7719 6.08639 58.0702 9.62819C63.7544 13.3763 67.4737 18.6374 69.1579 25.4803H73.8947C72.0702 17.2964 68.0351 10.9693 61.8596 6.49903C55.7544 2.16634 48.1754 0 39.1228 0C26.5614 0 16.6667 4.40146 9.47368 13.2044C3.1579 20.8038 0 29.8474 0 40.404C0 52.8863 3.75439 62.8239 11.2281 70.1826C18.386 77.2662 27.6842 80.7736 39.1228 80.7736C49.4035 80.7736 58 77.4038 64.8772 70.6984C70.8421 64.9215 74.2807 58.0442 75.2281 50.0322L70.4912 50.0666Z" fill="white"/>
<path d="M60.8772 25.4803H64.6667C62.9825 20.7694 60.2456 17.0213 56.386 14.236C51.6842 10.9005 45.8246 9.21555 38.807 9.21555C29.1228 9.21555 21.4737 12.6198 15.8947 19.4283C12.5263 23.4515 10.2456 28.2312 9.26316 33.3548H12.9825C14 28.7126 16.2456 24.38 19.4737 20.8382C24.4561 15.3019 30.9123 12.551 38.807 12.551C44.4912 12.551 49.3684 13.9265 53.4386 16.643C56.7719 18.775 59.3684 21.8697 60.8772 25.4803Z" fill="white"/>
<path d="M146.094 73.7866C146.029 73.2486 145.765 72.8309 145.303 72.5336C144.841 72.2363 144.273 72.0876 143.602 72.0876C143.11 72.0876 142.681 72.1655 142.312 72.3212C141.947 72.477 141.662 72.6911 141.456 72.9636C141.254 73.2362 141.153 73.5459 141.153 73.8928C141.153 74.183 141.223 74.4326 141.364 74.6414C141.509 74.8467 141.693 75.0184 141.917 75.1564C142.141 75.2909 142.375 75.4024 142.621 75.4909C142.867 75.5759 143.092 75.6449 143.298 75.698L144.425 75.9953C144.714 76.0696 145.036 76.1723 145.39 76.3032C145.747 76.4342 146.088 76.613 146.413 76.8395C146.742 77.0625 147.013 77.3492 147.226 77.6996C147.439 78.05 147.546 78.4801 147.546 78.9898C147.546 79.5774 147.389 80.1083 147.074 80.5826C146.764 81.0569 146.309 81.4339 145.709 81.7135C145.113 81.9931 144.389 82.1329 143.537 82.1329C142.742 82.1329 142.054 82.0073 141.473 81.756C140.895 81.5047 140.44 81.1542 140.107 80.7047C139.779 80.2552 139.593 79.7331 139.549 79.1385H140.936C140.972 79.549 141.113 79.8888 141.359 80.1579C141.608 80.4233 141.922 80.6215 142.301 80.7525C142.684 80.8799 143.096 80.9436 143.537 80.9436C144.05 80.9436 144.51 80.8622 144.918 80.6994C145.326 80.5331 145.65 80.303 145.888 80.0092C146.126 79.7119 146.245 79.365 146.245 78.9686C146.245 78.6075 146.143 78.3137 145.937 78.0872C145.731 77.8607 145.46 77.6766 145.124 77.535C144.788 77.3934 144.425 77.2696 144.035 77.1634L142.67 76.7811C141.803 76.5369 141.117 76.1882 140.611 75.7351C140.105 75.2821 139.853 74.6892 139.853 73.9565C139.853 73.3477 140.021 72.8168 140.356 72.3637C140.696 71.9071 141.151 71.5531 141.722 71.3018C142.296 71.047 142.937 70.9195 143.645 70.9195C144.36 70.9195 144.996 71.0452 145.552 71.2965C146.108 71.5443 146.549 71.8841 146.874 72.3159C147.203 72.7477 147.376 73.238 147.394 73.7866H146.094Z" fill="white"/>
<path d="M151.467 81.9418L148.931 73.7866H150.275L152.074 80.0304H152.16L153.937 73.7866H155.302L157.058 80.0092H157.145L158.943 73.7866H160.287L157.751 81.9418H156.494L154.674 75.6767H154.544L152.724 81.9418H151.467Z" fill="white"/>
<path d="M161.977 81.9418V73.7866H163.256V81.9418H161.977ZM162.627 72.4274C162.378 72.4274 162.163 72.3442 161.982 72.1779C161.805 72.0115 161.717 71.8115 161.717 71.5779C161.717 71.3443 161.805 71.1443 161.982 70.9779C162.163 70.8116 162.378 70.7284 162.627 70.7284C162.876 70.7284 163.089 70.8116 163.266 70.9779C163.447 71.1443 163.537 71.3443 163.537 71.5779C163.537 71.8115 163.447 72.0115 163.266 72.1779C163.089 72.3442 162.876 72.4274 162.627 72.4274Z" fill="white"/>
<path d="M169.303 73.7866V74.8485H164.817V73.7866H169.303ZM166.161 81.9418V72.661C166.161 72.1938 166.273 71.8044 166.497 71.493C166.721 71.1815 167.011 70.9479 167.369 70.7921C167.727 70.6364 168.104 70.5585 168.501 70.5585C168.815 70.5585 169.072 70.5833 169.271 70.6328C169.469 70.6824 169.617 70.7284 169.715 70.7709L169.346 71.854C169.281 71.8327 169.191 71.8062 169.076 71.7743C168.964 71.7425 168.815 71.7266 168.631 71.7266C168.209 71.7266 167.904 71.831 167.716 72.0398C167.532 72.2487 167.439 72.5548 167.439 72.9583V81.9418H166.161Z" fill="white"/>
<path d="M174.714 73.7866V74.8485H170.402V73.7866H174.714ZM171.658 71.8328H172.937V79.6057C172.937 79.9596 172.989 80.2251 173.094 80.4021C173.202 80.5755 173.34 80.6923 173.506 80.7525C173.676 80.8091 173.854 80.8374 174.042 80.8374C174.183 80.8374 174.299 80.8304 174.389 80.8162C174.479 80.7985 174.551 80.7844 174.606 80.7737L174.866 81.8993C174.779 81.9312 174.658 81.963 174.503 81.9949C174.347 82.0303 174.151 82.048 173.912 82.048C173.551 82.048 173.197 81.9719 172.85 81.8197C172.507 81.6675 172.222 81.4356 171.994 81.1242C171.77 80.8127 171.658 80.4198 171.658 79.9455V71.8328Z" fill="white"/>
<path d="M178.544 80.4552L178.458 81.0286C178.396 81.4321 178.302 81.8639 178.176 82.3241C178.053 82.7842 177.925 83.2178 177.791 83.6249C177.658 84.0319 177.547 84.3558 177.461 84.5965H176.486C176.533 84.37 176.594 84.0709 176.67 83.6992C176.746 83.3276 176.821 82.9117 176.897 82.4515C176.977 81.9949 177.042 81.5277 177.092 81.0498L177.157 80.4552H178.544Z" fill="white"/>
<path d="M191.445 73.7866C191.38 73.2486 191.116 72.8309 190.654 72.5336C190.192 72.2363 189.625 72.0876 188.953 72.0876C188.462 72.0876 188.032 72.1655 187.664 72.3212C187.299 72.477 187.013 72.6911 186.808 72.9636C186.605 73.2362 186.504 73.5459 186.504 73.8928C186.504 74.183 186.575 74.4326 186.715 74.6414C186.86 74.8467 187.044 75.0184 187.268 75.1564C187.492 75.2909 187.727 75.4024 187.972 75.4909C188.218 75.5759 188.444 75.6449 188.65 75.698L189.776 75.9953C190.065 76.0696 190.387 76.1723 190.741 76.3032C191.098 76.4342 191.44 76.613 191.765 76.8395C192.093 77.0625 192.364 77.3492 192.577 77.6996C192.79 78.05 192.897 78.4801 192.897 78.9898C192.897 79.5774 192.74 80.1083 192.426 80.5826C192.115 81.0569 191.66 81.4339 191.06 81.7135C190.464 81.9931 189.74 82.1329 188.888 82.1329C188.093 82.1329 187.405 82.0073 186.824 81.756C186.246 81.5047 185.791 81.1542 185.459 80.7047C185.13 80.2552 184.944 79.7331 184.901 79.1385H186.287C186.324 79.549 186.464 79.8888 186.71 80.1579C186.959 80.4233 187.273 80.6215 187.653 80.7525C188.036 80.8799 188.447 80.9436 188.888 80.9436C189.401 80.9436 189.861 80.8622 190.269 80.6994C190.678 80.5331 191.001 80.303 191.239 80.0092C191.478 79.7119 191.597 79.365 191.597 78.9686C191.597 78.6075 191.494 78.3137 191.288 78.0872C191.082 77.8607 190.811 77.6766 190.475 77.535C190.139 77.3934 189.776 77.2696 189.386 77.1634L188.021 76.7811C187.154 76.5369 186.468 76.1882 185.962 75.7351C185.457 75.2821 185.204 74.6892 185.204 73.9565C185.204 73.3477 185.372 72.8168 185.708 72.3637C186.047 71.9071 186.502 71.5531 187.073 71.3018C187.647 71.047 188.288 70.9195 188.996 70.9195C189.711 70.9195 190.347 71.0452 190.903 71.2965C191.46 71.5443 191.9 71.8841 192.225 72.3159C192.554 72.7477 192.727 73.238 192.745 73.7866H191.445Z" fill="white"/>
<path d="M194.933 81.9418V73.7866H196.211V81.9418H194.933ZM195.583 72.4274C195.334 72.4274 195.119 72.3442 194.938 72.1779C194.761 72.0115 194.673 71.8115 194.673 71.5779C194.673 71.3443 194.761 71.1443 194.938 70.9779C195.119 70.8116 195.334 70.7284 195.583 70.7284C195.832 70.7284 196.045 70.8116 196.222 70.9779C196.403 71.1443 196.493 71.3443 196.493 71.5779C196.493 71.8115 196.403 72.0115 196.222 72.1779C196.045 72.3442 195.832 72.4274 195.583 72.4274Z" fill="white"/>
<path d="M198.553 81.9418V73.7866H199.788V75.0609H199.897C200.07 74.6255 200.35 74.2874 200.736 74.0468C201.123 73.8025 201.587 73.6804 202.129 73.6804C202.678 73.6804 203.135 73.8025 203.499 74.0468C203.868 74.2874 204.155 74.6255 204.361 75.0609H204.447C204.661 74.6396 204.98 74.3052 205.406 74.0574C205.833 73.8061 206.344 73.6804 206.94 73.6804C207.684 73.6804 208.292 73.9087 208.765 74.3653C209.238 74.8184 209.475 75.5245 209.475 76.4838V81.9418H208.196V76.4838C208.196 75.882 208.029 75.452 207.693 75.1936C207.357 74.9352 206.961 74.806 206.506 74.806C205.921 74.806 205.468 74.9794 205.146 75.3263C204.825 75.6697 204.664 76.105 204.664 76.6324V81.9418H203.364V76.3563C203.364 75.8927 203.21 75.5192 202.903 75.2361C202.596 74.9494 202.201 74.806 201.717 74.806C201.385 74.806 201.074 74.8927 200.785 75.0662C200.5 75.2396 200.269 75.4803 200.092 75.7882C199.918 76.0926 199.832 76.4448 199.832 76.8448V81.9418H198.553Z" fill="white"/>
<path d="M211.813 85V73.7866H213.048V75.0821H213.2C213.294 74.9405 213.424 74.76 213.59 74.5405C213.76 74.3175 214.002 74.1193 214.316 73.9459C214.634 73.7689 215.063 73.6804 215.605 73.6804C216.306 73.6804 216.923 73.8521 217.458 74.1954C217.993 74.5388 218.41 75.0255 218.709 75.6555C219.009 76.2856 219.159 77.0289 219.159 77.8854C219.159 78.7491 219.009 79.4977 218.709 80.1313C218.41 80.7614 217.994 81.2498 217.463 81.5967C216.932 81.94 216.32 82.1117 215.627 82.1117C215.092 82.1117 214.664 82.025 214.343 81.8515C214.021 81.6746 213.774 81.4746 213.601 81.2516C213.427 81.025 213.294 80.8375 213.2 80.6888H213.091V85H211.813ZM213.07 77.8642C213.07 78.4801 213.162 79.0234 213.346 79.4942C213.53 79.9614 213.799 80.3278 214.153 80.5932C214.507 80.8552 214.941 80.9861 215.453 80.9861C215.988 80.9861 216.434 80.8481 216.792 80.572C217.153 80.2924 217.424 79.9172 217.604 79.4464C217.788 78.9721 217.881 78.4447 217.881 77.8642C217.881 77.2908 217.79 76.774 217.61 76.3139C217.433 75.8502 217.164 75.4838 216.802 75.2148C216.445 74.9423 215.995 74.806 215.453 74.806C214.933 74.806 214.496 74.9352 214.142 75.1936C213.788 75.4484 213.521 75.8059 213.341 76.2661C213.16 76.7227 213.07 77.2554 213.07 77.8642Z" fill="white"/>
<path d="M222.388 71.0682V81.9418H221.109V71.0682H222.388Z" fill="white"/>
<path d="M228.219 82.1117C227.417 82.1117 226.725 81.9383 226.144 81.5914C225.566 81.241 225.12 80.7525 224.806 80.126C224.495 79.4959 224.34 78.7633 224.34 77.9279C224.34 77.0926 224.495 76.3563 224.806 75.7192C225.12 75.0785 225.557 74.5795 226.117 74.222C226.68 73.8609 227.338 73.6804 228.089 73.6804C228.522 73.6804 228.95 73.7512 229.373 73.8928C229.795 74.0344 230.18 74.2645 230.527 74.583C230.873 74.898 231.15 75.3157 231.356 75.836C231.562 76.3563 231.664 76.997 231.664 77.758V78.2889H225.25V77.2058H230.364C230.364 76.7457 230.27 76.3351 230.082 75.9741C229.898 75.613 229.635 75.3281 229.292 75.1193C228.952 74.9104 228.551 74.806 228.089 74.806C227.58 74.806 227.139 74.9299 226.767 75.1777C226.398 75.4219 226.115 75.7404 225.916 76.1333C225.718 76.5262 225.618 76.9475 225.618 77.397V78.119C225.618 78.7349 225.727 79.257 225.943 79.6853C226.164 80.1101 226.469 80.4339 226.859 80.6569C227.249 80.8764 227.702 80.9861 228.219 80.9861C228.555 80.9861 228.858 80.9401 229.129 80.8481C229.403 80.7525 229.64 80.6109 229.839 80.4233C230.037 80.2322 230.191 79.995 230.299 79.7119L231.534 80.0517C231.404 80.4622 231.186 80.8233 230.879 81.1348C230.572 81.4427 230.193 81.6834 229.741 81.8569C229.29 82.0268 228.782 82.1117 228.219 82.1117Z" fill="white"/>
<path d="M235.516 80.4552L235.43 81.0286C235.368 81.4321 235.274 81.8639 235.148 82.3241C235.025 82.7842 234.897 83.2178 234.763 83.6249C234.63 84.0319 234.52 84.3558 234.433 84.5965H233.458C233.505 84.37 233.566 84.0709 233.642 83.6992C233.718 83.3276 233.794 82.9117 233.869 82.4515C233.949 81.9949 234.014 81.5277 234.064 81.0498L234.129 80.4552H235.516Z" fill="white"/>
<path d="M248.417 73.7866C248.352 73.2486 248.089 72.8309 247.626 72.5336C247.164 72.2363 246.597 72.0876 245.925 72.0876C245.434 72.0876 245.004 72.1655 244.636 72.3212C244.271 72.477 243.986 72.6911 243.78 72.9636C243.577 73.2362 243.476 73.5459 243.476 73.8928C243.476 74.183 243.547 74.4326 243.688 74.6414C243.832 74.8467 244.016 75.0184 244.24 75.1564C244.464 75.2909 244.699 75.4024 244.945 75.4909C245.19 75.5759 245.416 75.6449 245.622 75.698L246.749 75.9953C247.038 76.0696 247.359 76.1723 247.713 76.3032C248.07 76.4342 248.412 76.613 248.737 76.8395C249.066 77.0625 249.336 77.3492 249.55 77.6996C249.763 78.05 249.869 78.4801 249.869 78.9898C249.869 79.5774 249.712 80.1083 249.398 80.5826C249.087 81.0569 248.632 81.4339 248.033 81.7135C247.437 81.9931 246.712 82.1329 245.86 82.1329C245.065 82.1329 244.377 82.0073 243.796 81.756C243.218 81.5047 242.763 81.1542 242.431 80.7047C242.102 80.2552 241.916 79.7331 241.873 79.1385H243.26C243.296 79.549 243.437 79.8888 243.682 80.1579C243.931 80.4233 244.246 80.6215 244.625 80.7525C245.008 80.8799 245.419 80.9436 245.86 80.9436C246.373 80.9436 246.833 80.8622 247.242 80.6994C247.65 80.5331 247.973 80.303 248.211 80.0092C248.45 79.7119 248.569 79.365 248.569 78.9686C248.569 78.6075 248.466 78.3137 248.26 78.0872C248.054 77.8607 247.783 77.6766 247.447 77.535C247.112 77.3934 246.749 77.2696 246.359 77.1634L244.993 76.7811C244.126 76.5369 243.44 76.1882 242.935 75.7351C242.429 75.2821 242.176 74.6892 242.176 73.9565C242.176 73.3477 242.344 72.8168 242.68 72.3637C243.019 71.9071 243.475 71.5531 244.045 71.3018C244.619 71.047 245.261 70.9195 245.968 70.9195C246.684 70.9195 247.319 71.0452 247.875 71.2965C248.432 71.5443 248.872 71.8841 249.197 72.3159C249.526 72.7477 249.699 73.238 249.717 73.7866H248.417Z" fill="white"/>
<path d="M251.905 81.9418V73.7866H253.14V75.0609H253.248C253.422 74.6255 253.702 74.2874 254.088 74.0468C254.475 73.8025 254.939 73.6804 255.48 73.6804C256.029 73.6804 256.486 73.8025 256.851 74.0468C257.22 74.2874 257.507 74.6255 257.713 75.0609H257.799C258.012 74.6396 258.332 74.3052 258.758 74.0574C259.184 73.8061 259.695 73.6804 260.291 73.6804C261.035 73.6804 261.644 73.9087 262.117 74.3653C262.59 74.8184 262.827 75.5245 262.827 76.4838V81.9418H261.548V76.4838C261.548 75.882 261.38 75.452 261.044 75.1936C260.709 74.9352 260.313 74.806 259.858 74.806C259.273 74.806 258.82 74.9794 258.498 75.3263C258.177 75.6697 258.016 76.105 258.016 76.6324V81.9418H256.716V76.3563C256.716 75.8927 256.562 75.5192 256.255 75.2361C255.948 74.9494 255.553 74.806 255.069 74.806C254.736 74.806 254.426 74.8927 254.137 75.0662C253.852 75.2396 253.62 75.4803 253.443 75.7882C253.27 76.0926 253.183 76.4448 253.183 76.8448V81.9418H251.905Z" fill="white"/>
<path d="M267.613 82.1329C267.086 82.1329 266.607 82.0356 266.178 81.8409C265.748 81.6427 265.407 81.3578 265.154 80.9861C264.901 80.6109 264.775 80.1579 264.775 79.6269C264.775 79.1597 264.868 78.781 265.056 78.4907C265.244 78.1969 265.495 77.9669 265.809 77.8005C266.124 77.6341 266.47 77.5102 266.849 77.4288C267.232 77.3439 267.617 77.2766 268.003 77.2271C268.509 77.1634 268.919 77.1156 269.233 77.0837C269.551 77.0483 269.782 76.9899 269.927 76.9085C270.075 76.8271 270.149 76.6855 270.149 76.4838V76.4413C270.149 75.9174 270.003 75.5104 269.71 75.2201C269.421 74.9299 268.982 74.7848 268.393 74.7848C267.783 74.7848 267.305 74.9157 266.958 75.1777C266.611 75.4396 266.367 75.7192 266.226 76.0165L265.013 75.5918C265.23 75.0963 265.519 74.7104 265.88 74.4343C266.245 74.1547 266.642 73.96 267.072 73.8503C267.505 73.737 267.931 73.6804 268.35 73.6804C268.617 73.6804 268.924 73.7123 269.271 73.776C269.622 73.8362 269.959 73.9618 270.284 74.1529C270.613 74.3441 270.886 74.6326 271.102 75.0184C271.319 75.4042 271.427 75.921 271.427 76.5687V81.9418H270.149V80.8374H270.084C269.997 81.0144 269.853 81.2038 269.65 81.4056C269.448 81.6073 269.179 81.779 268.843 81.9206C268.507 82.0621 268.097 82.1329 267.613 82.1329ZM267.808 81.0074C268.314 81.0074 268.74 80.91 269.087 80.7153C269.437 80.5207 269.701 80.2693 269.878 79.9614C270.059 79.6535 270.149 79.3296 270.149 78.9898V77.843C270.095 77.9067 269.975 77.9651 269.791 78.0182C269.611 78.0677 269.401 78.112 269.163 78.1509C268.928 78.1863 268.699 78.2182 268.475 78.2465C268.254 78.2712 268.076 78.2925 267.938 78.3102C267.606 78.3527 267.296 78.4217 267.007 78.5173C266.721 78.6093 266.49 78.7491 266.313 78.9367C266.14 79.1208 266.053 79.3721 266.053 79.6906C266.053 80.126 266.217 80.4552 266.546 80.6782C266.878 80.8976 267.299 81.0074 267.808 81.0074Z" fill="white"/>
<path d="M273.761 81.9418V73.7866H274.996V75.0184H275.083C275.235 74.6149 275.509 74.2875 275.906 74.0361C276.304 73.7848 276.752 73.6592 277.25 73.6592C277.344 73.6592 277.461 73.6609 277.602 73.6645C277.743 73.668 277.85 73.6733 277.922 73.6804V74.9547C277.878 74.9441 277.779 74.9281 277.624 74.9069C277.472 74.8821 277.311 74.8697 277.142 74.8697C276.737 74.8697 276.376 74.9529 276.058 75.1193C275.744 75.2821 275.495 75.5086 275.311 75.7989C275.13 76.0856 275.04 76.413 275.04 76.7811V81.9418H273.761Z" fill="white"/>
<path d="M283.578 73.7866V74.8485H279.265V73.7866H283.578ZM280.522 71.8328H281.801V79.6057C281.801 79.9596 281.853 80.2251 281.958 80.4021C282.066 80.5755 282.204 80.6923 282.37 80.7525C282.539 80.8091 282.718 80.8374 282.906 80.8374C283.047 80.8374 283.163 80.8304 283.253 80.8162C283.343 80.7985 283.415 80.7844 283.47 80.7737L283.73 81.8993C283.643 81.9312 283.522 81.963 283.367 81.9949C283.211 82.0303 283.014 82.048 282.776 82.048C282.415 82.048 282.061 81.9719 281.714 81.8197C281.371 81.6675 281.086 81.4356 280.858 81.1242C280.634 80.8127 280.522 80.4198 280.522 79.9455V71.8328Z" fill="white"/>
</svg>
