<svg width="193" height="42" viewBox="0 0 193 42" fill="none" xmlns="http://www.w3.org/2000/svg">
<path d="M11.6652 9.20947C9.96975 7.51406 9.96975 4.76524 11.6652 3.06982C13.3606 1.37441 16.1094 1.37441 17.8048 3.06982L27.0143 12.2793L20.8746 18.4189L11.6652 9.20947Z" fill="white"/>
<path d="M23.9441 3.06983C25.6395 1.37441 28.3883 1.37441 30.0837 3.06983C31.7792 4.76524 31.7792 7.51406 30.0837 9.20947L20.8743 18.4189L14.7346 12.2793L23.9441 3.06983Z" fill="white"/>
<path d="M32.5394 11.6643C34.2348 9.96889 36.9837 9.96889 38.6791 11.6643C40.3745 13.3597 40.3745 16.1085 38.6791 17.804L29.4696 27.0134L23.33 20.8738L32.5394 11.6643Z" fill="white"/>
<path d="M38.6791 23.9441C40.3745 25.6395 40.3745 28.3883 38.6791 30.0837C36.9837 31.7792 34.2348 31.7792 32.5394 30.0837L23.33 20.8743L29.4696 14.7346L38.6791 23.9441Z" fill="white"/>
<path d="M9.2096 30.084C7.51418 31.7794 4.76536 31.7794 3.06995 30.084C1.37453 28.3886 1.37453 25.6398 3.06994 23.9443L12.2794 14.7349L18.4191 20.8745L9.2096 30.084Z" fill="white"/>
<path d="M3.06983 17.804C1.37441 16.1085 1.37441 13.3597 3.06983 11.6643C4.76524 9.96889 7.51406 9.96889 9.20947 11.6643L18.419 20.8738L12.2793 27.0134L3.06983 17.804Z" fill="white"/>
<path d="M30.0841 32.5388C31.7795 34.2342 31.7795 36.9831 30.0841 38.6785C28.3887 40.3739 25.6399 40.3739 23.9445 38.6785L14.735 29.469L20.8746 23.3293L30.0841 32.5388Z" fill="white"/>
<path d="M17.8055 38.6792C16.1101 40.3746 13.3613 40.3746 11.6659 38.6792C9.97048 36.9838 9.97047 34.235 11.6659 32.5395L20.8754 23.3301L27.015 29.4697L17.8055 38.6792Z" fill="white"/>
<path d="M77.6175 36.9432C86.2569 36.9432 90.6851 31.2126 91.8573 26.4805L86.2569 24.7873C85.432 27.6526 82.8706 31.0823 77.6175 31.0823C72.6683 31.0823 68.0665 27.479 68.0665 20.9235C68.0665 13.9339 72.9288 10.6344 77.5307 10.6344C82.8706 10.6344 85.2584 13.8904 85.9964 16.8426L91.6402 15.0626C90.4246 10.07 86.0398 4.86035 77.5307 4.86035C69.282 4.86035 61.8583 11.1119 61.8583 20.9235C61.8583 30.735 69.0216 36.9432 77.6175 36.9432Z" fill="white"/>
<path d="M101.752 36.292V4.86035H95.9775V36.292H101.752Z" fill="white"/>
<path d="M117.528 31.6901C114.706 31.6901 112.101 29.6063 112.101 25.6122C112.101 21.5747 114.706 19.5342 117.528 19.5342C120.35 19.5342 122.955 21.5747 122.955 25.6122C122.955 29.6497 120.35 31.6901 117.528 31.6901ZM117.528 14.2812C111.146 14.2812 106.327 19.0133 106.327 25.6122C106.327 32.1677 111.146 36.9432 117.528 36.9432C123.91 36.9432 128.729 32.1677 128.729 25.6122C128.729 19.0133 123.91 14.2812 117.528 14.2812Z" fill="white"/>
<path d="M152.794 14.9324H146.716L141.637 29.259L136.341 14.9324H130.002L138.728 36.292H144.502L152.794 14.9324Z" fill="white"/>
<path d="M159.883 23.181C160.013 21.2274 161.663 18.9699 164.658 18.9699C167.958 18.9699 169.347 21.0537 169.434 23.181H159.883ZM169.998 28.738C169.304 30.6482 167.827 31.994 165.136 31.994C162.271 31.994 159.883 29.9536 159.753 27.1317H175.034C175.034 27.0448 175.121 26.1766 175.121 25.3517C175.121 18.4923 171.17 14.2812 164.571 14.2812C159.101 14.2812 154.065 18.7094 154.065 25.5254C154.065 32.7321 159.232 36.9432 165.092 36.9432C170.346 36.9432 173.732 33.8608 174.817 30.1706L169.998 28.738Z" fill="white"/>
<path d="M192.692 14.8455C192.258 14.8021 191.824 14.7587 191.346 14.7587C189.523 14.7587 186.571 15.2797 185.268 18.1016V14.9324H179.668V36.292H185.442V26.5239C185.442 21.922 188.003 20.4894 190.956 20.4894C191.477 20.4894 192.041 20.5328 192.692 20.663V14.8455Z" fill="white"/>
</svg>
