<svg width="568" height="55" viewBox="0 0 568 55" fill="none" xmlns="http://www.w3.org/2000/svg">
<path d="M0.443115 27.6689V27.5539C0.443115 16.53 8.57972 7.49342 20.1461 7.49342C27.1909 7.49342 31.4446 9.98267 35.1009 13.5387L30.7854 18.58C27.7265 15.6933 24.4513 13.7584 20.0843 13.7584C12.7716 13.7584 7.47768 19.856 7.47768 27.4493V27.5643C7.47768 35.1576 12.7716 41.3702 20.0843 41.3702C24.7808 41.3702 27.778 39.4353 31.0532 36.329L35.3687 40.7636C31.3828 44.9786 27.0158 47.6352 19.868 47.6352C8.73421 47.6247 0.443115 38.8078 0.443115 27.6689Z" fill="white"/>
<path d="M102.357 41.3075L106.394 36.4336C110.05 39.6445 113.707 41.4749 118.455 41.4749C122.606 41.4749 125.222 39.5399 125.222 36.601V36.4859C125.222 33.7143 123.697 32.2186 116.601 30.5556C108.464 28.558 103.881 26.121 103.881 18.967V18.852C103.881 12.2 109.34 7.59806 116.931 7.59806C122.503 7.59806 126.921 9.31334 130.794 12.472L127.189 17.6283C123.749 15.024 120.309 13.6329 116.817 13.6329C112.883 13.6329 110.596 15.6829 110.596 18.2349V18.3499C110.596 21.3412 112.347 22.6695 119.66 24.4476C127.735 26.4452 131.937 29.3842 131.937 35.8061V35.9211C131.937 43.1797 126.313 47.5097 118.29 47.5097C112.45 47.5097 106.94 45.4598 102.357 41.2971V41.3075Z" fill="white"/>
<path d="M148.591 8.16305H155.739L167.367 26.5082L178.995 8.16305H186.143V46.9661H179.428V19.145L167.367 37.4379H167.151L155.193 19.2601V46.9765H148.591V8.16305Z" fill="white"/>
<path d="M203.014 27.6689V27.5539C203.014 16.6346 211.315 7.49342 223.046 7.49342C234.777 7.49342 242.966 16.53 242.966 27.4493V27.5643C242.966 38.4835 234.664 47.6247 222.933 47.6247C211.202 47.6247 203.014 38.5881 203.014 27.6689ZM235.931 27.6689V27.5539C235.931 20.0129 230.524 13.7479 222.943 13.7479C215.363 13.7479 210.059 19.8978 210.059 27.4388V27.5539C210.059 35.0948 215.466 41.3598 223.046 41.3598C230.627 41.3598 235.931 35.2099 235.931 27.6689Z" fill="white"/>
<path d="M254.223 8.16305H261.649L273.164 37.9818L284.627 8.16305H291.888L276.006 47.238H270.115L254.233 8.16305H254.223Z" fill="white"/>
<path d="M335.496 8.16305V14.2607H313.878V24.3432H333.035V30.4408H313.878V40.858H335.764V46.9556H307.162V8.16305H335.496Z" fill="white"/>
<path d="M369.505 8.16305C374.305 8.16305 378.074 9.60639 380.526 12.0434C382.544 14.1456 383.688 17.0323 383.688 20.4106V20.5256C383.688 26.8952 379.918 30.7232 374.573 32.2711L384.893 46.9556H376.983L367.589 33.4321H359.185V46.9556H352.47V8.16305H369.505ZM369.021 27.3972C373.821 27.3972 376.88 24.8452 376.88 20.9126V20.7976C376.88 16.6453 373.934 14.3653 368.97 14.3653H359.195V27.3868H369.021V27.3972Z" fill="white"/>
<path d="M398.107 41.3075L402.144 36.4336C405.801 39.6445 409.457 41.4749 414.205 41.4749C418.356 41.4749 420.972 39.5399 420.972 36.601V36.4859C420.972 33.7143 419.448 32.2186 412.351 30.5556C404.215 28.558 399.631 26.121 399.631 18.967V18.852C399.631 12.2 405.09 7.59806 412.681 7.59806C418.253 7.59806 422.671 9.31334 426.544 12.472L422.939 17.6283C419.499 15.024 416.059 13.6329 412.567 13.6329C408.633 13.6329 406.347 15.6829 406.347 18.2349V18.3499C406.347 21.3412 408.097 22.6695 415.41 24.4476C423.485 26.4452 427.687 29.3842 427.687 35.8061V35.9211C427.687 43.1797 422.064 47.5097 414.04 47.5097C408.2 47.5097 402.69 45.4598 398.107 41.2971V41.3075Z" fill="white"/>
<path d="M472.675 8.16305V14.2607H451.057V24.3432H470.214V30.4408H451.057V40.858H472.943V46.9556H444.341V8.16305H472.675Z" fill="white"/>
<path d="M48.3669 27.669V27.554C48.3669 16.6348 56.658 7.49356 68.3994 7.49356C80.1409 7.49356 88.3187 16.5302 88.3187 27.4494V27.5644C88.3187 38.4837 80.0276 47.6249 68.2861 47.6249C56.5447 47.6249 48.3669 38.5883 48.3669 27.669ZM81.2841 27.669V27.554C81.2841 20.013 75.8769 13.7481 68.2964 13.7481C60.716 13.7481 55.4118 19.898 55.4118 27.4389V27.554C55.4118 35.095 60.819 41.3599 68.3994 41.3599C75.9799 41.3599 81.2841 35.21 81.2841 27.669Z" fill="white"/>
<path d="M94.9396 5.29298L90.2713 0.552368L41.7603 49.8148L46.4286 54.5554L94.9396 5.29298Z" fill="white"/>
<path d="M533.797 46.8465H506.606V40.1043L518.986 29.5487C521.049 27.7802 522.578 26.1776 523.573 24.7407C524.567 23.267 525.065 21.7011 525.065 20.0432V19.4906C525.065 17.6484 524.549 16.2484 523.517 15.2904C522.486 14.3325 521.049 13.8536 519.207 13.8536C517.18 13.8536 515.633 14.4062 514.564 15.5115C513.496 16.6168 512.722 17.98 512.243 19.6011L505.943 17.2247C506.348 15.972 506.92 14.7746 507.656 13.6325C508.43 12.4535 509.37 11.4219 510.475 10.5377C511.617 9.65345 512.962 8.95343 514.509 8.43762C516.057 7.88498 517.825 7.60865 519.815 7.60865C521.878 7.60865 523.702 7.9034 525.286 8.49289C526.907 9.04554 528.27 9.83766 529.375 10.8693C530.481 11.864 531.31 13.0614 531.862 14.4615C532.452 15.8615 532.747 17.3905 532.747 19.0484C532.747 20.6327 532.489 22.088 531.973 23.4143C531.494 24.7407 530.812 26.0118 529.928 27.2276C529.044 28.4066 527.994 29.5487 526.778 30.654C525.599 31.7593 524.309 32.8646 522.909 33.9699L514.509 40.7674H533.797V46.8465Z" fill="white"/>
<path d="M565.165 14.572H547.481L546.541 27.5039H546.983C547.425 26.6934 547.904 25.9565 548.42 25.2933C548.936 24.5933 549.525 24.0038 550.189 23.5249C550.889 23.0459 551.662 22.6775 552.51 22.4196C553.394 22.1617 554.407 22.0327 555.549 22.0327C557.17 22.0327 558.699 22.309 560.136 22.8617C561.573 23.4143 562.826 24.2065 563.894 25.2381C564.963 26.2697 565.792 27.5408 566.381 29.0513C567.007 30.5619 567.321 32.2751 567.321 34.1909C567.321 36.1068 566.989 37.8753 566.326 39.4963C565.699 41.1174 564.76 42.5359 563.507 43.7517C562.292 44.9307 560.781 45.8518 558.976 46.515C557.207 47.1781 555.162 47.5097 552.841 47.5097C551.036 47.5097 549.415 47.3071 547.978 46.9018C546.578 46.5334 545.344 46.0176 544.275 45.3544C543.207 44.6912 542.267 43.9359 541.457 43.0886C540.646 42.2043 539.946 41.3017 539.357 40.3806L544.607 36.2357C545.049 36.9726 545.528 37.6726 546.044 38.3358C546.596 38.9621 547.204 39.5148 547.867 39.9937C548.531 40.4727 549.267 40.8595 550.078 41.1543C550.925 41.4122 551.883 41.5411 552.952 41.5411C555.162 41.5411 556.839 40.9516 557.981 39.7727C559.16 38.5568 559.749 36.8989 559.749 34.7989V34.3567C559.749 32.3304 559.16 30.7461 557.981 29.604C556.802 28.4618 555.144 27.8908 553.007 27.8908C551.386 27.8908 550.06 28.2039 549.028 28.8303C548.033 29.4198 547.223 30.0645 546.596 30.7645L540.683 29.9356L542.12 8.27183H565.165V14.572Z" fill="white"/>
</svg>
