<svg width="3030" height="500" viewBox="0 0 3030 500" fill="none" xmlns="http://www.w3.org/2000/svg">
<path d="M738.95 328.747V147.792H855.283C888.485 147.792 913.965 155.514 931.981 170.958C949.74 186.402 958.748 208.539 958.748 237.111C958.748 254.1 955.145 269.286 948.195 282.671C941.246 296.314 931.466 306.867 918.855 314.589C910.876 319.48 901.096 323.084 889.514 325.4C877.932 327.717 862.747 328.747 844.474 328.747H738.95ZM781.16 294.769H835.723C864.806 294.769 885.139 290.136 897.235 281.127C909.332 272.118 915.509 257.188 915.509 236.339C915.509 217.806 910.361 203.906 900.324 194.382C890.286 184.858 875.359 179.967 855.798 179.967H781.16V294.769ZM1061.18 328.747V147.792H1246.49L1226.67 178.68H1103.39V219.093H1186.78V249.981H1103.13V294.769H1228.22L1248.04 328.747H1061.18ZM1496.92 180.225H1383.41V294.769H1496.92V268.772L1539.13 268.514V286.018C1539.13 302.491 1536.04 313.817 1529.86 319.737C1523.68 325.658 1511.84 328.747 1494.34 328.747H1341.46V147.792H1494.34C1511.84 147.792 1523.68 150.881 1529.86 156.801C1536.04 162.979 1539.13 174.047 1539.13 190.521V204.935H1496.92V180.225ZM1641.56 328.747V147.792H1826.87L1807.05 178.68H1683.51V219.093H1767.16V249.981H1683.51V294.769H1808.6L1828.41 328.747H1641.56ZM1921.58 328.747V147.792H1950.41L2077.81 254.357C2082.19 257.961 2086.05 261.307 2089.39 264.396L2091.97 266.97C2094.28 269.286 2097.88 267.485 2097.88 264.396C2097.63 259.248 2097.37 255.129 2097.11 252.555C2096.86 248.437 2096.86 245.09 2096.86 242.774V147.792H2134.69V328.747H2105.61L1972.8 217.033C1969.71 214.202 1966.88 211.628 1964.31 209.311C1961.99 207.252 1958.39 208.796 1958.65 211.885C1958.9 213.945 1958.9 216.004 1959.16 218.063C1959.42 222.954 1959.67 227.33 1959.67 230.933V328.747H1921.58ZM2355.26 180.225V328.747H2313.05V180.225H2229.92V147.792H2438.39V180.225H2355.26ZM2534.39 328.747V147.792H2719.7L2699.88 178.68H2576.6V219.093H2660.25V249.981H2576.6V294.769H2701.68L2721.5 328.747H2534.39ZM2814.67 328.747V147.792H2969.35C2983.77 147.792 2994.06 150.623 3000.5 156.029C3006.93 161.692 3010.28 170.443 3010.28 182.799V225.27C3010.28 237.368 3006.93 246.377 3000.5 252.04C2994.06 257.703 2983.51 260.535 2969.35 260.535H2945.67L3029.32 328.747H2968.84L2896 260.535H2856.11V328.747H2814.67ZM2950.82 179.195H2856.11V229.646H2950.82C2958.03 229.646 2963.18 228.617 2965.75 226.557C2968.32 224.498 2969.87 220.637 2969.87 215.232V193.61C2969.87 188.462 2968.58 184.601 2965.75 182.541C2962.92 180.225 2958.03 179.195 2950.82 179.195Z" fill="white"/>
<path d="M250.268 361.197C308.177 361.197 355.791 315.379 358.623 257.978L403.663 258.235C400.832 340.347 333.143 405.985 250.268 405.985C176.917 405.985 115.662 353.217 100.476 285.263H146.804C160.702 325.933 201.882 361.197 250.268 361.197Z" fill="white"/>
<path d="M351.416 214.219C335.974 173.292 296.338 144.463 250.011 144.463C202.654 144.463 162.246 176.381 147.576 218.853C132.134 218.338 116.948 216.021 101.763 214.219C119.265 147.552 178.976 99.6748 250.011 99.6748C321.303 99.6748 381.271 148.324 398.516 214.219H351.416Z" fill="white"/>
<path d="M499.922 230.695C498.635 214.221 495.546 197.747 491.171 181.788C488.597 173.036 485.509 164.542 482.163 156.305C474.442 137.257 464.147 118.982 451.793 102.25C439.439 87.3209 427.599 72.6489 412.672 60.0362C397.487 46.9086 380.758 35.8402 362.741 26.8311C329.54 10.0999 292.736 0.833327 255.674 0.0611158C187.212 -1.48331 119.523 26.3163 71.6513 74.9656C44.1123 103.023 23.2651 137.515 11.4259 175.353L6.53569 191.055L78.8578 242.278H229.936L267.255 198.519H94.815L59.8121 173.551C82.2037 117.695 129.303 73.936 186.44 55.1455C246.666 35.3254 314.355 45.1067 366.602 81.1432C399.546 103.795 425.283 136.228 440.468 173.036C441.24 175.096 442.012 176.897 442.785 178.957C446.903 190.025 450.248 201.608 452.307 213.191C452.822 216.023 453.08 219.112 453.594 222.2L500.179 255.148C500.436 246.911 500.694 238.932 499.922 230.695ZM270.087 257.98L232.767 301.738H405.208L440.211 326.706C417.819 382.563 370.72 426.321 313.583 445.112C253.357 464.932 185.668 455.151 133.421 419.114C100.735 396.463 74.9972 364.545 59.8121 327.736C54.4073 314.866 50.5467 301.223 47.9729 287.324C47.2008 282.69 46.4287 278.314 45.914 273.681L0.358732 241.248C-0.156016 250.772 -0.156 260.039 0.616122 269.563C1.90299 285.779 4.73407 301.738 9.10943 317.44L9.8816 319.756C10.3963 321.043 10.6537 322.33 11.1685 323.875V324.132C11.6832 325.419 11.9406 326.964 12.4553 328.251C12.7127 329.023 12.9701 329.538 13.2274 330.31C14.7717 334.943 16.5733 339.319 18.3749 343.695C26.0961 362.743 36.3911 381.018 48.7451 397.75C61.099 412.679 72.9382 427.351 87.8659 439.964C103.051 453.091 119.78 464.16 137.796 473.169C170.998 489.9 207.802 499.167 244.864 499.939C313.325 501.483 381.015 473.684 428.886 425.034C456.425 396.977 477.273 362.485 489.112 324.647L494.002 308.945L421.68 257.722H270.087V257.98Z" fill="white"/>
</svg>
