<?xml version="1.0" encoding="UTF-8"?>
<!-- Generated by Pixelmator Pro 3.3.2 -->
<svg width="376" height="162" viewBox="0 0 376 162" xmlns="http://www.w3.org/2000/svg" xmlns:xlink="http://www.w3.org/1999/xlink">
    <linearGradient id="linearGradient1" x1="-0.881" y1="91.509" x2="56.467" y2="148.857" gradientUnits="userSpaceOnUse">
        <stop offset="1e-05" stop-color="#f47d51" stop-opacity="1"/>
        <stop offset="0.96" stop-color="#df72ac" stop-opacity="1"/>
    </linearGradient>
    <path id="Path" fill="url(#linearGradient1)" stroke="none" d="M 46.936001 120.263 L 46.936001 158.388 L 0.16 90.468002 L 46.936001 120.263 Z"/>
    <linearGradient id="linearGradient2" x1="56.33" y1="110.595" x2="75.548" y2="129.813" gradientUnits="userSpaceOnUse">
        <stop offset="1e-05" stop-color="#f15d4c" stop-opacity="1"/>
        <stop offset="1" stop-color="#c36ca1" stop-opacity="1"/>
    </linearGradient>
    <path id="path1" fill="url(#linearGradient2)" stroke="none" d="M 93.390999 90.468002 L 46.936001 158.388 L 46.936001 120.263 L 93.390999 90.468002 Z"/>
    <linearGradient id="linearGradient3" x1="37.754" y1="63.345" x2="70.457" y2="96.048" gradientUnits="userSpaceOnUse">
        <stop offset="1e-05" stop-color="#b46947" stop-opacity="1"/>
        <stop offset="0.896" stop-color="#ae5262" stop-opacity="1"/>
    </linearGradient>
    <path id="path2" fill="url(#linearGradient3)" stroke="none" d="M 93.390999 80.856003 L 46.936001 54.264999 L 46.936001 110.651001 L 93.390999 80.856003 Z"/>
    <linearGradient id="linearGradient4" x1="70.163" y1="-0.2" x2="70.163" y2="80.856" gradientUnits="userSpaceOnUse">
        <stop offset="1e-05" stop-color="#ffd663" stop-opacity="1"/>
        <stop offset="1" stop-color="#f26c7d" stop-opacity="1"/>
    </linearGradient>
    <path id="path3" fill="url(#linearGradient4)" stroke="none" d="M 93.390999 80.856003 L 46.936001 -0.199997 L 46.936001 54.264999 L 93.390999 80.856003 Z"/>
    <linearGradient id="linearGradient5" x1="14.978" y1="31.758" x2="42.21" y2="58.99" gradientUnits="userSpaceOnUse">
        <stop offset="1e-05" stop-color="#fff171" stop-opacity="1"/>
        <stop offset="1" stop-color="#fab382" stop-opacity="1"/>
    </linearGradient>
    <path id="path4" fill="url(#linearGradient5)" stroke="none" d="M 46.936001 -0.199997 L 46.936001 54.264999 L 0.16 80.856003 L 46.936001 -0.199997 Z"/>
    <linearGradient id="linearGradient6" x1="18.502" y1="62.515" x2="56.686" y2="100.699" gradientUnits="userSpaceOnUse">
        <stop offset="1e-05" stop-color="#d48a3d" stop-opacity="1"/>
        <stop offset="0.795" stop-color="#db474e" stop-opacity="1"/>
    </linearGradient>
    <path id="path5" fill="url(#linearGradient6)" stroke="none" d="M 46.936001 54.264999 L 46.936001 110.651001 L 0.16 80.856003 L 46.936001 54.264999 Z"/>
    <g id="Group">
        <path id="path6" fill="#30354b" stroke="none" d="M 116.478996 28.710007 C 116.478996 26.054001 117.023003 23.701004 118.111 21.651993 C 119.198997 19.604004 120.719002 18.020004 122.671997 16.899002 C 124.624001 15.779007 126.880997 15.218994 129.442001 15.218994 C 131.906006 15.218994 134.106995 15.794998 136.044006 16.947998 C 137.979996 18.100006 139.492996 19.716995 140.580994 21.796997 C 141.669006 23.878006 142.212997 26.246002 142.212997 28.903 L 142.212997 30.919006 L 123.344002 30.919006 C 123.440002 32.520004 124.047997 33.815994 125.168999 34.807999 C 126.289001 35.801003 127.761002 36.295998 129.585999 36.295998 C 130.865997 36.295998 132.050003 36.015999 133.139008 35.456001 C 134.227005 34.896004 135.410995 33.927994 136.692001 32.552002 L 140.964996 36.920998 C 139.492004 38.554001 137.796005 39.826004 135.876007 40.737999 C 133.955994 41.650002 131.858002 42.106003 129.585999 42.106003 C 126.992996 42.106003 124.705002 41.544998 122.720001 40.425003 C 120.735001 39.305 119.198997 37.729004 118.111 35.695999 C 117.023003 33.664001 116.478996 31.335007 116.478996 28.710007 Z M 135.300003 25.925003 C 135.171997 24.516998 134.556 23.348999 133.451004 22.419998 C 132.347 21.492004 131.009995 21.028 129.442001 21.028 C 127.809998 21.028 126.464996 21.475998 125.408997 22.371994 C 124.352997 23.268005 123.696999 24.453003 123.441002 25.925003 L 135.300003 25.925003 Z"/>
        <path id="path7" fill="#30354b" stroke="none" d="M 146.582001 28.662003 C 146.582001 26.037994 147.126007 23.709 148.214005 21.675995 C 149.302002 19.643997 150.830994 18.059006 152.798996 16.923004 C 154.766998 15.787003 157.016006 15.218002 159.544998 15.218002 C 162.522003 15.218002 165.082001 16.033997 167.227005 17.667007 C 169.371002 19.298996 170.828003 21.492004 171.595993 24.244995 L 164.970993 26.069 C 164.651001 24.660995 164.042007 23.548004 163.145996 22.731995 C 162.25 21.916 161.048996 21.507996 159.544998 21.507996 C 157.625 21.507996 156.128006 22.139999 155.056 23.404007 C 153.983002 24.669006 153.447998 26.421005 153.447998 28.660995 C 153.447998 30.901001 153.983994 32.654007 155.056 33.917999 C 156.128006 35.182999 157.625 35.814003 159.544998 35.814003 C 161.048996 35.814003 162.248993 35.405998 163.145996 34.590004 C 164.042007 33.774002 164.649994 32.662003 164.970993 31.253006 L 171.595993 33.076996 C 170.828003 35.830002 169.371002 38.022003 167.227005 39.654999 C 165.082001 41.287003 162.522003 42.104004 159.544998 42.104004 C 157.016006 42.104004 154.768005 41.535004 152.798996 40.399002 C 150.830002 39.263 149.300995 37.679001 148.214005 35.646004 C 147.126007 33.613998 146.582001 31.285004 146.582001 28.660004 Z"/>
        <path id="path8" fill="#30354b" stroke="none" d="M 175.725006 28.662003 C 175.725006 26.037994 176.268997 23.709 177.356995 21.675995 C 178.445007 19.643997 179.973999 18.059006 181.942001 16.923004 C 183.910004 15.787003 186.158997 15.218002 188.688004 15.218002 C 191.248001 15.218002 193.513 15.787003 195.481003 16.923004 C 197.449997 18.059006 198.977997 19.643997 200.065994 21.675995 C 201.154007 23.709 201.699005 26.037994 201.699005 28.662003 C 201.699005 31.285995 201.154007 33.615997 200.065994 35.648003 C 198.977997 37.681 197.449997 39.264999 195.481003 40.401001 C 193.511993 41.537003 191.248001 42.106003 188.688004 42.106003 C 186.158997 42.106003 183.910995 41.537003 181.942001 40.401001 C 179.973007 39.264999 178.444 37.681 177.356995 35.648003 C 176.268997 33.615997 175.725006 31.287003 175.725006 28.662003 Z M 194.832993 28.662003 C 194.832993 26.421997 194.296997 24.669006 193.225006 23.404999 C 192.153 22.141006 190.639999 21.509003 188.688004 21.509003 C 186.768005 21.509003 185.270996 22.141006 184.199005 23.404999 C 183.126007 24.669998 182.591003 26.421997 182.591003 28.662003 C 182.591003 30.901993 183.126999 32.654999 184.199005 33.919006 C 185.270996 35.183998 186.768005 35.815002 188.688004 35.815002 C 190.608002 35.815002 192.112 35.175003 193.201004 33.895004 C 194.289001 32.615005 194.832993 30.869995 194.832993 28.662003 Z"/>
        <path id="path9" fill="#30354b" stroke="none" d="M 205.539001 32.983002 L 211.781006 31.542999 C 212.227997 33.143997 213.037003 34.368004 214.205002 35.216003 C 215.373993 36.064003 216.852997 36.487999 218.645996 36.487999 C 220.246994 36.487999 221.470001 36.295998 222.319 35.912003 C 223.167007 35.528 223.591003 34.984001 223.591003 34.278999 C 223.591003 33.479996 223.158997 32.863007 222.294998 32.431 C 221.431 31.999008 219.845993 31.559006 217.541 31.111008 C 213.764999 30.406998 211.067001 29.429993 209.451004 28.182007 C 207.835007 26.932999 207.026001 25.222 207.026001 23.044998 C 207.026001 21.507996 207.473999 20.149002 208.371002 18.964005 C 209.266998 17.779999 210.522995 16.860001 212.139999 16.203003 C 213.755997 15.546997 215.604996 15.218994 217.686005 15.218994 C 220.535004 15.218994 223.063004 15.923996 225.272003 17.330994 C 227.479996 18.740005 228.968002 20.613007 229.737 22.949005 L 223.832001 24.869003 C 223.352005 23.589005 222.574997 22.597 221.503006 21.891998 C 220.431 21.188004 219.143005 20.835007 217.639008 20.835007 C 216.389999 20.835007 215.397995 21.035995 214.662003 21.436005 C 213.925003 21.835999 213.557999 22.389008 213.557999 23.091995 C 213.557999 23.733002 213.966003 24.253006 214.781998 24.653 C 215.598007 25.052994 217.078995 25.445007 219.223007 25.828995 C 223.128006 26.565002 225.921005 27.580994 227.600998 28.876999 C 229.281998 30.173004 230.121994 31.973999 230.121994 34.278 C 230.121994 35.847 229.649002 37.223 228.705994 38.406998 C 227.761993 39.592003 226.417007 40.503998 224.673004 41.142998 C 222.927994 41.783005 220.919998 42.103004 218.647995 42.103004 C 215.190994 42.103004 212.317993 41.303001 210.029999 39.703003 C 207.740997 38.101997 206.244995 35.862 205.541 32.981003 Z"/>
        <path id="path10" fill="#30354b" stroke="none" d="M 243.563995 40.376999 L 233.432999 15.938995 L 240.634995 15.938995 L 246.972 32.214996 L 247.069 32.214996 L 253.358002 15.938995 L 260.559998 15.938995 L 245.772003 52.188004 L 238.619003 52.188004 L 243.563995 40.376999 Z"/>
        <path id="path11" fill="#30354b" stroke="none" d="M 261.903015 32.983002 L 268.144989 31.542999 C 268.59201 33.143997 269.401001 34.368004 270.569 35.216003 C 271.738007 36.064003 273.21701 36.487999 275.01001 36.487999 C 276.610992 36.487999 277.834015 36.295998 278.683014 35.912003 C 279.531006 35.528 279.954987 34.984001 279.954987 34.278999 C 279.954987 33.479996 279.52301 32.863007 278.658997 32.431 C 277.795013 31.999008 276.209991 31.559006 273.904999 31.111008 C 270.128998 30.406998 267.431 29.429993 265.815002 28.182007 C 264.199005 26.932999 263.390015 25.222 263.390015 23.044998 C 263.390015 21.507996 263.838013 20.149002 264.734985 18.964005 C 265.631012 17.779999 266.886993 16.860001 268.503998 16.203003 C 270.119995 15.546997 271.968994 15.218994 274.049988 15.218994 C 276.898987 15.218994 279.427002 15.923996 281.635986 17.330994 C 283.843994 18.740005 285.332001 20.613007 286.101013 22.949005 L 280.196014 24.869003 C 279.716003 23.589005 278.938995 22.597 277.867004 21.891998 C 276.795013 21.188004 275.506989 20.835007 274.002991 20.835007 C 272.753998 20.835007 271.761993 21.035995 271.026001 21.436005 C 270.289001 21.835999 269.921997 22.389008 269.921997 23.091995 C 269.921997 23.733002 270.329987 24.253006 271.145996 24.653 C 271.962006 25.052994 273.442993 25.445007 275.587006 25.828995 C 279.492004 26.565002 282.285004 27.580994 283.964996 28.876999 C 285.645996 30.173004 286.485992 31.973999 286.485992 34.278 C 286.485992 35.847 286.013 37.223 285.070007 38.406998 C 284.126007 39.592003 282.781006 40.503998 281.036987 41.142998 C 279.291992 41.783005 277.283997 42.103004 275.011993 42.103004 C 271.554993 42.103004 268.682007 41.303001 266.394012 39.703003 C 264.105011 38.101997 262.609009 35.862 261.904999 32.981003 Z"/>
        <path id="path12" fill="#30354b" stroke="none" d="M 303.002014 22.084 L 303.002014 32.311005 C 303.002014 33.175003 303.200989 33.798996 303.60199 34.183998 C 304.002014 34.568001 304.665985 34.760002 305.595001 34.760002 L 311.404999 34.760002 L 311.404999 41.385002 L 304.971008 41.385002 C 302.153992 41.385002 299.97699 40.721001 298.44101 39.391998 C 296.904999 38.064003 296.135986 36.167999 296.135986 33.703003 L 296.135986 22.084 L 289.894989 22.084 L 289.894989 15.938004 L 296.135986 15.938004 L 296.135986 9.457001 L 303.002014 9.457001 L 303.002014 15.938004 L 312.988007 15.938004 L 312.988007 22.084 L 303.002014 22.084 Z"/>
        <path id="path13" fill="#30354b" stroke="none" d="M 317.596985 28.710007 C 317.596985 26.054001 318.140991 23.701004 319.230011 21.651993 C 320.316986 19.604004 321.838013 18.020004 323.790985 16.899002 C 325.743011 15.779007 328 15.218994 330.561005 15.218994 C 333.026001 15.218994 335.226013 15.794998 337.162994 16.947998 C 339.100006 18.100998 340.612 19.716995 341.700012 21.796997 C 342.787994 23.878006 343.333008 26.246002 343.333008 28.903 L 343.333008 30.919006 L 324.464996 30.919006 C 324.561005 32.520004 325.167999 33.815994 326.289001 34.807999 C 327.408997 35.801003 328.881989 36.295998 330.705994 36.295998 C 331.984985 36.295998 333.170013 36.015999 334.259003 35.456001 C 335.346985 34.896004 336.531006 33.927994 337.812012 32.552002 L 342.084991 36.920998 C 340.612 38.554001 338.915985 39.826004 336.994995 40.737999 C 335.075012 41.650002 332.977997 42.106003 330.705994 42.106003 C 328.113007 42.106003 325.824005 41.544998 323.839996 40.425003 C 321.855988 39.305 320.319 37.729004 319.231995 35.695999 C 318.143005 33.664001 317.598999 31.335007 317.598999 28.710007 Z M 336.416992 25.925003 C 336.289001 24.516998 335.673004 23.348999 334.569 22.419998 C 333.464996 21.492004 332.127991 21.028 330.55899 21.028 C 328.927002 21.028 327.582001 21.475998 326.527008 22.371994 C 325.470001 23.268005 324.813995 24.453003 324.558014 25.925003 L 336.415985 25.925003 Z"/>
        <path id="path14" fill="#30354b" stroke="none" d="M 347.938995 15.938995 L 353.988007 15.938995 L 353.988007 18.147003 L 354.084991 18.147003 C 354.628998 17.283005 355.324005 16.619003 356.173004 16.154007 C 357.020996 15.690994 357.957001 15.457993 358.981995 15.457993 C 360.998993 15.457993 362.61499 16.401993 363.832001 18.291 L 363.928009 18.291 C 365.208008 16.403 366.968994 15.457993 369.209015 15.457993 C 371.065002 15.457993 372.570007 16.113998 373.722992 17.425995 C 374.875 18.738998 375.451996 20.451004 375.451996 22.563004 L 375.451996 41.384003 L 369.114014 41.384003 L 369.114014 23.764999 C 369.114014 23.029007 368.921997 22.468994 368.537994 22.085007 C 368.153992 21.701004 367.609009 21.509003 366.904999 21.509003 C 366.233002 21.509003 365.696991 21.725006 365.296997 22.156998 C 364.897003 22.589005 364.696991 23.173996 364.696991 23.908997 L 364.696991 41.386002 L 358.695007 41.386002 L 358.695007 23.764999 C 358.695007 23.061005 358.51001 22.509995 358.143005 22.108994 C 357.774994 21.709 357.253998 21.509003 356.582001 21.509003 C 355.877991 21.509003 355.316986 21.725006 354.901001 22.156998 C 354.484985 22.589005 354.277008 23.173996 354.277008 23.908997 L 354.277008 41.386002 L 347.940002 41.386002 L 347.940002 15.938995 Z"/>
        <path id="path15" fill="#30354b" stroke="none" d="M 117.151001 84.983002 L 123.391998 83.542999 C 123.839996 85.145004 124.648003 86.368004 125.817001 87.216003 C 126.985001 88.065002 128.464996 88.488007 130.257996 88.488007 C 131.858002 88.488007 133.082993 88.297005 133.931 87.912003 C 134.779007 87.528 135.203003 86.984001 135.203003 86.280006 C 135.203003 85.480003 134.770996 84.863007 133.906998 84.431 C 133.042999 83.998001 131.459 83.559006 129.154007 83.111 C 125.376999 82.407005 122.68 81.43 121.064003 80.182007 C 119.447998 78.934006 118.639999 77.222 118.639999 75.045006 C 118.639999 73.508003 119.087997 72.149002 119.984001 70.964005 C 120.879997 69.780006 122.136002 68.860001 123.752998 68.203003 C 125.369003 67.547005 127.217003 67.219002 129.298004 67.219002 C 132.145996 67.219002 134.675003 67.924004 136.884003 69.331001 C 139.091995 70.740005 140.580994 72.613007 141.348999 74.949005 L 135.444 76.870003 C 134.964005 75.590004 134.186996 74.597 133.115005 73.893005 C 132.042007 73.189003 130.753998 72.836006 129.25 72.836006 C 128.001999 72.836006 127.009003 73.037003 126.273003 73.437004 C 125.536003 73.837006 125.168999 74.389999 125.168999 75.093002 C 125.168999 75.734001 125.577003 76.254005 126.392998 76.653 C 127.209 77.053001 128.688995 77.445 130.834 77.830002 C 134.738998 78.566002 137.531998 79.582001 139.212006 80.879005 C 140.891998 82.175003 141.733002 83.976006 141.733002 86.280006 C 141.733002 87.848 141.259995 89.225006 140.315994 90.409004 C 139.371994 91.594002 138.026993 92.506004 136.283005 93.145004 C 134.537994 93.785004 132.529999 94.105003 130.257004 94.105003 C 126.800003 94.105003 123.927002 93.306 121.639 91.705002 C 119.349998 90.105003 117.853996 87.864006 117.150002 84.983002 Z"/>
        <path id="path16" fill="#30354b" stroke="none" d="M 146.102005 84.743004 L 146.102005 67.939003 L 152.968002 67.939003 L 152.968002 83.159004 C 152.968002 86.264 154.503998 87.816002 157.576996 87.816002 C 158.953003 87.816002 160.050003 87.392006 160.865997 86.544006 C 161.682007 85.696007 162.089996 84.568001 162.089996 83.159004 L 162.089996 67.939003 L 168.955994 67.939003 L 168.955994 93.385002 L 162.378006 93.385002 L 162.378006 91.128006 L 162.281998 91.128006 C 161.576996 92.024002 160.608994 92.745003 159.376999 93.289001 C 158.143997 93.833 156.856003 94.104004 155.511993 94.104004 C 152.503006 94.104004 150.182999 93.281006 148.550995 91.632004 C 146.919006 89.983002 146.102005 87.687004 146.102005 84.741005 Z"/>
        <path id="path17" fill="#30354b" stroke="none" d="M 176.684998 67.939003 L 183.263 67.939003 L 183.263 70.147003 L 183.358994 70.147003 C 185.246994 68.195 187.632004 67.218002 190.513 67.218002 C 192.751999 67.218002 194.761993 67.778999 196.537994 68.898003 C 198.313995 70.019005 199.697998 71.595001 200.690002 73.627007 C 201.682007 75.660004 202.179001 78.004005 202.179001 80.660004 C 202.179001 83.222 201.682007 85.526001 200.690002 87.574005 C 199.697998 89.623001 198.304993 91.223 196.513 92.375999 C 194.720001 93.527 192.688004 94.104004 190.414993 94.104004 C 188.975006 94.104004 187.679001 93.880005 186.526001 93.432007 C 185.373993 92.985001 184.414001 92.375999 183.645004 91.608002 L 183.548996 91.608002 L 183.548996 104.186996 L 176.682999 104.186996 L 176.682999 67.938004 Z M 195.313004 80.662003 C 195.313004 78.486 194.768005 76.75 193.679993 75.453003 C 192.591995 74.157005 191.087997 73.509003 189.167007 73.509003 C 187.630997 73.509003 186.311005 74.046005 185.205994 75.117004 C 184.102005 76.190002 183.550003 77.494003 183.550003 79.030006 L 183.550003 82.342003 C 183.550003 83.303001 183.806 84.198006 184.317993 85.030006 C 184.830002 85.863007 185.542007 86.535004 186.453995 87.047005 C 187.367004 87.560005 188.382004 87.816002 189.503006 87.816002 C 191.294998 87.816002 192.712006 87.167999 193.751999 85.872002 C 194.792007 84.575005 195.313004 82.840004 195.313004 80.662003 Z"/>
        <path id="path18" fill="#30354b" stroke="none" d="M 206.787003 67.939003 L 213.365005 67.939003 L 213.365005 70.147003 L 213.460999 70.147003 C 215.350006 68.195 217.733994 67.218002 220.615005 67.218002 C 222.854004 67.218002 224.863998 67.778999 226.639999 68.898003 C 228.416 70.019005 229.800003 71.595001 230.792007 73.627007 C 231.783997 75.660004 232.281006 78.004005 232.281006 80.660004 C 232.281006 83.222 231.783997 85.526001 230.792007 87.574005 C 229.800003 89.623001 228.406998 91.223 226.615005 92.375999 C 224.822006 93.527 222.789993 94.104004 220.516998 94.104004 C 219.076996 94.104004 217.781006 93.880005 216.628006 93.432007 C 215.475998 92.985001 214.516006 92.375999 213.746994 91.608002 L 213.651001 91.608002 L 213.651001 104.186996 L 206.785004 104.186996 L 206.785004 67.938004 Z M 225.416 80.662003 C 225.416 78.486 224.871002 76.75 223.783005 75.453003 C 222.695007 74.157005 221.190994 73.509003 219.270004 73.509003 C 217.733994 73.509003 216.414001 74.046005 215.309006 75.117004 C 214.205002 76.190002 213.653 77.494003 213.653 79.030006 L 213.653 82.342003 C 213.653 83.303001 213.908997 84.198006 214.421005 85.030006 C 214.932999 85.863007 215.645996 86.535004 216.557999 87.047005 C 217.470001 87.560005 218.485992 87.816002 219.606995 87.816002 C 221.399002 87.816002 222.815994 87.167999 223.856003 85.872002 C 224.895996 84.575005 225.417007 82.840004 225.417007 80.662003 Z"/>
        <path id="path19" fill="#30354b" stroke="none" d="M 236.891006 80.662003 C 236.891006 78.038002 237.434998 75.710007 238.524002 73.677002 C 239.610992 71.645004 241.139999 70.060005 243.108994 68.924004 C 245.078003 67.788002 247.326004 67.219002 249.854004 67.219002 C 252.414993 67.219002 254.679001 67.788002 256.64801 68.924004 C 258.617004 70.060005 260.144989 71.645004 261.233002 73.677002 C 262.321014 75.710007 262.865997 78.038002 262.865997 80.662003 C 262.865997 83.286003 262.321014 85.616005 261.233002 87.648003 C 260.144989 89.681 258.617004 91.264999 256.64801 92.401001 C 254.679001 93.537003 252.414993 94.105003 249.854004 94.105003 C 247.326004 94.105003 245.078003 93.537003 243.108994 92.401001 C 241.139999 91.264999 239.610992 89.681 238.524002 87.648003 C 237.434998 85.616005 236.891006 83.287003 236.891006 80.662003 Z M 255.998993 80.662003 C 255.998993 78.423004 255.462997 76.670006 254.391006 75.405006 C 253.319 74.141006 251.806 73.509003 249.854004 73.509003 C 247.934006 73.509003 246.436996 74.141006 245.365997 75.405006 C 244.292999 76.670006 243.757996 78.423004 243.757996 80.662003 C 243.757996 82.901001 244.292999 84.656006 245.365997 85.920006 C 246.436996 87.185005 247.934006 87.816002 249.854004 87.816002 C 251.774002 87.816002 253.279007 87.176003 254.367996 85.895004 C 255.455994 84.616005 256 82.871002 256 80.662003 Z"/>
        <path id="path20" fill="#30354b" stroke="none" d="M 268.145996 67.939003 L 274.722992 67.939003 L 274.722992 70.292 L 274.819 70.292 C 275.907013 69.204002 277.036011 68.419006 278.20401 67.939003 C 279.372986 67.459 280.709015 67.219002 282.213989 67.219002 C 284.421997 67.219002 286.325989 67.867004 287.927002 69.163002 C 289.528015 70.459 290.64801 72.228004 291.287994 74.469002 L 284.854004 76.582001 C 284.117004 74.500999 282.596985 73.461006 280.291992 73.461006 C 278.562988 73.461006 277.251007 73.965004 276.355011 74.973 C 275.459015 75.981003 275.01001 77.366005 275.01001 79.125999 L 275.01001 93.386002 L 268.144989 93.386002 L 268.144989 67.940002 Z"/>
        <path id="path21" fill="#30354b" stroke="none" d="M 307.803009 74.084 L 307.803009 84.311005 C 307.803009 85.175003 308.002014 85.799004 308.403015 86.183006 C 308.803009 86.568001 309.46701 86.759003 310.395996 86.759003 L 316.205994 86.759003 L 316.205994 93.385002 L 309.772003 93.385002 C 306.954987 93.385002 304.778015 92.721001 303.242004 91.393005 C 301.705994 90.065002 300.937012 88.167999 300.937012 85.704002 L 300.937012 74.085007 L 294.696014 74.085007 L 294.696014 67.939003 L 300.937012 67.939003 L 300.937012 61.458 L 307.803009 61.458 L 307.803009 67.939003 L 317.789001 67.939003 L 317.789001 74.085007 L 307.803009 74.085007 Z"/>
        <path id="path22" fill="#30354b" stroke="none" d="M 117.439003 119.938995 L 124.016998 119.938995 L 124.016998 122.147995 L 124.112999 122.147995 C 126.000999 120.195999 128.386002 119.218002 131.266998 119.218002 C 133.507004 119.218002 135.516006 119.778992 137.292007 120.899002 C 139.069 122.020004 140.453003 123.595993 141.445007 125.628006 C 142.436996 127.660995 142.932999 130.005005 142.932999 132.660995 C 142.932999 135.223007 142.436005 137.527008 141.445007 139.574997 C 140.451996 141.624008 139.059998 143.223999 137.268005 144.376999 C 135.475006 145.528 133.442993 146.104996 131.171005 146.104996 C 129.731003 146.104996 128.434006 145.880997 127.281998 145.432999 C 126.129997 144.986008 125.169998 144.376999 124.401001 143.609009 L 124.305 143.609009 L 124.305 156.188004 L 117.439003 156.188004 L 117.439003 119.938995 Z M 136.067001 132.662003 C 136.067001 130.486008 135.522995 128.75 134.434998 127.453003 C 133.347 126.156998 131.841995 125.509003 129.921997 125.509003 C 128.386002 125.509003 127.066002 126.044998 125.960999 127.117004 C 124.857002 128.190002 124.305 129.494003 124.305 131.029999 L 124.305 134.34201 C 124.305 135.303009 124.560997 136.197998 125.072998 137.029999 C 125.584999 137.863007 126.296997 138.535004 127.209 139.046997 C 128.121994 139.559998 129.136993 139.81601 130.257996 139.81601 C 132.050003 139.81601 133.466003 139.167999 134.507004 137.872009 C 135.546997 136.574997 136.067993 134.839996 136.067993 132.662003 Z"/>
        <path id="path23" fill="#30354b" stroke="none" d="M 147.733994 119.938995 L 154.311996 119.938995 L 154.311996 122.291992 L 154.408005 122.291992 C 155.496002 121.203995 156.623993 120.419998 157.792999 119.938995 C 158.960999 119.459 160.296997 119.218002 161.802002 119.218002 C 164.009995 119.218002 165.914993 119.865997 167.514999 121.162994 C 169.115997 122.459 170.235001 124.227005 170.876007 126.468002 L 164.442001 128.581009 C 163.705994 126.5 162.186005 125.460007 159.880997 125.460007 C 158.151993 125.460007 156.839996 125.964005 155.944 126.972992 C 155.048004 127.981003 154.600006 129.365997 154.600006 131.125 L 154.600006 145.38501 L 147.733994 145.38501 L 147.733994 119.938995 Z"/>
        <path id="path24" fill="#30354b" stroke="none" d="M 173.804001 132.662003 C 173.804001 130.03801 174.348007 127.710007 175.436005 125.677002 C 176.524002 123.645004 178.052994 122.061005 180.020996 120.923996 C 181.988998 119.787994 184.238007 119.218994 186.766998 119.218994 C 189.326996 119.218994 191.591995 119.787994 193.561005 120.923996 C 195.529999 122.061005 197.057007 123.645004 198.145004 125.677002 C 199.233002 127.710007 199.778 130.03801 199.778 132.662003 C 199.778 135.285995 199.233002 137.615997 198.145004 139.64801 C 197.057007 141.681 195.529999 143.264999 193.561005 144.401001 C 191.591995 145.537003 189.326996 146.104996 186.766998 146.104996 C 184.238007 146.104996 181.990005 145.537003 180.020996 144.401001 C 178.052002 143.264999 176.522995 141.681 175.436005 139.64801 C 174.348007 137.615997 173.804001 135.287003 173.804001 132.662003 Z M 192.912994 132.662003 C 192.912994 130.423004 192.376007 128.669998 191.304001 127.404999 C 190.231995 126.141006 188.720001 125.509003 186.768005 125.509003 C 184.848007 125.509003 183.350998 126.141998 182.279007 127.404999 C 181.205994 128.669998 180.671005 130.423004 180.671005 132.662003 C 180.671005 134.901001 181.207001 136.656006 182.279007 137.919998 C 183.350998 139.184998 184.848007 139.81601 186.768005 139.81601 C 188.688004 139.81601 190.192993 139.17601 191.281006 137.895004 C 192.369003 136.615997 192.914001 134.871002 192.914001 132.662003 Z"/>
        <path id="path25" fill="#30354b" stroke="none" d="M 205.779007 151.050003 L 211.011993 147.06601 C 211.972 148.442001 212.940002 149.410004 213.916 149.970001 C 214.893005 150.529999 216.100998 150.811005 217.541 150.811005 C 219.334 150.811005 220.757996 150.314011 221.813995 149.322006 C 222.869995 148.330002 223.397995 146.95401 223.397995 145.193008 L 223.397995 143.369003 L 223.302002 143.369003 C 222.373001 144.32901 221.389008 145.025009 220.350006 145.458008 C 219.309006 145.889999 218.052002 146.104996 216.580002 146.104996 C 214.274994 146.104996 212.235001 145.537003 210.459 144.401001 C 208.682999 143.264999 207.306 141.681 206.330002 139.64801 C 205.352005 137.615997 204.865005 135.287003 204.865005 132.662003 C 204.865005 130.070007 205.369003 127.757996 206.378006 125.723999 C 207.386002 123.692001 208.778 122.098999 210.554993 120.947006 C 212.332001 119.794998 214.356003 119.218002 216.628006 119.218002 C 218.067993 119.218002 219.300995 119.427002 220.324997 119.843002 C 221.348999 120.259003 222.294006 120.899002 223.158005 121.763 L 223.253998 121.763 L 223.253998 119.938995 L 229.880005 119.938995 L 229.880005 145.481003 C 229.880005 147.721008 229.358994 149.707001 228.319 151.434998 C 227.278 153.164001 225.830002 154.507004 223.973007 155.46701 C 222.117004 156.428009 219.972 156.906998 217.539001 156.906998 C 212.546005 156.906998 208.625 154.955002 205.776001 151.050003 Z M 223.014999 134.294006 L 223.014999 130.98201 C 223.014999 129.318008 222.501999 127.988998 221.479004 126.996994 C 220.455002 126.005997 219.141998 125.509003 217.541 125.509003 C 215.748001 125.509003 214.332001 126.149994 213.292007 127.429993 C 212.251999 128.710007 211.731995 130.45401 211.731995 132.662003 C 211.731995 134.807999 212.259003 136.535995 213.315994 137.848007 C 214.373001 139.160995 215.764008 139.817001 217.492996 139.817001 C 218.453995 139.817001 219.356995 139.569 220.205994 139.072998 C 221.054001 138.576996 221.733994 137.904999 222.246002 137.056 C 222.757996 136.208008 223.014999 135.287003 223.014999 134.294998 Z"/>
        <path id="path26" fill="#30354b" stroke="none" d="M 237.082993 119.938995 L 243.660004 119.938995 L 243.660004 122.291992 L 243.755997 122.291992 C 244.843994 121.203995 245.973007 120.419998 247.141006 119.938995 C 248.309998 119.459 249.645996 119.218002 251.151001 119.218002 C 253.358994 119.218002 255.263 119.865997 256.864014 121.162994 C 258.464996 122.459 259.584991 124.227005 260.225006 126.468002 L 253.791 128.581009 C 253.054001 126.5 251.533997 125.460007 249.229004 125.460007 C 247.5 125.460007 246.188004 125.964005 245.292007 126.972992 C 244.395996 127.981003 243.947006 129.365997 243.947006 131.125 L 243.947006 145.38501 L 237.082001 145.38501 L 237.082001 119.938995 Z"/>
        <path id="path27" fill="#30354b" stroke="none" d="M 263.776001 138.568008 C 263.776001 136.199005 264.584991 134.359009 266.200989 133.046997 C 267.816986 131.735001 270.514008 130.775009 274.290985 130.166 C 276.274994 129.847 277.627991 129.486008 278.348999 129.085999 C 279.069 128.686005 279.428986 128.149002 279.428986 127.477997 C 279.428986 126.709 279.075989 126.102005 278.372009 125.653 C 277.667999 125.205994 276.708008 124.981003 275.492004 124.981003 C 274.11499 124.981003 272.923004 125.397995 271.915009 126.229004 C 270.906006 127.061996 270.259003 128.167007 269.971008 129.542007 L 263.584991 128.102005 C 263.903992 126.373001 264.625 124.837006 265.744995 123.492996 C 266.86499 122.149002 268.27301 121.100006 269.971008 120.347992 C 271.666992 119.595993 273.506989 119.218994 275.492004 119.218994 C 278.756989 119.218994 281.36499 120.132004 283.316986 121.955994 C 285.269012 123.779999 286.246002 126.212997 286.246002 129.253998 L 286.246002 145.386002 L 280.100006 145.386002 L 280.100006 142.553009 L 280.003998 142.553009 C 279.268005 143.673996 278.234985 144.546005 276.907013 145.169998 C 275.578003 145.794006 274.082001 146.106003 272.417999 146.106003 C 270.753998 146.106003 269.265015 145.785995 267.953003 145.145996 C 266.640015 144.505997 265.615997 143.610001 264.880005 142.458008 C 264.144012 141.306 263.776001 140.01001 263.776001 138.569 Z M 279.716003 135.927002 L 279.716003 133.046005 L 279.619995 133.046005 C 279.332001 133.525009 278.851013 133.910004 278.179993 134.197998 C 277.506989 134.486008 276.450989 134.774002 275.010986 135.061996 C 273.217987 135.445999 271.987 135.854004 271.313995 136.285995 C 270.641998 136.719009 270.306 137.318008 270.306 138.087006 C 270.306 138.822998 270.601013 139.382996 271.194 139.768005 C 271.786011 140.152008 272.641998 140.344009 273.763 140.344009 C 274.786011 140.344009 275.763 140.143997 276.691986 139.742996 C 277.619995 139.344009 278.355011 138.800003 278.899994 138.111008 C 279.444 137.423004 279.716003 136.694 279.716003 135.92601 Z"/>
        <path id="path28" fill="#30354b" stroke="none" d="M 292.535004 119.938995 L 298.584015 119.938995 L 298.584015 122.147995 L 298.681 122.147995 C 299.225006 121.283997 299.920013 120.619995 300.769012 120.154999 C 301.617004 119.690994 302.553009 119.459 303.578003 119.459 C 305.595001 119.459 307.210999 120.403 308.428009 122.291992 L 308.523987 122.291992 C 309.803986 120.403 311.565002 119.459 313.804993 119.459 C 315.661011 119.459 317.165985 120.115005 318.319 121.427994 C 319.471985 122.740997 320.048004 124.451996 320.048004 126.565994 L 320.048004 145.386002 L 313.709991 145.386002 L 313.709991 127.766006 C 313.709991 127.029999 313.518005 126.468994 313.134003 126.085007 C 312.75 125.701004 312.204987 125.509003 311.501007 125.509003 C 310.82901 125.509003 310.292999 125.725006 309.893005 126.156998 C 309.493011 126.589005 309.292999 127.173996 309.292999 127.908997 L 309.292999 145.386002 L 303.290985 145.386002 L 303.290985 127.766006 C 303.290985 127.061996 303.105988 126.509995 302.739014 126.110001 C 302.371002 125.710007 301.850006 125.509003 301.178009 125.509003 C 300.473999 125.509003 299.912994 125.725006 299.497009 126.156998 C 299.080994 126.589005 298.872986 127.173996 298.872986 127.908997 L 298.872986 145.386002 L 292.536011 145.386002 L 292.536011 119.940002 Z"/>
    </g>
    <mask id="mask1" maskUnits="userSpaceOnUse" maskContentUnits="userSpaceOnUse" mask-type="alpha">
        <g id="g1">
            <path id="path29" fill="#30354b" stroke="none" d="M 116.478996 28.710007 C 116.478996 26.054001 117.023003 23.701004 118.111 21.651993 C 119.198997 19.604004 120.719002 18.020004 122.671997 16.899002 C 124.624001 15.779007 126.880997 15.218994 129.442001 15.218994 C 131.906006 15.218994 134.106995 15.794998 136.044006 16.947998 C 137.979996 18.100006 139.492996 19.716995 140.580994 21.796997 C 141.669006 23.878006 142.212997 26.246002 142.212997 28.903 L 142.212997 30.919006 L 123.344002 30.919006 C 123.440002 32.520004 124.047997 33.815994 125.168999 34.807999 C 126.289001 35.801003 127.761002 36.295998 129.585999 36.295998 C 130.865997 36.295998 132.050003 36.015999 133.139008 35.456001 C 134.227005 34.896004 135.410995 33.927994 136.692001 32.552002 L 140.964996 36.920998 C 139.492004 38.554001 137.796005 39.826004 135.876007 40.737999 C 133.955994 41.650002 131.858002 42.106003 129.585999 42.106003 C 126.992996 42.106003 124.705002 41.544998 122.720001 40.425003 C 120.735001 39.305 119.198997 37.729004 118.111 35.695999 C 117.023003 33.664001 116.478996 31.335007 116.478996 28.710007 Z M 135.300003 25.925003 C 135.171997 24.516998 134.556 23.348999 133.451004 22.419998 C 132.347 21.492004 131.009995 21.028 129.442001 21.028 C 127.809998 21.028 126.464996 21.475998 125.408997 22.371994 C 124.352997 23.268005 123.696999 24.453003 123.441002 25.925003 L 135.300003 25.925003 Z"/>
            <path id="path30" fill="#30354b" stroke="none" d="M 146.582001 28.662003 C 146.582001 26.037994 147.126007 23.709 148.214005 21.675995 C 149.302002 19.643997 150.830994 18.059006 152.798996 16.923004 C 154.766998 15.787003 157.016006 15.218002 159.544998 15.218002 C 162.522003 15.218002 165.082001 16.033997 167.227005 17.667007 C 169.371002 19.298996 170.828003 21.492004 171.595993 24.244995 L 164.970993 26.069 C 164.651001 24.660995 164.042007 23.548004 163.145996 22.731995 C 162.25 21.916 161.048996 21.507996 159.544998 21.507996 C 157.625 21.507996 156.128006 22.139999 155.056 23.404007 C 153.983002 24.669006 153.447998 26.421005 153.447998 28.660995 C 153.447998 30.901001 153.983994 32.654007 155.056 33.917999 C 156.128006 35.182999 157.625 35.814003 159.544998 35.814003 C 161.048996 35.814003 162.248993 35.405998 163.145996 34.590004 C 164.042007 33.774002 164.649994 32.662003 164.970993 31.253006 L 171.595993 33.076996 C 170.828003 35.830002 169.371002 38.022003 167.227005 39.654999 C 165.082001 41.287003 162.522003 42.104004 159.544998 42.104004 C 157.016006 42.104004 154.768005 41.535004 152.798996 40.399002 C 150.830002 39.263 149.300995 37.679001 148.214005 35.646004 C 147.126007 33.613998 146.582001 31.285004 146.582001 28.660004 Z"/>
            <path id="path31" fill="#30354b" stroke="none" d="M 175.725006 28.662003 C 175.725006 26.037994 176.268997 23.709 177.356995 21.675995 C 178.445007 19.643997 179.973999 18.059006 181.942001 16.923004 C 183.910004 15.787003 186.158997 15.218002 188.688004 15.218002 C 191.248001 15.218002 193.513 15.787003 195.481003 16.923004 C 197.449997 18.059006 198.977997 19.643997 200.065994 21.675995 C 201.154007 23.709 201.699005 26.037994 201.699005 28.662003 C 201.699005 31.285995 201.154007 33.615997 200.065994 35.648003 C 198.977997 37.681 197.449997 39.264999 195.481003 40.401001 C 193.511993 41.537003 191.248001 42.106003 188.688004 42.106003 C 186.158997 42.106003 183.910995 41.537003 181.942001 40.401001 C 179.973007 39.264999 178.444 37.681 177.356995 35.648003 C 176.268997 33.615997 175.725006 31.287003 175.725006 28.662003 Z M 194.832993 28.662003 C 194.832993 26.421997 194.296997 24.669006 193.225006 23.404999 C 192.153 22.141006 190.639999 21.509003 188.688004 21.509003 C 186.768005 21.509003 185.270996 22.141006 184.199005 23.404999 C 183.126007 24.669998 182.591003 26.421997 182.591003 28.662003 C 182.591003 30.901993 183.126999 32.654999 184.199005 33.919006 C 185.270996 35.183998 186.768005 35.815002 188.688004 35.815002 C 190.608002 35.815002 192.112 35.175003 193.201004 33.895004 C 194.289001 32.615005 194.832993 30.869995 194.832993 28.662003 Z"/>
            <path id="path32" fill="#30354b" stroke="none" d="M 205.539001 32.983002 L 211.781006 31.542999 C 212.227997 33.143997 213.037003 34.368004 214.205002 35.216003 C 215.373993 36.064003 216.852997 36.487999 218.645996 36.487999 C 220.246994 36.487999 221.470001 36.295998 222.319 35.912003 C 223.167007 35.528 223.591003 34.984001 223.591003 34.278999 C 223.591003 33.479996 223.158997 32.863007 222.294998 32.431 C 221.431 31.999008 219.845993 31.559006 217.541 31.111008 C 213.764999 30.406998 211.067001 29.429993 209.451004 28.182007 C 207.835007 26.932999 207.026001 25.222 207.026001 23.044998 C 207.026001 21.507996 207.473999 20.149002 208.371002 18.964005 C 209.266998 17.779999 210.522995 16.860001 212.139999 16.203003 C 213.755997 15.546997 215.604996 15.218994 217.686005 15.218994 C 220.535004 15.218994 223.063004 15.923996 225.272003 17.330994 C 227.479996 18.740005 228.968002 20.613007 229.737 22.949005 L 223.832001 24.869003 C 223.352005 23.589005 222.574997 22.597 221.503006 21.891998 C 220.431 21.188004 219.143005 20.835007 217.639008 20.835007 C 216.389999 20.835007 215.397995 21.035995 214.662003 21.436005 C 213.925003 21.835999 213.557999 22.389008 213.557999 23.091995 C 213.557999 23.733002 213.966003 24.253006 214.781998 24.653 C 215.598007 25.052994 217.078995 25.445007 219.223007 25.828995 C 223.128006 26.565002 225.921005 27.580994 227.600998 28.876999 C 229.281998 30.173004 230.121994 31.973999 230.121994 34.278 C 230.121994 35.847 229.649002 37.223 228.705994 38.406998 C 227.761993 39.592003 226.417007 40.503998 224.673004 41.142998 C 222.927994 41.783005 220.919998 42.103004 218.647995 42.103004 C 215.190994 42.103004 212.317993 41.303001 210.029999 39.703003 C 207.740997 38.101997 206.244995 35.862 205.541 32.981003 Z"/>
            <path id="path33" fill="#30354b" stroke="none" d="M 243.563995 40.376999 L 233.432999 15.938995 L 240.634995 15.938995 L 246.972 32.214996 L 247.069 32.214996 L 253.358002 15.938995 L 260.559998 15.938995 L 245.772003 52.188004 L 238.619003 52.188004 L 243.563995 40.376999 Z"/>
            <path id="path34" fill="#30354b" stroke="none" d="M 261.903015 32.983002 L 268.144989 31.542999 C 268.59201 33.143997 269.401001 34.368004 270.569 35.216003 C 271.738007 36.064003 273.21701 36.487999 275.01001 36.487999 C 276.610992 36.487999 277.834015 36.295998 278.683014 35.912003 C 279.531006 35.528 279.954987 34.984001 279.954987 34.278999 C 279.954987 33.479996 279.52301 32.863007 278.658997 32.431 C 277.795013 31.999008 276.209991 31.559006 273.904999 31.111008 C 270.128998 30.406998 267.431 29.429993 265.815002 28.182007 C 264.199005 26.932999 263.390015 25.222 263.390015 23.044998 C 263.390015 21.507996 263.838013 20.149002 264.734985 18.964005 C 265.631012 17.779999 266.886993 16.860001 268.503998 16.203003 C 270.119995 15.546997 271.968994 15.218994 274.049988 15.218994 C 276.898987 15.218994 279.427002 15.923996 281.635986 17.330994 C 283.843994 18.740005 285.332001 20.613007 286.101013 22.949005 L 280.196014 24.869003 C 279.716003 23.589005 278.938995 22.597 277.867004 21.891998 C 276.795013 21.188004 275.506989 20.835007 274.002991 20.835007 C 272.753998 20.835007 271.761993 21.035995 271.026001 21.436005 C 270.289001 21.835999 269.921997 22.389008 269.921997 23.091995 C 269.921997 23.733002 270.329987 24.253006 271.145996 24.653 C 271.962006 25.052994 273.442993 25.445007 275.587006 25.828995 C 279.492004 26.565002 282.285004 27.580994 283.964996 28.876999 C 285.645996 30.173004 286.485992 31.973999 286.485992 34.278 C 286.485992 35.847 286.013 37.223 285.070007 38.406998 C 284.126007 39.592003 282.781006 40.503998 281.036987 41.142998 C 279.291992 41.783005 277.283997 42.103004 275.011993 42.103004 C 271.554993 42.103004 268.682007 41.303001 266.394012 39.703003 C 264.105011 38.101997 262.609009 35.862 261.904999 32.981003 Z"/>
            <path id="path35" fill="#30354b" stroke="none" d="M 303.002014 22.084 L 303.002014 32.311005 C 303.002014 33.175003 303.200989 33.798996 303.60199 34.183998 C 304.002014 34.568001 304.665985 34.760002 305.595001 34.760002 L 311.404999 34.760002 L 311.404999 41.385002 L 304.971008 41.385002 C 302.153992 41.385002 299.97699 40.721001 298.44101 39.391998 C 296.904999 38.064003 296.135986 36.167999 296.135986 33.703003 L 296.135986 22.084 L 289.894989 22.084 L 289.894989 15.938004 L 296.135986 15.938004 L 296.135986 9.457001 L 303.002014 9.457001 L 303.002014 15.938004 L 312.988007 15.938004 L 312.988007 22.084 L 303.002014 22.084 Z"/>
            <path id="path36" fill="#30354b" stroke="none" d="M 317.596985 28.710007 C 317.596985 26.054001 318.140991 23.701004 319.230011 21.651993 C 320.316986 19.604004 321.838013 18.020004 323.790985 16.899002 C 325.743011 15.779007 328 15.218994 330.561005 15.218994 C 333.026001 15.218994 335.226013 15.794998 337.162994 16.947998 C 339.100006 18.100998 340.612 19.716995 341.700012 21.796997 C 342.787994 23.878006 343.333008 26.246002 343.333008 28.903 L 343.333008 30.919006 L 324.464996 30.919006 C 324.561005 32.520004 325.167999 33.815994 326.289001 34.807999 C 327.408997 35.801003 328.881989 36.295998 330.705994 36.295998 C 331.984985 36.295998 333.170013 36.015999 334.259003 35.456001 C 335.346985 34.896004 336.531006 33.927994 337.812012 32.552002 L 342.084991 36.920998 C 340.612 38.554001 338.915985 39.826004 336.994995 40.737999 C 335.075012 41.650002 332.977997 42.106003 330.705994 42.106003 C 328.113007 42.106003 325.824005 41.544998 323.839996 40.425003 C 321.855988 39.305 320.319 37.729004 319.231995 35.695999 C 318.143005 33.664001 317.598999 31.335007 317.598999 28.710007 Z M 336.416992 25.925003 C 336.289001 24.516998 335.673004 23.348999 334.569 22.419998 C 333.464996 21.492004 332.127991 21.028 330.55899 21.028 C 328.927002 21.028 327.582001 21.475998 326.527008 22.371994 C 325.470001 23.268005 324.813995 24.453003 324.558014 25.925003 L 336.415985 25.925003 Z"/>
            <path id="path37" fill="#30354b" stroke="none" d="M 347.938995 15.938995 L 353.988007 15.938995 L 353.988007 18.147003 L 354.084991 18.147003 C 354.628998 17.283005 355.324005 16.619003 356.173004 16.154007 C 357.020996 15.690994 357.957001 15.457993 358.981995 15.457993 C 360.998993 15.457993 362.61499 16.401993 363.832001 18.291 L 363.928009 18.291 C 365.208008 16.403 366.968994 15.457993 369.209015 15.457993 C 371.065002 15.457993 372.570007 16.113998 373.722992 17.425995 C 374.875 18.738998 375.451996 20.451004 375.451996 22.563004 L 375.451996 41.384003 L 369.114014 41.384003 L 369.114014 23.764999 C 369.114014 23.029007 368.921997 22.468994 368.537994 22.085007 C 368.153992 21.701004 367.609009 21.509003 366.904999 21.509003 C 366.233002 21.509003 365.696991 21.725006 365.296997 22.156998 C 364.897003 22.589005 364.696991 23.173996 364.696991 23.908997 L 364.696991 41.386002 L 358.695007 41.386002 L 358.695007 23.764999 C 358.695007 23.061005 358.51001 22.509995 358.143005 22.108994 C 357.774994 21.709 357.253998 21.509003 356.582001 21.509003 C 355.877991 21.509003 355.316986 21.725006 354.901001 22.156998 C 354.484985 22.589005 354.277008 23.173996 354.277008 23.908997 L 354.277008 41.386002 L 347.940002 41.386002 L 347.940002 15.938995 Z"/>
            <path id="path38" fill="#30354b" stroke="none" d="M 117.151001 84.983002 L 123.391998 83.542999 C 123.839996 85.145004 124.648003 86.368004 125.817001 87.216003 C 126.985001 88.065002 128.464996 88.488007 130.257996 88.488007 C 131.858002 88.488007 133.082993 88.297005 133.931 87.912003 C 134.779007 87.528 135.203003 86.984001 135.203003 86.280006 C 135.203003 85.480003 134.770996 84.863007 133.906998 84.431 C 133.042999 83.998001 131.459 83.559006 129.154007 83.111 C 125.376999 82.407005 122.68 81.43 121.064003 80.182007 C 119.447998 78.934006 118.639999 77.222 118.639999 75.045006 C 118.639999 73.508003 119.087997 72.149002 119.984001 70.964005 C 120.879997 69.780006 122.136002 68.860001 123.752998 68.203003 C 125.369003 67.547005 127.217003 67.219002 129.298004 67.219002 C 132.145996 67.219002 134.675003 67.924004 136.884003 69.331001 C 139.091995 70.740005 140.580994 72.613007 141.348999 74.949005 L 135.444 76.870003 C 134.964005 75.590004 134.186996 74.597 133.115005 73.893005 C 132.042007 73.189003 130.753998 72.836006 129.25 72.836006 C 128.001999 72.836006 127.009003 73.037003 126.273003 73.437004 C 125.536003 73.837006 125.168999 74.389999 125.168999 75.093002 C 125.168999 75.734001 125.577003 76.254005 126.392998 76.653 C 127.209 77.053001 128.688995 77.445 130.834 77.830002 C 134.738998 78.566002 137.531998 79.582001 139.212006 80.879005 C 140.891998 82.175003 141.733002 83.976006 141.733002 86.280006 C 141.733002 87.848 141.259995 89.225006 140.315994 90.409004 C 139.371994 91.594002 138.026993 92.506004 136.283005 93.145004 C 134.537994 93.785004 132.529999 94.105003 130.257004 94.105003 C 126.800003 94.105003 123.927002 93.306 121.639 91.705002 C 119.349998 90.105003 117.853996 87.864006 117.150002 84.983002 Z"/>
            <path id="path39" fill="#30354b" stroke="none" d="M 146.102005 84.743004 L 146.102005 67.939003 L 152.968002 67.939003 L 152.968002 83.159004 C 152.968002 86.264 154.503998 87.816002 157.576996 87.816002 C 158.953003 87.816002 160.050003 87.392006 160.865997 86.544006 C 161.682007 85.696007 162.089996 84.568001 162.089996 83.159004 L 162.089996 67.939003 L 168.955994 67.939003 L 168.955994 93.385002 L 162.378006 93.385002 L 162.378006 91.128006 L 162.281998 91.128006 C 161.576996 92.024002 160.608994 92.745003 159.376999 93.289001 C 158.143997 93.833 156.856003 94.104004 155.511993 94.104004 C 152.503006 94.104004 150.182999 93.281006 148.550995 91.632004 C 146.919006 89.983002 146.102005 87.687004 146.102005 84.741005 Z"/>
            <path id="path40" fill="#30354b" stroke="none" d="M 176.684998 67.939003 L 183.263 67.939003 L 183.263 70.147003 L 183.358994 70.147003 C 185.246994 68.195 187.632004 67.218002 190.513 67.218002 C 192.751999 67.218002 194.761993 67.778999 196.537994 68.898003 C 198.313995 70.019005 199.697998 71.595001 200.690002 73.627007 C 201.682007 75.660004 202.179001 78.004005 202.179001 80.660004 C 202.179001 83.222 201.682007 85.526001 200.690002 87.574005 C 199.697998 89.623001 198.304993 91.223 196.513 92.375999 C 194.720001 93.527 192.688004 94.104004 190.414993 94.104004 C 188.975006 94.104004 187.679001 93.880005 186.526001 93.432007 C 185.373993 92.985001 184.414001 92.375999 183.645004 91.608002 L 183.548996 91.608002 L 183.548996 104.186996 L 176.682999 104.186996 L 176.682999 67.938004 Z M 195.313004 80.662003 C 195.313004 78.486 194.768005 76.75 193.679993 75.453003 C 192.591995 74.157005 191.087997 73.509003 189.167007 73.509003 C 187.630997 73.509003 186.311005 74.046005 185.205994 75.117004 C 184.102005 76.190002 183.550003 77.494003 183.550003 79.030006 L 183.550003 82.342003 C 183.550003 83.303001 183.806 84.198006 184.317993 85.030006 C 184.830002 85.863007 185.542007 86.535004 186.453995 87.047005 C 187.367004 87.560005 188.382004 87.816002 189.503006 87.816002 C 191.294998 87.816002 192.712006 87.167999 193.751999 85.872002 C 194.792007 84.575005 195.313004 82.840004 195.313004 80.662003 Z"/>
            <path id="path41" fill="#30354b" stroke="none" d="M 206.787003 67.939003 L 213.365005 67.939003 L 213.365005 70.147003 L 213.460999 70.147003 C 215.350006 68.195 217.733994 67.218002 220.615005 67.218002 C 222.854004 67.218002 224.863998 67.778999 226.639999 68.898003 C 228.416 70.019005 229.800003 71.595001 230.792007 73.627007 C 231.783997 75.660004 232.281006 78.004005 232.281006 80.660004 C 232.281006 83.222 231.783997 85.526001 230.792007 87.574005 C 229.800003 89.623001 228.406998 91.223 226.615005 92.375999 C 224.822006 93.527 222.789993 94.104004 220.516998 94.104004 C 219.076996 94.104004 217.781006 93.880005 216.628006 93.432007 C 215.475998 92.985001 214.516006 92.375999 213.746994 91.608002 L 213.651001 91.608002 L 213.651001 104.186996 L 206.785004 104.186996 L 206.785004 67.938004 Z M 225.416 80.662003 C 225.416 78.486 224.871002 76.75 223.783005 75.453003 C 222.695007 74.157005 221.190994 73.509003 219.270004 73.509003 C 217.733994 73.509003 216.414001 74.046005 215.309006 75.117004 C 214.205002 76.190002 213.653 77.494003 213.653 79.030006 L 213.653 82.342003 C 213.653 83.303001 213.908997 84.198006 214.421005 85.030006 C 214.932999 85.863007 215.645996 86.535004 216.557999 87.047005 C 217.470001 87.560005 218.485992 87.816002 219.606995 87.816002 C 221.399002 87.816002 222.815994 87.167999 223.856003 85.872002 C 224.895996 84.575005 225.417007 82.840004 225.417007 80.662003 Z"/>
            <path id="path42" fill="#30354b" stroke="none" d="M 236.891006 80.662003 C 236.891006 78.038002 237.434998 75.710007 238.524002 73.677002 C 239.610992 71.645004 241.139999 70.060005 243.108994 68.924004 C 245.078003 67.788002 247.326004 67.219002 249.854004 67.219002 C 252.414993 67.219002 254.679001 67.788002 256.64801 68.924004 C 258.617004 70.060005 260.144989 71.645004 261.233002 73.677002 C 262.321014 75.710007 262.865997 78.038002 262.865997 80.662003 C 262.865997 83.286003 262.321014 85.616005 261.233002 87.648003 C 260.144989 89.681 258.617004 91.264999 256.64801 92.401001 C 254.679001 93.537003 252.414993 94.105003 249.854004 94.105003 C 247.326004 94.105003 245.078003 93.537003 243.108994 92.401001 C 241.139999 91.264999 239.610992 89.681 238.524002 87.648003 C 237.434998 85.616005 236.891006 83.287003 236.891006 80.662003 Z M 255.998993 80.662003 C 255.998993 78.423004 255.462997 76.670006 254.391006 75.405006 C 253.319 74.141006 251.806 73.509003 249.854004 73.509003 C 247.934006 73.509003 246.436996 74.141006 245.365997 75.405006 C 244.292999 76.670006 243.757996 78.423004 243.757996 80.662003 C 243.757996 82.901001 244.292999 84.656006 245.365997 85.920006 C 246.436996 87.185005 247.934006 87.816002 249.854004 87.816002 C 251.774002 87.816002 253.279007 87.176003 254.367996 85.895004 C 255.455994 84.616005 256 82.871002 256 80.662003 Z"/>
            <path id="path43" fill="#30354b" stroke="none" d="M 268.145996 67.939003 L 274.722992 67.939003 L 274.722992 70.292 L 274.819 70.292 C 275.907013 69.204002 277.036011 68.419006 278.20401 67.939003 C 279.372986 67.459 280.709015 67.219002 282.213989 67.219002 C 284.421997 67.219002 286.325989 67.867004 287.927002 69.163002 C 289.528015 70.459 290.64801 72.228004 291.287994 74.469002 L 284.854004 76.582001 C 284.117004 74.500999 282.596985 73.461006 280.291992 73.461006 C 278.562988 73.461006 277.251007 73.965004 276.355011 74.973 C 275.459015 75.981003 275.01001 77.366005 275.01001 79.125999 L 275.01001 93.386002 L 268.144989 93.386002 L 268.144989 67.940002 Z"/>
            <path id="path44" fill="#30354b" stroke="none" d="M 307.803009 74.084 L 307.803009 84.311005 C 307.803009 85.175003 308.002014 85.799004 308.403015 86.183006 C 308.803009 86.568001 309.46701 86.759003 310.395996 86.759003 L 316.205994 86.759003 L 316.205994 93.385002 L 309.772003 93.385002 C 306.954987 93.385002 304.778015 92.721001 303.242004 91.393005 C 301.705994 90.065002 300.937012 88.167999 300.937012 85.704002 L 300.937012 74.085007 L 294.696014 74.085007 L 294.696014 67.939003 L 300.937012 67.939003 L 300.937012 61.458 L 307.803009 61.458 L 307.803009 67.939003 L 317.789001 67.939003 L 317.789001 74.085007 L 307.803009 74.085007 Z"/>
            <path id="path45" fill="#30354b" stroke="none" d="M 117.439003 119.938995 L 124.016998 119.938995 L 124.016998 122.147995 L 124.112999 122.147995 C 126.000999 120.195999 128.386002 119.218002 131.266998 119.218002 C 133.507004 119.218002 135.516006 119.778992 137.292007 120.899002 C 139.069 122.020004 140.453003 123.595993 141.445007 125.628006 C 142.436996 127.660995 142.932999 130.005005 142.932999 132.660995 C 142.932999 135.223007 142.436005 137.527008 141.445007 139.574997 C 140.451996 141.624008 139.059998 143.223999 137.268005 144.376999 C 135.475006 145.528 133.442993 146.104996 131.171005 146.104996 C 129.731003 146.104996 128.434006 145.880997 127.281998 145.432999 C 126.129997 144.986008 125.169998 144.376999 124.401001 143.609009 L 124.305 143.609009 L 124.305 156.188004 L 117.439003 156.188004 L 117.439003 119.938995 Z M 136.067001 132.662003 C 136.067001 130.486008 135.522995 128.75 134.434998 127.453003 C 133.347 126.156998 131.841995 125.509003 129.921997 125.509003 C 128.386002 125.509003 127.066002 126.044998 125.960999 127.117004 C 124.857002 128.190002 124.305 129.494003 124.305 131.029999 L 124.305 134.34201 C 124.305 135.303009 124.560997 136.197998 125.072998 137.029999 C 125.584999 137.863007 126.296997 138.535004 127.209 139.046997 C 128.121994 139.559998 129.136993 139.81601 130.257996 139.81601 C 132.050003 139.81601 133.466003 139.167999 134.507004 137.872009 C 135.546997 136.574997 136.067993 134.839996 136.067993 132.662003 Z"/>
            <path id="path46" fill="#30354b" stroke="none" d="M 147.733994 119.938995 L 154.311996 119.938995 L 154.311996 122.291992 L 154.408005 122.291992 C 155.496002 121.203995 156.623993 120.419998 157.792999 119.938995 C 158.960999 119.459 160.296997 119.218002 161.802002 119.218002 C 164.009995 119.218002 165.914993 119.865997 167.514999 121.162994 C 169.115997 122.459 170.235001 124.227005 170.876007 126.468002 L 164.442001 128.581009 C 163.705994 126.5 162.186005 125.460007 159.880997 125.460007 C 158.151993 125.460007 156.839996 125.964005 155.944 126.972992 C 155.048004 127.981003 154.600006 129.365997 154.600006 131.125 L 154.600006 145.38501 L 147.733994 145.38501 L 147.733994 119.938995 Z"/>
            <path id="path47" fill="#30354b" stroke="none" d="M 173.804001 132.662003 C 173.804001 130.03801 174.348007 127.710007 175.436005 125.677002 C 176.524002 123.645004 178.052994 122.061005 180.020996 120.923996 C 181.988998 119.787994 184.238007 119.218994 186.766998 119.218994 C 189.326996 119.218994 191.591995 119.787994 193.561005 120.923996 C 195.529999 122.061005 197.057007 123.645004 198.145004 125.677002 C 199.233002 127.710007 199.778 130.03801 199.778 132.662003 C 199.778 135.285995 199.233002 137.615997 198.145004 139.64801 C 197.057007 141.681 195.529999 143.264999 193.561005 144.401001 C 191.591995 145.537003 189.326996 146.104996 186.766998 146.104996 C 184.238007 146.104996 181.990005 145.537003 180.020996 144.401001 C 178.052002 143.264999 176.522995 141.681 175.436005 139.64801 C 174.348007 137.615997 173.804001 135.287003 173.804001 132.662003 Z M 192.912994 132.662003 C 192.912994 130.423004 192.376007 128.669998 191.304001 127.404999 C 190.231995 126.141006 188.720001 125.509003 186.768005 125.509003 C 184.848007 125.509003 183.350998 126.141998 182.279007 127.404999 C 181.205994 128.669998 180.671005 130.423004 180.671005 132.662003 C 180.671005 134.901001 181.207001 136.656006 182.279007 137.919998 C 183.350998 139.184998 184.848007 139.81601 186.768005 139.81601 C 188.688004 139.81601 190.192993 139.17601 191.281006 137.895004 C 192.369003 136.615997 192.914001 134.871002 192.914001 132.662003 Z"/>
            <path id="path48" fill="#30354b" stroke="none" d="M 205.779007 151.050003 L 211.011993 147.06601 C 211.972 148.442001 212.940002 149.410004 213.916 149.970001 C 214.893005 150.529999 216.100998 150.811005 217.541 150.811005 C 219.334 150.811005 220.757996 150.314011 221.813995 149.322006 C 222.869995 148.330002 223.397995 146.95401 223.397995 145.193008 L 223.397995 143.369003 L 223.302002 143.369003 C 222.373001 144.32901 221.389008 145.025009 220.350006 145.458008 C 219.309006 145.889999 218.052002 146.104996 216.580002 146.104996 C 214.274994 146.104996 212.235001 145.537003 210.459 144.401001 C 208.682999 143.264999 207.306 141.681 206.330002 139.64801 C 205.352005 137.615997 204.865005 135.287003 204.865005 132.662003 C 204.865005 130.070007 205.369003 127.757996 206.378006 125.723999 C 207.386002 123.692001 208.778 122.098999 210.554993 120.947006 C 212.332001 119.794998 214.356003 119.218002 216.628006 119.218002 C 218.067993 119.218002 219.300995 119.427002 220.324997 119.843002 C 221.348999 120.259003 222.294006 120.899002 223.158005 121.763 L 223.253998 121.763 L 223.253998 119.938995 L 229.880005 119.938995 L 229.880005 145.481003 C 229.880005 147.721008 229.358994 149.707001 228.319 151.434998 C 227.278 153.164001 225.830002 154.507004 223.973007 155.46701 C 222.117004 156.428009 219.972 156.906998 217.539001 156.906998 C 212.546005 156.906998 208.625 154.955002 205.776001 151.050003 Z M 223.014999 134.294006 L 223.014999 130.98201 C 223.014999 129.318008 222.501999 127.988998 221.479004 126.996994 C 220.455002 126.005997 219.141998 125.509003 217.541 125.509003 C 215.748001 125.509003 214.332001 126.149994 213.292007 127.429993 C 212.251999 128.710007 211.731995 130.45401 211.731995 132.662003 C 211.731995 134.807999 212.259003 136.535995 213.315994 137.848007 C 214.373001 139.160995 215.764008 139.817001 217.492996 139.817001 C 218.453995 139.817001 219.356995 139.569 220.205994 139.072998 C 221.054001 138.576996 221.733994 137.904999 222.246002 137.056 C 222.757996 136.208008 223.014999 135.287003 223.014999 134.294998 Z"/>
            <path id="path49" fill="#30354b" stroke="none" d="M 237.082993 119.938995 L 243.660004 119.938995 L 243.660004 122.291992 L 243.755997 122.291992 C 244.843994 121.203995 245.973007 120.419998 247.141006 119.938995 C 248.309998 119.459 249.645996 119.218002 251.151001 119.218002 C 253.358994 119.218002 255.263 119.865997 256.864014 121.162994 C 258.464996 122.459 259.584991 124.227005 260.225006 126.468002 L 253.791 128.581009 C 253.054001 126.5 251.533997 125.460007 249.229004 125.460007 C 247.5 125.460007 246.188004 125.964005 245.292007 126.972992 C 244.395996 127.981003 243.947006 129.365997 243.947006 131.125 L 243.947006 145.38501 L 237.082001 145.38501 L 237.082001 119.938995 Z"/>
            <path id="path50" fill="#30354b" stroke="none" d="M 263.776001 138.568008 C 263.776001 136.199005 264.584991 134.359009 266.200989 133.046997 C 267.816986 131.735001 270.514008 130.775009 274.290985 130.166 C 276.274994 129.847 277.627991 129.486008 278.348999 129.085999 C 279.069 128.686005 279.428986 128.149002 279.428986 127.477997 C 279.428986 126.709 279.075989 126.102005 278.372009 125.653 C 277.667999 125.205994 276.708008 124.981003 275.492004 124.981003 C 274.11499 124.981003 272.923004 125.397995 271.915009 126.229004 C 270.906006 127.061996 270.259003 128.167007 269.971008 129.542007 L 263.584991 128.102005 C 263.903992 126.373001 264.625 124.837006 265.744995 123.492996 C 266.86499 122.149002 268.27301 121.100006 269.971008 120.347992 C 271.666992 119.595993 273.506989 119.218994 275.492004 119.218994 C 278.756989 119.218994 281.36499 120.132004 283.316986 121.955994 C 285.269012 123.779999 286.246002 126.212997 286.246002 129.253998 L 286.246002 145.386002 L 280.100006 145.386002 L 280.100006 142.553009 L 280.003998 142.553009 C 279.268005 143.673996 278.234985 144.546005 276.907013 145.169998 C 275.578003 145.794006 274.082001 146.106003 272.417999 146.106003 C 270.753998 146.106003 269.265015 145.785995 267.953003 145.145996 C 266.640015 144.505997 265.615997 143.610001 264.880005 142.458008 C 264.144012 141.306 263.776001 140.01001 263.776001 138.569 Z M 279.716003 135.927002 L 279.716003 133.046005 L 279.619995 133.046005 C 279.332001 133.525009 278.851013 133.910004 278.179993 134.197998 C 277.506989 134.486008 276.450989 134.774002 275.010986 135.061996 C 273.217987 135.445999 271.987 135.854004 271.313995 136.285995 C 270.641998 136.719009 270.306 137.318008 270.306 138.087006 C 270.306 138.822998 270.601013 139.382996 271.194 139.768005 C 271.786011 140.152008 272.641998 140.344009 273.763 140.344009 C 274.786011 140.344009 275.763 140.143997 276.691986 139.742996 C 277.619995 139.344009 278.355011 138.800003 278.899994 138.111008 C 279.444 137.423004 279.716003 136.694 279.716003 135.92601 Z"/>
            <path id="path51" fill="#30354b" stroke="none" d="M 292.535004 119.938995 L 298.584015 119.938995 L 298.584015 122.147995 L 298.681 122.147995 C 299.225006 121.283997 299.920013 120.619995 300.769012 120.154999 C 301.617004 119.690994 302.553009 119.459 303.578003 119.459 C 305.595001 119.459 307.210999 120.403 308.428009 122.291992 L 308.523987 122.291992 C 309.803986 120.403 311.565002 119.459 313.804993 119.459 C 315.661011 119.459 317.165985 120.115005 318.319 121.427994 C 319.471985 122.740997 320.048004 124.451996 320.048004 126.565994 L 320.048004 145.386002 L 313.709991 145.386002 L 313.709991 127.766006 C 313.709991 127.029999 313.518005 126.468994 313.134003 126.085007 C 312.75 125.701004 312.204987 125.509003 311.501007 125.509003 C 310.82901 125.509003 310.292999 125.725006 309.893005 126.156998 C 309.493011 126.589005 309.292999 127.173996 309.292999 127.908997 L 309.292999 145.386002 L 303.290985 145.386002 L 303.290985 127.766006 C 303.290985 127.061996 303.105988 126.509995 302.739014 126.110001 C 302.371002 125.710007 301.850006 125.509003 301.178009 125.509003 C 300.473999 125.509003 299.912994 125.725006 299.497009 126.156998 C 299.080994 126.589005 298.872986 127.173996 298.872986 127.908997 L 298.872986 145.386002 L 292.536011 145.386002 L 292.536011 119.940002 Z"/>
        </g>
    </mask>
    <g id="Untitled-layer" mask="url(#mask1)">
        <path id="Rectangle" fill="#ffffff" fill-rule="evenodd" stroke="none" d="M 116 262 L 482 262 L 482 0 L 116 0 Z"/>
    </g>
</svg>
