<svg width="858" height="421" viewBox="0 0 858 421" fill="none" xmlns="http://www.w3.org/2000/svg">
<path d="M353.865 229.013H387.393V247.453H334.705V163.632H386.795V182.072H353.865V195.963H383.801V214.164H353.865V229.013ZM454.484 163.632V182.072H432.929V247.453H413.77V182.072H392.216V163.632H454.484ZM508.374 163.632H527.533V247.453H508.374V214.164H482.03V247.453H462.87V163.632H482.03V195.723H508.374V163.632ZM595.208 247.453L591.017 234.281H559.883L555.692 247.453H534.736L563.236 163.632H587.664L616.163 247.453H595.208ZM565.631 216.32H585.269L575.45 185.545L565.631 216.32ZM649.696 249.13C640.596 249.13 633.012 246.096 626.945 240.029C620.958 233.962 617.964 226.458 617.964 217.517C617.964 208.576 620.958 201.072 626.945 195.005C633.012 188.938 640.596 185.904 649.696 185.904C655.444 185.904 660.713 187.301 665.503 190.095C670.372 192.889 674.124 196.602 676.759 201.232L661.072 210.332C658.917 205.862 655.045 203.627 649.457 203.627C645.545 203.627 642.312 204.944 639.758 207.578C637.203 210.133 635.926 213.446 635.926 217.517C635.926 221.588 637.203 224.941 639.758 227.576C642.312 230.13 645.545 231.408 649.457 231.408C655.125 231.408 658.997 229.172 661.072 224.702L676.759 233.683C674.124 238.393 670.412 242.145 665.623 244.939C660.833 247.733 655.524 249.13 649.696 249.13ZM711.557 249.13C702.456 249.13 694.872 246.096 688.805 240.029C682.818 233.962 679.824 226.458 679.824 217.517C679.824 208.576 682.818 201.072 688.805 195.005C694.872 188.938 702.456 185.904 711.557 185.904C717.305 185.904 722.574 187.301 727.363 190.095C732.233 192.889 735.985 196.602 738.619 201.232L722.933 210.332C720.777 205.862 716.906 203.627 711.317 203.627C707.406 203.627 704.173 204.944 701.618 207.578C699.064 210.133 697.786 213.446 697.786 217.517C697.786 221.588 699.064 224.941 701.618 227.576C704.173 230.13 707.406 231.408 711.317 231.408C716.985 231.408 720.857 229.172 722.933 224.702L738.619 233.683C735.985 238.393 732.273 242.145 727.483 244.939C722.693 247.733 717.385 249.13 711.557 249.13ZM764.395 198.238C765.512 194.406 767.747 191.492 771.1 189.497C774.533 187.421 778.285 186.383 782.356 186.383V206.74C777.966 206.022 773.854 206.78 770.023 209.015C766.271 211.171 764.395 214.962 764.395 220.391V247.453H746.433V187.581H764.395V198.238ZM832.466 187.581H850.428V247.453H832.466V241.825C828.235 246.695 822.288 249.13 814.624 249.13C806.721 249.13 799.975 246.096 794.387 240.029C788.799 233.882 786.005 226.378 786.005 217.517C786.005 208.656 788.799 201.192 794.387 195.125C799.975 188.978 806.721 185.904 814.624 185.904C822.288 185.904 828.235 188.339 832.466 193.209V187.581ZM807.918 228.174C810.553 230.809 813.985 232.126 818.216 232.126C822.447 232.126 825.88 230.809 828.514 228.174C831.149 225.54 832.466 221.988 832.466 217.517C832.466 213.047 831.149 209.494 828.514 206.86C825.88 204.225 822.447 202.908 818.216 202.908C813.985 202.908 810.553 204.225 807.918 206.86C805.284 209.494 803.967 213.047 803.967 217.517C803.967 221.988 805.284 225.54 807.918 228.174Z" fill="white"/>
<path d="M210.572 81.7906C215.234 81.6705 219.661 79.7188 222.894 76.3582C226.127 72.9976 227.906 68.4987 227.846 63.8358C227.786 59.1729 225.891 54.7213 222.573 51.4452C219.254 48.169 214.779 46.332 210.115 46.332C205.452 46.332 200.976 48.169 197.658 51.4452C194.339 54.7213 192.445 59.1729 192.385 63.8358C192.324 68.4987 194.104 72.9976 197.337 76.3582C200.57 79.7188 204.997 81.6705 209.658 81.7906H145.859L210.111 193.066L242.217 137.428L274.323 81.7906H210.572ZM227.86 136.51H192.379V101.042H227.852L227.86 136.51ZM242.266 282.801L210.161 227.164L177.993 282.801L145.887 338.443H192.4V373.908H227.868V338.443H274.38L242.266 282.801ZM210.161 315.039C206.652 315.04 203.223 314 200.305 312.051C197.388 310.103 195.114 307.333 193.771 304.092C192.428 300.851 192.076 297.284 192.761 293.843C193.445 290.402 195.134 287.242 197.615 284.761C200.096 282.28 203.256 280.591 206.697 279.907C210.138 279.222 213.705 279.574 216.946 280.917C220.187 282.26 222.957 284.534 224.905 287.451C226.854 290.369 227.894 293.798 227.893 297.307C227.892 299.638 227.432 301.947 226.538 304.101C225.644 306.255 224.334 308.211 222.683 309.859C221.033 311.506 219.073 312.811 216.917 313.7C214.761 314.589 212.451 315.044 210.119 315.039H210.161ZM112.646 211.782C112.646 174.638 133.531 142.281 164.175 125.841L156.931 113.3C139.323 122.85 124.597 136.946 114.287 154.12C103.977 171.294 98.4606 190.919 98.3114 210.949C98.1622 230.98 103.386 250.684 113.439 268.01C123.492 285.336 138.006 299.65 155.47 309.461L162.71 296.92C132.868 280.245 112.646 248.329 112.646 211.782ZM289.227 132.674C281.564 124.998 272.83 118.472 263.296 113.3L256.051 125.841C286.696 142.281 307.581 174.638 307.581 211.782C307.581 248.329 287.358 280.245 257.517 296.924L264.753 309.461C279.838 301.013 292.761 289.184 302.508 274.903C312.255 260.621 318.56 244.276 320.931 227.149C323.301 210.022 321.671 192.579 316.169 176.188C310.667 159.796 301.443 144.902 289.219 132.674H289.227Z" fill="white"/>
<path d="M251.005 195.064H169.235L170.988 191.956L210.12 122.629L249.248 191.956L251.005 195.064Z" fill="#C91422"/>
<path d="M190.576 243.675L199.973 249.726H176.618L172.601 243.675L159.178 223.473L190.576 243.675ZM220.266 249.726H243.621L247.638 243.675L261.061 223.473L229.679 243.675L220.266 249.726ZM251.005 195.064L249.247 191.956H170.988L169.234 195.064L159.174 212.883L207.526 243.675L210.12 245.322L212.713 243.675L261.061 212.895L251.005 195.064Z" fill="#FDCA1B"/>
<path d="M210.12 245.323L207.527 243.676H212.713L210.12 245.323ZM229.68 243.676L220.279 249.727L210.132 256.255L199.99 249.727L190.577 243.676H172.602L176.619 249.727L210.12 300.15L243.621 249.727L247.639 243.676H229.68Z" fill="#016C34"/>
<path d="M210.12 246.466L157.874 213.216L210.12 120.649L262.362 213.216L210.12 246.466ZM160.475 212.558L210.12 244.157L259.76 212.558L210.12 124.609L160.475 212.558Z" fill="black"/>
<path d="M210.12 301.894L155.787 220.123L210.12 255.085L264.452 220.123L210.12 301.894ZM162.562 226.799L210.12 298.379L257.669 226.799L210.12 257.399L162.562 226.799Z" fill="black"/>
<path d="M216.566 215.107L220.546 227.365L210.116 219.791L199.685 227.365L203.67 215.107L193.24 207.529H206.131L210.116 195.263L214.1 207.529H226.996L216.566 215.107Z" fill="black"/>
</svg>
