<svg width="193" height="73" viewBox="0 0 193 73" fill="none" xmlns="http://www.w3.org/2000/svg">
<g clip-path="url(#clip0_50_4959)">
<path d="M57.8623 16.0449H68.44V19.1335H64.292C63.4213 19.1335 62.6208 19.1127 61.8152 18.8168L61.4049 19.2217C61.8602 19.855 62.0804 20.4156 62.0804 21.1371V21.8587C62.0804 22.4919 61.8402 23.0526 61.4049 23.6858L61.8152 24.1115C62.5957 23.8623 63.4213 23.7741 64.292 23.7741H68.1798V27.0184H64.292C63.4013 27.0184 62.5757 26.9716 61.8152 26.681L61.4049 27.1118C61.9052 27.7866 62.0804 28.3732 62.0804 29.1622V29.9719C62.0804 30.6727 61.8652 31.2333 61.4049 31.8666L61.8152 32.2715C62.6208 32.0016 63.4213 31.9548 64.292 31.9548H68.7452V35.1316H57.8623V16.0449Z" fill="white"/>
<path d="M78.9974 35.1313H74.8294V21.4535C74.8294 20.7319 75.0245 20.1713 75.4799 19.538L75.0896 19.1332C74.309 19.4031 73.5034 19.4498 72.6128 19.4498H70.5713V16.0498H83.2755V19.4498H81.214C80.3434 19.4498 79.5428 19.429 78.7372 19.1332L78.3469 19.538C78.8023 20.1713 78.9974 20.7319 78.9974 21.4535V35.1313Z" fill="white"/>
<path d="M89.9403 21.5472C89.9403 22.4037 89.9203 23.1045 89.2899 23.9142L89.6802 24.3399C90.4857 24.0907 91.2863 24.0025 92.1569 24.0025C93.0276 24.0025 93.8732 24.0492 94.7188 24.3399L95.1291 23.9142C94.4536 23.037 94.4536 22.2895 94.4536 21.3915V16.0501H98.6867V35.1368H94.4536V29.8214C94.4536 28.8974 94.4536 28.1759 95.1291 27.2987L94.7188 26.8678C93.9382 27.1377 93.1126 27.2052 92.197 27.2052C91.3514 27.2052 90.5258 27.1845 89.6751 26.8678L89.2849 27.2987C89.9353 28.1759 89.9353 28.8974 89.9353 29.8214V35.1368H85.6973V16.0449H89.9353V21.542L89.9403 21.5472Z" fill="white"/>
<path d="M63.1862 37.5146C64.9875 37.5146 66.4235 37.5614 67.5493 38.122C68.8303 38.776 69.7209 40.2866 69.7209 41.9528C69.7209 44.1849 68.3549 45.8044 66.0282 46.1003V46.6194C68.8303 46.7543 70.2213 48.2441 70.2213 51.1043C70.2213 53.3779 69.1355 55.1583 67.5944 55.9266C66.4435 56.4872 64.9675 56.6014 62.5557 56.6014H57.8623V37.5146H63.1862ZM61.4049 40.8472C61.8402 41.4805 62.0804 42.0203 62.0804 42.6951V43.3699C62.0804 43.9772 61.8402 44.5638 61.4049 45.1971L61.8152 45.6227C62.7909 45.2646 63.5764 45.3528 64.1168 45.2179C64.9424 45.0154 65.703 44.3406 65.703 42.8768C65.703 41.5479 64.9224 41.0288 64.332 40.8472C63.7216 40.6914 63.3563 40.7797 62.6608 40.6447C62.2905 40.5772 61.9653 40.5098 61.8152 40.4215L61.4049 40.8472ZM62.0804 51.0524C62.0804 51.8621 61.9503 52.4954 61.4049 53.2169L61.8152 53.6426C64.292 53.4194 66.0733 53.4194 66.0733 50.8914C66.0733 48.9085 64.5972 48.4362 64.1168 48.3479C63.3763 48.213 62.7909 48.1922 61.8152 47.9171L61.4049 48.3479C61.9453 49.0227 62.0804 49.8117 62.0804 50.3776V51.0524Z" fill="white"/>
<path d="M85.8376 50.2893C85.8376 54.9974 84.0112 56.9128 79.3629 56.9128C76.2806 56.9128 74.3693 56.0563 73.4536 53.9852C72.9332 52.7913 72.8682 51.395 72.8682 49.7027V37.5146H77.1012V49.9986C77.1012 52.5006 77.6867 53.7153 79.3178 53.7153C81.0791 53.7153 81.6195 52.3656 81.6195 49.8637V37.5146H85.8326V50.2893H85.8376Z" fill="white"/>
<path d="M101.279 43.1927H99.9077C99.0821 41.5472 98.0813 40.7374 96.8905 40.7374C94.7639 40.7374 93.503 42.902 93.503 47.1118C93.503 51.3215 94.7839 53.3512 96.8705 53.3512C98.0863 53.3512 99.0871 52.5414 99.9127 50.8959H101.284V55.2458C99.5874 56.393 98.0463 56.9121 96.18 56.9121C91.7718 56.9121 88.9697 53.4654 88.9697 47.0443C88.9697 40.6232 91.7067 37.1973 96.3751 37.1973C98.0913 37.1973 99.6325 37.7371 101.284 38.8428V43.1927H101.279Z" fill="white"/>
<path d="M108.579 43.0117C108.579 43.8682 108.559 44.569 107.929 45.3788L108.319 45.8044C109.124 45.5553 109.925 45.467 110.796 45.467C111.666 45.467 112.512 45.5137 113.357 45.8044L113.773 45.3788C113.097 44.5015 113.097 43.754 113.097 42.856V37.5146H117.335V56.6014H113.097V51.2859C113.097 50.362 113.097 49.6405 113.773 48.7632L113.357 48.3324C112.577 48.6023 111.751 48.6698 110.836 48.6698C109.99 48.6698 109.164 48.649 108.314 48.3324L107.924 48.7632C108.574 49.6405 108.574 50.362 108.574 51.2859V56.6014H104.336V37.5146H108.574V43.0117H108.579Z" fill="white"/>
<path d="M124.365 37.514H130.119L134.092 56.6007H129.944L129.489 54.5036C129.359 53.8963 129.444 53.1955 129.554 52.7906L129.294 52.5415C128.598 52.7647 127.968 52.8789 126.862 52.8789C125.646 52.8789 125.101 52.8581 124.3 52.5415L124.06 52.7439C124.105 53.0813 124.235 54.026 124.06 54.7476L123.605 56.5955H119.632L124.365 37.5088V37.514ZM126.537 39.6318C126.122 44.4541 125.561 47.8541 124.67 49.837L124.931 50.2212C125.626 50.0187 126.302 49.972 126.952 49.972C127.563 49.972 128.168 50.0187 128.798 50.2212L129.059 49.837C128.383 48.3473 127.668 44.9005 127.362 39.6318H126.537Z" fill="white"/>
<path d="M141.854 37.5146C143.83 37.5146 145.371 37.6029 146.632 38.3711C148.173 39.3159 148.999 40.9198 148.999 42.9443C148.999 45.4878 147.783 46.9308 146.002 47.2682L145.917 47.7873L150.5 56.5962H145.591L142.224 48.7995C141.593 48.7995 141.008 48.6646 140.423 48.4154L140.077 48.8463C140.663 49.6145 140.663 50.6734 140.663 52.2047V56.6014H136.43V37.5146H141.859H141.854ZM139.727 40.8472C140.052 41.1846 140.292 42.0411 140.292 42.7834V43.7073C140.292 44.6521 140.247 45.3736 139.682 46.0276L140.027 46.4325C141.178 46.2093 142.284 46.2975 143.24 46.0484C144.26 45.7785 145.001 44.7663 145.001 43.5256C145.001 42.285 144.39 41.3611 143.305 40.9562C142.434 40.6395 141.328 40.842 140.112 40.4579L139.722 40.842L139.727 40.8472Z" fill="white"/>
<path d="M152.756 37.5146H163.334V40.6032H159.186C158.315 40.6032 157.514 40.5824 156.709 40.2866L156.298 40.6914C156.754 41.3247 156.974 41.8853 156.974 42.6069V43.3284C156.974 43.9617 156.734 44.5223 156.298 45.1556L156.709 45.5812C157.489 45.3321 158.315 45.2438 159.186 45.2438H163.073V48.4881H159.186C158.295 48.4881 157.469 48.4414 156.709 48.1507L156.298 48.5815C156.799 49.2563 156.974 49.8429 156.974 50.6319V51.4417C156.974 52.1424 156.759 52.703 156.298 53.3363L156.709 53.7412C157.514 53.4713 158.315 53.4246 159.186 53.4246H163.639V56.6014H152.756V37.5146Z" fill="white"/>
<path d="M177.254 42.8089H175.888C175.063 41.1167 173.782 40.2602 172.631 40.2602C171.265 40.2602 170.374 41.1167 170.374 42.1756C170.374 44.0235 172.611 44.7658 175.433 46.2296C176.604 46.837 178.235 48.5032 178.235 50.9844C178.235 54.2754 175.648 56.9124 171.5 56.9124C169.764 56.9124 168.048 56.44 166.156 55.6043L166.306 50.8495H167.567C168.373 52.6507 169.914 53.6889 171.475 53.6889C172.951 53.6889 173.927 52.7441 173.927 51.571C173.927 49.6348 171.95 49.1365 170.149 48.2385C167.522 46.9096 166.216 45.0825 166.216 42.7154C166.216 39.4244 168.473 37.1924 172.516 37.1924C174.102 37.1924 175.623 37.5765 177.249 38.2513V42.8037L177.254 42.8089Z" fill="white"/>
<path d="M188.722 56.6014H184.554V42.9235C184.554 42.202 184.749 41.6414 185.204 41.0081L184.814 40.6032C184.034 40.8731 183.228 40.9198 182.337 40.9198H180.296V37.5146H193V40.9198H190.939C190.068 40.9198 189.267 40.8991 188.462 40.6032L188.072 41.0081C188.527 41.6414 188.722 42.202 188.722 42.9235V56.6014Z" fill="white"/>
<path d="M44.3222 72.9624H31.1126L22.1761 57.8363L13.5498 72.9624H0L10.7378 54.4675L0.190138 36.2995L10.6928 18.2095L0.120087 0H13.1946L22.1711 15.2247L31.5829 0H44.1971L33.6244 18.2095L44.127 36.2995L43.8068 36.8498L33.5794 54.4675L44.3171 72.9624H44.3222ZM31.9532 71.4052H41.6602L31.8281 54.4675L42.3757 36.2995L31.8731 18.2043L41.5351 1.55725H32.3985L22.1411 18.1627L12.354 1.55725H2.78202L12.449 18.2095L1.94641 36.3047L12.4941 54.4727L2.66193 71.4052H12.6892L22.1511 54.8153L31.9532 71.4052Z" fill="white"/>
<path d="M22.1363 51.5242L13.7803 39.3154L22.1363 44.4284L30.4924 39.2998L22.1363 51.5242Z" fill="white"/>
<path d="M22.1363 41.0075L13.7803 35.8945L22.1363 21.4951L30.4924 35.8945L22.1363 41.0075Z" fill="white"/>
<path d="M22.1367 41.0075V21.4951L30.4928 35.8945L22.1367 41.0075Z" fill="white"/>
<path d="M22.1416 44.4284V51.519L30.4927 39.2998L22.1416 44.4284Z" fill="white"/>
</g>
<defs>
<clipPath id="clip0_50_4959">
<rect width="193" height="72.9624" fill="white"/>
</clipPath>
</defs>
</svg>
