<svg id="svg961030798_2297" viewBox="0 0 628.52 257.72"><defs><style>.cls-1{fill:#fff}</style></defs><g id="svg961030798_2297_Layer_1-2" data-name="Layer_1"><path class="cls-1" d="M76.52 257.72 5.19 154.83l14.79-10.25 56.56 81.56 56.65-81.57 14.78 10.27-71.45 102.88z"></path><path class="cls-1" d="M67.48 175.4v-67.27h18v36.79l41.93-23.12L55.47 9.72 70.62 0l82.33 128.28-85.47 47.12z"></path><path class="cls-1" d="M52.45 157.19 0 128.28l57.91-90.23 15.15 9.73-47.52 74.02 35.6 19.63-8.69 15.76zm153.06-3.01h43.84v14.96h-62.37V88.59h60.87v14.96H205.5v50.63Zm-1.38-33.25h38.78v14.61h-38.78v-14.61Zm76.76 48.21v-65.36h-25.78V88.59h70.2v15.19h-25.78v65.36h-18.64Zm73.18 0h-18.76V88.59h18.76v80.55Zm37.86-33.02h-39.36v-15.77h39.36v15.77Zm-1.38-47.53h18.64v80.55h-18.64V88.59Zm76.3 81.13c-5.98 0-11.53-1.02-16.63-3.05s-9.53-4.89-13.29-8.57c-3.76-3.68-6.67-8-8.75-12.95-2.07-4.95-3.11-10.37-3.11-16.28s1.04-11.33 3.11-16.28c2.07-4.95 5.01-9.26 8.8-12.94 3.8-3.68 8.23-6.54 13.29-8.57 5.06-2.03 10.59-3.05 16.57-3.05s10.99.92 15.94 2.76c4.95 1.84 9.19 4.64 12.72 8.4l-3.68 3.8c-3.45-3.37-7.27-5.81-11.45-7.31s-8.61-2.24-13.29-2.24c-5.14 0-9.92.88-14.33 2.65s-8.25 4.26-11.51 7.48c-3.26 3.22-5.79 6.98-7.59 11.28-1.8 4.3-2.7 8.98-2.7 14.04s.9 9.74 2.7 14.04c1.8 4.3 4.33 8.05 7.59 11.28 3.26 3.22 7.1 5.72 11.51 7.48 4.41 1.77 9.19 2.65 14.33 2.65 4.68 0 9.11-.75 13.29-2.24 4.18-1.5 8-3.97 11.45-7.42l3.68 3.8c-3.53 3.76-7.77 6.58-12.72 8.46-4.95 1.88-10.26 2.82-15.94 2.82Zm46.49-.58V83.75h5.75v85.39h-5.75Zm54.43.46c-5.14 0-9.59-.94-13.35-2.82s-6.66-4.72-8.69-8.52c-2.03-3.8-3.05-8.5-3.05-14.1v-35.1h5.75v34.64c0 6.75 1.73 11.89 5.18 15.42 3.45 3.53 8.32 5.29 14.61 5.29 4.53 0 8.44-.96 11.74-2.88 3.3-1.92 5.83-4.62 7.6-8.11 1.76-3.49 2.65-7.61 2.65-12.37v-31.99h5.75v60.07h-5.52v-16.69l.81 1.96c-1.77 4.68-4.7 8.38-8.8 11.11-4.1 2.72-9 4.08-14.67 4.08Zm42.69 22.33c-2.38 0-4.68-.33-6.9-.98-2.22-.65-4.07-1.67-5.52-3.05l2.3-4.26c2.53 2.22 5.79 3.34 9.78 3.34 3.45 0 6.12-1.04 8-3.11s2.82-5.06 2.82-8.98v-65.82h5.75v66.05c0 5.06-1.4 9.13-4.2 12.2-2.8 3.07-6.81 4.6-12.03 4.6Zm13.35-97.47c-1.31 0-2.42-.46-3.34-1.38-.92-.92-1.38-1.99-1.38-3.22 0-1.3.46-2.42 1.38-3.34.92-.92 2.03-1.38 3.34-1.38 1.38 0 2.51.44 3.39 1.32.88.88 1.32 1.98 1.32 3.28s-.44 2.42-1.32 3.34c-.88.92-2.01 1.38-3.39 1.38Z"></path></g></svg>