<svg width="159" height="62" viewBox="0 0 159 62" fill="none" xmlns="http://www.w3.org/2000/svg">
<g clip-path="url(#clip0_601_26)">
<path d="M37.9906 29.6428L33.0527 32.4846L29.114 34.758L18.7981 40.7042L11.0399 36.1513L14.8564 33.8657L18.847 36.2094L25.2792 32.4998L29.2209 30.2295L32.3927 28.3992L18.9479 7.47716L7.57169 25.2243L0.00897217 29.5359L18.9387 0L37.9906 29.6428Z" fill="url(#paint0_linear_601_26)"/>
<path d="M38 33.9603L19.0367 61.1127L0 33.8533L4.8707 30.9963L8.72998 28.7321L19.0367 22.688L26.9875 27.3723L23.0212 29.6304L19.0947 27.3203L12.7084 31.0666L8.84915 33.3308L5.66211 35.2009L19.0947 54.4392L30.367 38.3023L38 33.9603Z" fill="url(#paint1_linear_601_26)"/>
</g>
<path d="M52.37 39.33C50.87 39.33 49.59 39.04 48.53 38.46C47.47 37.88 46.66 37.08 46.1 36.06C45.54 35.02 45.26 33.85 45.26 32.55C45.26 31.27 45.58 30.12 46.22 29.1C46.86 28.08 47.72 27.27 48.8 26.67C49.9 26.05 51.11 25.74 52.43 25.74C54.17 25.74 55.6 26.25 56.72 27.27C57.86 28.27 58.62 29.69 59 31.53L48.77 34.98L47.99 33.09L55.97 30.24L55.28 30.63C55.06 30.03 54.7 29.51 54.2 29.07C53.72 28.63 53.04 28.41 52.16 28.41C51.46 28.41 50.84 28.58 50.3 28.92C49.76 29.24 49.33 29.7 49.01 30.3C48.71 30.88 48.56 31.57 48.56 32.37C48.56 33.19 48.73 33.91 49.07 34.53C49.41 35.15 49.87 35.63 50.45 35.97C51.03 36.29 51.69 36.45 52.43 36.45C52.95 36.45 53.45 36.36 53.93 36.18C54.41 36 54.86 35.76 55.28 35.46L56.81 37.95C56.15 38.37 55.42 38.71 54.62 38.97C53.84 39.21 53.09 39.33 52.37 39.33ZM63.5061 20.73H66.8961V26.31H70.1961V28.95H66.8961V39H63.5061V28.95H61.3461V26.31H63.5061V20.73ZM73.4975 39V15.6H76.7975V29.1L76.7375 28.59C77.1775 27.77 77.8275 27.1 78.6875 26.58C79.5475 26.04 80.5775 25.77 81.7775 25.77C82.9775 25.77 83.9675 26.12 84.7475 26.82C85.5275 27.52 85.9275 28.44 85.9475 29.58V39H82.5875V30.78C82.5675 30.14 82.3875 29.63 82.0475 29.25C81.7075 28.85 81.1675 28.64 80.4275 28.62C79.7475 28.62 79.1375 28.83 78.5975 29.25C78.0575 29.67 77.6275 30.24 77.3075 30.96C77.0075 31.66 76.8575 32.46 76.8575 33.36V39H73.4975ZM96.6376 39.33C95.1376 39.33 93.8576 39.04 92.7976 38.46C91.7376 37.88 90.9276 37.08 90.3676 36.06C89.8076 35.02 89.5276 33.85 89.5276 32.55C89.5276 31.27 89.8476 30.12 90.4876 29.1C91.1276 28.08 91.9876 27.27 93.0676 26.67C94.1676 26.05 95.3776 25.74 96.6976 25.74C98.4376 25.74 99.8676 26.25 100.988 27.27C102.128 28.27 102.888 29.69 103.268 31.53L93.0376 34.98L92.2576 33.09L100.238 30.24L99.5476 30.63C99.3276 30.03 98.9676 29.51 98.4676 29.07C97.9876 28.63 97.3076 28.41 96.4276 28.41C95.7276 28.41 95.1076 28.58 94.5676 28.92C94.0276 29.24 93.5976 29.7 93.2776 30.3C92.9776 30.88 92.8276 31.57 92.8276 32.37C92.8276 33.19 92.9976 33.91 93.3376 34.53C93.6776 35.15 94.1376 35.63 94.7176 35.97C95.2976 36.29 95.9576 36.45 96.6976 36.45C97.2176 36.45 97.7176 36.36 98.1976 36.18C98.6776 36 99.1276 35.76 99.5476 35.46L101.078 37.95C100.418 38.37 99.6876 38.71 98.8876 38.97C98.1076 39.21 97.3576 39.33 96.6376 39.33ZM109.604 26.31L109.904 29.91L109.784 29.4C110.144 28.64 110.634 27.99 111.254 27.45C111.894 26.89 112.544 26.47 113.204 26.19C113.864 25.89 114.404 25.74 114.824 25.74L114.674 29.1C113.714 29.02 112.874 29.2 112.154 29.64C111.454 30.06 110.904 30.62 110.504 31.32C110.124 32.02 109.934 32.76 109.934 33.54V39H106.574V26.31H109.604ZM121.293 26.31L121.593 29.04L121.473 28.68C121.913 27.8 122.563 27.1 123.423 26.58C124.303 26.04 125.343 25.77 126.543 25.77C127.743 25.77 128.733 26.12 129.513 26.82C130.293 27.52 130.693 28.44 130.713 29.58V39H127.353V30.78C127.333 30.14 127.153 29.63 126.813 29.25C126.473 28.85 125.933 28.64 125.193 28.62C124.513 28.62 123.903 28.83 123.363 29.25C122.823 29.65 122.393 30.21 122.073 30.93C121.773 31.63 121.623 32.44 121.623 33.36V39H118.263V26.31H121.293ZM140.683 39.33C139.483 39.33 138.393 39.08 137.413 38.58C136.453 38.08 135.693 37.34 135.133 36.36C134.573 35.36 134.293 34.13 134.293 32.67C134.293 31.23 134.583 30 135.163 28.98C135.763 27.94 136.543 27.14 137.503 26.58C138.483 26.02 139.543 25.74 140.683 25.74C141.903 25.74 142.883 25.98 143.623 26.46C144.383 26.94 144.973 27.51 145.393 28.17L145.213 28.65L145.543 26.31H148.633V39H145.273V35.91L145.603 36.72C145.523 36.84 145.363 37.04 145.123 37.32C144.883 37.58 144.553 37.87 144.133 38.19C143.713 38.51 143.213 38.78 142.633 39C142.073 39.22 141.423 39.33 140.683 39.33ZM141.613 36.57C142.213 36.57 142.753 36.46 143.233 36.24C143.733 36.02 144.153 35.71 144.493 35.31C144.853 34.91 145.113 34.43 145.273 33.87V31.11C145.113 30.59 144.853 30.14 144.493 29.76C144.133 29.36 143.693 29.05 143.173 28.83C142.673 28.61 142.113 28.5 141.493 28.5C140.813 28.5 140.183 28.67 139.603 29.01C139.023 29.35 138.553 29.82 138.193 30.42C137.853 31.02 137.683 31.71 137.683 32.49C137.683 33.25 137.863 33.94 138.223 34.56C138.583 35.18 139.063 35.67 139.663 36.03C140.263 36.39 140.913 36.57 141.613 36.57ZM153.273 15.6H156.633V39H153.273V15.6Z" fill="white"/>
<defs>
<linearGradient id="paint0_linear_601_26" x1="23.7697" y1="37.8503" x2="6.17221" y2="7.37022" gradientUnits="userSpaceOnUse">
<stop stop-color="#1192E8"/>
<stop offset="1" stop-color="#8A3FFC"/>
</linearGradient>
<linearGradient id="paint1_linear_601_26" x1="30.7887" y1="54.3261" x2="14.1507" y2="25.5083" gradientUnits="userSpaceOnUse">
<stop stop-color="#8A3FFC"/>
<stop offset="1" stop-color="#1192E8"/>
</linearGradient>
<clipPath id="clip0_601_26">
<rect width="38" height="61.1129" fill="white"/>
</clipPath>
</defs>
</svg>
