<?xml version="1.0" encoding="UTF-8"?>
<svg id="Layer_2" data-name="Layer 2" xmlns="http://www.w3.org/2000/svg" xmlns:xlink="http://www.w3.org/1999/xlink" viewBox="0 0 2000 595.11">
  <defs>
    <style>
      .cls-1 {
        fill: url(#linear-gradient);
        stroke-width: 0px;
      }
    </style>
    <linearGradient id="linear-gradient" x1="0" y1="297.56" x2="2000" y2="297.56" gradientUnits="userSpaceOnUse">
      <stop offset="0" stop-color="#cab3f5"/>
      <stop offset=".31" stop-color="#b8fbf6"/>
      <stop offset=".72" stop-color="#b1f6f1"/>
      <stop offset="1" stop-color="#87a9f0"/>
    </linearGradient>
  </defs>
  <g id="Layer_1-2" data-name="Layer 1">
    <path class="cls-1" d="M256.82,266.15c-1.16-3.45-3.62-5.13-4.52-3.09-.37.85-.91.44-1.55-1.18-.31-.8-.58-1.31-.97-1.57,1.55-1.55,1.62-2.37.54-3.58-.86-.97-1.89-1.46-2.3-1.1-.41.36-.87-.05-1.01-.91-.16-.94-.45-.99-.71-.12-.24.8-1.26,1.16-2.28.8-1.87-.65-2.22-.53-4.64,1.62-.81.72-1.54.56-1.79-.38-.23-.88-.37-.42-.32,1.01.07,1.88-.4,2.58-1.71,2.5-2.18-.13-5.94,4.95-4.09,5.51.71.21-.13.83-1.87,1.36-1.74.53-3.63.45-4.21-.2-.58-.65-1.76-.59-2.64.13-1.47,1.2-1.51,1.15-.56-.74.87-1.71.31-1.83-3.46-.74-5.29,1.53-5.95,1.96-3.9,2.57,1.08.32.62.94-1.56,2.12-2.25,1.22-2.51,1.59-.96,1.39,1.16-.15,1.86.04,1.56.43-.96,1.24-1.51,2.2-2.48,4.31-1.34,2.92-5.26,2.88-5.96-.06-.45-1.9-1.24-1.94-4.79-.29-5.63,2.62-6.28,3.31-2.85,3.04,4.28-.34,2.11,1-2.39,1.47-2.14.22-5.7,1.56-7.9,2.97-2.96,1.9-3.45,2.51-1.86,2.33,3.92-.44-.07,2.08-5.93,3.74-3.65,1.04-6.02,2.43-7.44,4.39-1.5,2.06-2.29,2.49-2.83,1.54-.44-.79-1.91-.5-3.63.73-.05.08-1.39.89-2.28,1.44-.96.6-1.92,1.19-2.86,1.77-1.89,1.16-3.73,2.3-5.53,3.41-3.62,2.21-7.07,4.32-10.38,6.35-5.45,3.31-10.52,6.35-15.34,9.2-2.36-1.36-4.66-2.7-6.91-4-5.07-2.97-9.87-5.85-14.55-8.73-26.02-16.01-65.07-38.98-77.06-45.33-.67-.34-1.37-.71-2.13-1.09-5.25-1.99-15.72-2.81-18.94-1.37h0c-2.51,1.12-3.94,2.89-3.57,3.98-.14.43-.03.89.44,1.33.68.63.11,1.01-1.63,1.07-2.45.09-2.64.51-2.33,5.16l.34,5.06-1.24-3.85c-1.19-3.72-1.22-3.66-.75,1.67.58,6.52.83,8.16,1.45,9.21l1.23,2.12c.11.18.29.46.54.81.3.41.66.91,1.06,1.46,1.11,1.51,2.46,3.3,3.77,5,2.63,3.4,7.49,10.36,10.79,15.46,8.68,13.4,24.51,35.97,39.28,56.02,1.62,2.21,3.33,4.56,5.04,6.89,1.11,1.55,2.23,3.09,3.28,4.55,2.08,2.93,3.86,5.52,4.83,7.08,1.95,3.12,3.96,5.45,4.47,5.18.5-.27,1.66.42,2.58,1.54.91,1.12,4.3,5.32,7.54,9.31,3.98,4.94,6.31,7.17,7.23,6.91.92-.25,2.41,1.11,4.59,4.21,2.88,4.09,3.6,4.57,6.72,4.46,1.92-.07,3.62.34,3.78.91.24.89,5.97,7.87,9.88,12.05,3.43,3.66,7.19,6.17,7.43,4.95.16-.8,1.45-.26,3.15,1.32,2.31,2.14,3.2,2.33,4.48.95.11-.12.19-.24.29-.37-.03.6-.28,1.49-.75,2.56-1.26,2.88-1.14,3.79.58,4.54,1.18.52,2.33.53,2.55.03.22-.5.81-.32,1.3.4.54.79.82.71.69-.18-.12-.82.66-1.58,1.73-1.69,1.97-.2,2.24-.45,3.53-3.42.43-.99,1.16-1.16,1.78-.41.58.7.52.23-.14-1.05-.86-1.68-.72-2.51.51-2.99,2.03-.8,3.32-6.99,1.4-6.72-.74.1-.23-.8,1.12-2.02,1.36-1.21,3.11-1.93,3.91-1.58.79.35,1.85-.2,2.34-1.22.83-1.71.89-1.67.82.44-.07,1.92.49,1.79,3.45-.78,4.16-3.61,4.58-4.27,2.46-3.97-1.11.16-.96-.59.53-2.58,1.53-2.05,1.61-2.5.29-1.66-.99.63-1.71.74-1.59.26.35-1.53.45-2.63.45-4.95,0-3.21,3.56-4.82,5.44-2.44,1.21,1.53,1.94,1.25,4.47-1.75,4.02-4.74,4.31-5.64,1.31-3.95-3.75,2.1-2.33-.03,1.55-2.33,1.85-1.1,4.52-3.81,5.93-6.01,1.89-2.97,2.08-3.72.71-2.89-3.38,2.04-.81-1.92,3.82-5.89,2.88-2.48,4.44-4.73,4.91-7.1.5-2.49,1.04-3.22,1.93-2.58.73.53,1.95-.35,2.99-2.18.14-.26.58-.96.92-1.5.35-.56.7-1.12,1.05-1.67.7-1.1,1.37-2.18,2.04-3.23,1.34-2.1,2.63-4.1,3.85-6.02,2.48-3.83,4.79-7.31,6.98-10.53,4.4-6.43,8.35-11.82,12.36-16.89,11.15-14.07,26.94-35.47,31.17-42.23.23-.38.47-.78.72-1.21,2.49-5.03,4.31-15.38,3.19-18.72h0ZM12.73,260.13s-.01-.09,0-.12c.09-.27.66-.33,1.28-.13.42.14.69.51.76.93-.73-.29-1.42-.52-2.03-.68ZM136.65,398.22c.26-.31.99-.61,1.62-.66s.94.15.68.46c-.26.31-.99.61-1.62.66-.63.06-.94-.15-.68-.46ZM137.44,406.36c.98.16,1.71.56,1.62.89-.1.37-1.14.28-2.64-.22-2.57-.85-2.08-1.17,1.02-.67ZM115.06,402.21c-.44.47-.96.26-1.17-.47-.2-.73,0-1.72.43-2.19s.97-.26,1.17.47c.2.73,0,1.72-.43,2.19ZM125.56,418.57c-3.24-.13-3.28-1.02-.07-1.86,1.01-.27,2.15.07,2.52.75.41.75-.56,1.19-2.45,1.11ZM146.61,428.48c-.57.63-1.31-.14-1.86-1.94-.95-3.1-.12-3.43,1.74-.68.59.87.64,2.05.12,2.63ZM158.94,410.92c-.62.43-1.62.57-2.21.32-.59-.26-.57-.82.06-1.26.62-.43,1.62-.57,2.21-.32s.57.82-.06,1.26ZM175.99,345.38c-1.56,2.26-3.2,4.65-4.85,7.03-1.09,1.56-2.18,3.12-3.21,4.59-2.08,2.93-3.94,5.46-5.09,6.9-2.3,2.87-3.83,5.54-3.41,5.92.42.38.15,1.71-.6,2.94-.76,1.23-3.6,5.81-6.31,10.19-3.35,5.39-4.68,8.32-4.14,9.11.54.79-.25,2.64-2.46,5.72-2.91,4.07-3.13,4.91-1.99,7.81.7,1.79.87,3.53.39,3.87-.76.53-5.46,8.23-8.11,13.3-.38.73-.73,1.46-1.04,2.17,0-.96-.53-1.57-2.26-3.18-.79-.73-.71-1.48.2-1.82.85-.31.38-.41-1.04-.22-1.87.25-2.6-.15-2.65-1.46-.08-2.18-5.51-5.44-5.88-3.53-.14.73-.83-.05-1.54-1.73-.7-1.68-.79-3.57-.2-4.21.59-.64.42-1.81-.38-2.61-1.34-1.34-1.29-1.39.67-.63.03.36.09.7.2.93l.45.99.51-1.08c.09-.19.13-.43.15-.69.32-.32,0-1.4-.89-3.67-.05-.12-.09-.23-.14-.34.31.58.66.79.81.45.15-.37-.12-.93-.6-1.24-.35-.23-.5-.12-.44.2-1.72-4.25-2.18-4.66-2.56-2.71-.22,1.1-.87.71-2.26-1.35-1.43-2.12-1.83-2.34-1.48-.83.26,1.14.14,1.86-.28,1.59-1.33-.84-2.33-1.29-4.53-2.05-3.03-1.05-3.37-4.95-.51-5.94,1.84-.63,1.82-1.42-.17-4.8-3.15-5.36-3.9-5.93-3.3-2.54.75,4.23-.79,2.19-1.69-2.23-.43-2.11-2.1-5.52-3.72-7.58-2.18-2.77-2.83-3.19-2.5-1.63.81,3.86-2.08.13-4.3-5.54-1.39-3.54-3-5.75-5.08-6.98-2.19-1.29-2.7-2.04-1.8-2.67.75-.52.31-1.95-1.07-3.54-.2-.22-.71-.86-1.11-1.36-.42-.52-.83-1.03-1.23-1.54-.81-1.02-1.6-2.01-2.38-2.99-1.54-1.96-3.01-3.83-4.41-5.62-2.8-3.6-5.32-6.93-7.63-10.06-4.62-6.27-8.41-11.79-11.87-17.24-1.67-2.63-3.5-5.48-5.42-8.4.11.07.23.14.33.2,11.62,7.05,27.59,16.45,45.29,26.68,4.43,2.55,8.96,5.16,13.55,7.8,1.96,1.12,3.94,2.26,5.93,3.39-1.81,1.37-2.3,1.87-2.39,2.28-.05.21-.15.69-.22,1.05-.08.37,0,1.58.17,2.7.18,1.12.11,3.34-.15,4.92-.67,4.16-.83,11.37-.4,17.87.21,3.11.21,6.95,0,8.53-.21,1.58.08,2.9.65,2.93.57.03,1.11.56,1.21,1.18.09.63.43,2.94.76,5.15.39,2.73,1,4.09,1.9,4.23.9.14,1.32.99,1.3,2.62-.02,2.15.29,2.5,2.9,3.24,1.61.45,2.76,1.02,2.55,1.26-.32.37.31,4.25,1.08,6.7.68,2.14,2.29,3.96,3.19,3.59.59-.24,1.33.27,1.8,1.25.64,1.33,1.26,1.62,3.1,1.45.22-.02.42-.05.62-.08-.84,1.12-1.66,2.4-2.04,3.25l-.97,2.14,1.86-1.75c1.02-.95,2.35-2.93,2.99-4.41.23-.02.55-.01.93.05.9.14,1.08.05.46-.24-.57-.26-.38-.72.43-1.02,1.5-.56,1.56-.72.9-2.08-.22-.46.28-.7,1.22-.59.87.1.55-.05-.72-.34-.04,0-.07-.02-.1-.03.41-.64.71-1.48.73-2.13.03-.87-.48-.37-1.13,1.11h0c-.14.32-.24.59-.32.83-.93-.29-1.07-.58-.49-.96,1.19-.79-1.34-3.28-2.75-2.71-.54.22-.65-.23-.25-.99.4-.76,1.42-1.45,2.27-1.53.85-.08,1.39-.53,1.2-1.01-.31-.81-.24-.81.92-.05,1.05.69,1.43.51,2.37-1.13,1.3-2.3,1.26-2.64-.29-2.01-.81.33-1.12.03-1.06-1.04.06-1.1-.13-1.28-.73-.66-.44.47-.96.69-1.15.49-.6-.63-1.15-1.04-2.5-1.85-1.87-1.13.12-2.58,3.02-2.21,1.87.24,2.3-.05,2.64-1.73.53-2.67.25-3.06-1.22-1.72-1.84,1.67-1.92.57-.09-1.21.87-.85,1.48-2.46,1.35-3.59-.18-1.51-.46-1.82-1.09-1.19-1.57,1.56-1.77-.47-.29-3.02.91-1.59.89-2.77-.1-3.72-1.04-1-1.02-1.39.07-1.39.91,0,1.38-.61,1.18-1.51-1.3-5.68-1.55-9.29-.88-12.66.94-4.68,1.44-11.62.98-13.7-.24-1.09-1.46-2.66-2.97-4.11l.35-.2c9.32-5.43,18.73-10.91,27.89-16.25,5.37-3.14,11.37-6.65,16.72-9.77,3.11-1.79,5.87-3.31,7.51-4.13,3.29-1.65,5.8-3.42,5.58-3.95-.22-.52.58-1.61,1.78-2.42.8-.53,3.05-2.02,5.72-3.78-9.03,12.27-19.98,27.71-29.92,42.25ZM217.63,273.99c-.75.13-1.71-.16-2.14-.64-.43-.48-.17-.99.58-1.12.75-.13,1.71.16,2.14.64.43.48.17.98-.58,1.11ZM235.52,263.81c-.83.46-1.32.81-1.67,1.16-.08-.31-.15-.66-.21-1.07-.17-1.04.28-2.13.99-2.44.76-.32,1.1.61.89,2.35ZM254.36,270.09c-.26.59-.98.85-1.61.58-.63-.27-.63-.85,0-1.28.62-.43,1.35-.69,1.61-.58.26.11.26.69,0,1.28ZM1956.47,471.36c1.83,6.35,1.57,18.79-.3,14.45-.28-.65-.84-5.93-1.24-11.75h0c-.71-10.24-.66-10.32,1.53-2.7ZM100.55,279.34h0c-1.54-.5-2.08-.96-1.21-1.02.87-.06,2.13.35,2.79.91.67.56-.05.61-1.58.11ZM564.92,52c.11-2.74.67-3.29,1.42-1.42.68,1.7.6,3.72-.18,4.5h0c-.78.78-1.34-.61-1.24-3.09ZM1013.97,395.53l5.87-6.22c3.23-3.42,6.84-6.24,8.02-6.26,1.18-.03,14.25-6.97,29.05-15.44,14.79-8.47,27.39-14.9,27.99-14.3.6.6-4.01,3.96-10.25,7.47-6.24,3.51-17.16,9.83-24.27,14.05h0c-7.11,4.22-18.21,10.6-24.67,14.18l-11.75,6.51ZM1868.1,459.73c-.27.64-.62.52-1.2-.41-.76-1.2-1.02-1.08-3.24,1.44-1.33,1.51-2.43,2.38-2.45,1.93-.02-.45.45-1.21,1.05-1.7,1.23-1.02,1.42-2.16.36-2.16-.39,0-.72.49-.72,1.08s-.32,1.08-.7,1.08c-1.05,0-6.44,8.76-6.47,10.5,0,.83-1.76,5.68-3.89,10.78-2.13,5.1-4.47,10.96-5.2,13.04-1,2.86-1.68,3.78-2.78,3.78-1.2,0-1.26.13-.37.71,1.43.92.28.92-1.44,0-.85-.46-1.5-.47-1.77-.03-.23.38-.95.49-1.6.24-.84-.32-1.01-.18-.59.49.46.74.01.83-2.09.44-1.75-.33-3.05-.19-3.75.39-.79.66-1.21.68-1.58.08-.3-.49-.9-.57-1.5-.2-.55.34-1.37.47-1.83.3-.46-.18-1.78.18-2.94.78-2.26,1.18-3.83,1.37-5.64.67-.95-.36-.84-.67.63-1.83,1.44-1.14,1.69-1.81,1.33-3.63-.33-1.65-.22-2.09.42-1.7,1.12.69,3.71-2.24,3.18-3.61-.28-.72-.04-.89.76-.58,1.05.4,1.51-.36,1.24-2.04-.05-.3.2-.54.54-.54s.84-1.05,1.09-2.34c.26-1.28,1.91-4.51,3.68-7.18,1.77-2.66,3.23-5.09,3.23-5.39,0-.3.65-1.36,1.42-2.34,1.02-1.3,1.42-2.94,1.42-5.96.01-3.5-.27-4.45-1.79-5.97-.99-.99-2.14-1.59-2.56-1.33s-1.17-.1-1.68-.79c-.64-.88-1.07-1.01-1.43-.43-.28.46-1.06.82-1.73.82-1.06,0-1.07-.11-.14-.77.82-.57.65-.64-.72-.25-2.38.66-5.86,3.15-5.41,3.87.2.32-1.28,3.28-3.29,6.59-2,3.31-4.89,8.45-6.41,11.41-1.53,2.96-3.44,6.36-4.25,7.55-.81,1.19-1.48,2.8-1.48,3.59,0,.79-.83,2.87-1.83,4.62-1,1.75-1.67,3.58-1.48,4.06.19.49-.11,1.48-.67,2.21s-1,1.84-1.03,2.46c-.01.62-.83,1.89-1.82,2.82-.99.93-1.8,2.16-1.8,2.74s1-.21,2.22-1.74c2.88-3.63,2.81-3.57,2.81-2.3,0,.6-.81,2.3-1.81,3.76-2.41,3.56-3.06,9.4-1.15,10.42.73.39,1.59.48,1.9.2.31-.28.3-.05-.03.51-.44.76-.29.9.6.57.68-.26,1.11-.12,1.02.33-.28,1.27,3.68,2.32,5.47,1.46.85-.41,3.65-.95,6.22-1.2,2.57-.25,6.93-.94,9.7-1.53,7.46-1.59,12.16-2.32,12.7-1.99.47.28-4.29,12.87-5.89,15.58-.42.71-.58,1.57-.37,1.91.4.64-1.21,6.02-3.87,12.97-.83,2.17-1.35,4.37-1.16,4.89.21.55.03.73-.43.45-.52-.32-.63.01-.32.98.29.91-.23,2.9-1.36,5.25-1.95,4.04-2.27,5.67-1.11,5.67s.83,3.32-.67,6.63c-.76,1.69-2.06,4.55-2.87,6.35-.82,1.8-1.48,3.81-1.48,4.46s-.4,2.05-.89,3.13c-.67,1.47-.68,2.02-.06,2.23.61.21.57.92-.18,2.71-.56,1.34-.8,3-.53,3.7h.01c.3.78.59.93.77.39.16-.48.61-.67.99-.43.39.24,1.14-.16,1.68-.89,1-1.37,2.59-1.78,3.27-.84.21.29.46-1.15.55-3.21.09-2.06.48-3.85.87-3.98.39-.13.51-1.02.27-1.98-.45-1.78.73-2.49,1.4-.84.2.49.25-.23.12-1.62-.27-2.74,1.22-5.75,2.85-5.75.56,0,1.39-.57,1.83-1.26.77-1.2.79-1.2.42,0-.22.69-.16,1.25.12,1.24.59-.01,5.2-6.87,5.18-7.7,0-.3-.31-.07-.68.51-1.24,1.96-1.59.16-.37-1.89,1-1.68,1.01-1.8.06-.64-.63.77-1.15,1.11-1.15.75s-.39-.25-.86.22c-.47.47-1.36.86-1.98.86-.61,0-.1-.62,1.13-1.37,1.83-1.11,2.18-1.72,1.89-3.26-.42-2.18,1.54-4.83,3.12-4.22,1.21.46,3.53-2.16,4.57-5.16l.75-2.16-1.5,1.8c-1.79,2.14-1.04.53,1.16-2.51.86-1.19,2.11-3.59,2.79-5.34,1.09-2.81,1.1-3.07.09-2.23-1.03.85-1.06.74-.36-1.12.43-1.14,1.05-2.24,1.37-2.44,1.49-.96,5.04-8.92,4.66-10.44-.24-.93-.03-1.87.48-2.18.57-.35.71-.25.37.28-.28.46-.32.83-.09.83.45,0,2.07-3.49,2.16-4.67.03-.39.36-1.2.72-1.78.37-.59,1.17-3.01,1.8-5.39.62-2.38,1.5-4.33,1.95-4.33s1.06-.24,1.36-.54-.02-.54-.7-.54h0c-2.05,0-.58-1.34,2.47-2.25,2.9-.87,3.56-1.65,1.95-2.3-.49-.2,0-.39,1.08-.42,1.09-.03,1.98-.23,1.98-.44,0-.86-2.11-5.37-2.52-5.37-.24,0-.21.4.07.9.4.7.29.7-.47-.01-.83-.76-.83-1.29-.03-3.23.53-1.28,1.88-4.82,3-7.87,1.12-3.05,2.75-6.93,3.61-8.62,1.24-2.42,1.64-4.75,1.92-11.03.24-5.33.07-8.48-.49-9.53-.92-1.72-2.61-2.08-3.2-.67ZM1833.85,460.99c.4,0,.72.32.72.72s-.32.72-.72.72-.72-.32-.72-.72.32-.72.72-.72ZM1870.06,464.88c-.24.63-.72,1.14-1.08,1.14-.99,0-.76-1.16.44-2.16,1.17-.97,1.32-.74.64,1.02ZM1429.43,119.1c-9.38-9.8-13.91-15.85-10.55-14.1,10.49,5.47,51.56,56.06,45.36,55.87-1.12-.04-5.71-5.59-10.21-12.34h0c-4.49-6.75-15.57-20-24.61-29.44ZM1167.86,352.47c0,1.29-.47,2.35-1.04,2.35s-1.69-1.06-2.49-2.35c-.8-1.29-.33-2.35,1.04-2.35s2.49,1.06,2.49,2.35ZM1341.4,87.16c3.12,3.76,2.42,4.13-2.25,1.17-3.6-2.28-1.59-7.38,2.79-7.09,1.92.13,1.85.57-.24,1.4-2.33.94-2.4,1.98-.3,4.51ZM110.43,285.02c-1.22-.42-3.35-1.57-4.72-2.57l-2.5-1.8,2.8.88c1.54.48,3.67,1.64,4.72,2.57l1.92,1.69-2.22-.76ZM1952.33,456.58c-.72-1.86-.89-5.3-.38-7.64.58-2.65,1.38-1.38,2.14,3.39h0c1.28,8,.44,10.01-1.76,4.25ZM149.39,27.81c-.31-.81.34-.51,1.43.68h0c1.1,1.19,1.35,1.85.56,1.48-.79-.37-1.68-1.34-1.99-2.16ZM1985.95,413.61c.6,2.29.56,5.46-.09,7.05-.64,1.59-1.13-.28-1.09-4.16.09-3.87.58-5.18,1.17-2.89ZM1992.99,492.43v-.02c-.18-4.77-1.01-7.57-1.85-6.21-2.16,3.49-4.83-1.38-3.16-5.75.73-1.9-.32-4.06-2.34-4.84-6.84-2.63-2.13-20.35,5.41-20.35,1.65,0,2.68-4.52,2.68-11.75,0-8.87-.86-11.75-3.52-11.75-1.94,0-3.52-1.59-3.52-3.52s-1.7-3.52-3.78-3.52c-2.35,0-3.28-1.3-2.44-3.49,1.47-3.84-6.09-9.15-9.13-6.42-1.02.92-1.16-.27-.3-2.65.86-2.38,2.2-6.88,2.98-9.99.91-3.61,3.11-5.65,6.11-5.65,3.27,0,4.28-1.09,3.27-3.72-.79-2.04-1.5-7.07-1.61-11.16-.1-4.09-.72-6.12-1.37-4.51-2.96,7.33-4.98,1.53-4.9-14.1.05-9.37-1.11-19.68-2.58-22.9l-2.67-5.87.22,7.05c.37,11.48-.68,12.38-2.76,2.35-1.07-5.17-1.99-16.07-2.08-24.22-.07-8.15-1.04-14.26-2.15-13.58-1.11.68-1.48-1.53-.83-4.91.81-4.24.34-5.63-1.51-4.49-1.48.91-2.69,1.16-2.69.54s-.71-2.97-1.57-5.22c-1.11-2.89-.72-3.57,1.33-2.31,2.21,1.36,2.5-.37,1.23-7.25-.91-4.97-2.3-9.57-3.09-10.22-.78-.65-1.75-4.62-2.16-8.84-.41-4.22-2.25-10.56-4.1-14.1-4.72-9.04-4.29-14.65,1.12-14.65,2.48,0,4.91-1.22,5.41-2.72.5-1.49,5.61-3.57,11.36-4.6,6.92-1.25,6.27-1.55-1.95-.91-10.09.79-11.84.41-9.39-2.04,1.66-1.66,6.7-3.75,11.21-4.65,12.18-2.43,21.34-7.04,20.16-10.12-.57-1.5,1.62-3.39,4.88-4.21,4.53-1.14,5.33-2.2,3.39-4.54-1.39-1.68-1.92-3.67-1.18-4.41.75-.74-1.4-3.17-4.78-5.38-5.77-3.78-6.4-3.78-10.54-.03-2.74,2.48-4.97,3.08-5.89,1.59-2.15-3.48-8.88-.24-7.41,3.57.79,2.05-.44,3.22-3.39,3.22-2.54,0-4.63-1.06-4.63-2.35s-2.08-2.35-4.62-2.35c-3.15,0-4.19-1.13-3.27-3.52,1.04-2.71-.48-3.51-6.53-3.49-5.95.03-7.02.59-4.36,2.31,3.04,1.97,2.99,2.28-.42,2.31-2.93.03-4.64-3.44-6.66-13.47-1.49-7.43-4.14-18.8-5.88-25.25-1.74-6.46-3.88-16.33-4.74-21.93-.86-5.6-3.04-13-4.84-16.45-1.8-3.45-3.28-6.95-3.29-7.79-.05-5.19-18.7-28.07-28.91-35.48-10.48-7.6-12.35-8.26-13.56-4.8-1.28,3.63-1.65,3.58-4.01-.59-2.32-4.1-2.93-4.21-5.67-.96-1.69,2-5.17,5.17-7.73,7.05-4.62,3.38-4.62,3.35-.25-3.64l4.41-7.05-6.79,5.87c-3.74,3.23-7.12,6.57-7.51,7.42-.4.85-2.81,3.95-5.36,6.89-2.55,2.94-5.22,8.06-5.92,11.38-.71,3.31-5.87,17.13-11.48,30.7-11.3,27.33-20.24,50.49-33.12,85.75-4.72,12.92-11.47,29.36-14.99,36.53-3.53,7.17-6.18,15.62-5.91,18.8.28,3.17-1.04,9.47-2.94,13.99-1.9,4.52-4.29,10.87-5.33,14.1-1.04,3.23-3.63,9.93-5.76,14.9-2.14,4.96-2.77,8.34-1.41,7.5,2.94-1.81,3.33,3.88.5,7.09-1.08,1.23-3.31,5.63-4.95,9.79-2.52,6.4-2.42,8.1.65,11.17,3.26,3.26,2.91,5.19-3.56,19.46-10.03,22.11-14.12,36.43-10.98,38.37,1.77,1.1,1.74,2.97-.09,6.4-4.06,7.58-3.22,12.27,2.05,11.46,2.55-.39,5.37-1.44,6.26-2.33.89-.9,3.55-1.63,5.89-1.63,2.59,0,4.84-2.31,5.74-5.87.81-3.23,2.41-5.87,3.57-5.87s2.1-1.12,2.1-2.49-1.06-1.84-2.35-1.04c-1.29.8-2.35.33-2.35-1.04s1.09-2.49,2.43-2.49c3.75,0,6.79-10.12,4.07-13.51-2.99-3.71.82-8.6,10.43-13.39,6.48-3.24,6.91-3.19,5.55.54-.81,2.22,1.1.87,4.26-3,4.63-5.7,5.56-9.03,4.78-17.38-.53-5.68-2.09-11.69-3.47-13.34-1.87-2.25-1.13-3.78,2.94-6.01,2.99-1.65,7.27-2.72,9.5-2.37,2.47.38,5.91-2.42,8.8-7.16,5.45-8.94,6.3-14.71,1.16-7.91-1.9,2.51-3.45,3.46-3.45,2.13s2.15-4.38,4.78-6.76c2.63-2.38,6.81-8.9,9.28-14.49,2.47-5.59,5.87-10.56,7.55-11.06,16.68-4.9,38.78-12.25,51.65-17.16,8.64-3.3,17.09-5.46,18.79-4.81,2.99,1.15,16.54,50.7,19.76,72.26.87,5.81,3.19,12.42,5.15,14.69,1.96,2.26,2.75,4.11,1.75,4.11s-.76,1.32.55,2.94c1.31,1.62,5.29,14.78,8.84,29.26,3.55,14.48,7.56,26.11,8.9,25.84,2.25-.44,5.7,12.61,7.02,26.54.32,3.37,2.03,5.87,4.03,5.87s4.67,1.59,6.13,3.52c2.95,3.92,10.27,30.78,10.27,37.7,0,3.75,2.36,12.19,8.48,30.37.96,2.86,1.51,2.9,3.13.28,1.39-2.25,2.47-.85,3.67,4.76.94,4.37,2.86,9.38,4.28,11.14h0c1.74,2.15,2.87,2.34,3.45.57.48-1.44,1.84-2.02,3.02-1.29s2.15-1.17,2.15-4.21,1.18-6.72,2.61-8.16c1.53-1.52,1.79-3.93.66-5.75-2.7-4.32-3.63-8.72-4.01-18.86ZM1987.32,446.79c.62-.62,1.75.51,2.51,2.51,1.59,4.14.24,4.87-2.08,1.12-.85-1.38-1.04-3.01-.43-3.62h0ZM1757.84,393.55h0c-.78.78-1.34-.61-1.23-3.09.11-2.74.67-3.29,1.42-1.42.67,1.69.6,3.72-.19,4.5ZM1778.74,349.54c-.8,1.29-1.85,2.35-2.35,2.35s-1.55-1.06-2.35-2.35c-.8-1.29.26-2.35,2.35-2.35s3.15,1.06,2.35,2.35ZM1876.64,206.3h0c-2.16,1.97-5.67,3.24-7.8,2.81-2.13-.43-7.95,1.07-12.92,3.33-4.97,2.26-9.81,4.51-10.74,5-2.58,1.35,2.3-12.12,14.19-39.17l10.75-24.44,5.22,24.44c4.87,22.79,4.96,24.68,1.3,28.03ZM1890.34,92.28c-1.29.8-2.35-.14-2.35-2.07s1.06-4.18,2.35-4.98c1.29-.8,2.35.14,2.35,2.07s-1.06,4.18-2.35,4.98ZM1939.75,199.27h0c-1.9-1.2-2.84-2.79-2.1-3.54.75-.75,2.7.25,4.33,2.22,3.39,4.09,2.74,4.47-2.23,1.32ZM1980.31,432.01h0c-1.69,1.69-3,1.73-3.99.13-1.67-2.7,2.82-6.32,5.06-4.09.8.8.32,2.58-1.06,3.96ZM108.16,417c.37.79-.3.53-1.48-.57h0c-1.18-1.1-1.49-1.74-.67-1.43.81.31,1.78,1.21,2.15,2ZM1221.9,159.81c1.3,0,2.35,2.1,2.35,4.7s-1.05,4.7-2.35,4.7-2.35-2.1-2.35-4.7,1.05-4.7,2.35-4.7ZM1404.64,143.6c0,1.94-1.93.69-5-3.22-2.92-3.72-2.84-3.81.89-.89h0c2.26,1.77,4.11,3.62,4.11,4.11ZM1998.69,499.91c-1.29,0-3-1.06-3.8-2.35-.8-1.29-.4-2.35.9-2.35s3,1.06,3.8,2.35c.8,1.29.4,2.35-.9,2.35ZM113.93,425.02l1.04,2.34-1.7-1.62c-.94-.89-2.38-2.83-3.21-4.31l-1.51-2.69,2.18,1.97c1.2,1.09,2.64,3.03,3.21,4.31ZM1786.97,345.12c0-1.29,1.06-3,2.35-3.8,1.29-.8,2.35-.4,2.35.9s-1.06,3-2.35,3.8c-1.29.8-2.35.4-2.35-.9ZM144.25,19.37l-.85-2.41,1.57,1.75c.86.96,2.15,3.01,2.87,4.55l1.3,2.8-2.02-2.13c-1.11-1.18-2.4-3.22-2.87-4.55ZM1439.38,344.37c.76-2.04,6.22-10.05,12.13-17.8,21.38-28.05,42.76-78.77,35.21-83.55-3.04-1.92-1.45-3.2,3.09-2.48.97.15,1.76-1.9,1.76-4.56s-1.06-4.19-2.35-3.39h0c-1.48.9-2.35-4.28-2.35-13.92s-2.01-21.64-5.09-31.27c-5.67-17.7-8.49-22.48-12.39-20.98-3.69,1.42-10.16-4.4-23.04-20.77-6.1-7.75-17.88-20.33-26.16-27.96-14.5-13.36-14.96-14.12-12.56-21.02,1.84-5.29,1.78-7.39-.26-8.07-1.51-.5-2.16-1.89-1.43-3.07.73-1.18.21-2.15-1.16-2.15s-2.49,1.52-2.49,3.39c0,4.26-3.89,6.79-7.25,4.71-1.84-1.14-1.84-2.29,0-4.13,1.4-1.4,2.55-4.69,2.55-7.3,0-4.69-.05-4.69-3.45.18-1.9,2.71-5.6,5.49-8.22,6.18-5.11,1.34-6.74-1.92-1.83-3.67,1.61-.58,2.17-1.87,1.23-2.88-.94-1.01-3.05-.86-4.7.32-5.83,4.18-15.57,1.47-26.31-7.33-5.98-4.9-11.54-8.24-12.36-7.42-.82.82-2.69.7-4.16-.26-1.47-.96-.77.02,1.56,2.17,3.05,2.82,3.41,4.2,1.28,4.97-2.06.74-1.35,2.79,2.34,6.81,8.14,8.87,6.59,12.1-9.28,19.39-24.83,11.4-52.81,44.2-72.29,84.75-5.47,11.39-9.8,21.5-13.17,30.91-3.33-1.67-6.18-2.34-7.62-1.45-1.25.77-2.28.36-2.28-.93s-3.82-1.89-8.81-1.29c-4.85.58-7.49.42-5.87-.34,6.12-2.9,2.56-5.69-7.05-5.54-7.74.13-8.93.62-5.29,2.18,3.92,1.68,3.4,2.05-3.07,2.18-4.62.1-7.19-.79-6.32-2.18,1.71-2.77-9.56-2.88-16.45-.16-6.21,2.46-12.38.44-7.83-2.56,2.01-1.33-.66-1.92-7.44-1.66-5.81.22-14.14-.4-18.5-1.38-6.08-1.37-7.51-1.1-6.11,1.15,1.4,2.26.24,2.47-4.99.89-3.75-1.13-17.56-2.08-30.69-2.1-13.13-.03-24.7-.87-25.7-1.87-3.01-3,45.47-48.69,51.67-48.69.78,0,6.56-3.69,12.84-8.2,6.28-4.51,15.17-9.77,19.74-11.68,10.57-4.41,12.16-2.64,15.8,17.54,3.39,18.81,8.95,32.47,14.4,35.38,6.29,3.36,7.42,2.71,5.88-3.4-.94-3.73-.09-6.68,2.54-8.81,2.17-1.76,3.31-2.14,2.53-.83-.78,1.31.03,5.01,1.82,8.22,2.15,3.88,3.25,2.95,3.32-2.79.11-11.75,5.08-32.48,7.79-32.48,1.21,0,1.49,1.85.63,4.11-1.18,3.11-.9,3.45,1.16,1.41,2.72-2.7,3.85-11.04,5.65-41.94.53-9.04,1.72-26.23,2.65-38.18l1.7-21.73-7.98,2.69c-4.39,1.48-9.04,3.45-10.33,4.38-1.29.93-14.51,5.63-29.37,10.45-52.07,16.88-90.26,39.36-125.22,73.72-12.26,12.06-20.7,22.82-25.52,32.57-6.49,13.13-7.11,16.3-6.32,32.12.76,15.14,1.9,18.96,8.2,27.73,4.7,6.54,12.13,12.66,20.82,17.15l13.5,6.99,61.37,1.9c33.76,1.05,63.75,2.42,66.66,3.05,9.62,2.07,11.3.59-41.51,36.73-14.75,10.1-25.8,18.36-24.55,18.36s3.55-1.27,5.1-2.82,2.82-1.81,2.82-.43c0,2.3-42.74,29.09-46.41,29.09-.99,0-3.12,2.11-4.73,4.7-1.61,2.58-1.97,4.7-.8,4.7,3.23,0-9.49,12.88-16.19,16.4-3.23,1.7-13.28,8.01-22.32,14.03-9.04,6.02-18.32,11.66-20.6,12.53-6.43,2.43-30.56,19.32-35.56,24.89-2.46,2.74-5.71,4.98-7.23,4.98s-5.31,2.81-8.44,6.25c-5.13,5.63-5.24,6.11-1,4.76,4.43-1.4,4.45-1.32.38,1.38-16.22,10.77-28.44,21.2-31.29,26.71-3.16,6.09-3.12,6.24.87,2.81,2.31-1.99,5.79-4.51,7.73-5.6,3.04-1.71,3.08-1.43.3,1.99-2.78,3.43-2.7,3.97.59,3.97,2.1,0,3.81-.89,3.81-1.97s2.76-3.23,6.14-4.77c6.84-3.12,15.94-1.38,13.5,2.58-.95,1.53-.47,1.86,1.18.84,1.51-.93,2.22-2.57,1.56-3.62-.65-1.05.39-3.23,2.31-4.82,1.92-1.6,3.5-2.01,3.5-.92s1.64-.36,3.65-3.22c3.8-5.43,14.82-12.74,11.77-7.82-.9,1.46,0,2.58,2.06,2.58,4.36,0,4.93-6.16.73-7.81-1.62-.63.5-1.91,4.7-2.84,4.2-.93,7.64-3.02,7.64-4.65s2.64-4.69,5.87-6.81c3.23-2.12,5.87-2.77,5.87-1.44,0,4.65,3.58,2.26,8.89-5.94,2.95-4.55,8.24-9.45,11.75-10.86,9.06-3.67,27.31-6.42,28.7-4.34.65.97,11.41-2.99,23.91-8.8,17.01-7.9,22.66-11.62,22.42-14.79-.18-2.33-1.32-3.61-2.54-2.85-1.31.81-1.43.09-.3-1.74,1.46-2.36.83-2.67-2.57-1.27-8.78,3.59-12.72,4.18-12.72,1.88,0-3.35,13.74-5.62,18.53-3.06,2.55,1.36,5.31,1.27,7.44-.24,2.66-1.88,2.37-2.1-1.3-1.01-4.63,1.38-4.63,1.35-.14-2.13,2.51-1.94,3.57-3.57,2.35-3.6-1.22-.04-.18-1.25,2.29-2.68,4.37-2.54,4.38-2.7.14-5.8-4.08-2.98-2.37-4.45,4.06-3.51.91.13,6.55-1.86,12.53-4.42,11.89-5.1,16.2-5.85,14.11-2.47-3.74,6.05,4.87,3.76,21.9-5.81,20.25-11.39,28.76-18.93,11.72-10.38-5.63,2.82-9.16,3.99-7.84,2.6,1.31-1.39,10.04-6.25,19.38-10.8,8.6-4.18,18.49-10.55,27.58-17.37,8.7,34.66,33.14,58.45,73.49,71.51,19.02,6.16,56.7,5.95,75.84-.42,17.07-5.68,46.17-22.51,48.17-27.85ZM1482.17,249.04c1.29-.8,2.34-.6,2.32.45-.02,1.05-1.06,3.49-2.32,5.43-1.97,3.04-2.29,2.98-2.32-.45-.02-2.19,1.02-4.63,2.32-5.43ZM1197.52,146.4h0c.63.64.28,4.51-.78,8.62-2.1,8.1-5.38,7.29-5.38-1.33,0-5.16,3.8-9.65,6.16-7.29ZM1034.24,412h0c-1.77,2.15-4.15,3.91-5.29,3.91-3.59,0-2.24-2.09,3.22-5,4.79-2.55,4.99-2.45,2.06,1.09ZM1117.21,379.41c2.51-1.9,5.68-3.42,7.05-3.37,1.37.04.44,1.63-2.07,3.52-2.51,1.9-5.68,3.42-7.05,3.37-1.37-.04-.44-1.63,2.07-3.52ZM1161.97,303.16c-.79,1.28-2.43,2.32-3.65,2.32-3.38,0-2.64-1.69,1.43-3.24,2.09-.8,3.03-.41,2.21.92ZM1400.53,123.04h0c2.26,1.77,4.11,3.62,4.11,4.11,0,1.93-1.93.69-5-3.22-2.92-3.73-2.84-3.81.89-.89ZM1390.12,121c1.38,0,3.2,1.13,4.05,2.51,2.53,4.09-.35,4.96-3.57,1.07-1.85-2.23-2.03-3.58-.47-3.58ZM1377.49,323.26c-.72,1.17-2.84,2.13-4.7,2.13-4.86,0-4.17-1.6,1.32-3.03,2.59-.68,4.11-.27,3.39.9ZM1405.23,299.85c2.26-1.77,4.11-2.2,4.11-.95,0,5.02-24.76,19.45-33.36,19.45-5.69,0-18.6,5.99-16.8,7.79.88.88-.75,1.61-3.62,1.61s-4.58-1.05-3.78-2.35c.8-1.29.6-2.48-.45-2.65-1.05-.17-4.02-.67-6.6-1.13-2.59-.45-7.34-1.26-10.57-1.78-6.21-1.01-21.65-9.18-29.11-15.4-6.52-5.44-13.06-21.18-13.13-31.56-.08-14.58,6.24-34.89,19.67-63.19,15.18-31.99,20.62-38.96,50.12-64.25,22.69-19.45,27.15-22.03,30.03-17.36.81,1.31,2.46,1.78,3.66,1.04,1.2-.74,2.19-.12,2.19,1.39s1.54,2.15,3.43,1.42c3.78-1.45,20.76,16.58,18.72,19.88-.66,1.07.48,5.41,2.54,9.64l3.74,7.71-4.81-5.55c-2.65-3.05-4.82-5.02-4.82-4.38,0,2.17,19.08,39.3,20.2,39.3.61,0-.02-2.11-1.4-4.7-1.66-3.1-1.7-4.7-.13-4.7,1.31,0,3.08,2.74,3.92,6.1,1.13,4.49,2.05,5.27,3.52,2.94,1.09-1.74,1.44-4.92.77-7.07-.67-2.15.02-4.68,1.52-5.61,2.97-1.84,2.13,10.13-1.33,18.92l-1.85,4.7,3.87-4.7c2.13-2.58,3.74-3.64,3.56-2.35-.87,6.57.52,8.7,4.93,7.55,4.01-1.05,4.47-.37,3.21,4.64h0c-1.97,7.84-10.04,23.83-10.16,20.12-.13-4.09-7.14-3.71-7.14.39,0,1.83-2.14,8.32-4.76,14.43-2.61,6.11-4.23,11.62-3.59,12.27.64.64,2.23-1.62,3.52-5.03,2.58-6.78,5.59-8.75,3.2-2.09-1.51,4.22-14.37,21.54-28.92,38.92-4.52,5.41-6.37,8.38-4.11,6.6ZM1733.26,538.69c1.38-1.21,2.86-2.21,3.28-2.22,1.05-.03,8.55-5.68,8.66-6.52.21-1.61.32-1.71.87-.84.44.69,1.36.3,3.66-1.52,1.69-1.34,3.08-2.72,3.05-3.07-.05-1.28,2.14-2.99,3.42-2.65.76.2,1.72-.22,2.3-1,.54-.74,2.06-2.01,3.38-2.83,1.32-.82,2.45-1.78,2.5-2.13.06-.35,1.04-1.14,2.18-1.76,5.28-2.83,24.8-21.38,28.71-27.29,7.27-10.97,5.72-24.24-3.67-31.38-4.28-3.25-7.92-4.16-16.68-4.16-7.17,0-14.81,1.51-16.85,3.32-.38.33-1.13.61-1.67.61s-3.03,1.46-5.52,3.24c-10.51,7.5-19.36,24.41-15.03,28.74,1.31,1.31,1.35,1.3,1.7-.7.2-1.12.81-2.2,1.37-2.38.71-.24.9.09.63,1.12-.21.8-.1,1.89.24,2.43.49.78.63.73.63-.21.01-1.34,6.49-8.03,7.14-7.37.23.24-.63,1.31-1.91,2.39-1.28,1.08-2.33,2.42-2.33,2.98,0,.65.6.34,1.62-.82,1.93-2.21,8.52-7.49,9.35-7.49.32,0,.82-.33,1.1-.74.28-.41,2.05-1.54,3.93-2.51,1.88-.98,3.41-2.04,3.41-2.35s1.13-1.05,2.51-1.62c9.11-3.81,17.62-2.26,17.62,3.2s-8.9,13.47-48.59,44.53c-3.99,3.13-7.96,6.06-8.8,6.51-.85.45-1.54,1.18-1.54,1.61,0,.99-1.81,2.67-10.75,9.98-9.24,7.56-11.17,10.37-11.17,16.25,0,5.13,1.44,7.72,5.44,9.75,2.62,1.34,3.84,1.6,3.29.72-.18-.3,5.7-.54,13.07-.54,10.34,0,13.36-.21,13.23-.9-.1-.52.56-.9,1.57-.9.97,0,1.95-.32,2.2-.72.27-.44,5.48-.72,13.22-.72,20.56,0,33-1.11,26.48-2.37-.89-.17,1.45-.36,5.21-.42,3.75-.06,7.31-.42,7.9-.81.86-.55.71-.71-.72-.76h0c-1.65-.06-1.68-.11-.36-.68,1.74-.75,1.57-.82-2.41-1.01-2.08-.1-3.36-.56-3.81-1.37-.45-.8-1.23-1.09-2.26-.85-3.51.84-6.38.84-7.2.01-.53-.53-1.43-.66-2.3-.32-.78.31-1,.58-.48.61.52.03.74.37.5.77-.63,1.02-3.03.89-3.53-.18-.34-.72-.5-.72-.84,0-.24.5-1.59.87-3.06.83-2.42-.07-2.49-.12-.84-.69,1.4-.48,1.08-.56-1.41-.36-1.76.14-3.33.61-3.47,1.05-.4,1.19-6.67.95-9.13-.36-1.18-.63-3.61-1.42-5.39-1.75l-3.23-.61,3.04.16c5.98.31,1.86-.78-4.71-1.25-4.59-.33-6.56-.24-6.25.27.28.46-.39.75-1.74.75-1.21,0-2.2.32-2.2.72s.61.72,1.35.72,1.79.54,2.34,1.19c.9,1.09.74,1.14-1.89.58-4.45-.95-8.65-.84-8.45.21.1.49-.14.9-.54.9s-.72-.27-.72-.6-.83-.98-1.84-1.44c-1.01-.46-1.64-1.16-1.39-1.57.25-.4.74-.55,1.09-.33s1.9-.83,3.42-2.32c1.53-1.5,4.05-3.77,5.6-5.05,1.72-1.42,2.25-2.16,1.38-1.91-.99.28-.65-.28,1.08-1.79ZM1739.29,477.89c-2.57,1.96-2.59,1.97-1.43.21.64-.98,1.01-1.92.83-2.1s.47-.39,1.44-.47c.97-.08,1.76-.03,1.76.12s-1.17,1.16-2.6,2.25ZM1748.17,527.01c1.14-.89,1.16-.87.27.27-.94,1.2-1.53,1.58-1.53.99,0-.15.57-.72,1.26-1.26ZM1706.4,559.44c-.53,0-2.09-2.19-1.79-2.5.17-.17.71.32,1.19,1.1.48.77.75,1.4.6,1.4ZM1779.84,553.92c.52-.21,1.14-.18,1.38.06s-.19.41-.94.38c-.84-.03-1.01-.2-.43-.43ZM1763.8,552.98c.59,0,1.08.32,1.08.72s-.49.72-1.08.72-1.08-.32-1.08-.72.48-.72,1.08-.72ZM1727.75,543.31c-.46,1.21-.73,1.29-1.28.4-.22-.35.07-.82.64-1.04.69-.26.9-.05.64.64ZM580.3,361.34c-.37,2.62-1.96,6.36-3.53,8.31-2.55,3.17-2.79,3.16-2.14,0,.4-1.96,1.99-5.7,3.54-8.31l2.8-4.73-.67,4.74ZM1568.36,538.69c1.38-1.21,2.86-2.21,3.28-2.22,1.05-.03,8.55-5.68,8.66-6.52.21-1.61.32-1.71.87-.84.44.69,1.36.3,3.66-1.52,1.69-1.34,3.08-2.72,3.05-3.07-.05-1.28,2.14-2.99,3.42-2.65.76.2,1.72-.22,2.3-1,.54-.74,2.06-2.01,3.38-2.83,1.32-.82,2.45-1.78,2.5-2.13.06-.35,1.04-1.14,2.18-1.76,5.28-2.83,24.8-21.38,28.71-27.29,7.27-10.97,5.72-24.24-3.67-31.38-4.28-3.25-7.92-4.16-16.68-4.16-7.17,0-14.81,1.51-16.85,3.32-.38.33-1.13.61-1.67.61s-3.03,1.46-5.52,3.24c-10.51,7.5-19.36,24.41-15.03,28.74,1.31,1.31,1.35,1.3,1.7-.7.2-1.12.81-2.2,1.37-2.38.71-.24.9.09.63,1.12-.21.8-.1,1.89.24,2.43.49.78.63.73.63-.21.01-1.34,6.49-8.03,7.14-7.37.23.24-.63,1.31-1.91,2.39-1.28,1.08-2.33,2.42-2.33,2.98,0,.65.6.34,1.62-.82,1.93-2.21,8.52-7.49,9.35-7.49.32,0,.82-.33,1.1-.74.28-.41,2.05-1.54,3.93-2.51s3.41-2.04,3.41-2.35,1.13-1.05,2.51-1.62c9.11-3.81,17.62-2.26,17.62,3.2s-8.9,13.47-48.59,44.53c-3.99,3.13-7.96,6.06-8.8,6.51-.85.45-1.54,1.18-1.54,1.61,0,.99-1.81,2.67-10.75,9.98-9.24,7.56-11.17,10.37-11.17,16.25,0,5.13,1.44,7.72,5.44,9.75,2.62,1.34,3.84,1.6,3.29.72-.18-.3,5.7-.54,13.07-.54,10.34,0,13.36-.21,13.23-.9-.1-.52.56-.9,1.57-.9.97,0,1.95-.32,2.2-.72.27-.44,5.48-.72,13.22-.72,20.56,0,33-1.11,26.48-2.37-.89-.17,1.45-.36,5.21-.42,3.75-.06,7.31-.42,7.9-.81.86-.55.71-.71-.72-.76h0c-1.65-.06-1.68-.11-.36-.68,1.74-.75,1.57-.82-2.41-1.01-2.08-.1-3.36-.56-3.81-1.37-.45-.8-1.23-1.09-2.26-.85-3.51.84-6.38.84-7.2.01-.53-.53-1.43-.66-2.3-.32-.78.31-1,.58-.48.61.52.03.74.37.5.77-.63,1.02-3.03.89-3.53-.18-.34-.72-.5-.72-.84,0-.24.5-1.59.87-3.06.83-2.42-.07-2.49-.12-.84-.69,1.4-.48,1.08-.56-1.41-.36-1.76.14-3.33.61-3.47,1.05-.4,1.19-6.67.95-9.13-.36-1.18-.63-3.61-1.42-5.39-1.75l-3.23-.61,3.04.16c5.98.31,1.86-.78-4.71-1.25-4.59-.33-6.56-.24-6.25.27.28.46-.39.75-1.74.75-1.21,0-2.2.32-2.2.72s.61.72,1.35.72,1.79.54,2.34,1.19c.9,1.09.74,1.14-1.89.58-4.45-.95-8.65-.84-8.45.21.1.49-.14.9-.54.9s-.72-.27-.72-.6-.83-.98-1.84-1.44c-1.01-.46-1.64-1.16-1.39-1.57.25-.4.74-.55,1.09-.33s1.9-.83,3.42-2.32c1.53-1.5,4.05-3.77,5.6-5.05,1.72-1.42,2.25-2.16,1.38-1.91-.99.28-.65-.28,1.08-1.79ZM1574.38,477.89c-2.57,1.96-2.59,1.97-1.43.21.64-.98,1.01-1.92.83-2.1s.47-.39,1.44-.47c.97-.08,1.76-.03,1.76.12s-1.17,1.16-2.6,2.25ZM1583.27,527.01c1.14-.89,1.16-.87.27.27-.94,1.2-1.53,1.58-1.53.99,0-.15.57-.72,1.26-1.26ZM1541.5,559.44c-.53,0-2.09-2.19-1.79-2.5.17-.17.71.32,1.19,1.1.48.77.75,1.4.6,1.4ZM1614.93,553.92c.52-.21,1.14-.18,1.38.06s-.19.41-.94.38c-.84-.03-1.01-.2-.43-.43ZM1598.9,552.98c.59,0,1.08.32,1.08.72s-.49.72-1.08.72-1.08-.32-1.08-.72.48-.72,1.08-.72ZM1562.85,543.31c-.46,1.21-.73,1.29-1.28.4-.22-.35.07-.82.64-1.04.69-.26.9-.05.64.64ZM580.98,356.59v.02s0-.02,0-.02h0ZM495.75,332.24c-2.54,2.54-8.55,2.9-8.55.51,0-1.18,2.29-2.14,5.09-2.14s4.36.74,3.46,1.64ZM1533.27,316.48c0,1.51-.91,2.74-2.02,2.74s-1.52-2.64-.9-5.87c.62-3.23,2.11-5.87,3.32-5.87,2.92,0,9.53-16.04,7.78-18.87-.75-1.22.27-1.59,2.27-.82,3.67,1.41,3.86.75,4.57-15.53.15-3.38,1.67-5.87,3.61-5.87,3.46-.02,7.96-12.18,5.8-15.68-.67-1.08-.17-1.96,1.09-1.96,2.52,0,6.14-10.3,8.45-24.05,1.72-10.23,4.93-12.33,22.23-14.53,7-.89,18.59-3.15,25.75-5.01,7.16-1.86,16.04-3.39,19.74-3.39s8.18-1.46,9.96-3.24c1.78-1.78,8.07-3.97,13.97-4.85,5.9-.89,10.12-2.6,9.37-3.81-.75-1.21,1.99-2.2,6.08-2.2,5.87,0,7.13-.8,5.99-3.78-1.12-2.91-.5-3.38,2.68-2.05,2.28.96,6.78,2.12,10.01,2.59,3.95.57,3.41.08-1.65-1.51-11.28-3.55-11.79-6.99-1.03-6.99,11.4,0,16.78-1.88,16.78-5.85,0-1.65,2.38-3.72,5.29-4.61,1.57-.48,2.6-1.04,3-1.56-1.91,9.39-3.76,19.01-5.42,28.35-2.53,14.21-6.17,31.66-8.08,38.77-1.91,7.11-2.59,13.22-1.52,13.59,1.08.37,1.64,3.01,1.25,5.87-.39,2.86-1.92,13.54-3.4,23.72-1.83,12.56-1.93,19-.3,20,1.62,1.01,1.64,5.04.06,12.45-2.09,9.79-1.81,11.5,2.6,15.91,2.72,2.72,4.43,5.77,3.8,6.79-.98,1.57-3.42,19.46-4.22,30.88-.71,10.01.73,18.92,2.84,17.62,1.39-.86,2.35,1.77,2.35,6.41,0,6.29.94,7.86,4.7,7.86,2.59,0,4.7-.89,4.7-1.98s1.22-1.23,2.71-.31c1.63,1.01,2.08.65,1.12-.89-.87-1.41-.05-3.43,1.82-4.47,3.46-1.94,3.74-2.61,3.74-9.09,0-2.16,1.21-3.05,2.94-2.17,1.62.82,1.13,0-1.09-1.82-2.91-2.39-3.32-4.02-1.46-5.88,3.08-3.08.49-15.47-2.82-13.43-1.27.78-1.06-1.29.44-4.6,1.51-3.31,4.16-6.02,5.89-6.02s3.22-1.85,3.31-4.11c.15-3.8.29-3.78,1.84.15,1.41,3.57,2.33,2.89,5.71-4.19,4.74-9.94,4.97-11.5,1.34-9.25-1.91,1.18-2.23-.32-1.1-5.15,1.17-4.99.95-5.87-.8-3.29-1.31,1.94-2.53,2.73-2.71,1.76-.58-3.09-1.28-5.18-3.14-9.43-2.59-5.88,2.67-11.68,8.01-8.83,3.44,1.84,4.55.73,6.8-6.78,3.57-11.9,3.39-13.79-.76-8.3-5.18,6.86-4.3,1.82.97-5.52,2.52-3.5,5.24-10.59,6.05-15.76,1.09-6.96.83-8.48-1.01-5.87-4.56,6.45-3.02-2.87,2.28-13.84,3.29-6.84,4.36-12.22,3.32-16.95-1.09-4.97-.68-6.74,1.46-6.27,1.77.39,3.29-2.2,3.74-6.39,2.83-26.35,5.77-42.88,10.29-57.92,6.28-20.9,13.83-52.26,14.9-61.9,1.19-10.73-4.03-33.07-9-38.57h0c-4.88-5.39-10.75-6.51-10.75-2.05,0,1.85-1.33,1.53-3.78-.93-3.47-3.47-4.34-3.18-10.73,3.61l-6.95,7.39,3.96-7.05c3.83-6.81,3.71-6.77-3.47,1.18-8.78,9.71-10.83,12.33-11.53,14.66-.28.96-.93,3.07-1.44,4.7-.5,1.63-1.5,7.19-2.22,12.36-.72,5.17-2.95,15.21-4.95,22.32-3.57,12.66-8.01,31.76-12.15,52.03-.09-.2-.3-.38-.66-.53h0c-1.55-.64-2.28-2.52-1.64-4.19.64-1.67-1.44-4.73-4.61-6.81-5.05-3.31-6.13-3.36-8.63-.35-1.57,1.89-4.04,3.43-5.5,3.4-1.46-.02-1.07-1.06.87-2.31,3.01-1.95,2.93-2.29-.59-2.32-2.34-.02-4.11,1.71-4.11,4.03,0,3.36-.97,3.05-5.57-1.76-3.06-3.2-5.18-6.51-4.71-7.34.47-.83-.87-2.18-2.99-2.99-2.12-.81-3.97-1.19-4.12-.83-.15.35-2.38,3.2-4.95,6.33-2.98,3.62-3.4,4.99-1.15,3.77,2.75-1.5,2.92-1.27.79,1.04-3.49,3.78-7.84,1.15-7.84-4.76,0-3.42-1.62-4.55-6.46-4.52-5.03.03-5.68.54-2.94,2.31,2.12,1.37,2.41,2.29.73,2.32-1.54.02-3.41-.96-4.16-2.16-2.09-3.38-10.96-1.97-9.62,1.53,1.38,3.61-1.02,3.81-9.03.76-4.44-1.69-6.82-1.39-9.36,1.15-2.37,2.37-3.69,2.59-4.32.71-.65-1.95-4.06-1.63-12.16,1.13-9.29,3.17-11.04,3.26-9.99.53.7-1.82,2.44-7.87,3.87-13.45,1.43-5.57,5.25-17.77,8.49-27.11,3.55-10.23,5.97-22.59,6.09-31.08.2-13.95.28-14.12,7.51-15.13,21.98-3.08,55.99-6.16,67.8-6.14,7.43.01,13.51-.86,13.51-1.94,0-2.29.55-2.39,22.88-4.22,9.35-.77,16.51-2.21,15.89-3.21-1.48-2.39,32.48-5.53,38.66-3.56,2.79.88,4.8.47,4.8-.98s-4.97-2.51-11.68-2.51c-8.37,0-11.36-.83-10.55-2.94.7-1.83,4.88-2.75,11.09-2.43,16.55.84,30.39-1.79,28.97-5.49-.86-2.23.64-3.24,4.83-3.24,1.29,0,2.29.07,3.06.23.73-2.38,1.35-4.79,1.75-7.25.04-.28.21-1.73.03-.14.05-.41.1-.81.14-1.22,0-.08.01-.16.02-.24-1.24-2-3.13-4.42-4.93-6.22-3.85-3.85-5.41-4.16-9.17-1.81-3.43,2.14-5.33,2.17-7.8.13-1.79-1.49-4.62-2.16-6.28-1.49-1.9.76-1.49,1.28,1.1,1.4,2.26.1,4.11,1.12,4.11,2.26s-2.99,1.92-6.65,1.74c-6.73-.34-14.49-6.07-14.49-10.69,0-1.38-.79-2.53-1.76-2.55-.97-.02-4.4-.7-7.64-1.52-3.23-.82-5.05-.59-4.04.5,1.01,1.09-.58,3.33-3.52,4.96-3.94,2.19-4.33,3-1.5,3.06,2.12.05,4.53,1.82,5.34,3.94,1.22,3.18.87,3.35-1.99.98-1.9-1.58-5.37-2.28-7.69-1.56-5.89,1.84-10.99-1.95-9.64-7.15.96-3.67-.36-4.41-8.47-4.72-5.29-.2-7.76.14-5.5.76,2.26.62,4.11,2.14,4.11,3.38s-2.3,1.02-5.29-.58c-2.91-1.56-8.18-3.01-11.72-3.23-5.13-.31-5.9.25-3.82,2.76,3.3,3.98-2.3,4.2-15.28.59-6.5-1.8-9.82-1.79-11.63.02-3.2,3.2-9.43,3.35-7.47.18,1.57-2.54-9.53-1.53-25.85,2.35-5.17,1.23-24.26,2.66-42.41,3.17-23.49.66-35.01,1.97-39.94,4.52-7.5,3.88-19.66,14.43-20.15,17.46-1.31,8.21-1.09,12.13.62,11.07,2.89-1.78,2.5,3.13-.71,9.17-2.31,4.34-2.22,4.71.59,2.4,2.59-2.13,4.54-1.74,8.87,1.76,3.05,2.47,4.58,4.49,3.41,4.49s-3.39-1.25-4.92-2.78c-1.53-1.53-3.4-2.16-4.16-1.4-.76.76,1.86,3.29,5.82,5.63,6.43,3.8,7.1,5.25,6.37,13.74-.45,5.22-8.76,33.28-18.47,62.35-9.71,29.07-21.61,65.02-26.45,79.88-4.84,14.86-12.95,37.46-18.02,50.22-5.07,12.76-8.82,24.39-8.32,25.84.5,1.45-2.21,11.1-6.01,21.44-3.8,10.34-8.84,24.07-11.19,30.52-2.35,6.45-3.37,12.29-2.26,12.97,1.11.69-1.07,7.57-4.83,15.29-7.27,14.89-8.43,19.92-4.61,19.92,5.45,0-.05,18.74-11.86,40.38-4.82,8.83-11.57,28.79-11.61,34.35-.01,1.69,1.11,2.37,2.5,1.52,1.39-.86.29,2.82-2.44,8.16-2.73,5.35-4.44,10.57-3.8,11.6,1.93,3.12,9.42,2.12,12.18-1.62,1.52-2.07,4.59-2.98,7.46-2.23,3.5.91,4.52.36,3.63-1.98-.69-1.79-.18-3.26,1.13-3.26s1.85-2.03,1.2-4.5c-.87-3.35.24-4.76,4.33-5.47l5.51-.96-5.87-2.52c-4.76-2.05-5.16-2.81-2.11-4.05,2.51-1.02,3.4-3.45,2.66-7.28-1.13-5.94,2.68-8.03,5.15-2.82.76,1.62.94-.92.38-5.64-1.16-9.82,5.7-18.44,14.66-18.44,3.69,0,7.51-3.67,13.36-12.81,7.87-12.31,11.45-20.74,5.14-12.1-2.67,3.65-3.07,2.75-3.16-7.06-.06-6.18-1.28-11.63-2.72-12.11-1.44-.48.73-4.4,4.83-8.7,6.57-6.91,7.77-7.39,10.2-4.07,2.35,3.21,3.65,2,8.9-8.38,7.37-14.54,7.77-17.91,1.2-9.94-7.36,8.92-2.23.1,5.88-10.11,6.24-7.85,6.74-9.52,4.07-13.79-2.4-3.84-2.43-5.41-.14-7.51,2.16-1.99,2.5-1.96,1.33.12-.86,1.53-.48,3.44.83,4.25,2.49,1.54,8.15-10.26,5.97-12.44-.68-.68-1.24,0-1.24,1.5ZM1774.68,64.19c.8-1.29,1.92-2.35,2.49-2.35s1.04,1.06,1.04,2.35-1.12,2.35-2.49,2.35-1.83-1.06-1.04-2.35ZM1727.7,320.28c.8-1.29,2.51-2.35,3.8-2.35s1.7,1.06.9,2.35c-.8,1.29-2.51,2.35-3.8,2.35s-1.7-1.06-.9-2.35ZM1721.52,357.63c1.77,1.12,2.82,3.25,2.33,4.72-.54,1.62-2.5.8-4.96-2.08-4.22-4.93-2.97-6.19,2.63-2.64ZM1549.98,34.95c-1.29,0-3-1.06-3.8-2.35-.8-1.29-.4-2.35.9-2.35s3,1.06,3.8,2.35c.8,1.29.39,2.35-.9,2.35ZM1481.43,427.3c-1.37,0-1.84-1.06-1.04-2.35.8-1.29,1.92-2.35,2.49-2.35s1.04,1.06,1.04,2.35-1.12,2.35-2.49,2.35ZM1487.44,401.46c-.8,1.29-2.45,2.35-3.66,2.35s-2.21-1.06-2.21-2.35,1.65-2.35,3.66-2.35,3.01,1.06,2.21,2.35ZM152.79,266.19c-.39.78-1.38,1.66-2.2,1.95-.82.29-.5-.35.71-1.42h0c1.21-1.07,1.88-1.31,1.49-.53ZM259.33,196.45c-.22-.45-.7-1.45-1.07-2.21-.09-.19-.26-.49-.47-.85-.3-.49-.66-1.07-1.06-1.73-1.29-2.05-2.83-4.49-4.31-6.84-3-4.66-8.57-14.08-12.38-20.94-10-18-28.15-48.6-45.03-75.92-2.74-4.47-5.79-9.46-8.51-13.9-1.84-3.08-3.42-5.8-4.27-7.43-1.71-3.26-3.53-5.74-4.05-5.51-.52.23-1.62-.55-2.45-1.73-.82-1.19-3.88-5.63-6.8-9.87-3.59-5.23-5.74-7.63-6.68-7.45-.94.18-2.31-1.29-4.25-4.55-2.55-4.3-3.24-4.84-6.35-4.96-1.92-.08-3.58-.62-3.7-1.2-.18-.91-5.34-8.31-8.92-12.78-3.14-3.92-6.69-6.7-7.02-5.51-.22.79-1.46.15-3.04-1.56-1.86-2.02-2.77-2.47-3.89-1.7.09-.34.19-.69.32-1.09,1.03-2.97.85-3.87-.93-4.48-1.22-.42-2.37-.35-2.55.17-.18.51-.78.38-1.33-.3-.6-.74-.87-.65-.68.24.18.81-.54,1.63-1.59,1.81-1.95.35-2.2.62-3.26,3.68-.35,1.02-1.07,1.24-1.74.55-.63-.65-.53-.18.22,1.04.98,1.61.91,2.44-.27,3.02-1.96.95-2.77,7.23-.87,6.8.73-.16.29.78-.96,2.1-1.26,1.32-2.95,2.16-3.77,1.88-.82-.28-1.82.35-2.24,1.4-.7,1.77-.76,1.74-.85-.37-.08-1.92-.62-1.75-3.38,1.04-3.87,3.92-4.23,4.62-2.15,4.15,1.1-.24,1,.52-.32,2.61-1.37,2.17-1.41,2.62-.16,1.68.94-.7,1.64-.87,1.57-.39-.23,1.55-.25,2.66-.06,4.97.26,3.2-3.18,5.08-5.23,2.86-1.32-1.43-2.03-1.09-4.32,2.09-3.64,5.04-3.86,5.96-1,4.04,3.57-2.39,2.33-.15-1.37,2.45-1.76,1.24-4.21,4.14-5.44,6.45-1.66,3.11-1.78,3.87-.49,2.94,3.21-2.3.95,1.85-3.35,6.16-2.68,2.69-4.06,5.06-4.35,7.46-.3,2.53-.78,3.3-1.72,2.72-.77-.47-1.91.5-2.81,2.41-.07.2-.62,1.19-1,1.9-.41.76-.81,1.5-1.21,2.24-.8,1.48-1.58,2.92-2.35,4.33-1.55,2.82-3.03,5.5-4.44,8.08-2.85,5.14-5.51,9.83-8.03,14.18-5.05,8.7-9.57,16.04-14.14,23-12.7,19.36-30.75,48.53-35.64,57.58-.26.5-.54,1.04-.84,1.61-2.09,5.21-3.11,15.67-1.73,18.91h0c1.24,2.93,3.38,4.43,4.38,3.36-.23.74,0,1.36.89,1.65.88.29.52.87-1.03,1.65-2.19,1.11-2.18,1.57.05,5.66l2.43,4.45-2.74-2.98c-2.64-2.87-2.64-2.81.02,1.83,3.26,5.68,4.18,7.06,5.18,7.75.41.29,1.31.92,2.01,1.41.28.2.87.54,1.74,1.03.5.26,1.27.62,2.02.93,1.26.52,3.55,1.91,5.08,3.09,4.03,3.09,11.49,7.55,18.51,11.08.42.21.85.43,1.28.66.59.32,1.18.64,1.78.96,1.66.94,3.32,1.87,4.88,2.76,3.11,1.79,5.82,3.4,7.36,4.4,3.08,2.01,5.88,3.28,6.23,2.83.34-.46,1.68-.31,2.99.31,1.3.64,6.14,3.02,10.75,5.29,5.68,2.82,8.73,3.86,9.46,3.24.73-.62,2.65,0,5.93,1.9,4.33,2.51,5.19,2.64,7.97,1.23,1.71-.87,3.43-1.21,3.82-.76.6.71,8.72,4.64,14.02,6.79,4.18,1.69,8.18,2.42,8.75,1.69,2.68,1.82,5.26,1.81,5.18.04.94.19,1.56.12,1.99-.22,2,1.3,2.42,1.04,4.83-2.89l2.65-4.33-1.22,3.85c-.14.45-.27.85-.37,1.18-1.8,1.88-2.73,3.41-1.96,3.64.78.23.12,1.46-1.61,3-2.35,2.09-2.63,2.96-1.38,4.37.86.97,1.89,1.46,2.3,1.1.41-.36.87.05,1.01.91.16.94.45.99.71.12.24-.8,1.26-1.16,2.28-.8,1.87.65,2.22.53,4.64-1.62.81-.72,1.54-.56,1.79.38.23.88.37.42.32-1.01-.07-1.88.4-2.58,1.71-2.5,2.18.13,5.94-4.95,4.09-5.51-.71-.21.13-.83,1.87-1.36,1.74-.53,3.63-.44,4.21.2.58.65,1.76.59,2.64-.13,1.47-1.2,1.51-1.15.56.74-.87,1.71-.31,1.83,3.46.74,5.29-1.53,5.95-1.96,3.9-2.57-1.08-.32-.62-.94,1.56-2.12,2.25-1.22,2.51-1.59.96-1.39-1.16.15-1.86-.04-1.56-.43.96-1.24,1.51-2.2,2.48-4.31,1.34-2.92,5.26-2.88,5.96.06.45,1.9,1.24,1.94,4.79.29,5.63-2.62,6.28-3.31,2.85-3.04-4.28.34-2.11-1,2.39-1.47,2.14-.22,5.7-1.56,7.9-2.97,2.96-1.9,3.45-2.51,1.86-2.33-3.92.44.07-2.08,5.93-3.74,3.65-1.04,6.02-2.43,7.44-4.39,1.5-2.06,2.29-2.49,2.83-1.54.44.79,1.91.5,3.63-.73.12-.09.24-.17.33-.24,5.22-4.45,8.84-6.8,12.66-8.22,5.37-1.99,12.89-5.74,14.84-7.39.4-.35.86-.76,1.39-1.24.6-.56,1.23-1.2,1.85-1.89,1.25-1.37,2.5-2.95,3.63-4.55,2.26-3.19,4.01-6.46,4.21-8.3h0c.35-3.16-.78-5.52-2.19-5.07.56-.53.66-1.19.03-1.88-.63-.68-.03-1.01,1.7-.94,2.45.1,2.67-.3,2.72-4.97l.05-5.07.93,3.93c.9,3.8.93,3.74.88-1.61-.07-6.55-.2-8.2-.73-9.3ZM4.45,208.17c-.59.48-1.29.79-1.56.7s-.32-.67-.1-1.28.92-.93,1.56-.7c.65.22.69.8.1,1.28ZM141.36,42.01c.47-.44.98-.19,1.13.56.14.74-.12,1.71-.6,2.15-.47.44-.98.19-1.13-.56-.15-.75.13-1.71.6-2.15ZM132.16,24.89c3.22.38,3.19,1.27-.07,1.86-1.03.19-2.14-.24-2.46-.94-.35-.78.65-1.14,2.53-.92ZM113.12,16.02c.52-.68,1.31.03,2,1.8,1.18,3.02.39,3.41-1.68.82-.65-.82-.8-2-.33-2.61ZM102.18,34.49c.59-.48,1.57-.7,2.18-.49.61.21.63.78.04,1.26-.59.48-1.57.7-2.18.49s-.63-.78-.04-1.26ZM102.19,262.92c-.2.61-.76.64-1.26.06-.49-.58-.73-1.56-.53-2.17.2-.61.76-.64,1.26-.06.49.58.73,1.56.53,2.17ZM115.12,270.74c.17.72-.78.31-2.12-.92-1.34-1.23-2.22-2.91-1.95-3.73.27-.82-.38-1.82-1.44-2.21-1.78-.66-1.75-.73.36-.85,1.92-.11,1.74-.66-1.11-3.36-3.99-3.79-4.7-4.14-4.19-2.07.26,1.09-.5,1.01-2.62-.27-2.19-1.33-2.64-1.36-1.69-.13.72.92.91,1.63.42,1.56-1.56-.2-2.66-.2-4.97.03-3.2.32-5.14-3.08-2.96-5.17,1.41-1.35,1.05-2.05-2.17-4.28-5.11-3.54-6.03-3.75-4.06-.93,2.46,3.53.2,2.33-2.47-1.32-1.28-1.74-4.22-4.13-6.56-5.32-3.14-1.6-3.9-1.71-2.95-.43,2.36,3.16-1.83.99-6.23-3.23-2.74-2.63-5.13-3.97-7.54-4.21-2.53-.25-3.31-.72-2.76-1.67.46-.78-.54-1.9-2.46-2.77-.14-.06-.27-.12-.38-.17-6.48-2.26-10.34-4.2-13.49-6.78-1.92-1.58-4.34-3.33-6.65-4.89.03,0,.07-.02.11-.03,3.43-.81,8.94-3.12,13.68-5.73.28-.15.58-.31.87-.47l.45-.23,1.12-.53c1.73-.8,3.46-1.59,5.09-2.34,3.27-1.48,6.16-2.72,7.88-3.38,3.44-1.32,6.11-2.84,5.94-3.39-.17-.54.74-1.55,2.01-2.23,1.28-.68,6.05-3.2,10.59-5.61,5.61-2.96,8.25-4.81,8.17-5.77-.07-.95,1.55-2.15,5.01-3.69,4.57-2.04,5.18-2.65,5.67-5.73.3-1.9,1.03-3.49,1.62-3.53.92-.07,8.87-4.34,13.72-7.38,0,0,.02-.01.03-.02,0,1.61,0,3.21,0,4.76l-1.42.32c-1.37.31-3.55,1.36-4.85,2.32l-2.35,1.76,2.93-.97c1.61-.53,3.79-1.58,4.85-2.32l.84-.59c-.03,6.08-.15,11.77-.36,17.32-.94,25.45-1.44,63.19-.98,74.49.03.63.07,1.28.11,1.99.15.91.4,1.94.72,3.02-.97.09-1.64.43-1.48,1.08ZM91.46,166.3c.76-.06,1.69.32,2.07.85.38.52.07,1-.69,1.05-.76.06-1.69-.32-2.07-.84-.38-.52-.07-1,.68-1.05ZM109.76,159.71c-.07-1.05.48-2.1,1.22-2.33.81-.26,1.06.78.62,2.62-.75,3.16-1.63,3.02-1.84-.29ZM117.38,272.03c.19.52.39,1.04.6,1.57-2.27.82-2.55.14-.6-1.57ZM122.43,65.91c-.26.71-.99,1.41-1.62,1.54-.63.13-.94-.34-.68-1.06.26-.71.99-1.41,1.62-1.54.63-.13.94.34.68,1.06ZM122.36,52.05c-.4,1.77-1.42,3.37-2.27,3.55-.85.18-1.39,1.24-1.2,2.35.31,1.87.24,1.88-.92.12-1.05-1.6-1.43-1.18-2.37,2.63-1.31,5.35-1.26,6.13.29,4.67.82-.77,1.12-.07,1.07,2.41-.06,2.56.13,2.97.72,1.53.44-1.08.96-1.6,1.15-1.14.6,1.45,1.15,2.41,2.5,4.29,1.87,2.61-.12,5.99-3.02,5.14-1.87-.55-2.3.11-2.64,4.01-.53,6.19-.25,7.1,1.22,3.98,1.84-3.89,1.92-1.33.09,2.8-.87,1.97-1.48,5.72-1.35,8.33.18,3.52.46,4.24,1.09,2.77,1.57-3.62,1.77,1.1.29,7.01-.91,3.69-.89,6.43.1,8.64,1.04,2.32,1.02,3.23-.07,3.22-.91,0-1.38,1.41-1.18,3.51.04.17.08,1.43.12,2.31.04.94.08,1.88.11,2.8.07,1.85.14,3.65.21,5.41.12,3.53.23,6.9.34,10.13.11,3.61.2,7.03.27,10.33-.24.17-.49.35-.78.56-.87.64-1.59.41-1.74-.55-.14-.89-.33-.46-.42.98-.11,1.88-.65,2.52-1.94,2.32-2.15-.34-6.4,4.36-4.6,5.09.69.28-.21.81-1.99,1.17-1.78.36-3.66.09-4.17-.61-.51-.7-1.7-.76-2.64-.13-1.58,1.06-1.62.99-.48-.79,1.03-1.62.49-1.79-3.37-1.07-5.41,1.01-6.11,1.38-4.13,2.18,1.04.43.53.99-1.76,1.96-2.36,1-2.65,1.34-1.09,1.29,1.17-.04,1.85.22,1.51.58-1.08,1.14-1.72,2.04-2.89,4.05-1.61,2.78-5.51,2.36-5.93-.64-.27-1.93-1.04-2.05-4.74-.75-5.86,2.06-6.57,2.69-3.13,2.75,4.3.08,2,1.2-2.52,1.23-2.16.01-5.82,1-8.15,2.19-3.13,1.61-3.67,2.16-2.08,2.14,3.95-.06-.27,2.06-6.27,3.15-3.74.68-6.22,1.84-7.83,3.65-1.69,1.9-2.53,2.26-2.97,1.26-.36-.81-1.8-.68-3.58.32,1.45-2.34,2.9-4.63,4.2-6.66,11.16-17.31,29.58-47.74,45.71-75.52,2.65-4.52,5.61-9.57,8.24-14.06,1.84-3.08,3.51-5.75,4.54-7.27,2.07-3.04,3.39-5.82,2.95-6.17-.45-.35-.28-1.69.37-2.98.66-1.28,3.14-6.08,5.5-10.65,2.92-5.63,4.03-8.66,3.42-9.4-.6-.74.05-2.65,2.01-5.89,1.75-2.9,2.37-4.23,2.18-5.65,1.38.8,1.66,1.53,1,2.55-1.19,1.82,1.34,7.62,2.75,6.29.54-.51.65.52.25,2.3ZM121.64,47c-.98-.37-1.71-1.3-1.62-2.07.1-.85,1.14-.65,2.64.51,2.57,1.98,2.08,2.73-1.02,1.56ZM138.36,69.56c.02-5-.29-5.81-2.9-7.52-1.61-1.05-2.76-2.37-2.55-2.93.32-.87-.31-9.87-1.08-15.54-.68-4.97-2.29-9.19-3.19-8.34-.59.56-1.33-.63-1.8-2.9-.43-2.06-.86-3.03-1.64-3.34.61-1.02,1.16-2.07,1.42-2.8l.8-2.21-1.72,1.89c-.65.71-1.39,1.91-1.97,3.09-1.26.27-2.2.91-2.09,1.45.11.53-.47.73-1.3.43-.9-.33-1.08-.11-.46.55.57.6.38,1.67-.43,2.38-1.5,1.3-1.56,1.66-.9,4.83.14.69-.04,1.13-.43,1.31-.14-.39-.31-.8-.54-1.28-.84-1.73-1.15-3.45-.68-3.83.72-.58,4.81-8.63,7.06-13.89.1-.24.2-.49.3-.73.25.28.52.59.86.96.73.79.59,1.53-.34,1.79-.87.25-.41.38,1.02.3,1.88-.11,2.58.35,2.53,1.66-.09,2.18,5.07,5.85,5.59,3.98.2-.72.83.11,1.4,1.84.57,1.73.51,3.62-.12,4.21-.64.59-.56,1.77.18,2.63,1.23,1.45,1.18,1.49-.73.57-1.73-.84-1.84-.27-.68,3.48,1.03,3.31,1.58,4.79,2,4.92l-.08.37c-.28,1.38-.22,3.8.12,5.37l.64,2.87.32-3.07c.18-1.69.12-4.11-.12-5.37l-.24-1.22s0-.01,0-.02c.3-1.08.93-.64,2.15,1.52,1.26,2.23,1.64,2.48,1.41.94-.18-1.16,0-1.86.4-1.57,1.26.94,2.23,1.47,4.35,2.4,2.95,1.28,2.98,5.2.05,5.96-1.89.49-1.92,1.27-.2,4.8,2.73,5.58,3.43,6.22,3.09,2.79-.42-4.28.96-2.13,1.51,2.36.26,2.14,1.67,5.67,3.12,7.84,1.96,2.93,2.57,3.4,2.36,1.81-.51-3.91,2.08.03,3.85,5.86,1.11,3.63,2.54,5.97,4.53,7.36,2.09,1.46,2.54,2.25,1.59,2.8-.78.46-.46,1.92.8,3.62.14.16.76,1.1,1.2,1.77.47.72.94,1.42,1.4,2.12.92,1.4,1.82,2.77,2.71,4.11,1.75,2.69,3.43,5.26,5.03,7.73,3.19,4.94,6.07,9.49,8.71,13.77,5.29,8.55,9.63,16.01,13.62,23.32,6.15,11.29,14.19,25.45,21.1,37.29-1.66-.74-3.32-1.47-4.88-2.16-3.27-1.48-6.12-2.82-7.75-3.67-3.26-1.7-6.17-2.7-6.47-2.21-.3.49-1.65.47-3-.02-1.36-.51-6.4-2.41-11.21-4.23-5.93-2.25-9.07-3-9.73-2.31-.67.68-2.64.26-6.08-1.32-4.55-2.08-5.42-2.13-8.05-.45-1.62,1.03-3.3,1.54-3.72,1.12-.64-.63-8.61-3.58-14.09-5.24-.03-10.25-.1-20.66-.23-30.77-.05-5.55-.11-11.74-.16-17.25,0-3.59.05-6.73.16-8.57.21-3.67-.08-6.74-.65-6.81-.57-.07-1.11-1.31-1.21-2.75-.09-1.44-.43-6.82-.76-11.96-.39-6.33-1-9.5-1.9-9.82-.9-.33-1.32-2.3-1.3-6.09ZM161.13,183.28c-.14.63-.7.71-1.24.18-.55-.53-.88-1.48-.74-2.11.14-.63.7-.71,1.24-.18.54.53.88,1.48.74,2.11ZM148.22,287.86c-.78.34-1.13-.67-.87-2.54.44-3.21,1.33-3.16,1.86.11.17,1.04-.28,2.13-.99,2.44ZM166.78,277.08c-.75.13-1.71-.16-2.14-.64-.43-.48-.17-.98.58-1.11.75-.13,1.71.16,2.14.64.43.48.17.99-.58,1.12ZM205.34,227.26c-.4.25-.8.51-1.22.78-.57.35-1.15.7-1.73,1.05-1.65.96-3.29,1.92-4.84,2.82-3.11,1.79-5.87,3.3-7.51,4.13-3.29,1.65-5.8,3.42-5.58,3.95.22.52-.58,1.61-1.78,2.42-1.21.8-5.71,3.77-10,6.61-5.3,3.49-7.74,5.59-7.58,6.53.16.94-1.34,2.29-4.63,4.16-4.35,2.47-4.9,3.14-5.08,6.26-.11,1.92-.69,3.57-1.27,3.67-.91.16-8.41,5.18-12.94,8.67-.74.57-1.42,1.15-2.07,1.73.11-.18.21-.37.33-.57,2.15-3.67,3.2-5.58,3.71-6.8,1.21-.59,2.61-1.5,3.52-2.32l2.17-1.98-2.82,1.25c-.74.33-1.61.79-2.41,1.27.05-.55.13-1.47.2-2.22.02-.21.03-.55.03-.97,0-.6-.01-1.32-.02-2.12-.05-2.66-.12-5.83-.18-8.89-.18-6.09-.11-18.14.15-26.76.4-13.52.62-32.95.64-53.92.82-.2,1.32-.59,1.12-1.17-.24-.7.75-.38,2.2.71,1.45,1.1,2.49,2.68,2.3,3.53-.19.85.56,1.77,1.65,2.06,1.84.49,1.82.55-.27.88-1.9.3-1.67.82,1.43,3.24,4.34,3.39,5.07,3.67,4.37,1.65-.37-1.06.4-1.05,2.63.02,2.31,1.11,2.76,1.1,1.69-.03-.8-.85-1.06-1.53-.57-1.51,1.57.05,2.67-.06,4.94-.51,3.15-.63,5.41,2.57,3.44,4.86-1.27,1.48-.85,2.14,2.57,4.05,5.43,3.03,6.36,3.15,4.13.53-2.79-3.27-.42-2.29,2.59,1.07,1.44,1.61,4.6,3.7,7.04,4.66,3.28,1.29,4.05,1.32,2.98.14-2.65-2.92,1.73-1.16,6.51,2.61,2.98,2.35,5.49,3.45,7.92,3.46,2.54,0,3.36.4,2.91,1.39-.38.82.72,1.84,2.72,2.52.14.05.28.09.39.13,4.77.76,7.58,1.77,9.84,3.52,1.41,1.1,3.19,2.25,4.9,3.24-4.72,1.98-12.09,6.04-18.5,10.21ZM252.05,223.9c-.48.43-1.25.36-1.7-.15-.45-.51-.21-1.04.53-1.17.75-.13,1.51-.06,1.7.15.19.21-.05.74-.53,1.17ZM1742.13,349.93c1.61-3.02,3.42-4.99,4.03-4.39.6.61-2.24,7.3-6.32,14.89-8.39,15.58-9.26,16.82-9.26,13.07,0-1.47,1.94-6.14,4.31-10.38,2.37-4.24,5.63-10.18,7.24-13.19ZM1696.35,329.68h0s0,0,0,0ZM1697.53,326.74c.65,1.62.65,4.26,0,5.87-.65,1.61-1.18.29-1.18-2.94s.53-4.55,1.18-2.94ZM753.2,357.24c-3.42,9.71-8.07,15.01-8.07,9.2,0-1.07.75-2.71,1.67-3.63.92-.92,4.15-7.18,7.17-13.9h0c5.9-13.11,5.58-9.73-.78,8.33ZM804.76,329.52c-1.56,4.07-3.25,4.81-3.25,1.43,0-1.22,1.04-2.86,2.32-3.65,1.33-.82,1.72.12.92,2.21ZM909.46,311.74c.18,4.63-4.99,22.17-7.32,24.83-1.07,1.23-1.94,1.76-1.92,1.17.11-3.3,9.13-28.7,9.24-26ZM501.47,209.71c3.26,2.01,2.65,3.42-1.48,3.42-2.02,0-3-1.07-2.19-2.39.81-1.32,2.46-1.78,3.66-1.04ZM974.01,465.26c-1.74,2.83-3.68,2.89-7.87.23-2.22-1.41-2.4-2.51-.59-3.63,1.43-.88,2.6-.38,2.6,1.13s1.63,2.11,3.65,1.34h0c2.09-.8,3.03-.41,2.21.92ZM950.37,318.18c4.56-10.76,4.68-11.66,1.26-9.54-1.78,1.1-2.06-.11-.87-3.86,1.71-5.39,1.66-5.41-4.36-1.47-8.16,5.34-10.58,5.08-4.2-.46,4.41-3.82,4.67-4.92,1.84-7.75-2.83-2.83-2.56-4.15,1.91-9.35,3.65-4.24,6.26-5.46,8.75-4.07,2.76,1.54,4.17-.13,6.4-7.57,1.57-5.25,2.27-10.14,1.55-10.87-.72-.72-.39-2.47.74-3.89,3.49-4.35,5.6-17.84,2.79-17.84-3.8,0-3.05-6.05,1.19-9.57,2.59-2.15,3.31-5.28,2.35-10.27-.95-4.98-.7-6.12.85-3.72,2.32,3.62,2.28,3.68,5.81-7.87.55-1.78-.2-4.42-1.64-5.87-1.95-1.95-1.59-2.64,1.36-2.64,3.56,0,5.44-5.63,4.19-12.58-.2-1.11.59-3.22,1.76-4.7,1.17-1.48,2.84-8.34,3.71-15.23.88-6.9,4.8-21.7,8.72-32.89,3.92-11.19,9.01-26.69,11.33-34.44,2.31-7.75,5.48-17.27,7.04-21.14,3.6-8.95,2.66-40.25-1.47-48.68h-.01c-4.08-8.32-12.48-13.22-12.48-7.28,0,3.82-.27,3.84-3.89.23-3.61-3.61-4.2-3.48-8.46,1.93-3.04,3.87-6.01,5.36-8.87,4.45-3.28-1.04-5.78,1.16-10.51,9.22-3.41,5.82-6.53,14.06-6.93,18.32-.4,4.25-2.4,11.72-4.44,16.61-4.47,10.68-19.15,59.82-22.69,75.92-1.39,6.34-4.2,15.97-6.24,21.4-3.28,8.71-4.12,9.47-7.19,6.4-1.91-1.91-2.88-5.02-2.16-6.91.87-2.26-.47-3.78-3.88-4.41-8.94-1.67-16.63-1.29-19.33.95-1.6,1.32-6.1,1.08-11.68-.63-7.37-2.26-9.28-2.19-10.13.35-.86,2.6-1.39,2.58-3.03-.06-1.09-1.76-4.93-3.2-8.53-3.2s-6.53-1.06-6.53-2.35c.01-1.75,7.21-25.71,16.02-53.57,1.62-.07,2.68.79,2.43,2.73-.2,1.51.38,2.07,1.28,1.25.9-.82.68-2.96-.5-4.77-.71-1.09-1.22-2.68-1.53-4.49,1.51-4.76,3.06-9.6,4.62-14.43,7.7-23.87,5.09-59.05-4.99-67.23-4.94-4.01-5.68-4.09-6.35-.74-.96,4.8-4.18,4.91-6,.19-1.1-2.86-2.91-2.01-8.75,4.11-6.63,6.95-6.99,7.08-3.56,1.33,2.56-4.29,2.84-6.01.87-5.25-3.7,1.43-13.52,15.64-13.52,19.56,0,1.62-.95,2.35-2.1,1.63-1.84-1.14-4.27,4.85-5.56,13.03-3.62-1.06-7.51-1.85-10.01-1.81l-4.49.08,4.18,2.1c3.57,1.79,3.61,2.11.25,2.2-4.81.13-5.8,4.44-1.46,6.37,1.74.77,3.01,2.48,2.82,3.8-.19,1.37-1.62,1.09-3.32-.63-1.64-1.66-5.42-3.35-8.4-3.75-4.82-.64-5.23-.19-3.69,4.08,1.72,4.76,1.67,4.76-4.57.39-3.47-2.43-6.04-6.18-5.73-8.33.4-2.76-2.09-4.41-8.43-5.61-4.95-.94-9.62-1.15-10.37-.47-.75.68.3,1.27,2.34,1.3,2.05.03,3.58,1.02,3.41,2.2-.18,1.21-3.56.98-7.73-.51-5.33-1.9-9.88-1.95-16.21-.15-13.82,3.93-23.13,5.35-19.26,2.94,2.39-1.49.91-2.45-5.09-3.31-9.87-1.42-16.93-.11-15.66,2.9.49,1.17-1.24,2.08-3.84,2.04-2.6-.04-3.94-1.13-2.97-2.43,1.97-2.64-20.19-1.39-37.07,2.1-5.6,1.16-24.06,2.98-41.02,4.04-19.93,1.26-35.07,2.47-45.92,3.7-.03-.64-.17-1.39-.41-2.34h0c-2.4-9.18-10-14.51-15.86-11.11-6.75,3.92-11.05,4.38-9.78,1.06.88-2.3.2-3-2.09-2.12-1.87.72-3.4,2.25-3.4,3.41,0,3.44-4.76,2.39-10.84-2.39-3.83-3.01-4.72-4.85-2.72-5.59,1.64-.6-.04-1.9-3.73-2.88-3.86-1.02-7.36-.81-8.22.5-.83,1.25-3.63,3.48-6.21,4.95-3.93,2.23-4.05,2.68-.73,2.74,2.19.04,4.74,1.31,5.67,2.82,1.17,1.89.38,2.24-2.51,1.13-2.32-.89-5.4-.63-6.85.58-1.7,1.41-4.33.96-7.34-1.23-5.23-3.82-5.37-5.31-.78-8.22,1.98-1.26-.76-1.99-7.43-1.99s-9.37.76-7.53,1.93c1.7,1.08-2.94,1.53-10.57,1.03-13-.86-13.35-.74-7.74,2.65,6.83,4.13,3.11,4.61-10.57,1.38-10.05-2.37-18.55-1.07-16.34,2.5.74,1.2.23,2.18-1.14,2.18s-2.49-1.17-2.49-2.61c0-2.96-11.84-1.33-27.02,3.71-5.17,1.72-16.27,3.44-24.67,3.82-8.4.39-16.33,1.28-17.62,2-1.29.71-7.64,1.46-14.1,1.66-15.19.47-21.52,3.18-32.3,13.81-6.22,6.14-8.81,10.73-8.81,15.61,0,4.19.96,6.32,2.44,5.41,1.61-.99,1.89.7.83,4.91-1.01,4.05-.75,5.89.74,4.97,1.29-.8,4.35.16,6.8,2.12,4.24,3.4,4.18,3.5-1.42,2.15-5.7-1.38-5.74-1.31-1.22,2.3,8.05,6.43,22.08,9.59,27.5,6.2,6.54-4.09,7.18-2.47,3.34,8.4-1.83,5.17-6.1,19.61-9.49,32.08-4.92,18.05-7.78,24.28-14.06,30.56-10.48,10.48-11.75,15.59-8.26,33.18,2.57,12.92,2.42,16.7-1.13,29.38-2.25,8-3.51,16.05-2.8,17.89.71,1.84.17,6.25-1.2,9.79-1.37,3.54-2.81,9.8-3.21,13.91-.4,4.11-2.43,9.9-4.5,12.86-2.08,2.96-3.7,7.53-3.61,10.15.14,4.17.48,4.03,2.69-1.11,7.64-17.73,10.89-23.42,11.83-20.68,2.38,6.92-7.97,30.6-18.53,42.42-7.51,8.39-11.16,22.9-5.76,22.9,1.17,0,1.6,2.01.96,4.47-.8,3.09.35,4.96,3.74,6.03,2.7.86,4.91,2.61,4.91,3.89s-1.06,1.68-2.35.88c-1.29-.8-2.35-.81-2.35-.03s3.44,2.92,7.64,4.75h-.04c8.62,3.75,18.21,4.53,18.21,1.48,0-1.11,6.04-2.74,13.42-3.6,15.03-1.77,29.91-5.69,59.69-15.73,11.14-3.76,22.56-6.83,25.4-6.83s4.58-.91,3.9-2.02c-1.17-1.89,7.66-6.54,22.85-12.03,3.63-1.31,5.95-3.44,5.15-4.74-.8-1.29-.07-2.39,1.62-2.43,1.69-.04,7.31-2.22,12.47-4.84,5.17-2.62,6.96-4.25,3.98-3.63-10.53,2.2-3.72-4.34,8.71-8.38,11.72-3.81,30.56-18.31,23.78-18.31-1.75,0-2.53-.66-1.73-1.45,2.37-2.37-5.01-8.32-11.16-8.99-3.14-.34-6.26.81-6.93,2.56-.67,1.75-2.58,3.17-4.24,3.15-2.11-.03-1.95-.72.51-2.31,1.94-1.25,2.33-2.3.87-2.32-3.51-.05-8.3,5.85-6.34,7.82.85.85.31,1.55-1.19,1.55-3.57,0-12.16-8.59-10.38-10.38.76-.75-2.04-1.37-6.21-1.37-4.45,0-6.98.97-6.13,2.35.8,1.29-.4,2.35-2.66,2.35-3.71,0-3.67.34.45,3.45,4.25,3.22,4.28,3.45.31,3.52-2.64.05-3.61,1.12-2.55,2.82,1.16,1.87.4,2.25-2.4,1.17-2.26-.86-5.01-1.58-6.12-1.58s-1.6-2.21-1.07-4.91c.71-3.66.02-4.56-2.68-3.52-1.99.76-5.38,1.41-7.54,1.43-3.4.03-3.45.35-.39,2.42,2.67,1.81,2.09,2.06-2.41,1.02-3.26-.75-8.55-.32-11.75.96-5,2-5.16,2.35-1.12,2.51,3.56.14,3.93.67,1.5,2.21-1.76,1.11-5.18,1.51-7.6.87-6.07-1.59-16.73,1.36-15.01,4.14.78,1.25.38,2.28-.88,2.28s-2.74-1.32-3.28-2.94c-.77-2.29-1.85-2.23-4.89.29-2.15,1.77-3.91,2.62-3.91,1.89s-5.55,1.14-12.33,4.17c-12.76,5.69-35.66,9.51-33.21,5.55,1.34-2.17,11.88-7.2,15.89-7.59,3.41-.33,9.53-10.77,6.31-10.77-1.56,0-2.19-.95-1.47-2.1,2.06-3.34-4.83-4.86-8.26-1.82-2.56,2.28-2.56,2.05,0-1.33,1.7-2.25,4.13-3.44,5.41-2.65,1.28.79,1.05-.94-.51-3.85-2.26-4.23-2.19-5.68.35-7.3,4.24-2.69,6.12-2.59,7.99.44,1.61,2.6,8.24-7.78,9.13-14.27.48-3.5,5.05-15.3,7.4-19.11.67-1.09-.41-1.36-2.42-.59-5.07,1.95-4.41-1.49,1.72-8.95,4.38-5.32,9.67-7.3,33.4-12.49,15.51-3.39,30.94-7.65,34.28-9.45,3.35-1.8,10.57-4,16.05-4.87,6.71-1.07,8.94-2.24,6.84-3.57-2.16-1.37-1.21-1.99,3.06-2.02,3.41-.02,9.22-1.62,12.92-3.55,4.52-2.36,5.38-3.51,2.62-3.52-2.26,0-4.11-1.07-4.11-2.36s3.97-2.36,8.81-2.38c12-.04,19.38-2.27,19.38-5.84,0-1.64,2.05-3.51,4.55-4.17,3.29-.86,4.18-2.57,3.25-6.15-.71-2.73-2.29-4.96-3.51-4.96s-1.56-1.06-.76-2.35c.8-1.29.07-2.45-1.62-2.58-1.69-.13-5.89-.49-9.32-.8-4.4-.4-5.89.36-5.03,2.58,1.9,4.96-8.03,3.81-13.39-1.55-2.92-2.92-3.58-4.76-1.76-4.86,1.61-.09.53-1.32-2.4-2.73-4.39-2.12-5.92-1.78-8.64,1.92-1.82,2.47-2.33,4.85-1.13,5.28,4.57,1.64,1.92,4.13-4.28,4.03-4.87-.08-6.65-1.41-7.21-5.41-.66-4.66-2.01-5.25-11.16-4.91-5.72.22-10.41,1.25-10.41,2.29s-1.76,1.22-3.91.39c-2.82-1.08-3.38-.64-2.01,1.57,1.49,2.4.13,2.74-6.24,1.55-4.48-.84-8.85-.82-9.72.05-1.84,1.84-15.73,2.57-15.73.82-.02-1.23,8-26.64,12.24-38.76,1.36-3.88,2.97-10.4,3.58-14.51,1-6.69,2.23-7.71,12.04-9.87,18.41-4.07,24.59-4.99,36.18-5.38,6.14-.21,11.16-1.18,11.16-2.16,0-2.35,12.48-6.21,26.41-8.16,6.12-.86,10.56-2.5,9.84-3.65-.71-1.15,2.89-2.09,7.99-2.09,7.94,0,9.49-.85,10.76-5.87,1.33-5.3,2.58-5.86,13.75-5.87-2.7,1.68-5.28,3.4-7.54,5.02-.89-.1-1.96.03-2.93.42h0c-1.65.66-1.41,1.17.52,1.36-1.5,1.16-2.76,2.22-3.64,3.12-4.74,4.82-8.39,15.81-5.07,15.32,4.45-.66,4.91.73,1.75,5.32-2.97,4.3-2.85,4.8.95,3.7,2.41-.69,6.62.38,9.37,2.37,3.31,2.4,2.44,3.07-2.62,2-12.39-2.66-5.52,2.81,7.52,5.97,13.7,3.32,24.68,3.72,25.17.93.2-1.11,15.51-3.14,34.03-4.51,18.51-1.37,34.53-2.99,35.6-3.61,2.77-1.59-3.01,22.63-11.41,47.72-3.94,11.73-11.16,35.7-16.05,53.27-4.9,17.57-9.81,34.12-10.9,36.78-1.09,2.66-3.84,13.91-6.11,25.02-2.27,11.11-5.74,24.89-7.71,30.64-2.7,7.86-2.83,10.02-.52,8.72,2.89-1.64,1.48,4.17-3.6,14.89-.83,1.74.22,4.96,2.34,7.14,3.46,3.55,3.39,5.29-.72,17.02-7.78,22.18-10.15,33.82-6.58,32.52,2.21-.8,2.53.84,1.07,5.51-1.57,5.03-1.06,6.89,2.11,7.58,2.3.51,5.27-.46,6.58-2.16,1.31-1.69,3.92-3.08,5.79-3.08s3.75-2.14,4.19-4.75c.43-2.61,1.83-4.75,3.13-4.75s2.52-1.06,2.74-2.37c.22-1.31-1.39-2.37-3.57-2.37-3.58,0-3.5-.31.8-3.15,3.34-2.21,4.53-4.69,3.99-8.34-.42-2.86-1.96-4.52-3.42-3.69-1.6.91-1.28-.48.83-3.52,1.91-2.77,5.02-5.03,6.9-5.02,1.88,0,3.59-1.03,3.8-2.29.21-1.26,1.65-1.76,3.22-1.11,2.91,1.22,14.73-14.96,12.72-17.41-.58-.71-1.26-.05-1.5,1.48-.25,1.52-1.61,2.76-3.03,2.76-1.42,0-1.68-1.66-.59-3.68,1.09-2.02,1.01-3.12-.18-2.45-1.19.68-2.93-1.48-3.87-4.79-1.36-4.8-.91-6.7,2.19-9.41,4.79-4.18,9-4.39,8.48-.41-.21,1.63,1.77-.7,4.4-5.19,2.63-4.48,4.45-9.68,4.05-11.55-.4-1.87.41-4.6,1.79-6.06,1.38-1.46,3.75-6.38,5.26-10.94,1.74-5.25,1.78-6.62.11-3.73-2.26,3.92-2.75,4.03-3.44.78-.44-2.08,1.92-7.86,5.24-12.85,3.71-5.58,5.97-11.57,5.87-15.59-.09-3.59.72-6.52,1.81-6.51,3.3.02,6.5-10.32,3.82-12.31-1.93-1.43-1.84-1.85.39-1.86,2,0,3.61-4.66,5.3-15.27,1.34-8.39,5.24-22.5,8.66-31.36,13.82-35.88,18.95-58.15,16.23-70.04-.83-3.64-.91-7.16-.17-7.82.74-.66,12.01-2.01,25.03-3,44.28-3.37,71.75-6.74,73.45-9.01.94-1.25,6.37-1.9,12.07-1.45,7.03.56,9.99.15,12.74-2.36-5.23,17.31-11.71,39.1-14.54,48.88-2.87,9.95-5.97,17.63-6.87,17.08-2.67-1.65-21.5,12.02-24.83,18.03-3.65,6.58-4.15,13.76-.96,13.76,1.25,0,1.65,1.63.89,3.61s.59,5.87,3.01,8.63c2.42,2.76,3.07,4.24,1.46,3.3-4.72-2.76-3.38,1.15,1.98,5.8,4.49,3.89,4.66,5.05,1.99,13.15-1.61,4.89-3.23,13.66-3.59,19.5-.36,5.84-2.41,16.96-4.54,24.72-6.83,24.8-7.75,29.38-5.57,28.04,3.3-2.04,2.49,2.38-2.66,14.39-4.49,10.49-4.54,11.35-.75,15.53,3.59,3.96,3.69,5.73.92,16.7-1.7,6.75-4.43,14.91-6.06,18.15-1.64,3.24-3.64,10.11-4.44,15.27-.8,5.16-2.04,11.23-2.74,13.5-.7,2.26-.1,4.11,1.34,4.11,1.74,0,2.07,2.88,1.01,8.56-1.1,5.83-.8,8.07.91,7.01,1.38-.86,3.26-.34,4.17,1.14,1.16,1.87,2.32,1.52,3.8-1.14,1.18-2.11,4.27-3.82,6.86-3.82,3.1,0,4.15,1.01,3.06,2.94-1.24,2.2-.83,2.17,1.6-.1,2.73-2.53,2.74-3.36.09-4.99-2.11-1.3-2.33-2.47-.67-3.5,1.37-.85,1.9-3.09,1.18-4.99-.73-1.9-.15-3.45,1.28-3.45s2.6-1.12,2.6-2.49-1.06-1.84-2.35-1.04c-1.29.8-2.35.44-2.35-.79s1.72-2.9,3.84-3.71c3.07-1.18,3.55-3.55,2.43-11.78-1.33-9.69-.93-10.68,6.7-16.49,5.96-4.55,7.7-5.12,6.57-2.19-2.91,7.59,3.89.84,8.74-8.68,2.87-5.63,3.68-9.24,2.06-9.24-1.46,0-2.06-1.52-1.35-3.37,1.84-4.79-3.77-6-7.06-1.53-1.51,2.05-3.55,2.93-4.53,1.95-1.79-1.79,6.18-9.01,8.42-7.62.66.41,1.2-1.63,1.2-4.53,0-4.11-1.04-5.01-4.7-4.08-3.42.87-2.61-.58,2.97-5.31,4.22-3.58,9.09-5.96,10.82-5.3,1.93.74,4.65-1.93,7.01-6.89,4.89-10.27,4.98-14.91.16-8.97-4.06,5.01-2.25.78,3.53-8.26,3.67-5.74,9.46-20.59,9.53-24.45.02-1.11-1.82-.03-4.08,2.4-2.26,2.43-3.32,3.4-2.35,2.14.97-1.26,1.76-3.84,1.76-5.74s1.66-5.28,3.67-7.52c2.02-2.23,3.77-7.25,3.88-11.14.15-5.3,1.09-6.74,3.75-5.72,2.89,1.11,3.3-.18,2.2-6.93l-1.35-8.29,17.35-1.47c9.55-.81,22-.83,27.68-.05,6.53.9,10.93.45,11.95-1.21,2.48-4.02,22.49-3.4,22.49.7,0,1.83.86,3.68,1.92,4.11,1.06.43-.18,11.83-2.74,25.32-2.97,15.63-3.8,24.83-2.28,25.33,1.55.52,1.28,5.03-.76,12.9-2.89,11.15-2.79,12.43,1.28,16.22,4.16,3.88,4.23,5.06,1.06,20.13-4.93,23.46-6,41.36-2.39,39.97,2.07-.8,2.63,1.26,1.94,7.16-.63,5.42-.11,7.75,1.52,6.74,1.37-.84,3.1-.53,3.86.7,2.01,3.25,13.04-8.6,13.04-14.01,0-2.59,1.6-4.59,3.66-4.59s3-1.07,2.19-2.39c-.81-1.31-2.46-1.78-3.66-1.04-1.2.74-2.19.29-2.19-1s1.06-3,2.35-3.8c1.29-.8,2.28-3.24,2.18-5.43-.13-3.24-.54-3.1-2.18.73-2.3,5.35-3.05,3.15-2.4-7.05.48-7.5,13.11-21.76,14.87-16.79.53,1.48,2.69-1.39,4.82-6.4ZM1004.75,36.28c1.93-.74,3.51-.39,3.51.79,0,3.19-4.17,5.16-5.7,2.7-.73-1.18.26-2.75,2.19-3.49ZM957.75,267.38c.8-1.29,1.92-2.35,2.49-2.35s1.04,1.06,1.04,2.35-1.12,2.35-2.49,2.35-1.83-1.06-1.04-2.35ZM331.11,95.67c-.57,0-1.69-1.06-2.49-2.35-.8-1.29-.33-2.35,1.04-2.35s2.49,1.06,2.49,2.35-.47,2.35-1.04,2.35ZM333.46,215.49c-.57,0-1.69-1.06-2.49-2.35-.8-1.29-.33-2.35,1.04-2.35s2.49,1.06,2.49,2.35-.47,2.35-1.04,2.35ZM373.26,278.92c-.8,1.29-1.92,2.35-2.49,2.35s-1.04-1.06-1.04-2.35,1.12-2.35,2.49-2.35,1.83,1.06,1.04,2.35ZM546.41,95.35c-.52,2.91-.77,2.9-4.49-.06-2.52-2.01-2.38-2.36.98-2.34,2.16,0,3.75,1.09,3.51,2.4ZM605.55,379.45c-.5,3.05-1.79,2.62-4.48-1.5-1.97-3.03-1.77-3.37,1.23-2.12,1.98.82,3.44,2.45,3.25,3.62ZM621.15,341.25c-.21,1.31-1.5,2.37-2.85,2.36-1.36,0-1.64-1.07-.64-2.37,1.01-1.3,2.29-2.37,2.85-2.36.56,0,.85,1.07.64,2.37ZM640.09,310.47c-.21,1.3-1.49,2.36-2.84,2.36-1.35,0-1.64-1.07-.64-2.37,1-1.3,2.27-2.36,2.84-2.36s.85,1.07.64,2.37ZM723.64,62.03c-2.58-.15-3.03-.72-1.13-1.45,1.72-.66,3.63-.55,4.25.25.62.8-.79,1.34-3.13,1.2ZM774.88,387.79c-.65,1.62-1.18.29-1.18-2.94s.53-4.55,1.18-2.94c.65,1.62.65,4.26,0,5.87ZM873.38,35.4c.59.59-.53,2.41-2.51,4.05-2.23,1.85-3.58,2.03-3.58.47,0-2.84,4.46-6.15,6.09-4.52ZM1402.43,149.19c-1.21,0-2.86-1.04-3.65-2.32-.82-1.33.12-1.73,2.21-.92,4.07,1.56,4.82,3.24,1.43,3.24ZM1695.51,335.55l.07,5.87c.03,3.23-.84,7.99-1.95,10.57l-2.02,4.7.07-4.7c.03-2.58.91-7.34,1.95-10.57l1.88-5.87ZM105.87,178.11h0c-1.31.95-2,1.12-1.54.38.46-.74,1.53-1.52,2.37-1.73.84-.21.47.39-.84,1.34ZM1058.68,416.35c.72.72-.58,2.04-2.9,2.92-3.35,1.27-3.62,1.01-1.32-1.32,1.59-1.6,3.49-2.33,4.21-1.6ZM1033.43,426.75c-2.22-.69-4.66-.24-5.43,1-.76,1.23-2.61,2.25-4.1,2.25-1.61,0-1.18-1.54,1.06-3.78,3.03-3.04,4.64-3.23,8.14-1h0c3.62,2.31,3.68,2.57.32,1.53ZM148.6,161.11l-2.07-1.49,2.29.54c1.26.3,3.49,1.24,4.95,2.1l2.66,1.55-2.88-.6c-1.58-.33-3.81-1.28-4.95-2.1ZM136.82,58.11c.33,1.58.2,2.28-.28,1.56-.48-.72-.75-2.02-.6-2.87.15-.86.55-.26.88,1.32h0ZM581.98,353.03c.33-1.96,1.89-5.16,3.46-7.12,2.54-3.16,2.79-3.16,2.26,0-.33,1.96-1.88,5.16-3.46,7.12-2.54,3.16-2.79,3.16-2.26,0ZM1711.32,515.93c-.29.17-.5-4.19-.47-9.69.03-5.51-.22-9.94-.55-9.85-.98.27-2.42-3.09-4.02-9.35-1.98-7.76-7.08-18.57-10.32-21.91-1.44-1.48-3.14-3.5-3.8-4.49-1.18-1.8-3.79-2.68-2.71-.91.3.49-1.32-.77-3.61-2.8-2.39-2.12-5.06-3.83-6.26-4.01-2.6-.38-2.62-.17-.12,1.19,1.41.76,1.61,1.08.72,1.1-1.45.03-1.74,1.47-.29,1.47,1.53,0,2.86,3.53,1.81,4.79-.47.57-.56.98-.2.91,1.54-.29,2.46.11,2.46,1.08,0,.65.54.93,1.46.76.8-.15,1.28,0,1.07.35-.22.35-.09.82.27,1.04.36.22.49,1.06.29,1.85-.26,1-.02,1.44.79,1.44.64,0,1.16-.34,1.16-.76s.32-.56.72-.32c.4.24.72,1.07.72,1.84s.41,1.39.9,1.39,1.32.66,1.82,1.47c.5.81,1.19,1.29,1.53,1.09.34-.21,1.01.1,1.5.69.62.74.64,1.07.08,1.07-.44,0-.81-.34-.81-.76s-.37-.53-.83-.25c-.45.28-1.26-.08-1.79-.8-.53-.72-1.13-1.15-1.33-.95s.79,1.63,2.2,3.18c1.41,1.55,2.36,2.33,2.1,1.74-.25-.59.05-.45.67.32,1.28,1.58,1.36,1.98,1.43,8.05.03,2.43-.18,4.27-.48,4.09-.3-.18-.54-1.01-.54-1.84s-.17-1.34-.39-1.13c-.64.64.54,12.06,1.21,11.65.34-.21.64,1.34.67,3.43l.05,3.82.93-3.46c.51-1.9,1.34-3.84,1.84-4.31.73-.68.82-.49.46.94-1.01,4-1.37,9.34-.62,9.34.42,0,.92-.41,1.12-.9.22-.54.39-.39.42.36.03.69-.27,1.26-.66,1.26s-.74.57-.77,1.26c-.08,1.8-2.7,7.26-2.77,5.75-.03-.69-.39-1.26-.79-1.26s-.92.57-1.14,1.26c-.22.69-1.19,3.16-2.16,5.49-1.9,4.58-1.91,6.27-.03,2.44.75-1.53,1.18-1.9,1.18-1.05,0,.72-.5,1.82-1.13,2.45-.63.63-2.49,2.95-4.13,5.16-1.64,2.21-3.15,4.18-3.35,4.38-.2.2-1.01,1.17-1.8,2.16l-1.44,1.8,1.62-1.37c.89-.75,1.62-1.05,1.62-.66,0,1.18-3.02,3.52-7.33,5.65-2.25,1.12-3.94,2.27-3.76,2.57s0,.74-.4.99c-.4.25-.73.11-.73-.31s-.57-.76-1.26-.75c-1.09,0-1.11.12-.18.79.89.64.84.7-.28.33-1.7-.55-4.19.18-3.64,1.08.23.37-.5.66-1.61.66-1.57,0-1.78-.17-.94-.71.8-.52.35-.73-1.8-.82-1.58-.07-3.21-.16-3.63-.2-.41-.05-2.53-1.26-4.7-2.71-5.35-3.55-7.95-8.29-8.4-15.28-.41-6.34.89-11.68,4.93-20.24,2.8-5.94,8.83-15.42,10.15-15.97.32-.13.4-.54.17-.9-.22-.36-.1-.66.29-.66,1.06,0,5.11-7.43,8.53-15.66,3.34-8.04,4.06-13.64,2-15.7-1.09-1.09-1.33-.83-1.13,1.27.06.64-.48,1.32-1.22,1.51-1.11.29-1.29,0-1.07-1.89.23-2,.17-2.09-.59-.79-1.25,2.12-5.87,6.83-6.7,6.83-.39,0,.38-1.13,1.71-2.5,1.33-1.38,2.19-2.74,1.9-3.03-.29-.29-.81-.08-1.14.47-.34.55-3.47,4.05-6.97,7.79-3.49,3.74-6.8,7.64-7.36,8.69s-1.2,2.26-1.44,2.71c-.24.45-2.82,4.33-5.75,8.62-9.38,13.77-13.01,23.86-13.01,36.2s3.5,21.94,11.09,29.55c3.6,3.61,10.19,7.27,15.23,8.45h0c7.04,1.65,16.44.52,23.97-2.89,5.93-2.69,12.98-7.21,12.76-8.19-.09-.41,1.07-2.02,2.58-3.57,4.03-4.15,9.63-13.85,11.92-20.64,2.02-6,3.25-12.32,2.28-11.72ZM1669.98,469.42c.41-1.06,3.21-2.96,3.17-2.15-.01.3-.45,1.11-.98,1.8-1.1,1.45-2.72,1.7-2.2.34ZM1688.99,535.73c-.4,0-.72-.34-.72-.76s.32-.56.72-.32c.4.24.72.59.72.76s-.32.32-.72.32ZM1708.39,522.48c0-.57.29-1.22.65-1.44s.48.24.28,1.04c-.44,1.68-.93,1.89-.93.4ZM159.2,164.85h0c1.58.35,2.17.75,1.31.9-.86.14-2.15-.14-2.87-.64-.72-.49-.01-.61,1.56-.26Z"/>
  </g>
</svg>