<?xml version="1.0" encoding="UTF-8"?>
<!-- Generated by Pixelmator Pro 3.3.2 -->
<svg width="1781" height="477" viewBox="0 0 1781 477" xmlns="http://www.w3.org/2000/svg" xmlns:xlink="http://www.w3.org/1999/xlink">
    <g id="Group">
        <g id="g1">
            <path id="Path" fill="#ffffff" fill-rule="evenodd" stroke="none" d="M 180.149994 79.880005 L 180.149994 -0.209961 L 143.630005 -0.209961 L 143.630005 79.669922 C 63 88.27002 0.220001 156.099976 0.220001 238.51001 C 0.220001 320.910034 63 388.73999 143.630005 397.339966 L 143.630005 477.22998 L 180.149994 477.22998 L 180.149994 397.130005 C 259.910004 387.709961 321.75 320.280029 321.75 238.51001 C 321.75 156.73999 259.910004 89.300049 180.149994 79.880005 Z M 143.630005 360.75 C 83.229996 352.359985 36.739998 300.830017 36.739998 238.5 C 36.739998 176.169983 83.229996 124.640015 143.630005 116.25 L 143.630005 360.75 Z M 180.149994 360.48999 L 180.149994 116.52002 C 239.640015 125.679932 285.190002 176.809998 285.190002 238.5 C 285.190002 300.200012 239.640015 351.319946 180.149994 360.48999 Z"/>
        </g>
        <g id="g2">
            <path id="path1" fill="#ffffff" fill-rule="evenodd" stroke="none" d="M 487.109985 174.98999 C 487.109985 163.820068 488.789978 153.949951 492.159973 145.390015 C 495.52002 136.830078 500.409973 129.650024 506.77002 123.849976 C 513.130005 118.050049 520.840027 113.640015 529.830017 110.599976 C 538.820007 107.570068 548.909973 106.050049 560.150024 106.050049 C 567.539978 106.050049 574.590027 106.609985 581.280029 107.719971 C 587.969971 108.840088 594.940002 110.140015 602.210022 111.630005 L 598.849976 141.949951 C 594.710022 140.780029 589.820007 139.73999 584.23999 138.840088 C 578.700012 137.929932 572.419983 137.48999 565.450012 137.48999 C 551.659973 137.48999 541.570007 140.72998 535.210022 147.219971 C 528.849976 153.709961 525.650024 162.959961 525.650024 174.97998 L 525.650024 185.669983 L 590.190002 185.669983 L 590.190002 214.070007 L 525.650024 214.070007 L 525.650024 358.310059 L 487.119995 358.310059 L 487.119995 214.080017 L 440.380005 214.080017 L 440.380005 185.679993 L 487.119995 185.679993 L 487.119995 174.98999 Z"/>
        </g>
        <g id="g3">
            <path id="path2" fill="#ffffff" fill-rule="evenodd" stroke="none" d="M 949.48999 334.699951 C 943.619995 343.209961 936.440002 349.829956 928.070007 354.560059 C 919.659973 359.290039 910.26001 361.660034 899.880005 361.660034 C 890.890015 361.660034 882.690002 360.280029 875.219971 357.51001 C 867.789978 354.73999 861.429993 350.359985 856.140015 344.349976 C 850.849976 338.339966 846.700012 330.680054 843.75 321.380005 C 840.840027 312.069946 839.359985 300.880005 839.359985 287.789978 L 839.359985 185.679993 L 877.719971 185.679993 L 877.719971 288.109985 C 877.719971 296.409973 878.340027 303.27002 879.570007 308.689941 C 880.799988 314.119995 882.690002 318.430054 885.27002 321.619995 C 887.859985 324.810059 891.059998 327.069946 894.909973 328.400024 C 898.77002 329.72998 903.359985 330.400024 908.700012 330.400024 C 919 330.400024 927.289978 328.400024 933.609985 324.420044 C 939.929993 320.430054 944.690002 315.030029 947.890015 308.219971 L 947.890015 185.679993 L 986.420044 185.679993 L 986.420044 358.310059 L 951.75 358.310059 L 949.48999 334.699951 Z"/>
        </g>
        <g id="g4">
            <path id="path3" fill="#ffffff" fill-rule="evenodd" stroke="none" d="M 1189.030029 267.849976 C 1189.030029 255.400024 1187.390015 243.969971 1184.069946 233.549988 C 1180.75 223.119995 1175.859985 214.109985 1169.380005 206.5 C 1162.900024 198.890015 1154.859985 192.98999 1145.209961 188.789978 C 1135.569946 184.590027 1124.449951 182.48999 1111.810059 182.48999 C 1100.900024 182.48999 1090.47998 184.559998 1080.589966 188.719971 C 1070.699951 192.859985 1062 198.820007 1054.579956 206.590027 C 1047.150024 214.359985 1041.199951 223.710022 1036.77002 234.669983 C 1032.300049 245.630005 1030.079956 257.969971 1030.079956 271.690002 L 1030.079956 278.22998 C 1030.079956 290.039978 1032.170044 301.02002 1036.359985 311.180054 C 1040.540039 321.339966 1046.410034 330.140015 1053.920044 337.589966 C 1061.469971 345.030029 1070.540039 350.880005 1081.160034 355.130005 C 1091.73999 359.390015 1103.47998 361.52002 1116.329956 361.52002 C 1124.98999 361.52002 1132.98999 360.589966 1140.329956 358.72998 C 1147.640015 356.869995 1154.23999 354.430054 1160.150024 351.400024 C 1166.01001 348.369995 1171.150024 344.910034 1175.540039 341.030029 C 1179.930054 337.150024 1183.540039 333.130005 1186.329956 328.97998 L 1165.439941 309.52002 C 1160.310059 316.219971 1153.619995 321.47998 1145.459961 325.310059 C 1137.25 329.140015 1128.310059 331.050049 1118.540039 331.050049 C 1111.609985 331.050049 1105.199951 329.849976 1099.380005 327.459961 C 1093.550049 325.060059 1088.459961 321.77002 1084.119995 317.569946 C 1079.77002 313.369995 1076.280029 308.390015 1073.609985 302.650024 C 1070.939941 296.909973 1069.26001 290.679993 1068.609985 283.97998 L 1189.040039 283.97998 L 1189.040039 267.849976 Z M 1151.160034 255.880005 L 1069.75 255.880005 C 1070.810059 249.179993 1072.619995 243.200012 1075.119995 237.929993 C 1077.630005 232.659973 1080.699951 228.200012 1084.359985 224.530029 C 1088.01001 220.859985 1092.109985 218.070007 1096.709961 216.150024 C 1101.300049 214.22998 1106.310059 213.280029 1111.640015 213.280029 C 1118.170044 213.280029 1123.869995 214.400024 1128.75 216.630005 C 1133.630005 218.859985 1137.650024 221.840027 1140.859985 225.570007 C 1144.099976 229.289978 1146.52002 233.52002 1148.160034 238.25 C 1149.839966 242.97998 1150.829956 247.900024 1151.150024 253.01001 L 1151.150024 255.880005 Z"/>
        </g>
        <g id="g5">
            <path id="path4" fill="#ffffff" fill-rule="evenodd" stroke="none" d="M 1267.410034 185.679993 L 1269.790039 209.609985 C 1276.109985 200.98999 1283.73999 194.320007 1292.689941 189.590027 C 1301.640015 184.859985 1311.560059 182.48999 1322.47998 182.48999 C 1331.339966 182.48999 1339.469971 183.76001 1346.810059 186.320007 C 1354.109985 188.869995 1360.430054 192.859985 1365.72998 198.289978 C 1371.02002 203.710022 1375.170044 210.72998 1378.119995 219.349976 C 1381.030029 227.960022 1382.51001 238.340027 1382.51001 250.460022 L 1382.51001 358.319946 L 1344.150024 358.319946 L 1344.150024 251.090027 C 1344.150024 243.960022 1343.329956 238 1341.650024 233.219971 C 1340.01001 228.429993 1337.670044 224.609985 1334.589966 221.72998 C 1331.550049 218.859985 1327.819946 216.809998 1323.430054 215.590027 C 1319.040039 214.369995 1314.069946 213.75 1308.48999 213.75 C 1300.040039 213.75 1292.689941 215.609985 1286.410034 219.340027 C 1280.170044 223.059998 1275.089966 228.109985 1271.27002 234.5 L 1271.27002 358.310059 L 1232.699951 358.310059 L 1232.699951 185.679993 L 1267.410034 185.679993 Z"/>
        </g>
        <g id="g6">
            <path id="path5" fill="#ffffff" fill-rule="evenodd" stroke="none" d="M 1505.959961 331.189941 C 1510.680054 331.189941 1515.22998 330.439941 1519.709961 328.949951 C 1524.140015 327.459961 1528.079956 325.390015 1531.48999 322.72998 C 1534.939941 320.069946 1537.640015 316.939941 1539.609985 313.319946 C 1541.579956 309.699951 1542.52002 305.77002 1542.400024 301.51001 L 1578.709961 301.51001 C 1578.790039 309.810059 1576.900024 317.599976 1573.01001 324.880005 C 1569.109985 332.170044 1563.780029 338.52002 1557.089966 343.949951 C 1550.400024 349.369995 1542.689941 353.680054 1533.910034 356.869995 C 1525.130005 360.060059 1515.939941 361.660034 1506.300049 361.660034 C 1492.920044 361.660034 1481.189941 359.369995 1471.140015 354.800049 C 1461.089966 350.22998 1452.680054 343.97998 1445.949951 336.050049 C 1439.180054 328.130005 1434.130005 318.920044 1430.77002 308.449951 C 1427.410034 297.969971 1425.719971 286.830017 1425.719971 275.02002 L 1425.719971 269.280029 C 1425.719971 257.469971 1427.400024 246.309998 1430.77002 235.77002 C 1434.130005 225.23999 1439.180054 216.039978 1445.949951 208.169983 C 1452.680054 200.299988 1461.089966 194.049988 1471.140015 189.419983 C 1481.189941 184.799988 1492.890015 182.47998 1506.140015 182.47998 C 1516.640015 182.47998 1526.329956 184.080017 1535.27002 187.27002 C 1544.219971 190.460022 1551.930054 194.929993 1558.410034 200.669983 C 1564.890015 206.419983 1569.900024 213.280029 1573.51001 221.25 C 1577.079956 229.22998 1578.800049 237.950012 1578.719971 247.419983 L 1542.410034 247.419983 C 1542.530029 242.73999 1541.709961 238.330017 1539.949951 234.179993 C 1538.189941 230.030029 1535.640015 226.409973 1532.319946 223.330017 C 1529 220.23999 1525.099976 217.799988 1520.589966 215.98999 C 1516.119995 214.179993 1511.189941 213.280029 1505.819946 213.280029 C 1497.819946 213.280029 1491.130005 214.900024 1485.76001 218.140015 C 1480.430054 221.380005 1476.119995 225.640015 1472.920044 230.900024 C 1469.719971 236.169983 1467.420044 242.150024 1466.109985 248.849976 C 1464.76001 255.549988 1464.099976 262.359985 1464.099976 269.27002 L 1464.099976 275.01001 C 1464.099976 282.030029 1464.76001 288.890015 1466.109985 295.590027 C 1467.420044 302.289978 1469.719971 308.280029 1472.920044 313.540039 C 1476.119995 318.800049 1480.430054 323.060059 1485.76001 326.300049 C 1491.109985 329.569946 1497.839966 331.189941 1505.959961 331.189941 Z"/>
        </g>
        <g id="g7">
            <path id="path6" fill="#ffffff" fill-rule="evenodd" stroke="none" d="M 1781 267.849976 C 1781 255.400024 1779.359985 243.969971 1776.040039 233.549988 C 1772.709961 223.119995 1767.790039 214.109985 1761.349976 206.5 C 1754.869995 198.890015 1746.829956 192.98999 1737.180054 188.789978 C 1727.540039 184.590027 1716.420044 182.48999 1703.780029 182.48999 C 1692.859985 182.48999 1682.439941 184.559998 1672.550049 188.719971 C 1662.660034 192.859985 1653.959961 198.820007 1646.540039 206.590027 C 1639.109985 214.359985 1633.160034 223.710022 1628.72998 234.669983 C 1624.26001 245.630005 1622.040039 257.969971 1622.040039 271.690002 L 1622.040039 278.22998 C 1622.040039 290.039978 1624.130005 301.02002 1628.319946 311.180054 C 1632.51001 321.339966 1638.329956 330.140015 1645.880005 337.589966 C 1653.430054 345.030029 1662.5 350.880005 1673.119995 355.130005 C 1683.709961 359.390015 1695.400024 361.52002 1708.25 361.52002 C 1716.949951 361.52002 1724.949951 360.589966 1732.25 358.72998 C 1739.589966 356.869995 1746.199951 354.430054 1752.109985 351.400024 C 1757.97998 348.369995 1763.109985 344.910034 1767.5 341.030029 C 1771.890015 337.150024 1775.5 333.130005 1778.25 328.97998 L 1757.400024 309.52002 C 1752.27002 316.219971 1745.589966 321.47998 1737.420044 325.310059 C 1729.209961 329.140015 1720.27002 331.050049 1710.5 331.050049 C 1703.569946 331.050049 1697.160034 329.849976 1691.339966 327.459961 C 1685.469971 325.060059 1680.430054 321.77002 1676.079956 317.569946 C 1671.72998 313.369995 1668.23999 308.390015 1665.579956 302.650024 C 1662.869995 296.909973 1661.22998 290.679993 1660.569946 283.97998 L 1781 283.97998 L 1781 267.849976 Z M 1742.140015 255.679993 L 1660.72998 255.679993 C 1661.800049 248.97998 1663.599976 242.98999 1666.109985 237.72998 C 1668.609985 232.469971 1671.689941 228 1675.339966 224.330017 C 1678.98999 220.659973 1683.089966 217.859985 1687.689941 215.950012 C 1692.290039 214.039978 1697.290039 213.080017 1702.630005 213.080017 C 1709.150024 213.080017 1714.859985 214.200012 1719.73999 216.429993 C 1724.579956 218.659973 1728.640015 221.640015 1731.839966 225.369995 C 1735.040039 229.090027 1737.5 233.320007 1739.150024 238.049988 C 1740.829956 242.780029 1741.819946 247.710022 1742.140015 252.809998 L 1742.140015 255.679993 Z"/>
        </g>
        <g id="g8">
            <path id="path7" fill="#ffffff" fill-rule="evenodd" stroke="none" d="M 647.830017 113.23999 L 741.75 113.23999 L 741.75 326.719971 L 794.719971 326.719971 L 794.719971 358.310059 L 647.830017 358.310059 L 647.830017 326.719971 L 703.059998 326.719971 L 703.059998 144.98999 L 647.830017 144.98999 Z"/>
        </g>
    </g>
</svg>
