<?xml version="1.0" encoding="UTF-8"?>
<!-- Generated by Pixelmator Pro 3.3.2 -->
<svg width="742" height="166" viewBox="0 0 742 166" xmlns="http://www.w3.org/2000/svg" xmlns:xlink="http://www.w3.org/1999/xlink">
    <path id="Path" fill="#ffffff" stroke="none" d="M 212.435852 82.367615 L 212.435852 105.108734 C 212.436127 116.930267 205.393738 127.615356 194.529968 132.27655 C 183.666199 136.937775 171.070038 134.678772 162.503113 126.532837 L 173.403839 115.061859 C 176.8992 118.382599 181.877625 119.631714 186.526642 118.354431 C 191.175659 117.077179 194.817108 113.4599 196.125244 108.819458 C 184.295563 114.764374 169.956848 112.131836 161.010437 102.372467 C 152.064056 92.613068 150.685394 78.100037 157.634247 66.830719 C 164.583069 55.561401 178.169647 50.276154 190.907074 53.88739 C 203.644531 57.498596 212.435547 69.128174 212.435852 82.367645 Z M 196.641174 82.367615 C 196.645721 76.801758 193.296387 71.781433 188.155518 69.648315 C 183.014618 67.515228 177.09494 68.689575 173.157684 72.623657 C 169.220428 76.557709 168.04126 82.47641 170.170166 87.619019 C 172.299072 92.761658 177.316681 96.115051 182.882538 96.115051 C 190.474579 96.109528 196.629486 89.959625 196.641174 82.367615 Z M 280.359192 52.899048 L 280.359192 112.257202 L 264.54425 112.257202 L 264.628448 109.810791 C 256.737274 113.797394 247.493439 114.117371 239.345459 110.685974 C 235.773987 109.183472 232.529724 106.999023 229.79425 104.254883 C 227.057495 101.512756 224.873749 98.269714 223.362122 94.702606 C 218.598389 83.43161 221.14212 70.397827 229.79425 61.745117 C 232.53598 59.008453 235.778656 56.82489 239.345459 55.313507 C 247.497559 51.879761 256.747009 52.203491 264.639099 56.198822 L 264.54422 52.899048 Z M 263.36319 90.126373 C 265.910553 85.723969 265.914856 80.296783 263.374481 75.89035 C 260.834076 71.483917 256.135223 68.768188 251.04895 68.766754 C 244.138611 68.760254 238.221405 73.71698 237.016479 80.521454 C 235.811554 87.325958 239.66687 94.013184 246.159241 96.380005 C 252.651611 98.746857 259.906158 96.109833 263.36319 90.126373 Z M 303.845978 68.292358 L 303.845978 80.785675 C 303.854675 90.040283 311.355011 97.540375 320.609619 97.548767 L 320.609619 113.363708 C 311.967407 113.370026 303.677338 109.939728 297.566345 103.828827 C 291.455322 97.717926 288.024902 89.427917 288.031067 80.785706 L 288.031067 39.920197 L 303.845978 34.648895 L 303.845978 53.531708 L 320.609619 53.531708 L 320.609619 68.292389 Z M 330.722595 103.906281 C 321.216614 94.400848 319.280396 79.695618 326.001862 68.053497 C 332.723328 56.411377 346.426453 50.735413 359.411438 54.214905 C 372.396423 57.694397 381.425415 69.461731 381.424988 82.904846 L 381.424988 90.548462 L 339.514771 90.548462 C 341.882965 94.331787 345.869629 96.805176 350.311096 97.246704 C 354.752594 97.688263 359.148193 96.048157 362.214874 92.805145 L 373.327759 103.306152 C 367.813293 109.136139 360.175873 112.488739 352.151855 112.601776 C 344.127838 112.714783 336.399017 109.578644 330.722565 103.906311 Z M 363.943939 75.260681 C 361.311005 71.050293 356.695221 68.492767 351.72937 68.492767 C 346.763519 68.492767 342.147736 71.050293 339.514801 75.260681 Z M 422.620911 83.083923 L 413.469482 112.257202 L 400.321594 112.257202 L 380.067932 53.531708 L 396.652466 53.531708 L 406.911499 84.064636 L 416.252686 53.531708 L 429.083923 53.531708 L 438.604187 84.107269 L 448.799255 53.531708 L 465.383789 53.531708 L 445.130127 112.257202 L 431.772339 112.257202 Z M 524.052307 52.899048 L 524.052307 112.257202 L 508.237366 112.257202 L 508.321594 109.81076 C 500.430359 113.797394 491.186523 114.117371 483.038574 110.685944 C 479.467102 109.183441 476.222839 106.998993 473.487366 104.254883 C 470.75061 101.512726 468.566895 98.269714 467.055237 94.702606 C 462.291504 83.43158 464.835205 70.397797 473.487366 61.745087 C 476.229126 59.008423 479.471802 56.82489 483.038574 55.313477 C 491.190674 51.87973 500.440125 52.203491 508.332214 56.198792 L 508.237305 52.899048 Z M 507.056335 90.126343 C 509.603699 85.723938 509.607971 80.296722 507.067566 75.890289 C 504.527161 71.483887 499.828308 68.768158 494.742004 68.766754 C 487.831665 68.760254 481.91449 73.71698 480.709534 80.521454 C 479.504639 87.325958 483.359924 94.013184 489.852295 96.380005 C 496.344666 98.746857 503.599182 96.109833 507.056213 90.126373 Z M 551.837158 106.637329 L 528.347168 53.531708 L 545.7323 53.531708 L 559.945007 86.806366 L 573.155701 53.531708 L 590.087769 53.531708 L 558.015564 133.132355 L 541.21991 133.132355 Z M 585.121338 102.64621 C 585.135071 100.078888 586.172119 97.623077 588.002563 95.822845 C 589.833008 94.022644 592.305725 93.026672 594.872925 93.055664 C 600.165405 93.061066 604.452881 97.352936 604.452881 102.645416 C 604.452881 107.937866 600.165405 112.229767 594.872925 112.235168 C 592.305908 112.264526 589.833191 111.268921 588.002686 109.468964 C 586.17218 107.669037 585.135071 105.213409 585.121277 102.64624 Z M 651.158997 53.679352 L 651.158997 68.439453 L 634.395264 68.439453 L 634.395264 112.257202 L 618.580383 112.257202 L 618.580383 53.626587 C 618.574036 44.984283 622.004333 36.694092 628.115356 30.583038 C 634.22644 24.472015 642.516602 21.041687 651.158936 21.048065 L 651.158936 36.863007 C 641.904114 36.87146 634.403748 44.371826 634.395264 53.626617 L 634.395264 53.679413 Z M 742.464661 79.15152 L 742.464661 112.257202 L 726.649658 112.257202 L 726.649658 79.15155 C 726.649658 73.881866 722.377747 69.609924 717.108032 69.609924 C 711.838379 69.609924 707.566467 73.881866 707.566467 79.15155 L 707.566467 112.257202 L 691.751526 112.257202 L 691.751526 79.15155 C 691.755005 75.740326 689.937195 72.586731 686.983521 70.880127 C 684.029907 69.173523 680.389893 69.173523 677.436279 70.880127 C 674.482666 72.586731 672.664856 75.740326 672.668335 79.15155 L 672.668335 112.257202 L 656.853394 112.257202 L 656.853394 52.899048 L 672.668335 52.899048 L 672.668335 55.650879 C 681.888062 51.917847 692.438477 53.912506 699.658997 60.753754 C 707.010254 53.775726 717.811279 51.846924 727.123413 55.849274 C 736.435486 59.851593 742.468811 69.015778 742.4646 79.15155 Z M -0.464569 89.426239 L 119.849426 19.962891 L 120.024231 42.163757 L -0.464569 111.727692 Z M 86.359375 22.727325 L 86.18457 -0.048004 L -0.464569 49.978882 L -0.464569 72.855133 Z M 87.316284 77.618683 L 68.002396 88.769501 L 133.560455 126.619141 L 133.560455 104.317719 Z M 133.560455 87.746582 L 133.560455 50.919739 L 101.667297 69.333069 Z M 119.84964 135.274323 L 53.651306 97.054993 L 34.337463 108.205994 L 81.213623 135.269897 L 66.862534 143.555542 L 19.986374 116.491516 L 0.349792 127.828522 L 66.547852 166.048004 Z"/>
</svg>
