<?xml version="1.0" encoding="UTF-8"?>
<!-- Generated by Pixelmator Pro 3.3.2 -->
<svg width="300" height="72" viewBox="0 0 300 72" xmlns="http://www.w3.org/2000/svg" xmlns:xlink="http://www.w3.org/1999/xlink">
    <path id="Path" fill="#ffffff" stroke="none" d="M 101.154747 44.072731 L 100.990509 44.072731 C 100.815328 45.202909 100.224818 46.139636 99.218979 46.882912 C 98.211675 47.627637 96.84525 48 95.119705 48 C 93.807302 48 92.582484 47.754908 91.445251 47.264725 C 90.301689 46.770554 89.282326 46.029861 88.460579 45.096001 C 87.60657 44.138908 86.94015 42.94691 86.461319 41.520004 C 85.979563 40.094546 85.738686 38.445817 85.738686 36.573818 C 85.738686 34.701819 85.990512 33.042182 86.494164 31.594906 C 86.997815 30.147635 87.697085 28.935272 88.591972 27.957817 C 89.511681 26.978907 90.605113 26.23418 91.872269 25.723637 C 93.142339 25.21309 94.552556 24.957817 96.102921 24.957817 C 98.158391 24.957817 99.929924 25.39418 101.417519 26.266907 C 102.905108 27.117818 104.07445 28.405092 104.925545 30.128727 L 100.859123 32.393456 C 100.508761 31.520727 99.962046 30.786181 99.218979 30.189819 C 98.474452 29.574544 97.435766 29.266907 96.102921 29.266907 C 94.549637 29.266907 93.314601 29.703271 92.397812 30.576 C 91.478099 31.448727 91.018242 32.820362 91.018242 34.690907 L 91.018242 38.264729 C 91.018242 40.116365 91.478099 41.488728 92.397812 42.381817 C 93.31752 43.254546 94.552556 43.69091 96.102921 43.69091 C 96.716059 43.69091 97.295621 43.62691 97.841606 43.498909 C 98.389051 43.350543 98.870801 43.138179 99.286858 42.861816 C 99.682159 42.589607 100.007706 42.22863 100.237228 41.807999 C 100.476644 41.40509 100.596352 40.926544 100.596352 40.37236 L 100.596352 39.255276 L 96.332848 39.255276 L 96.332848 35.201458 L 105.354744 35.201458 L 105.354744 47.615997 L 101.154747 47.615997 Z M 122.040871 48 C 120.727008 48 119.556938 47.797819 118.530663 47.393456 C 117.543228 46.995956 116.649788 46.397785 115.907295 45.637093 C 115.185837 44.831867 114.638687 43.887123 114.299995 42.861816 C 113.934753 41.683609 113.757416 40.455566 113.774452 39.222546 C 113.774452 37.904725 113.949633 36.713453 114.299995 35.648727 C 114.650363 34.565091 115.164233 33.640002 115.841606 32.873459 C 116.540876 32.105456 117.39343 31.52 118.399269 31.117092 C 119.405108 30.690909 120.553281 30.477818 121.843788 30.477818 C 123.265694 30.477818 124.478836 30.711999 125.483215 31.180363 C 126.510951 31.648726 127.342336 32.276362 127.977371 33.063271 C 128.634313 33.850182 129.104385 34.765092 129.387589 35.808002 C 129.694158 36.827638 129.847443 37.902546 129.847443 39.032726 L 129.847443 40.435638 L 118.793434 40.435638 L 118.793434 40.69091 C 118.793434 41.796364 119.099271 42.679273 119.710945 43.339638 C 120.324089 43.979637 121.286135 44.299637 122.597084 44.299637 C 123.604378 44.299637 124.424815 44.107638 125.058395 43.72364 C 125.693431 43.319272 126.283211 42.840726 126.827736 42.288002 L 129.25621 45.222542 C 128.488327 46.095271 127.482485 46.775998 126.238686 47.264725 C 125.012408 47.754908 123.612406 48 122.038681 48 M 121.940147 33.957817 C 120.954745 33.957817 120.178103 34.277091 119.610222 34.915638 C 119.064237 35.532365 118.791245 36.361455 118.791245 37.402908 L 118.791245 37.660362 L 124.826279 37.660362 L 124.826279 37.372364 C 124.826279 36.349819 124.585403 35.53091 124.103653 34.915638 C 123.642339 34.275636 122.921171 33.955635 121.940147 33.955635 M 145.182495 48 C 143.912415 48 142.77445 47.797819 141.7686 47.393456 C 140.806717 47.00177 139.94429 46.401833 139.243805 45.637093 C 138.539047 44.82547 138.003799 43.881989 137.669342 42.861816 C 137.281693 41.688034 137.092972 40.458115 137.110947 39.222546 C 137.110947 37.882908 137.297078 36.670544 137.669342 35.585453 C 138.041606 34.500362 138.566427 33.585454 139.243805 32.840729 C 139.944529 32.074181 140.786128 31.488725 141.7686 31.084362 C 142.775904 30.681456 143.913137 30.480003 145.180298 30.480003 C 146.447449 30.480003 147.573725 30.681456 148.559128 31.084362 C 149.566422 31.490182 150.40803 32.075638 151.083954 32.840729 C 151.784678 33.584 152.32044 34.498908 152.691238 35.585453 C 153.078644 36.758545 153.267365 37.987709 153.249634 39.222546 C 153.267593 40.458115 153.078888 41.688034 152.691238 42.861816 C 152.318975 43.945455 151.783213 44.871273 151.083954 45.639271 C 150.405111 46.404364 149.563502 46.989093 148.559128 47.393456 C 147.573725 47.797819 146.447449 48 145.180298 48 M 145.180298 44.264725 C 146.139425 44.264725 146.882487 43.977453 147.409485 43.402908 C 147.935038 42.829819 148.197815 42.01091 148.197815 40.946182 L 148.197815 37.531635 C 148.197815 36.466908 147.935038 35.647999 147.409485 35.074909 C 146.883942 34.49891 146.140147 34.211637 145.178101 34.213089 C 144.2146 34.213089 143.470805 34.500362 142.946716 35.074909 C 142.421163 35.649456 142.159119 36.468365 142.160583 37.531635 L 142.160583 40.946182 C 142.160583 42.009455 142.423355 42.829091 142.948898 43.40509 C 143.474452 43.979635 144.217519 44.266907 145.178101 44.266907 M 172.189056 44.807999 L 172.024811 44.807999 C 171.893433 45.254545 171.686137 45.68 171.402924 46.084366 C 171.118256 46.468363 170.767888 46.808726 170.351822 47.105453 C 169.957667 47.381821 169.498545 47.594912 168.974457 47.744728 C 168.467529 47.916397 167.93541 48.002678 167.399994 48 C 165.214589 48 163.564224 47.255272 162.448898 45.765816 C 161.333572 44.255999 160.775909 42.074909 160.775909 39.222546 C 160.775909 36.371637 161.332845 34.201455 162.446716 32.712002 C 163.563497 31.222546 165.214589 30.477818 167.399994 30.477818 C 168.516785 30.477818 169.500727 30.776 170.351822 31.372364 C 171.227727 31.968726 171.78539 32.734543 172.024811 33.669815 L 172.189056 33.669815 L 172.189056 24 L 177.043793 24 L 177.043793 47.615997 L 172.189056 47.615997 Z M 169.007294 44.170914 C 169.927002 44.170914 170.681747 43.957821 171.27153 43.531635 C 171.866241 43.118458 172.211349 42.434029 172.189056 41.711998 L 172.189056 36.76582 C 172.216919 36.050388 171.868317 35.372257 171.269333 34.976727 C 170.681015 34.531638 169.927002 34.309093 169.007294 34.309093 C 168.087596 34.309093 167.322637 34.628365 166.712418 35.266907 C 166.12117 35.882182 165.825546 36.722183 165.825546 37.786911 L 165.825546 40.69091 C 165.825546 41.755638 166.12117 42.606547 166.712418 43.243637 C 167.325556 43.861821 168.090515 44.170914 169.007294 44.170914 M 193.686127 48 C 192.373728 48 191.203659 47.797819 190.175919 47.393456 C 189.188477 46.995956 188.295044 46.397785 187.552567 45.637093 C 186.831085 44.831867 186.283936 43.887123 185.945251 42.861816 C 185.580002 41.683609 185.402664 40.455566 185.419708 39.222546 C 185.419708 37.904725 185.594889 36.713453 185.945251 35.648727 C 186.258514 34.626328 186.783707 33.68084 187.486862 32.873459 C 188.187586 32.105456 189.040141 31.52 190.044525 31.117092 C 191.051819 30.690909 192.199997 30.477818 193.489059 30.477818 C 194.90949 30.477818 196.123357 30.711999 197.130661 31.180363 C 198.156937 31.648726 198.987595 32.276362 199.622635 33.063271 C 200.279566 33.850182 200.749639 34.765092 201.032852 35.808002 C 201.339422 36.827638 201.492706 37.902546 201.492706 39.032726 L 201.492706 40.435638 L 190.43869 40.435638 L 190.43869 40.69091 C 190.43869 41.796364 190.74526 42.679273 191.358398 43.339638 C 191.970072 43.979637 192.931386 44.299637 194.24234 44.299637 C 195.249634 44.299637 196.070073 44.107638 196.703659 43.72364 C 197.338689 43.319272 197.929199 42.840726 198.475189 42.288002 L 200.901459 45.222542 C 200.13504 46.095271 199.129201 46.775998 197.883942 47.264725 C 196.657664 47.754908 195.258392 48 193.686127 48 M 193.587585 33.957817 C 192.602193 33.957817 191.825556 34.277091 191.257675 34.915638 C 190.710231 35.532365 190.437236 36.361455 190.43869 37.402908 L 190.43869 37.660362 L 196.473724 37.660362 L 196.473724 37.372364 C 196.473724 36.349819 196.232844 35.53091 195.751083 34.915638 C 195.291245 34.275636 194.570079 33.955635 193.587585 33.955635 M 211.480286 47.615997 L 208.659851 31.149818 L 210.332855 31.149818 L 212.726273 46.021091 L 212.956207 46.021091 L 216.367874 31.149818 L 218.531387 31.149818 L 221.943054 46.021091 L 222.172989 46.021091 L 224.533585 31.149818 L 226.173737 31.149818 L 223.353287 47.615997 L 220.828476 47.615997 L 217.548172 33.032726 L 217.351105 33.032726 L 214.005096 47.615997 Z M 242.003647 48 C 237.411682 48 234.624084 44.807999 234.624084 39.381817 C 234.624084 33.955635 237.411682 30.76582 242.003647 30.76582 C 246.595627 30.76582 249.383209 33.957817 249.383209 39.384003 C 249.383209 44.810181 246.595627 48 242.003647 48 M 242.003647 46.402908 C 245.316788 46.402908 247.38176 44.297455 247.38176 40.402908 L 247.38176 38.360729 C 247.38176 34.468365 245.316788 32.360729 242.003647 32.360729 C 238.690506 32.360729 236.623352 34.468365 236.623352 38.360729 L 236.623352 40.40509 C 236.623352 44.297455 238.690506 46.40509 242.003647 46.40509 M 259.309479 47.615997 L 259.309479 46.053818 L 264.621887 46.053818 L 264.621887 32.712002 L 259.309479 32.712002 L 259.309479 31.149818 L 266.491974 31.149818 L 266.491974 34.915638 L 266.623352 34.915638 C 267.310944 32.904003 268.786865 31.149818 272.132843 31.149818 L 275.051819 31.149818 L 275.051819 32.936729 L 271.57663 32.936729 C 268.526276 32.936729 266.491974 34.850182 266.491974 37.819637 L 266.491974 46.053818 L 272.132843 46.053818 L 272.132843 47.615997 Z M 285.208008 47.615997 L 285.208008 24 L 287.075928 24 L 287.075928 39.573818 L 287.207306 39.573818 L 290.520447 36.637089 L 296.818237 31.149818 L 299.148163 31.149818 L 291.897827 37.592728 L 300 47.613815 L 297.672241 47.613815 L 290.454773 38.679276 L 287.075928 41.581093 L 287.075928 47.613815 Z"/>
    <path id="path1" fill="#ffffff" fill-rule="evenodd" stroke="none" d="M 35.187592 28.525093 L 27.505838 36 L 35.187592 43.474911 L 42.869343 36 Z M 31.806568 36 L 35.187592 39.287998 L 38.568615 36 L 35.187592 32.712002 Z"/>
    <path id="path2" fill="#ffffff" fill-rule="evenodd" stroke="none" d="M 35.187592 19.426907 L 49.937958 27.713455 L 49.937958 44.286545 L 35.187592 52.57309 L 20.437227 44.286545 L 20.437227 27.713455 Z M 46.896351 29.421818 L 35.187592 22.845821 L 23.478832 29.421818 L 23.478832 42.578178 L 35.187592 49.154182 L 46.896351 42.578178 Z"/>
    <path id="path3" fill="#ffffff" fill-rule="evenodd" stroke="none" d="M 35.187592 9.774544 L 16.129927 17.454544 L 8.233577 36 L 16.129927 54.545456 L 35.187592 62.225456 L 54.245255 54.545456 L 62.13942 36 L 54.245255 17.454544 Z M 35.187592 12.977455 L 51.917519 19.721455 L 58.848175 36 L 51.917519 52.278549 L 35.187592 59.020363 L 18.457664 52.278549 L 11.527007 36 L 18.459854 19.721455 Z"/>
    <path id="path4" fill="#ffffff" fill-rule="evenodd" stroke="none" d="M 35.187592 0 L 13.440876 6.874908 L -0 24.874912 L -0 47.127274 L 13.440876 65.127274 L 35.187592 72 L 56.934307 65.125092 L 70.375183 47.125092 L 70.375183 24.872726 L 56.934307 6.874908 Z M 35.187592 3.111275 L 55.055473 9.394909 L 67.33358 25.83709 L 67.33358 46.16291 L 55.055473 62.607273 L 35.187592 68.888725 L 15.319708 62.605091 L 3.041606 46.16291 L 3.041606 25.83709 L 15.319708 9.392727 Z"/>
</svg>
