<?xml version="1.0" encoding="UTF-8" ?>
<svg xmlns="http://www.w3.org/2000/svg" style="display: none;">
  <symbol id="twitter" viewBox="0 0 23 19">
  <path
      d="M22.706 2.18952C21.871 2.55952 20.974 2.80952 20.031 2.92252C21.004 2.34031 21.7319 1.42398 22.079 0.344518C21.1648 0.887508 20.1643 1.26971 19.121 1.47452C18.4194 0.725384 17.4901 0.228845 16.4773 0.0619924C15.4646 -0.10486 14.4251 0.0673099 13.5202 0.551771C12.6154 1.03623 11.8958 1.80588 11.4732 2.74122C11.0505 3.67656 10.9485 4.72527 11.183 5.72452C9.33069 5.63151 7.51863 5.15007 5.86442 4.31142C4.21022 3.47278 2.75084 2.29568 1.581 0.856519C1.181 1.54652 0.951 2.34652 0.951 3.19852C0.950554 3.96551 1.13943 4.72076 1.50088 5.39725C1.86232 6.07374 2.38516 6.65056 3.023 7.07652C2.28328 7.05298 1.55987 6.8531 0.913 6.49352V6.55352C0.912925 7.62926 1.28503 8.6719 1.96618 9.50451C2.64733 10.3371 3.59557 10.9084 4.65 11.1215C3.96378 11.3072 3.24434 11.3346 2.546 11.2015C2.8435 12.1271 3.423 12.9365 4.20337 13.5164C4.98374 14.0963 5.92592 14.4177 6.898 14.4355C5.24783 15.7309 3.20989 16.4336 1.112 16.4305C0.740381 16.4306 0.369076 16.4089 0 16.3655C2.12948 17.7347 4.60834 18.4613 7.14 18.4585C15.71 18.4585 20.395 11.3605 20.395 5.20452C20.395 5.00452 20.39 4.80252 20.381 4.60252C21.2923 3.94349 22.0789 3.12741 22.704 2.19252L22.706 2.18952V2.18952Z"
    />
  </symbol>
  <symbol id="swivel-s" viewBox="0 0 79 144">
    <path
      d="M67.3479 67.3479C82.7546 51.9411 82.7546 26.9618 67.3479 11.5551C51.9411 -3.85169 26.9618 -3.85169 11.5551 11.5551C-3.85169 26.9618 -3.85169 51.9411 11.5551 67.3479L40.8463 96.6391C43.1573 98.9501 46.9042 98.9501 49.2152 96.6391C51.5262 94.3281 51.5262 90.5812 49.2152 88.2702L19.924 58.979C9.13926 48.1942 9.13926 30.7087 19.924 19.924C30.7087 9.13926 48.1942 9.13926 58.979 19.924C69.7637 30.7087 69.7637 48.1942 58.979 58.979L67.3479 67.3479Z"
    />
    <path
      d="M11.5551 76.6521C-3.85169 92.0589 -3.85169 117.038 11.5551 132.445C26.9618 147.852 51.9411 147.852 67.3479 132.445C82.7546 117.038 82.7546 92.0589 67.3479 76.6521L38.0546 47.3589C35.7436 45.0479 31.9967 45.0479 29.6857 47.3589C27.3747 49.6699 27.3747 53.4168 29.6857 55.7278L58.979 85.021C69.7637 95.8058 69.7637 113.291 58.979 124.076C48.1942 134.861 30.7087 134.861 19.924 124.076C9.13926 113.291 9.13926 95.8058 19.924 85.021L11.5551 76.6521Z"
    />
  </symbol>
  <symbol id="illuminate" viewBox="0 0 70 89">
    <path
      d="M67.4132 47.0021C60.6099 29.4921 36.3866 28.548 42.2366 3.09837C42.6699 1.21003 40.6333 -0.249134 38.9866 0.73795C23.2566 9.92212 11.9466 28.3334 21.4366 52.4525C22.2166 54.4267 19.8766 56.2721 18.1866 54.9846C10.3433 49.105 9.51992 40.6505 10.2133 34.5992C10.4733 32.3675 7.52658 31.2946 6.26992 33.14C3.32325 37.6034 0.333252 44.8134 0.333252 55.6713C1.97992 79.7046 22.4766 87.0863 29.8433 88.0305C40.3733 89.3609 51.7699 87.4296 59.9599 80.005C68.9733 71.7221 72.2666 58.5038 67.4132 47.0021ZM27.1999 68.5892C33.4399 67.0871 36.6466 62.6238 37.5132 58.6755C38.9432 52.5384 33.3532 46.53 37.1232 36.8309C38.5532 44.8563 51.2933 49.8775 51.2933 58.6325C51.6399 69.4905 39.7666 78.8034 27.1999 68.5892Z"
    />
  </symbol>
  <symbol id="illuminate-wordmark" viewBox="0 0 272 62">
    <path d="M41.6807 28.9441C37.4534 18.0641 22.4021 17.4775 26.037 1.66412C26.3063 0.490791 25.0408 -0.415876 24.0176 0.197458C14.2436 5.90412 7.21605 17.3441 13.1127 32.3308C13.5974 33.5575 12.1434 34.7041 11.0933 33.9041C6.2198 30.2508 5.70822 24.9975 6.13903 21.2375C6.30058 19.8508 4.46964 19.1841 3.6888 20.3308C1.85786 23.1041 0 27.5841 0 34.3308C1.02317 49.2641 13.759 53.8508 18.3363 54.4375C24.8792 55.2641 31.9606 54.0641 37.0496 49.4508C42.6501 44.3041 44.6964 36.0908 41.6807 28.9441ZM16.6938 42.3575C20.5711 41.4241 22.5636 38.6508 23.1021 36.1975C23.9907 32.3841 20.5173 28.6508 22.8598 22.6241C23.7483 27.6108 31.6644 30.7308 31.6644 36.1708C31.8799 42.9175 24.5022 48.7041 16.6938 42.3575Z" fill="#F3F9FC"/>
    <path d="M64.5227 23.8708V19.8108H68.7027V23.8708H64.5227ZM64.5227 49.0108V27.4108H68.7027V49.0108H64.5227ZM76.7087 49.0108V19.6108H80.8887V49.0108H76.7087ZM88.8946 49.0108V19.6108H93.0746V49.0108H88.8946ZM108.821 49.5908C107.327 49.5908 106.074 49.3508 105.061 48.8708C104.047 48.3908 103.221 47.7641 102.581 46.9908C101.954 46.2041 101.474 45.3508 101.141 44.4308C100.807 43.5108 100.581 42.6108 100.461 41.7308C100.341 40.8508 100.281 40.0775 100.281 39.4108V27.4108H104.521V38.0308C104.521 38.8708 104.587 39.7375 104.721 40.6308C104.867 41.5108 105.134 42.3308 105.521 43.0908C105.921 43.8508 106.474 44.4641 107.181 44.9308C107.901 45.3975 108.834 45.6308 109.981 45.6308C110.727 45.6308 111.434 45.5108 112.101 45.2708C112.767 45.0175 113.347 44.6175 113.841 44.0708C114.347 43.5241 114.741 42.8041 115.021 41.9108C115.314 41.0175 115.461 39.9308 115.461 38.6508L118.061 39.6308C118.061 41.5908 117.694 43.3241 116.961 44.8308C116.227 46.3241 115.174 47.4908 113.801 48.3308C112.427 49.1708 110.767 49.5908 108.821 49.5908ZM115.961 49.0108V42.7708H115.461V27.4108H119.681V49.0108H115.961ZM152.77 49.0108L152.79 35.5508C152.79 33.9908 152.39 32.7775 151.59 31.9108C150.79 31.0308 149.737 30.5908 148.43 30.5908C147.63 30.5908 146.897 30.7775 146.23 31.1508C145.577 31.5108 145.043 32.0575 144.63 32.7908C144.23 33.5108 144.03 34.4175 144.03 35.5108L142.01 34.4908C141.983 32.9708 142.303 31.6375 142.97 30.4908C143.65 29.3441 144.57 28.4575 145.73 27.8308C146.89 27.1908 148.19 26.8708 149.63 26.8708C151.963 26.8708 153.77 27.5708 155.05 28.9708C156.33 30.3708 156.97 32.2308 156.97 34.5508L156.95 49.0108H152.77ZM126.87 49.0108V27.4108H130.59V33.6508H131.07V49.0108H126.87ZM139.83 49.0108L139.85 35.6308C139.85 34.0575 139.45 32.8241 138.65 31.9308C137.863 31.0375 136.803 30.5908 135.47 30.5908C134.15 30.5908 133.083 31.0441 132.27 31.9508C131.47 32.8575 131.07 34.0441 131.07 35.5108L129.07 34.2308C129.07 32.8175 129.41 31.5575 130.09 30.4508C130.77 29.3441 131.69 28.4708 132.85 27.8308C134.01 27.1908 135.323 26.8708 136.79 26.8708C138.323 26.8708 139.63 27.1975 140.71 27.8508C141.79 28.4908 142.61 29.3908 143.17 30.5508C143.743 31.7108 144.03 33.0575 144.03 34.5908L144.01 49.0108H139.83ZM164.163 23.8708V19.8108H168.343V23.8708H164.163ZM164.163 49.0108V27.4108H168.343V49.0108H164.163ZM191.109 49.0108V38.3908C191.109 37.5508 191.036 36.6908 190.889 35.8108C190.756 34.9175 190.489 34.0908 190.089 33.3308C189.703 32.5708 189.149 31.9575 188.429 31.4908C187.723 31.0241 186.796 30.7908 185.649 30.7908C184.903 30.7908 184.196 30.9175 183.529 31.1708C182.863 31.4108 182.276 31.8041 181.769 32.3508C181.276 32.8975 180.883 33.6175 180.589 34.5108C180.309 35.4041 180.169 36.4908 180.169 37.7708L177.569 36.7908C177.569 34.8308 177.936 33.1041 178.669 31.6108C179.403 30.1041 180.456 28.9308 181.829 28.0908C183.203 27.2508 184.863 26.8308 186.809 26.8308C188.303 26.8308 189.556 27.0708 190.569 27.5508C191.583 28.0308 192.403 28.6641 193.029 29.4508C193.669 30.2241 194.156 31.0708 194.489 31.9908C194.823 32.9108 195.049 33.8108 195.169 34.6908C195.289 35.5708 195.349 36.3441 195.349 37.0108V49.0108H191.109ZM175.929 49.0108V27.4108H179.669V33.6508H180.169V49.0108H175.929ZM208.259 49.6108C206.659 49.6108 205.319 49.3175 204.239 48.7308C203.159 48.1308 202.339 47.3441 201.779 46.3708C201.232 45.3841 200.959 44.3041 200.959 43.1308C200.959 42.0375 201.152 41.0775 201.539 40.2508C201.925 39.4241 202.499 38.7241 203.259 38.1508C204.019 37.5641 204.952 37.0908 206.059 36.7308C207.019 36.4508 208.105 36.2041 209.319 35.9908C210.532 35.7775 211.805 35.5775 213.139 35.3908C214.485 35.2041 215.819 35.0175 217.139 34.8308L215.619 35.6708C215.645 33.9775 215.285 32.7241 214.539 31.9108C213.805 31.0841 212.539 30.6708 210.739 30.6708C209.605 30.6708 208.565 30.9375 207.619 31.4708C206.672 31.9908 206.012 32.8575 205.639 34.0708L201.739 32.8708C202.272 31.0175 203.285 29.5441 204.779 28.4508C206.285 27.3575 208.285 26.8108 210.779 26.8108C212.712 26.8108 214.392 27.1441 215.819 27.8108C217.259 28.4641 218.312 29.5041 218.979 30.9308C219.325 31.6375 219.539 32.3841 219.619 33.1708C219.699 33.9575 219.739 34.8041 219.739 35.7108V49.0108H216.039V44.0708L216.759 44.7108C215.865 46.3641 214.725 47.5975 213.339 48.4108C211.965 49.2108 210.272 49.6108 208.259 49.6108ZM208.999 46.1908C210.185 46.1908 211.205 45.9841 212.059 45.5708C212.912 45.1441 213.599 44.6041 214.119 43.9508C214.639 43.2975 214.979 42.6175 215.139 41.9108C215.365 41.2708 215.492 40.5508 215.519 39.7508C215.559 38.9508 215.579 38.3108 215.579 37.8308L216.939 38.3308C215.619 38.5308 214.419 38.7108 213.339 38.8708C212.259 39.0308 211.279 39.1908 210.399 39.3508C209.532 39.4975 208.759 39.6775 208.079 39.8908C207.505 40.0908 206.992 40.3308 206.539 40.6108C206.099 40.8908 205.745 41.2308 205.479 41.6308C205.225 42.0308 205.099 42.5175 205.099 43.0908C205.099 43.6508 205.239 44.1708 205.519 44.6508C205.799 45.1175 206.225 45.4908 206.799 45.7708C207.372 46.0508 208.105 46.1908 208.999 46.1908ZM238.892 49.0108C237.532 49.2775 236.199 49.3908 234.892 49.3508C233.585 49.3108 232.419 49.0575 231.392 48.5908C230.365 48.1241 229.592 47.3908 229.072 46.3908C228.605 45.4975 228.352 44.5908 228.312 43.6708C228.285 42.7375 228.272 41.6841 228.272 40.5108V21.4108H232.472V40.3108C232.472 41.1775 232.479 41.9308 232.492 42.5708C232.519 43.2108 232.659 43.7508 232.912 44.1908C233.392 45.0175 234.152 45.4908 235.192 45.6108C236.245 45.7175 237.479 45.6708 238.892 45.4708V49.0108ZM224.132 30.7708V27.4108H238.892V30.7708H224.132ZM253.65 49.6108C251.503 49.6108 249.616 49.1441 247.99 48.2108C246.376 47.2641 245.116 45.9508 244.21 44.2708C243.316 42.5775 242.87 40.6175 242.87 38.3908C242.87 36.0308 243.31 33.9841 244.19 32.2508C245.083 30.5175 246.323 29.1775 247.91 28.2308C249.496 27.2841 251.343 26.8108 253.45 26.8108C255.65 26.8108 257.523 27.3241 259.07 28.3508C260.616 29.3641 261.77 30.8108 262.53 32.6908C263.303 34.5708 263.61 36.8041 263.45 39.3908H259.27V37.8708C259.243 35.3641 258.763 33.5108 257.83 32.3108C256.91 31.1108 255.503 30.5108 253.61 30.5108C251.516 30.5108 249.943 31.1708 248.89 32.4908C247.836 33.8108 247.31 35.7175 247.31 38.2108C247.31 40.5841 247.836 42.4241 248.89 43.7308C249.943 45.0241 251.463 45.6708 253.45 45.6708C254.756 45.6708 255.883 45.3775 256.83 44.7908C257.79 44.1908 258.536 43.3375 259.07 42.2308L263.17 43.5308C262.33 45.4641 261.056 46.9641 259.35 48.0308C257.643 49.0841 255.743 49.6108 253.65 49.6108ZM245.95 39.3908V36.1308H261.37V39.3908H245.95Z" fill="#F3F9FC"/>
  </symbol>
  <symbol id="discord" viewBox="0 0 71 55">
    <path
      d="M60.1045 4.8978C55.5792 2.8214 50.7265 1.2916 45.6527 0.41542C45.5603 0.39851 45.468 0.440769 45.4204 0.525289C44.7963 1.6353 44.105 3.0834 43.6209 4.2216C38.1637 3.4046 32.7345 3.4046 27.3892 4.2216C26.905 3.0581 26.1886 1.6353 25.5617 0.525289C25.5141 0.443589 25.4218 0.40133 25.3294 0.41542C20.2584 1.2888 15.4057 2.8186 10.8776 4.8978C10.8384 4.9147 10.8048 4.9429 10.7825 4.9795C1.57795 18.7309 -0.943561 32.1443 0.293408 45.3914C0.299005 45.4562 0.335386 45.5182 0.385761 45.5576C6.45866 50.0174 12.3413 52.7249 18.1147 54.5195C18.2071 54.5477 18.305 54.5139 18.3638 54.4378C19.7295 52.5728 20.9469 50.6063 21.9907 48.5383C22.0523 48.4172 21.9935 48.2735 21.8676 48.2256C19.9366 47.4931 18.0979 46.6 16.3292 45.5858C16.1893 45.5041 16.1781 45.304 16.3068 45.2082C16.679 44.9293 17.0513 44.6391 17.4067 44.3461C17.471 44.2926 17.5606 44.2813 17.6362 44.3151C29.2558 49.6202 41.8354 49.6202 53.3179 44.3151C53.3935 44.2785 53.4831 44.2898 53.5502 44.3433C53.9057 44.6363 54.2779 44.9293 54.6529 45.2082C54.7816 45.304 54.7732 45.5041 54.6333 45.5858C52.8646 46.6197 51.0259 47.4931 49.0921 48.2228C48.9662 48.2707 48.9102 48.4172 48.9718 48.5383C50.038 50.6034 51.2554 52.5699 52.5959 54.435C52.6519 54.5139 52.7526 54.5477 52.845 54.5195C58.6464 52.7249 64.529 50.0174 70.6019 45.5576C70.6551 45.5182 70.6887 45.459 70.6943 45.3942C72.1747 30.0791 68.2147 16.7757 60.1968 4.9823C60.1772 4.9429 60.1437 4.9147 60.1045 4.8978ZM23.7259 37.3253C20.2276 37.3253 17.3451 34.1136 17.3451 30.1693C17.3451 26.225 20.1717 23.0133 23.7259 23.0133C27.308 23.0133 30.1626 26.2532 30.1066 30.1693C30.1066 34.1136 27.28 37.3253 23.7259 37.3253ZM47.3178 37.3253C43.8196 37.3253 40.9371 34.1136 40.9371 30.1693C40.9371 26.225 43.7636 23.0133 47.3178 23.0133C50.9 23.0133 53.7545 26.2532 53.6986 30.1693C53.6986 34.1136 50.9 37.3253 47.3178 37.3253Z"
    />
  </symbol>
  <symbol id="docs" viewBox="0 0 24 24">
    <path
      d="M17.5,4.5c-1.95,0-4.05,0.4-5.5,1.5c-1.45-1.1-3.55-1.5-5.5-1.5c-1.45,0-2.99,0.22-4.28,0.79C1.49,5.62,1,6.33,1,7.14 l0,11.28c0,1.3,1.22,2.26,2.48,1.94C4.46,20.11,5.5,20,6.5,20c1.56,0,3.22,0.26,4.56,0.92c0.6,0.3,1.28,0.3,1.87,0 c1.34-0.67,3-0.92,4.56-0.92c1,0,2.04,0.11,3.02,0.36c1.26,0.33,2.48-0.63,2.48-1.94l0-11.28c0-0.81-0.49-1.52-1.22-1.85 C20.49,4.72,18.95,4.5,17.5,4.5z M21,17.23c0,0.63-0.58,1.09-1.2,0.98c-0.75-0.14-1.53-0.2-2.3-0.2c-1.7,0-4.15,0.65-5.5,1.5V8 c1.35-0.85,3.8-1.5,5.5-1.5c0.92,0,1.83,0.09,2.7,0.28c0.46,0.1,0.8,0.51,0.8,0.98V17.23z"
    />
    <path
      d="M13.98,11.01c-0.32,0-0.61-0.2-0.71-0.52c-0.13-0.39,0.09-0.82,0.48-0.94c1.54-0.5,3.53-0.66,5.36-0.45 c0.41,0.05,0.71,0.42,0.66,0.83c-0.05,0.41-0.42,0.71-0.83,0.66c-1.62-0.19-3.39-0.04-4.73,0.39 C14.13,10.99,14.05,11.01,13.98,11.01z"
    />
    <path
      d="M13.98,13.67c-0.32,0-0.61-0.2-0.71-0.52c-0.13-0.39,0.09-0.82,0.48-0.94c1.53-0.5,3.53-0.66,5.36-0.45 c0.41,0.05,0.71,0.42,0.66,0.83c-0.05,0.41-0.42,0.71-0.83,0.66c-1.62-0.19-3.39-0.04-4.73,0.39 C14.13,13.66,14.05,13.67,13.98,13.67z"
    />
    <path
      d="M13.98,16.33c-0.32,0-0.61-0.2-0.71-0.52c-0.13-0.39,0.09-0.82,0.48-0.94c1.53-0.5,3.53-0.66,5.36-0.45 c0.41,0.05,0.71,0.42,0.66,0.83c-0.05,0.41-0.42,0.7-0.83,0.66c-1.62-0.19-3.39-0.04-4.73,0.39 C14.13,16.32,14.05,16.33,13.98,16.33z"
    />
  </symbol>
  <symbol id="jobs" viewBox="0 0 24 24">
    <path
      d="M20 6h-4V4c0-1.11-.89-2-2-2h-4c-1.11 0-2 .89-2 2v2H4c-1.11 0-1.99.89-1.99 2L2 19c0 1.11.89 2 2 2h16c1.11 0 2-.89 2-2V8c0-1.11-.89-2-2-2zm-6 0h-4V4h4v2z"
    />
  </symbol>
  <symbol id="chevron-right" viewBox="0 0 24 24">
    <path
      d="M15.54,11.29,9.88,5.64a1,1,0,0,0-1.42,0,1,1,0,0,0,0,1.41l4.95,5L8.46,17a1,1,0,0,0,0,1.41,1,1,0,0,0,.71.3,1,1,0,0,0,.71-.3l5.66-5.65A1,1,0,0,0,15.54,11.29Z"
    />
  </symbol>
  <symbol id="sense" viewBox="0 0 144 48">
<g clip-path="url(#clip0_2182_23193)">
<path
        d="M64.9111 21.3081C63.0489 21.3081 61.5735 21.7889 60.4368 22.7263C59.3242 23.6639 58.768 24.8899 58.768 26.4044C58.768 28.9284 60.3159 30.4429 63.4116 31.0439L66.1204 31.5728C67.7409 31.8853 68.539 32.5102 68.539 33.592C68.539 34.9622 67.3297 35.8036 65.3223 35.8036C62.8795 35.8036 61.2591 34.6017 60.9689 32.6786H58.0908C58.2359 34.4334 58.9373 35.8276 60.1949 36.8373C61.4768 37.871 63.1214 38.3517 65.153 38.3517C67.0636 38.3517 68.5874 37.895 69.7482 36.9574C70.9333 36.02 71.5138 34.7699 71.5138 33.2555C71.5138 30.7314 69.8691 29.4092 66.5799 28.7601L64.5 28.3515C62.686 27.991 61.8395 27.3899 61.8395 26.164C61.8395 24.6976 63.0972 23.7841 65.1046 23.7841C67.2088 23.7841 68.418 24.6976 68.7082 26.5005H71.5864C71.1752 22.5581 67.8376 21.3081 64.9111 21.3081Z"
        fill="white"
      />
<path
        d="M80.0293 24.5835C80.0293 24.4474 80.1403 24.337 80.2773 24.337H89.0743V21.6687H77.747C77.4046 21.6687 77.127 21.9446 77.127 22.285V37.3988C77.127 37.7392 77.4046 38.0152 77.747 38.0152H89.0743V35.3469H80.2773C80.1403 35.3469 80.0293 35.2365 80.0293 35.1003V31.2843H87.5058V28.6159H80.0293V24.5835Z"
        fill="white"
      />
<path
        d="M109.008 21.6687H106.13V32.943L97.1198 22.2007C96.8371 21.8636 96.4184 21.6687 95.9767 21.6687H94.4727V38.0152H97.3749V27.0053L106.289 37.4907C106.571 37.8233 106.987 38.0152 107.426 38.0152H109.008V21.6687Z"
        fill="white"
      />
<path
        d="M121.364 21.3081C119.502 21.3081 118.027 21.7889 116.89 22.7263C115.777 23.6639 115.221 24.8899 115.221 26.4044C115.221 28.9284 116.769 30.4429 119.865 31.0439L122.573 31.5728C124.194 31.8853 124.992 32.5102 124.992 33.592C124.992 34.9622 123.783 35.8036 121.775 35.8036C119.332 35.8036 117.712 34.6017 117.422 32.6786H114.544C114.689 34.4334 115.39 35.8276 116.648 36.8373C117.93 37.871 119.574 38.3517 121.606 38.3517C123.516 38.3517 125.04 37.895 126.201 36.9574C127.387 36.02 127.967 34.7699 127.967 33.2555C127.967 30.7314 126.322 29.4092 123.033 28.7601L120.953 28.3515C119.139 27.991 118.292 27.3899 118.292 26.164C118.292 24.6976 119.55 23.7841 121.557 23.7841C123.661 23.7841 124.871 24.6976 125.161 26.5005H128.039C127.628 22.5581 124.291 21.3081 121.364 21.3081Z"
        fill="white"
      />
<path
        d="M136.482 24.5835C136.482 24.4474 136.593 24.337 136.73 24.337H145.529V21.6687H134.201C133.858 21.6687 133.58 21.9446 133.58 22.285V37.3988C133.58 37.7392 133.858 38.0152 134.201 38.0152H145.529V35.3469H136.73C136.593 35.3469 136.482 35.2365 136.482 35.1003V31.2843H143.96V28.6159H136.482V24.5835Z"
        fill="white"
      />
<path
        d="M0.595703 23.2558L13.1505 30.4636C15.8855 32.0331 17.5639 34.94 17.5476 38.079L17.512 44.8884C19.7374 46.1711 22.1881 47.0155 24.7199 47.3829L24.768 38.1162C24.7979 32.3999 21.7415 27.1065 16.7607 24.2483L2.75494 16.2104C1.73057 18.4152 0.994786 20.7796 0.595703 23.2558Z"
        fill="white"
      />
<path
        d="M37.2916 52.9833C35.0155 53.8436 32.5938 54.4105 30.0732 54.6372L30.0738 38.5688C30.0738 32.8525 33.1578 27.5749 38.1533 24.7424L46.2516 20.1506C47.1972 22.5135 47.6869 25.0453 47.682 27.6022L41.7312 30.9762C38.9879 32.5317 37.2943 35.4299 37.2943 38.5688L37.2916 52.9833Z"
        fill="white"
      />
<path
        d="M49.9321 11.9547L35.9728 19.9646C30.9921 22.8228 24.8518 22.807 19.886 19.9232L11.8359 15.2483C13.422 13.2528 15.383 11.5654 17.6134 10.2913L23.5286 13.7266C26.2555 15.3102 29.6275 15.3189 32.3625 13.7494L44.8882 6.56464C46.8039 8.12489 48.5026 9.93876 49.9321 11.9547Z"
        fill="white"
      />
<path
        d="M17.549 38.0784C17.5649 35.0122 15.9639 32.1676 13.3408 30.5745L16.7215 32.5147C21.6206 35.326 24.6579 40.4933 24.7278 46.1018L24.7212 47.3822C22.1894 47.0148 19.7387 46.1704 17.5134 44.8877L17.549 38.0784Z"
        fill="white"
      />
<path
        d="M32.1698 13.8569C29.4701 15.3183 26.1911 15.274 23.5275 13.7272L17.6124 10.2919C15.382 11.5661 13.4209 13.2535 11.835 15.249L12.9473 15.8949C17.8689 18.639 23.8899 18.6082 28.7889 15.7969L32.1698 13.8569Z"
        fill="white"
      />
<path
        d="M37.2969 38.3517C37.3734 35.2972 39.0515 32.4969 41.731 30.9775L47.6818 27.6035C47.6867 25.0466 47.1971 22.5148 46.2514 20.1519L45.1323 20.7864C40.2806 23.6508 37.297 28.8489 37.297 34.4716L37.2969 38.3517Z"
        fill="white"
      />
</g>
<defs>
<clipPath id="clip0_2182_23193">
<rect width="144" height="48" fill="white" />
</clipPath>
</defs>
</symbol>
<symbol id="apwine" viewBox="0 0 127 33">
<path
      d="M32.2066 7.3255C31.1456 9.28741 29.3955 10.7827 27.2969 11.5203C25.1897 12.2656 22.8829 12.205 20.8174 11.3502C21.8784 9.38825 23.6285 7.89295 25.7272 7.15532C27.835 6.41093 30.1421 6.47367 32.2066 7.3315"
      fill="white"
    />
<path
      d="M6.96973 20.6758C7.67994 22.6327 9.05615 24.2748 10.8553 25.3117C12.6626 26.3546 14.7758 26.7315 16.8303 26.3775C18.8848 26.0234 20.7519 24.9607 22.1096 23.3725C23.4544 21.7915 24.1946 19.7814 24.1974 17.7022V17.2228C24.1192 16.077 23.5958 15.0077 22.7399 14.2456C21.8789 13.4781 20.7563 13.0736 19.6057 13.1165C18.4552 13.1594 17.3655 13.6463 16.5636 14.4758C15.7678 15.3002 15.3266 16.4056 15.3353 17.5536C15.3359 18.7057 14.8843 19.8115 14.0783 20.6315C13.267 21.4561 12.1693 21.9333 11.0152 21.9631H10.7634C9.39648 21.9392 8.0708 21.4894 6.96973 20.6758Z"
      fill="white"
    />
<path
      d="M10.8909 20.8183C11.5329 20.8107 12.1583 20.6126 12.6884 20.249C13.2185 19.8854 13.6296 19.3725 13.87 18.7747C14.1104 18.1771 14.1694 17.5213 14.0394 16.8901C13.9095 16.2588 13.5965 15.6803 13.1397 15.2272C12.6831 14.7741 12.1031 14.4668 11.4729 14.344C10.8426 14.2212 10.1903 14.2883 9.59793 14.5368C9.00558 14.7853 8.49968 15.2043 8.14392 15.7409C7.78815 16.2774 7.59844 16.9076 7.59863 17.5522C7.60113 17.9837 7.68827 18.4106 7.8551 18.8082C8.02192 19.206 8.26514 19.5668 8.57088 19.87C8.87661 20.1733 9.23886 20.4132 9.63694 20.5759C10.035 20.7385 10.4611 20.8209 10.8909 20.8183Z"
      fill="white"
    />
<path
      d="M7.65864 30.8753C5.92295 29.8806 4.39947 28.5525 3.17523 26.9665C1.95101 25.3805 1.05003 23.568 0.5238 21.6322C0.00278667 19.7027 -0.131283 17.6885 0.129376 15.7066C0.390034 13.7246 1.04023 11.8144 2.04221 10.0868C2.46613 9.36192 2.94757 8.67253 3.48183 8.02533L3.5057 7.99537L10.3624 0C10.7822 0.352364 11.1279 0.785049 11.3796 1.27286C11.6312 1.76067 11.7837 2.29386 11.8281 2.8414C11.8726 3.38895 11.8081 3.93989 11.6384 4.46217C11.4688 4.98444 11.1973 5.46762 10.8399 5.88357L6.72635 10.6777C5.75295 11.8561 5.03552 13.2258 4.62008 14.6989C4.20465 16.1719 4.10035 17.7159 4.31388 19.2318C4.52743 20.7477 5.05408 22.202 5.86009 23.5016C6.66611 24.8013 7.7337 25.9175 8.99441 26.7787C10.9072 28.0896 13.1764 28.7755 15.4921 28.7428C17.8077 28.7098 20.0568 27.9599 21.9319 26.5953C23.1701 25.6926 24.2083 24.5418 24.9807 23.2154C25.2851 22.688 25.5462 22.1364 25.7613 21.5663L27.8862 15.6264C28.2689 14.5886 29.0447 13.7446 30.0444 13.2785C31.0492 12.8084 32.1973 12.7513 33.2436 13.119L29.7018 23.0356C28.9157 25.1091 27.6872 26.9847 26.1027 28.5309C23.6942 30.8714 20.5949 32.365 17.2696 32.7876C13.9442 33.2103 10.5721 32.5393 7.65864 30.8753Z"
      fill="white"
    />
<path
      d="M88.7761 8.88345L83.698 24.0615C83.4589 24.7733 83.0023 25.3911 82.3932 25.8271C81.7801 26.2652 81.0461 26.5007 80.2934 26.5005H79.4782L75.4518 14.4458L72.2359 24.0615C71.9954 24.7751 71.5356 25.3936 70.9228 25.8282C70.3082 26.2661 69.5731 26.5011 68.8195 26.5005H68.0054L62.1191 8.88226H63.2496C64.0035 8.87983 64.7394 9.11408 65.3541 9.55224C65.9636 9.98811 66.4205 10.6059 66.6601 11.3177L69.7196 20.4588L73.5932 8.87626H74.7248C75.4789 8.87639 76.2141 9.1127 76.8281 9.55224C77.4409 9.98836 77.9005 10.608 78.1412 11.3225L81.184 20.4588L84.2434 11.3153C84.4828 10.6041 84.9399 9.987 85.5494 9.55224C86.1624 9.11382 86.8965 8.87837 87.6492 8.87866L88.7761 8.88345Z"
      fill="white"
    />
<path
      d="M31.7686 26.4994L37.6619 8.88103H38.4796C39.2353 8.87755 39.9731 9.11231 40.589 9.55221C41.2015 9.98706 41.6611 10.6055 41.902 11.3188L46.9789 26.4982H45.8413C45.0894 26.498 44.3563 26.2625 43.7439 25.8246C43.1351 25.3899 42.6783 24.7734 42.4392 24.0627L39.3796 14.9156L36.3202 24.0627C36.0836 24.7751 35.6275 25.3933 35.0179 25.8283C34.4054 26.2668 33.6717 26.5023 32.9192 26.5017L31.7686 26.4994Z"
      fill="white"
    />
<path
      d="M48.8145 26.4992V8.90956H55.3619C57.1218 8.89346 58.8169 9.57476 60.0794 10.8056C60.7005 11.4102 61.1955 12.1328 61.5358 12.9312C61.8762 13.7296 62.055 14.5881 62.0619 15.4565C62.0688 16.325 61.9036 17.1862 61.5759 17.99C61.2484 18.7937 60.7649 19.5241 60.1536 20.1386C58.91 21.3889 57.2257 22.0965 55.4657 22.1077H54.6637V19.3427C54.6636 19.2468 54.6827 19.1519 54.7197 19.0635C54.7558 18.9733 54.8103 18.8916 54.8797 18.8237C54.9478 18.7555 55.0291 18.7016 55.1185 18.6655C55.2079 18.6294 55.3036 18.6106 55.4002 18.6104C56.1924 18.6174 56.9586 18.3271 57.5488 17.7966C58.1358 17.2693 58.5018 16.5383 58.5731 15.7508C58.6049 15.3251 58.5482 14.8975 58.4063 14.4951C58.2646 14.0927 58.0408 13.7244 57.7494 13.4137C57.457 13.1002 57.1035 12.8505 56.7109 12.6801C56.3186 12.5129 55.8968 12.4272 55.4706 12.4284H52.3513V22.9874C52.3515 23.4488 52.2604 23.9056 52.0835 24.3314C51.9067 24.7572 51.6476 25.1437 51.3212 25.4684C50.654 26.1309 49.7528 26.5015 48.8145 26.4992Z"
      fill="white"
    />
<path
      d="M90.6016 8.90871V22.995C90.6025 23.4562 90.6946 23.9129 90.8722 24.3383C91.0498 24.7636 91.3096 25.1495 91.6366 25.4736C92.302 26.1323 93.1992 26.5009 94.1338 26.4995V12.4288C94.1361 11.9663 94.0467 11.5079 93.8705 11.0805C93.6945 10.6531 93.4354 10.2652 93.1084 9.93944C92.7802 9.61192 92.3907 9.35286 91.9624 9.17719C91.5308 8.99901 91.0683 8.90779 90.6016 8.90871Z"
      fill="white"
    />
<path
      d="M117.912 12.4285V15.9629H124.955C124.955 16.4238 124.865 16.8802 124.687 17.3054C124.509 17.7318 124.25 18.1187 123.923 18.444C123.256 19.1034 122.359 19.4733 121.424 19.4735H117.912V23.0008H126.77C126.769 23.4619 126.678 23.9182 126.5 24.3435C126.322 24.7686 126.062 25.1543 125.735 25.4782C125.07 26.136 124.174 26.5049 123.239 26.5053H114.381V8.90847H126.77C126.769 9.36957 126.678 9.82592 126.5 10.2511C126.322 10.6763 126.062 11.062 125.735 11.3858C125.07 12.0442 124.174 12.4131 123.239 12.413L117.912 12.4285Z"
      fill="white"
    />
<path
      d="M111.838 8.90847V26.4993H110.145C109.578 26.4995 109.018 26.364 108.513 26.1037C108.011 25.8443 107.578 25.4673 107.252 25.0047L100.209 15.0269V22.9948C100.208 23.4558 100.116 23.9122 99.9382 24.3375C99.7606 24.7626 99.5007 25.1483 99.1738 25.4721C98.5082 26.13 97.6117 26.4989 96.6777 26.4993V8.90847H98.3704C98.9375 8.9092 99.4964 9.04516 100.001 9.30518C100.503 9.5649 100.936 9.9418 101.263 10.4042L108.306 20.3915V12.4285C108.304 11.9662 108.394 11.5083 108.571 11.0814C108.748 10.6546 109.008 10.2675 109.336 9.94279C109.665 9.61551 110.054 9.35649 110.483 9.18054C110.913 9.00405 111.373 8.91327 111.838 8.91326"
      fill="white"
    />
</symbol>

<symbol id="notional" viewBox="0 0 169 28">
<path
      fill-rule="evenodd"
      clip-rule="evenodd"
      d="M26.829 0.448051H24.4814V23.7655L26.829 26.1364V0.448051Z"
      fill="white"
    />
<path
      fill-rule="evenodd"
      clip-rule="evenodd"
      d="M22.1454 0.448051H19.7979V19.0647L22.1454 21.4132V0.448051Z"
      fill="white"
    />
<path
      fill-rule="evenodd"
      clip-rule="evenodd"
      d="M17.4501 0.448051H15.1025V14.3601L17.4501 16.7124V0.448051Z"
      fill="white"
    />
<path
      fill-rule="evenodd"
      clip-rule="evenodd"
      d="M10.4111 9.75636V26.1364H12.7549V12.1049L10.4111 9.75636Z"
      fill="white"
    />
<path
      fill-rule="evenodd"
      clip-rule="evenodd"
      d="M5.71582 5.0518V26.1364H8.06335V7.40407L5.71582 5.0518Z"
      fill="white"
    />
<path
      fill-rule="evenodd"
      clip-rule="evenodd"
      d="M1.11739 0.448051H1.02051V26.1364H3.35314V2.69952L1.11739 0.448051Z"
      fill="white"
    />
<path
      d="M43.8096 10.2791H47.5917V12.818H47.6588C48.0624 11.969 48.6948 11.25 49.4846 10.7421C50.4023 10.1148 51.4929 9.79096 52.6035 9.81609C53.5197 9.78933 54.429 9.9813 55.2566 10.3762C55.9684 10.6981 56.5941 11.1843 57.0824 11.795C57.5688 12.3986 57.9252 13.0965 58.1295 13.8448C58.3503 14.617 58.462 15.4163 58.4611 16.2195V26.1364H54.4964V17.3396C54.4948 16.8551 54.4612 16.3711 54.3958 15.8909C54.3386 15.4158 54.1919 14.9559 53.9636 14.5356C53.7464 14.1209 53.427 13.7688 53.0357 13.5125C52.5795 13.2257 52.0458 13.0875 51.508 13.1167C50.9302 13.1008 50.3584 13.2373 49.8498 13.5125C49.3978 13.7431 49.0012 14.0693 48.6872 14.4684C48.3892 14.8904 48.1649 15.36 48.0239 15.8573C47.871 16.3596 47.7931 16.8818 47.7929 17.4069V26.1364H43.8096V10.2791Z"
      fill="white"
    />
<path
      d="M62.5264 18.1349C62.5085 16.9672 62.7344 15.8086 63.1896 14.7335C63.6249 13.7339 64.2602 12.8344 65.0562 12.0907C65.8522 11.347 66.7921 10.7749 67.8176 10.4098C70.0041 9.61815 72.398 9.61815 74.5845 10.4098C75.6055 10.7809 76.5419 11.3535 77.3382 12.0937C78.1257 12.8348 78.7479 13.7344 79.164 14.7335C79.6411 15.8028 79.8789 16.9638 79.8608 18.1349C79.8766 19.3155 79.6389 20.4857 79.164 21.5663C78.7428 22.5723 78.1215 23.4819 77.3382 24.2397C76.5378 24.9826 75.6031 25.5656 74.5845 25.9572C72.4061 26.7935 69.9961 26.7935 67.8176 25.9572C66.7918 25.5769 65.8539 24.9915 65.0608 24.2367C64.2678 23.4819 63.6362 22.5733 63.2046 21.5663C62.7459 20.4812 62.5151 19.3132 62.5264 18.1349ZM66.5731 18.1349C66.5733 18.7666 66.6623 19.3951 66.8376 20.0018C67.0281 20.598 67.3207 21.1564 67.7021 21.6522C68.0903 22.1431 68.5763 22.5475 69.1293 22.8395C69.7703 23.142 70.4701 23.2988 71.1787 23.2988C71.8873 23.2988 72.5871 23.142 73.2281 22.8395C73.7811 22.5475 74.2672 22.1431 74.6553 21.6522C75.0347 21.1601 75.3167 20.6 75.4862 20.0018C75.6832 19.3992 75.7838 18.7691 75.7843 18.1349C75.7832 17.5167 75.6826 16.9027 75.4862 16.3166C75.3167 15.7185 75.0347 15.1583 74.6553 14.6663C74.2719 14.1794 73.7841 13.785 73.2281 13.5125C72.5871 13.21 71.8873 13.0532 71.1787 13.0532C70.4701 13.0532 69.7703 13.21 69.1293 13.5125C68.5733 13.785 68.0855 14.1794 67.7021 14.6663C67.3207 15.162 67.0281 15.7204 66.8376 16.3166C66.6628 16.9068 66.5737 17.5192 66.5731 18.1349Z"
      fill="white"
    />
<path
      d="M81.75 13.4416V10.2791H84.5372V5.69027H88.4535V10.2791H92.4331V13.4416H88.4535V20.8083C88.4332 21.4126 88.5612 22.0126 88.8261 22.5558C89.0895 23.0187 89.6645 23.2502 90.5514 23.2502C90.8395 23.2484 91.1272 23.226 91.4121 23.183C91.6979 23.125 91.9765 23.0361 92.2431 22.9179L92.3772 26.0207C91.9686 26.167 91.5449 26.2672 91.114 26.3194C90.6542 26.4036 90.1879 26.4473 89.7204 26.4501C88.8384 26.4822 87.959 26.3362 87.1344 26.0207C86.5124 25.7484 85.9653 25.3295 85.5396 24.7998C85.1597 24.2643 84.8888 23.6591 84.7422 23.0187C84.6077 22.2998 84.5416 21.5697 84.5447 20.8382V13.4416H81.75Z"
      fill="white"
    />
<path
      d="M95.7159 10.2791H99.6956V26.1364H95.7159V10.2791ZM95.1496 4.89871C95.1461 4.59039 95.2062 4.28467 95.3261 4.0007C95.446 3.71672 95.6231 3.46061 95.8464 3.24838C96.0855 3.00953 96.3708 2.82209 96.6847 2.69754C96.9987 2.57299 97.3347 2.51395 97.6722 2.52403C98.3456 2.50442 98.9994 2.75276 99.4906 3.21478C99.736 3.41996 99.9321 3.67789 100.064 3.96941C100.197 4.26093 100.262 4.57856 100.255 4.89871C100.259 5.22336 100.193 5.54511 100.061 5.84167C99.9292 6.13824 99.7346 6.40253 99.4906 6.61625C98.989 7.06238 98.3351 7.29773 97.6648 7.27339C97.3301 7.28409 96.9965 7.22859 96.6832 7.11007C96.37 6.99155 96.083 6.81233 95.8389 6.58264C95.6188 6.36142 95.4446 6.09873 95.3263 5.80972C95.2079 5.52071 95.1479 5.21109 95.1496 4.89871Z"
      fill="white"
    />
<path
      d="M103.929 18.1349C103.912 16.9674 104.138 15.8091 104.592 14.7335C105.025 13.7354 105.658 12.8368 106.452 12.0932C107.245 11.3496 108.182 10.7767 109.205 10.4098C111.393 9.6182 113.788 9.6182 115.975 10.4098C116.996 10.7818 117.932 11.3543 118.729 12.0937C119.516 12.8358 120.138 13.7351 120.555 14.7335C121.03 15.8034 121.268 16.9639 121.252 18.1349C121.266 19.3154 121.028 20.4852 120.555 21.5663C120.132 22.5716 119.511 23.481 118.729 24.2397C117.928 24.9819 116.994 25.5647 115.975 25.9572C113.796 26.7937 111.385 26.7937 109.205 25.9572C108.187 25.5647 107.252 24.9819 106.451 24.2397C105.664 23.4768 105.032 22.5691 104.588 21.5663C104.138 20.4792 103.914 19.3117 103.929 18.1349ZM107.979 18.1349C107.977 18.7667 108.066 19.3955 108.244 20.0018C108.433 20.5978 108.724 21.1563 109.104 21.6522C109.492 22.1431 109.978 22.5475 110.531 22.8395C111.175 23.1443 111.878 23.3024 112.59 23.3024C113.302 23.3024 114.005 23.1443 114.649 22.8395C115.201 22.5484 115.686 22.1438 116.072 21.6522C116.453 21.161 116.735 20.6006 116.903 20.0018C117.102 19.3996 117.203 18.7692 117.201 18.1349C117.202 17.5165 117.101 16.9022 116.903 16.3166C116.735 15.7178 116.453 15.1574 116.072 14.6663C115.691 14.1791 115.204 13.7846 114.649 13.5125C114.005 13.2077 113.302 13.0496 112.59 13.0496C111.878 13.0496 111.175 13.2077 110.531 13.5125C109.975 13.785 109.488 14.1793 109.104 14.6663C108.724 15.1621 108.433 15.7206 108.244 16.3166C108.067 16.9064 107.978 17.5191 107.979 18.1349Z"
      fill="white"
    />
<path
      d="M125.444 10.2791H129.226V12.818H129.301C129.704 11.97 130.335 11.2511 131.123 10.7421C132.042 10.1154 133.134 9.79168 134.246 9.81609C135.162 9.78933 136.071 9.9813 136.899 10.3762C137.611 10.6981 138.236 11.1843 138.725 11.795C139.214 12.3992 139.575 13.0965 139.787 13.8448C140.007 14.617 140.119 15.4163 140.118 16.2195V26.1364H136.127V17.3396C136.126 16.8551 136.092 16.3711 136.027 15.8909C135.973 15.4157 135.827 14.9554 135.598 14.5356C135.379 14.1215 135.058 13.7696 134.667 13.5125C134.212 13.2265 133.679 13.0882 133.143 13.1167C132.564 13.1008 131.991 13.2373 131.481 13.5125C131.031 13.7443 130.635 14.0703 130.322 14.4684C130.028 14.8906 129.808 15.3605 129.674 15.8573C129.518 16.359 129.439 16.8814 129.439 17.4069V26.1364H125.444V10.2791Z"
      fill="white"
    />
<path
      d="M154.978 24.109H154.877C154.419 24.867 153.749 25.4743 152.951 25.8564C152.01 26.3099 150.976 26.5363 149.933 26.5173C149.25 26.5113 148.57 26.4222 147.909 26.2522C147.227 26.1003 146.575 25.8325 145.983 25.4606C145.4 25.0559 144.904 24.5394 144.522 23.941C144.127 23.2259 143.932 22.4169 143.959 21.5999C143.906 20.5597 144.263 19.5403 144.954 18.7622C145.687 18.0273 146.58 17.4727 147.563 17.1418C148.704 16.7548 149.89 16.5151 151.091 16.4286C152.399 16.2979 153.67 16.2307 154.911 16.2307V15.8237C154.94 15.3952 154.854 14.9667 154.661 14.583C154.469 14.1993 154.176 13.8747 153.815 13.6432C153.057 13.1464 152.165 12.8936 151.259 12.9189C150.423 12.9181 149.597 13.0976 148.837 13.4453C148.125 13.7574 147.474 14.1935 146.914 14.7335L144.857 12.3215C145.76 11.4933 146.821 10.858 147.976 10.4546C149.137 10.0421 150.359 9.82999 151.591 9.82731C152.78 9.78651 153.966 9.98849 155.075 10.421C155.916 10.7482 156.667 11.2718 157.266 11.9481C157.791 12.5748 158.166 13.3127 158.365 14.1062C158.583 14.8802 158.694 15.6804 158.697 16.4846V26.1364H154.97L154.978 24.109ZM154.911 18.8817H154.013C153.372 18.8817 152.697 18.9153 151.989 18.9788C151.324 19.0185 150.667 19.144 150.033 19.3522C149.484 19.5029 148.975 19.7732 148.543 20.1437C148.343 20.3128 148.186 20.5259 148.082 20.7662C147.979 21.0065 147.932 21.2676 147.946 21.5289C147.935 21.8627 148.015 22.1932 148.177 22.4848C148.356 22.727 148.581 22.9302 148.841 23.0822C149.12 23.2394 149.424 23.3504 149.739 23.4108C150.066 23.4763 150.4 23.5089 150.734 23.5078C152.105 23.5078 153.145 23.1457 153.853 22.4213C154.22 22.0199 154.503 21.5487 154.685 21.0356C154.868 20.5225 154.946 19.978 154.915 19.4343L154.911 18.8817Z"
      fill="white"
    />
<path d="M163.731 1.16867H167.711V26.1364H163.731V1.16867Z" fill="white" />
</symbol>
<symbol id="element" viewBox="0 0 227 47">
<path
      d="M62.1847 43.0278C61.9397 43.0278 61.7391 42.9409 61.5831 42.7672C61.4271 42.5935 61.3491 42.3701 61.3491 42.0972V17.9028C61.3491 17.6298 61.4271 17.4065 61.5831 17.2328C61.7391 17.059 61.9397 16.9722 62.1847 16.9722H77.3259C77.5709 16.9722 77.7715 17.059 77.9275 17.2328C78.0835 17.4065 78.1615 17.6298 78.1615 17.9028V20.8805C78.1615 21.1287 78.0835 21.3396 77.9275 21.5133C77.7715 21.687 77.5709 21.7739 77.3259 21.7739H66.4964V27.6178H76.5905C76.8356 27.6178 77.0362 27.7046 77.1922 27.8783C77.3482 28.052 77.4261 28.2754 77.4261 28.5483V31.3028C77.4261 31.5509 77.3482 31.7618 77.1922 31.9355C77.0362 32.1093 76.8356 32.1961 76.5905 32.1961H66.4964V38.2261H77.5933C77.8383 38.2261 78.0389 38.3129 78.1949 38.4866C78.3509 38.6604 78.4289 38.8837 78.4289 39.1566V42.0972C78.4289 42.3701 78.3509 42.5935 78.1949 42.7672C78.0389 42.9409 77.8383 43.0278 77.5933 43.0278H62.1847ZM83.2046 43.0278C82.9595 43.0278 82.7589 42.9409 82.6029 42.7672C82.4469 42.5935 82.369 42.3701 82.369 42.0972V17.5305C82.369 17.2576 82.4469 17.0343 82.6029 16.8605C82.7589 16.6868 82.9595 16.6 83.2046 16.6H86.547C86.7698 16.6 86.9592 16.6868 87.1152 16.8605C87.2712 17.0343 87.3492 17.2576 87.3492 17.5305V42.0972C87.3492 42.3701 87.2712 42.5935 87.1152 42.7672C86.9592 42.9409 86.7698 43.0278 86.547 43.0278H83.2046ZM99.662 43.4C97.1 43.4 95.061 42.6059 93.5457 41.0178C92.0524 39.4296 91.262 37.1218 91.1725 34.0944C91.1725 33.8959 91.1725 33.6354 91.1725 33.3128C91.1725 32.9654 91.1725 32.6924 91.1725 32.4939C91.262 30.5832 91.6513 28.9454 92.3424 27.5805C93.0334 26.1909 94.0027 25.1362 95.25 24.4166C96.498 23.6722 97.958 23.3 99.629 23.3C101.501 23.3 103.061 23.7343 104.308 24.6028C105.578 25.4465 106.525 26.6128 107.149 28.1016C107.795 29.5657 108.119 31.2532 108.119 33.1639V34.02C108.119 34.2682 108.029 34.479 107.851 34.6528C107.695 34.8265 107.506 34.9133 107.283 34.9133H96.353C96.353 34.9382 96.353 34.9878 96.353 35.0622C96.353 35.1118 96.353 35.1615 96.353 35.2111C96.376 36.0051 96.51 36.7372 96.754 37.4072C97.022 38.0524 97.39 38.5735 97.857 38.9705C98.348 39.3676 98.927 39.5661 99.596 39.5661C100.153 39.5661 100.609 39.4793 100.966 39.3055C101.323 39.1318 101.612 38.9209 101.835 38.6728C102.08 38.4246 102.259 38.2137 102.37 38.04C102.57 37.7918 102.727 37.6429 102.838 37.5933C102.971 37.5189 103.172 37.4816 103.439 37.4816H106.915C107.138 37.4816 107.316 37.5561 107.45 37.705C107.606 37.829 107.673 38.0151 107.651 38.2633C107.628 38.6604 107.439 39.1566 107.083 39.7522C106.748 40.3229 106.247 40.8937 105.578 41.4644C104.91 42.0104 104.074 42.4694 103.072 42.8416C102.091 43.2139 100.955 43.4 99.662 43.4ZM96.353 31.5261H102.904V31.4516C102.904 30.5583 102.771 29.789 102.503 29.1439C102.259 28.4739 101.891 27.9528 101.4 27.5805C100.91 27.2083 100.32 27.0222 99.629 27.0222C98.938 27.0222 98.348 27.2083 97.857 27.5805C97.367 27.9528 96.988 28.4739 96.721 29.1439C96.476 29.789 96.353 30.5583 96.353 31.4516V31.5261ZM112.596 43.0278C112.374 43.0278 112.184 42.9409 112.028 42.7672C111.872 42.5935 111.794 42.3701 111.794 42.0972V24.6028C111.794 24.3298 111.872 24.1065 112.028 23.9328C112.184 23.759 112.374 23.6722 112.596 23.6722H115.704C115.927 23.6722 116.117 23.759 116.272 23.9328C116.451 24.1065 116.54 24.3298 116.54 24.6028V25.8683C116.986 25.1735 117.599 24.5779 118.378 24.0816C119.18 23.5854 120.128 23.3248 121.219 23.3C123.805 23.2504 125.576 24.3422 126.534 26.5755C127.047 25.6078 127.782 24.8261 128.74 24.2305C129.721 23.6101 130.79 23.3 131.948 23.3C133.107 23.3 134.154 23.5978 135.09 24.1933C136.026 24.764 136.761 25.6574 137.296 26.8733C137.854 28.0644 138.132 29.6029 138.132 31.4889V42.0972C138.132 42.3701 138.054 42.5935 137.898 42.7672C137.742 42.9409 137.553 43.0278 137.33 43.0278H134.021C133.798 43.0278 133.609 42.9409 133.452 42.7672C133.297 42.5935 133.218 42.3701 133.218 42.0972V31.7866C133.218 30.7693 133.085 29.9751 132.817 29.4044C132.55 28.8089 132.194 28.387 131.748 28.1389C131.325 27.8907 130.845 27.7666 130.311 27.7666C129.843 27.7666 129.386 27.8907 128.94 28.1389C128.517 28.387 128.161 28.8089 127.871 29.4044C127.603 29.9751 127.47 30.7693 127.47 31.7866V42.0972C127.47 42.3701 127.392 42.5935 127.236 42.7672C127.08 42.9409 126.88 43.0278 126.634 43.0278H123.358C123.114 43.0278 122.913 42.9409 122.757 42.7672C122.601 42.5935 122.523 42.3701 122.523 42.0972V31.7866C122.523 30.7693 122.389 29.9751 122.122 29.4044C121.854 28.8089 121.498 28.387 121.052 28.1389C120.629 27.8907 120.161 27.7666 119.648 27.7666C119.18 27.7666 118.724 27.9032 118.278 28.1761C117.833 28.4243 117.465 28.8337 117.175 29.4044C116.908 29.9751 116.774 30.7568 116.774 31.7494V42.0972C116.774 42.3701 116.696 42.5935 116.54 42.7672C116.384 42.9409 116.195 43.0278 115.972 43.0278H112.596ZM150.271 43.4C147.709 43.4 145.67 42.6059 144.155 41.0178C142.662 39.4296 141.87 37.1218 141.782 34.0944C141.782 33.8959 141.782 33.6354 141.782 33.3128C141.782 32.9654 141.782 32.6924 141.782 32.4939C141.87 30.5832 142.261 28.9454 142.952 27.5805C143.642 26.1909 144.611 25.1362 145.859 24.4166C147.107 23.6722 148.567 23.3 150.238 23.3C152.11 23.3 153.669 23.7343 154.917 24.6028C156.188 25.4465 157.134 26.6128 157.758 28.1016C158.404 29.5657 158.728 31.2532 158.728 33.1639V34.02C158.728 34.2682 158.638 34.479 158.46 34.6528C158.304 34.8265 158.114 34.9133 157.892 34.9133H146.962C146.962 34.9382 146.962 34.9878 146.962 35.0622C146.962 35.1118 146.962 35.1615 146.962 35.2111C146.984 36.0051 147.118 36.7372 147.364 37.4072C147.631 38.0524 147.999 38.5735 148.467 38.9705C148.956 39.3676 149.536 39.5661 150.205 39.5661C150.761 39.5661 151.218 39.4793 151.575 39.3055C151.931 39.1318 152.221 38.9209 152.444 38.6728C152.689 38.4246 152.867 38.2137 152.979 38.04C153.179 37.7918 153.335 37.6429 153.447 37.5933C153.58 37.5189 153.781 37.4816 154.048 37.4816H157.524C157.747 37.4816 157.926 37.5561 158.059 37.705C158.215 37.829 158.282 38.0151 158.26 38.2633C158.237 38.6604 158.048 39.1566 157.692 39.7522C157.357 40.3229 156.856 40.8937 156.188 41.4644C155.519 42.0104 154.683 42.4694 153.681 42.8416C152.7 43.2139 151.563 43.4 150.271 43.4ZM146.962 31.5261H153.514V31.4516C153.514 30.5583 153.38 29.789 153.112 29.1439C152.867 28.4739 152.499 27.9528 152.01 27.5805C151.519 27.2083 150.928 27.0222 150.238 27.0222C149.547 27.0222 148.956 27.2083 148.467 27.5805C147.976 27.9528 147.598 28.4739 147.33 29.1439C147.084 29.789 146.962 30.5583 146.962 31.4516V31.5261ZM163.205 43.0278C162.982 43.0278 162.793 42.9409 162.637 42.7672C162.48 42.5935 162.403 42.3701 162.403 42.0972V24.6028C162.403 24.3298 162.48 24.1065 162.637 23.9328C162.793 23.759 162.982 23.6722 163.205 23.6722H166.48C166.725 23.6722 166.926 23.759 167.082 23.9328C167.238 24.1065 167.316 24.3298 167.316 24.6028V26.0544C167.895 25.2604 168.642 24.6028 169.555 24.0816C170.469 23.5605 171.583 23.3 172.898 23.3C174.212 23.3 175.36 23.635 176.341 24.305C177.343 24.9501 178.123 25.9055 178.68 27.1711C179.259 28.4118 179.549 29.9255 179.549 31.7122V42.0972C179.549 42.3701 179.46 42.5935 179.282 42.7672C179.126 42.9409 178.937 43.0278 178.714 43.0278H175.171C174.926 43.0278 174.725 42.9409 174.569 42.7672C174.413 42.5935 174.335 42.3701 174.335 42.0972V31.9355C174.335 30.6204 174.045 29.6029 173.466 28.8833C172.909 28.1389 172.085 27.7666 170.993 27.7666C169.946 27.7666 169.11 28.1389 168.486 28.8833C167.862 29.6029 167.55 30.6204 167.55 31.9355V42.0972C167.55 42.3701 167.472 42.5935 167.316 42.7672C167.16 42.9409 166.971 43.0278 166.748 43.0278H163.205ZM192.048 43.0278C190.667 43.0278 189.486 42.7796 188.505 42.2833C187.525 41.7622 186.779 40.9682 186.266 39.9011C185.776 38.834 185.531 37.494 185.531 35.8811V28.0644H182.923C182.679 28.0644 182.478 27.9776 182.322 27.8039C182.166 27.6301 182.088 27.4068 182.088 27.1339V24.6028C182.088 24.3298 182.166 24.1065 182.322 23.9328C182.478 23.759 182.679 23.6722 182.923 23.6722H185.531V17.5305C185.531 17.2576 185.609 17.0343 185.764 16.8605C185.943 16.6868 186.144 16.6 186.366 16.6H189.642C189.887 16.6 190.088 16.6868 190.243 16.8605C190.4 17.0343 190.477 17.2576 190.477 17.5305V23.6722H194.655C194.878 23.6722 195.068 23.759 195.224 23.9328C195.38 24.1065 195.457 24.3298 195.457 24.6028V27.1339C195.457 27.4068 195.38 27.6301 195.224 27.8039C195.068 27.9776 194.878 28.0644 194.655 28.0644H190.477V35.4344C190.477 36.3774 190.623 37.1218 190.912 37.6678C191.224 38.1889 191.759 38.4494 192.516 38.4494H194.956C195.179 38.4494 195.369 38.5362 195.524 38.71C195.681 38.8837 195.758 39.0946 195.758 39.3428V42.0972C195.758 42.3701 195.681 42.5935 195.524 42.7672C195.369 42.9409 195.179 43.0278 194.956 43.0278H192.048Z"
      fill="white"
    />
<path
      d="M18.9136 35.1655C12.1797 38.4556 4.28138 35.1541 1.27225 27.7915C-1.73688 20.4288 1.28266 11.793 8.01656 8.50293C14.7505 5.21283 22.6487 8.51433 25.6579 15.8769C28.667 23.2396 25.6475 31.8754 18.9136 35.1655Z"
      fill="white"
    />
<path
      d="M43.1711 20.148C38.5092 22.4258 33.0411 20.1401 30.9579 15.0428C28.8747 9.94563 30.9651 3.96703 35.627 1.68923C40.289 -0.588573 45.757 1.69713 47.8402 6.79433C49.9235 11.8916 47.8331 17.8703 43.1711 20.148Z"
      fill="white"
    />
<path
      d="M39.9021 45.2918C36.1467 47.1266 31.7419 45.2854 30.0637 41.1793C28.3856 37.0732 30.0695 32.2571 33.825 30.4223C37.5804 28.5874 41.9852 30.4286 43.6633 34.5347C45.3415 38.6408 43.6575 43.4569 39.9021 45.2918Z"
      fill="white"
    />
<path
      d="M201.73 43.24C201.489 43.24 201.292 43.1563 201.139 42.9887C200.985 42.8212 200.909 42.6058 200.909 42.3426V19.0102C200.909 18.747 200.985 18.5316 201.139 18.364C201.292 18.1965 201.489 18.1128 201.73 18.1128H216.376C216.616 18.1128 216.813 18.1965 216.967 18.364C217.12 18.5316 217.197 18.747 217.197 19.0102V22.0613C217.197 22.3245 217.12 22.5399 216.967 22.7075C216.813 22.875 216.616 22.9587 216.376 22.9587H206.032V29.0252H215.719C215.959 29.0252 216.157 29.1089 216.31 29.2764C216.464 29.444 216.54 29.6594 216.54 29.9226V32.9737C216.54 33.2131 216.464 33.4164 216.31 33.584C216.157 33.7515 215.959 33.8352 215.719 33.8352H206.032V42.3426C206.032 42.6058 205.955 42.8212 205.802 42.9887C205.648 43.1563 205.451 43.24 205.211 43.24H201.73ZM222.124 43.24C221.905 43.24 221.718 43.1563 221.566 42.9887C221.412 42.8212 221.336 42.6058 221.336 42.3426V25.4715C221.336 25.2083 221.412 24.9929 221.566 24.8253C221.718 24.6578 221.905 24.5741 222.124 24.5741H225.408C225.648 24.5741 225.845 24.6578 225.999 24.8253C226.152 24.9929 226.229 25.2083 226.229 25.4715V42.3426C226.229 42.6058 226.152 42.8212 225.999 42.9887C225.845 43.1563 225.648 43.24 225.408 43.24H222.124ZM222.025 21.7024C221.806 21.7024 221.62 21.6187 221.467 21.4511C221.314 21.2836 221.237 21.0682 221.237 20.805V17.9333C221.237 17.6701 221.314 17.4547 221.467 17.2872C221.62 17.0958 221.806 17 222.025 17H225.473C225.714 17 225.911 17.0958 226.065 17.2872C226.239 17.4547 226.327 17.6701 226.327 17.9333V20.805C226.327 21.0682 226.239 21.2836 226.065 21.4511C225.911 21.6187 225.714 21.7024 225.473 21.7024H222.025Z"
      fill="white"
    />
</symbol>

<symbol id="pendle" viewBox="0 0 605 132">
<path d="M159.85 70.49V92.86H153V38H175.69C181.9 38 190.58 43.25 190.58 53.76C190.58 67.77 180.55 70.48 175.37 70.48H159.84L159.85 70.49ZM175.46 64.36C178.25 64.36 183.82 62.13 183.82 53.77C183.82 47.8 179.12 44.14 175.7 44.14H159.86V64.36H175.47H175.46Z" fill="white"/>
<path d="M241.85 81.39C241.85 84.26 243.12 86.8 248.14 86.8H268.36V92.85H246.94C238.82 92.61 235.16 90.22 235 82.42V38H268.36V44.05H241.85V61.49H266.53V67.54H241.85V81.39Z" fill="white"/>
<path d="M349.18 38H356.03V92.86H348.31C340.27 77.1 333.02 63.08 321.48 46.28V92.86H314.63V38H323.71C335.18 54.16 341.78 66.66 349.19 81.07V38H349.18Z" fill="white"/>
<path d="M412.08 92.86H405.23V38H423.38C436.44 38 448.54 47.32 448.54 65.55C448.54 83.78 436.44 92.86 423.38 92.86H412.07H412.08ZM419.96 86.81C433.89 86.81 441.3 79.56 441.3 65.55C441.3 51.54 434.53 44.05 419.96 44.05H412.08V86.81H419.96Z" fill="white"/>
<path d="M501.25 81.39C501.25 84.26 502.52 86.8 507.54 86.8H528.4V92.85H506.35C498.23 92.61 494.57 90.22 494.41 82.42V38H501.26V81.39H501.25Z" fill="white"/>
<path d="M578.32 81.39C578.32 84.26 579.59 86.8 584.61 86.8H604.83V92.85H583.41C575.29 92.61 571.63 90.22 571.47 82.42V38H604.83V44.05H578.32V61.49H603V67.54H578.32V81.39Z" fill="white"/>
<path d="M52 104C80.7188 104 104 80.7188 104 52C104 23.2812 80.7188 0 52 0C23.2812 0 0 23.2812 0 52C0 80.7188 23.2812 104 52 104Z" fill="white"/>
<path d="M29 132C45.0163 132 58 119.016 58 103C58 86.9837 45.0163 74 29 74C12.9837 74 0 86.9837 0 103C0 119.016 12.9837 132 29 132Z" fill="#666666"/>
<mask id="mask0_2569_23000" style="mask-type:alpha" maskUnits="userSpaceOnUse" x="0" y="0" width="104" height="104">
<path d="M52 104C80.7188 104 104 80.7188 104 52C104 23.2812 80.7188 0 52 0C23.2812 0 0 23.2812 0 52C0 80.7188 23.2812 104 52 104Z" fill="white"/>
</mask>
<g mask="url(#mask0_2569_23000)">
<rect x="25" width="7" height="91" fill="#666666"/>
</g>
</symbol>

<symbol id="swivel" viewBox="0 0 267 80">
<path d="M118.91 37.6401C118.67 38.0301 118.41 38.3001 118.13 38.4601C117.86 38.6201 117.51 38.7001 117.08 38.7001C116.63 38.7001 116.19 38.6001 115.74 38.4101C115.29 38.2201 114.81 38.0101 114.29 37.7901C113.77 37.5701 113.19 37.3601 112.54 37.1701C111.89 36.9801 111.15 36.8801 110.32 36.8801C109.12 36.8801 108.2 37.1101 107.57 37.5601C106.93 38.0201 106.61 38.6501 106.61 39.4601C106.61 40.0501 106.82 40.5401 107.23 40.9201C107.65 41.3101 108.2 41.6501 108.89 41.9401C109.58 42.2301 110.36 42.5101 111.23 42.7801C112.1 43.0401 113 43.3401 113.91 43.6601C114.82 43.9801 115.72 44.3601 116.59 44.8001C117.46 45.2401 118.24 45.7701 118.93 46.4101C119.62 47.0501 120.17 47.8301 120.59 48.7401C121.01 49.6501 121.21 50.7501 121.21 52.0301C121.21 53.5901 120.93 55.0301 120.36 56.3501C119.79 57.6701 118.94 58.8101 117.82 59.7601C116.7 60.7101 115.3 61.4501 113.65 61.9801C112 62.5101 110.09 62.7701 107.94 62.7701C106.86 62.7701 105.79 62.6701 104.71 62.4701C103.63 62.2701 102.59 61.9901 101.59 61.6501C100.59 61.3101 99.6598 60.8901 98.8098 60.4201C97.9598 59.9401 97.2298 59.4301 96.6198 58.8801L98.8098 55.4101C99.0698 55.0001 99.3898 54.6801 99.7498 54.4501C100.12 54.2201 100.59 54.1001 101.18 54.1001C101.73 54.1001 102.22 54.2201 102.66 54.4701C103.1 54.7101 103.57 54.9801 104.08 55.2601C104.59 55.5401 105.18 55.8101 105.86 56.0501C106.54 56.2901 107.4 56.4201 108.43 56.4201C109.16 56.4201 109.78 56.3401 110.29 56.1901C110.8 56.0401 111.2 55.8301 111.51 55.5701C111.81 55.3101 112.04 55.0101 112.18 54.6901C112.32 54.3701 112.39 54.0301 112.39 53.6901C112.39 53.0601 112.18 52.5401 111.75 52.1401C111.32 51.7301 110.77 51.3901 110.08 51.0901C109.39 50.8001 108.6 50.5201 107.72 50.2701C106.84 50.0201 105.94 49.7301 105.03 49.4001C104.12 49.0801 103.22 48.6801 102.34 48.2301C101.46 47.7701 100.67 47.2001 99.9798 46.5001C99.2898 45.8001 98.7298 44.9401 98.3098 43.9301C97.8798 42.9201 97.6698 41.6901 97.6698 40.2501C97.6698 38.9101 97.9298 37.6401 98.4498 36.4301C98.9698 35.2201 99.7398 34.1601 100.78 33.2501C101.82 32.3401 103.11 31.6101 104.68 31.0701C106.24 30.5301 108.07 30.2601 110.16 30.2601C111.3 30.2601 112.4 30.3601 113.46 30.5601C114.53 30.7601 115.52 31.0501 116.46 31.4101C117.39 31.7801 118.25 32.2101 119.02 32.7001C119.79 33.2001 120.47 33.7401 121.06 34.3301L118.93 37.6501L118.91 37.6401Z" fill="white"/>
<path d="M122.75 30.7301H130.3C130.97 30.7301 131.55 30.8801 132.03 31.1901C132.52 31.4901 132.81 31.8901 132.91 32.3801L136.08 46.5301C136.32 47.6101 136.55 48.6501 136.75 49.6601C136.95 50.6701 137.14 51.6801 137.3 52.6701C137.58 51.6801 137.88 50.6801 138.2 49.6701C138.51 48.6701 138.82 47.6201 139.13 46.5201L143.09 32.3401C143.21 31.8701 143.51 31.4801 143.97 31.1701C144.44 30.8601 144.97 30.7001 145.58 30.7001H149.78C150.45 30.7001 151.02 30.8601 151.5 31.1701C151.98 31.4901 152.28 31.8801 152.4 32.3401L156.17 46.5201C156.45 47.6001 156.74 48.6401 157.04 49.6501C157.33 50.6601 157.61 51.6901 157.88 52.7201C158.04 51.7101 158.24 50.7001 158.47 49.6901C158.7 48.6901 158.95 47.6201 159.22 46.5101L162.57 32.3601C162.67 31.8701 162.96 31.4801 163.44 31.1701C163.92 30.8701 164.46 30.7101 165.07 30.7101H172.25L162.45 62.2701H154.78C154.37 62.2701 154.03 62.1501 153.75 61.9001C153.47 61.6601 153.24 61.2501 153.08 60.6801L148.58 44.9501C148.38 44.2401 148.18 43.5401 148 42.8501C147.82 42.1601 147.65 41.4701 147.51 40.7801C147.37 41.4901 147.21 42.2001 147.04 42.9001C146.87 43.6001 146.67 44.3001 146.45 45.0201L141.88 60.6901C141.58 61.7501 140.91 62.2701 139.87 62.2701H132.57L122.77 30.7101L122.75 30.7301Z" fill="white"/>
<path d="M202.12 62.2901L189.89 30.7301H197.74C198.41 30.7301 198.97 30.8901 199.43 31.2001C199.89 31.5101 200.2 31.9101 200.36 32.3701L204.74 46.5201C205.08 47.6801 205.41 48.8001 205.73 49.9001C206.04 51.0001 206.31 52.0901 206.54 53.1901C206.76 52.1001 207.04 51.0001 207.36 49.9001C207.68 48.8001 208.03 47.6801 208.39 46.5201L212.96 32.3701C213.12 31.9001 213.43 31.5101 213.87 31.2001C214.32 30.8901 214.84 30.7301 215.45 30.7301H222.94L210.71 62.2901H202.12Z" fill="white"/>
<path d="M237.96 30.2401C240.05 30.2401 241.96 30.5601 243.7 31.2101C245.44 31.8601 246.93 32.8001 248.17 34.0401C249.42 35.2801 250.39 36.7901 251.09 38.5901C251.79 40.3901 252.14 42.4201 252.14 44.6901C252.14 45.4001 252.11 45.9801 252.05 46.4201C251.99 46.8701 251.88 47.2201 251.72 47.4901C251.56 47.7501 251.34 47.9401 251.07 48.0401C250.8 48.1401 250.45 48.1901 250.02 48.1901H231.82C232.12 50.8301 232.93 52.7401 234.22 53.9301C235.52 55.1201 237.19 55.7101 239.24 55.7101C240.34 55.7101 241.28 55.5801 242.07 55.3101C242.86 55.0501 243.57 54.7501 244.18 54.4301C244.8 54.1101 245.37 53.8101 245.88 53.5501C246.39 53.2901 246.94 53.1501 247.51 53.1501C248.26 53.1501 248.83 53.4201 249.21 53.9701L251.95 57.3501C250.98 58.4701 249.93 59.3701 248.8 60.0701C247.67 60.7701 246.52 61.3201 245.33 61.7101C244.14 62.1101 242.96 62.3801 241.77 62.5301C240.58 62.6801 239.45 62.7601 238.38 62.7601C236.17 62.7601 234.09 62.4001 232.16 61.6801C230.22 60.9601 228.53 59.8901 227.08 58.4701C225.63 57.0501 224.48 55.2901 223.64 53.1701C222.8 51.0601 222.38 48.6101 222.38 45.8101C222.38 43.7001 222.74 41.7001 223.46 39.8101C224.18 37.9201 225.21 36.2701 226.56 34.8501C227.91 33.4301 229.54 32.3001 231.46 31.4701C233.38 30.6401 235.54 30.2201 237.96 30.2201V30.2401ZM238.14 36.7501C236.33 36.7501 234.92 37.2601 233.91 38.2901C232.9 39.3101 232.23 40.7901 231.9 42.7201H243.68C243.68 41.9701 243.58 41.2401 243.39 40.5301C243.2 39.8201 242.88 39.1901 242.45 38.6301C242.01 38.0701 241.44 37.6201 240.73 37.2801C240.02 36.9401 239.16 36.7601 238.14 36.7601V36.7501Z" fill="white"/>
<path d="M266.08 16.7301V62.2901H256.65V16.7301H266.08Z" fill="white"/>
<path d="M186.72 22.0901C186.72 22.8401 186.57 23.5501 186.26 24.2101C185.95 24.8701 185.54 25.4501 185.01 25.9401C184.48 26.4401 183.87 26.8301 183.17 27.1301C182.47 27.4201 181.72 27.5701 180.93 27.5701C180.14 27.5701 179.44 27.4201 178.77 27.1301C178.1 26.8401 177.51 26.4401 176.99 25.9401C176.47 25.4401 176.07 24.8601 175.77 24.2101C175.48 23.5501 175.33 22.8501 175.33 22.0901C175.33 21.3301 175.48 20.6001 175.77 19.9301C176.06 19.2601 176.47 18.6701 176.99 18.1701C177.51 17.6701 178.1 17.2701 178.77 16.9801C179.44 16.6901 180.16 16.5501 180.93 16.5501C181.7 16.5501 182.47 16.6901 183.17 16.9801C183.87 17.2601 184.48 17.6601 185.01 18.1701C185.54 18.6801 185.95 19.2701 186.26 19.9301C186.56 20.6001 186.72 21.3201 186.72 22.0901Z" fill="white"/>
<path d="M185.62 30.7301H176.19V62.2901H185.62V30.7301Z" fill="white"/>
<path d="M67.7798 12.1501C52.3798 -3.24992 27.4398 -3.27992 12.0698 12.0901C-3.30019 27.4601 -3.27019 52.4001 12.1298 67.8001C27.5298 83.2001 52.4698 83.2301 67.8398 67.8601C83.2098 52.4901 83.1798 27.5501 67.7798 12.1501ZM24.0098 25.8701C24.2698 21.2301 26.4198 17.0701 30.0898 14.1401C35.9198 9.49008 44.3698 9.48008 50.1998 14.1401C56.8798 19.4801 58.2698 29.1001 53.3598 36.0401C52.8498 36.7601 52.0498 37.2101 51.1698 37.2901C50.2498 37.3701 49.3498 37.0401 48.6998 36.3901C47.6398 35.3301 47.4998 33.6701 48.3598 32.4301C51.1098 28.4701 50.6298 23.1301 47.2098 19.7201C45.2598 17.7801 42.6498 16.7201 39.8998 16.8001C37.1398 16.8701 34.5998 18.0301 32.7398 20.0701C29.1498 24.0101 29.3898 30.1401 33.2898 34.0201L44.4998 45.2001C45.1598 45.8501 45.4798 46.7601 45.3898 47.6801C45.2998 48.6001 44.7898 49.4301 44.0098 49.9501C43.5198 50.2701 42.9498 50.4401 42.3598 50.4401C41.5298 50.4401 40.7098 50.1001 40.1098 49.5001L28.7298 38.1501C25.4898 34.9101 23.7698 30.4401 24.0198 25.8601L24.0098 25.8701ZM56.2798 52.9701C56.0198 57.6101 53.8598 61.7801 50.1998 64.7001C47.3798 66.9501 43.8098 68.1901 40.1498 68.1901C36.4898 68.1901 32.9198 66.9501 30.0998 64.7001C23.4198 59.3601 22.0298 49.7401 26.9398 42.8001C27.4498 42.0801 28.2498 41.6301 29.1298 41.5501C30.0498 41.4701 30.9498 41.8001 31.5998 42.4501C32.6598 43.5001 32.7998 45.1701 31.9398 46.4101C29.1898 50.3701 29.6798 55.7101 33.0898 59.1201C35.0298 61.0501 37.6398 62.0901 40.3998 62.0401C43.1598 61.9801 45.6998 60.8201 47.5598 58.7701C51.1498 54.8301 50.9098 48.7001 47.0098 44.8201L35.7998 33.6401C35.1398 32.9901 34.8198 32.0801 34.9098 31.1601C34.9998 30.2401 35.5098 29.4101 36.2898 28.8901C37.4998 28.0901 39.1398 28.2801 40.1998 29.3401L51.5798 40.6901C54.8198 43.9301 56.5398 48.4001 56.2898 52.9801L56.2798 52.9701Z" fill="white"/>
</symbol>

<symbol id="yield" viewBox="0 0 188 31" >
<path d="M17.135 13.4167C19.1776 11.4184 21.5494 9.8707 24.1849 8.81262C26.6794 7.8122 29.3045 7.29627 31.9949 7.27532V3.38625C26.4783 3.45958 21.0478 5.32162 16.6414 8.66596L16.3018 8.92261L15.9074 8.76024C15.4947 8.59001 14.0136 7.91696 12.2688 6.43203C10.2471 4.70879 8.60932 2.5482 7.3895 0L4.84277 2.73414C7.15703 7.9091 11.7124 11.8689 17.135 13.4167Z" fill="white"/>
<path d="M16.508 15.7421C10.6571 14.0896 5.81438 10.0775 3.07697 4.63013L0 7.93781C2.80793 12.8797 7.21704 16.808 12.4568 19.0315L12.462 19.0341L12.8721 19.2096L12.8982 19.4086L12.9322 19.6941C13.0471 20.6709 13.3971 25.5814 9.88393 30.9999H13.9482C15.377 28.8053 16.3618 26.2806 16.8058 23.6774C17.2551 21.0402 17.1506 18.3061 16.508 15.7421Z" fill="white"/>
<path d="M18.8382 15.1216C19.5617 17.9709 19.7001 20.8805 19.2535 23.7718C18.8565 26.3226 18.0206 28.7477 16.7642 31H21.6017C22.4741 28.9625 23.0853 26.815 23.4197 24.6072C23.7801 22.2345 23.8141 19.833 23.5189 17.476L23.4667 17.0491L23.8063 16.7898C24.3626 16.3655 27.2698 14.3071 32.0002 13.8174V9.69775C27.0896 9.76065 22.3435 11.7118 18.8382 15.1216Z" fill="white"/>
<path d="M49.8067 8.20133L44.6613 18.0387V24H42.5987V18.0387L37.4307 8.20133H39.72L43.6187 16.2027L47.5173 8.20133H49.8067Z" fill="white"/>
<path d="M53.0476 9.56133C52.6548 9.56133 52.3223 9.42533 52.0503 9.15333C51.7783 8.88133 51.6423 8.54889 51.6423 8.156C51.6423 7.76311 51.7783 7.43067 52.0503 7.15867C52.3223 6.88667 52.6548 6.75067 53.0476 6.75067C53.4254 6.75067 53.7428 6.88667 53.9996 7.15867C54.2716 7.43067 54.4076 7.76311 54.4076 8.156C54.4076 8.54889 54.2716 8.88133 53.9996 9.15333C53.7428 9.42533 53.4254 9.56133 53.0476 9.56133ZM54.045 11.5787V24H51.9823V11.5787H54.045Z" fill="white"/>
<path d="M68.8938 17.3133C68.8938 17.7062 68.8711 18.1218 68.8258 18.56H58.8978C58.9733 19.784 59.3889 20.7436 60.1444 21.4387C60.9151 22.1187 61.8444 22.4587 62.9324 22.4587C63.824 22.4587 64.5644 22.2547 65.1538 21.8467C65.7582 21.4236 66.1813 20.8644 66.4231 20.1693H68.6444C68.312 21.3631 67.6471 22.3378 66.6498 23.0933C65.6524 23.8338 64.4133 24.204 62.9324 24.204C61.7538 24.204 60.696 23.9396 59.7591 23.4107C58.8373 22.8818 58.112 22.1338 57.5831 21.1667C57.0542 20.1844 56.7898 19.0511 56.7898 17.7667C56.7898 16.4822 57.0467 15.3564 57.5604 14.3893C58.0742 13.4222 58.792 12.6818 59.7138 12.168C60.6507 11.6391 61.7235 11.3747 62.9324 11.3747C64.1111 11.3747 65.1538 11.6316 66.0604 12.1453C66.9671 12.6591 67.6622 13.3693 68.1458 14.276C68.6444 15.1676 68.8938 16.18 68.8938 17.3133ZM66.7631 16.8827C66.7631 16.0969 66.5893 15.4244 66.2418 14.8653C65.8942 14.2911 65.4182 13.8604 64.8138 13.5733C64.2244 13.2711 63.5671 13.12 62.8418 13.12C61.7991 13.12 60.9075 13.4524 60.1671 14.1173C59.4418 14.7822 59.0262 15.704 58.9204 16.8827H66.7631Z" fill="white"/>
<path d="M73.6791 7.22667V24H71.6164V7.22667H73.6791Z" fill="white"/>
<path d="M76.4239 17.744C76.4239 16.4747 76.6808 15.364 77.1945 14.412C77.7083 13.4449 78.411 12.6969 79.3026 12.168C80.2092 11.6391 81.2217 11.3747 82.3399 11.3747C83.307 11.3747 84.2061 11.6013 85.0372 12.0547C85.8683 12.4929 86.503 13.0747 86.9412 13.8V7.22667H89.0266V24H86.9412V21.6653C86.5332 22.4058 85.9288 23.0178 85.1279 23.5013C84.327 23.9698 83.3901 24.204 82.3172 24.204C81.2141 24.204 80.2092 23.932 79.3026 23.388C78.411 22.844 77.7083 22.0809 77.1945 21.0987C76.6808 20.1164 76.4239 18.9982 76.4239 17.744ZM86.9412 17.7667C86.9412 16.8298 86.7523 16.0138 86.3745 15.3187C85.9968 14.6236 85.483 14.0947 84.8332 13.732C84.1986 13.3542 83.4959 13.1653 82.7252 13.1653C81.9546 13.1653 81.2519 13.3467 80.6172 13.7093C79.9826 14.072 79.4763 14.6009 79.0985 15.296C78.7208 15.9911 78.5319 16.8071 78.5319 17.744C78.5319 18.696 78.7208 19.5271 79.0985 20.2373C79.4763 20.9324 79.9826 21.4689 80.6172 21.8467C81.2519 22.2093 81.9546 22.3907 82.7252 22.3907C83.4959 22.3907 84.1986 22.2093 84.8332 21.8467C85.483 21.4689 85.9968 20.9324 86.3745 20.2373C86.7523 19.5271 86.9412 18.7036 86.9412 17.7667Z" fill="white"/>
<path d="M109.118 12.8253C109.118 14.14 108.665 15.2356 107.758 16.112C106.866 16.9733 105.499 17.404 103.655 17.404H100.618V24H98.5552V8.20133H103.655C105.438 8.20133 106.791 8.632 107.713 9.49333C108.649 10.3547 109.118 11.4653 109.118 12.8253ZM103.655 15.704C104.804 15.704 105.65 15.4547 106.194 14.956C106.738 14.4573 107.01 13.7471 107.01 12.8253C107.01 10.876 105.892 9.90133 103.655 9.90133H100.618V15.704H103.655Z" fill="white"/>
<path d="M113.744 13.596C114.107 12.8858 114.621 12.3342 115.286 11.9413C115.966 11.5484 116.789 11.352 117.756 11.352V13.4827H117.212C114.9 13.4827 113.744 14.7369 113.744 17.2453V24H111.682V11.5787H113.744V13.596Z" fill="white"/>
<path d="M125.555 24.204C124.391 24.204 123.333 23.9396 122.381 23.4107C121.444 22.8818 120.704 22.1338 120.16 21.1667C119.631 20.1844 119.367 19.0511 119.367 17.7667C119.367 16.4973 119.639 15.3791 120.183 14.412C120.742 13.4298 121.497 12.6818 122.449 12.168C123.401 11.6391 124.467 11.3747 125.645 11.3747C126.824 11.3747 127.889 11.6391 128.841 12.168C129.793 12.6818 130.541 13.4222 131.085 14.3893C131.644 15.3564 131.924 16.4822 131.924 17.7667C131.924 19.0511 131.637 20.1844 131.063 21.1667C130.503 22.1338 129.74 22.8818 128.773 23.4107C127.806 23.9396 126.733 24.204 125.555 24.204ZM125.555 22.3907C126.295 22.3907 126.99 22.2169 127.64 21.8693C128.29 21.5218 128.811 21.0004 129.204 20.3053C129.612 19.6102 129.816 18.764 129.816 17.7667C129.816 16.7693 129.619 15.9231 129.227 15.228C128.834 14.5329 128.32 14.0191 127.685 13.6867C127.051 13.3391 126.363 13.1653 125.623 13.1653C124.867 13.1653 124.172 13.3391 123.537 13.6867C122.918 14.0191 122.419 14.5329 122.041 15.228C121.663 15.9231 121.475 16.7693 121.475 17.7667C121.475 18.7791 121.656 19.6329 122.019 20.328C122.396 21.0231 122.895 21.5444 123.515 21.892C124.134 22.2244 124.814 22.3907 125.555 22.3907Z" fill="white"/>
<path d="M137.152 13.2787V20.6C137.152 21.2044 137.28 21.6351 137.537 21.892C137.794 22.1338 138.24 22.2547 138.875 22.2547H140.393V24H138.535C137.386 24 136.525 23.7356 135.951 23.2067C135.376 22.6778 135.089 21.8089 135.089 20.6V13.2787H133.48V11.5787H135.089V8.45067H137.152V11.5787H140.393V13.2787H137.152Z" fill="white"/>
<path d="M148.31 24.204C147.146 24.204 146.088 23.9396 145.136 23.4107C144.2 22.8818 143.459 22.1338 142.915 21.1667C142.386 20.1844 142.122 19.0511 142.122 17.7667C142.122 16.4973 142.394 15.3791 142.938 14.412C143.497 13.4298 144.252 12.6818 145.204 12.168C146.156 11.6391 147.222 11.3747 148.4 11.3747C149.579 11.3747 150.644 11.6391 151.596 12.168C152.548 12.6818 153.296 13.4222 153.84 14.3893C154.4 15.3564 154.679 16.4822 154.679 17.7667C154.679 19.0511 154.392 20.1844 153.818 21.1667C153.259 22.1338 152.496 22.8818 151.528 23.4107C150.561 23.9396 149.488 24.204 148.31 24.204ZM148.31 22.3907C149.05 22.3907 149.745 22.2169 150.395 21.8693C151.045 21.5218 151.566 21.0004 151.959 20.3053C152.367 19.6102 152.571 18.764 152.571 17.7667C152.571 16.7693 152.375 15.9231 151.982 15.228C151.589 14.5329 151.075 14.0191 150.44 13.6867C149.806 13.3391 149.118 13.1653 148.378 13.1653C147.622 13.1653 146.927 13.3391 146.292 13.6867C145.673 14.0191 145.174 14.5329 144.796 15.228C144.419 15.9231 144.23 16.7693 144.23 17.7667C144.23 18.7791 144.411 19.6329 144.774 20.328C145.152 21.0231 145.65 21.5444 146.27 21.892C146.889 22.2244 147.569 22.3907 148.31 22.3907Z" fill="white"/>
<path d="M156.62 17.7667C156.62 16.4822 156.877 15.364 157.391 14.412C157.905 13.4449 158.615 12.6969 159.522 12.168C160.444 11.6391 161.494 11.3747 162.673 11.3747C164.199 11.3747 165.453 11.7449 166.435 12.4853C167.432 13.2258 168.09 14.2533 168.407 15.568H166.186C165.974 14.8124 165.559 14.2156 164.939 13.7773C164.335 13.3391 163.579 13.12 162.673 13.12C161.494 13.12 160.542 13.528 159.816 14.344C159.091 15.1449 158.729 16.2858 158.729 17.7667C158.729 19.2627 159.091 20.4187 159.816 21.2347C160.542 22.0507 161.494 22.4587 162.673 22.4587C163.579 22.4587 164.335 22.2471 164.939 21.824C165.544 21.4009 165.959 20.7964 166.186 20.0107H168.407C168.075 21.28 167.41 22.3 166.412 23.0707C165.415 23.8262 164.169 24.204 162.673 24.204C161.494 24.204 160.444 23.9396 159.522 23.4107C158.615 22.8818 157.905 22.1338 157.391 21.1667C156.877 20.1996 156.62 19.0662 156.62 17.7667Z" fill="white"/>
<path d="M176.577 24.204C175.413 24.204 174.355 23.9396 173.403 23.4107C172.467 22.8818 171.726 22.1338 171.182 21.1667C170.653 20.1844 170.389 19.0511 170.389 17.7667C170.389 16.4973 170.661 15.3791 171.205 14.412C171.764 13.4298 172.519 12.6818 173.471 12.168C174.423 11.6391 175.489 11.3747 176.667 11.3747C177.846 11.3747 178.911 11.6391 179.863 12.168C180.815 12.6818 181.563 13.4222 182.107 14.3893C182.667 15.3564 182.946 16.4822 182.946 17.7667C182.946 19.0511 182.659 20.1844 182.085 21.1667C181.526 22.1338 180.763 22.8818 179.795 23.4107C178.828 23.9396 177.755 24.204 176.577 24.204ZM176.577 22.3907C177.317 22.3907 178.012 22.2169 178.662 21.8693C179.312 21.5218 179.833 21.0004 180.226 20.3053C180.634 19.6102 180.838 18.764 180.838 17.7667C180.838 16.7693 180.642 15.9231 180.249 15.228C179.856 14.5329 179.342 14.0191 178.707 13.6867C178.073 13.3391 177.385 13.1653 176.645 13.1653C175.889 13.1653 175.194 13.3391 174.559 13.6867C173.94 14.0191 173.441 14.5329 173.063 15.228C172.686 15.9231 172.497 16.7693 172.497 17.7667C172.497 18.7791 172.678 19.6329 173.041 20.328C173.419 21.0231 173.917 21.5444 174.537 21.892C175.156 22.2244 175.836 22.3907 176.577 22.3907Z" fill="white"/>
<path d="M187.721 7.22667V24H185.658V7.22667H187.721Z" fill="white"/>
</symbol>


<symbol id="tempus" viewBox="0 0 924 248"><defs><style>.cls-1{fill:#fff;}</style></defs><path class="cls-1" d="M51.59,236.45c-.27-.15-.58-.45-.58-1.01v-32.13c0-2.43,1.31-4.7,3.42-5.92l27.83-16.08c.21-.12,.41-.17,.58-.17,.23,0,.43,.08,.59,.17,.27,.15,.58,.45,.58,1.01v32.14c0,2.44-1.31,4.7-3.42,5.92l-27.83,16.07c-.48,.28-.9,.15-1.17,0Zm-8.5-46.86c2.11,1.22,4.73,1.22,6.84,0l27.83-16.07c.48-.28,.58-.7,.58-1.01s-.1-.73-.58-1.01l-27.83-16.07c-1.05-.61-2.24-.91-3.42-.91s-2.37,.3-3.42,.91l-27.84,16.07c-.48,.28-.58,.7-.58,1.01s.1,.73,.59,1.01h0l27.84,16.06Zm51.67-25.98l27.83-16.07c2.11-1.22,3.42-3.49,3.42-5.92v-32.14c0-.56-.32-.86-.58-1.01-.15-.09-.35-.17-.59-.17-.18,0-.37,.05-.58,.17h0l-27.83,16.08c-2.11,1.22-3.42,3.49-3.42,5.92v32.13c0,.56,.32,.86,.58,1.01,.27,.15,.69,.28,1.17,0Zm-2.83-81.02c-1.05-.61-2.24-.91-3.42-.91s-2.37,.3-3.42,.91l-27.84,16.07c-.48,.28-.58,.7-.58,1.01s.1,.73,.59,1.01l27.84,16.06c2.11,1.22,4.73,1.22,6.84,0l27.83-16.07c.48-.28,.58-.71,.58-1.01s-.1-.73-.58-1.01l-27.83-16.07Zm2.81,129.61l27.83-16.07c2.11-1.22,3.42-3.49,3.42-5.92v-32.14c0-.56-.32-.86-.58-1.01-.15-.09-.35-.17-.59-.17-.18,0-.37,.05-.58,.17l-27.83,16.08c-2.11,1.22-3.42,3.49-3.42,5.92v32.13c0,.56,.32,.86,.58,1.01,.27,.15,.69,.28,1.17,0Zm42.02-121.27l27.83-16.07c2.11-1.22,3.42-3.49,3.42-5.92V36.8c0-.56-.32-.86-.58-1.01-.15-.09-.35-.17-.59-.17-.18,0-.37,.05-.58,.17h0l-27.83,16.08c-2.11,1.22-3.42,3.49-3.42,5.92v32.13c0,.56,.32,.86,.58,1.01s.68,.28,1.17,0Zm-2.83-81.02c-1.05-.61-2.24-.91-3.42-.91s-2.37,.3-3.42,.91l-27.84,16.07c-.48,.28-.58,.71-.58,1.01s.1,.73,.58,1.01l27.84,16.06c2.11,1.22,4.73,1.22,6.84,0l27.83-16.07c.48-.28,.58-.7,.58-1.01s-.1-.73-.58-1.01l-27.83-16.07Zm2.81,129.61l27.83-16.07c2.11-1.22,3.42-3.49,3.42-5.92v-32.14c0-.56-.32-.86-.58-1.01-.15-.09-.35-.17-.59-.17-.18,0-.37,.04-.58,.17l-27.83,16.08c-2.11,1.22-3.42,3.49-3.42,5.92v32.13c0,.56,.32,.86,.58,1.01s.69,.28,1.17,0Zm.02,48.44l27.83-16.07c2.11-1.22,3.42-3.49,3.42-5.92v-32.14c0-.56-.32-.86-.58-1.01-.15-.09-.35-.17-.58-.17-.18,0-.38,.04-.58,.17h0l-27.83,16.08c-2.11,1.22-3.42,3.49-3.42,5.92v32.13c0,.56,.32,.86,.58,1.01s.68,.28,1.17,0Z"/><g><path class="cls-1" d="M449.21,132.27c0-10.89-2.11-20.26-6.09-28.22-3.98-7.96-9.72-14.05-16.75-18.39-7.03-4.33-15.22-6.44-24.36-6.44s-17.45,2.11-24.59,6.44c-7.14,4.33-12.76,10.42-16.86,18.39-4.1,7.96-6.09,17.21-6.09,27.99,0,16.4,4.33,29.04,13,38.06,8.67,8.9,20.49,13.47,35.48,13.47,7.26,0,13.94-1.29,20.03-3.86,6.09-2.58,11.24-6.21,15.46-10.77,4.22-4.57,7.26-9.95,9.13-15.93l-20.14-4.8c-1.99,5.04-5.15,9.13-9.49,12.18-4.33,3.04-9.13,4.57-14.29,4.57-7.26,0-13.12-2.69-17.68-8.08-3.75-4.45-5.97-10.77-6.67-19.21h70.03v-5.39h-.12Zm-69.45-11.48c.94-6.21,2.81-11.13,5.62-14.99,4.33-5.86,9.84-8.78,16.63-8.78s12.53,3.04,17.1,9.02c2.81,3.75,4.68,8.67,5.74,14.64h-45.09v.12Z"/><path class="cls-1" d="M609.76,115.88v64.64h-24.94v-61.83c0-6.21-1.52-11.13-4.57-14.64-3.04-3.51-7.14-5.39-12.3-5.39s-9.95,2.11-13.59,6.32c-3.75,4.22-5.5,9.84-5.5,16.86v58.67h-24.94v-61.83c0-6.21-1.53-11.13-4.69-14.64-3.16-3.51-7.15-5.39-12.18-5.39-5.5,0-10.07,2.11-13.7,6.32-3.63,4.22-5.39,9.84-5.39,16.86v58.67h-24.94V82.15h24.12v15.93c2.93-5.39,6.79-9.72,11.59-13.12,5.39-3.75,11.71-5.62,18.74-5.62,9.48,0,17.1,3.28,22.72,9.6,2.58,2.93,4.57,6.44,5.97,10.42,3.16-6.09,7.38-10.77,12.65-14.4,5.62-3.75,11.95-5.62,19.09-5.62,9.72,0,17.45,3.28,23.19,9.6,5.86,6.56,8.67,15.46,8.67,26.93Z"/><path class="cls-1" d="M823.86,82.15v98.37h-24.24v-16.63c-3.16,5.74-7.38,10.31-12.65,13.82-5.74,3.75-12.3,5.62-19.56,5.62-10.07,0-18.03-3.28-24.12-9.6-5.97-6.44-8.9-15.34-8.9-26.82V82.15h24.94v61.83c0,6.21,1.76,11.13,5.04,14.64,3.39,3.63,7.96,5.39,13.58,5.39,5.98,0,10.89-2.11,14.99-6.32,3.98-4.22,5.98-9.84,5.98-16.86v-58.67h24.94Z"/><path class="cls-1" d="M338.91,161.32c-2.34,.47-4.45,.59-6.32,.59-10.07,0-15.11-4.68-15.11-14.05v-46.02h28.81v-19.67h-28.81V48.25l-25.06,14.48v19.42h-17.92v19.67h17.92v47.78c0,10.77,2.93,18.85,8.67,24.24,5.74,5.39,13.82,8.08,24.12,8.08,3.75,0,7.61-.35,11.59-.94,3.98-.59,7.61-1.29,10.77-2.11l-2.34-18.74c-1.87,.47-3.98,.82-6.32,1.17Z"/><path class="cls-1" d="M716.46,102.88c-3.4-7.73-8.2-13.58-14.17-17.57-6.09-3.98-12.88-5.97-20.49-5.97-9.84,0-18.03,3.16-24.59,9.37-3.52,3.4-6.32,7.26-8.31,11.83v-18.39h-24.24V216.32l24.94-14.42v-37.55c1.76,3.75,3.98,7.03,6.79,9.84,6.21,6.09,14.29,9.13,24.13,9.13,7.61,0,14.4-1.99,20.61-5.97,6.09-3.98,10.89-9.84,14.52-17.57,3.63-7.73,5.51-17.21,5.74-28.46,.12-11.24-1.52-20.73-4.92-28.46Zm-20.5,28.46c-.23,11.01-2.34,19.09-6.44,24.24-4.1,5.15-9.72,7.73-17.1,7.73s-13-2.58-16.98-7.73c-3.86-5.15-5.85-13.23-5.85-24.24s2.11-19.09,6.21-24.24c4.22-5.15,9.96-7.73,17.33-7.73s13,2.58,17.1,7.73c4.1,5.15,5.97,13.23,5.74,24.24Z"/><path class="cls-1" d="M916.47,133.09c-4.8-4.8-12.41-8.2-22.83-10.19l-18.97-3.51c-4.8-.82-8.31-2.22-10.3-4.22-1.99-1.99-3.05-4.45-3.05-7.38,0-3.28,1.4-5.97,4.22-7.96,2.81-1.87,6.79-2.93,11.83-2.93,5.62,0,10.42,1.64,14.4,4.68,3.98,3.16,6.67,7.02,8.08,11.71l19.01-10.99c-2.76-5.77-7.01-10.66-12.69-14.77-7.61-5.5-17.33-8.2-29.04-8.2-12.41,0-22.25,2.81-29.28,8.67-7.14,5.74-10.65,13.35-10.65,22.72,0,7.96,2.34,14.17,7.02,18.85,4.57,4.68,12.3,8.08,22.95,10.31l18.15,3.63c5.03,1.05,8.55,2.46,10.66,4.22,1.99,1.76,3.04,3.98,3.04,6.79,0,3.16-1.52,5.86-4.45,8.08-2.81,2.11-7.26,3.28-13.12,3.28s-11.01-1.41-14.99-4.45c-4.07-2.91-6.98-6.96-8.97-12.06l-19.84,11.46c3.03,5.87,7.51,10.77,13.47,14.65,8.08,5.39,18.15,8.08,30.21,8.2,13.23,0,23.66-2.93,31.15-8.67,7.5-5.62,11.24-13.35,11.24-22.95,0-7.85-2.46-14.17-7.26-18.97Z"/></g></symbol>
</svg>
