<?xml version="1.0" encoding="UTF-8"?>
<!-- Generated by Pixelmator Pro 3.3.2 -->
<svg width="2000" height="669" viewBox="0 0 2000 669" xmlns="http://www.w3.org/2000/svg" xmlns:xlink="http://www.w3.org/1999/xlink">
    <path id="Path" fill="#ffffff" stroke="none" d="M 1711.349976 626.850037 L 1711.349976 668.990051 L 2000.569946 668.990051 L 2000.569946 478.940002 L 1958.430054 478.940002 L 1958.430054 626.850037 Z M 1711.349976 -0.349976 L 1711.349976 41.789978 L 1958.430054 41.789978 L 1958.430054 189.709991 L 2000.569946 189.709991 L 2000.569946 -0.349976 Z M 1562.199951 325.649994 L 1562.199951 227.730011 L 1628.310059 227.730011 C 1660.540039 227.730011 1672.109985 238.470001 1672.109985 267.809998 L 1672.109985 285.160004 C 1672.109985 315.320007 1660.949951 325.649994 1628.310059 325.649994 Z M 1667.140015 343 C 1697.300049 335.149994 1718.369995 307.049988 1718.369995 273.589996 C 1718.369995 252.519989 1710.109985 233.51001 1694.410034 218.220001 C 1674.579956 199.209991 1648.130005 189.709991 1613.839966 189.709991 L 1520.880005 189.709991 L 1520.880005 478.929993 L 1562.199951 478.929993 L 1562.199951 363.660004 L 1624.180054 363.660004 C 1655.98999 363.660004 1668.800049 376.880005 1668.800049 409.940002 L 1668.800049 478.940002 L 1710.939941 478.940002 L 1710.939941 416.549988 C 1710.939941 371.100006 1700.199951 353.75 1667.140015 348.790009 Z M 1319.26001 352.5 L 1446.52002 352.5 L 1446.52002 314.48999 L 1319.26001 314.48999 L 1319.26001 227.720001 L 1458.910034 227.720001 L 1458.910034 189.709991 L 1277.109985 189.709991 L 1277.109985 478.929993 L 1465.109985 478.929993 L 1465.109985 440.919983 L 1319.26001 440.919983 Z M 1180.839966 367.790009 L 1180.839966 387.619995 C 1180.839966 429.350006 1165.550049 442.98999 1127.130005 442.98999 L 1118.040039 442.98999 C 1079.609985 442.98999 1061.02002 430.589996 1061.02002 373.160004 L 1061.02002 295.47998 C 1061.02002 237.640015 1080.439941 225.649994 1118.859985 225.649994 L 1127.119995 225.649994 C 1164.719971 225.649994 1176.699951 239.700012 1177.109985 278.540009 L 1222.560059 278.540009 C 1218.430054 221.519989 1180.420044 185.579987 1123.400024 185.579987 C 1095.719971 185.579987 1072.579956 194.26001 1055.22998 210.779999 C 1029.199951 235.160004 1014.73999 276.47998 1014.73999 334.320007 C 1014.73999 390.100006 1027.140015 431.419983 1052.75 457.029999 C 1070.099976 473.970001 1094.069946 483.059998 1117.619995 483.059998 C 1142.410034 483.059998 1165.140015 473.139984 1176.699951 451.660004 L 1182.47998 451.660004 L 1182.47998 478.929993 L 1220.48999 478.929993 L 1220.48999 329.779999 L 1108.52002 329.779999 L 1108.52002 367.790009 Z M 816.429993 227.720001 L 861.469971 227.720001 C 904.030029 227.720001 927.169983 238.459991 927.169983 296.309998 L 927.169983 372.329987 C 927.169983 430.169983 904.030029 440.919983 861.469971 440.919983 L 816.429993 440.919983 Z M 865.179993 478.940002 C 944.099976 478.940002 973.429993 419.029999 973.429993 334.329987 C 973.429993 248.390015 942.030029 189.720001 864.349976 189.720001 L 775.099976 189.720001 L 775.099976 478.940002 Z M 575.549988 352.5 L 702.809998 352.5 L 702.809998 314.48999 L 575.549988 314.48999 L 575.549988 227.720001 L 715.200012 227.720001 L 715.200012 189.709991 L 533.400024 189.709991 L 533.400024 478.929993 L 721.400024 478.929993 L 721.400024 440.919983 L 575.549988 440.919983 Z M 331.779999 189.709991 L 289.640015 189.709991 L 289.640015 478.929993 L 479.700012 478.929993 L 479.700012 440.919983 L 331.779999 440.919983 Z M 0 478.940002 L 0 669 L 289.220001 669 L 289.220001 626.850037 L 42.139999 626.850037 L 42.139999 478.940002 Z M 0 -0.349976 L 0 189.709991 L 42.139999 189.709991 L 42.139999 41.789978 L 289.220001 41.789978 L 289.220001 -0.349976 Z"/>
</svg>
