<?xml version="1.0" encoding="UTF-8"?>
<!-- Generated by Pixelmator Pro 3.3.2 -->
<svg width="540" height="156" viewBox="0 0 540 156" xmlns="http://www.w3.org/2000/svg" xmlns:xlink="http://www.w3.org/1999/xlink">
    <g id="Group">
        <path id="Path" fill="#ffffff" stroke="none" d="M 141.625854 153.80011 L 119.173492 153.80011 L 119.173492 44.537582 L 141.625854 44.537582 L 141.625854 153.80011 Z"/>
        <path id="path1" fill="#ffffff" stroke="none" d="M 222.757751 42.392464 C 235.151474 42.392464 245.278061 46.739532 253.123611 55.430954 C 260.95813 64.123772 264.886414 75.175224 264.886414 88.574272 L 264.886414 153.789001 L 242.432678 153.789001 L 242.432678 91.995087 C 242.432678 83.585152 239.724609 76.631187 234.305634 71.145676 C 228.886673 65.658768 222.19339 62.916016 214.211945 62.916016 C 205.226547 62.916016 197.888489 65.658768 192.188034 71.145676 C 186.487595 76.631187 183.631134 83.585152 183.631134 91.995087 L 183.631134 153.789001 L 161.178772 153.789001 L 161.178772 44.537582 L 183.631134 44.537582 L 183.631134 72.75972 C 186.622101 63.35556 191.577927 55.939857 198.498611 50.520905 C 205.406815 45.101921 213.500595 42.392464 222.768845 42.392464 L 222.757751 42.392464 Z"/>
        <path id="path2" fill="#ffffff" stroke="none" d="M 334.886475 42.392464 C 352.417633 42.392464 366.675018 48.669746 377.64743 61.210442 C 388.619843 73.763641 393.113922 88.93618 391.115814 106.759949 L 300.671265 106.759949 C 302.240967 115.599731 306.303802 122.76725 312.862549 128.25415 C 319.421326 133.73967 327.323761 136.483826 336.59201 136.483826 C 343.715118 136.483826 350.092255 134.733902 355.726166 131.245117 C 361.358643 127.757744 365.739044 123.015457 368.877014 117.022423 L 387.694977 125.364418 C 382.85144 134.631287 375.932159 142.037292 366.957886 147.601852 C 357.983582 153.167786 347.643463 155.945221 335.948608 155.945221 C 319.55722 155.945221 305.796295 150.52626 294.676849 139.700821 C 283.557465 128.875366 277.99292 115.39592 277.99292 99.287399 C 277.99292 83.178871 283.445129 69.677223 294.349609 58.761658 C 305.254089 47.857155 318.755737 42.40493 334.875336 42.40493 L 334.886475 42.392464 Z M 334.886475 61.853844 C 326.612427 61.853844 319.455994 64.383072 313.393646 69.45121 C 307.331268 74.509644 303.301727 81.101692 301.314697 89.22876 L 368.459595 89.22876 C 366.607056 81.101692 362.645447 74.509644 356.594208 69.45121 C 350.533234 64.394157 343.296387 61.853844 334.886475 61.853844 Z"/>
        <path id="path3" fill="#ffffff" stroke="none" d="M 453.191223 42.392464 C 466.308746 42.392464 476.998322 45.813263 485.261261 52.654938 C 493.525574 59.495178 497.66745 69.338882 497.66745 82.162468 L 497.66745 153.80011 L 475.215118 153.80011 L 475.215118 124.721008 C 468.509338 145.537155 455.042358 155.945221 434.801697 155.945221 C 425.386444 155.945221 417.553345 153.134506 411.276062 147.500626 C 405.000183 141.868118 401.873322 134.49678 401.873322 125.375504 C 401.873322 114.68457 405.643555 106.658722 413.206268 101.318802 C 420.759247 95.980286 430.388031 92.66066 442.071777 91.373878 L 463.237366 89.22876 C 471.218842 88.518791 475.215118 84.950989 475.215118 78.539207 C 475.215118 73.267227 473.182281 69.056015 469.119476 65.929176 C 465.055237 62.791222 459.749969 61.222923 453.191223 61.222923 C 446.632416 61.222923 440.818298 62.938187 436.189697 66.359024 C 431.562531 69.77845 428.604797 74.768936 427.318024 81.327728 L 405.079224 75.9767 C 407.077332 65.715622 412.415863 57.553902 421.119781 51.491524 C 429.812561 45.440285 440.502136 42.40493 453.191223 42.40493 L 453.191223 42.392464 Z M 442.071777 137.759521 C 451.340088 137.759521 459.173157 134.654846 465.586334 128.456604 C 471.998108 122.25975 475.20401 115.024292 475.20401 106.748863 L 475.20401 100.765533 C 473.498444 103.622025 469.356567 105.394135 462.797821 106.105453 L 442.060699 108.667969 C 436.641754 109.390396 432.329315 110.982269 429.123444 113.476814 C 425.917511 115.971359 424.314575 119.358917 424.314575 123.636673 C 424.314575 127.915817 425.917511 131.335251 429.123444 133.897766 C 432.329315 136.460251 436.641754 137.74704 442.060699 137.74704 L 442.071777 137.759521 Z"/>
        <path id="path4" fill="#ffffff" stroke="none" d="M 103.708374 153.80011 L -0 153.80011 L -0 44.537582 L 23.728487 44.537582 L 23.728487 132.633148 L 103.708374 132.633148 L 103.708374 153.80011 Z"/>
        <path id="path5" fill="#ffffff" stroke="none" d="M 518.834412 42.392464 C 530.523743 42.392464 540 32.916191 540 21.22702 C 540 9.537277 530.523743 0.060883 518.834412 0.060883 C 507.143707 0.060883 497.66745 9.537277 497.66745 21.22702 C 497.66745 32.916191 507.143707 42.392464 518.834412 42.392464 Z"/>
    </g>
</svg>
