<?xml version="1.0" encoding="UTF-8"?>
<!-- Generated by Pixelmator Pro 3.2.3 -->
<svg width="339" height="72" viewBox="0 0 339 72" xmlns="http://www.w3.org/2000/svg" xmlns:xlink="http://www.w3.org/1999/xlink">
    <path id="Path" fill="#ffffff" stroke="none" d="M 121.348999 56.809502 L 147.990005 56.809502 L 147.990005 49.854202 L 129.248001 49.854202 L 129.248001 10.904404 L 121.348999 10.904404 L 121.348999 56.809502 Z"/>
    <path id="path1" fill="#ffffff" stroke="none" d="M 161.886002 22.573898 L 154.218994 22.573898 L 154.218994 56.809502 L 161.886002 56.809502 L 161.886002 22.573898 Z M 158.091003 16.932404 C 160.647003 16.932404 162.893005 14.768501 162.893005 12.1409 C 162.893005 9.513397 160.647003 7.426804 158.091003 7.426804 C 155.457993 7.426804 153.212006 9.513397 153.212006 12.1409 C 153.212006 14.768501 155.457993 16.932404 158.091003 16.932404 Z"/>
    <path id="path2" fill="#ffffff" stroke="none" d="M 201.201996 24.351395 C 197.716995 22.882996 192.914993 21.801102 188.190994 21.801102 C 176.031998 21.801102 168.442001 28.756401 168.442001 39.730301 C 168.442001 51.090698 176.031998 57.582298 187.106995 57.582298 C 189.817001 57.582298 192.296005 57.041298 193.612 56.500397 L 193.612 70.7201 L 201.201996 70.7201 L 201.201996 24.351395 Z M 193.612 49.854202 C 191.675995 50.549698 190.050003 50.936096 187.570999 50.936096 C 180.679001 50.936096 176.186996 46.531097 176.186996 39.730301 C 176.186996 32.620399 180.755997 28.601799 188.190994 28.601799 C 190.281998 28.601799 192.063004 28.988205 193.612 29.451904 L 193.612 49.854202 Z"/>
    <path id="path3" fill="#ffffff" stroke="none" d="M 238.065994 22.573898 L 230.475998 22.573898 L 230.475998 50.781502 C 228.462997 51.090698 226.294006 51.245201 224.589996 51.245201 C 219.556 51.245201 216.459 49.390503 216.459 44.289902 L 216.459 22.573898 L 208.869003 22.573898 L 208.869003 44.830902 C 208.869003 54.413803 214.910004 57.582298 224.744995 57.582298 C 228.772003 57.582298 234.039001 57.041298 238.065994 56.036697 L 238.065994 22.573898 Z"/>
    <path id="path4" fill="#ffffff" stroke="none" d="M 255.559006 22.573898 L 247.891998 22.573898 L 247.891998 56.809502 L 255.559006 56.809502 L 255.559006 22.573898 Z M 251.764999 16.932404 C 254.320007 16.932404 256.56601 14.768501 256.56601 12.1409 C 256.56601 9.513397 254.320007 7.426804 251.764999 7.426804 C 249.130997 7.426804 246.884995 9.513397 246.884995 12.1409 C 246.884995 14.768501 249.130997 16.932404 251.764999 16.932404 Z"/>
    <path id="path5" fill="#ffffff" stroke="none" d="M 261.371002 28.988205 L 266.559998 28.988205 L 266.559998 46.994797 C 266.559998 54.800201 271.283997 57.582298 276.859985 57.582298 C 280.113007 57.582298 282.901001 56.886803 285.147003 55.727501 L 285.147003 48.849503 C 283.056 50.085999 281.119995 50.781502 278.873993 50.781502 C 275.931 50.781502 274.149994 49.390503 274.149994 45.294601 L 274.149994 28.988205 L 283.90799 28.988205 L 283.90799 22.573898 L 274.149994 22.573898 L 274.149994 14.227501 L 266.559998 14.227501 L 266.559998 22.573898 L 261.371002 22.573898 L 261.371002 28.988205 Z"/>
    <path id="path6" fill="#ffffff" stroke="none" d="M 294.742004 22.573898 L 286.532013 22.573898 L 300.704987 58.355103 L 295.903015 70.7201 L 303.415985 70.7201 L 322.002014 22.573898 L 314.102997 22.573898 L 304.5 49.544998 L 294.742004 22.573898 Z"/>
    <path id="path7" fill="#ffffff" fill-rule="evenodd" stroke="none" d="M 51.659 6 C 35.280102 6 22.0023 19.277695 22.0023 35.6567 C 22.0023 52.035599 35.280102 65.3134 51.659 65.3134 C 68.037903 65.3134 81.315697 52.035599 81.315697 35.6567 C 81.315697 19.277695 68.037903 6 51.659 6 Z M 16.0023 35.6567 C 16.0023 15.964005 31.966299 0 51.659 0 C 71.351601 0 87.315697 15.964005 87.315697 35.6567 C 87.315697 55.349297 71.351601 71.3134 51.659 71.3134 C 31.966299 71.3134 16.0023 55.349297 16.0023 35.6567 Z"/>
    <path id="path8" fill="#ffffff" fill-rule="evenodd" stroke="none" d="M 38.334599 3.226402 L 37.754501 9.285904 C 36.0994 26.572998 39.798199 34.185902 44.653599 37.742199 C 49.825802 41.530701 57.386902 41.681099 65.8918 41.283096 C 81.021896 40.574898 89.716599 47.360199 94.486603 54.479698 C 96.823601 57.967598 98.186501 61.475899 98.9673 64.097198 C 99.359299 65.4133 99.6092 66.521301 99.762703 67.313301 C 99.8395 67.709801 99.892502 68.028397 99.9272 68.255798 C 99.944504 68.369499 99.957298 68.460602 99.966202 68.527298 C 99.970703 68.560699 99.974197 68.587898 99.976799 68.609001 L 99.980103 68.635696 L 99.9813 68.645599 L 99.981796 68.649597 C 99.981796 68.649597 99.982201 68.653 97.002296 69 C 97.002296 72 97.001999 72 97.001999 72 L 51.211102 72 C 16.013399 72 2.24645 25.8293 33.175701 6.457504 L 38.334599 3.226402 Z M 97.002296 69 L 97.001999 72 L 100.372002 72 L 99.982201 68.653 L 97.002296 69 Z M 93.272903 66 C 93.2547 65.937302 93.236 65.873901 93.217003 65.809998 C 92.556297 63.591904 91.415298 60.674896 89.501999 57.819397 C 85.771797 52.251801 78.9813 46.677002 66.172302 47.276497 C 58.003399 47.658798 48.2439 47.809303 41.108101 42.582703 C 34.6217 37.831699 31.056499 29.3246 31.376801 15.335899 C 12.2365 33.024399 24.1817 66 51.211102 66 L 93.272903 66 Z"/>
</svg>
