<?xml version="1.0" encoding="UTF-8"?>
<!-- Generated by Pixelmator Pro 3.3.2 -->
<svg width="250" height="72" viewBox="0 0 250 72" xmlns="http://www.w3.org/2000/svg" xmlns:xlink="http://www.w3.org/1999/xlink">
    <path id="Path" fill="#ffffff" stroke="none" d="M 92.328079 25.632359 L 83.557976 25.632359 L 83.557976 46.37088 L 88.080803 46.37088 L 88.080803 30.12624 L 89.381523 30.12624 L 96.604713 46.37088 L 101.54982 46.37088 L 92.328079 25.632359 Z"/>
    <path id="path1" fill="#ffffff" stroke="none" d="M 171.268661 46.37088 L 175.791489 46.37088 L 175.791489 25.632359 L 171.268661 25.632359 L 171.268661 46.37088 Z"/>
    <path id="path2" fill="#ffffff" stroke="none" d="M 110.770287 25.632359 L 101.549461 46.37088 L 106.49366 46.37088 L 113.71685 30.12624 L 115.01757 30.12624 L 115.01757 46.37088 L 119.540398 46.37088 L 119.540398 25.632359 L 110.770287 25.632359 Z"/>
    <path id="path3" fill="#ffffff" stroke="none" d="M 139.766312 25.632359 L 131.492035 25.632359 L 122.270477 46.37088 L 127.215401 46.37088 L 130.219757 39.613499 L 141.038589 39.613499 L 144.042938 46.37088 L 148.987869 46.37088 L 139.766312 25.632359 Z M 132.218109 35.119621 L 134.438583 30.12624 L 136.819748 30.12624 L 139.040039 35.119621 L 132.218109 35.119621 Z"/>
    <path id="path4" fill="#ffffff" stroke="none" d="M 162.047287 25.632359 L 151.60289 25.632359 L 151.60289 46.37088 L 156.125717 46.37088 L 156.125717 30.12624 L 159.100723 30.12624 L 166.323914 46.37088 L 171.268829 46.37088 L 162.047287 25.632359 Z"/>
    <path id="path5" fill="#ffffff" stroke="none" d="M 178.303619 25.632359 L 178.303619 30.12624 L 188.856888 30.12624 L 188.856888 46.37088 L 193.380432 46.37088 L 193.380432 30.12624 L 203.932968 30.12624 L 203.932968 25.632359 L 178.303619 25.632359 Z"/>
    <path id="path6" fill="#ffffff" stroke="none" d="M 210.969208 25.632359 L 206.445648 25.632359 L 206.445648 46.37088 L 226.128616 46.37088 L 226.128616 41.876999 L 210.969208 41.876999 L 210.969208 25.632359 Z"/>
    <path id="path7" fill="#ffffff" stroke="none" d="M 250 30.12624 L 250 25.632359 L 228.641296 25.632359 L 228.641296 46.37088 L 250 46.37088 L 250 41.876999 L 233.164856 41.876999 L 233.164856 37.949039 L 247.759064 37.949039 L 247.759064 33.455162 L 233.164856 33.455162 L 233.164856 30.12624 L 250 30.12624 Z"/>
    <path id="path8" fill="#ffffff" stroke="none" d="M 13.618061 26.181717 L 3.584873 21.106083 C 2.800072 22.638062 2.131703 24.244381 1.599851 25.880402 L 12.313134 29.322357 C 12.663242 28.246319 13.102119 27.190258 13.618914 26.182438 L 13.618061 26.181717 Z"/>
    <path id="path9" fill="#ffffff" stroke="none" d="M 22.14076 17.236366 L 27.698008 26.75016 C 28.509602 26.28252 29.378262 25.922878 30.281883 25.681499 L 27.405798 15.058495 C 28.13768 14.862923 28.881523 14.701481 29.629528 14.584137 L 27.862137 3.534966 C 26.152718 3.804588 24.454166 4.211548 22.8125 4.743324 L 26.249094 15.20829 C 25.155977 15.56282 24.091486 16.003044 23.066305 16.524017 L 18.014946 6.727303 C 16.478859 7.509567 14.993025 8.418327 13.596794 9.431137 L 20.234421 18.467281 C 20.845833 18.024479 21.484964 17.614208 22.140036 17.235542 L 22.14076 17.236366 Z"/>
    <path id="path10" fill="#ffffff" stroke="none" d="M 51.961956 25.118816 L 42.390217 30.645538 C 42.861774 31.451038 43.223549 32.314861 43.467392 33.211262 L 54.157974 30.348362 C 54.354893 31.075741 54.517391 31.813919 54.636234 32.55624 L 65.75489 30.796921 C 65.482788 29.099339 65.072281 27.410759 64.535507 25.778881 L 54.004711 29.199963 C 53.647099 28.114021 53.203987 27.05706 52.678802 26.038441 L 62.535328 21.012844 C 61.748009 19.488243 60.831707 18.011879 59.812496 16.625393 L 50.720654 23.224861 C 51.16703 23.832359 51.580074 24.466499 51.961052 25.118099 L 51.961956 25.118816 Z"/>
    <path id="path11" fill="#ffffff" stroke="none" d="M 48.058697 6.682518 C 46.515038 5.903587 44.898552 5.240311 43.253624 4.712692 L 39.795288 15.359093 C 40.877357 15.706116 41.941124 16.142185 42.957066 16.654823 L 48.058697 6.681694 L 48.058697 6.682518 Z"/>
    <path id="path12" fill="#ffffff" stroke="none" d="M 44.060871 17.041428 L 38.440037 26.734138 C 39.254169 27.200161 40.004528 27.771118 40.6721 28.431717 L 56.436775 12.714787 C 55.213947 11.503929 53.885509 10.379627 52.488407 9.372658 L 45.986412 18.282238 C 45.366669 17.836182 44.724998 17.420902 44.061775 17.040585 L 44.060871 17.041428 Z"/>
    <path id="path13" fill="#ffffff" stroke="none" d="M 14.00904 25.083721 L 23.761593 30.674522 C 24.230618 29.866501 24.806885 29.120037 25.472826 28.455841 L 9.66125 12.786335 C 8.441757 14.001354 7.309366 15.320393 6.295906 16.707672 L 15.259528 23.172302 C 14.810598 23.787178 14.391812 24.42474 14.00904 25.083721 Z"/>
    <path id="path14" fill="#ffffff" stroke="none" d="M 36.496738 14.396126 L 38.197826 3.52005 C 36.51685 3.260391 34.796558 3.128906 33.083694 3.128906 L 33.057789 3.128906 L 33.057789 25.318802 L 33.083694 25.318802 C 34.025181 25.318802 34.95652 25.438679 35.852718 25.675022 L 38.740582 14.862152 C 38.001812 14.667427 37.253078 14.513474 36.496738 14.396126 Z"/>
    <path id="path15" fill="#ffffff" stroke="none" d="M 22.692211 33.243118 L 11.81134 30.36618 C 11.614511 31.10022 11.458732 31.844162 11.340633 32.595661 L 0.396168 30.900421 C 0.133173 32.57658 -0 34.292519 -0 35.999462 L 22.332788 35.999462 C 22.332788 35.062378 22.454348 34.13448 22.692934 33.243118 L 22.692211 33.243118 Z"/>
    <path id="path16" fill="#ffffff" stroke="none" d="M 52.549637 45.820438 L 62.58279 50.89608 C 63.367573 49.363922 64.035873 47.757782 64.567749 46.121758 L 53.854527 42.679619 C 53.504349 43.755661 53.065578 44.811718 52.548733 45.819538 L 52.549637 45.820438 Z"/>
    <path id="path17" fill="#ffffff" stroke="none" d="M 44.026451 54.763382 L 38.469204 45.24966 C 37.657608 45.7173 36.789131 46.076759 35.885326 46.318138 L 38.761597 56.9412 C 38.028625 57.13686 37.285686 57.298317 36.537861 57.41568 L 38.304165 68.463898 C 40.013771 68.19426 41.712318 67.787277 43.353985 67.255562 L 39.917393 56.790543 C 41.011234 56.436119 42.075001 55.995842 43.100182 55.474922 L 48.151447 65.271599 C 49.6875 64.489319 51.17337 63.580498 52.569565 62.567818 L 45.931885 53.531639 C 45.320469 53.974442 44.681522 54.384659 44.026451 54.763382 Z"/>
    <path id="path18" fill="#ffffff" stroke="none" d="M 14.206213 46.883698 L 23.778805 41.357162 C 23.307245 40.551483 22.94529 39.68766 22.70163 38.791439 L 12.010961 41.65416 C 11.814131 40.926781 11.651649 40.188599 11.532717 39.446281 L 0.413203 41.205601 C 0.685413 42.903358 1.095819 44.591942 1.632697 46.223816 L 12.163405 42.802559 C 12.521033 43.88868 12.964112 44.945641 13.489276 45.96426 L 3.632808 50.989861 C 4.420108 52.514458 5.336413 53.990822 6.355724 55.377182 L 15.447501 48.77784 C 15.001069 48.170338 14.588152 47.536201 14.207065 46.884602 L 14.206213 46.883698 Z"/>
    <path id="path19" fill="#ffffff" stroke="none" d="M 18.108967 65.318764 C 19.652536 66.097801 21.269022 66.760925 22.914129 67.288681 L 26.372463 56.64222 C 25.290218 56.295181 24.226631 55.859039 23.210506 55.346397 L 18.108967 65.319656 L 18.108967 65.318764 Z"/>
    <path id="path20" fill="#ffffff" stroke="none" d="M 22.106703 54.961201 L 27.727718 45.268562 C 26.913588 44.802544 26.163044 44.231579 25.49547 43.57098 L 9.730906 59.287857 C 10.953751 60.498722 12.282138 61.623001 13.679185 62.630096 L 20.18116 53.720459 C 20.801086 54.166504 21.442572 54.58176 22.105978 54.962101 L 22.106703 54.961201 Z"/>
    <path id="path21" fill="#ffffff" stroke="none" d="M 52.158337 46.918621 L 42.405617 41.327999 C 41.936596 42.136017 41.360325 42.882481 40.694565 43.546501 L 56.505257 59.216942 C 57.724819 58.001942 58.857067 56.682899 59.870651 55.295639 L 50.906883 48.831123 C 51.355976 48.216057 51.774635 47.578682 52.157425 46.919521 L 52.158337 46.918621 Z"/>
    <path id="path22" fill="#ffffff" stroke="none" d="M 30.314857 46.32534 L 27.426992 57.138298 C 28.16576 57.332882 28.914494 57.486961 29.670834 57.604317 L 27.970654 68.480286 C 29.651632 68.740021 31.371922 68.871422 33.084782 68.871422 L 33.110687 68.871422 L 33.110687 46.681561 L 33.084782 46.681561 C 32.143295 46.681561 31.211956 46.56168 30.315762 46.32534 L 30.314857 46.32534 Z"/>
    <path id="path23" fill="#ffffff" stroke="none" d="M 43.834961 36.001801 C 43.834961 36.938881 43.713589 37.865879 43.474819 38.757961 L 54.355614 41.634903 C 54.552536 40.90086 54.708332 40.156921 54.826267 39.405418 L 65.771736 41.101563 C 66.034599 39.4254 66.167755 37.709457 66.167755 36.002522 L 43.834961 36.002522 L 43.834961 36.001801 Z"/>
</svg>
