<?xml version="1.0" encoding="UTF-8"?>
<!-- Generated by Pixelmator Pro 3.3.2 -->
<svg width="1804" height="285" viewBox="0 0 1804 285" xmlns="http://www.w3.org/2000/svg" xmlns:xlink="http://www.w3.org/1999/xlink">
    <path id="Path" fill="#ffffff" stroke="none" d="M 1359.109985 143.261002 C 1351.130005 137.994003 1342.329956 134.248993 1334 129.567993 C 1328.599976 126.524994 1322.849976 123.833008 1318.160034 119.971008 C 1310.180054 113.416992 1311.819946 100.542999 1320.150024 94.92569 C 1332.119995 86.967407 1351.949951 91.414703 1354.060059 107.682007 C 1354.060059 108.033997 1354.420044 108.268005 1354.77002 108.268005 L 1372.839966 108.268005 C 1373.310059 108.268005 1373.660034 107.916992 1373.540039 107.447998 C 1372.599976 96.213104 1368.26001 86.850311 1360.280029 80.881592 C 1352.660034 75.146896 1343.969971 72.104004 1334.699951 72.104004 C 1286.949951 72.104004 1282.609985 122.54599 1308.300049 138.462997 C 1311.23999 140.335007 1336.459961 152.975006 1345.380005 158.475006 C 1354.300049 163.975998 1357.119995 174.041 1353.23999 181.998993 C 1349.719971 189.255997 1340.569946 194.287994 1331.420044 193.703003 C 1321.449951 193.117996 1313.699951 187.733994 1311 179.307999 C 1310.530029 177.785995 1310.300049 174.860001 1310.300049 173.572998 C 1310.300049 173.222 1309.949951 172.871002 1309.589966 172.871002 L 1290 172.871002 C 1289.650024 172.871002 1289.290039 173.222 1289.290039 173.572998 C 1289.290039 187.733994 1292.819946 195.574997 1302.439941 202.714005 C 1311.469971 209.501999 1321.329956 212.311005 1331.540039 212.311005 C 1358.290039 212.311005 1372.130005 197.214005 1374.949951 181.531006 C 1377.410034 166.199997 1372.839966 152.389999 1359.109985 143.261002 Z"/>
    <path id="path1" fill="#ffffff" stroke="none" d="M 508.307007 74.679199 L 499.623993 74.679199 L 490.119995 74.679199 C 489.768005 74.679199 489.53299 74.9133 489.415985 75.147308 L 473.341003 128.046997 C 473.105988 128.748993 472.166992 128.748993 471.933014 128.046997 L 455.858002 75.147308 C 455.73999 74.796204 455.506012 74.679199 455.153992 74.679199 L 445.648987 74.679199 L 436.966003 74.679199 L 425.233002 74.679199 C 424.881012 74.679199 424.528992 75.030304 424.528992 75.381409 L 424.528992 210.438995 C 424.528992 210.789993 424.881012 211.141006 425.233002 211.141006 L 444.828003 211.141006 C 445.179993 211.141006 445.532013 210.789993 445.532013 210.438995 L 445.532013 107.800003 C 445.532013 106.981003 446.704987 106.863998 446.940002 107.56601 L 463.131989 160.817001 L 464.306 164.561996 C 464.423004 164.912994 464.65799 165.029999 465.01001 165.029999 L 480.028992 165.029999 C 480.381012 165.029999 480.61499 164.796005 480.733002 164.561996 L 481.906006 160.817001 L 498.098999 107.56601 C 498.333008 106.747009 499.506989 106.981003 499.506989 107.800003 L 499.506989 210.438995 C 499.506989 210.789993 499.859009 211.141006 500.210999 211.141006 L 519.80603 211.141006 C 520.15802 211.141006 520.51001 210.789993 520.51001 210.438995 L 520.51001 75.381409 C 520.51001 75.030304 520.15802 74.679199 519.80603 74.679199 L 508.307007 74.679199 Z"/>
    <path id="path2" fill="#ffffff" stroke="none" d="M 1059.079956 74.679199 C 1058.72998 74.679199 1058.48999 74.9133 1058.380005 75.147308 L 1042.300049 128.046997 C 1042.069946 128.748993 1041.130005 128.748993 1040.890015 128.046997 L 1024.819946 75.147308 C 1024.699951 74.796204 1024.469971 74.679199 1024.109985 74.679199 L 994.310974 74.679199 C 993.958984 74.679199 993.606995 75.030304 993.606995 75.381409 L 993.606995 210.438995 C 993.606995 210.789993 993.958984 211.141006 994.310974 211.141006 L 1013.909973 211.141006 C 1014.26001 211.141006 1014.609985 210.789993 1014.609985 210.438995 L 1014.609985 107.800003 C 1014.609985 106.981003 1015.780029 106.863998 1016.02002 107.56601 L 1032.209961 160.817001 L 1033.380005 164.561996 C 1033.5 164.912994 1033.73999 165.029999 1034.089966 165.029999 L 1049.109985 165.029999 C 1049.459961 165.029999 1049.689941 164.796005 1049.810059 164.561996 L 1050.97998 160.817001 L 1067.180054 107.56601 C 1067.410034 106.747009 1068.579956 106.981003 1068.579956 107.800003 L 1068.579956 210.438995 C 1068.579956 210.789993 1068.939941 211.141006 1069.290039 211.141006 L 1088.880005 211.141006 C 1089.23999 211.141006 1089.589966 210.789993 1089.589966 210.438995 L 1089.589966 75.381409 C 1089.589966 75.030304 1089.23999 74.679199 1088.880005 74.679199 L 1059.079956 74.679199 Z"/>
    <path id="path3" fill="#ffffff" stroke="none" d="M 806.341003 74.679199 L 769.849976 74.679199 L 750.255005 74.679199 L 713.763 74.679199 C 713.411011 74.679199 713.059021 75.030304 713.059021 75.381409 L 713.059021 92.234406 C 713.059021 92.58551 713.411011 92.9366 713.763 92.9366 L 749.551025 92.9366 L 749.551025 210.438995 C 749.551025 210.789993 749.903015 211.141006 750.255005 211.141006 L 769.849976 211.141006 C 770.202026 211.141006 770.554016 210.789993 770.554016 210.438995 L 770.554016 92.9366 L 806.341003 92.9366 C 806.692993 92.9366 807.044983 92.58551 807.044983 92.234406 L 807.044983 75.381409 C 807.044983 75.030304 806.810974 74.679199 806.341003 74.679199 Z"/>
    <path id="path4" fill="#ffffff" stroke="none" d="M 921.916016 211.141998 L 939.750977 211.141998 C 940.221008 211.141998 940.572998 210.673996 940.455017 210.205994 L 903.612 74.679993 C 903.494995 74.328903 903.26001 74.211899 902.90802 74.211899 L 896.10199 74.211899 L 884.133972 74.211899 L 877.328979 74.211899 C 876.97699 74.211899 876.742004 74.445999 876.625 74.679993 L 839.781006 210.205994 C 839.664001 210.673996 840.015991 211.141998 840.484985 211.141998 L 858.320007 211.141998 C 858.671997 211.141998 858.906982 210.908005 859.023987 210.673996 L 869.702026 171.233994 C 869.81897 170.882004 870.054016 170.764999 870.406006 170.764999 L 909.830994 170.764999 C 910.182983 170.764999 910.416992 170.998993 910.534973 171.233994 L 921.211975 210.673996 C 921.330017 210.908005 921.682007 211.141998 921.916016 211.141998 Z M 875.098999 151.455002 L 889.414001 98.672089 C 889.648987 97.96991 890.588013 97.96991 890.822021 98.672089 L 905.137024 151.455002 C 905.255005 151.923004 904.903015 152.391006 904.432983 152.391006 L 875.802979 152.391006 C 875.333984 152.391006 874.981995 151.923004 875.098999 151.455002 Z"/>
    <path id="path5" fill="#ffffff" stroke="none" d="M 1226.050049 211.141998 L 1243.890015 211.141998 C 1244.349976 211.141998 1244.709961 210.673996 1244.589966 210.205994 L 1207.75 74.679993 C 1207.630005 74.328903 1207.390015 74.211899 1207.040039 74.211899 L 1200.23999 74.211899 L 1188.27002 74.211899 L 1181.459961 74.211899 C 1181.109985 74.211899 1180.880005 74.445999 1180.76001 74.679993 L 1143.910034 210.205994 C 1143.800049 210.673996 1144.150024 211.141998 1144.619995 211.141998 L 1162.449951 211.141998 C 1162.810059 211.141998 1163.040039 210.908005 1163.160034 210.673996 L 1173.839966 171.233994 C 1173.949951 170.882004 1174.189941 170.764999 1174.540039 170.764999 L 1213.959961 170.764999 C 1214.319946 170.764999 1214.550049 170.998993 1214.670044 171.233994 L 1225.349976 210.673996 C 1225.459961 210.908005 1225.699951 211.141998 1226.050049 211.141998 Z M 1179.22998 151.455002 L 1193.550049 98.672089 C 1193.780029 97.96991 1194.719971 97.96991 1194.959961 98.672089 L 1209.27002 151.455002 C 1209.390015 151.923004 1209.040039 152.391006 1208.569946 152.391006 L 1179.939941 152.391006 C 1179.469971 152.391006 1179.119995 151.923004 1179.22998 151.455002 Z"/>
    <path id="path6" fill="#ffffff" stroke="none" d="M 600.064026 191.126007 L 600.064026 149.227997 C 600.064026 148.876999 600.416016 148.526001 600.768005 148.526001 L 652.981995 148.526001 C 653.333984 148.526001 653.685974 148.175003 653.685974 147.822998 L 653.685974 130.970001 C 653.685974 130.619003 653.333984 130.268005 652.981995 130.268005 L 600.768005 130.268005 C 600.416016 130.268005 600.064026 129.917007 600.064026 129.565994 L 600.064026 93.75351 C 600.064026 93.402405 600.416016 93.0513 600.768005 93.0513 L 660.140015 93.0513 C 660.492004 93.0513 660.843994 92.700195 660.843994 92.349091 L 660.843994 75.496201 C 660.843994 75.144989 660.492004 74.7939 660.140015 74.7939 L 600.064026 74.7939 L 579.765015 74.7939 C 579.413025 74.7939 579.060974 75.144989 579.060974 75.496201 L 579.060974 93.0513 L 579.060974 130.384995 L 579.060974 148.643005 L 579.060974 191.945007 L 579.060974 210.436996 C 579.060974 210.787994 579.413025 211.139008 579.765015 211.139008 L 600.064026 211.139008 L 662.604004 211.139008 C 662.955994 211.139008 663.307983 210.787994 663.307983 210.436996 L 663.307983 192.647995 C 663.307983 192.296997 662.955994 191.945007 662.604004 191.945007 L 600.650024 191.945007 C 600.297974 191.828003 600.064026 191.593994 600.064026 191.126007 Z"/>
    <path id="path7" fill="#ffffff" stroke="none" d="M 1538.170044 209.968994 L 1470.349976 140.098999 C 1470.109985 139.865005 1470.109985 139.397003 1470.349976 139.162994 L 1531.359985 75.964294 C 1531.829956 75.496201 1531.47998 74.7939 1530.890015 74.7939 L 1505.900024 74.7939 C 1505.670044 74.7939 1505.550049 74.911011 1505.430054 75.028 L 1453.689941 128.630005 C 1453.219971 129.098007 1452.51001 128.746994 1452.51001 128.162003 L 1452.51001 75.496201 C 1452.51001 75.144989 1452.160034 74.7939 1451.810059 74.7939 L 1432.209961 74.7939 C 1431.859985 74.7939 1431.51001 75.144989 1431.51001 75.496201 L 1431.51001 210.554001 C 1431.51001 210.904999 1431.859985 211.255997 1432.209961 211.255997 L 1451.810059 211.255997 C 1452.160034 211.255997 1452.51001 210.904999 1452.51001 210.554001 L 1452.51001 151.100006 C 1452.51001 150.514999 1453.329956 150.164001 1453.689941 150.632004 L 1512.349976 211.022003 C 1512.469971 211.139008 1512.709961 211.255997 1512.819946 211.255997 L 1537.819946 211.255997 C 1538.280029 211.139008 1538.640015 210.320007 1538.170044 209.968994 Z"/>
    <path id="path8" fill="#e17726" stroke="#e17726" stroke-width="2.258" stroke-linecap="round" stroke-linejoin="round" d="M 290.647003 2 L 172.020996 89.775803 L 194.080002 38.0466 L 290.647003 2 Z"/>
    <path id="path9" fill="#e27625" stroke="#e27625" stroke-width="2.258" stroke-linecap="round" stroke-linejoin="round" d="M 17.021 2 L 134.591995 90.595093 L 113.588997 38.0466 L 17.021 2 Z"/>
    <path id="path10" fill="#e27625" stroke="#e27625" stroke-width="2.258" stroke-linecap="round" stroke-linejoin="round" d="M 247.936996 205.524002 L 216.373993 253.742996 L 283.959015 272.351013 L 303.320007 206.578003 L 247.936996 205.524002 Z"/>
    <path id="path11" fill="#e27625" stroke="#e27625" stroke-width="2.258" stroke-linecap="round" stroke-linejoin="round" d="M 4.46533 206.578003 L 23.7085 272.351013 L 91.176804 253.742996 L 59.730701 205.524002 L 4.46533 206.578003 Z"/>
    <path id="path12" fill="#e27625" stroke="#e27625" stroke-width="2.258" stroke-linecap="round" stroke-linejoin="round" d="M 87.539398 124.067001 L 68.765602 152.389008 L 135.647003 155.432007 L 133.417999 83.455597 L 87.539398 124.067001 Z"/>
    <path id="path13" fill="#e27625" stroke="#e27625" stroke-width="2.258" stroke-linecap="round" stroke-linejoin="round" d="M 220.128006 124.065002 L 173.546005 82.6353 L 172.020996 155.431 L 238.901993 152.388 L 220.128006 124.065002 Z"/>
    <path id="path14" fill="#e27625" stroke="#e27625" stroke-width="2.258" stroke-linecap="round" stroke-linejoin="round" d="M 91.177696 253.742996 L 131.658997 234.197998 L 96.809898 207.046005 L 91.177696 253.742996 Z"/>
    <path id="path15" fill="#e27625" stroke="#e27625" stroke-width="2.258" stroke-linecap="round" stroke-linejoin="round" d="M 176.011993 234.197998 L 216.375 253.742996 L 210.860992 207.046005 L 176.011993 234.197998 Z"/>
    <path id="path16" fill="#d5bfb2" stroke="#d5bfb2" stroke-width="2.258" stroke-linecap="round" stroke-linejoin="round" d="M 216.371002 253.740005 L 176.007004 234.195007 L 179.292999 260.411011 L 178.940994 271.528992 L 216.371002 253.740005 Z"/>
    <path id="path17" fill="#d5bfb2" stroke="#d5bfb2" stroke-width="2.258" stroke-linecap="round" stroke-linejoin="round" d="M 91.173302 253.740005 L 128.720993 271.528992 L 128.485992 260.411011 L 131.654007 234.195007 L 91.173302 253.740005 Z"/>
    <path id="path18" fill="#233447" stroke="#233447" stroke-width="2.258" stroke-linecap="round" stroke-linejoin="round" d="M 129.427994 189.723007 L 95.870102 179.893005 L 119.571999 169.007996 L 129.427994 189.723007 Z"/>
    <path id="path19" fill="#233447" stroke="#233447" stroke-width="2.258" stroke-linecap="round" stroke-linejoin="round" d="M 178.238998 189.723007 L 188.095001 169.007996 L 211.914001 179.893005 L 178.238998 189.723007 Z"/>
    <path id="path20" fill="#cc6228" stroke="#cc6228" stroke-width="2.258" stroke-linecap="round" stroke-linejoin="round" d="M 91.175102 253.742996 L 97.041901 205.524994 L 59.729 206.578003 L 91.175102 253.742996 Z"/>
    <path id="path21" fill="#cc6228" stroke="#cc6228" stroke-width="2.258" stroke-linecap="round" stroke-linejoin="round" d="M 210.623001 205.524994 L 216.371994 253.742996 L 247.936005 206.578003 L 210.623001 205.524994 Z"/>
    <path id="path22" fill="#cc6228" stroke="#cc6228" stroke-width="2.258" stroke-linecap="round" stroke-linejoin="round" d="M 238.901993 152.391006 L 172.020996 155.434006 L 178.238998 189.725006 L 188.095993 169.009995 L 211.914993 179.893997 L 238.901993 152.391006 Z"/>
    <path id="path23" fill="#cc6228" stroke="#cc6228" stroke-width="2.258" stroke-linecap="round" stroke-linejoin="round" d="M 95.8703 179.893997 L 119.571999 169.009995 L 129.427994 189.725006 L 135.647003 155.434006 L 68.765602 152.391006 L 95.8703 179.893997 Z"/>
    <path id="path24" fill="#e27525" stroke="#e27525" stroke-width="2.258" stroke-linecap="round" stroke-linejoin="round" d="M 68.765099 152.391006 L 96.808502 207.046005 L 95.869797 179.893997 L 68.765099 152.391006 Z"/>
    <path id="path25" fill="#e27525" stroke="#e27525" stroke-width="2.258" stroke-linecap="round" stroke-linejoin="round" d="M 211.916 179.893997 L 210.860001 207.046005 L 238.904007 152.391006 L 211.916 179.893997 Z"/>
    <path id="path26" fill="#e27525" stroke="#e27525" stroke-width="2.258" stroke-linecap="round" stroke-linejoin="round" d="M 135.645996 155.434006 L 129.427002 189.725006 L 137.287994 230.218994 L 139.048004 176.850998 L 135.645996 155.434006 Z"/>
    <path id="path27" fill="#e27525" stroke="#e27525" stroke-width="2.258" stroke-linecap="round" stroke-linejoin="round" d="M 172.020004 155.434006 L 168.735001 176.733994 L 170.378006 230.218994 L 178.238998 189.725006 L 172.020004 155.434006 Z"/>
    <path id="path28" fill="#f5841f" stroke="#f5841f" stroke-width="2.258" stroke-linecap="round" stroke-linejoin="round" d="M 178.237 189.723007 L 170.375 230.216995 L 176.007996 234.197006 L 210.856003 207.044998 L 211.912003 179.893005 L 178.237 189.723007 Z"/>
    <path id="path29" fill="#f5841f" stroke="#f5841f" stroke-width="2.258" stroke-linecap="round" stroke-linejoin="round" d="M 95.870102 179.893005 L 96.8088 207.044998 L 131.658005 234.197006 L 137.289993 230.216995 L 129.427994 189.723007 L 95.870102 179.893005 Z"/>
    <path id="path30" fill="#c0ac9d" stroke="#c0ac9d" stroke-width="2.258" stroke-linecap="round" stroke-linejoin="round" d="M 178.940994 271.529999 L 179.292999 260.411987 L 176.242004 257.837006 L 131.419998 257.837006 L 128.485992 260.411987 L 128.720993 271.529999 L 91.173302 253.740997 L 104.315002 264.507996 L 130.949997 282.881989 L 176.593994 282.881989 L 203.347 264.507996 L 216.371002 253.740997 L 178.940994 271.529999 Z"/>
    <path id="path31" fill="#000000" stroke="#000000" stroke-width="2.258" stroke-linecap="round" stroke-linejoin="round" d="M 176.009003 234.195999 L 170.376999 230.216995 L 137.287994 230.216995 L 131.656006 234.195999 L 128.488007 260.411987 L 131.421005 257.837006 L 176.244003 257.837006 L 179.294006 260.411987 L 176.009003 234.195999 Z"/>
    <path id="path32" fill="#763e1a" stroke="#763e1a" stroke-width="2.258" stroke-linecap="round" stroke-linejoin="round" d="M 295.690002 95.51059 L 305.664001 47.058304 L 290.644989 2 L 176.007004 86.850006 L 220.126007 124.067001 L 282.431 142.207001 L 296.160004 126.174011 L 290.174988 121.843002 L 299.679993 113.182999 L 292.404999 107.565002 L 301.908997 100.30899 L 295.690002 95.51059 Z"/>
    <path id="path33" fill="#763e1a" stroke="#763e1a" stroke-width="2.258" stroke-linecap="round" stroke-linejoin="round" d="M 2 47.058304 L 12.0909 95.51059 L 5.63742 100.30899 L 15.259 107.565002 L 7.98415 113.182999 L 17.4884 121.843002 L 11.5042 126.174011 L 25.232599 142.207001 L 87.538101 124.067001 L 131.656006 86.850006 L 17.018999 2 L 2 47.058304 Z"/>
    <path id="path34" fill="#f5841f" stroke="#f5841f" stroke-width="2.258" stroke-linecap="round" stroke-linejoin="round" d="M 282.432007 142.209 L 220.126007 124.069 L 238.899994 152.391006 L 210.856003 207.046005 L 247.934998 206.578003 L 303.316986 206.578003 L 282.432007 142.209 Z"/>
    <path id="path35" fill="#f5841f" stroke="#f5841f" stroke-width="2.258" stroke-linecap="round" stroke-linejoin="round" d="M 87.539398 124.069 L 25.233801 142.209 L 4.46533 206.578003 L 59.730701 206.578003 L 96.808899 207.046005 L 68.765602 152.391006 L 87.539398 124.069 Z"/>
    <path id="path36" fill="#f5841f" stroke="#f5841f" stroke-width="2.258" stroke-linecap="round" stroke-linejoin="round" d="M 172.018997 155.434006 L 176.009003 86.852203 L 194.078995 38.048798 L 113.585999 38.048798 L 131.656006 86.852203 L 135.645004 155.434006 L 137.171005 176.968994 L 137.287994 230.218994 L 170.376999 230.218994 L 170.494003 176.968994 L 172.018997 155.434006 Z"/>
    <path id="path37" fill="#ffffff" fill-rule="evenodd" stroke="none" d="M 1586 33 C 1577.160034 33 1570 40.163391 1570 49 L 1570 101 C 1570 109.837006 1577.160034 117 1586 117 L 1788 117 C 1796.839966 117 1804 109.837006 1804 101 L 1804 49 C 1804 40.163391 1796.839966 33 1788 33 L 1586 33 Z M 1596.430054 95.73999 C 1599.150024 97.059998 1602.209961 97.720001 1605.609985 97.720001 C 1607.849976 97.720001 1609.890015 97.399994 1611.72998 96.76001 C 1613.609985 96.119995 1615.209961 95.220001 1616.530029 94.059998 C 1617.890015 92.899994 1618.949951 91.519989 1619.709961 89.919998 C 1620.469971 88.279999 1620.849976 86.5 1620.849976 84.580002 C 1620.890015 81.380005 1619.969971 78.73999 1618.089966 76.660004 C 1616.25 74.580002 1613.790039 72.980011 1610.709961 71.860001 L 1607.709961 70.779999 C 1605.430054 69.980011 1603.75 69.26001 1602.670044 68.619995 C 1601.630005 67.940002 1601.109985 67.019989 1601.109985 65.860001 C 1601.109985 65.300003 1601.25 64.820007 1601.530029 64.419998 C 1601.849976 64.019989 1602.25 63.679993 1602.72998 63.399994 C 1603.209961 63.119995 1603.75 62.919998 1604.349976 62.800003 C 1604.98999 62.679993 1605.630005 62.619995 1606.27002 62.619995 C 1607.630005 62.619995 1608.949951 62.919998 1610.22998 63.520004 C 1611.51001 64.080002 1612.650024 64.959991 1613.650024 66.160004 L 1619.890015 59.559998 C 1617.890015 57.399994 1615.75 55.880005 1613.469971 55 C 1611.189941 54.119995 1608.75 53.679993 1606.150024 53.679993 C 1604.030029 53.679993 1602.069946 53.979996 1600.27002 54.580002 C 1598.469971 55.179993 1596.910034 56.040009 1595.589966 57.160004 C 1594.310059 58.279999 1593.290039 59.660004 1592.530029 61.300003 C 1591.810059 62.899994 1591.449951 64.73999 1591.449951 66.820007 C 1591.449951 69.73999 1592.369995 72.23999 1594.209961 74.320007 C 1596.050049 76.360001 1598.709961 77.959991 1602.189941 79.119995 L 1605.189941 80.139999 C 1607.349976 80.860001 1608.869995 81.619995 1609.75 82.419998 C 1610.670044 83.220001 1611.130005 84.160004 1611.130005 85.23999 C 1611.130005 86.279999 1610.670044 87.139999 1609.75 87.820007 C 1608.829956 88.459991 1607.569946 88.779999 1605.969971 88.779999 C 1604.410034 88.779999 1602.810059 88.360001 1601.170044 87.519989 C 1599.530029 86.639999 1598.189941 85.440002 1597.150024 83.919998 L 1589.829956 90.100006 C 1591.51001 92.5 1593.709961 94.380005 1596.430054 95.73999 Z M 1637 70.660004 L 1657.76001 97 L 1665.97998 97 L 1665.97998 54.399994 L 1656.380005 54.399994 L 1656.380005 80.73999 L 1635.680054 54.399994 L 1627.459961 54.399994 L 1627.459961 97 L 1637 97 L 1637 70.660004 Z M 1697.300049 54.399994 L 1688.660034 54.399994 L 1670.420044 97 L 1680.380005 97 L 1684.160034 88 L 1701.800049 88 L 1705.579956 97 L 1715.540039 97 L 1697.300049 54.399994 Z M 1698.319946 79.720001 L 1687.579956 79.720001 L 1692.97998 66.940002 L 1698.319946 79.720001 Z M 1748.300049 74.73999 C 1749.060059 72.940002 1749.439941 71.019989 1749.439941 68.980011 C 1749.439941 66.940002 1749.060059 65.040009 1748.300049 63.279999 C 1747.540039 61.479996 1746.47998 59.919998 1745.119995 58.600006 C 1743.800049 57.279999 1742.219971 56.259995 1740.380005 55.540009 C 1738.579956 54.779999 1736.599976 54.399994 1734.439941 54.399994 L 1719.97998 54.399994 L 1719.97998 97 L 1729.52002 97 L 1729.52002 83.5 L 1734.439941 83.5 C 1736.599976 83.5 1738.579956 83.139999 1740.380005 82.419998 C 1742.219971 81.660004 1743.800049 80.639999 1745.119995 79.360001 C 1746.47998 78.040009 1747.540039 76.5 1748.300049 74.73999 Z M 1738.52002 65.019989 C 1739.640015 66.059998 1740.199951 67.380005 1740.199951 68.980011 C 1740.199951 70.540009 1739.640015 71.860001 1738.52002 72.940002 C 1737.439941 74.019989 1736.040039 74.559998 1734.319946 74.559998 L 1729.52002 74.559998 L 1729.52002 63.399994 L 1734.319946 63.399994 C 1736.040039 63.399994 1737.439941 63.940002 1738.52002 65.019989 Z M 1759.079956 95.73999 C 1761.800049 97.059998 1764.859985 97.720001 1768.26001 97.720001 C 1770.5 97.720001 1772.540039 97.399994 1774.380005 96.76001 C 1776.26001 96.119995 1777.859985 95.220001 1779.180054 94.059998 C 1780.540039 92.899994 1781.599976 91.519989 1782.359985 89.919998 C 1783.119995 88.279999 1783.5 86.5 1783.5 84.580002 C 1783.540039 81.380005 1782.619995 78.73999 1780.73999 76.660004 C 1778.900024 74.580002 1776.439941 72.980011 1773.359985 71.860001 L 1770.359985 70.779999 C 1768.079956 69.980011 1766.400024 69.26001 1765.319946 68.619995 C 1764.280029 67.940002 1763.76001 67.019989 1763.76001 65.860001 C 1763.76001 65.300003 1763.900024 64.820007 1764.180054 64.419998 C 1764.5 64.019989 1764.900024 63.679993 1765.380005 63.399994 C 1765.859985 63.119995 1766.400024 62.919998 1767 62.800003 C 1767.640015 62.679993 1768.280029 62.619995 1768.920044 62.619995 C 1770.280029 62.619995 1771.599976 62.919998 1772.880005 63.520004 C 1774.160034 64.080002 1775.300049 64.959991 1776.300049 66.160004 L 1782.540039 59.559998 C 1780.540039 57.399994 1778.400024 55.880005 1776.119995 55 C 1773.839966 54.119995 1771.400024 53.679993 1768.800049 53.679993 C 1766.680054 53.679993 1764.719971 53.979996 1762.920044 54.580002 C 1761.119995 55.179993 1759.560059 56.040009 1758.23999 57.160004 C 1756.959961 58.279999 1755.939941 59.660004 1755.180054 61.300003 C 1754.459961 62.899994 1754.099976 64.73999 1754.099976 66.820007 C 1754.099976 69.73999 1755.02002 72.23999 1756.859985 74.320007 C 1758.699951 76.360001 1761.359985 77.959991 1764.839966 79.119995 L 1767.839966 80.139999 C 1770 80.860001 1771.52002 81.619995 1772.400024 82.419998 C 1773.319946 83.220001 1773.780029 84.160004 1773.780029 85.23999 C 1773.780029 86.279999 1773.319946 87.139999 1772.400024 87.820007 C 1771.47998 88.459991 1770.219971 88.779999 1768.619995 88.779999 C 1767.060059 88.779999 1765.459961 88.360001 1763.819946 87.519989 C 1762.180054 86.639999 1760.839966 85.440002 1759.800049 83.919998 L 1752.47998 90.100006 C 1754.160034 92.5 1756.359985 94.380005 1759.079956 95.73999 Z"/>
</svg>
