<?xml version="1.0" encoding="UTF-8"?>
<!-- Generated by Pixelmator Pro 3.2.3 -->
<svg width="841" height="92" viewBox="0 0 841 92" xmlns="http://www.w3.org/2000/svg" xmlns:xlink="http://www.w3.org/1999/xlink">
    <path id="Path" fill="#ffffff" stroke="none" d="M 4.44 0.350006 L 4.44 89.809998 L 10.15 89.809998 L 10.15 18.320007 L 49.93 74.610016 L 89.699997 18.320007 L 89.699997 89.809998 L 95.410004 89.809998 L 95.410004 0.350006 L 49.93 64.709991 Z"/>
    <path id="path1" fill="#ffffff" stroke="none" d="M 208.070007 1.699997 C 199.759995 1.699997 192.559998 6.5 189.050003 13.459991 C 181.160004 6.179993 170.649994 1.699997 159.089996 1.699997 C 134.669998 1.699997 114.800003 21.570007 114.800003 45.98999 C 114.800003 70.410004 134.669998 90.279999 159.089996 90.279999 C 183.509995 90.279999 203.380005 70.410004 203.380005 45.98999 C 203.380005 45.230011 203.300003 44.480011 203.270004 43.730011 C 204.820007 44.089996 206.419998 44.299988 208.070007 44.299988 C 219.809998 44.299988 229.369995 34.75 229.369995 23 C 229.360001 11.25 219.809998 1.699997 208.070007 1.699997 Z M 197.669998 45.98999 C 197.669998 67.26001 180.360001 84.570007 159.089996 84.570007 C 137.820007 84.570007 120.510002 67.26001 120.510002 45.98999 C 120.510002 24.720001 137.820007 7.410004 159.089996 7.410004 C 170.110001 7.410004 180.039993 12.079987 187.080002 19.519989 C 186.889999 20.660004 186.770004 21.809998 186.770004 23 C 186.770004 30.839996 191.039993 37.690002 197.369995 41.390015 C 197.550003 42.890015 197.669998 44.429993 197.669998 45.98999 Z M 208.070007 38.579987 C 206.130005 38.579987 204.270004 38.209991 202.559998 37.549988 C 201.165253 30.348328 197.996277 23.608215 193.339996 17.940002 C 195.449997 11.820007 201.25 7.410004 208.070007 7.410004 C 216.660004 7.410004 223.660004 14.399994 223.660004 23 C 223.660004 31.600006 216.660004 38.579987 208.070007 38.579987 Z"/>
    <path id="path2" fill="#ffffff" stroke="none" d="M 307.230011 73.529999 L 247.470001 1.410004 L 247.470001 90.209991 L 253.179993 90.209991 L 253.179993 17.25 L 312.940002 89.369995 L 312.940002 1.369995 L 307.230011 1.369995 Z"/>
    <path id="path3" fill="#ffffff" stroke="none" d="M 411.279999 7.410004 L 445.279999 7.410004 L 445.279999 89.809998 L 450.98999 89.809998 L 450.98999 7.410004 L 484.980011 7.410004 L 484.980011 1.699997 L 411.279999 1.699997 Z"/>
    <path id="path4" fill="#ffffff" stroke="none" d="M 367.059998 7.410004 C 385.700012 7.410004 389.970001 17.880005 391.790009 22.350006 C 392.019989 22.910004 392.209991 23.369995 392.380005 23.730011 L 397.519989 21.25 C 397.390015 20.980011 397.25 20.630005 397.079987 20.200012 C 395.019989 15.140015 389.549988 1.710007 367.059998 1.710007 C 343.51001 1.710007 335.119995 13.890015 335.119995 25.279999 C 335.119995 30.290009 337.380005 46.769989 366.48999 48.649994 C 382.420013 49.679993 391.559998 56.209991 391.559998 66.579987 C 391.559998 70.890015 389.769989 84.970001 366.670013 84.970001 C 345.709991 84.970001 340.910004 69.73999 340.720001 69.100006 L 335.230011 70.679993 C 335.290009 70.880005 341.299988 90.670013 366.670013 90.670013 C 395.790009 90.670013 397.269989 70.589996 397.269989 66.570007 C 397.269989 61.48999 395.079987 44.76001 366.859985 42.940002 C 350.559998 41.890015 340.829987 35.290009 340.829987 25.269989 C 340.829987 21.079987 342.720001 7.410004 367.059998 7.410004 Z M 563.929993 26.070007 C 563.929993 9.329987 548.099976 1.699997 533.390015 1.699997 L 504.839996 1.699997 L 504.839996 89.809998 L 510.549988 89.809998 L 510.549988 7.410004 L 533.390015 7.410004 C 545.349976 7.410004 558.219971 13.25 558.219971 26.070007 C 558.219971 40.559998 545.909973 45.720001 534.380005 45.720001 L 520.280029 45.720001 L 558.890015 91.649994 L 563.26001 87.980011 L 532.539978 51.440002 L 534.380005 51.440002 C 552.059998 51.429993 563.929993 41.23999 563.929993 26.070007 Z M 647.840027 54.160004 C 647.840027 61.269989 645.799988 84.480011 619.52002 84.480011 C 598.289978 84.480011 592.630005 65.23999 592.630005 53.869995 L 592.630005 1.360001 L 586.919983 1.360001 L 586.919983 53.869995 C 586.919983 66.429993 593.72998 90.190002 619.52002 90.190002 C 644.609985 90.190002 653.549988 71.579987 653.549988 54.160004 L 653.549988 1.369995 L 647.840027 1.369995 L 647.840027 54.160004 Z M 717.799988 84.480011 C 696.409973 84.480011 679 67.070007 679 45.679993 C 679 24.290009 696.409973 6.880005 717.799988 6.880005 C 728.159973 6.880005 737.909973 10.920013 745.23999 18.23999 L 749.280029 14.200012 C 740.869995 5.790009 729.700012 1.160004 717.809998 1.160004 C 693.27002 1.160004 673.299988 21.130005 673.299988 45.670013 C 673.299988 70.209991 693.27002 90.179993 717.809998 90.179993 C 729.719971 90.179993 740.909973 85.540009 749.320007 77.110016 L 745.280029 73.079987 C 737.929993 80.429993 728.179993 84.480011 717.799988 84.480011 Z"/>
    <path id="path5" fill="#ffffff" stroke="none" d="M 801.76001 47.589996 L 835.48999 1.369995 L 828.419983 1.369995 L 776.530029 72.48999 L 776.530029 1.369995 L 770.820007 1.369995 L 770.820007 90 L 798.289978 52.350006 L 829.669983 90.209991 L 837.080017 90.209991 Z"/>
</svg>
