<svg width="704" height="106" viewBox="0 0 704 106" fill="none" xmlns="http://www.w3.org/2000/svg">
<path d="M29.02 82.1713C18.3162 54.3734 18.5658 21.5931 38.6753 15.1329C49.5089 11.6482 65.6944 10.2103 89.4983 49.1613C90.7864 51.6675 90.6965 53.6945 89.3186 54.633C87.1319 56.1308 84.7455 54.5831 83.0381 52.1069C59.0944 17.2397 49.3592 22.7314 47.1825 23.61C36.7183 27.8636 44.5265 57.0993 53.0136 75.0022C56.3486 82.0415 54.5713 88.7713 47.7117 91.4772C38.2859 95.1916 31.2865 88.0224 29.03 82.1613L29.02 82.1713Z" fill="#FF00AA"/>
<path d="M121.34 23.8392C132.044 51.6371 131.794 84.4175 111.695 90.8777C100.861 94.3624 84.6756 95.8002 60.8717 56.8492C59.5836 54.343 59.6735 52.3161 61.0514 51.3775C63.2381 49.8798 65.6245 51.4274 67.3319 53.9037C91.2756 88.7609 101.011 83.2692 103.188 82.3805C113.652 78.127 105.844 48.8913 97.3564 30.9884C94.0214 23.9491 95.7987 17.2193 102.658 14.5134C112.084 10.799 119.083 17.9681 121.34 23.8293V23.8392Z" fill="#FF00AA"/>
<path d="M680.283 35.9806C679.145 33.2747 677.547 31.0181 675.5 29.2209C673.523 27.3437 671.177 25.9558 668.441 25.0472C665.705 24.1485 662.67 23.6992 659.335 23.6992C656 23.6992 652.765 24.2584 649.889 25.3867C647.084 26.515 644.617 28.0526 642.491 30.0097C640.364 31.9667 638.616 34.2133 637.258 36.7694C636.779 37.6381 636.39 38.5168 636.03 39.4054C635.761 38.1973 635.431 37.039 634.982 35.9806C633.913 33.2747 632.366 31.0181 630.319 29.2209C628.342 27.3437 625.956 25.9558 623.15 25.0472C620.414 24.1485 617.418 23.6992 614.153 23.6992C610.659 23.6992 607.474 24.2584 604.588 25.3867C601.702 26.515 599.196 28.0926 597.079 30.1195C594.953 32.0765 593.245 34.3231 591.957 36.8792C591.248 38.2472 590.689 39.675 590.25 41.1328V24.9373H577.619V81.0723H590.25V47.6629C590.809 45.9555 591.687 44.3579 592.866 42.8602C594.763 40.3839 597.189 38.387 600.155 36.8892C603.19 35.3116 606.525 34.5228 610.169 34.5228C614.952 34.5228 618.447 35.6511 620.644 37.9077C622.92 40.0844 624.058 43.4693 624.058 48.0523V81.0823H636.699V45.5761C636.699 45.3864 636.679 45.2166 636.679 45.0369C637.079 44.298 637.538 43.5691 638.067 42.8702C639.964 40.3939 642.391 38.3969 645.356 36.8992C648.392 35.3216 651.727 34.5328 655.371 34.5328C660.154 34.5328 663.638 35.6611 665.845 37.9177C668.122 40.0944 669.26 43.4792 669.26 48.0623V81.0923H682.011V45.5861C682.011 41.9016 681.441 38.7065 680.303 36.0006L680.283 35.9806Z" fill="#FF00AA"/>
<path d="M559.706 24.9375L542.372 66.7342L525.548 24.9375H511.669L536.361 81.0725H548.433L573.475 24.9375H559.706Z" fill="#FF00AA"/>
<path d="M501.983 62.5805H514.165C513.556 66.4147 512.038 69.8295 509.612 72.835C507.255 75.7705 504.03 78.097 499.936 79.8244C495.843 81.4819 490.94 82.3007 485.249 82.3007C478.798 82.3007 473.027 81.1324 467.945 78.8059C462.863 76.3996 458.879 73.0147 455.993 68.6613C453.107 64.2979 451.67 59.1158 451.67 53.1049C451.67 47.094 453.077 41.9817 455.883 37.5485C458.689 33.1152 462.563 29.7003 467.496 27.294C472.508 24.8876 478.269 23.6895 484.799 23.6895C491.329 23.6895 497.171 24.8876 501.644 27.294C506.197 29.6205 509.572 33.1551 511.778 37.8879C513.975 42.5509 514.894 48.442 514.514 55.5811H464.54C464.919 58.7364 465.948 61.592 467.615 64.1482C469.363 66.6244 471.719 68.5814 474.675 70.0093C477.63 71.3572 481.085 72.0362 485.029 72.0362C489.432 72.0362 493.117 71.1675 496.072 69.4401C499.108 67.7127 501.085 65.4162 501.993 62.5606L501.983 62.5805ZM484.46 33.8441C479.298 33.8441 475.054 35.1221 471.709 37.6783C468.364 40.1545 466.208 43.3497 465.219 47.2637H501.764C501.464 43.0601 499.757 39.7851 496.641 37.4586C493.526 35.0522 489.472 33.8541 484.46 33.8541V33.8441Z" fill="#FF00AA"/>
<path d="M424.461 35.9806C423.402 33.2747 421.845 31.0181 419.798 29.2209C417.821 27.3437 415.435 25.9558 412.629 25.0472C409.893 24.1485 406.897 23.6992 403.632 23.6992C400.138 23.6992 396.953 24.2584 394.067 25.3867C391.181 26.515 388.675 28.0926 386.548 30.1195C384.421 32.0765 382.714 34.3231 381.426 36.8792C380.717 38.2472 380.158 39.675 379.719 41.1328V24.9373H367.078V81.0723H379.719V47.6629C380.278 45.9555 381.156 44.3579 382.335 42.8602C384.232 40.3839 386.658 38.387 389.624 36.8892C392.659 35.3116 395.994 34.5228 399.638 34.5228C404.421 34.5228 407.906 35.6511 410.113 37.9077C412.389 40.0844 413.527 43.4693 413.527 48.0523V81.0823H426.158V45.5761C426.158 41.8917 425.589 38.6965 424.451 35.9906L424.461 35.9806Z" fill="#FF00AA"/>
<path d="M328.996 82.3104C322.695 82.3104 317.044 81.1821 312.031 78.9255C307.019 76.669 303.075 73.364 300.189 69.0106C297.304 64.6472 295.866 59.3552 295.866 53.1146C295.866 46.8741 297.304 41.692 300.189 37.3386C303.075 32.9053 307.019 29.5204 312.031 27.1939C317.044 24.8674 322.695 23.6992 328.996 23.6992C335.296 23.6992 340.907 24.8674 345.84 27.1939C350.773 29.5204 354.647 32.9053 357.452 37.3386C360.338 41.7019 361.776 46.954 361.776 53.1146C361.776 59.2753 360.338 64.6472 357.452 69.0106C354.647 73.3739 350.773 76.6789 345.84 78.9255C340.907 81.1821 335.296 82.3104 328.996 82.3104ZM328.996 72.056C332.64 72.056 335.975 71.337 339.01 69.9192C342.046 68.4913 344.432 66.3446 346.179 63.4989C347.997 60.6432 348.915 57.1885 348.915 53.1246C348.915 49.0608 348.007 45.606 346.179 42.7504C344.432 39.8947 342.046 37.718 339.01 36.2103C336.055 34.6327 332.71 33.8438 328.996 33.8438C325.281 33.8438 321.896 34.5927 318.861 36.1004C315.825 37.6081 313.359 39.7848 311.462 42.6405C309.645 45.4962 308.726 48.9909 308.726 53.1246C308.726 57.2584 309.635 60.6432 311.462 63.4989C313.279 66.3546 315.716 68.4913 318.751 69.9192C321.866 71.347 325.281 72.056 328.996 72.056Z" fill="#FF00AA"/>
<path d="M287.818 37.8977C285.611 33.1649 282.236 29.6302 277.683 27.3038C273.21 24.8974 267.589 23.6992 260.839 23.6992C254.089 23.6992 248.547 24.8974 243.535 27.3038C238.602 29.7101 234.728 33.1249 231.923 37.5582C229.117 41.9915 227.709 47.1737 227.709 53.1146C227.709 59.0556 229.157 64.3077 232.032 68.6711C234.918 73.0345 238.902 76.4094 243.984 78.8157C249.067 81.1422 254.838 82.3104 261.288 82.3104C266.979 82.3104 271.872 81.4817 275.976 79.8342C280.07 78.1068 283.295 75.7803 285.651 72.8448C288.078 69.8393 289.595 66.4245 290.204 62.5903H278.023C277.114 65.446 275.137 67.7425 272.102 69.4699C269.146 71.1973 265.462 72.0659 261.058 72.0659C257.114 72.0659 253.66 71.387 250.704 70.039C247.749 68.6112 245.392 66.6541 243.645 64.1779C241.977 61.6218 240.949 58.7661 240.57 55.6109H290.544C290.923 48.4717 290.015 42.5706 287.808 37.9177L287.818 37.8977ZM241.258 47.2535C242.247 43.3494 244.404 40.1543 247.749 37.6681C251.084 35.1119 255.337 33.8339 260.499 33.8339C265.661 33.8339 269.566 35.032 272.681 37.4384C275.796 39.7649 277.504 43.0399 277.803 47.2435H241.258V47.2535Z" fill="#FF00AA"/>
<path d="M220.999 35.9806C219.941 33.2747 218.383 31.0181 216.336 29.2209C214.359 27.3437 211.973 25.9558 209.167 25.0472C206.431 24.1485 203.436 23.6992 200.171 23.6992C196.676 23.6992 193.491 24.2584 190.605 25.3867C187.719 26.515 185.213 28.0926 183.086 30.1195C180.96 32.0765 179.252 34.3231 177.964 36.8792C177.255 38.2472 176.696 39.675 176.257 41.1328V24.9373H163.626V81.0723H176.257V47.6629C176.816 45.9555 177.695 44.3579 178.873 42.8602C180.77 40.3839 183.196 38.387 186.162 36.8892C189.197 35.3116 192.532 34.5228 196.177 34.5228C200.959 34.5228 204.444 35.6511 206.651 37.9077C208.927 40.0844 210.066 43.4693 210.066 48.0523V81.0823H222.696V45.5761C222.696 41.8917 222.127 38.6965 220.989 35.9906L220.999 35.9806Z" fill="#FF00AA"/>
</svg>
