<?xml version="1.0" encoding="UTF-8"?>
<svg id="Layer_2" data-name="Layer 2" xmlns="http://www.w3.org/2000/svg" viewBox="0 0 853.36 314.19">
  <defs>
    <style>
      .cls-1 {
        fill: #fff;
        stroke-width: 0px;
      }
    </style>
  </defs>
  <g id="Layer_1-2" data-name="Layer 1">
    <g>
      <path class="cls-1" d="M269.22,47.21c-13.19-13.46-28.8-24.51-46.08-32.56-.7-.36-1.42-.69-2.15-1-3.4-1.52-6.83-2.96-10.35-4.24-9.84-3.58-20.14-6.19-30.78-7.74-7.44-1.09-15.04-1.67-22.77-1.67C70.47,0,0,70.47,0,157.1c0,67.49,42.78,125.16,102.64,147.35,7.04,2.61,14.32,4.72,21.79,6.31,10.54,2.24,21.46,3.44,32.66,3.44,59.67,0,111.67-33.45,138.26-82.57,12.01-22.19,18.84-47.57,18.84-74.53,0-42.74-17.18-81.53-44.97-109.88ZM46.86,241.14c-18.56-24.48-28.38-53.69-28.38-84.47,0-52.56,29.14-98.43,72.11-122.32,1.14-.63,2.26.87,1.31,1.77-3.92,3.7-7.69,7.65-11.29,11.85-24.9,29.12-39.25,68.73-39.37,108.7,0,51.89,34.71,107.9,90.79,107.9,50.04,0,90.76-48.4,90.76-107.9,0-27.95-9.37-54.8-25.37-74.71-.56-.7.1-1.7.97-1.44,27.05,8,47.28,39.11,47.28,76.16,0,32.71-11.87,65.27-32.56,89.35-21.45,24.95-50.24,38.7-81.07,38.71-32.46,0-63.53-15.92-85.17-43.58ZM269.82,72.28c18.55,24.43,28.33,53.59,28.31,84.36,0,52.56-29.14,98.43-72.11,122.32-1.14.63-2.26-.87-1.31-1.77,3.93-3.7,7.69-7.65,11.29-11.85,24.9-29.12,39.25-68.73,39.37-108.7,0-51.89-34.71-107.9-90.79-107.9-50.04,0-90.76,48.4-90.76,107.9,0,27.95,9.37,54.8,25.38,74.72.56.7-.1,1.7-.97,1.44-27.05-8-47.28-39.1-47.28-76.13,0-32.7,11.87-65.26,32.56-89.33,21.46-24.95,50.26-38.7,81.1-38.7,32.44,0,63.5,15.91,85.21,43.64ZM206.36,156.67c0,37.06-18,69.04-43.8,83.4-3.2,1.78-7.14,1.56-10.09-.6l-5.52-4.03c-22.63-16.51-36.69-46.71-36.69-78.8,0-37.06,18-69.04,43.81-83.4,3.2-1.78,7.14-1.56,10.09.6l5.52,4.03c22.63,16.51,36.69,46.71,36.69,78.8Z"/>
      <g>
        <path class="cls-1" d="M444.53,109.52c-7.01-4.49-15.21-6.73-24.59-6.73s-17.61,2.24-24.67,6.73c-7.06,4.48-12.53,10.9-16.39,19.25-3.86,8.35-5.8,18.3-5.8,29.85s1.94,21.34,5.8,29.69c3.87,8.35,9.33,14.79,16.39,19.33,7.06,4.54,15.28,6.8,24.67,6.8s17.57-2.27,24.59-6.8c7.01-4.54,12.48-10.98,16.39-19.33,3.92-8.35,5.88-18.25,5.88-29.69s-1.96-21.62-5.88-29.92c-3.92-8.3-9.38-14.69-16.39-19.18ZM440.43,178.72c-2.01,5.57-4.79,9.82-8.35,12.76-3.56,2.94-7.6,4.41-12.14,4.41s-8.61-1.47-12.22-4.41c-3.61-2.94-6.42-7.19-8.43-12.76-2.01-5.57-3.02-12.27-3.02-20.1s1-14.54,3.02-20.1c2.01-5.57,4.82-9.82,8.43-12.76,3.61-2.94,7.68-4.41,12.22-4.41s8.58,1.47,12.14,4.41c3.56,2.94,6.34,7.17,8.35,12.68,2.01,5.52,3.02,12.24,3.02,20.18s-1,14.54-3.02,20.1Z"/>
        <path class="cls-1" d="M506.89,108.36l-26.51,97.9c-.86,3.19,1.54,6.33,4.85,6.33h11.84c2.28,0,4.27-1.54,4.86-3.74l4.05-15.4c.58-2.21,2.57-3.74,4.86-3.74h27.01c2.29,0,4.29,1.55,4.86,3.76l3.97,15.36c.57,2.22,2.57,3.76,4.86,3.76h12.43c3.31,0,5.71-3.15,4.84-6.34l-26.65-97.9c-.59-2.19-2.58-3.7-4.84-3.7h-25.57c-2.27,0-4.25,1.52-4.85,3.71ZM518.35,171.15c-3.29,0-5.69-3.11-4.86-6.3l4.45-16.9,1.62-6.73c1.23-5.13,8.53-5.13,9.76,0l1.61,6.73,4.37,16.92c.82,3.18-1.58,6.28-4.86,6.28h-12.1Z"/>
        <path class="cls-1" d="M689.92,109.67v8.52c0,2.77,2.25,5.02,5.02,5.02h8.05c2.77,0,5.02,2.25,5.02,5.02v60.79c0,2.77-2.25,5.02-5.02,5.02h-8.05c-2.77,0-5.02,2.25-5.02,5.02v8.52c0,2.77,2.25,5.02,5.02,5.02h48.57c2.77,0,5.02-2.25,5.02-5.02v-8.52c0-2.77-2.25-5.02-5.02-5.02h-8.06c-2.77,0-5.02-2.25-5.02-5.02v-60.79c0-2.77,2.25-5.02,5.02-5.02h8.06c2.77,0,5.02-2.25,5.02-5.02v-8.52c0-2.77-2.25-5.02-5.02-5.02h-48.57c-2.77,0-5.02,2.25-5.02,5.02Z"/>
        <path class="cls-1" d="M850.19,167.05c-2.11-3.97-4.9-7.16-8.35-9.59-3.46-2.42-7.22-4.33-11.29-5.72-4.08-1.39-8.17-2.58-12.29-3.56-4.13-.98-7.91-2.01-11.37-3.09-3.45-1.08-6.21-2.5-8.27-4.25-2.06-1.75-3.09-4.07-3.09-6.96,0-4.02,1.52-7.11,4.56-9.28,3.04-2.17,6.88-3.25,11.52-3.25,3.19,0,6.22.53,8.89,1.93,3.55,1.87,5.97,4.72,7.32,6.77.92,1.4,2.49,2.22,4.16,2.22h13.55c3.51,0,6.01-3.53,4.71-6.79-.92-2.31-2.09-4.46-3.53-6.44-3.81-5.26-8.79-9.28-14.92-12.06-6.14-2.78-12.86-4.18-20.18-4.18-7.94,0-14.85,1.39-20.72,4.18-5.87,2.78-10.44,6.57-13.69,11.37-3.25,4.79-4.87,10.18-4.87,16.16s1.03,10.54,3.09,14.3c2.06,3.76,4.82,6.78,8.28,9.05,3.45,2.27,7.24,4.13,11.37,5.57,4.12,1.44,8.22,2.68,12.29,3.71,4.08,1.03,7.84,2.14,11.29,3.32,3.45,1.19,6.21,2.71,8.28,4.56,2.06,1.86,3.09,4.33,3.09,7.42,0,4.23-1.57,7.53-4.72,9.9-3.14,2.37-7.35,3.56-12.6,3.56-6.5,0-11.44-1.91-14.85-5.72-1.42-1.59-2.51-3.51-3.31-5.71-.79-2.16-2.8-3.63-5.1-3.63h-12.18c-3.34,0-5.73,3.2-4.84,6.42.81,2.93,1.91,5.66,3.32,8.18,3.4,6.09,8.25,10.78,14.54,14.07,6.29,3.3,13.77,4.95,22.43,4.95,7.83,0,14.82-1.37,20.95-4.1,6.13-2.73,10.95-6.5,14.46-11.29,3.5-4.79,5.26-10.39,5.26-16.78s-1.06-11.26-3.17-15.23Z"/>
        <path class="cls-1" d="M665.18,167.05c-2.11-3.97-4.9-7.16-8.35-9.59-3.46-2.42-7.22-4.33-11.29-5.72-4.08-1.39-8.17-2.58-12.29-3.56-4.13-.98-7.91-2.01-11.37-3.09-3.45-1.08-6.21-2.5-8.27-4.25-2.06-1.75-3.09-4.07-3.09-6.96,0-4.02,1.52-7.11,4.56-9.28,3.04-2.17,6.88-3.25,11.52-3.25,3.19,0,6.22.53,8.89,1.93,3.55,1.87,5.97,4.72,7.32,6.77.92,1.4,2.49,2.22,4.16,2.22h13.55c3.51,0,6.01-3.53,4.71-6.79-.92-2.31-2.09-4.46-3.53-6.44-3.81-5.26-8.79-9.28-14.92-12.06-6.14-2.78-12.86-4.18-20.18-4.18-7.94,0-14.85,1.39-20.72,4.18-5.87,2.78-10.44,6.57-13.69,11.37-3.25,4.79-4.87,10.18-4.87,16.16s1.03,10.54,3.09,14.3c2.06,3.76,4.82,6.78,8.28,9.05,3.45,2.27,7.24,4.13,11.37,5.57,4.12,1.44,8.22,2.68,12.29,3.71,4.08,1.03,7.84,2.14,11.29,3.32,3.45,1.19,6.21,2.71,8.28,4.56,2.06,1.86,3.09,4.33,3.09,7.42,0,4.23-1.57,7.53-4.72,9.9-3.14,2.37-7.35,3.56-12.6,3.56-6.5,0-11.44-1.91-14.85-5.72-1.42-1.59-2.51-3.51-3.31-5.71-.79-2.16-2.8-3.63-5.1-3.63h-12.18c-3.34,0-5.73,3.2-4.84,6.42.81,2.93,1.91,5.66,3.32,8.18,3.4,6.09,8.25,10.78,14.54,14.07,6.29,3.3,13.77,4.95,22.43,4.95,7.83,0,14.82-1.37,20.95-4.1,6.13-2.73,10.95-6.5,14.46-11.29,3.5-4.79,5.26-10.39,5.26-16.78s-1.06-11.26-3.17-15.23Z"/>
      </g>
    </g>
  </g>
</svg>