<?xml version="1.0" encoding="UTF-8"?>
<!-- Generated by Pixelmator Pro 3.3.2 -->
<svg width="300" height="52" viewBox="0 0 300 52" xmlns="http://www.w3.org/2000/svg" xmlns:xlink="http://www.w3.org/1999/xlink">
    <path id="Path" fill="#a8ceff" stroke="none" d="M 21.199532 47.296364 L 21.199532 43.193089 L 24.74328 43.193089 C 25.764217 43.193089 26.49328 42.972485 26.930782 42.531273 C 27.397501 42.11937 27.630781 41.413433 27.630781 40.413452 L 27.630781 19.676483 L 22.11828 19.676483 L 22.11828 15.705544 L 27.630781 15.705544 L 27.630781 12.661182 C 27.630781 10.21981 28.22875 8.469666 29.42453 7.410755 C 30.620468 6.351845 32.326717 5.822395 34.543282 5.822395 L 39.837032 5.822395 L 39.837032 9.925667 L 35.112034 9.925667 C 34.091248 9.925667 33.36203 10.131569 32.92453 10.543362 C 32.48703 10.955154 32.26828 11.675812 32.26828 12.705303 L 32.26828 15.705544 L 39.837032 15.705544 L 39.837032 19.676483 L 32.26828 19.676483 L 32.26828 40.457573 C 32.26828 42.898895 31.670469 44.64909 30.474531 45.708 C 29.278749 46.766911 27.557968 47.296364 25.312031 47.296364 L 21.199532 47.296364 Z"/>
    <path id="path1" fill="none" stroke="#a8ceff" stroke-width="3.922822" d="M 16.982967 45.289951 C 13.352953 45.289951 9.871593 43.835686 7.304765 41.247032 C 4.737922 38.658535 3.295891 35.147591 3.295891 31.486629 C 3.295891 27.825832 4.737922 24.314884 7.304765 21.726387 C 9.871593 19.137733 13.352953 17.683468 16.982967 17.683468"/>
    <path id="path2" fill="none" stroke="#a8ceff" stroke-width="4.001278" d="M 44.470627 7.83971 C 45.764843 7.83971 47.006096 8.358212 47.921249 9.281162 C 48.836407 10.204102 49.350624 11.455898 49.350624 12.761147 C 49.350624 14.066395 48.836407 15.318176 47.921249 16.241177 C 47.006096 17.164097 45.764843 17.682522 44.470627 17.682522"/>
    <path id="path3" fill="#a8ceff" stroke="none" d="M 92.081245 50.676365 L 92.081245 19.085575 L 96.106247 19.085575 L 96.456245 22.438787 L 96.71875 22.438787 C 97.302032 21.350414 98.177032 20.438677 99.34375 19.703274 C 100.539528 18.938557 101.954224 18.556122 103.587494 18.556122 C 105.279221 18.556122 106.824997 18.997334 108.224998 19.879761 C 109.625008 20.732714 110.733284 22.01223 111.549995 23.718304 C 112.395775 25.394907 112.818756 27.498074 112.818756 30.027636 C 112.818756 32.527893 112.381256 34.630898 111.506248 36.336967 C 110.660469 38.043045 109.508278 39.337212 108.050003 40.219635 C 106.591713 41.072594 104.958282 41.499153 103.150002 41.499153 C 101.545784 41.499153 100.204216 41.175648 99.125 40.528484 C 98.045776 39.881321 97.243752 39.146072 96.71875 38.322426 L 96.71875 50.676365 L 92.081245 50.676365 Z M 102.362503 37.042908 C 103.995773 37.042908 105.352036 36.454681 106.431244 35.278061 C 107.539536 34.10144 108.09375 32.336594 108.09375 29.983515 C 108.09375 27.630438 107.539536 25.880241 106.431244 24.733089 C 105.352036 23.585939 103.995773 23.012363 102.362503 23.012363 C 100.699997 23.012363 99.314529 23.600592 98.206253 24.77721 C 97.127029 25.924362 96.587502 27.674559 96.587502 30.027636 C 96.587502 32.35141 97.127029 34.10144 98.206253 35.278061 C 99.314529 36.454681 100.699997 37.042908 102.362503 37.042908 Z M 128.682968 41.499153 C 126.58297 41.499153 124.730782 41.028473 123.126724 40.087273 C 121.522499 39.116604 120.268288 37.778316 119.364212 36.072243 C 118.459999 34.366169 118.007973 32.380714 118.007973 30.115877 C 118.007973 27.821575 118.445465 25.806656 119.320465 24.071274 C 120.224533 22.33589 121.478752 20.982788 123.08297 20.012123 C 124.716248 19.041454 126.597504 18.556122 128.726715 18.556122 C 130.826721 18.556122 132.634995 19.041454 134.151718 20.012123 C 135.668274 20.953321 136.835007 22.218182 137.651718 23.806545 C 138.497498 25.394907 138.920471 27.145103 138.920471 29.056971 C 138.920471 29.351162 138.920471 29.674667 138.920471 30.027636 C 138.920471 30.351137 138.905777 30.71892 138.876724 31.130667 L 122.557976 31.130667 C 122.703758 33.160244 123.360001 34.704483 124.526718 35.763393 C 125.693283 36.792839 127.064217 37.307636 128.639221 37.307636 C 130.009995 37.307636 131.089218 37.028252 131.876724 36.46933 C 132.693283 35.881104 133.291245 35.086922 133.670471 34.086788 L 138.351715 34.086788 C 137.826721 36.17514 136.732971 37.939987 135.070465 39.381332 C 133.407974 40.793213 131.278748 41.499153 128.682968 41.499153 Z M 128.682968 22.615274 C 127.253746 22.615274 125.985001 23.056484 124.876717 23.938911 C 123.76828 24.791866 123.053757 25.99795 122.732971 27.55685 L 134.282974 27.55685 C 134.16626 26.086195 133.597504 24.894922 132.576721 23.983032 C 131.555786 23.07114 130.257965 22.615274 128.682968 22.615274 Z M 144.897034 40.969696 L 144.897034 36.910545 L 150.190781 36.910545 L 150.190781 24.600727 C 150.190781 23.63006 149.724228 23.144728 148.790771 23.144728 L 145.334534 23.144728 L 145.334534 19.085575 L 150.540787 19.085575 C 151.736725 19.085575 152.713745 19.438545 153.472031 20.144485 C 154.230469 20.820955 154.609543 21.77697 154.609543 23.012363 L 154.609543 23.541817 L 154.828293 23.541817 C 155.149216 21.894678 155.834534 20.659283 156.884369 19.83564 C 157.964066 18.982677 159.523438 18.556122 161.565628 18.556122 L 164.934372 18.556122 L 164.934372 23.497696 L 160.209366 23.497696 C 158.489059 23.497696 157.160934 24.10074 156.228287 25.306665 C 155.294998 26.512594 154.828293 27.953939 154.828293 29.630547 L 154.828293 36.910545 L 161.565628 36.910545 L 161.565628 40.969696 L 144.897034 40.969696 Z M 170.779694 50.676365 L 170.779694 19.085575 L 174.804688 19.085575 L 175.154694 22.438787 L 175.417191 22.438787 C 176.001556 21.350414 176.876556 20.438677 178.042191 19.703274 C 179.239059 18.938557 180.653122 18.556122 182.285934 18.556122 C 183.978134 18.556122 185.523438 18.997334 186.923431 19.879761 C 188.323441 20.732714 189.432816 22.01223 190.248444 23.718304 C 191.095322 25.394907 191.517181 27.498074 191.517181 30.027636 C 191.517181 32.527893 191.079681 34.630898 190.204697 36.336967 C 189.359375 38.043045 188.207825 39.337212 186.748428 40.219635 C 185.290619 41.072594 183.657806 41.499153 181.84845 41.499153 C 180.245316 41.499153 178.903122 41.175648 177.823441 40.528484 C 176.7453 39.881321 175.942184 39.146072 175.417191 38.322426 L 175.417191 50.676365 L 170.779694 50.676365 Z M 181.060928 37.042908 C 182.695313 37.042908 184.051559 36.454681 185.129684 35.278061 C 186.239059 34.10144 186.792191 32.336594 186.792191 29.983515 C 186.792191 27.630438 186.239059 25.880241 185.129684 24.733089 C 184.051559 23.585939 182.695313 23.012363 181.060928 23.012363 C 179.398438 23.012363 178.014069 23.600592 176.904694 24.77721 C 175.826569 25.924362 175.285934 27.674559 175.285934 30.027636 C 175.285934 32.35141 175.826569 34.10144 176.904694 35.278061 C 178.014069 36.454681 179.398438 37.042908 181.060928 37.042908 Z M 197.012497 50.676365 L 197.012497 46.57309 L 200.556259 46.57309 C 201.57811 46.57309 202.306244 46.352486 202.743744 45.91127 C 203.210922 45.499527 203.443741 44.793587 203.443741 43.793453 L 203.443741 23.056484 L 197.931259 23.056484 L 197.931259 19.085575 L 203.443741 19.085575 L 203.443741 16.041214 C 203.443741 13.599842 204.042191 11.849697 205.237503 10.790787 C 206.434372 9.73188 208.14064 9.202423 210.356262 9.202423 L 215.650009 9.202423 L 215.650009 13.305698 L 210.925003 13.305698 C 209.904694 13.305698 209.174988 13.5116 208.737488 13.923393 C 208.299988 14.335186 208.081253 15.055843 208.081253 16.085335 L 208.081253 19.085575 L 215.650009 19.085575 L 215.650009 23.056484 L 208.081253 23.056484 L 208.081253 43.837574 C 208.081253 46.2789 207.48436 48.029091 206.287506 49.088001 C 205.092194 50.146908 203.371887 50.676365 201.125 50.676365 L 197.012497 50.676365 Z M 223.201569 40.969696 L 223.201569 36.910545 L 230.46405 36.910545 L 230.46405 14.717575 C 230.46405 13.746906 229.998444 13.261578 229.064056 13.261578 L 223.814056 13.261578 L 223.814056 9.202423 L 229.895309 9.202423 C 231.587509 9.202423 232.870316 9.658337 233.745316 10.570183 C 234.649994 11.452606 235.101563 12.746822 235.101563 14.45285 L 235.101563 36.910545 L 242.407822 36.910545 L 242.407822 40.969696 L 223.201569 40.969696 Z M 259.584381 41.499153 C 257.514069 41.499153 255.662491 41.028473 254.028137 40.087273 C 252.395325 39.146072 251.112503 37.822437 250.178116 36.116364 C 249.245316 34.380981 248.778122 32.35141 248.778122 30.027636 C 248.778122 27.703867 249.245316 25.689102 250.178116 23.983032 C 251.112503 22.247648 252.395325 20.909201 254.028137 19.968002 C 255.662491 19.026798 257.528107 18.556122 259.628143 18.556122 C 261.728119 18.556122 263.581238 19.026798 265.184387 19.968002 C 266.818756 20.909201 268.087494 22.247648 268.990631 23.983032 C 269.924988 25.689102 270.390625 27.703867 270.390625 30.027636 C 270.390625 32.35141 269.924988 34.380981 268.990631 36.116364 C 268.057831 37.822437 266.774994 39.146072 265.140625 40.087273 C 263.537506 41.028473 261.684357 41.499153 259.584381 41.499153 Z M 259.584381 37.042908 C 260.693756 37.042908 261.71405 36.792839 262.646881 36.292847 C 263.581238 35.792862 264.325012 35.027985 264.878143 33.998547 C 265.462494 32.939636 265.753113 31.615999 265.753113 30.027636 C 265.753113 28.409807 265.462494 27.08617 264.878143 26.056726 C 264.325012 25.027285 263.581238 24.262413 262.646881 23.762424 C 261.743774 23.262436 260.737488 23.012363 259.628143 23.012363 C 258.520325 23.012363 257.5 23.262436 256.565613 23.762424 C 255.632813 24.262413 254.875 25.027285 254.290634 26.056726 C 253.737503 27.08617 253.459381 28.409807 253.459381 30.027636 C 253.459381 32.439651 254.057816 34.219151 255.253128 35.366302 C 256.478119 36.483986 257.921875 37.042908 259.584381 37.042908 Z M 277.767181 40.969696 L 273.042175 19.085575 L 277.592194 19.085575 L 280.217194 34.439758 L 283.323425 19.085575 L 288.310944 19.085575 L 291.417206 34.439758 L 294.042175 19.085575 L 298.592194 19.085575 L 293.867188 40.969696 L 289.098419 40.969696 L 285.8172 25.174303 L 282.53595 40.969696 L 277.767181 40.969696 Z"/>
</svg>
