<?xml version="1.0" encoding="utf-8"?>
<!-- Generator: Adobe Illustrator 26.2.1, SVG Export Plug-In . SVG Version: 6.00 Build 0)  -->
<svg version="1.1" id="Capa_1" xmlns="http://www.w3.org/2000/svg" xmlns:xlink="http://www.w3.org/1999/xlink" x="0px" y="0px"
	 viewBox="0 0 60 75" style="enable-background:new 0 0 60 75;" xml:space="preserve">
<style type="text/css">
	.st0{clip-path:url(#SVGID_00000026163408337608262890000014962708715570476979_);}
	.st1{fill:#EAC9F8;}
	.st2{fill:#FFFFFF;}
	.st3{fill:#5E58A5;}
</style>
<g>
	<defs>
		<rect id="SVGID_1_" width="60" height="75"/>
	</defs>
	<clipPath id="SVGID_00000004507592085938726320000017524405466639549618_">
		<use xlink:href="#SVGID_1_"  style="overflow:visible;"/>
	</clipPath>
	<g style="clip-path:url(#SVGID_00000004507592085938726320000017524405466639549618_);">
		<path class="st1" d="M30,60.1l-5.1,14.1c-0.1,0.3-0.3,0.5-0.6,0.7c-0.6,0.3-1.3,0-1.5-0.6l-3.3-7.1c-0.3-0.6-1-0.8-1.5-0.6
			L10.7,70c-0.3,0.1-0.6,0.2-0.9,0c-0.6-0.2-0.9-0.9-0.7-1.5l4.8-13.2c0.4,0.3,0.7,0.6,1.1,0.8c0.2,0.1,0.3,0.2,0.5,0.3
			c1,0.5,2.2,0.8,3.3,0.8h2.2c1.1,0,2.2,0.3,3.2,0.9l1.9,1.1c0.6,0.4,1.2,0.6,1.9,0.8c0.2,0,0.4,0.1,0.6,0.1
			C29,60.1,29.5,60.1,30,60.1z"/>
		<path class="st1" d="M50.9,69.4c-0.3,0.6-1,0.8-1.5,0.6l-7.1-3.3c-0.6-0.3-1.3,0-1.5,0.6l-3.3,7.1c-0.1,0.3-0.4,0.5-0.7,0.6
			c-0.6,0.2-1.3-0.1-1.5-0.7l-5.1-14.1c0.5,0,0.9-0.1,1.4-0.1c0.2,0,0.4-0.1,0.6-0.1c0.6-0.2,1.3-0.4,1.8-0.8l1.9-1.1
			c1-0.6,2-0.9,3.2-0.9h2.2c1.2,0,2.3-0.3,3.4-0.8c0.2-0.1,0.3-0.2,0.5-0.3c0.4-0.2,0.8-0.5,1.1-0.8l4.8,13.2
			C51,68.8,51,69.1,50.9,69.4z"/>
		<path class="st2" d="M57.8,33.2c1.1-2,1.1-4.4,0-6.4L56.7,25c-0.7-1.2-1-2.5-1-3.9v-2.2c0-2.3-1.2-4.4-3.2-5.5l-1.9-1.1
			c-1.2-0.7-2.1-1.7-2.8-2.8l-1.1-1.9c-1.1-2-3.2-3.2-5.5-3.2h-2.2c-1.4,0-2.7-0.4-3.9-1l-1.9-1.1c-2-1.1-4.4-1.1-6.3,0l-1.9,1.1
			c-1.2,0.7-2.5,1-3.9,1h-2.2c-2.3,0-4.4,1.2-5.5,3.2l-1.1,1.9c-0.7,1.2-1.7,2.2-2.8,2.8l-1.9,1.1c-2,1.1-3.2,3.2-3.2,5.5v2.2
			c0,1.4-0.4,2.7-1,3.9l-1.1,1.9c-1.1,2-1.1,4.4,0,6.4l1.1,1.9c0.7,1.2,1,2.5,1,3.9v2.2c0,2.3,1.2,4.4,3.2,5.5l1.9,1.1
			c1.2,0.7,2.2,1.7,2.8,2.8l1.1,1.9c1.1,2,3.2,3.2,5.5,3.2h2.2c1.4,0,2.7,0.4,3.9,1l1.9,1.1c2,1.1,4.4,1.1,6.3,0l1.9-1.1
			c1.2-0.7,2.5-1,3.9-1h2.2c2.3,0,4.3-1.2,5.5-3.2l1.1-1.9c0.7-1.2,1.7-2.2,2.8-2.8l1.9-1.1c2-1.1,3.2-3.2,3.2-5.5V39
			c0-1.4,0.4-2.7,1-3.9L57.8,33.2L57.8,33.2z M31,36.3l3.4-11.1c0-0.1,0.1-0.2,0.1-0.3c0.1-0.1,0.2-0.1,0.3-0.1h0.9
			c0.1,0,0.2,0,0.3,0.1c0.1,0.1,0.1,0.2,0.1,0.3l3.4,11.1c0,0.1,0,0.1,0,0.2c0,0.1,0,0.2-0.1,0.3c0,0.1-0.1,0.1-0.2,0.1h-0.7
			c-0.1,0-0.2,0-0.2-0.1c0-0.1-0.1-0.1-0.1-0.2l-0.7-2.2c0-0.2-0.2-0.3-0.3-0.3h-3.9c-0.2,0-0.3,0.1-0.4,0.3l-0.7,2.2
			c0,0.1,0,0.1-0.1,0.2c-0.1,0.1-0.2,0.1-0.3,0.1h-0.7c-0.1,0-0.2,0-0.2-0.1C31,36.7,31,36.6,31,36.5C31,36.4,31,36.4,31,36.3
			L31,36.3z M21.4,29.7l2.9-4.8c0.2-0.4,0.7-0.5,1.1-0.3c0.1,0.1,0.2,0.2,0.3,0.3l2.9,4.8c0.3,0.5,0.3,1.1,0,1.6l-2.9,5.1
			c-0.1,0.3-0.4,0.4-0.7,0.4c-0.3,0-0.5-0.2-0.7-0.4l-3-5.1C21.1,30.8,21.1,30.2,21.4,29.7z M13.2,32.2c-0.2,0-0.3,0.1-0.3,0.3v4
			c0,0.1,0,0.2-0.1,0.3c-0.1,0.1-0.2,0.1-0.2,0.1h-0.7c-0.1,0-0.2,0-0.2-0.1s-0.1-0.2-0.1-0.3V25.9c0-0.6,0.5-1.1,1.1-1.1h2.7
			c0.7,0,1.3,0.1,1.8,0.4c0.5,0.3,0.9,0.7,1.2,1.2c0.3,0.5,0.4,1.2,0.4,2.1s-0.1,1.5-0.4,2c-0.2,0.5-0.7,1-1.2,1.2
			c-0.5,0.3-1.1,0.4-1.8,0.4L13.2,32.2L13.2,32.2z M49.3,30.5c-0.2,0.5-0.7,1-1.2,1.2c-0.5,0.3-1.1,0.4-1.8,0.4h-2.1
			c-0.2,0-0.3,0.1-0.3,0.3v4c0,0.1,0,0.2-0.1,0.3c-0.1,0.1-0.2,0.1-0.2,0.1h-0.7c-0.1,0-0.2,0-0.2-0.1s-0.1-0.2-0.1-0.3V25.9
			c0-0.6,0.5-1.1,1.1-1.1h2.7c0.7,0,1.3,0.1,1.8,0.4c0.5,0.3,0.9,0.7,1.2,1.2c0.3,0.5,0.4,1.2,0.4,2.1S49.6,30,49.3,30.5L49.3,30.5z
			"/>
		<path class="st2" d="M44.2,30.7h2c0.7,0,1.2-0.2,1.5-0.6c0.3-0.4,0.5-0.9,0.5-1.6c0-0.7-0.2-1.3-0.5-1.6c-0.3-0.4-0.8-0.6-1.5-0.6
			h-2c-0.2,0-0.3,0.2-0.3,0.3v3.7C43.9,30.5,44,30.7,44.2,30.7L44.2,30.7z"/>
		<path class="st2" d="M15.3,26.3h-2c-0.2,0-0.3,0.2-0.3,0.3v3.7c0,0.2,0.1,0.3,0.3,0.3h2c0.7,0,1.2-0.2,1.5-0.6
			c0.3-0.4,0.5-0.9,0.5-1.6s-0.2-1.3-0.5-1.6C16.5,26.5,15.9,26.3,15.3,26.3L15.3,26.3z"/>
		<path class="st2" d="M33.7,32.6H37c0,0,0.1,0,0.1-0.1c0,0,0-0.1,0-0.1L35.5,27c0-0.1-0.1-0.1-0.2-0.1c0,0-0.1,0.1-0.1,0.1
			l-1.6,5.4C33.6,32.5,33.6,32.6,33.7,32.6C33.7,32.6,33.7,32.6,33.7,32.6L33.7,32.6z"/>
		<path class="st3" d="M59,26.2l-1.1-1.9c-0.6-1-0.8-2.1-0.8-3.2v-2.2c0-2.8-1.5-5.3-3.9-6.7l-1.9-1.1c-1-0.6-1.8-1.4-2.3-2.3
			l-1.1-1.9C46.5,4.5,43.9,3,41.1,3h-2.2c-1.1,0-2.2-0.3-3.2-0.9l-1.9-1.1c-2.4-1.4-5.3-1.4-7.7,0l-1.9,1.1c-1,0.6-2,0.9-3.2,0.9
			h-2.2c-2.8,0-5.3,1.5-6.7,3.9l-1.1,1.9c-0.5,1-1.3,1.8-2.3,2.3l-1.9,1.1C4.5,13.6,3,16.1,3,18.9v2.2c0,1.1-0.3,2.2-0.9,3.2
			l-1.1,1.9c-1.4,2.4-1.4,5.3,0,7.7l1.1,1.9C2.7,36.8,3,37.9,3,39v2.2c0,2.8,1.5,5.3,3.9,6.7L8.8,49c1,0.6,1.8,1.4,2.3,2.3l1.1,1.9
			c0.7,1.2,1.7,2.2,2.9,2.9c0.2,0.1,0.3,0.2,0.5,0.3c1,0.5,2.2,0.8,3.3,0.8h2.2c1.1,0,2.2,0.3,3.2,0.9l1.9,1.1
			c0.6,0.4,1.2,0.6,1.9,0.8c0.2,0.1,0.4,0.1,0.5,0.1c0.5,0.1,0.9,0.1,1.4,0.1h0.1c0.5,0,0.9-0.1,1.4-0.1c0.2,0,0.4-0.1,0.5-0.1
			c0.7-0.2,1.3-0.4,1.9-0.8l1.9-1.1c1-0.6,2.1-0.9,3.2-0.9h2.2c1.2,0,2.3-0.3,3.4-0.8c0.2-0.1,0.3-0.2,0.5-0.3
			c1.2-0.7,2.1-1.7,2.8-2.8l1.1-1.9c0.6-1,1.4-1.8,2.3-2.3l1.9-1.1c2.4-1.4,3.9-3.9,3.9-6.7V39c0-1.1,0.3-2.2,0.9-3.2l1.1-1.9
			C60.4,31.6,60.4,28.6,59,26.2L59,26.2z M55.6,41.2c0,2.3-1.2,4.4-3.2,5.5l-1.9,1.1c-1.2,0.7-2.1,1.7-2.8,2.8l-1.1,1.9
			c-1.1,2-3.2,3.2-5.5,3.2h-2.2c-1.4,0-2.7,0.4-3.9,1l-1.9,1.1c-2,1.1-4.4,1.1-6.3,0l-1.9-1.1c-1.2-0.7-2.5-1-3.9-1h-2.2
			c-2.3,0-4.4-1.2-5.5-3.2l-1.1-1.9c-0.7-1.2-1.7-2.2-2.8-2.8l-1.9-1.1c-2-1.1-3.2-3.2-3.2-5.5V39c0-1.4-0.4-2.7-1-3.9l-1.1-1.9
			c-1.1-2-1.1-4.4,0-6.4L3.4,25c0.7-1.2,1-2.5,1-3.9v-2.2c0-2.3,1.2-4.4,3.2-5.5l1.9-1.1c1.2-0.7,2.2-1.7,2.8-2.8l1.1-1.9
			c1.1-2,3.2-3.2,5.5-3.2h2.2c1.4,0,2.7-0.4,3.9-1l1.9-1.1c2-1.1,4.4-1.1,6.3,0l1.9,1.1c1.2,0.7,2.5,1,3.9,1h2.2
			c2.3,0,4.3,1.2,5.5,3.2l1.1,1.9c0.7,1.2,1.7,2.2,2.8,2.8l1.9,1.1c2,1.1,3.2,3.2,3.2,5.5v2.2c0,1.4,0.4,2.7,1,3.9l1.1,1.9
			c1.1,2,1.1,4.4,0,6.4l-1.1,1.9c-0.7,1.2-1,2.5-1,3.9V41.2z"/>
		<path class="st3" d="M17.1,31.7c0.5-0.3,0.9-0.7,1.2-1.2c0.3-0.5,0.4-1.2,0.4-2c0-0.8-0.1-1.5-0.4-2.1c-0.2-0.5-0.7-1-1.2-1.2
			c-0.5-0.3-1.1-0.4-1.8-0.4h-2.7c-0.6,0-1.1,0.5-1.1,1.1v10.5c0,0.1,0,0.2,0.1,0.3c0.1,0.1,0.1,0.1,0.2,0.1h0.7
			c0.1,0,0.2,0,0.2-0.1c0.1-0.1,0.1-0.2,0.1-0.3v-4c0-0.2,0.1-0.3,0.3-0.3h2.1C16,32.2,16.6,32,17.1,31.7L17.1,31.7z M17.3,28.5
			c0,0.7-0.2,1.3-0.5,1.6c-0.3,0.4-0.8,0.6-1.5,0.6h-2c-0.2,0-0.3-0.2-0.3-0.3v-3.7c0-0.2,0.2-0.3,0.3-0.3h2c0.7,0,1.2,0.2,1.5,0.6
			C17.1,27.2,17.3,27.8,17.3,28.5L17.3,28.5z"/>
		<path class="st3" d="M31.3,36.8H32c0.1,0,0.2,0,0.3-0.1c0-0.1,0.1-0.1,0.1-0.2l0.7-2.2c0-0.2,0.2-0.3,0.3-0.3h3.9
			c0.2,0,0.3,0.1,0.4,0.3l0.7,2.2c0,0.1,0.1,0.1,0.1,0.2c0.1,0.1,0.2,0.1,0.2,0.1h0.7c0.1,0,0.2,0,0.2-0.1c0.1-0.1,0.1-0.2,0.1-0.3
			c0-0.1,0-0.1,0-0.2l-3.4-11.1c0-0.1-0.1-0.2-0.2-0.3c-0.1-0.1-0.2-0.1-0.3-0.1h-0.9c-0.1,0-0.2,0-0.3,0.1
			c-0.1,0.1-0.1,0.2-0.2,0.3l-3.4,11.1c0,0.1,0,0.1,0,0.2c0,0.1,0,0.2,0.1,0.3C31.2,36.8,31.3,36.8,31.3,36.8L31.3,36.8z M33.6,32.4
			l1.6-5.4c0-0.1,0.1-0.1,0.2-0.1c0,0,0.1,0.1,0.1,0.1l1.6,5.4c0,0,0,0.1,0,0.1c0,0-0.1,0.1-0.1,0.1h-3.3
			C33.7,32.6,33.6,32.5,33.6,32.4C33.6,32.5,33.6,32.4,33.6,32.4L33.6,32.4z"/>
		<path class="st3" d="M24.4,36.4c0.1,0.2,0.4,0.4,0.7,0.4s0.5-0.2,0.7-0.4l2.9-5.1c0.3-0.5,0.3-1.1,0-1.6l-2.9-4.8
			c-0.2-0.4-0.7-0.5-1.1-0.3c-0.1,0.1-0.2,0.2-0.3,0.3l-2.9,4.8c-0.3,0.5-0.3,1.1,0,1.6L24.4,36.4L24.4,36.4z M25.2,27l2.1,3.5
			c0,0.1,0,0.2,0,0.3l-2.1,3.7c-0.1,0.1-0.2,0.2-0.3,0.1c0,0-0.1-0.1-0.1-0.1l-2.1-3.7c-0.1-0.1-0.1-0.2,0-0.3l2.1-3.5
			C24.9,26.9,25,26.9,25.2,27C25.1,27,25.2,27,25.2,27z"/>
		<path class="st2" d="M24.8,27l-2.1,3.5c-0.1,0.1-0.1,0.2,0,0.3l2.1,3.7c0.1,0.1,0.2,0.2,0.3,0.1c0,0,0.1-0.1,0.1-0.1l2.1-3.7
			c0-0.1,0-0.2,0-0.3L25.2,27C25.1,26.9,25,26.8,24.8,27C24.8,26.9,24.8,27,24.8,27z"/>
		<path class="st3" d="M48.1,25.2c-0.5-0.3-1.1-0.4-1.8-0.4h-2.7c-0.6,0-1.1,0.5-1.1,1.1v10.5c0,0.1,0,0.2,0.1,0.3
			c0.1,0.1,0.2,0.1,0.2,0.1h0.7c0.1,0,0.2,0,0.2-0.1c0.1-0.1,0.1-0.2,0.1-0.3v-4c0-0.2,0.1-0.3,0.3-0.3h2.1c0.7,0,1.3-0.1,1.8-0.4
			c0.5-0.3,0.9-0.7,1.2-1.2c0.3-0.5,0.4-1.2,0.4-2c0-0.8-0.1-1.5-0.4-2.1C49,25.9,48.6,25.5,48.1,25.2L48.1,25.2z M43.9,26.6
			c0-0.2,0.2-0.3,0.3-0.3h2c0.7,0,1.2,0.2,1.5,0.6c0.3,0.4,0.5,0.9,0.5,1.6s-0.2,1.3-0.5,1.6c-0.3,0.4-0.8,0.6-1.5,0.6h-2
			c-0.2,0-0.3-0.2-0.3-0.3L43.9,26.6L43.9,26.6z"/>
	</g>
</g>
</svg>
