<?xml version="1.0" encoding="UTF-8"?>
<!-- Generated by Pixelmator Pro 3.3.2 -->
<svg width="1000" height="156" viewBox="0 0 1000 156" xmlns="http://www.w3.org/2000/svg" xmlns:xlink="http://www.w3.org/1999/xlink">
    <g id="Group">
        <linearGradient id="linearGradient1" x1="-12.418478" y1="101.02106" x2="34.249452" y2="147.68899" gradientUnits="userSpaceOnUse">
            <stop offset="1e-05" stop-color="#853c92" stop-opacity="1"/>
            <stop offset="1" stop-color="#943e9d" stop-opacity="1"/>
        </linearGradient>
        <path id="Path" fill="url(#linearGradient1)" stroke="none" d="M 0.027764 88.583069 L 0.027764 155.637451 L 26.361126 155.637451 L 26.361126 97.624847 L 0.027764 88.583069 Z"/>
    </g>
    <g id="g1">
        <linearGradient id="linearGradient2" x1="-4.83821" y1="129.398576" x2="103.69379" y2="35.053476" gradientUnits="userSpaceOnUse">
            <stop offset="1e-05" stop-color="#8a3392" stop-opacity="1"/>
            <stop offset="1" stop-color="#937ab7" stop-opacity="1"/>
        </linearGradient>
        <path id="path1" fill="url(#linearGradient2)" stroke="none" d="M 0.003033 0.380676 L 0.064168 89.883484 C -0.030177 89.774963 0.048577 98.852631 0.048577 98.852631 L 26.347404 98.856873 L 45.002872 98.836273 C 65.592766 98.848999 82.21666 116.219086 82.255699 137.526154 L 82.210335 155.667328 L 108.509155 155.671539 L 108.554535 137.530365 C 108.508369 101.748077 80.072189 72.54306 45.007092 72.537415 L 26.351622 72.558044 L 26.297642 26.683716 L 44.95311 26.663086 C 65.543007 26.675842 82.275421 43.951538 82.20594 65.352966 L 82.195305 72.793457 C 82.195305 72.793457 82.28965 72.901978 82.28965 72.901978 L 82.250656 80.74823 L 90.096893 80.787231 C 90.096893 80.787231 90.191238 80.895752 90.299767 80.801422 L 108.549477 80.752441 L 108.504768 65.357178 C 108.567139 29.480591 80.02243 0.369873 44.957329 0.364258 L 0.003033 0.380676 Z"/>
    </g>
    <g id="g2">
        <linearGradient id="linearGradient3" x1="770.964405" y1="25.456595" x2="804.002305" y2="25.456595" gradientUnits="userSpaceOnUse">
            <stop offset="1e-05" stop-color="#8a3392" stop-opacity="1"/>
            <stop offset="1" stop-color="#937ab7" stop-opacity="1"/>
        </linearGradient>
        <path id="path2" fill="url(#linearGradient3)" fill-rule="evenodd" stroke="none" d="M 787.481995 41.976929 C 796.605164 41.976929 804.000977 34.581116 804.000977 25.457947 C 804.000977 16.334778 796.605164 8.939026 787.481995 8.939026 C 778.358826 8.939026 770.963074 16.334778 770.963074 25.457947 C 770.963074 34.581116 778.358826 41.976929 787.481995 41.976929 Z"/>
    </g>
    <g id="g3">
        <path id="path3" fill="#ffffff" stroke="none" d="M 251.867004 61.447021 C 251.867004 63.523132 251.551208 65.760498 250.939804 68.085175 C 250.341827 70.335999 249.253387 72.412109 247.70134 74.246338 C 246.19632 76.026825 244.005997 77.316833 241.177368 78.096222 C 240.075485 78.39856 238.852661 78.613556 237.542496 78.714355 C 236.17186 78.828552 234.915436 78.889038 233.759811 78.889038 L 207.684097 78.889038 L 207.684097 44.018433 L 233.759811 44.018433 C 234.915436 44.018433 236.17186 44.078857 237.542496 44.186401 C 238.879547 44.293884 240.109085 44.508911 241.190811 44.817932 C 244.005997 45.590637 246.19632 46.880615 247.70134 48.661133 C 249.253387 50.495361 250.341827 52.571472 250.939804 54.815552 C 251.551208 57.146973 251.867004 59.377625 251.867004 61.447021 M 269.967468 88.470062 C 275.201416 81.01889 277.848633 71.928345 277.848633 61.447021 C 277.848633 54.4729 276.706451 48.049683 274.4422 42.338684 C 272.16452 36.567261 268.549805 31.716248 263.718994 27.913452 C 258.888153 24.103882 252.646378 21.58429 245.181778 20.435364 C 243.549118 20.146484 241.68129 19.95166 239.62532 19.864319 C 237.589523 19.776978 235.97702 19.729919 234.774353 19.729919 L 181.870438 19.729919 L 181.870438 144.525085 L 207.684097 144.525085 L 207.684097 103.170807 L 231.152908 103.170807 L 251.195114 144.525085 L 280.368195 144.525085 L 257.91394 98.447479 C 263.033661 95.954803 267.085114 92.602142 269.967468 88.470062"/>
    </g>
    <g id="g4">
        <path id="path4" fill="#ffffff" stroke="none" d="M 349.207001 102.888123 C 349.166687 104.016876 349.099487 105.239716 349.025604 106.576752 C 348.837463 109.700989 348.18573 112.442291 347.083862 114.75354 C 346.51947 115.915894 345.410858 117.434357 343.784912 119.255157 C 342.179138 121.035645 339.968628 122.661591 337.227356 124.07254 C 334.533112 125.463318 331.146851 126.168793 327.142426 126.168793 C 324.68335 126.168793 322.546753 125.806 320.799866 125.087067 C 319.14032 124.401764 317.850311 123.407379 316.96344 122.144226 C 316.069824 120.867676 315.639832 119.36264 315.639832 117.548584 C 315.639832 116.251831 315.915283 115.069336 316.459534 114.041351 C 317.010468 112.986511 317.904053 111.985413 319.120178 111.071655 C 320.390015 110.104126 322.123474 109.183655 324.233185 108.337097 C 326.121155 107.631622 328.378693 106.966461 330.938568 106.355042 C 333.464844 105.750336 336.891418 105.051575 341.11084 104.292358 C 343.408661 103.875793 346.129791 103.412201 349.207001 102.888123 M 371.070007 65.041077 C 367.703888 58.664917 362.671509 54.122986 356.120667 51.522827 C 349.724335 48.989807 342.313507 47.699829 334.089691 47.699829 C 322.815521 47.699829 313.758545 50.185791 307.167419 55.097229 C 300.56955 59.988525 296.014191 66.445313 293.622284 74.265991 L 293.219147 75.576172 L 316.647644 83.000458 L 317.091095 81.744049 C 318.441559 77.887451 320.719238 75.307404 324.065216 73.815826 C 327.532104 72.263794 330.911682 71.470978 334.089691 71.470978 C 339.787231 71.470978 343.852112 72.626617 346.170105 74.897552 C 347.70871 76.402588 348.750122 78.586182 349.254028 81.401367 C 345.881195 81.905273 342.622559 82.389038 339.565521 82.845917 C 333.639526 83.712646 328.251038 84.639832 323.56131 85.607361 C 318.844696 86.568146 314.705902 87.696899 311.245728 88.97348 C 306.179749 90.827881 302.074554 93.192902 299.044373 95.987915 C 295.987305 98.809814 293.743225 102.108734 292.372589 105.804108 C 291.022095 109.438965 290.336792 113.497131 290.336792 117.884521 C 290.336792 123.192383 291.579773 128.110535 294.032135 132.504639 C 296.491211 136.925629 300.152954 140.500031 304.903168 143.120361 C 309.639923 145.740692 315.465149 147.064301 322.224274 147.064301 C 330.327148 147.064301 337.146729 145.626465 342.48819 142.791138 C 345.766968 141.064423 348.965118 138.585175 352.0289 135.434052 L 352.0289 144.524597 L 374.960205 144.524597 L 374.960205 87.213135 C 374.960205 83.000458 374.792236 79.137146 374.442841 75.723969 C 374.093475 72.176453 372.958008 68.581879 371.070007 65.041077"/>
    </g>
    <g id="g5">
        <path id="path5" fill="#ffffff" stroke="none" d="M 440.934998 50.030212 C 438.079498 50.231812 435.271057 50.735718 432.59024 51.52179 C 429.882568 52.32135 427.349579 53.443359 425.078613 54.834167 C 422.055145 56.614685 419.468414 58.892334 417.392303 61.633606 C 417.372131 61.660461 417.35199 61.687378 417.331818 61.714233 L 417.331818 50.238525 L 394.22583 50.238525 L 394.22583 144.52356 L 420.214203 144.52356 L 420.214203 96.363129 C 420.214203 93.030609 420.671082 90.007141 421.578094 87.366638 C 422.47171 84.753021 423.802032 82.468628 425.535492 80.560486 C 427.255493 78.64563 429.418945 77.086884 431.965393 75.917786 C 434.51181 74.694977 437.414337 73.962616 440.585632 73.71402 C 443.756897 73.472137 446.565369 73.727478 448.923676 74.466522 L 450.71759 75.030914 L 450.71759 50.406494 L 449.501495 50.251953 C 446.672852 49.895874 443.783783 49.828674 440.934998 50.030212"/>
    </g>
    <g id="g6">
        <path id="path6" fill="#ffffff" stroke="none" d="M 522.708984 85.323181 L 485.903351 85.323181 C 486.796967 81.957062 488.073547 79.195648 489.699493 77.085938 C 493.159668 72.624634 498.467529 70.461182 505.938843 70.461182 C 512.247803 70.461182 516.641907 72.288696 519.356323 76.031067 C 520.888184 78.154205 522.010254 81.265045 522.708984 85.323181 M 530.187012 54.71228 C 523.266663 50.056152 514.767395 47.697876 504.924316 47.697876 C 495.672516 47.697876 487.368073 49.834412 480.23941 54.033691 C 473.104034 58.239685 467.426636 64.219421 463.368469 71.811676 C 459.323761 79.383759 457.274506 88.386963 457.274506 98.572693 C 457.274506 107.918549 459.377502 116.350647 463.509552 123.613678 C 467.661804 130.890167 473.480286 136.688507 480.810486 140.827271 C 488.134003 144.966064 496.7005 147.062347 506.281525 147.062347 C 515.311584 147.062347 523.757141 144.657013 531.376282 139.906799 C 539.015564 135.136444 544.686218 128.363892 548.233765 119.770538 L 548.825012 118.339417 L 523.138977 110.975616 L 522.64856 112.064056 C 521.083069 115.517517 518.778503 118.198334 515.808777 120.019135 C 512.825623 121.853363 509.163879 122.773834 504.924316 122.773834 C 498.131592 122.773834 493.152954 120.664124 489.69278 116.310333 C 487.435242 113.468292 485.889923 109.732635 485.097107 105.204163 L 548.986267 105.204163 L 549.09375 103.94101 C 550.067993 92.700439 548.898926 82.77005 545.613403 74.418549 C 542.307739 66.006622 537.12085 59.381897 530.187012 54.71228"/>
    </g>
    <g id="g7">
        <path id="path7" fill="#ffffff" stroke="none" d="M 650.494019 80.783264 C 646.8927 78.27713 643.069702 76.281647 639.112366 74.850555 C 635.228882 73.453033 631.65448 72.32428 628.496643 71.470978 L 607.298767 65.706238 C 604.772522 65.047791 602.266357 64.214661 599.847595 63.22699 C 597.54303 62.279663 595.62146 61.029968 594.123169 59.504761 C 592.739136 58.100525 592.060486 56.293213 592.060486 53.995361 C 592.060486 51.462341 592.920532 49.33252 594.680847 47.491577 C 596.528503 45.569946 598.967468 44.071655 601.937134 43.057129 C 604.940491 42.015747 608.232666 41.538696 611.652588 41.646179 C 615.132874 41.753662 618.519165 42.486023 621.710632 43.823059 C 624.868469 45.153381 627.623169 47.115295 629.907593 49.661743 C 632.1651 52.181274 633.737305 55.339111 634.583862 59.047913 L 634.879517 60.324463 L 662.560974 55.614563 L 662.184753 54.156616 C 660.162354 46.369507 656.816406 39.664124 652.240906 34.248779 C 647.665405 28.833435 641.900635 24.640869 635.10791 21.792114 C 628.368958 18.970215 620.608704 17.478638 612.04895 17.36438 C 603.482483 17.303955 595.68866 18.647705 588.660767 21.348694 C 581.559021 24.089966 575.79425 28.31604 571.527832 33.919556 C 567.241211 39.570068 565.064331 46.725586 565.064331 55.177856 C 565.064331 61.191223 566.098999 66.263916 568.141541 70.261597 C 570.170654 74.239136 572.764099 77.491028 575.848022 79.909821 C 578.87146 82.301697 582.056213 84.162811 585.301392 85.446106 C 588.459229 86.702515 591.281128 87.676758 593.679749 88.368805 L 625.352234 97.681061 C 627.636597 98.39325 629.517883 99.179352 630.962402 100.012482 C 632.366638 100.832184 633.455078 101.698914 634.194153 102.592499 C 634.9198 103.459229 635.443848 104.399872 635.759644 105.380829 C 636.082153 106.402069 636.243408 107.477081 636.243408 108.572266 C 636.243408 111.609161 635.249023 114.088409 633.213196 116.157806 C 631.083374 118.3078 628.321899 119.960632 624.98938 121.069244 C 621.582947 122.204712 618.021973 122.775818 614.407288 122.775818 C 607.943787 122.775818 602.118591 120.955017 597.072754 117.353729 C 592.073975 113.792755 588.714539 108.619293 587.108765 101.974396 L 586.81311 100.751556 L 560.125977 104.688782 L 560.33429 106.059418 C 561.61084 114.504974 564.681335 121.888947 569.465149 128.023193 C 574.248962 134.130615 580.443665 138.887512 587.881409 142.159576 C 595.285522 145.411499 603.69751 147.064331 612.88208 147.064331 C 619.184326 147.064331 625.392517 146.251343 631.338684 144.645538 C 637.311707 143.03302 642.740479 140.553802 647.477234 137.288452 C 652.261047 133.989502 656.12439 129.756653 658.959717 124.710846 C 661.808472 119.631409 663.246277 113.631531 663.246277 106.87912 C 663.246277 100.50296 662.030212 95.141357 659.631592 90.935364 C 657.246399 86.763 654.175903 83.349854 650.494019 80.783264"/>
    </g>
    <g id="g8">
        <path id="path8" fill="#ffffff" stroke="none" d="M 766.078979 50.240051 L 734.184814 50.240051 L 705.273743 91.325592 L 705.273743 19.729919 L 679.124146 19.729919 L 678.949463 144.525116 L 705.273743 144.525116 L 705.273743 103.358978 L 734.876831 144.525116 L 768.390259 144.525116 L 732.054932 97.35907 L 766.078979 50.240051 Z"/>
    </g>
    <g id="g9">
        <path id="path9" fill="#ffffff" fill-rule="evenodd" stroke="none" d="M 774.36969 50.241638 L 800.183411 50.241638 L 800.183411 144.526733 L 774.36969 144.526733 Z"/>
    </g>
    <g id="g10">
        <path id="path10" fill="#ffffff" fill-rule="evenodd" stroke="none" d="M 824.532349 17.19165 L 850.346069 17.19165 L 850.346069 144.52655 L 824.532349 144.52655 Z"/>
    </g>
    <g id="g11">
        <path id="path11" fill="#ffffff" fill-rule="evenodd" stroke="none" d="M 874.701721 17.19165 L 900.515381 17.19165 L 900.515381 144.52655 L 874.701721 144.52655 Z"/>
    </g>
    <g id="g12">
        <path id="path12" fill="#ffffff" stroke="none" d="M 996.935974 102.671112 C 994.900208 99.110168 991.628113 96.026215 987.227295 93.513397 C 982.927307 91.061035 977.182678 88.884125 970.141357 87.063324 C 963.086609 85.269409 957.772034 83.79126 954.345459 82.682678 C 950.280579 81.352356 948.661377 80.331085 948.016357 79.699524 C 947.183228 78.886536 946.78009 77.905579 946.78009 76.702911 C 946.78009 74.539459 947.774475 72.994141 949.917786 71.804901 C 952.242493 70.535065 955.427185 70.031158 959.357666 70.286469 C 963.409119 70.602234 966.640869 71.677246 968.952148 73.471191 C 971.209656 75.231506 972.479553 77.562927 972.835632 80.593109 L 973.003601 82.051086 L 999.321167 77.321045 L 999.139771 76.004181 C 998.306641 70.232697 996.082703 65.15332 992.515015 60.900269 C 988.960754 56.674133 984.257629 53.375244 978.533203 51.097534 C 972.855774 48.840027 966.271362 47.697815 958.95459 47.697815 C 951.402649 47.697815 944.730835 48.920654 939.12738 51.325989 C 933.456665 53.764893 929.002136 57.292297 925.871155 61.807312 C 922.733459 66.342529 921.134399 71.75116 921.134399 77.892151 C 921.134399 82.817047 922.202698 87.096924 924.29895 90.583984 C 926.395203 94.104645 929.828552 97.141541 934.498108 99.614075 C 939.033325 102.026123 945.1474 104.236603 952.672485 106.171631 C 959.196472 107.898346 964.080994 109.31604 967.191833 110.377594 C 970.779663 111.613861 972.130127 112.601532 972.634033 113.212952 C 973.332825 114.072937 973.675476 115.208435 973.675476 116.700012 C 973.675476 119.125488 972.755005 120.966431 970.867004 122.310211 C 968.858093 123.748047 965.874939 124.466949 962.004883 124.466949 C 957.247986 124.466949 953.283875 123.338196 950.240295 121.094116 C 947.183228 118.850006 945.268372 115.819824 944.374756 111.822144 L 944.09259 110.565735 L 917.882507 114.529816 L 918.104187 115.900452 C 919.676392 125.770386 924.211609 133.530609 931.568726 138.959412 C 938.865356 144.341187 948.540405 147.062317 960.311768 147.062317 C 972.553467 147.062317 982.309143 144.247131 989.303406 138.717529 C 996.398499 133.093903 999.999756 125.293365 999.999756 115.517487 C 999.999756 110.552277 998.965088 106.232086 996.935974 102.671112"/>
    </g>
</svg>
