<?xml version="1.0" encoding="UTF-8"?>
<!-- Generated by Pixelmator Pro 3.2.3 -->
<svg width="489" height="136" viewBox="0 0 489 136" xmlns="http://www.w3.org/2000/svg" xmlns:xlink="http://www.w3.org/1999/xlink">
    <path id="Path" fill="#e5e5e5" stroke="none" d="M 54.499599 1.732071 C 56.355999 0.660278 58.6432 0.660278 60.499599 1.732071 L 104.295998 27.017998 C 106.152 28.089798 107.295998 30.070496 107.295998 32.214096 L 107.295998 82.785896 C 107.295998 84.929497 106.152 86.910301 104.295998 87.982101 L 60.499599 113.267998 C 58.6432 114.339996 56.355999 114.339996 54.499599 113.267998 L 10.7031 87.982101 C 8.84672 86.910301 7.70312 84.929497 7.70312 82.785896 L 7.70312 32.214096 C 7.70312 30.070496 8.84672 28.089798 10.7031 27.017998 L 54.499599 1.732071 Z"/>
    <path id="path1" fill="#e5e5e5" stroke="none" d="M 53.999599 37.732101 C 55.855999 36.660301 58.1432 36.660301 59.999599 37.732101 L 97.300903 59.268005 C 99.157303 60.339798 100.301003 62.320496 100.301003 64.464104 L 100.301003 107.536003 C 100.301003 109.68 99.157303 111.660004 97.300903 112.732002 L 59.999599 134.268005 C 58.1432 135.339996 55.855999 135.339996 53.999599 134.268005 L 16.698299 112.732002 C 14.8419 111.660004 13.6983 109.68 13.6983 107.536003 L 13.6983 64.464104 C 13.6983 62.320496 14.8419 60.339798 16.698299 59.268005 L 53.999599 37.732101 Z"/>
    <linearGradient id="linearGradient1" x1="0.000105" y1="115" x2="114.845" y2="115" gradientUnits="userSpaceOnUse">
        <stop offset="1e-05" stop-color="#bb0000" stop-opacity="1"/>
        <stop offset="1" stop-color="#0a617c" stop-opacity="1"/>
    </linearGradient>
    <path id="path2" fill="url(#linearGradient1)" stroke="none" d="M 54.5 1.732056 C 56.3564 0.660248 58.6436 0.660248 60.5 1.732056 L 104.295998 27.017998 C 106.153 28.089699 107.295998 30.070496 107.295998 32.214096 L 107.295998 82.785896 C 107.295998 84.929497 106.153 86.910301 104.295998 87.982101 L 60.5 113.267998 C 58.6436 114.339996 56.3564 114.339996 54.5 113.267998 L 10.7035 87.982002 C 8.84713 86.910301 7.70354 84.929497 7.70354 82.785896 L 7.70354 32.214096 C 7.70354 30.070496 8.84713 28.089699 10.7035 27.017899 L 54.5 1.732056 Z"/>
    <linearGradient id="linearGradient2" x1="13.8161" y1="115" x2="114.845" y2="115" gradientUnits="userSpaceOnUse">
        <stop offset="1e-05" stop-color="#0e6a7e" stop-opacity="1"/>
        <stop offset="0.5" stop-color="#08c8f2" stop-opacity="1"/>
        <stop offset="1" stop-color="#08c8f2" stop-opacity="1"/>
    </linearGradient>
    <path id="path3" fill="url(#linearGradient2)" stroke="none" d="M 54.5 1.732056 C 56.3564 0.660248 58.6436 0.660248 60.5 1.732056 L 104.295998 27.017998 C 106.153 28.089699 107.295998 30.070496 107.295998 32.214096 L 107.295998 82.785896 C 107.295998 84.929497 106.153 86.910301 104.295998 87.982101 L 60.5 113.267998 C 58.6436 114.339996 56.3564 114.339996 54.5 113.267998 L 10.7035 87.982002 C 8.84713 86.910301 7.70354 84.929497 7.70354 82.785896 L 7.70354 32.214096 C 7.70354 30.070496 8.84713 28.089699 10.7035 27.017899 L 54.5 1.732056 Z"/>
    <g id="Group" style="mix-blend-mode:hard-light">
        <linearGradient id="linearGradient3" x1="7.00009" y1="136" x2="106.865" y2="136" gradientUnits="userSpaceOnUse">
            <stop offset="1e-05" stop-color="#bb0000" stop-opacity="1"/>
            <stop offset="1" stop-color="#0a617c" stop-opacity="1"/>
        </linearGradient>
        <path id="path4" fill="url(#linearGradient3)" stroke="none" d="M 54 37.731995 C 55.8564 36.660301 58.1436 36.660301 60 37.732101 L 97.3013 59.268005 C 99.1577 60.339699 100.301003 62.320496 100.301003 64.464104 L 100.301003 107.536003 C 100.301003 109.679001 99.1577 111.660004 97.3013 112.732002 L 60 134.268005 C 58.1436 135.339996 55.8564 135.339996 54 134.268005 L 16.6987 112.732002 C 14.8423 111.660004 13.6987 109.679001 13.6987 107.536003 L 13.6987 64.464104 C 13.6987 62.320496 14.8423 60.339699 16.6987 59.267899 L 54 37.731995 Z"/>
    </g>
    <path id="path5" fill="#ffffff" stroke="none" d="M 145.434006 103 L 145.434006 34.839996 L 172.313995 34.839996 C 178.585999 34.839996 183.673996 36.824005 187.578003 40.792 C 191.481995 44.759995 193.434006 49.624001 193.434006 55.384003 C 193.434006 63.959999 188.985992 69.816002 180.089996 72.952003 L 204.186005 103 L 185.850006 103 L 163.098007 74.872002 L 160.697998 74.872002 L 160.697998 103 L 145.434006 103 Z M 160.697998 61.912003 L 170.490005 61.912003 C 172.794006 61.912003 174.649994 61.304001 176.057999 60.087997 C 177.529999 58.872002 178.266006 57.304001 178.266006 55.384003 C 178.266006 53.335999 177.529999 51.736 176.057999 50.584 C 174.649994 49.431999 172.794006 48.856003 170.490005 48.856003 L 160.697998 48.856003 L 160.697998 61.912003 Z M 227.873993 104.056 C 220.641998 104.056 214.561996 101.783997 209.634003 97.239998 C 204.770004 92.632004 202.337997 86.552002 202.337997 79 C 202.337997 71.832001 204.738007 65.879997 209.537994 61.143997 C 214.337997 56.344002 220.354004 53.944 227.585999 53.944 C 234.306 53.944 239.970001 55.992004 244.578003 60.087997 C 249.186005 64.183998 251.490005 69.944 251.490005 77.367996 C 251.490005 79.223999 251.393997 80.919998 251.201996 82.456001 L 216.354004 82.456001 C 216.738007 85.208 218.050003 87.32 220.289993 88.792 C 222.529999 90.199997 225.121994 90.903999 228.065994 90.903999 C 230.690002 90.903999 233.026001 90.391998 235.074005 89.367996 C 237.121994 88.279999 238.658005 86.968002 239.682007 85.431999 L 250.434006 93.496002 C 248.130005 96.760002 245.026001 99.351997 241.121994 101.272003 C 237.218002 103.127998 232.802002 104.056 227.873993 104.056 Z M 216.738007 72.952003 L 237.089996 72.952003 C 236.514008 70.584 235.298004 68.792 233.442001 67.575996 C 231.585999 66.360001 229.505997 65.751999 227.201996 65.751999 C 224.770004 65.751999 222.561996 66.360001 220.578003 67.575996 C 218.593994 68.727997 217.313995 70.519997 216.738007 72.952003 Z M 260.623993 103 L 260.623993 55 L 275.119995 55 L 275.119995 58.456001 C 278.320007 55.447998 282.480011 53.944 287.600006 53.944 C 293.743988 53.944 298.511993 55.928001 301.903992 59.895996 C 305.359985 63.800003 307.088013 69.047997 307.088013 75.639999 L 307.088013 103 L 292.59201 103 L 292.59201 78.136002 C 292.59201 74.744003 291.920013 72.056 290.575989 70.071999 C 289.231995 68.087997 287.18399 67.096001 284.432007 67.096001 C 280.528015 67.096001 277.424011 68.568001 275.119995 71.512001 L 275.119995 103 L 260.623993 103 Z M 324.915009 103 L 324.915009 67.575996 L 313.394989 67.575996 L 313.394989 55 L 324.915009 55 L 324.915009 52.311996 C 324.915009 46.68 326.57901 41.944 329.907013 38.104004 C 333.299011 34.264 338.131012 32.344002 344.403015 32.344002 C 349.010986 32.344002 353.299011 33.304001 357.266998 35.223999 L 351.987 47.031998 C 349.938995 45.944 348.050995 45.400002 346.322998 45.400002 C 344.210999 45.400002 342.515015 46.040001 341.234985 47.32 C 340.019012 48.599998 339.411011 50.264 339.411011 52.311996 L 339.411011 55 L 351.218994 55 L 351.218994 67.575996 L 339.411011 67.575996 L 339.411011 103 L 324.915009 103 Z M 383.187012 103.575996 C 377.234985 103.575996 372.46701 102.040001 368.882996 98.968002 C 365.363007 95.896004 363.602997 91.384003 363.602997 85.431999 L 363.602997 67.575996 L 355.730988 67.575996 L 355.730988 55 L 363.602997 55 L 363.602997 40.408005 L 378.098999 40.408005 L 378.098999 55 L 392.498993 55 L 392.498993 67.575996 L 378.098999 67.575996 L 378.098999 82.456001 C 378.098999 85.272003 378.674988 87.32 379.826996 88.599998 C 380.979004 89.816002 382.803009 90.424004 385.299011 90.424004 C 387.730988 90.424004 389.907013 89.912003 391.826996 88.888 L 396.147003 100.695999 C 394.931 101.400002 393.042999 102.071999 390.483002 102.711998 C 387.923004 103.288002 385.490997 103.575996 383.187012 103.575996 Z M 424.186005 104.056 C 416.95401 104.056 410.873993 101.783997 405.946014 97.239998 C 401.082001 92.632004 398.649994 86.552002 398.649994 79 C 398.649994 71.832001 401.049988 65.879997 405.850006 61.143997 C 410.649994 56.344002 416.665985 53.944 423.89801 53.944 C 430.618011 53.944 436.282013 55.992004 440.890015 60.087997 C 445.497986 64.183998 447.802002 69.944 447.802002 77.367996 C 447.802002 79.223999 447.705994 80.919998 447.514008 82.456001 L 412.665985 82.456001 C 413.049988 85.208 414.362 87.32 416.60199 88.792 C 418.84201 90.199997 421.43399 90.903999 424.377991 90.903999 C 427.002014 90.903999 429.338013 90.391998 431.385986 89.367996 C 433.43399 88.279999 434.970001 86.968002 435.993988 85.431999 L 446.746002 93.496002 C 444.441986 96.760002 441.338013 99.351997 437.43399 101.272003 C 433.529999 103.127998 429.114014 104.056 424.186005 104.056 Z M 413.049988 72.952003 L 433.402008 72.952003 C 432.825989 70.584 431.609985 68.792 429.753998 67.575996 C 427.89801 66.360001 425.817993 65.751999 423.514008 65.751999 C 421.082001 65.751999 418.873993 66.360001 416.890015 67.575996 C 414.906006 68.727997 413.626007 70.519997 413.049988 72.952003 Z M 456.936005 103 L 456.936005 55 L 471.432007 55 L 471.432007 60.375999 C 472.200012 58.647995 473.575989 57.240005 475.559998 56.152 C 477.544006 55 479.720001 54.423996 482.088013 54.423996 C 484.264008 54.423996 486.216003 54.744003 487.944 55.384003 L 485.735992 68.919998 C 485.223999 68.536003 483.880005 68.344002 481.70401 68.344002 C 476.903992 68.344002 473.480011 69.783997 471.432007 72.664001 L 471.432007 103 L 456.936005 103 Z"/>
</svg>
