<?xml version="1.0" encoding="UTF-8"?>
<!-- Generated by Pixelmator Pro 3.3.2 -->
<svg width="1310" height="780" viewBox="0 0 1310 780" xmlns="http://www.w3.org/2000/svg" xmlns:xlink="http://www.w3.org/1999/xlink">
    <g id="Group-copy">
        <g id="Group">
            <path id="Path" fill="#ffffff" stroke="none" d="M 465.574646 27.716797 C 350.125732 27.716797 256.162903 121.723938 256.162903 237.12854 C 256.162903 352.533112 350.170044 446.540253 465.574646 446.540253 C 580.979187 446.540253 674.986328 352.533112 674.986328 237.12854 C 674.986328 121.723938 580.979187 27.716797 465.574646 27.716797 Z M 465.264526 46.323303 C 472.71048 46.516174 478.645935 52.628479 478.643463 60.100952 C 478.643463 67.710205 472.475006 73.878662 464.865814 73.878662 C 457.256592 73.878662 451.088135 67.710205 451.088135 60.100952 C 451.086578 56.37677 452.592773 52.810547 455.263428 50.214966 C 457.934143 47.619385 461.54187 46.215576 465.264526 46.323303 Z M 496.806946 69.005493 C 545.760742 78.174744 588.206665 108.405273 612.876099 151.67157 L 596.617554 188.352905 C 593.826538 194.687988 596.706177 202.130615 602.996887 204.965881 L 634.27356 218.832153 C 635.243774 228.608643 635.362366 238.45105 634.62793 248.248108 L 617.21759 248.248108 C 615.489868 248.248108 614.781067 249.399963 614.781067 251.083374 L 614.781067 259.057617 C 614.781067 277.841309 604.193054 281.961334 594.889771 282.980286 C 586.029541 283.999176 576.239014 279.258972 574.998535 273.854218 C 569.770996 244.482544 561.088013 238.236023 547.354614 227.382263 C 564.410583 216.572754 582.131042 200.580017 582.131042 179.226929 C 582.131042 156.145935 566.315552 141.615173 555.550354 134.482666 C 540.399353 124.514893 523.653503 122.521362 519.134766 122.521362 L 339.271942 122.521362 C 364.14267 94.737488 397.479584 75.92804 434.120789 69.005493 L 455.341034 91.244751 C 460.12558 96.250732 468.055481 96.472229 473.061523 91.643433 Z M 300.995728 170.986877 C 308.448761 171.202637 314.377777 177.30835 314.374664 184.764526 C 314.374664 192.373718 308.206207 198.542236 300.597015 198.542236 C 292.987823 198.542236 286.819336 192.373718 286.819336 184.764526 C 286.81778 181.040344 288.323944 177.474121 290.994659 174.878479 C 293.665344 172.282959 297.273071 170.879089 300.995728 170.986877 Z M 629.489014 171.607117 C 636.942078 171.822876 642.871094 177.928589 642.867981 185.384766 C 642.867981 192.993958 636.699524 199.162415 629.090332 199.162415 C 621.481079 199.162415 615.312622 192.993958 615.312622 185.384766 C 615.311096 181.660522 616.817261 178.094299 619.487915 175.498718 C 622.15863 172.903137 625.766357 171.499329 629.489014 171.607117 Z M 326.956207 173.822144 L 350.967468 173.822144 L 350.967468 282.094238 L 302.501953 282.094238 C 296.516327 261.075256 294.65097 239.09729 297.008606 217.370178 L 326.690399 204.168396 C 333.025482 201.33313 335.905029 193.934875 333.069763 187.599792 Z M 427.165497 174.973938 L 484.358337 174.973938 C 487.326508 174.973938 505.224182 178.385193 505.224182 191.808411 C 505.224182 202.927979 491.490814 206.9151 480.194 206.9151 L 427.121185 206.9151 Z M 427.165497 252.766846 L 470.97937 252.766846 C 474.966461 252.766846 492.376831 253.918701 497.91449 276.157898 C 499.642242 282.980286 503.49646 305.219452 506.110199 312.351959 C 508.723999 320.326172 519.311951 336.274597 530.608765 336.274597 L 602.110901 336.274597 C 597.318909 342.691895 592.078247 348.761627 586.428284 354.43808 L 557.322388 348.191589 C 550.544312 346.729675 543.854858 351.071167 542.392883 357.849243 L 535.481934 390.100555 C 490.511047 410.472198 438.894165 410.229553 394.116791 389.436035 L 387.205841 357.184753 C 385.743866 350.406647 379.098694 346.065155 372.320618 347.5271 L 343.834961 353.640656 C 338.548889 348.187897 333.635132 342.386169 329.126953 336.274597 L 467.656769 336.274597 C 469.207336 336.274597 470.270569 336.008759 470.270569 334.546844 L 470.270569 285.549713 C 470.270569 284.13208 469.207336 283.82196 467.656769 283.82196 L 427.121185 283.82196 Z M 363.238892 364.98175 C 370.691925 365.19751 376.620941 371.303253 376.617859 378.75943 C 376.617859 386.368622 370.449371 392.537079 362.840179 392.537079 C 355.230988 392.537079 349.0625 386.368622 349.0625 378.75943 C 349.060944 375.035217 350.567108 371.469025 353.237823 368.873413 C 355.908508 366.277832 359.516235 364.873993 363.238892 364.98175 Z M 567.24585 365.601959 C 574.698914 365.817749 580.62793 371.923492 580.624817 379.379639 C 580.624817 386.988831 574.45636 393.157318 566.847168 393.157318 C 559.237976 393.157318 553.069458 386.988831 553.069458 379.379639 C 553.067871 375.655457 554.574097 372.089233 557.244812 369.493622 C 559.915527 366.898071 563.523193 365.494202 567.24585 365.601959 Z"/>
            <path id="path1" fill="#ffffff" fill-rule="evenodd" stroke="#ffffff" stroke-width="13.290357" stroke-linecap="round" stroke-linejoin="round" d="M 663.290833 237.12854 C 663.290833 346.324158 574.770264 434.844727 465.574646 434.844727 C 356.378967 434.844727 267.858429 346.324158 267.858429 237.12854 C 267.858429 127.932861 356.378967 39.412354 465.574646 39.412354 C 574.770264 39.412354 663.290833 127.932861 663.290833 237.12854 Z M 659.569519 218.034729 L 690.403198 237.12854 L 659.569519 256.222351 L 686.061646 280.986694 L 652.126953 293.701141 L 673.302917 323.161438 L 637.463257 329.009216 L 652.525635 362.057892 L 616.242981 360.773163 L 624.571594 396.125488 L 589.219238 387.796875 L 590.503967 424.079559 L 557.455322 409.017151 L 551.607544 444.856781 L 522.147217 423.680817 L 509.4328 457.61554 L 484.668427 431.123413 L 465.574646 461.957062 L 446.480804 431.123413 L 421.716461 457.61554 L 409.002014 423.680817 L 379.541718 444.856781 L 373.69397 409.017151 L 340.645264 424.079559 L 341.929993 387.796875 L 306.577667 396.125488 L 314.906281 360.773163 L 278.623627 362.057892 L 293.686005 329.009216 L 257.846344 323.161438 L 279.022339 293.701141 L 245.087616 280.986694 L 271.579712 256.222351 L 240.746094 237.12854 L 271.579712 218.034729 L 245.087616 193.270386 L 279.022339 180.555908 L 257.846344 151.095642 L 293.686005 145.247864 L 278.623627 112.199158 L 314.906281 113.483948 L 306.577667 78.131531 L 341.929993 86.460205 L 340.645264 50.17749 L 373.69397 65.239929 L 379.541718 29.400269 L 409.002014 50.576233 L 421.716461 16.641541 L 446.480804 43.133667 L 465.574646 12.299988 L 484.668427 43.133667 L 509.4328 16.641541 L 522.147217 50.576233 L 551.607544 29.400269 L 557.455322 65.239929 L 590.503967 50.17749 L 589.219238 86.460205 L 624.571594 78.131531 L 616.242981 113.483948 L 652.525635 112.199158 L 637.463257 145.247864 L 673.302917 151.095642 L 652.126953 180.555908 L 686.061646 193.270386 Z"/>
            <g id="g1">
                <path id="Path-copy" fill="#ffffff" fill-rule="evenodd" stroke="#ffffff" stroke-width="11.352452" stroke-linecap="round" stroke-linejoin="round" d="M 1040.260132 336.36319 C 1040.260132 429.636688 964.647034 505.249847 871.373535 505.249847 C 778.099976 505.249847 702.486877 429.636688 702.486877 336.36319 C 702.486877 243.089661 778.099976 167.476563 871.373535 167.476563 C 964.647034 167.476563 1040.260132 243.089661 1040.260132 336.36319 Z M 1037.081421 320.053497 L 1063.419189 336.36319 L 1037.081421 352.672882 L 1059.710693 373.826294 L 1030.724121 384.686798 L 1048.812378 409.85141 L 1018.198547 414.846497 L 1031.064697 443.076263 L 1000.072449 441.978851 L 1007.186646 472.176361 L 976.989136 465.062164 L 978.086548 496.054352 L 949.856812 483.188232 L 944.861694 513.802002 L 919.697083 495.713776 L 908.836609 524.700378 L 887.683167 502.071136 L 871.373535 528.408813 L 855.063782 502.071136 L 833.9104 524.700378 L 823.049866 495.713776 L 797.885315 513.802002 L 792.890198 483.188232 L 764.660461 496.054352 L 765.757874 465.062164 L 735.560364 472.176361 L 742.674561 441.978851 L 711.682373 443.076263 L 724.548462 414.846497 L 693.934692 409.85141 L 712.022949 384.686798 L 683.036316 373.826294 L 705.665527 352.672882 L 679.327881 336.36319 L 705.665527 320.053497 L 683.036316 298.900116 L 712.022949 288.039581 L 693.934692 262.875 L 724.548462 257.879883 L 711.682373 229.650146 L 742.674561 230.747559 L 735.560364 200.550049 L 765.757874 207.664246 L 764.660461 176.672058 L 792.890198 189.538147 L 797.885315 158.924377 L 823.049866 177.012573 L 833.9104 148.026001 L 855.063782 170.655273 L 871.373535 144.317566 L 887.683167 170.655273 L 908.836609 148.026001 L 919.697083 177.012573 L 944.861694 158.924377 L 949.856812 189.538147 L 978.086548 176.672058 L 976.989136 207.664246 L 1007.186646 200.550049 L 1000.072449 230.747559 L 1031.064697 229.650146 L 1018.198547 257.879883 L 1048.812378 262.875 L 1030.724121 288.039581 L 1059.710693 298.900116 Z"/>
                <path id="path2" fill="#ffffff" fill-rule="evenodd" stroke="none" d="M 870.583008 509.126099 C 775.600586 509.126099 698.610596 432.136078 698.610596 337.153687 C 698.610596 242.171326 775.600586 165.162842 870.583008 165.162842 C 965.565369 165.162842 1042.573853 242.171326 1042.573853 337.153687 C 1042.573853 432.136078 965.565369 509.126099 870.583008 509.126099 Z M 870.583008 483.068573 C 951.174133 483.068573 1016.516296 417.744843 1016.516296 337.153687 C 1016.516296 333.837402 1016.402405 330.555756 1016.18457 327.294586 C 1012.200867 332.220917 1006.360229 337.31604 997.866882 342.350464 C 997.866882 342.350464 992.76593 350.484589 984.156311 357.977631 L 996.226807 366.878479 C 996.226807 366.878479 999.365906 368.525024 996.226807 374.378754 C 993.458008 379.542175 978.319031 400.803497 970.31665 411.953949 C 967.073669 417.459869 964.80957 420.925568 964.474915 420.7258 C 963.945251 420.411255 964.860291 411.323822 971.10907 399.699188 C 975.703796 389.461853 981.28302 374.007965 979.125366 372.75708 C 979.125366 372.75708 978.503418 372.238739 977.448425 371.5961 C 977.253357 372.090118 977.00769 372.622986 976.692871 373.199341 C 974.621277 376.990479 964.269897 391.866028 958.799011 399.662323 C 956.447449 403.647675 954.846252 406.122772 954.707947 405.891052 C 954.490479 405.523712 956.19043 398.095673 960.862976 389.563629 C 963.70697 383.598267 967.264343 375.1073 968.307983 370.914246 C 965.321228 373.523132 938.10791 392.690491 876.885437 392.751709 C 816.980347 392.81189 787.605286 378.022034 782.606567 374.85791 C 784.397339 379.22168 787.387634 385.123505 789.885681 389.582062 C 795.238586 397.884766 797.158875 405.156738 796.90686 405.522491 C 796.747192 405.753387 794.92157 403.372314 792.226074 399.49646 C 785.950928 391.935822 774.070496 377.496002 771.697021 373.807495 C 770.941833 372.633759 770.550781 371.652985 770.333313 370.822113 C 768.521545 372.196991 767.605957 373.346771 767.605957 373.346771 C 765.580811 375.080322 774.219849 390.104523 780.874268 399.883453 C 789.506348 410.782928 792.113037 420.088989 791.617981 420.523102 C 791.304443 420.796509 788.297241 417.631104 783.914978 412.525238 C 773.538513 402.468384 753.888794 383.275726 750.062256 378.432983 C 745.723022 372.943146 748.698547 370.600983 748.698547 370.600983 L 757.967957 360.760284 C 740.993652 351.535034 738.747314 343.179749 738.747314 343.179749 C 732.781677 340.300873 728.206787 337.411285 724.705017 334.555328 C 724.689819 335.422028 724.668152 336.283356 724.668152 337.153687 C 724.668152 417.744843 789.991882 483.068573 870.583008 483.068573 Z M 877.696289 384.385284 C 878.025879 384.40332 878.357788 384.402496 878.672974 384.385284 C 879.723694 384.327942 880.687378 384.083923 881.547791 383.758728 C 882.408203 383.433563 883.174194 383.021088 883.796082 382.61618 C 884.417908 382.211273 884.898376 381.807007 885.233459 381.510498 C 885.568542 381.21225 885.749451 381.012939 885.749451 381.012939 C 886.787415 380.049072 887.539124 378.971313 888.071411 377.990692 C 888.071411 377.990692 888.071411 377.97226 888.071411 377.97226 C 888.600342 376.99469 888.937866 376.119263 889.103394 375.576599 C 889.214294 375.214661 889.250793 375.00531 889.250793 375.00531 L 867.929321 376.719147 C 868.104675 377.261383 868.308594 377.748688 868.537476 378.19342 C 868.763489 378.634247 869.004639 379.016144 869.219299 379.335968 C 869.648621 379.975586 869.993286 380.349518 869.993286 380.349518 C 870.782104 381.166016 871.569092 381.834412 872.333679 382.376617 C 872.716003 382.647736 873.083496 382.885101 873.457825 383.095337 C 874.948486 383.932434 876.382813 384.310852 877.696289 384.385284 Z M 854.052856 369.992828 C 855.788269 369.89093 857.310852 369.627747 858.659912 369.237274 C 860.008972 368.846802 861.189087 368.325104 862.19812 367.707733 C 863.207214 367.090393 864.044434 366.371063 864.759705 365.588501 C 864.998108 365.327393 865.2323 365.070953 865.441528 364.796082 C 867.120972 362.596619 867.871033 359.997833 868.168884 357.572205 C 868.168884 357.572205 868.168884 357.553772 868.168884 357.553772 C 868.315613 356.349609 868.365479 355.186798 868.334778 354.144531 C 868.334778 354.144531 868.334778 354.126129 868.334778 354.126129 C 868.319153 353.609558 868.28186 353.120209 868.242615 352.670288 C 868.242615 352.670288 868.242615 352.651855 868.242615 352.651855 C 868.163208 351.750732 868.041565 351.001678 867.947754 350.477325 C 867.947754 350.477325 867.947754 350.458893 867.947754 350.458893 C 867.856018 349.95105 867.781921 349.648041 867.781921 349.648041 C 867.781921 349.648041 867.781921 349.629639 867.781921 349.629639 C 867.211975 347.572113 866.443542 345.881653 865.552063 344.506561 C 865.552063 344.506561 865.552063 344.488129 865.552063 344.488129 C 865.331238 344.148254 865.106506 343.832611 864.870239 343.529877 C 864.870239 343.529877 864.870239 343.511444 864.870239 343.511444 C 864.633667 343.208984 864.36499 342.930878 864.114685 342.663757 C 863.607971 342.122925 863.082214 341.652222 862.529846 341.244781 C 855.901794 336.355591 846.497253 340.526062 846.497253 340.526062 C 846.321472 340.799042 846.164673 341.068726 845.999695 341.336914 C 846.225647 341.115387 846.470276 340.921753 846.718445 340.747223 C 846.97345 340.56778 847.235413 340.411224 847.510864 340.286499 C 848.061707 340.037048 848.647827 339.899506 849.261536 339.899506 C 849.651062 339.899506 850.036865 339.962067 850.404053 340.065369 C 851.138489 340.271973 851.812805 340.668823 852.41272 341.226349 C 852.709412 341.502045 852.989258 341.819855 853.242004 342.166199 C 853.242004 342.166199 853.242004 342.184601 853.242004 342.184601 C 853.749023 342.882233 854.173279 343.713989 854.458313 344.635559 C 854.458313 344.635559 854.458313 344.653992 854.458313 344.653992 C 854.599182 345.112549 854.714966 345.592712 854.789978 346.0914 C 854.789978 346.0914 854.789978 346.109833 854.789978 346.109833 C 854.865051 346.61499 854.900574 347.140381 854.900574 347.676239 C 854.899658 348.205353 854.864197 348.724548 854.789978 349.224213 C 854.489746 351.244568 853.612671 352.992432 852.41272 354.107697 C 851.962769 354.527527 851.468384 354.856689 850.938477 355.084381 C 850.761902 355.159943 850.587708 355.21701 850.404053 355.268677 C 850.036865 355.372498 849.651062 355.434509 849.261536 355.434509 C 848.872131 355.434509 848.486084 355.372498 848.118958 355.268677 C 847.384705 355.061005 846.710266 354.66748 846.110291 354.107697 C 844.610352 352.713593 843.622498 350.354614 843.622498 347.676239 C 843.622498 347.173889 843.649475 346.680328 843.7146 346.201965 C 843.7146 346.201965 843.7146 346.183533 843.7146 346.183533 C 843.779724 345.71167 843.884766 345.254852 844.00946 344.819855 C 843.669373 345.486542 843.366943 346.121765 843.088074 346.754822 C 842.811035 347.382751 842.570984 347.983551 842.350952 348.579224 C 842.12854 349.181091 841.928711 349.760132 841.76123 350.329895 C 841.59491 350.894104 841.453125 351.436462 841.337402 351.970001 C 841.220154 352.510193 841.129639 353.026825 841.060974 353.536407 C 840.992554 354.0401 840.956177 354.517609 840.931946 354.992249 C 840.883118 355.948486 840.913269 356.839569 841.024109 357.68277 C 841.077759 358.095551 841.15802 358.493713 841.245239 358.880615 C 841.245239 358.880615 841.245239 358.899048 841.245239 358.899048 C 841.334229 359.291321 841.438171 359.656738 841.558533 360.023163 C 841.801025 360.761383 842.092896 361.448944 842.443054 362.087128 C 842.616516 362.404236 842.80072 362.696472 842.995911 362.990112 C 843.388916 363.581268 843.824341 364.129242 844.285889 364.630219 C 844.515015 364.879364 844.744934 365.102417 844.986145 365.330505 C 848.845825 368.979797 854.052856 369.992828 854.052856 369.992828 Z M 898.428101 369.200409 C 898.782959 369.192047 899.145447 369.165497 899.496948 369.126709 C 900.55127 369.010376 901.577637 368.760559 902.55603 368.444855 C 903.860474 368.023956 905.064697 367.47821 906.094238 366.933746 C 908.153259 365.844818 909.503479 364.777649 909.503479 364.777649 C 909.742798 364.555298 909.975159 364.33136 910.185303 364.095795 C 911.030151 363.151031 911.634399 362.10556 912.065002 360.999847 C 912.172241 360.724365 912.256348 360.452789 912.341431 360.170593 C 912.685059 359.036652 912.852905 357.859436 912.894287 356.66922 C 912.935425 355.484833 912.859802 354.306 912.691528 353.149414 C 912.523254 351.98645 912.262268 350.864746 911.972839 349.813904 C 911.828857 349.291199 911.687622 348.800507 911.530579 348.321228 C 911.530579 348.321228 911.530579 348.302795 911.530579 348.302795 C 911.218262 347.351532 910.869568 346.495911 910.572327 345.778107 C 910.572327 345.778107 910.572327 345.759705 910.572327 345.759705 C 910.276367 345.046295 910.00946 344.463531 909.816711 344.064301 C 909.619202 343.65451 909.503479 343.437744 909.503479 343.437744 C 909.158569 343.060089 908.815918 342.713043 908.471497 342.387329 C 906.749329 340.758636 905.031006 339.76001 903.385254 339.217651 C 902.72699 339.001831 902.084412 338.856842 901.450317 338.775391 C 900.816223 338.693909 900.192078 338.671478 899.58905 338.70166 C 898.986023 338.731873 898.403503 338.80368 897.838379 338.922821 C 896.742798 339.153809 895.731323 339.551819 894.816162 339.991638 C 894.96344 339.953918 895.109314 339.919647 895.258423 339.899506 C 895.438538 339.870575 895.622437 339.86264 895.811279 339.86264 C 896.000122 339.86264 896.180176 339.873749 896.364136 339.899506 C 896.548035 339.925293 896.738831 339.959808 896.916992 340.010071 C 897.273193 340.110657 897.621582 340.261414 897.948975 340.452362 C 898.280029 340.645447 898.576355 340.877563 898.870361 341.152618 C 899.158264 341.420715 899.435852 341.718994 899.681213 342.055603 C 899.681213 342.055603 899.681213 342.074036 899.681213 342.074036 C 899.928833 342.415222 900.147888 342.778717 900.344604 343.179749 C 900.543823 343.585724 900.72113 344.012848 900.860596 344.469727 C 900.997437 344.914856 901.101013 345.386536 901.173889 345.87027 C 901.173889 345.87027 901.173889 345.888702 901.173889 345.888702 C 901.246826 346.378906 901.284485 346.880249 901.284485 347.399811 C 901.284485 350.516296 899.913208 353.18808 897.948975 354.328827 C 897.294189 354.709076 896.56665 354.918518 895.811279 354.918518 C 895.05603 354.918518 894.345032 354.709076 893.692017 354.328827 C 893.36554 354.138702 893.042297 353.898651 892.752197 353.62854 C 892.462036 353.358459 892.206299 353.065643 891.959778 352.725555 C 891.7099 352.382355 891.475891 352.006012 891.277893 351.60144 C 891.082214 351.201477 890.91803 350.779724 890.780334 350.329895 C 890.50177 349.425751 890.356506 348.445099 890.356506 347.399811 C 890.356506 345.780731 890.72052 344.278198 891.351624 343.050751 C 891.351624 343.050751 891.351624 343.032318 891.351624 343.032318 C 891.47583 342.791962 891.63208 342.568695 891.775513 342.350464 C 891.775513 342.350464 891.775513 342.332031 891.775513 342.332031 C 891.919312 342.114197 892.074768 341.898834 892.236206 341.705475 C 892.383728 341.52829 892.536011 341.362396 892.696899 341.207916 C 891.021057 342.343964 890.006348 343.437744 890.006348 343.437744 C 889.480774 344.288269 889.023865 345.102203 888.624268 345.907104 C 888.226501 346.707031 887.89624 347.47525 887.610718 348.229065 C 886.751038 350.498474 886.367615 352.551086 886.302307 354.384125 C 886.28009 354.987091 886.299377 355.562561 886.339172 356.116364 C 886.339172 356.116364 886.339172 356.134796 886.339172 356.134796 C 886.379456 356.687653 886.451599 357.216858 886.54187 357.719635 C 886.54187 357.719635 886.54187 357.738068 886.54187 357.738068 C 886.633667 358.245972 886.743042 358.719818 886.873596 359.175446 C 887.917908 362.820557 890.006348 364.777649 890.006348 364.777649 C 890.305542 365.205688 890.609436 365.581818 890.927795 365.938629 C 891.246155 366.295441 891.588257 366.625 891.922913 366.915314 C 892.592285 367.495941 893.288086 367.954224 894.00531 368.297424 C 894.722534 368.640656 895.456299 368.872314 896.198242 369.016144 C 896.940247 369.159973 897.684509 369.217987 898.428101 369.200409 Z M 766.021118 352.209595 L 768.158813 349.942902 C 768.211548 349.766357 768.253235 349.584503 768.306213 349.408478 L 761.432495 339.438812 C 760.735535 338.425446 760.589478 337.111481 761.045471 335.955872 C 761.505188 334.802368 762.498779 333.980316 763.680725 333.781342 L 775.30896 331.809509 C 775.763672 330.889832 776.234741 329.980164 776.709534 329.082123 L 771.807617 317.896179 C 771.311157 316.756958 771.417114 315.429047 772.084045 314.394806 C 772.749573 313.355896 773.896851 312.774384 775.08783 312.809998 L 786.881897 313.233826 C 787.491272 312.437927 788.115601 311.652191 788.743164 310.875031 L 786.03418 298.878235 C 785.761047 297.661133 786.105591 296.390137 786.955627 295.505859 C 787.800903 294.624695 789.031799 294.26416 790.198975 294.547607 L 801.67981 297.367126 C 802.427979 296.709198 803.182739 296.068634 803.946472 295.432159 L 803.541016 283.12207 C 803.496155 281.876221 804.074951 280.699402 805.070557 280.007721 C 806.062622 279.312073 807.335449 279.194 808.4245 279.71286 L 819.14978 284.817474 C 820.015625 284.319244 820.889893 283.836639 821.766602 283.361633 L 823.664673 271.217438 C 823.855957 269.988708 824.643677 268.948212 825.74707 268.471619 C 826.852783 267.990051 828.110657 268.144958 829.082581 268.877045 L 838.646851 276.064056 C 839.590271 275.75351 840.529236 275.447968 841.484802 275.161072 L 845.612732 263.661865 C 846.029419 262.48938 846.997253 261.622192 848.174255 261.37677 C 849.345398 261.136902 850.565308 261.554138 851.380737 262.463989 L 859.433899 271.457001 C 860.405029 271.345367 861.368835 271.246887 862.345581 271.16214 L 868.574341 260.694885 C 869.199219 259.634583 870.309204 258.981079 871.504395 258.981079 C 872.703003 258.981079 873.805359 259.634583 874.434509 260.694885 L 880.663269 271.16214 C 881.639465 271.246887 882.602478 271.345367 883.57489 271.457001 L 891.628052 262.463989 C 892.442444 261.554138 893.641785 261.136902 894.816162 261.37677 C 895.994751 261.619019 896.977051 262.48938 897.396118 263.661865 L 901.505615 275.161072 C 902.462463 275.447968 903.420105 275.751343 904.362 276.064056 L 913.907837 268.877045 C 914.876831 268.147614 916.157349 267.992126 917.26178 268.471619 C 918.368774 268.948212 919.151733 269.988708 919.344116 271.217438 L 921.242249 283.361633 C 922.120239 283.836639 922.976929 284.321899 923.840637 284.817474 L 934.565857 279.71286 C 935.656067 279.196136 936.923035 279.312073 937.9198 280.007721 C 938.917053 280.699402 939.512085 281.876221 939.467773 283.12207 L 939.043945 295.432159 C 939.809265 296.068634 940.566406 296.709198 941.310608 297.367126 L 952.809814 294.547607 C 953.974976 294.26178 955.19165 294.624695 956.03479 295.505859 C 956.88269 296.390137 957.23114 297.661133 956.956177 298.878235 L 954.247253 310.875031 C 954.880554 311.649323 955.49762 312.437927 956.108521 313.233826 L 967.921021 312.809998 C 969.122314 312.762756 970.242126 313.355896 970.906372 314.394806 C 971.573242 315.429047 971.684998 316.756958 971.1828 317.896179 L 966.299316 329.082123 C 966.773254 329.980164 967.230469 330.889832 967.681458 331.809509 L 979.309631 333.781342 C 980.490601 333.983215 981.506531 334.805817 981.963318 335.955872 C 982.419067 337.111481 982.259888 338.425446 981.557922 339.438812 L 974.684143 349.408478 C 974.860107 349.998108 975.045837 350.585022 975.218567 351.177612 C 978.58606 348.688263 982.219299 345.603363 986.054382 341.705475 L 988.652771 335.919006 C 988.652771 335.919006 960.043518 307.448181 1004.519531 287.802856 C 1004.519531 287.802856 1000.631287 294.15918 1001.773682 318.743896 C 1001.773682 318.743896 1008.272522 316.467438 1013.549316 307.760651 C 1013.548096 307.75473 1013.550598 307.748108 1013.549316 307.742218 C 999.940613 241.245605 941.10022 191.220398 870.583008 191.220398 C 799.805664 191.220398 740.807739 241.616028 727.487671 308.47934 C 732.045105 320.590912 740.516418 326.262604 740.516418 326.262604 L 735.761963 293.294464 C 776.689087 312.333923 750.504517 342.129333 750.504517 342.129333 C 753.13324 346.334229 759.498535 349.698975 766.021118 352.209595 Z"/>
            </g>
        </g>
        <path id="Rust-Summit" fill="#ffffff" fill-rule="evenodd" stroke="none" d="M 1227.62439 697.779297 L 1247.136597 697.779297 L 1247.136597 736.803589 C 1247.136597 769.323853 1267.082397 779.296753 1290.713623 779.296753 C 1295.700195 779.296753 1302.204346 778.863159 1308.057861 777.779175 L 1308.057861 748.727661 C 1304.155518 749.378113 1299.385742 749.811768 1295.700195 749.811768 C 1285.077026 749.811768 1278.789673 746.342896 1278.789673 731.817139 L 1278.789673 697.779297 L 1308.057861 697.779297 L 1308.057861 668.727844 L 1278.789673 668.727844 L 1278.789673 638.375488 L 1252.556519 638.375488 L 1248.220459 668.727844 L 1227.62439 668.727844 Z M 1177.257568 777.128723 L 1208.910645 777.128723 L 1208.910645 668.727844 L 1177.257568 668.727844 Z M 1176.390503 635.55719 C 1176.390503 645.963623 1182.677734 652.250916 1193.084229 652.250916 C 1203.490723 652.250916 1209.777954 645.963623 1209.777954 635.55719 C 1209.777954 625.150696 1203.490723 618.863403 1193.084229 618.863403 C 1182.677734 618.863403 1176.390503 625.150696 1176.390503 635.55719 Z M 986.836792 668.727844 L 986.836792 777.128723 L 1018.489929 777.128723 L 1018.489929 715.773804 C 1018.489929 701.248047 1025.644287 693.226379 1036.2677 693.226379 C 1046.457275 693.226379 1052.311035 701.248047 1052.311035 715.773804 L 1052.311035 777.128723 L 1083.964111 777.128723 L 1083.964111 715.773804 C 1083.964111 701.248047 1091.11853 693.226379 1101.741821 693.226379 C 1111.931519 693.226379 1117.785156 701.248047 1117.785156 715.773804 L 1117.785156 777.128723 L 1149.438232 777.128723 L 1149.438232 713.822632 C 1149.438232 691.492004 1138.381348 666.559875 1112.581909 666.559875 C 1098.706665 666.559875 1085.698486 673.714294 1077.459961 685.42157 C 1071.82312 674.58136 1061.85022 666.559875 1047.541382 666.559875 C 1035.834106 666.559875 1024.777222 671.979919 1017.405945 682.386353 L 1015.237854 668.727844 Z M 796.416016 668.727844 L 796.416016 777.128723 L 828.069153 777.128723 L 828.069153 715.773804 C 828.069153 701.248047 835.223572 693.226379 845.846863 693.226379 C 856.036499 693.226379 861.890198 701.248047 861.890198 715.773804 L 861.890198 777.128723 L 893.543213 777.128723 L 893.543213 715.773804 C 893.543213 701.248047 900.697754 693.226379 911.321106 693.226379 C 921.510681 693.226379 927.364441 701.248047 927.364441 715.773804 L 927.364441 777.128723 L 959.017395 777.128723 L 959.017395 713.822632 C 959.017395 691.492004 947.96051 666.559875 922.161133 666.559875 C 908.285889 666.559875 895.277771 673.714294 887.039185 685.42157 C 881.402344 674.58136 871.429382 666.559875 857.120605 666.559875 C 845.41333 666.559875 834.356445 671.979919 826.985168 682.386353 L 824.817078 668.727844 Z M 662.146973 668.727844 L 662.146973 734.201965 C 662.146973 759.351013 675.15509 779.296753 702.25531 779.296753 C 716.56427 779.296753 728.921814 773.659912 736.943481 763.470215 L 739.111572 777.128723 L 767.512634 777.128723 L 767.512634 668.727844 L 735.859497 668.727844 L 735.859497 730.082764 C 735.859497 744.608521 724.36908 752.630188 712.22821 752.630188 C 702.038452 752.630188 693.80011 746.77655 693.80011 732.250793 L 693.80011 668.727844 Z M 525.493103 726.830688 C 526.793762 759.134155 549.557922 779.296753 584.67981 779.296753 C 618.067322 779.296753 641.265259 761.519043 641.265259 731.166748 C 641.265259 697.779297 613.080872 690.191162 591.834412 684.988037 C 574.490234 680.868652 561.265198 677.61676 561.265198 666.343018 C 561.265198 657.454102 569.503784 651.383667 582.295044 651.383667 C 596.820862 651.383667 605.49292 658.971802 606.576904 670.895752 L 638.013184 670.895752 C 637.145935 642.061157 615.032166 623.199463 582.945435 623.199463 C 551.509155 623.199463 529.828918 641.627563 529.828918 667.427002 C 529.828918 702.982544 558.22998 709.920166 581.21106 715.340271 C 596.820862 719.025879 609.828979 722.494629 609.828979 734.201965 C 609.828979 745.042053 598.555237 751.112488 584.896667 751.112488 C 567.986267 751.112488 558.22998 742.223633 556.929199 726.830688 Z M 373.811005 697.779297 L 393.32312 697.779297 L 393.32312 736.803589 C 393.32312 769.323853 413.26889 779.296753 436.90036 779.296753 C 441.88681 779.296753 448.390778 778.863159 454.244537 777.779175 L 454.244537 748.727661 C 450.342041 749.378113 445.572449 749.811768 441.88681 749.811768 C 431.263458 749.811768 424.976166 746.342896 424.976166 731.817139 L 424.976166 697.779297 L 454.244537 697.779297 L 454.244537 668.727844 L 424.976166 668.727844 L 424.976166 638.375488 L 398.743225 638.375488 L 394.407196 668.727844 L 373.811005 668.727844 Z M 266.858856 740.705994 C 267.942932 764.337463 285.503876 779.296753 314.121704 779.296753 C 341.872375 779.296753 363.118958 765.204651 363.118958 742.223633 C 363.118958 712.955383 338.837158 709.703369 322.576935 707.752136 C 308.918488 706.017761 299.812744 704.716919 299.812744 697.996094 C 299.812744 692.57605 306.316833 690.408081 313.68808 690.408081 C 323.444214 690.408081 330.381836 694.093689 331.465881 702.115356 L 360.950928 702.115356 C 359.650085 680.651978 342.956329 666.559875 316.289734 666.559875 C 290.490326 666.559875 270.110962 679.784729 270.110962 701.248047 C 270.110962 730.082764 294.175964 733.985168 312.170471 737.020386 C 322.793793 738.754883 331.249023 740.272461 331.249023 746.342896 C 331.249023 752.196533 324.094543 755.448547 315.422546 755.448547 C 305.666412 755.448547 297.644745 751.112488 296.343994 740.705994 Z M 140.611481 668.727844 L 140.611481 734.201965 C 140.611481 759.351013 153.619614 779.296753 180.719849 779.296753 C 195.028717 779.296753 207.386429 773.659912 215.408112 763.470215 L 217.576126 777.128723 L 245.977188 777.128723 L 245.977188 668.727844 L 214.324051 668.727844 L 214.324051 730.082764 C 214.324051 744.608521 202.833618 752.630188 190.692673 752.630188 C 180.502975 752.630188 172.264526 746.77655 172.264526 732.250793 L 172.264526 668.727844 Z M 0.2719 777.128723 L 32.792141 777.128723 L 32.792141 722.494629 L 46.450691 722.494629 L 55.989971 737.670776 C 68.9981 758.483826 82.439789 779.296753 107.371994 779.296753 C 111.057625 779.296753 115.393669 778.863159 119.729713 777.779175 L 119.729713 746.77655 C 118.212105 746.993286 116.477722 747.210083 114.743256 747.210083 C 101.951988 747.210083 94.147087 735.936401 87.426247 725.963501 L 82.223007 718.375488 C 101.518341 711.221008 114.092834 695.394409 114.092834 673.280762 C 114.092834 645.096375 93.713539 625.367371 62.927586 625.367371 L 0.2719 625.367371 Z M 32.792141 653.985291 L 59.025181 653.985291 C 72.466957 653.985291 80.488541 662.006958 80.488541 673.931152 C 80.488541 685.855103 72.466957 693.876831 59.025181 693.876831 L 32.792141 693.876831 Z"/>
    </g>
</svg>
