<svg fill="none" xmlns="http://www.w3.org/2000/svg" viewBox="0 0 202 25" class="h-[1.375rem] lg:h-6">
  <path
    d="M55.823 2.698v8.348H66.01V2.698h3.229V22.41H66.01v-8.42H55.823v8.42h-3.256V2.698h3.256ZM104.06 14.609l4.157 7.8h-3.681l-3.806-7.6h-5.836v7.6h-3.26V2.699h10.628c3.65 0 6.262 2.364 6.262 6.055a5.772 5.772 0 0 1-1.175 3.738 5.742 5.742 0 0 1-3.289 2.118Zm-9.166-2.73h7.03c2.052 0 3.344-1.21 3.344-3.117 0-1.905-1.292-3.116-3.344-3.116h-7.03v6.233ZM119.617 2.698c5.249 0 8.087 2.672 8.087 8.015v3.673c0 5.343-2.838 8.015-8.087 8.015h-8.509V2.698h8.509Zm-5.254 16.755h5.281c3.286 0 4.831-1.688 4.831-4.956v-3.896c0-3.263-1.572-4.955-4.831-4.955h-5.281v13.807ZM133.797 2.698v16.755h11.848v2.957h-15.099V2.698h3.251ZM177.274 2.698c3.397 0 5.773 2 5.773 5.21 0 2.845-1.825 4.007-3.259 4.42v.281c.99.24 1.866.818 2.477 1.636.61.818.917 1.823.867 2.844 0 3.321-2.447 5.343-5.814 5.343H166.42V2.698h10.854Zm-7.598 8.348h7.26c1.826 0 3.007-1.068 3.007-2.702s-1.208-2.672-3.007-2.672h-7.26v5.375Zm0 8.42h7.318c1.879 0 3.033-1.068 3.033-2.73 0-1.66-1.154-2.76-3.108-2.76h-7.243v5.49ZM42.327 11.104l-.929-.222c-2.607-.539-4.12-1.211-4.12-3.059 0-1.745 1.5-2.747 4.111-2.747 2.958 0 4.521 1.224 4.521 3.535v.517h3.34V8.61c0-3.825-3.011-6.202-7.86-6.202-4.61 0-7.452 2.12-7.452 5.52 0 3.563 2.713 4.823 6.79 5.647l.923.196c2.936.614 4.526 1.295 4.526 3.143 0 1.92-1.776 3.117-4.672 3.117-3.233 0-5.014-1.456-5.014-4.097v-.15h-3.34v.16c0 4.171 3.202 6.767 8.354 6.767 4.792 0 7.994-2.36 7.994-5.868.022-3.046-2.132-4.76-7.172-5.74ZM194.19 11.104l-.924-.222c-2.611-.539-4.121-1.211-4.121-3.059 0-1.745 1.496-2.747 4.112-2.747 2.953 0 4.516 1.224 4.516 3.535v.517h3.322V8.61c0-3.825-3.011-6.202-7.856-6.202-4.578 0-7.434 2.12-7.434 5.52 0 3.563 2.713 4.823 6.786 5.647l.928.196c2.935.614 4.525 1.295 4.525 3.143 0 1.92-1.776 3.117-4.672 3.117-3.233 0-5.013-1.456-5.013-4.097v-.15h-3.34v.16c0 4.171 3.197 6.767 8.353 6.767 4.792 0 7.994-2.36 7.994-5.868.018-3.046-2.132-4.76-7.176-5.74ZM76.913 14.862l3.53-12.164H77.25L71.464 22.41h3.344l1.319-4.591.786-2.957Z"
    fill="#F8F8F8"></path>
  <path
    d="m83.965 14.862-3.53-12.164h3.192L89.41 22.41h-3.34l-1.319-4.591-.786-2.957ZM152.045 14.862l3.53-12.164h-3.193L146.6 22.41h3.34l1.319-4.591.786-2.957Z"
    fill="#F8F8F8"></path>
  <path d="m159.097 14.862-3.53-12.164h3.193l5.786 19.712h-3.344l-1.319-4.591-.786-2.957Z" fill="#F8F8F8"></path>
  <path fill-rule="evenodd" clip-rule="evenodd"
    d="M18.732.806.364 9.716v9.505h9.481L18.732.806Zm-7.763 23.496 13.243-6.42v-6.853h-6.835L10.97 24.302Z"
    fill="#F8F8F8"></path>
</svg>