<?xml version="1.0" encoding="UTF-8"?>
<!-- Generated by Pixelmator Pro 3.2.3 -->
<svg width="1794" height="806" viewBox="0 0 1794 806" xmlns="http://www.w3.org/2000/svg" xmlns:xlink="http://www.w3.org/1999/xlink">
    <path id="Path" fill="#ffffff" stroke="none" d="M 782.23999 653 L 715.223999 653 L 715.223999 153 L 782.23999 153 L 782.23999 653 Z"/>
    <path id="path1" fill="#ffffff" stroke="none" d="M 1794 653 L 1726.97998 653 L 1726.97998 153 L 1794 153 L 1794 653 Z"/>
    <path id="path2" fill="#ffffff" stroke="none" d="M 905.265991 653 L 838.307983 653 L 838.307983 153 L 905.265991 153 L 905.265991 653 Z"/>
    <path id="path3" fill="#ffffff" stroke="none" d="M 1214.550049 653 L 1150.969971 653 L 1150.219971 652.243042 L 969.197021 465.915009 L 1023.929993 413.51001 L 1214.550049 615.036011 L 1214.550049 653 Z"/>
    <path id="path4" fill="#ffffff" stroke="none" d="M 939.620972 446.757996 L 939.620972 353.244995 L 1150.390015 153 L 1207.969971 153 L 1207.969971 190.265564 L 1207.160034 191.022583 L 939.620972 446.757996 Z"/>
    <path id="path5" fill="#ffffff" stroke="none" d="M 317.088013 653 L 260.553009 653 L 260.553009 617.539001 L 595.398987 153.174622 L 661.192017 153.174622 L 661.192017 447.864014 L 594.176025 447.864014 L 594.176025 263.86499 L 317.088013 653 Z"/>
    <path id="path6" fill="#ffffff" stroke="none" d="M 661.190979 653 L 594.176025 653 L 594.176025 545.104004 L 434.81601 545.104004 L 482.153015 482.044006 L 661.366028 482.044006 L 661.190979 653 Z"/>
    <path id="path7" fill="#ffffff" stroke="none" d="M 124.889999 216.060486 L -0 216.060486 L -0 153 L 124.889999 153 L 124.889999 216.060486 Z"/>
    <path id="path8" fill="#ffffff" stroke="none" d="M 226.259003 653 L 159.184998 653 L 159.184998 153 L 364.424988 153 L 364.424988 216.060486 L 226.259003 216.060486 L 226.259003 653 Z"/>
    <path id="path9" fill="#ffffff" stroke="none" d="M 1293.040039 653 L 1237.430054 653 L 1237.430054 613.05603 L 1237.430054 612.531982 L 1408.439941 226.948792 L 1445.98999 307.536011 L 1445.469971 308.641998 L 1293.040039 653 Z"/>
    <path id="path10" fill="#ffffff" stroke="none" d="M 1617.109985 445.069 L 1542.98999 445.069 L 1427.359985 185.199768 L 1441.680054 153 L 1487.160034 153 L 1617.109985 445.069 Z"/>
    <path id="path11" fill="#ffffff" stroke="none" d="M 1692.459961 653 L 1635.569946 653 L 1586.26001 542.368042 L 1379.72998 542.368042 L 1407.160034 479.424011 L 1632.430054 479.424011 L 1692.459961 614.510986 L 1692.459961 653 Z"/>
</svg>
