<svg width="490" height="125" viewBox="0 0 490 125" fill="none" xmlns="http://www.w3.org/2000/svg">
<path d="M28.8101 5.51197C22.7301 12.282 22.0101 23.682 26.6801 39.382C30.6801 52.822 37.7401 66.202 41.6001 72.982C42.2001 74.012 43.3601 75.972 44.4001 77.732C45.2501 79.172 44.0701 80.952 42.4101 80.722C38.1301 80.122 31.6101 79.152 28.3301 78.362C20.8801 76.482 13.2801 74.052 8.14005 69.102C5.92005 66.882 4.92005 64.472 5.20005 61.922C5.54005 58.712 7.98005 55.442 11.8801 52.942C14.6301 51.122 18.0101 49.492 22.2101 47.952L20.8601 43.962C15.2001 45.842 8.80005 48.412 4.20005 53.162C-1.37995 58.782 -1.39995 67.072 4.14005 72.862C10.3501 79.262 18.3701 82.022 26.7301 84.502C32.2901 86.042 38.2301 87.232 44.8701 88.132C48.6401 88.912 52.5601 86.422 53.4201 82.692C53.8501 81.022 53.6401 79.182 52.8501 77.632V77.602C52.8501 77.602 52.7901 77.522 52.7701 77.472C52.7301 77.392 52.7001 77.342 52.6901 77.312L51.1401 74.512C43.8301 61.242 35.2001 43.702 33.3101 25.642C32.7201 17.872 34.0701 13.132 37.3101 11.572C41.2201 9.68197 47.7601 12.592 55.2501 19.542L62.5801 11.252C59.8701 8.96197 56.1701 6.04197 51.6101 3.71197C47.8301 1.69197 43.6501 0.631969 39.8401 0.721969C35.4301 0.831969 31.6201 2.49197 28.8101 5.51197Z" fill="#F72519"/>
<path d="M36.0901 124.322C45.0001 126.202 55.2201 121.122 66.4901 109.232C76.1301 99.052 84.1901 86.242 88.1301 79.512C88.7301 78.482 89.8401 76.492 90.8401 74.712C91.6601 73.252 93.8001 73.392 94.4201 74.942C96.0401 78.942 98.4601 85.082 99.4201 88.312C101.51 95.702 103.21 103.492 101.5 110.422C100.69 113.452 99.1001 115.522 96.7501 116.552C93.8001 117.852 89.7501 117.382 85.6401 115.252C82.6901 113.782 79.5901 111.672 76.1501 108.792L73.3801 111.952C77.8401 115.912 83.2601 120.172 89.6801 121.782C97.3401 123.802 104.52 119.682 106.77 111.982C109.21 103.402 107.59 95.082 105.55 86.602C104.11 81.012 102.17 75.282 99.6301 69.072C98.4201 65.412 94.3101 63.272 90.6401 64.382C88.9801 64.842 87.4901 65.952 86.5501 67.412L86.5301 67.442C86.5301 67.442 86.4801 67.522 86.4501 67.562C86.4001 67.642 86.3701 67.682 86.3501 67.712L84.7001 70.462C76.8701 83.422 65.9901 99.672 51.2901 110.332C44.8501 114.732 40.0801 115.932 37.1001 113.902C33.5101 111.462 32.7601 104.342 35.0301 94.382L24.1801 92.182C23.5501 95.672 22.8701 100.342 23.1301 105.452C23.2701 109.742 24.4401 113.892 26.4301 117.142C28.7301 120.902 32.0701 123.382 36.0901 124.302V124.322Z" fill="#F72519"/>
<path d="M134.89 57.022C132.06 48.372 122.55 42.052 106.62 38.242C92.9801 34.982 77.8601 34.412 70.0601 34.362C68.8701 34.362 66.5901 34.392 64.5501 34.412C62.8801 34.432 61.9301 32.512 62.9601 31.192C65.6201 27.792 69.7201 22.622 72.0401 20.172C77.3901 14.662 83.2901 9.29202 90.1501 7.31202C93.1801 6.49202 95.7701 6.84202 97.8401 8.36202C100.44 10.262 102.06 14.002 102.27 18.632C102.47 21.922 102.2 25.662 101.42 30.072L105.55 30.892C106.75 25.052 107.73 18.222 105.91 11.862C103.83 4.22202 96.6701 0.0520184 88.8801 1.96202C80.2301 4.14202 73.8401 9.70202 67.5101 15.702C63.3901 19.742 59.4001 24.292 55.2901 29.602C52.7301 32.472 52.9301 37.112 55.7301 39.732C56.9601 40.942 58.6601 41.682 60.4001 41.762H60.4301C60.4301 41.762 60.5201 41.762 60.5801 41.762C60.6701 41.762 60.7301 41.762 60.7601 41.762L63.9601 41.822C79.1001 42.122 98.6101 43.422 115.19 50.812C122.22 54.182 125.64 57.722 125.37 61.312C125.05 65.642 119.26 69.852 109.5 72.862L113.02 83.352C116.36 82.152 120.74 80.412 125.04 77.622C128.69 75.362 131.7 72.272 133.51 68.922C135.62 65.052 136.09 60.922 134.88 56.972L134.89 57.022Z" fill="#F72519"/>
<path d="M191.12 93.262C188.85 93.262 187.07 92.832 185.8 91.972C184.52 91.112 183.61 89.982 183.06 88.562C182.51 87.152 182.23 85.642 182.23 84.032V54.692H176.58V48.542H182.4L183.73 36.322H189.55V48.542H197.78V54.692H189.55V82.952C189.55 84.342 189.8 85.372 190.3 86.072C190.8 86.762 191.74 87.112 193.13 87.112H197.78V91.932C197.22 92.212 196.56 92.432 195.78 92.602C195 92.772 194.21 92.922 193.41 93.062C192.61 93.202 191.84 93.272 191.12 93.272V93.262Z" fill="#F72519"/>
<path d="M201.01 92.262L216.72 69.902L201.76 48.542H210.57L221.21 64.172H221.63L232.27 48.542H240.58L225.62 69.652L241.41 92.262H232.68L221.21 75.392H220.79L209.32 92.262H201.01Z" fill="#F72519"/>
<path d="M249.64 92.2619V35.2419H290.04V42.0619H257.54V60.3519H287.13V67.0819H257.54V92.2619H249.64Z" fill="#F72519"/>
<path d="M312.64 93.262C308.43 93.262 305.05 92.182 302.5 90.022C299.95 87.862 298.68 84.092 298.68 78.722V48.552H305.99V77.722C305.99 79.552 306.21 81.042 306.65 82.212C307.09 83.372 307.73 84.292 308.56 84.952C309.39 85.612 310.37 86.092 311.51 86.362C312.64 86.642 313.88 86.772 315.21 86.772C317.32 86.772 319.26 86.272 321.03 85.272C322.8 84.272 324.26 82.822 325.39 80.912C326.52 79.002 327.09 76.772 327.09 74.222V48.542H334.4V92.262H328.5L327.83 85.692H327.25C326.09 87.462 324.77 88.902 323.3 90.012C321.83 91.122 320.2 91.942 318.4 92.462C316.6 92.992 314.67 93.252 312.62 93.252L312.64 93.262Z" fill="#F72519"/>
<path d="M361.1 93.2619C358.11 93.2619 355.47 92.9519 353.2 92.3519C350.93 91.7419 349.04 90.8519 347.55 89.6919C346.06 88.5319 344.92 87.1419 344.14 85.5319C343.36 83.9219 342.98 82.0919 342.98 80.0419V79.2519C342.98 79.0019 343.01 78.792 343.06 78.632H350.29C350.24 78.8519 350.21 79.0519 350.21 79.2119V79.7119C350.26 81.6519 350.78 83.1719 351.75 84.2819C352.72 85.3919 354.06 86.1619 355.78 86.6119C357.5 87.0519 359.41 87.2719 361.51 87.2719C363.34 87.2719 365.03 87.0419 366.58 86.5619C368.13 86.0919 369.36 85.3719 370.28 84.4019C371.19 83.4319 371.65 82.202 371.65 80.702C371.65 78.872 371.05 77.4719 369.86 76.5019C368.67 75.5319 367.1 74.7719 365.16 74.2119C363.22 73.6619 361.2 73.0819 359.09 72.4619C357.32 71.9619 355.54 71.4119 353.77 70.8019C352 70.1919 350.4 69.4419 348.99 68.5619C347.58 67.6719 346.44 66.5219 345.58 65.1119C344.72 63.7019 344.29 61.9119 344.29 59.7519C344.29 57.8119 344.69 56.0919 345.49 54.6019C346.29 53.1019 347.44 51.8319 348.94 50.7819C350.44 49.7319 352.25 48.9419 354.39 48.4119C356.52 47.8819 358.89 47.6219 361.5 47.6219C364.27 47.6219 366.7 47.9219 368.77 48.5319C370.85 49.1419 372.58 50.0019 373.97 51.1119C375.35 52.2219 376.38 53.4819 377.04 54.8919C377.71 56.3019 378.04 57.8119 378.04 59.4219V60.3819C378.04 60.6819 378.01 60.9219 377.96 61.0919H370.81V60.1819C370.81 59.0719 370.52 58.0119 369.94 56.9819C369.36 55.9619 368.36 55.1219 366.95 54.4919C365.54 53.8519 363.58 53.5319 361.09 53.5319C359.48 53.5319 358.1 53.6519 356.93 53.9019C355.77 54.1519 354.8 54.5419 354.02 55.0619C353.24 55.5919 352.66 56.2019 352.28 56.8919C351.89 57.5819 351.7 58.3719 351.7 59.2619C351.7 60.7019 352.17 61.8119 353.11 62.5819C354.05 63.3619 355.31 63.9919 356.89 64.4919C358.47 64.9919 360.17 65.5419 362 66.1519C363.94 66.7119 365.92 67.2719 367.94 67.8519C369.96 68.4319 371.82 69.1719 373.51 70.0519C375.2 70.9419 376.56 72.1419 377.58 73.6719C378.6 75.1919 379.12 77.202 379.12 79.702C379.12 82.032 378.68 84.0519 377.79 85.7719C376.9 87.492 375.64 88.9019 374.01 90.0119C372.38 91.1219 370.46 91.9419 368.28 92.4619C366.09 92.9919 363.69 93.2519 361.09 93.2519L361.1 93.2619Z" fill="#F72519"/>
<path d="M388.2 40.312V32.162H395.51V40.312H388.2ZM388.2 92.262V48.542H395.51V92.262H388.2Z" fill="#F72519"/>
<path d="M424.85 93.262C420.42 93.262 416.69 92.442 413.67 90.812C410.65 89.182 408.35 86.672 406.77 83.292C405.19 79.912 404.4 75.622 404.4 70.412C404.4 65.202 405.19 60.842 406.77 57.492C408.35 54.142 410.65 51.642 413.67 50.012C416.69 48.382 420.42 47.562 424.85 47.562C429.28 47.562 433.01 48.382 436.03 50.012C439.05 51.642 441.33 54.142 442.89 57.492C444.44 60.842 445.22 65.152 445.22 70.412C445.22 75.672 444.44 79.912 442.89 83.292C441.34 86.672 439.05 89.182 436.03 90.812C433.01 92.442 429.28 93.262 424.85 93.262ZM424.85 87.112C427.68 87.112 430.03 86.562 431.91 85.452C433.79 84.342 435.22 82.612 436.19 80.252C437.16 77.902 437.64 74.922 437.64 71.312V69.482C437.64 65.822 437.15 62.832 436.19 60.502C435.22 58.172 433.79 56.462 431.91 55.352C430.03 54.242 427.67 53.692 424.85 53.692C422.03 53.692 419.65 54.252 417.74 55.352C415.83 56.462 414.4 58.182 413.46 60.502C412.52 62.832 412.05 65.822 412.05 69.482V71.312C412.05 74.912 412.52 77.892 413.46 80.252C414.4 82.612 415.83 84.342 417.74 85.452C419.65 86.562 422.02 87.112 424.85 87.112Z" fill="#F72519"/>
<path d="M454.28 92.262V48.542H460.18L460.84 55.112H461.42C462.58 53.342 463.9 51.902 465.37 50.792C466.84 49.682 468.47 48.872 470.27 48.342C472.07 47.812 474 47.552 476.05 47.552C478.82 47.552 481.25 48.022 483.32 48.962C485.4 49.902 487.03 51.432 488.22 53.532C489.41 55.642 490.01 58.492 490.01 62.092V92.262H482.7V63.092C482.7 61.262 482.46 59.772 481.99 58.602C481.52 57.432 480.88 56.522 480.08 55.862C479.28 55.202 478.31 54.732 477.17 54.452C476.03 54.172 474.77 54.042 473.39 54.042C471.34 54.042 469.4 54.542 467.57 55.542C465.74 56.542 464.29 57.982 463.21 59.862C462.13 61.742 461.59 63.992 461.59 66.592V92.272H454.28V92.262Z" fill="#F72519"/>
</svg>
