<svg xmlns="http://www.w3.org/2000/svg" width="173" height="24" fill="none" viewBox="0 0 173 24"><g fill="#FF6370" clip-path="url(#clip0_2028_114)"><path d="M46.633.857h-9.878v22.255h9.878c12.29-.249 12.291-22.007 0-22.255zm-.111 16.623H45.24V7.353h1.282V17.48zM90.697 23.134l-.006-.02H81.16l-1.52-6.379h-.594v6.38h-9.033V.86h9.032V7.26h.595L81.164.861h9.533L88.598 7.43c-.778 2.439-2.986 4.085-5.472 4.085h-7.574v.927h7.574c2.487 0 4.694 1.653 5.472 4.101l2.099 6.592z"></path><path d="M110.148 3.622a11.811 11.811 0 00-8.376-3.469c-3.27 0-6.233 1.325-8.376 3.47a11.807 11.807 0 00-3.468 8.375c0 6.541 5.302 11.843 11.845 11.843a11.81 11.81 0 008.376-3.469 11.804 11.804 0 003.468-8.374c0-3.272-1.325-6.233-3.468-8.376h-.001zm-7.565 13.861h-1.284V7.356h1.284v10.127zM67.46 11.51h-9.844v11.601h9.844v-11.6zM67.462 5.653a4.923 4.923 0 10-9.846 0 4.923 4.923 0 009.846 0zM34.205 11.51H24.36v11.601h9.845v-11.6zM147.988.861h-8.959l-7.467 22.252h7.493c1.441 0 2.719-.92 3.178-2.284l1.275-3.802 1.278 3.802a3.35 3.35 0 003.176 2.284h7.495L147.988.861zm-3.348 12.62c-.314.313-.765.488-1.255.426a1.498 1.498 0 01.194-2.987 1.5 1.5 0 011.061 2.56zM34.205 5.652a4.922 4.922 0 10-9.845 0 4.922 4.922 0 009.845 0zM23.896.857L16.428 23.11H7.469L0 .857h7.266a2.563 2.563 0 012.43 1.747l2.327 6.932 2.327-6.932A2.558 2.558 0 0116.779.857h7.117z"></path><path d="M15.374 12.453v.002h-.05c.018 0 .034 0 .05-.002zM136.394.861l-7.468 22.252h-8.959L112.498.861h7.266a2.562 2.562 0 012.429 1.747l2.328 6.932 2.327-6.932A2.556 2.556 0 01129.277.86h7.117z"></path><path d="M122.403 12.453v.002h-.049c.017 0 .034 0 .049-.002z"></path><path d="M122.373 12.455c.018 0 .034 0 .05-.002l-.05.002zM163.449 3.637c0-.041.059-.044.064-.004a8.946 8.946 0 009.42 7.727V.86s-9.152.001-9.251.005c-5.918.161-9.661 5.084-9.661 11.133 0 6.049 3.743 10.95 9.661 11.112.099.002 9.251.004 9.251.004V12.637a8.946 8.946 0 00-9.42 7.727c-.005.04-.064.037-.064-.004V3.637z"></path></g><defs><clipPath id="clip0_2028_114"><path fill="#fff" d="M0 0H172.952V24H0z"></path></clipPath></defs></svg>