<?xml version="1.0" encoding="UTF-8"?>
<!-- Generated by Pixelmator Pro 3.3.2 -->
<svg width="911" height="226" viewBox="0 0 911 226" xmlns="http://www.w3.org/2000/svg" xmlns:xlink="http://www.w3.org/1999/xlink">
    <g id="Group">
        <g id="Group-copy-2">
            <path id="Ellipse" fill="none" stroke="#ffffff" stroke-width="7.852514" d="M 116.486328 214 C 90.992287 214 67.610962 205.210236 49.375 190.580078 C 39.162525 182.386917 30.563078 172.362015 24.111328 161.023438 C 21.044247 155.633255 18.461479 149.946014 16.421875 144.017578 C 12.906801 133.800262 11 122.866234 11 111.5 C 11 87.013031 19.839252 64.529388 34.583984 46.900391 C 53.924488 23.777115 83.43116 9 116.486328 9 C 149.541489 9 179.0466 23.777115 198.386719 46.900391 C 213.131042 64.529388 221.970703 87.013031 221.970703 111.5 C 221.970703 162.4086 183.771439 204.65242 133.707031 212.640625 C 128.103119 213.534744 122.350433 214 116.486328 214 Z"/>
        </g>
        <path id="WEB3-Security-Summit" fill="#ffffff" fill-rule="evenodd" stroke="none" d="M 295.640625 181.693359 C 290.661285 181.693359 286.491241 180.922821 283.128906 179.382813 C 279.766541 177.842804 277.238922 175.699448 275.544922 172.953125 C 273.850922 170.206833 272.977112 167.036667 272.925781 163.443359 L 283.320313 163.443359 C 283.422974 166.574661 284.476501 169.090912 286.478516 170.990234 C 288.48053 172.889587 291.662048 173.839844 296.025391 173.839844 C 299.516083 173.839844 302.315247 173.197388 304.419922 171.914063 C 306.524597 170.630707 307.576172 168.680466 307.576172 166.0625 C 307.576172 164.060532 307.151672 162.494568 306.304688 161.365234 C 305.457672 160.235901 304.02182 159.323853 301.994141 158.630859 C 299.966461 157.937866 297.180695 157.308807 293.638672 156.744141 C 287.221954 155.717468 282.371277 153.998627 279.085938 151.585938 C 275.800598 149.173248 274.158203 145.553772 274.158203 140.728516 C 274.158203 135.646576 276.045349 131.61795 279.818359 128.640625 C 283.59137 125.663269 288.812958 124.173828 295.486328 124.173828 C 299.84967 124.173828 303.585724 124.86792 306.691406 126.253906 C 309.797089 127.639923 312.196594 129.563324 313.890625 132.027344 C 315.584625 134.491333 316.431641 137.391815 316.431641 140.728516 L 306.189453 140.728516 C 306.035461 137.699829 304.932251 135.480011 302.878906 134.068359 C 300.825562 132.656677 298.23291 131.951172 295.101563 131.951172 C 291.867554 131.951172 289.326508 132.631866 287.478516 133.992188 C 285.630493 135.352539 284.707031 137.161224 284.707031 139.419922 C 284.707031 141.319244 285.19458 142.768524 286.169922 143.769531 C 287.145233 144.770538 288.684387 145.554474 290.789063 146.119141 C 292.893738 146.683807 295.641296 147.247833 299.029297 147.8125 C 301.441986 148.223175 303.789886 148.737518 306.074219 149.353516 C 308.358582 149.969513 310.412048 150.879608 312.234375 152.085938 C 314.056732 153.292297 315.507935 154.934662 316.585938 157.013672 C 317.66394 159.092682 318.201172 161.775208 318.201172 165.060547 C 318.201172 169.98851 316.302582 173.992294 312.503906 177.072266 C 308.705231 180.152237 303.084015 181.693359 295.640625 181.693359 Z M 350.773438 181.693359 C 345.845398 181.693359 341.635223 180.808105 338.144531 179.037109 C 334.65387 177.266113 331.984741 174.749863 330.136719 171.490234 C 328.288727 168.230576 327.365234 164.368301 327.365234 159.902344 L 327.365234 124.867188 L 337.451172 124.867188 L 337.451172 159.824219 C 337.451172 164.084854 338.646179 167.281815 341.033203 169.412109 C 343.420227 171.542404 346.691589 172.607422 350.849609 172.607422 C 355.264282 172.607422 358.589264 171.463974 360.822266 169.179688 C 363.055267 166.89537 364.171875 163.77684 364.171875 159.824219 L 364.171875 124.867188 L 374.257813 124.867188 L 374.257813 159.902344 C 374.257813 164.419632 373.307556 168.308731 371.408203 171.568359 C 369.50885 174.827988 366.814911 177.328857 363.324219 179.074219 C 359.833527 180.81955 355.650116 181.693359 350.773438 181.693359 Z M 386.654297 181 L 386.654297 124.867188 L 402.132813 124.867188 L 415.683594 164.675781 L 416.146484 164.675781 L 429.621094 124.867188 L 445.175781 124.867188 L 445.175781 181 L 435.242188 181 L 435.242188 156.822266 L 435.396484 135.570313 L 434.857422 135.570313 L 419.996094 181 L 411.910156 181 L 396.972656 135.570313 L 396.357422 135.570313 L 396.587891 156.898438 L 396.587891 181 L 386.654297 181 Z M 458.033203 181 L 458.033203 124.867188 L 473.511719 124.867188 L 487.0625 164.675781 L 487.525391 164.675781 L 501 124.867188 L 516.554688 124.867188 L 516.554688 181 L 506.621094 181 L 506.621094 156.822266 L 506.775391 135.570313 L 506.236328 135.570313 L 491.375 181 L 483.289063 181 L 468.351563 135.570313 L 467.736328 135.570313 L 467.966797 156.898438 L 467.966797 181 L 458.033203 181 Z M 529.412109 181 L 529.412109 124.867188 L 539.576172 124.867188 L 539.576172 181 L 529.412109 181 Z M 563.755859 181 L 563.755859 133.722656 L 546.660156 133.722656 L 546.660156 124.867188 L 591.320313 124.867188 L 591.320313 133.722656 L 573.919922 133.722656 L 573.919922 181 L 563.755859 181 Z M 472.433594 91.693359 C 468.378235 91.693359 464.90033 90.949585 462 89.460938 C 459.09964 87.972229 456.853058 85.878601 455.261719 83.183594 C 453.67038 80.488586 452.850159 77.370178 452.798828 73.828125 L 462.345703 73.828125 C 462.294373 76.70282 463.192993 79.025879 465.041016 80.796875 C 466.889038 82.567871 469.353577 83.453125 472.433594 83.453125 C 475.513611 83.453125 477.976196 82.646301 479.824219 81.029297 C 481.672241 79.412292 482.597656 77.217346 482.597656 74.445313 C 482.597656 71.724609 481.762085 69.671204 480.09375 68.285156 C 478.425415 66.89917 476.257202 66.205078 473.587891 66.205078 L 467.042969 66.205078 L 467.042969 58.890625 L 472.894531 58.890625 C 475.769165 58.890625 477.964172 58.133484 479.478516 56.619141 C 480.992859 55.104797 481.75 53.19281 481.75 50.882813 C 481.75 48.367493 480.916382 46.430664 479.248047 45.070313 C 477.579712 43.709961 475.359924 43.029297 472.587891 43.029297 C 469.559204 43.029297 467.18457 43.876282 465.464844 45.570313 C 463.745178 47.264343 462.859924 49.549194 462.808594 52.423828 L 453.259766 52.423828 C 453.311096 48.830505 454.144684 45.72345 455.761719 43.105469 C 457.378723 40.487427 459.663544 38.447388 462.615234 36.984375 C 465.566925 35.521362 469.019958 34.789063 472.972656 34.789063 C 476.720032 34.789063 479.991394 35.393311 482.789063 36.599609 C 485.586731 37.805969 487.756836 39.513367 489.296875 41.720703 C 490.836853 43.928101 491.605469 46.545532 491.605469 49.574219 C 491.605469 52.602905 490.848328 55.220398 489.333984 57.427734 C 487.819641 59.635071 485.804443 61.176208 483.289063 62.048828 L 483.289063 62.433594 C 486.215088 63.152283 488.475098 64.677979 490.066406 67.013672 C 491.657776 69.349304 492.453125 72.110291 492.453125 75.292969 C 492.453125 78.578308 491.60614 81.451965 489.912109 83.916016 C 488.21814 86.380005 485.870178 88.291992 482.867188 89.652344 C 479.864136 91.012634 476.386292 91.693359 472.433594 91.693359 Z M 538.806641 91.693359 C 533.827271 91.693359 529.657288 90.922852 526.294922 89.382813 C 522.932556 87.842834 520.404907 85.699463 518.710938 82.953125 C 517.016907 80.206787 516.143127 77.036743 516.091797 73.443359 L 526.486328 73.443359 C 526.588989 76.574768 527.642517 79.090881 529.644531 80.990234 C 531.646545 82.889587 534.828064 83.839844 539.191406 83.839844 C 542.682068 83.839844 545.481262 83.197388 547.585938 81.914063 C 549.690613 80.630737 550.742188 78.680481 550.742188 76.0625 C 550.742188 74.060486 550.317688 72.494568 549.470703 71.365234 C 548.623718 70.235901 547.187866 69.323914 545.160156 68.630859 C 543.132507 67.937866 540.346741 67.308838 536.804688 66.744141 C 530.388 65.717468 525.537292 63.998596 522.251953 61.585938 C 518.966614 59.173279 517.324219 55.553894 517.324219 50.728516 C 517.324219 45.646484 519.211365 41.617981 522.984375 38.640625 C 526.757385 35.663269 531.978943 34.173828 538.652344 34.173828 C 543.015686 34.173828 546.751709 34.86792 549.857422 36.253906 C 552.963074 37.639893 555.36261 39.563293 557.056641 42.027344 C 558.75061 44.491333 559.597656 47.391846 559.597656 50.728516 L 549.355469 50.728516 C 549.201477 47.699829 548.098267 45.480042 546.044922 44.068359 C 543.991577 42.656677 541.398926 41.951172 538.267578 41.951172 C 535.033569 41.951172 532.492493 42.631836 530.644531 43.992188 C 528.796509 45.352539 527.873047 47.161255 527.873047 49.419922 C 527.873047 51.319275 528.360596 52.768494 529.335938 53.769531 C 530.311279 54.770508 531.850403 55.554443 533.955078 56.119141 C 536.059753 56.683777 538.807312 57.247864 542.195313 57.8125 C 544.607971 58.223206 546.955933 58.737488 549.240234 59.353516 C 551.524597 59.969482 553.578064 60.879639 555.400391 62.085938 C 557.222717 63.292297 558.671997 64.934631 559.75 67.013672 C 560.828003 69.092651 561.367188 71.775208 561.367188 75.060547 C 561.367188 79.988586 559.468628 83.992249 555.669922 87.072266 C 551.871277 90.152283 546.25 91.693359 538.806641 91.693359 Z M 644.451172 91.693359 C 638.907166 91.693359 634.043091 90.538513 629.859375 88.228516 C 625.67572 85.918457 622.415771 82.620361 620.080078 78.333984 C 617.744385 74.047607 616.576172 68.900513 616.576172 62.894531 C 616.576172 56.888489 617.744385 51.743408 620.080078 47.457031 C 622.415771 43.170715 625.67572 39.883911 629.859375 37.599609 C 634.043091 35.315247 638.907166 34.173828 644.451172 34.173828 C 649.173889 34.173828 653.370667 34.995972 657.041016 36.638672 C 660.711365 38.281372 663.713135 40.577637 666.048828 43.529297 C 668.384521 46.481018 669.80896 49.958862 670.322266 53.962891 L 659.927734 53.962891 C 659.260437 50.728882 657.541565 48.084595 654.769531 46.03125 C 651.997559 43.977905 648.557861 42.951172 644.451172 42.951172 C 639.163818 42.951172 634.953613 44.658569 631.822266 48.072266 C 628.690918 51.485962 627.125 56.426453 627.125 62.894531 C 627.125 69.413879 628.690918 74.381226 631.822266 77.794922 C 634.953613 81.208618 639.163818 82.914063 644.451172 82.914063 C 648.506531 82.914063 651.946228 81.900757 654.769531 79.873047 C 657.592896 77.845398 659.311768 75.162842 659.927734 71.826172 L 670.322266 71.826172 C 669.860291 75.830139 668.462585 79.321472 666.126953 82.298828 C 663.79126 85.276184 660.762695 87.585815 657.041016 89.228516 C 653.319275 90.871216 649.122559 91.693359 644.451172 91.693359 Z M 702.509766 91.693359 C 697.581787 91.693359 693.371582 90.808105 689.880859 89.037109 C 686.390198 87.266113 683.721069 84.749939 681.873047 81.490234 C 680.025024 78.230591 679.101563 74.368408 679.101563 69.902344 L 679.101563 34.867188 L 689.1875 34.867188 L 689.1875 69.824219 C 689.1875 74.0849 690.380554 77.281738 692.767578 79.412109 C 695.154602 81.54248 698.427917 82.607422 702.585938 82.607422 C 707.00061 82.607422 710.323608 81.46405 712.556641 79.179688 C 714.789673 76.895386 715.90625 73.776917 715.90625 69.824219 L 715.90625 34.867188 L 725.994141 34.867188 L 725.994141 69.902344 C 725.994141 74.419739 725.043884 78.308655 723.144531 81.568359 C 721.245178 84.828064 718.551208 87.328857 715.060547 89.074219 C 711.569885 90.819519 707.386475 91.693359 702.509766 91.693359 Z M 282.78125 91 L 270.615234 34.867188 L 281.857422 34.867188 L 287.632813 64.511719 L 290.404297 79.835938 L 290.943359 79.835938 L 301.261719 34.867188 L 313.890625 34.867188 L 324.361328 79.988281 L 324.900391 79.988281 L 327.519531 64.589844 L 333.140625 34.867188 L 344.382813 34.867188 L 332.216797 91 L 318.125 91 L 307.806641 48.341797 L 307.267578 48.341797 L 296.796875 91 L 282.78125 91 Z M 351.466797 91 L 351.466797 34.867188 L 391.505859 34.867188 L 391.505859 43.644531 L 361.630859 43.644531 L 361.630859 58.275391 L 387.732422 58.275391 L 387.732422 66.513672 L 361.630859 66.513672 L 361.630859 82.222656 L 391.660156 82.222656 L 391.660156 91 L 351.466797 91 Z M 401.900391 91 L 401.900391 34.867188 L 428.619141 34.867188 C 434.265839 34.867188 438.514282 36.188354 441.363281 38.832031 C 444.212311 41.475708 445.636719 44.953613 445.636719 49.265625 C 445.636719 52.19165 444.906372 54.784241 443.443359 57.042969 C 441.980347 59.301636 439.810211 60.815918 436.935547 61.585938 L 436.935547 62.125 C 440.272217 62.792358 442.813263 64.320007 444.558594 66.707031 C 446.303955 69.094055 447.177734 71.877869 447.177734 75.060547 C 447.177734 80.245239 445.445496 84.199219 441.980469 86.919922 C 438.515472 89.640625 433.676208 91 427.464844 91 L 401.900391 91 Z M 570.992188 91 L 570.992188 34.867188 L 611.033203 34.867188 L 611.033203 43.644531 L 581.15625 43.644531 L 581.15625 58.275391 L 607.259766 58.275391 L 607.259766 66.513672 L 581.15625 66.513672 L 581.15625 82.222656 L 611.1875 82.222656 L 611.1875 91 L 570.992188 91 Z M 738.390625 91 L 738.390625 34.867188 L 765.341797 34.867188 C 771.655823 34.867188 776.403259 36.23999 779.585938 38.986328 C 782.768616 41.732666 784.359375 45.621704 784.359375 50.652344 C 784.359375 54.040405 783.500916 56.940796 781.78125 59.353516 C 780.061584 61.766174 777.660095 63.356934 774.580078 64.126953 L 774.580078 64.666016 C 777.506104 65.179321 779.649414 66.334229 781.009766 68.130859 C 782.370117 69.927551 783.050781 72.416931 783.050781 75.599609 L 783.050781 84.685547 C 783.050781 85.660889 783.088989 86.687622 783.166016 87.765625 C 783.243042 88.843628 783.512634 89.921997 783.974609 91 L 773.734375 91 C 773.375061 90.281311 773.13031 89.38269 773.001953 88.304688 C 772.873596 87.226685 772.810547 85.995361 772.810547 84.609375 L 772.810547 77.371094 C 772.810547 74.753113 772.194946 72.751221 770.962891 71.365234 C 769.730896 69.979248 767.266296 69.285156 763.570313 69.285156 L 748.554688 69.285156 L 748.554688 91 L 738.390625 91 Z M 794.292969 91 L 794.292969 34.867188 L 804.457031 34.867188 L 804.457031 91 L 794.292969 91 Z M 828.634766 91 L 828.634766 43.722656 L 811.541016 43.722656 L 811.541016 34.867188 L 856.201172 34.867188 L 856.201172 43.722656 L 838.798828 43.722656 L 838.798828 91 L 828.634766 91 Z M 877.761719 91 L 877.761719 69.285156 L 856.970703 34.867188 L 868.597656 34.867188 L 882.611328 59.353516 L 883.150391 59.353516 L 897.318359 34.867188 L 908.869141 34.867188 L 887.925781 69.285156 L 887.925781 91 L 877.761719 91 Z M 411.757813 83.068359 L 426.386719 83.068359 C 429.928741 83.068359 432.546234 82.272949 434.240234 80.681641 C 435.934235 79.090271 436.78125 77.011963 436.78125 74.445313 C 436.78125 71.673279 435.922791 69.593018 434.203125 68.207031 C 432.483429 66.821045 430.108765 66.128906 427.080078 66.128906 L 411.757813 66.128906 L 411.757813 83.068359 Z M 748.554688 61.125 L 763.878906 61.125 C 767.523621 61.125 770.114258 60.276062 771.654297 58.582031 C 773.194275 56.888 773.964844 54.706421 773.964844 52.037109 C 773.964844 48.905762 773.041382 46.6745 771.193359 45.339844 C 769.345337 44.005188 766.907593 43.337891 763.878906 43.337891 L 748.554688 43.337891 L 748.554688 61.125 Z M 411.757813 58.505859 L 426.617188 58.505859 C 429.645844 58.505859 431.867615 57.786987 433.279297 56.349609 C 434.690979 54.912292 435.396484 53.013733 435.396484 50.652344 C 435.396484 48.085693 434.549469 46.12207 432.855469 44.761719 C 431.161438 43.401428 428.876617 42.720703 426.001953 42.720703 L 411.757813 42.720703 L 411.757813 58.505859 Z"/>
    </g>
</svg>
