<?xml version="1.0" encoding="UTF-8"?>
<!-- Generated by Pixelmator Pro 3.3.2 -->
<svg width="1023" height="678" viewBox="0 0 1023 678" xmlns="http://www.w3.org/2000/svg" xmlns:xlink="http://www.w3.org/1999/xlink">
    <g id="Group">
        <g id="g1">
            <path id="Rounded-Rectangle" fill="#ffffff" fill-rule="evenodd" stroke="none" d="M 274 622 C 274 652.927917 299.072052 678 330 678 L 691 678 C 721.927979 678 747 652.927917 747 622 C 747 591.072021 721.927979 566 691 566 L 330 566 C 299.072052 566 274 591.072021 274 622 Z"/>
            <text id="SUMMIT" xml:space="preserve" x="404" y="639" font-family="Arial" font-size="53.159523" fill="#000000">SUMMIT</text>
        </g>
        <g id="Layer-1">
            <path id="Path" fill="#f4beef" fill-rule="evenodd" stroke="none" d="M 355.200012 51 C 346.200012 13.900024 297.200012 -1.099976 272.600006 31.200012 C 257.799988 20.599976 241.100006 19.099976 224.899994 30.200012 C 205.899994 7.700012 168 11.799988 153.300003 36.700012 C 134.899994 67.599976 142.300003 106 143.199997 140 C 146 174.599976 147.800003 218.099976 170.899994 246.099976 C 191.600006 269.299988 224.399994 269.700012 245.5 241.700012 C 264.700012 267.299988 295.700012 275.599976 321.100006 245.099976 C 334.799988 226.5 341.299988 199.900024 346.299988 177 C 353.700012 134.700012 365.899994 93.599976 355.200012 51 Z"/>
            <path id="Compound-Path" fill="#000000" fill-rule="evenodd" stroke="none" d="M 285 267.700012 C 284.666656 267.700012 284.333344 267.700012 284 267.700012 C 270.100006 267.400024 256.5 260 245.5 246.700012 C 235.299988 258.799988 222.199997 265.599976 208.300003 266.200012 C 193.600006 266.799988 179.5 260.400024 168.5 248.200012 C 146.399994 221.299988 143.199997 180.400024 140.699997 147.5 L 140.100006 140.299988 C 139.899994 133.5 139.5 126.900024 139.100006 119.799988 C 137.199997 90.799988 135.300003 60.799988 150.600006 35.099976 C 158.199997 22.299988 172.100006 13.900024 187.800003 12.599976 C 202.399994 11.299988 215.899994 16.299988 225.399994 26.200012 C 240.399994 16.900024 256.799988 17.200012 272 27 C 283.5 13.599976 300.5 7.799988 318 11.5 C 337.700012 15.599976 353.5 30.799988 358.299988 50.299988 C 367.100006 85.799988 360.299988 120.900024 353.600006 154.900024 C 352.200012 162.299988 350.700012 169.900024 349.299988 177.5 C 343.899994 202.400024 337.399994 228.200012 323.600006 246.900024 C 312.200012 260.599976 298.899994 267.700012 285 267.700012 Z M 245.5 238.599976 C 245.5 238.599976 245.5 238.599976 245.5 238.599976 C 246.5 238.599976 247.399994 239.099976 248 239.900024 C 258.100006 253.299988 271.299988 261.200012 284.200012 261.5 C 296.5 261.900024 308.399994 255.400024 318.700012 243.099976 C 331.700012 225.5 338 200.5 343.299988 176.299988 C 344.600006 168.799988 346.100006 161.099976 347.5 153.700012 C 354.299988 118.900024 360.799988 86 352.200012 51.799988 C 352.200012 51.799988 352.200012 51.799988 352.200012 51.799988 C 348.100006 34.599976 334.100006 21.200012 316.700012 17.5 C 300.600006 14.200012 285.100006 20 275.100006 33.099976 C 274 34.400024 272.100006 34.700012 270.799988 33.700012 C 260.600006 26.400024 244.700012 20.299988 226.600006 32.799988 C 225.300003 33.700012 223.5 33.5 222.5 32.200012 C 214.300003 22.5 201.800003 17.599976 188.300003 18.700012 C 174.600006 19.900024 162.5 27.200012 156 38.299988 C 141.600006 62.299988 143.5 91.400024 145.300003 119.400024 C 145.699997 126.200012 146.100006 133.200012 146.300003 140 L 146.899994 147.099976 C 149.5 180.700012 152.399994 218.799988 173.199997 244.099976 C 182.800003 254.799988 195.199997 260.5 208 260 C 221.199997 259.5 233.600006 252.299988 243.100006 239.900024 C 243.600006 239.099976 244.600006 238.599976 245.5 238.599976 Z"/>
            <path id="path1" fill="#000000" fill-rule="evenodd" stroke="none" d="M 256.399994 144 C 254.899994 144 253.600006 142.799988 253.399994 141.200012 C 249.600006 111.099976 244.5 69.799988 270 29.599976 C 270.899994 28.099976 272.799988 27.700012 274.299988 28.599976 C 275.700012 29.5 276.100006 31.400024 275.200012 32.900024 C 250.899994 71.200012 255.899994 111.200012 259.5 140.5 C 259.700012 142.200012 258.5 143.700012 256.799988 143.900024 C 256.666656 143.966675 256.533325 144 256.399994 144 Z"/>
            <path id="path2" fill="#000000" fill-rule="evenodd" stroke="none" d="M 198.899994 144 C 197.399994 144 196 142.799988 195.800003 141.299988 C 188.399994 83.900024 196.399994 50 222.899994 27.900024 C 224.199997 26.799988 226.100006 26.900024 227.200012 28.299988 C 228.299988 29.599976 228.200012 31.5 226.800003 32.599976 C 202.300003 53.200012 194.800003 85.400024 202 140.5 C 202.199997 142.200012 201 143.700012 199.300003 143.900024 C 199.166672 143.966675 199.03334 144 198.899994 144 Z"/>
            <path id="path3" fill="#000000" fill-rule="evenodd" stroke="none" d="M 245.5 244.799988 C 244.600006 244.799988 243.700012 244.400024 243.100006 243.700012 C 236.299988 235 229 205.799988 229 176 C 229 174.299988 230.399994 172.900024 232.100006 172.900024 C 233.899994 172.900024 235.200012 174.299988 235.200012 176 C 235.200012 206.700012 242.799988 233.200012 248 239.799988 C 249 241.200012 248.799988 243.099976 247.399994 244.200012 C 246.899994 244.599976 246.200012 244.799988 245.5 244.799988 Z"/>
            <path id="path4" fill="#ffffff" fill-rule="evenodd" stroke="none" d="M 162.899994 52.599976 C 162.100006 52.599976 161.399994 52.400024 160.699997 52.099976 C 158.5 50.799988 157.699997 48.099976 158.899994 45.900024 C 165.300003 34.200012 178.100006 26.299988 191.5 25.799988 C 194 25.799988 196.100006 27.700012 196.199997 30.200012 C 196.300003 32.700012 194.300003 34.799988 191.800003 34.900024 C 181.600006 35.299988 171.800003 41.299988 166.899994 50.299988 C 166 51.799988 164.5 52.599976 162.899994 52.599976 Z"/>
            <path id="path5" fill="#ffffff" fill-rule="evenodd" stroke="none" d="M 229.399994 50.5 C 228.399994 50.5 227.399994 50.200012 226.5 49.5 C 224.600006 47.900024 224.300003 45 225.899994 43.099976 C 230.200012 37.900024 236.200012 34.099976 242.700012 32.5 C 245.100006 31.900024 247.600006 33.299988 248.200012 35.799988 C 248.799988 38.200012 247.299988 40.700012 244.899994 41.299988 C 240.200012 42.400024 236 45.099976 232.899994 48.799988 C 232 49.900024 230.700012 50.5 229.399994 50.5 Z"/>
            <path id="path6" fill="#ffffff" fill-rule="evenodd" stroke="none" d="M 285.799988 43.599976 C 285 43.599976 284.100006 43.299988 283.299988 42.799988 C 281.200012 41.5 280.700012 38.599976 282 36.5 C 286.200012 30.099976 293 25.599976 300.5 24.299988 C 303 23.799988 305.399994 25.400024 305.799988 27.900024 C 306.299988 30.400024 304.600006 32.700012 302.200012 33.200012 C 297.100006 34.099976 292.399994 37.200012 289.600006 41.5 C 288.799988 42.900024 287.299988 43.599976 285.799988 43.599976 Z"/>
            <path id="path7" fill="#f4beef" fill-rule="evenodd" stroke="none" d="M 673.5 131.400024 C 714.099976 66.099976 663.5 -5.5 587.799988 10.700012 C 562.299988 17.200012 526 26.700012 518.400024 55.799988 C 510.799988 94 513.599976 134.900024 513.299988 173.700012 C 514.599976 230.200012 518.400024 262.599976 581.400024 262.599976 C 703.599976 262.599976 728.799988 167.099976 673.5 131.400024 Z"/>
            <path id="path8" fill="#000000" fill-rule="evenodd" stroke="none" d="M 581.5 265.700012 C 581.43335 265.700012 581.400024 265.700012 581.400024 265.700012 C 515.599976 265.700012 511.5 230.799988 510.200012 173.799988 C 510.299988 164.900024 510.200012 155.799988 510.099976 146.900024 C 509.799988 116.5 509.5 85 515.299988 55.200012 C 523.599976 24 561.799988 14.200012 587.099976 7.700012 C 623.5 -0.099976 657.900024 11.900024 677 39 C 695.299988 65.099976 695.5 99.900024 677.700012 130.400024 C 700.099976 146.299988 709.599976 173.099976 701.799988 199.400024 C 692.299988 231.5 655.700012 265.700012 581.5 265.700012 Z M 608.700012 11.5 C 602.099976 11.5 595.299988 12.200012 588.5 13.700012 C 564.700012 19.799988 528.599976 29.099976 521.400024 56.599976 C 515.700012 85.599976 516 116.700012 516.299988 146.900024 C 516.400024 155.700012 516.5 164.900024 516.400024 173.799988 C 517.700012 230.099976 521.200012 259.5 581.400024 259.5 C 581.400024 259.5 581.43335 259.5 581.5 259.5 C 652.299988 259.5 687 227.599976 695.799988 197.599976 C 703.099976 173.099976 693.700012 148.099976 671.900024 134 C 670.400024 133.099976 670 131.200012 670.900024 129.700012 C 689.200012 100.299988 689.599976 67.700012 671.900024 42.5 C 657.900024 22.599976 634.700012 11.5 608.700012 11.5 Z"/>
            <path id="path9" fill="#000000" fill-rule="evenodd" stroke="none" d="M 673.5 134.5 C 672.900024 134.5 672.299988 134.299988 671.799988 133.900024 C 654.900024 122.5 638.900024 121.400024 628.299988 120.700012 L 626.900024 120.599976 C 625.200012 120.5 623.900024 119 624 117.299988 C 624.099976 115.599976 625.599976 114.299988 627.299988 114.400024 L 628.700012 114.5 C 639.299988 115.200012 657 116.5 675.299988 128.799988 C 676.700012 129.799988 677.099976 131.700012 676.099976 133.099976 C 675.5 134 674.5 134.5 673.5 134.5 Z"/>
            <path id="path10" fill="#000000" fill-rule="evenodd" stroke="none" d="M 598.400024 91.200012 C 596.900024 91.200012 595.599976 90 595.400024 88.5 C 595.099976 86.799988 596.299988 85.200012 598 85 C 605.099976 84.099976 609.400024 77.200012 609 71.400024 C 608.700012 66.200012 604.700012 63.200012 598 63.200012 C 596.299988 63.200012 594.900024 61.799988 594.900024 60.099976 C 594.900024 58.400024 596.299988 57 598 57 C 610 57 614.799988 64.299988 615.200012 71 C 615.799988 79.599976 609.700012 89.700012 598.799988 91.200012 C 598.666626 91.200012 598.533325 91.200012 598.400024 91.200012 Z"/>
            <path id="path11" fill="#000000" fill-rule="evenodd" stroke="none" d="M 601.799988 181.400024 C 600.200012 181.400024 598.799988 180.200012 598.700012 178.5 C 598.599976 176.799988 599.900024 175.299988 601.599976 175.200012 C 610.099976 174.799988 614.099976 168.299988 614.200012 162.400024 C 614.299988 157.299988 611.299988 151 602.599976 150.200012 C 600.900024 150 599.700012 148.5 599.799988 146.799988 C 600 145.099976 601.5 143.799988 603.200012 144 C 615.299988 145.099976 620.599976 154.200012 620.400024 162.599976 C 620.200012 171.400024 613.900024 180.799988 602 181.400024 C 601.93335 181.400024 601.866699 181.400024 601.799988 181.400024 Z"/>
            <path id="path12" fill="#ffffff" fill-rule="evenodd" stroke="none" d="M 536.900024 60.299988 C 536 60.299988 535.099976 60 534.299988 59.5 C 532.200012 58.099976 531.700012 55.299988 533.099976 53.200012 C 539.400024 43.799988 548.900024 36.700012 559.700012 33.299988 C 562.099976 32.5 564.700012 33.799988 565.400024 36.200012 C 566.200012 38.599976 564.900024 41.200012 562.5 41.900024 C 553.599976 44.700012 545.799988 50.5 540.599976 58.299988 C 539.799988 59.599976 538.299988 60.299988 536.900024 60.299988 Z"/>
            <path id="path13" fill="#f4beef" fill-rule="evenodd" stroke="none" d="M 520.5 168.799988 C 511.099976 155.700012 484 163.299988 473.299988 170.700012 C 522.200012 140.799988 512 104.900024 478.100006 108 C 531.900024 80.799988 513 35 480.700012 20.5 C 456.600006 8.5 407 20.5 385 35 C 350.899994 57.700012 339.299988 78 335.100006 106.200012 C 331.200012 132.099976 359.799988 159.599976 387.200012 158.700012 C 353.5 159.900024 334.899994 206.799988 351.100006 232.700012 C 362.600006 251.599976 387.5 264.799988 409.399994 265.599976 C 446.399994 267 466.600006 257.099976 486.099976 244.200012 C 518.400024 222.799988 538.900024 194.200012 520.5 168.799988 Z"/>
            <path id="path14" fill="#000000" fill-rule="evenodd" stroke="none" d="M 416 268.900024 C 413.800018 268.900024 411.566681 268.833374 409.299988 268.700012 C 385.700012 267.900024 360.100006 253.400024 348.399994 234.299988 C 339.5 220.099976 339.899994 199.400024 349.299988 181.700012 C 354.799988 171.299988 362.399994 163.700012 371.299988 159.5 C 361.5 156.299988 352 150.299988 344.700012 142 C 334.799988 131 330.200012 117.799988 332 105.700012 C 336.700012 74.400024 351.100006 53.799988 383.299988 32.400024 C 405.5 17.700012 456.700012 5 482.100006 17.700012 C 501.299988 26.400024 514.599976 44.700012 515 63.200012 C 515.400024 79.299988 506.299988 94 489 105.299988 C 498.799988 107 506 112.5 508.700012 120.799988 C 511.900024 130.599976 508.799988 144.900024 493.200012 159.700012 C 504.700012 157.400024 516.900024 158.5 523 167 C 529.5 175.900024 531.799988 185.599976 529.900024 195.799988 C 526.799988 212.700012 511.900024 230.799988 487.799988 246.799988 C 470.799988 258 451.299988 268.900024 416 268.900024 Z M 387.200012 155.5 C 388.799988 155.5 390.200012 156.900024 390.299988 158.5 C 390.299988 160.299988 389 161.700012 387.299988 161.799988 C 374.100006 162.200012 362.200012 170.5 354.799988 184.599976 C 346.5 200.200012 346.100006 218.900024 353.700012 231.099976 C 364.399994 248.5 387.799988 261.700012 409.5 262.5 C 447.299988 263.900024 467.200012 253 484.400024 241.599976 C 507 226.599976 521 209.900024 523.799988 194.700012 C 525.400024 186.200012 523.400024 178.099976 518 170.599976 C 510.599976 160.400024 488.599976 165.400024 477.299988 171.900024 C 476.5 172.366638 475.700012 172.866638 474.899994 173.400024 C 473.399994 174.200012 471.600006 173.799988 470.700012 172.400024 C 469.700012 171 470.100006 169.099976 471.5 168.200012 C 472.233337 167.666687 473.066681 167.133362 474 166.599976 C 500.299988 149.799988 506.099976 132.599976 502.799988 122.799988 C 500.099976 114.400024 490.700012 109.900024 478.399994 111.099976 C 476.899994 111.200012 475.600006 110.299988 475.200012 108.799988 C 474.700012 107.400024 475.399994 105.900024 476.700012 105.200012 C 503.700012 91.5 509.099976 74.900024 508.799988 63.299988 C 508.5 47.099976 496.700012 31.099976 479.399994 23.299988 C 456.200012 11.700012 407.200012 24 386.799988 37.599976 C 351.399994 61.099976 341.899994 81.400024 338.200012 106.700012 C 336.600006 116.900024 340.700012 128.200012 349.299988 137.900024 C 359.5 149.299988 373.899994 156 387.100006 155.599976 C 387.100006 155.599976 387.100006 155.599976 387.100006 155.599976 C 387.100006 155.533325 387.133331 155.5 387.200012 155.5 Z"/>
            <path id="path15" fill="#000000" fill-rule="evenodd" stroke="none" d="M 428.100006 121.900024 C 419.700012 121.900024 411.466675 120.93335 403.399994 119 C 401.799988 118.599976 400.700012 117 401.100006 115.299988 C 401.5 113.599976 403.200012 112.599976 404.899994 113 C 427.5 118.299988 451.799988 115.599976 476.899994 105.099976 C 478.5 104.5 480.299988 105.200012 481 106.799988 C 481.700012 108.400024 480.899994 110.200012 479.299988 110.799988 C 461.799988 118.200012 444.700012 121.900024 428.100006 121.900024 Z"/>
            <path id="path16" fill="#000000" fill-rule="evenodd" stroke="none" d="M 422.5 187.900024 C 420.799988 187.900024 419.399994 186.5 419.399994 184.799988 C 419.399994 183.099976 420.799988 181.700012 422.5 181.700012 C 439.399994 181.700012 456.899994 176.799988 471.700012 168.099976 C 473.200012 167.200012 475.100006 167.700012 475.899994 169.099976 C 476.799988 170.599976 476.299988 172.5 474.799988 173.400024 C 459.100006 182.700012 440.5 187.900024 422.5 187.900024 Z"/>
            <path id="path17" fill="#000000" fill-rule="evenodd" stroke="none" d="M 388.700012 161.799988 C 384.600006 161.799988 380.200012 161.5 375.799988 160.900024 C 374.100006 160.599976 372.899994 159.099976 373.100006 157.400024 C 373.399994 155.700012 375 154.5 376.700012 154.700012 C 399.399994 158 419 150.5 419.200012 150.5 C 420.799988 149.799988 422.600006 150.599976 423.200012 152.200012 C 423.799988 153.799988 423.100006 155.599976 421.5 156.200012 C 420.799988 156.5 407 161.799988 388.700012 161.799988 Z"/>
            <path id="path18" fill="#ffffff" fill-rule="evenodd" stroke="none" d="M 367.299988 76 C 366.299988 76 365.299988 75.700012 364.5 75 C 362.5 73.5 362.100006 70.599976 363.700012 68.599976 C 368.700012 62 379.200012 52.400024 385.700012 49.400024 C 388 48.299988 390.700012 49.299988 391.799988 51.5 C 392.799988 53.799988 391.899994 56.5 389.600006 57.599976 C 385 59.700012 375.5 68.099976 370.899994 74.200012 C 370 75.400024 368.600006 76 367.299988 76 Z"/>
            <path id="path19" fill="#f4beef" fill-rule="evenodd" stroke="none" d="M 852.299988 124 C 914.599976 51 814.5 -19.599976 741.400024 15.299988 C 716.400024 25.599976 695 52.799988 694.200012 78.900024 C 693.799988 93.099976 703.5 116.5 723.5 121.099976 C 712.200012 126 708 152.5 717.700012 167.200012 C 692 180.099976 689.799988 223.5 715 244 C 730.400024 258.5 770.599976 266.799988 791.099976 265.900024 C 895.599976 261.5 914.200012 160.700012 852.299988 124 Z"/>
            <path id="path20" fill="#000000" fill-rule="evenodd" stroke="none" d="M 788 269.099976 C 766.200012 269.099976 728.299988 260.799988 712.799988 246.299988 C 699.5 235.5 692.400024 217.200012 694.400024 198.900024 C 696 184.599976 703 172.599976 713.5 166 C 708.200012 155.799988 708.299988 142.599976 711.099976 133.400024 C 712.5 128.700012 714.5 124.900024 716.900024 122.200012 C 699.400024 114.599976 690.599976 93.099976 691.099976 78.799988 C 691.900024 52.099976 713.099976 23.599976 740.200012 12.400024 C 785.700012 -9.299988 838.599976 9.400024 861.5 39.200012 C 881.099976 64.799988 879.400024 95.200012 857 123.299988 C 884 140.900024 896.400024 171.700012 888.599976 202.799988 C 880.900024 233.099976 851.400024 266.5 791.200012 269 C 790.200012 269.06665 789.133362 269.099976 788 269.099976 Z M 782.5 9.200012 C 769.299988 9.200012 755.700012 11.900024 742.799988 18.099976 C 718 28.299988 698.099976 55 697.299988 79 C 696.900024 92.299988 706.200012 113.900024 724.200012 118.099976 C 725.5 118.400024 726.5 119.5 726.599976 120.799988 C 726.700012 122.200012 726 123.400024 724.700012 124 C 721.5 125.299988 718.700012 129.400024 717 135.099976 C 714 145.400024 715.299988 157.900024 720.299988 165.5 C 720.799988 166.200012 720.900024 167.099976 720.700012 168 C 720.5 168.900024 719.900024 169.599976 719.099976 170 C 708.799988 175.099976 702.099976 185.900024 700.599976 199.5 C 698.799988 215.799988 705.099976 232 716.900024 241.599976 C 732 255.700012 771.400024 263.700012 790.900024 262.799988 C 847.700012 260.400024 875.5 229.5 882.5 201.299988 C 890 171.799988 877.5 142.5 850.700012 126.700012 C 850 126.299988 849.400024 125.5 849.299988 124.599976 C 849.099976 123.700012 849.400024 122.700012 850 122 C 872.5 95.700012 874.900024 66.900024 856.5 43 C 841.599976 23.5 813 9.200012 782.5 9.200012 Z"/>
            <path id="path21" fill="#000000" fill-rule="evenodd" stroke="none" d="M 738.200012 125.599976 C 733.400024 125.599976 728.299988 125.200012 722.900024 124.200012 C 721.200012 123.799988 720.099976 122.200012 720.5 120.5 C 720.799988 118.799988 722.400024 117.700012 724.099976 118.099976 C 765 125.900024 785.400024 100.5 791.099976 84.400024 C 791.599976 82.700012 793.400024 81.900024 795 82.400024 C 796.599976 83 797.5 84.799988 796.900024 86.400024 C 789.900024 106.599976 769.099976 125.599976 738.200012 125.599976 Z"/>
            <path id="path22" fill="#000000" fill-rule="evenodd" stroke="none" d="M 759.900024 186.799988 C 757.366638 186.799988 754.866638 186.666687 752.400024 186.400024 C 736.299988 184.799988 722 178.200012 715.200012 169.099976 C 714.200012 167.700012 714.5 165.700012 715.900024 164.700012 C 717.200012 163.700012 719.200012 164 720.200012 165.299988 C 725.900024 173 738.799988 178.799988 753 180.299988 C 770.700012 182 787.799988 176.900024 799.900024 166.099976 C 801.200012 165 803.200012 165.099976 804.299988 166.400024 C 805.400024 167.700012 805.299988 169.599976 804 170.799988 C 792.400024 181.099976 776.599976 186.799988 759.900024 186.799988 Z"/>
            <path id="path23" fill="#000000" fill-rule="evenodd" stroke="none" d="M 822.799988 143.400024 C 821.733337 143.400024 820.666687 143.333374 819.599976 143.200012 C 817.900024 142.900024 816.700012 141.400024 817 139.700012 C 817.200012 138 818.799988 136.799988 820.5 137 C 827.900024 138.099976 839.900024 133.900024 850 122 C 851.099976 120.700012 853 120.599976 854.299988 121.700012 C 855.599976 122.799988 855.799988 124.700012 854.700012 126.099976 C 845.599976 136.799988 833.200012 143.400024 822.799988 143.400024 Z"/>
            <path id="path24" fill="#ffffff" fill-rule="evenodd" stroke="none" d="M 747.5 35.900024 C 746 35.900024 744.5 35.200012 743.700012 33.900024 C 742.299988 31.799988 742.799988 28.900024 744.900024 27.5 C 747.200012 26 747.700012 25.799988 749.099976 25.200012 C 749.5 25.099976 750.099976 24.799988 751.200012 24.299988 C 753.5 23.299988 756.200012 24.299988 757.200012 26.599976 C 758.200012 28.900024 757.200012 31.599976 754.900024 32.599976 C 753.599976 33.200012 752.900024 33.5 752.400024 33.700012 C 751.799988 33.900024 751.700012 34 750 35.099976 C 749.200012 35.599976 748.299988 35.900024 747.5 35.900024 Z"/>
            <path id="path25" fill="#ffffff" fill-rule="evenodd" stroke="none" d="M 720.099976 62.299988 C 719.299988 62.299988 718.5 62.099976 717.700012 61.599976 C 715.599976 60.299988 714.900024 57.5 716.200012 55.400024 C 720.799988 47.799988 726.700012 41 733.700012 35.299988 C 735.599976 33.700012 738.5 34 740.099976 35.900024 C 741.700012 37.799988 741.400024 40.700012 739.5 42.299988 C 733.299988 47.400024 728.099976 53.400024 724 60.099976 C 723.099976 61.5 721.599976 62.299988 720.099976 62.299988 Z"/>
            <path id="path26" fill="#f4beef" fill-rule="evenodd" stroke="none" d="M 173.800003 303.700012 C 152.199997 275.599976 116 263.900024 80.400002 270.599976 C 56.900002 274.700012 30.700001 285.400024 18 306.099976 C 3.200001 330.799988 2 431.299988 6.299999 462.200012 C 9 489.200012 24.200001 519.700012 54.300003 519.200012 C 92.099998 519.700012 128.899994 502.200012 154.800003 475.200012 C 198.300003 431.5 212.800003 354.5 173.800003 303.700012 Z"/>
            <path id="path27" fill="#000000" fill-rule="evenodd" stroke="none" d="M 55.699997 524.900024 C 55.23333 524.900024 54.76667 524.900024 54.300003 524.900024 C 23.200001 525.299988 6.200001 495.200012 3.200001 465.099976 C -1.1 433.599976 -0 332.599976 15.299999 307.099976 C 26.599998 288.799988 50.099998 275.299988 79.900002 270.200012 C 117.5 263 154.5 276.099976 176.300003 304.400024 C 176.300003 304.400024 176.300003 304.400024 176.300003 304.400024 C 218.100006 359 198.800003 438 157 480 C 130 508.200012 92.199997 524.900024 55.699997 524.900024 Z M 54.199997 518.700012 C 89.5 519.099976 126.300003 503 152.5 475.599976 C 192.600006 435.5 211.199997 360.099976 171.399994 308.200012 C 151 281.799988 116.300003 269.599976 81 276.299988 C 67.699997 278.599976 35.199997 286.5 20.599998 310.299988 C 6.299999 334.299988 5.200001 434.200012 9.299999 464.400024 C 12.099998 491.799988 26.900002 519.099976 54.199997 518.700012 Z"/>
            <path id="path28" fill="#000000" fill-rule="evenodd" stroke="none" d="M 79.699997 432.900024 C 78.400002 432.900024 77.199997 432.099976 76.699997 430.799988 C 76.199997 429.099976 77.099998 427.400024 78.699997 426.900024 C 101.199997 419.400024 111.600006 388.599976 106.800003 365.799988 C 105.399994 359 100.399994 343.299988 84.699997 344.700012 C 83 344.799988 81.400002 343.599976 81.300003 341.900024 C 81.099998 340.200012 82.400002 338.700012 84.099998 338.5 C 98.5 337.200012 109.300003 347 112.899994 364.5 C 118.300003 390.5 106.600006 424.099976 80.699997 432.700012 C 80.366661 432.833344 80.033333 432.900024 79.699997 432.900024 Z"/>
            <path id="path29" fill="#ffffff" fill-rule="evenodd" stroke="none" d="M 35 318.599976 C 33.900002 318.599976 32.900002 318.200012 32 317.400024 C 30.099998 315.799988 30 312.900024 31.599998 311 C 38.900002 302.799988 48 296.099976 58.099998 291.700012 C 60.400002 290.700012 63 291.700012 64.099998 294 C 65.099998 296.299988 64 299 61.800003 300 C 52.900002 303.900024 44.800003 309.799988 38.400002 317.099976 C 37.5 318.099976 36.300003 318.599976 35 318.599976 Z"/>
            <path id="path30" fill="#f4beef" fill-rule="evenodd" stroke="none" d="M 352.5 422.099976 C 343 409 316 416.700012 305.200012 424 C 354.100006 394.200012 343.899994 358.200012 310.100006 361.299988 C 363.799988 334.099976 344.899994 288.299988 312.700012 273.799988 C 288.600006 261.799988 238.899994 273.799988 217 288.299988 C 182.800003 311 171.300003 331.299988 167.100006 359.5 C 163.199997 385.400024 191.699997 413 219.199997 412 C 185.5 413.200012 166.800003 460.099976 183.100006 486.099976 C 194.600006 504.900024 219.5 518.200012 241.399994 519 C 278.399994 520.299988 298.5 510.5 318 497.5 C 350.399994 476.099976 370.899994 447.599976 352.5 422.099976 Z"/>
            <path id="path31" fill="#000000" fill-rule="evenodd" stroke="none" d="M 248 524.799988 C 245.800018 524.799988 243.566681 524.766663 241.299988 524.700012 C 217.699997 523.799988 192.100006 509.299988 180.399994 490.299988 C 171.5 476 171.800003 455.400024 181.300003 437.599976 C 186.800003 427.299988 194.399994 419.599976 203.300003 415.400024 C 193.5 412.299988 184 406.200012 176.699997 397.900024 C 166.800003 386.900024 162.199997 373.700012 164 361.700012 C 168.699997 330.299988 183.100006 309.700012 215.300003 288.299988 C 237.5 273.599976 288.700012 261 314.100006 273.599976 C 333.299988 282.299988 346.600006 300.599976 347 319.099976 C 347.399994 335.200012 338.200012 349.900024 321 361.200012 C 330.700012 362.900024 337.899994 368.400024 340.700012 376.700012 C 343.899994 386.5 340.799988 400.799988 325.100006 415.599976 C 336.700012 413.400024 348.899994 414.400024 355 422.900024 C 361.399994 431.799988 363.799988 441.5 361.899994 451.700012 C 358.799988 468.599976 343.899994 486.700012 319.799988 502.700012 C 302.799988 513.900024 283.299988 524.799988 248 524.799988 Z M 219.199997 411.5 C 220.800003 411.5 222.199997 412.799988 222.300003 414.5 C 222.300003 416.200012 221 417.599976 219.300003 417.700012 C 206 418.099976 194.199997 426.5 186.800003 440.5 C 178.5 456.099976 178 474.799988 185.699997 487 C 196.300003 504.400024 219.800003 517.700012 241.5 518.5 C 279.299988 519.799988 299.200012 508.900024 316.299988 497.5 C 339 482.5 353 465.900024 355.799988 450.599976 C 357.299988 442.099976 355.399994 434 350 426.5 C 342.600006 416.299988 320.600006 421.299988 309.299988 427.799988 C 308.5 428.266663 307.666656 428.766663 306.799988 429.299988 C 305.399994 430.200012 303.5 429.700012 302.600006 428.299988 C 301.700012 426.900024 302.100006 425 303.5 424.099976 C 304.233337 423.56665 305.066681 423.033325 306 422.5 C 332.299988 405.700012 338 388.5 334.799988 378.700012 C 332 370.400024 322.700012 365.900024 310.399994 367 C 308.899994 367.099976 307.5 366.200012 307.100006 364.799988 C 306.700012 363.299988 307.399994 361.799988 308.700012 361.099976 C 335.700012 347.5 341.100006 330.799988 340.799988 319.299988 C 340.399994 303.099976 328.600006 287 311.399994 279.200012 C 288.200012 267.599976 239.200012 279.900024 218.699997 293.5 C 183.399994 317 173.899994 337.400024 170.100006 362.599976 C 168.600006 372.799988 172.699997 384.200012 181.300003 393.799988 C 191.399994 405.200012 205.899994 411.900024 219 411.5 C 219 411.5 219 411.5 219 411.5 C 219.066666 411.5 219.133331 411.5 219.199997 411.5 Z"/>
            <path id="path32" fill="#000000" fill-rule="evenodd" stroke="none" d="M 260.100006 377.799988 C 251.700012 377.799988 243.466675 376.866669 235.399994 375 C 233.700012 374.599976 232.700012 372.900024 233.100006 371.200012 C 233.5 369.599976 235.200012 368.5 236.799988 368.900024 C 259.5 374.200012 283.799988 371.599976 308.899994 361 C 310.5 360.400024 312.299988 361.099976 313 362.700012 C 313.600006 364.299988 312.899994 366.099976 311.299988 366.799988 C 293.799988 374.099976 276.600006 377.799988 260.100006 377.799988 Z"/>
            <path id="path33" fill="#000000" fill-rule="evenodd" stroke="none" d="M 254.5 443.799988 C 252.799988 443.799988 251.399994 442.400024 251.399994 440.700012 C 251.399994 439 252.799988 437.599976 254.5 437.599976 C 271.399994 437.599976 288.899994 432.799988 303.700012 424 C 305.100006 423.099976 307 423.599976 307.899994 425.099976 C 308.799988 426.5 308.299988 428.400024 306.799988 429.299988 C 291.100006 438.599976 272.5 443.799988 254.5 443.799988 Z"/>
            <path id="path34" fill="#000000" fill-rule="evenodd" stroke="none" d="M 220.600006 417.700012 C 216.5 417.700012 212.199997 417.400024 207.800003 416.799988 C 206.100006 416.5 204.899994 415 205.100006 413.299988 C 205.399994 411.599976 206.899994 410.400024 208.600006 410.599976 C 231.399994 413.900024 251 406.400024 251.200012 406.400024 C 252.799988 405.799988 254.600006 406.5 255.200012 408.099976 C 255.799988 409.700012 255 411.5 253.399994 412.200012 C 252.700012 412.400024 239 417.700012 220.600006 417.700012 Z"/>
            <path id="path35" fill="#ffffff" fill-rule="evenodd" stroke="none" d="M 199.300003 329.299988 C 198.300003 329.299988 197.300003 329 196.5 328.400024 C 194.5 326.799988 194.100006 324 195.600006 322 C 200.699997 315.400024 211.199997 305.700012 217.699997 302.700012 C 220 301.599976 222.699997 302.599976 223.699997 304.900024 C 224.800003 307.099976 223.800003 309.799988 221.600006 310.900024 C 217 313.099976 207.5 321.5 202.899994 327.5 C 202 328.700012 200.600006 329.299988 199.300003 329.299988 Z"/>
            <path id="path36" fill="#f4beef" fill-rule="evenodd" stroke="none" d="M 520.200012 296.200012 C 502.400024 258.700012 453 262.299988 432.899994 300.799988 C 407.600006 245.700012 339.899994 267 337.100006 318.200012 C 333.600006 356.299988 345 392.799988 354.5 429.299988 C 364.399994 463.200012 384.700012 520.400024 425.600006 519.700012 C 475.700012 518.200012 489.599976 457.299988 502.400024 418.5 C 514.400024 380.5 536.299988 335.799988 520.200012 296.200012 Z"/>
            <path id="path37" fill="#000000" fill-rule="evenodd" stroke="none" d="M 424.799988 522.799988 C 378.799988 522.799988 358.299988 453.200012 351.5 430.200012 C 350.399994 426 349.299988 421.799988 348.200012 417.700012 C 339.700012 385.5 330.899994 352.200012 334 317.900024 C 335.399994 292.099976 353.600006 270.799988 378.100006 266.099976 C 395.799988 262.799988 418.899994 268.599976 433 294.299988 C 444.200012 276.799988 462 266.400024 481.100006 266.799988 C 499.400024 267.200012 514.700012 277.400024 523 294.900024 C 523 294.966675 523.033325 295.033325 523.099976 295.099976 C 536.799988 328.900024 523.700012 366.299988 512.200012 399.400024 C 509.700012 406.400024 507.400024 412.900024 505.400024 419.400024 C 504.133362 423.199982 502.866638 427.133331 501.599976 431.200012 C 489.599976 469.200012 473.200012 521.299988 425.700012 522.799988 C 425.366669 522.799988 425.066681 522.799988 424.799988 522.799988 Z M 387.799988 271.400024 C 385 271.400024 382.166656 271.666687 379.299988 272.200012 C 357.5 276.299988 341.5 295.299988 340.200012 318.400024 C 337.200012 351.700012 345.799988 384.400024 354.200012 416.099976 C 355.266663 420.233307 356.366669 424.399994 357.5 428.599976 C 363.899994 450.299988 383.399994 516.599976 424.799988 516.599976 C 425.066681 516.599976 425.300018 516.599976 425.5 516.599976 C 468.600006 515.299988 483.599976 467.599976 495.700012 429.299988 C 497 425.200012 498.200012 421.299988 499.5 417.5 C 501.5 411 503.900024 404.299988 506.299988 397.299988 C 517.5 365.400024 530.200012 329.099976 517.400024 297.5 C 510.099976 282.200012 496.799988 273.299988 480.899994 273 C 462.600006 272.700012 445.200012 283.900024 435.600006 302.200012 C 435.100006 303.299988 434 303.900024 432.899994 303.900024 C 432.833313 303.900024 432.799988 303.900024 432.799988 303.900024 C 431.600006 303.900024 430.5 303.200012 430 302.099976 C 421 282.400024 405.600006 271.400024 387.799988 271.400024 Z"/>
            <path id="path38" fill="#000000" fill-rule="evenodd" stroke="none" d="M 419.200012 435.400024 C 417.700012 435.400024 416.399994 434.299988 416.200012 432.799988 C 409.399994 392.599976 414.100006 346.599976 429.899994 299.799988 C 430.5 298.200012 432.200012 297.299988 433.799988 297.900024 C 435.5 298.400024 436.299988 300.200012 435.799988 301.799988 C 420.299988 347.599976 415.700012 392.5 422.299988 431.799988 C 422.600006 433.5 421.399994 435.099976 419.700012 435.400024 C 419.566681 435.400024 419.399994 435.400024 419.200012 435.400024 Z"/>
            <path id="path39" fill="#ffffff" fill-rule="evenodd" stroke="none" d="M 355.799988 312.299988 C 355.199982 312.299988 354.633331 312.199982 354.100006 312 C 351.799988 311.099976 350.600006 308.400024 351.5 306.099976 C 356.399994 293.299988 368.399994 283.299988 381.899994 280.799988 C 384.299988 280.299988 386.700012 281.900024 387.200012 284.400024 C 387.700012 286.900024 386 289.299988 383.600006 289.700012 C 373.100006 291.700012 363.799988 299.400024 360 309.400024 C 359.299988 311.200012 357.600006 312.299988 355.799988 312.299988 Z"/>
            <path id="path40" fill="#ffffff" fill-rule="evenodd" stroke="none" d="M 451.899994 307.5 C 450.899994 307.5 449.899994 307.200012 449 306.5 C 447.100006 305 446.799988 302.099976 448.299988 300.099976 C 455.100006 291.700012 465 285.900024 475.600006 284 C 478.100006 283.599976 480.399994 285.299988 480.899994 287.700012 C 481.299988 290.200012 479.600006 292.599976 477.100006 293 C 468.700012 294.5 460.799988 299.099976 455.399994 305.799988 C 454.5 306.900024 453.200012 307.5 451.899994 307.5 Z"/>
            <path id="path41" fill="#f4beef" fill-rule="evenodd" stroke="none" d="M 679.299988 350.799988 C 678.599976 279 626.299988 249.799988 553.400024 271.900024 C 517 282.900024 499.299988 294.299988 499.299988 340.700012 C 499.299988 360.099976 500.299988 428.700012 502 470.299988 C 503.700012 514.400024 559.799988 536.700012 588.400024 498.900024 C 607.599976 524.299988 650 522.099976 665.5 495.299988 C 681.799988 468.700012 661.400024 445.799988 646.5 418 C 675.700012 400.5 679.400024 372.5 679.299988 350.799988 Z"/>
            <path id="path42" fill="#000000" fill-rule="evenodd" stroke="none" d="M 551.200012 521.200012 C 546.200012 521.200012 541.099976 520.5 536 518.900024 C 514.400024 512.099976 499.799988 493 498.900024 470.400024 C 497.200012 429.099976 496.200012 360 496.200012 340.700012 C 496.200012 293.799988 513.599976 280.700012 552.5 268.900024 C 592.200012 256.900024 626.900024 259.799988 650.299988 277 C 671 292.200012 682.099976 317.700012 682.400024 350.700012 C 682.400024 350.766663 682.400024 350.799988 682.400024 350.799988 C 682.5 371.299988 679.200012 400.5 650.700012 419.099976 C 652.900024 423.099976 655.200012 427.099976 657.5 430.900024 C 670.299988 452.799988 682.5 473.5 668.099976 496.900024 C 660.5 510.099976 646 518.700012 629.200012 519.700012 C 613.400024 520.700012 598.400024 514.799988 588.5 503.799988 C 578.599976 515.099976 565.299988 521.200012 551.200012 521.200012 Z M 598 267.799988 C 584.5 267.799988 569.799988 270.200012 554.299988 274.900024 C 519 285.5 502.400024 295.5 502.400024 340.700012 C 502.400024 360 503.400024 429 505.099976 470.200012 C 505.900024 490.099976 518.799988 506.900024 537.900024 512.900024 C 556.099976 518.700012 574.099976 512.700012 586 497.099976 C 586.599976 496.299988 587.5 495.799988 588.400024 495.799988 C 588.400024 495.799988 588.400024 495.799988 588.400024 495.799988 C 589.400024 495.799988 590.299988 496.299988 590.900024 497.099976 C 599.400024 508.299988 613.599976 514.5 628.900024 513.5 C 643.5 512.599976 656.200012 505.200012 662.799988 493.700012 C 675.299988 473.400024 664.5 455.200012 652.099976 434.099976 C 649.299988 429.400024 646.5 424.5 643.799988 419.5 C 643 418 643.5 416.200012 645 415.299988 C 672.799988 398.599976 676.299988 372.099976 676.200012 350.799988 C 675.900024 319.799988 665.700012 296 646.599976 282 C 633.799988 272.599976 617.200012 267.799988 598 267.799988 Z"/>
            <path id="path43" fill="#000000" fill-rule="evenodd" stroke="none" d="M 621.900024 429.099976 C 620.299988 429.099976 619 427.799988 618.799988 426.200012 C 618.700012 424.5 619.900024 423 621.599976 422.900024 C 630.599976 422.099976 643.900024 418.599976 657.099976 406.200012 C 658.299988 405.099976 660.299988 405.099976 661.5 406.400024 C 662.599976 407.599976 662.599976 409.599976 661.299988 410.700012 C 646.900024 424.299988 632.099976 428.200012 622.200012 429.099976 C 622.06665 429.099976 621.966675 429.099976 621.900024 429.099976 Z"/>
            <path id="path44" fill="#000000" fill-rule="evenodd" stroke="none" d="M 617.799988 370.099976 C 617.533325 370.099976 617.266663 370.06665 617 370 C 599.799988 365.400024 583.700012 354.799988 573.799988 341.400024 C 572.799988 340 573.099976 338.099976 574.400024 337 C 575.799988 336 577.799988 336.299988 578.799988 337.700012 C 587.900024 350 602.700012 359.799988 618.599976 364 C 620.299988 364.400024 621.200012 366.099976 620.799988 367.799988 C 620.400024 369.099976 619.200012 370.099976 617.799988 370.099976 Z"/>
            <path id="path45" fill="#000000" fill-rule="evenodd" stroke="none" d="M 572.900024 380.599976 C 571.799988 380.599976 570.799988 380.099976 570.200012 379.099976 C 569.400024 377.599976 569.900024 375.700012 571.400024 374.799988 C 581.400024 369.200012 600 354.099976 606.099976 333.799988 C 606.599976 332.099976 608.299988 331.200012 610 331.700012 C 611.599976 332.200012 612.5 333.900024 612.099976 335.599976 C 605.400024 357.799988 585.299988 374.099976 574.400024 380.200012 C 573.93335 380.466644 573.43335 380.599976 572.900024 380.599976 Z"/>
            <path id="path46" fill="#000000" fill-rule="evenodd" stroke="none" d="M 588.400024 502.099976 C 587.93335 502.099976 587.466675 501.966644 587 501.700012 C 585.5 500.900024 584.900024 499 585.700012 497.5 C 592.700012 484.599976 593.5 468.400024 588.200012 447.900024 C 587.799988 446.200012 588.799988 444.5 590.400024 444.099976 C 592.099976 443.700012 593.799988 444.700012 594.200012 446.299988 C 599.900024 468.5 598.900024 486.200012 591.200012 500.400024 C 590.599976 501.5 589.5 502.099976 588.400024 502.099976 Z"/>
            <path id="path47" fill="#000000" fill-rule="evenodd" stroke="none" d="M 589.5 450.200012 C 585.400024 450.200012 581.200012 449.700012 577.200012 448.599976 C 575.599976 448.099976 574.599976 446.400024 575 444.700012 C 575.5 443.099976 577.200012 442.099976 578.900024 442.599976 C 586.799988 444.799988 595.5 444.400024 603.299988 441.599976 C 604.900024 441 606.700012 441.799988 607.299988 443.5 C 607.900024 445.099976 607.099976 446.799988 605.400024 447.400024 C 600.400024 449.299988 594.900024 450.200012 589.5 450.200012 Z"/>
            <path id="path48" fill="#ffffff" fill-rule="evenodd" stroke="none" d="M 531.099976 302.799988 C 529.400024 302.799988 527.799988 301.900024 527 300.299988 C 525.900024 298 526.900024 295.299988 529.099976 294.200012 C 537.799988 289.900024 544 288 553.799988 285.400024 C 556.299988 284.799988 558.700012 286.200012 559.400024 288.700012 C 560 291.099976 558.599976 293.599976 556.099976 294.200012 C 546.700012 296.700012 541.200012 298.400024 533.099976 302.400024 C 532.433289 302.666656 531.766663 302.799988 531.099976 302.799988 Z"/>
            <path id="path49" fill="#f4beef" fill-rule="evenodd" stroke="none" d="M 843.599976 422.099976 C 834.200012 409 807.099976 416.700012 796.400024 424 C 845.299988 394.200012 835.099976 358.200012 801.299988 361.299988 C 855 334.099976 836.099976 288.299988 803.799988 273.799988 C 779.799988 261.799988 730.099976 273.799988 708.200012 288.299988 C 674 311 662.400024 331.299988 658.200012 359.5 C 654.299988 385.400024 682.900024 413 710.299988 412 C 676.599976 413.200012 658 460.099976 674.200012 486.099976 C 685.700012 504.900024 710.599976 518.200012 732.5 519 C 769.5 520.299988 789.700012 510.5 809.200012 497.5 C 841.599976 476.099976 862 447.599976 843.599976 422.099976 Z"/>
            <path id="path50" fill="#000000" fill-rule="evenodd" stroke="none" d="M 739.099976 524.799988 C 736.966675 524.799988 734.733337 524.766663 732.400024 524.700012 C 708.799988 523.799988 683.200012 509.299988 671.599976 490.299988 C 662.700012 476 663 455.400024 672.400024 437.599976 C 677.900024 427.299988 685.599976 419.599976 694.5 415.400024 C 684.599976 412.299988 675.200012 406.200012 667.799988 397.900024 C 658 386.900024 653.299988 373.700012 655.099976 361.700012 C 659.799988 330.299988 674.200012 309.700012 706.400024 288.299988 C 728.599976 273.599976 779.900024 261 805.200012 273.599976 C 824.5 282.299988 837.799988 300.599976 838.200012 319.099976 C 838.5 335.200012 829.400024 349.900024 812.200012 361.200012 C 821.900024 362.900024 829.099976 368.400024 831.799988 376.700012 C 835.099976 386.5 832 400.799988 816.299988 415.599976 C 827.799988 413.400024 840 414.400024 846.200012 422.900024 C 852.599976 431.799988 854.900024 441.5 853.099976 451.700012 C 850 468.599976 835 486.700012 810.900024 502.700012 C 794 513.900024 774.5 524.799988 739.099976 524.799988 Z M 710.299988 411.5 C 712 411.5 713.400024 412.799988 713.400024 414.5 C 713.5 416.200012 712.099976 417.599976 710.400024 417.700012 C 697.200012 418.099976 685.400024 426.5 677.900024 440.5 C 669.599976 456.099976 669.200012 474.799988 676.799988 487 C 687.5 504.400024 711 517.700012 732.700012 518.5 C 770.400024 519.799988 790.299988 508.900024 807.5 497.5 C 830.200012 482.5 844.200012 465.900024 847 450.599976 C 848.5 442.099976 846.5 434 841.099976 426.5 C 833.799988 416.299988 811.700012 421.299988 800.400024 427.799988 C 799.600037 428.266663 798.799988 428.766663 798 429.299988 C 796.599976 430.200012 794.700012 429.700012 793.799988 428.299988 C 792.900024 426.900024 793.200012 425 794.599976 424.099976 C 795.399963 423.56665 796.233337 423.033325 797.099976 422.5 C 823.5 405.700012 829.200012 388.5 825.900024 378.700012 C 823.200012 370.400024 813.799988 365.900024 801.5 367 C 800.099976 367.099976 798.700012 366.200012 798.299988 364.799988 C 797.900024 363.299988 798.5 361.799988 799.900024 361.099976 C 826.900024 347.5 832.200012 330.799988 832 319.299988 C 831.599976 303.099976 819.799988 287 802.599976 279.200012 C 779.299988 267.599976 730.400024 279.900024 709.900024 293.5 C 674.5 317 665.099976 337.400024 661.299988 362.599976 C 659.799988 372.799988 663.799988 384.200012 672.400024 393.799988 C 682.599976 405.200012 697.099976 411.900024 710.200012 411.5 C 710.200012 411.5 710.200012 411.5 710.200012 411.5 C 710.266663 411.5 710.299988 411.5 710.299988 411.5 Z"/>
            <path id="path51" fill="#000000" fill-rule="evenodd" stroke="none" d="M 751.200012 377.799988 C 742.866699 377.799988 734.666687 376.866669 726.599976 375 C 724.900024 374.599976 723.900024 372.900024 724.299988 371.200012 C 724.599976 369.599976 726.299988 368.5 728 368.900024 C 750.700012 374.200012 774.900024 371.599976 800.099976 361 C 801.599976 360.400024 803.5 361.099976 804.099976 362.700012 C 804.799988 364.299988 804 366.099976 802.5 366.799988 C 784.900024 374.099976 767.799988 377.799988 751.200012 377.799988 Z"/>
            <path id="path52" fill="#000000" fill-rule="evenodd" stroke="none" d="M 745.599976 443.799988 C 743.900024 443.799988 742.5 442.400024 742.5 440.700012 C 742.5 439 743.900024 437.599976 745.599976 437.599976 C 762.5 437.599976 780 432.799988 794.799988 424 C 796.299988 423.099976 798.200012 423.599976 799.099976 425.099976 C 799.900024 426.5 799.400024 428.400024 798 429.299988 C 782.200012 438.599976 763.599976 443.799988 745.599976 443.799988 Z"/>
            <path id="path53" fill="#000000" fill-rule="evenodd" stroke="none" d="M 711.799988 417.700012 C 707.700012 417.700012 703.400024 417.400024 698.900024 416.799988 C 697.200012 416.5 696 415 696.299988 413.299988 C 696.5 411.599976 698.099976 410.400024 699.799988 410.599976 C 722.5 413.900024 742.099976 406.400024 742.299988 406.400024 C 743.900024 405.799988 745.700012 406.5 746.400024 408.099976 C 747 409.700012 746.200012 411.5 744.599976 412.200012 C 743.900024 412.400024 730.099976 417.700012 711.799988 417.700012 Z"/>
            <path id="path54" fill="#ffffff" fill-rule="evenodd" stroke="none" d="M 690.400024 329.299988 C 689.400024 329.299988 688.5 329 687.599976 328.400024 C 685.599976 326.799988 685.299988 324 686.799988 322 C 691.900024 315.400024 702.400024 305.700012 708.799988 302.700012 C 711.099976 301.599976 713.799988 302.599976 714.900024 304.900024 C 716 307.099976 715 309.799988 712.700012 310.900024 C 708.099976 313.099976 698.700012 321.5 694 327.5 C 693.099976 328.700012 691.799988 329.299988 690.400024 329.299988 Z"/>
            <path id="path55" fill="#f4beef" fill-rule="evenodd" stroke="none" d="M 991.799988 405.299988 C 978.099976 398.700012 961.799988 398.700012 946.700012 400.200012 C 946.599976 361.599976 955.900024 310.099976 926.799988 279.700012 C 906.5 259.599976 870.799988 264.599976 855.599976 289 C 838.400024 318.5 837.900024 358.200012 835.400024 391.900024 C 834.299988 418.200012 836.5 444.299988 840.900024 470.299988 C 847.900024 535.400024 913.799988 524.400024 959.799988 508.799988 C 976.5 503.200012 992.799988 494.799988 1004.199951 482.400024 C 1027 459.700012 1021 418.5 991.799988 405.299988 Z"/>
            <path id="path56" fill="#000000" fill-rule="evenodd" stroke="none" d="M 899 523.900024 C 883.900024 523.900024 871.5 520.799988 861.700012 514.599976 C 848 505.799988 840 491 837.799988 470.599976 C 833 442.599976 831.200012 416.700012 832.299988 391.799988 C 832.599976 387.599976 832.900024 383.400024 833.200012 379.099976 C 835.200012 348.599976 837.5 313.900024 852.900024 287.400024 C 860.900024 274.599976 874.299988 266.299988 889.700012 264.5 C 904.599976 262.799988 918.900024 267.5 929 277.5 C 953.5 303.099976 951.900024 342.299988 950.5 376.900024 C 950.200012 383.799988 949.900024 390.5 949.799988 396.799988 C 962.299988 395.799988 979 395.599976 993.099976 402.5 C 1007.400024 408.900024 1017.300049 422 1020.300049 438.400024 C 1023.400024 455.5 1018.199951 472.799988 1006.400024 484.599976 C 996 495.900024 980.599976 505 960.799988 511.700012 C 936.900024 519.799988 916.299988 523.900024 899 523.900024 Z M 895.700012 270.299988 C 893.966675 270.299988 892.233337 270.399963 890.5 270.599976 C 876.900024 272.200012 865.099976 279.5 858.200012 290.599976 C 843.5 315.799988 841.299988 349.700012 839.400024 379.5 C 839.133362 383.833344 838.833313 388.033325 838.5 392.099976 C 837.400024 416.599976 839.200012 442 843.900024 469.799988 C 845.900024 488.400024 853 501.700012 865 509.299988 C 884 521.400024 916.400024 520.200012 958.799988 505.900024 C 977.599976 499.5 992.099976 490.900024 1002 480.299988 C 1012.400024 469.900024 1017 454.599976 1014.199951 439.5 C 1011.599976 425.200012 1003 413.700012 990.5 408.099976 C 990.5 408.099976 990.5 408.099976 990.5 408.099976 C 976.400024 401.299988 958.900024 402.099976 947 403.299988 C 946.200012 403.400024 945.299988 403.099976 944.700012 402.599976 C 944 402 943.599976 401.099976 943.599976 400.299988 C 943.599976 392.700012 943.900024 384.900024 944.299988 376.599976 C 945.599976 343.299988 947.200012 305.5 924.5 281.900024 C 917 274.400024 906.700012 270.299988 895.700012 270.299988 Z"/>
            <path id="path57" fill="#000000" fill-rule="evenodd" stroke="none" d="M 884.700012 456.900024 C 883 456.900024 881.599976 455.5 881.599976 453.799988 C 881.599976 433.799988 911.299988 399.799988 946.5 397.200012 C 948.200012 397.099976 949.700012 398.299988 949.799988 400 C 950 401.700012 948.700012 403.200012 947 403.299988 C 914.599976 405.799988 887.799988 438.299988 887.799988 453.799988 C 887.799988 455.5 886.400024 456.900024 884.700012 456.900024 Z"/>
            <path id="path58" fill="#ffffff" fill-rule="evenodd" stroke="none" d="M 867.099976 306.900024 C 866.433289 306.900024 865.766663 306.766693 865.099976 306.5 C 862.900024 305.400024 861.900024 302.700012 863 300.400024 C 868.200012 289.700012 878.099976 281.5 889.599976 278.5 C 892 277.799988 894.5 279.299988 895.099976 281.700012 C 895.700012 284.200012 894.299988 286.599976 891.900024 287.299988 C 882.900024 289.599976 875.200012 296 871.200012 304.299988 C 870.400024 305.900024 868.799988 306.900024 867.099976 306.900024 Z"/>
        </g>
    </g>
</svg>
