<svg width="190" height="47" viewBox="0 0 190 47" fill="none" xmlns="http://www.w3.org/2000/svg">
<g clip-path="url(#clip0_2026_13677)">
<path d="M47 0H0V47H47V0Z" fill="#6939F9"/>
<path fill-rule="evenodd" clip-rule="evenodd" d="M30.9037 12.1603L32.5521 10.5119L31.3492 9.30908L28.498 12.1603L30.6364 14.2986L28.9881 15.947L30.1909 17.1498L33.042 14.2986L30.9037 12.1603ZM34.731 24.5321C33.8845 24.5321 33.1717 25.2449 33.1717 26.0914C33.1717 26.9378 33.84 27.6061 34.731 27.6061C35.5774 27.6061 36.2457 26.9378 36.2457 26.0914C36.2902 25.2449 35.5774 24.5321 34.731 24.5321ZM34.731 29.299C32.949 29.299 31.4788 27.8734 31.4788 26.0914C31.4788 24.3094 32.949 22.8838 34.731 22.8838C36.513 22.8838 37.9385 24.3094 37.9385 26.0914C37.983 27.8734 36.513 29.299 34.731 29.299ZM23.1221 37.645H21.4292V31.8535H23.1221V37.645ZM23.8801 37.645H25.573V31.8535H23.8801V37.645ZM12.9409 27.4563L12.139 26.0753L11.3371 27.4563H12.9409ZM8.57495 29.0155L12.139 22.8677L15.703 29.0155H8.57495ZM19.5689 11.1345L18.3661 9.93164L16.3168 11.9809L14.2675 9.93164L13.0647 11.1345L15.1139 13.1838L13.0647 15.2331L14.2675 16.4359L16.3168 14.3866L18.3661 16.4359L19.5689 15.2331L17.5196 13.1838L19.5689 11.1345ZM60.9641 12.4102L67.2621 22.8442L60.6509 33.7169H65.4449L69.7062 26.2909L73.9989 33.7169H78.7302L72.1816 22.8442L78.4169 12.4102H73.7169L69.7376 19.4289L65.7582 12.4102H60.9641ZM81.4738 32.6829C82.6436 33.6229 84.2938 34.0929 86.4245 34.0929C87.4898 34.0929 88.4299 33.9676 89.2445 33.7169C90.0801 33.4453 90.7799 33.0902 91.3439 32.6516C91.9079 32.192 92.3361 31.6593 92.6285 31.0536C92.921 30.4478 93.0672 29.8002 93.0672 29.1109C93.0672 28.4007 92.9523 27.7845 92.7225 27.2622C92.5136 26.74 92.2212 26.2909 91.8452 25.9149C91.4692 25.5389 91.0201 25.236 90.4978 25.0062C89.9756 24.7556 89.4221 24.5676 88.8372 24.4422L85.6725 23.7529C85.1503 23.6485 84.7221 23.4709 84.3878 23.2202C84.0745 22.9696 83.9178 22.5831 83.9178 22.0609C83.9178 21.5387 84.1267 21.1313 84.5445 20.8389C84.9832 20.5465 85.5367 20.4002 86.2052 20.4002C86.8945 20.4002 87.4585 20.5882 87.8972 20.9642C88.3358 21.3402 88.5761 21.9042 88.6178 22.6562H92.5345C92.451 20.8807 91.8243 19.5542 90.6545 18.6769C89.5056 17.7996 88.0225 17.3609 86.2052 17.3609C85.2234 17.3609 84.3461 17.4862 83.5732 17.7369C82.8212 17.9876 82.1736 18.3322 81.6305 18.7709C81.1083 19.2096 80.701 19.7318 80.4085 20.3376C80.137 20.9225 80.0012 21.5596 80.0012 22.2489C80.0012 24.7138 81.3381 26.2387 84.0118 26.8236L86.7692 27.4189C87.4794 27.5651 88.0538 27.774 88.4925 28.0456C88.9312 28.2962 89.1505 28.714 89.1505 29.2989C89.1505 29.9047 88.879 30.3538 88.3358 30.6462C87.8136 30.9178 87.1765 31.0536 86.4245 31.0536C84.6698 31.0536 83.709 30.2493 83.5418 28.6409H79.6252C79.7087 30.3956 80.325 31.7429 81.4738 32.6829ZM105.246 21.1836C105.893 21.6849 106.217 22.4265 106.217 23.4082V28.0456C106.217 29.0273 105.893 29.7793 105.246 30.3016C104.598 30.8029 103.783 31.0536 102.802 31.0536C101.82 31.0536 101.005 30.7925 100.358 30.2702C99.71 29.748 99.3862 29.0065 99.3862 28.0456V23.4082C99.3862 22.4473 99.71 21.7058 100.358 21.1836C101.005 20.6613 101.82 20.4002 102.802 20.4002C103.783 20.4002 104.598 20.6613 105.246 21.1836ZM99.6056 33.4976C100.546 33.8945 101.611 34.0929 102.802 34.0929C103.992 34.0929 105.047 33.8945 105.966 33.4976C106.906 33.1007 107.69 32.5367 108.316 31.8056C108.964 31.0536 109.455 30.1658 109.789 29.1422C110.123 28.1187 110.29 26.9802 110.29 25.7269C110.29 24.4736 110.123 23.3351 109.789 22.3116C109.455 21.288 108.964 20.4107 108.316 19.6796C107.69 18.9276 106.906 18.3531 105.966 17.9562C105.047 17.5593 103.992 17.3609 102.802 17.3609C101.611 17.3609 100.546 17.5593 99.6056 17.9562C98.6865 18.3531 97.9031 18.9276 97.2556 19.6796C96.6289 20.4107 96.1485 21.288 95.8142 22.3116C95.48 23.3351 95.3129 24.4736 95.3129 25.7269C95.3129 26.9802 95.48 28.1187 95.8142 29.1422C96.1485 30.1658 96.6289 31.0536 97.2556 31.8056C97.9031 32.5367 98.6865 33.1007 99.6056 33.4976ZM113.615 12.4102V33.7169H117.532V12.4102H113.615ZM121.679 12.4102V33.7169H125.596V12.4102H121.679ZM131.842 33.7169C132.447 33.9676 133.116 34.0929 133.847 34.0929C135.079 34.0929 136.072 33.8422 136.824 33.3409C137.597 32.8187 138.213 32.1189 138.672 31.2416H138.798V33.7169H145.002V30.6776H142.307V22.8442C142.307 21.0478 141.753 19.69 140.646 18.7709C139.539 17.8309 138.025 17.3609 136.103 17.3609C135.142 17.3609 134.254 17.4758 133.44 17.7056C132.625 17.9353 131.915 18.2696 131.309 18.7082C130.724 19.1469 130.254 19.7005 129.899 20.3689C129.544 21.0165 129.356 21.7789 129.335 22.6562H133.252C133.252 21.9251 133.502 21.3716 134.004 20.9956C134.505 20.5987 135.153 20.4002 135.946 20.4002C136.719 20.4002 137.325 20.5882 137.764 20.9642C138.223 21.3402 138.453 21.946 138.453 22.7816V23.8156L134.035 24.1916C132.343 24.3378 131.048 24.8809 130.15 25.8209C129.251 26.7609 128.802 27.8785 128.802 29.1736C128.802 29.9047 128.928 30.5731 129.178 31.1789C129.429 31.7638 129.784 32.2756 130.244 32.7142C130.703 33.1529 131.236 33.4871 131.842 33.7169ZM137.576 29.9882C137.012 30.6985 136.228 31.0536 135.226 31.0536C134.536 31.0536 133.972 30.9387 133.534 30.7089C133.095 30.4582 132.876 30.0927 132.876 29.6122V28.2336C132.876 27.6069 133.168 27.2622 133.753 27.1996L138.453 26.7922V27.4189C138.453 28.4216 138.161 29.278 137.576 29.9882ZM157.867 30.2702L168.834 15.7942V12.4102H153.386V15.8569H163.789L152.885 30.3329V33.7169H168.771V30.2702H157.867ZM184.264 12.4102L176.587 22.3429L184.796 33.7169H189.496L181.068 22.3429L189.058 12.4102H184.264ZM172.451 33.7169H176.524V12.4102H172.451V33.7169Z" fill="white"/>
</g>
<defs>
<clipPath id="clip0_2026_13677">
<rect width="190" height="47" fill="white"/>
</clipPath>
</defs>
</svg>
