<?xml version="1.0" encoding="UTF-8"?>
<!-- Generated by Pixelmator Pro 3.3.2 -->
<svg width="225" height="100" viewBox="0 0 225 100" xmlns="http://www.w3.org/2000/svg" xmlns:xlink="http://www.w3.org/1999/xlink">
    <path id="Path" fill="#ffffff" stroke="none" d="M 138.106995 54.881401 L 133.746002 62.18 L 127.016998 62.18 L 134.505005 49.952499 L 127.775002 39.051998 L 134.220001 39.051998 L 138.011993 45.497501 L 141.802994 39.051998 L 148.343994 39.051998 L 141.518997 49.952499 L 149.007004 62.18 L 142.466995 62.18 L 138.106995 54.881401 Z"/>
    <path id="path1" fill="#ffffff" stroke="none" d="M 148.343002 55.924599 L 154.408997 55.924599 C 154.787994 57.535999 155.925003 58.199501 157.820999 58.199501 C 159.621994 58.199501 160.475006 57.630798 160.475006 56.5881 C 160.475006 55.261101 158.485001 55.166302 156.115005 54.882 C 152.891998 54.5028 149.100998 53.744499 149.100998 49.2896 C 149.100998 45.687698 151.944 43.128399 157.251999 43.128399 C 162.845001 43.128399 165.404007 45.687698 165.973007 49.3843 L 160.190994 49.3843 C 159.906998 48.057301 158.959 47.393799 157.158005 47.393799 C 155.356995 47.393799 154.692993 48.057301 154.692993 49.005199 C 154.692993 50.142601 156.304993 50.332199 159.052994 50.711399 C 162.276001 51.0905 166.162003 51.9436 166.162003 56.303799 C 166.162003 60.0005 163.319 62.844101 157.537003 62.844101 C 151.944 62.654499 149.005997 60.189999 148.343002 55.924599 Z"/>
    <path id="path2" fill="#ffffff" stroke="none" d="M 167.869003 53.270599 L 167.869003 52.7019 C 167.869003 46.3512 171.755997 43.128399 177.348007 43.128399 C 182.940002 43.128399 186.731995 46.445999 186.731995 52.7019 L 186.731995 53.270599 C 186.731995 59.526501 183.035004 62.654499 177.253006 62.654499 C 171.281998 62.654499 167.869003 59.431702 167.869003 53.270599 Z M 180.949997 53.1758 L 180.949997 52.7019 C 180.949997 49.668701 179.623001 48.057301 177.442993 48.057301 C 175.263 48.057301 173.841003 49.573898 173.841003 52.7019 L 173.841003 53.1758 C 173.841003 56.019402 175.263 57.535999 177.442993 57.535999 C 179.528 57.535999 180.949997 56.114201 180.949997 53.1758 Z"/>
    <path id="path3" fill="#ffffff" stroke="none" d="M 189.291 62.180302 L 189.291 37.346199 L 195.263 37.346199 L 195.263 62.180302 L 189.291 62.180302 Z"/>
    <path id="path4" fill="#ffffff" stroke="none" d="M 198.488007 62.180302 L 198.488007 37.346199 L 204.460007 37.346199 L 204.460007 62.180302 L 198.488007 62.180302 Z"/>
    <path id="path5" fill="#ffffff" stroke="none" d="M 219.147995 59.052601 C 218.104996 61.137901 216.020004 62.654499 212.608002 62.654499 C 208.531998 62.654499 206.541 60.758701 206.541 57.630798 C 206.541 55.3559 207.488998 53.934101 209.005997 52.986198 C 210.522003 52.038399 211.848999 51.754002 214.882004 51.280102 C 217.725998 50.900902 218.863998 50.6166 218.863998 49.3843 C 218.863998 48.341702 218.199997 47.583401 216.210007 47.583401 C 214.123993 47.583401 213.175995 48.5313 213.082001 50.332199 L 207.110001 50.332199 C 207.393997 45.972 210.332993 43.128399 216.210007 43.128399 C 222.371002 43.128399 224.645996 45.972 224.645996 50.2374 L 224.645996 62.1805 L 219.811005 62.1805 L 219.147995 59.052601 Z M 218.863998 54.597599 L 218.863998 53.460201 C 218.294998 53.839298 217.442001 54.123699 216.304001 54.313301 C 214.692993 54.597599 214.123993 54.787201 213.460999 55.166302 C 212.987 55.545502 212.701996 56.019402 212.701996 56.682899 C 212.701996 57.8204 213.460999 58.2943 214.882004 58.2943 C 217.347 58.389099 218.863998 56.493301 218.863998 54.597599 Z"/>
    <path id="path6" fill="#ff005b" stroke="none" d="M 100 0 L 0 0 L 0 100 L 100 100 L 100 0 Z"/>
    <path id="path7" fill="#ff005b" stroke="none" d="M 100 0 L 0 0 L 0 100 L 100 100 L 100 0 Z"/>
    <path id="path8" fill="#f6faff" stroke="none" d="M 73.894798 52.193401 C 72.093803 52.193401 70.577301 53.709999 70.577301 55.510899 C 70.577301 57.311901 71.9991 58.7337 73.894798 58.7337 C 75.695702 58.7337 77.1175 57.311901 77.1175 55.510899 C 77.212303 53.709999 75.695702 52.193401 73.894798 52.193401 Z M 73.894798 62.335602 C 70.103302 62.335602 66.975304 59.302399 66.975304 55.510899 C 66.975304 51.719501 70.103302 48.686298 73.894798 48.686298 C 77.686302 48.686298 80.719398 51.719501 80.719398 55.510899 C 80.814201 59.302399 77.686302 62.335602 73.894798 62.335602 Z"/>
    <path id="path9" fill="#f6faff" stroke="none" d="M 49.193001 80.095703 L 45.591099 80.095703 L 45.591099 67.773399 L 49.193001 67.773399 L 49.193001 80.095703 Z"/>
    <path id="path10" fill="#f6faff" stroke="none" d="M 54.405602 80.095703 L 50.803699 80.095703 L 50.803699 67.773399 L 54.405602 67.773399 L 54.405602 80.095703 Z"/>
    <path id="path11" fill="#f6faff" stroke="none" d="M 65.7537 25.869797 L 69.260803 22.362701 L 66.701599 19.803497 L 63.1945 23.3106 L 60.6353 25.869797 L 65.184998 30.419601 L 61.677898 33.926697 L 64.237099 36.485901 L 70.303497 30.419601 L 65.7537 25.869797 Z"/>
    <path id="path12" fill="#f6faff" stroke="none" d="M 25.827801 55.480701 L 27.534 58.418999 L 24.1217 58.418999 L 25.827801 55.480701 Z M 25.827801 48.655998 L 18.2449 61.736599 L 33.410801 61.736599 L 25.827801 48.655998 Z"/>
    <path id="path13" fill="#f6faff" stroke="none" d="M 41.636902 23.689598 L 39.077702 21.130402 L 34.717499 25.490601 L 30.3573 21.130402 L 27.7981 23.689598 L 32.158298 28.049805 L 27.7981 32.410004 L 30.3573 34.9692 L 34.717499 30.609001 L 39.077702 34.9692 L 41.636902 32.410004 L 37.276798 28.049805 L 41.636902 23.689598 Z"/>
</svg>
