<svg width="320" height="150" viewBox="0 0 320 150" fill="none" xmlns="http://www.w3.org/2000/svg">
<path d="M150.489 0H0.489258V150H150.489V0Z" fill="#FF005B"/>
<path d="M150.489 0H0.489258V150H150.489V0Z" fill="#6939F9"/>
<path d="M111.334 78.289C108.632 78.289 106.358 80.5639 106.358 83.2653C106.358 85.9667 108.49 88.0994 111.334 88.0994C114.035 88.0994 116.168 85.9667 116.168 83.2653C116.31 80.5639 114.035 78.289 111.334 78.289ZM111.334 93.5023C105.647 93.5023 100.955 88.9525 100.955 83.2653C100.955 77.5781 105.647 73.0283 111.334 73.0283C117.021 73.0283 121.571 77.5781 121.571 83.2653C121.713 88.9525 117.021 93.5023 111.334 93.5023Z" fill="#F6FAFF"/>
<path d="M74.2808 120.143H68.8779V101.659H74.2808V120.143Z" fill="#F6FAFF"/>
<path d="M82.1007 120.143H76.6979V101.659H82.1007V120.143Z" fill="#F6FAFF"/>
<path d="M99.1186 38.8046L104.379 33.5439L100.54 29.7051L95.2798 34.9657L91.4409 38.8046L98.2655 45.6292L93.0049 50.8899L96.8437 54.7287L105.943 45.6292L99.1186 38.8046Z" fill="#F6FAFF"/>
<path d="M39.2328 83.2175L41.7921 87.625H36.6736L39.2328 83.2175ZM39.2328 72.9805L27.8584 92.6013H50.6072L39.2328 72.9805Z" fill="#F6FAFF"/>
<path d="M62.9467 35.5342L59.1079 31.6953L52.5676 38.2356L46.0273 31.6953L42.1885 35.5342L48.7287 42.0744L42.1885 48.6147L46.0273 52.4536L52.5676 45.9133L59.1079 52.4536L62.9467 48.6147L56.4065 42.0744L62.9467 35.5342Z" fill="#F6FAFF"/>
<path d="M226.727 119L219.287 103.784L215.111 109.016V119H206.471V84.584H215.111V97.784L225.671 84.584H236.039L225.575 97.592L236.471 119H226.727Z" fill="white"/>
<path d="M202.377 119H175.737V112.712L191.001 92.744H176.649V84.584H202.281V91.544L187.929 110.696H202.377V119Z" fill="white"/>
<path d="M305.074 57.336C305.65 57.336 306.194 57.272 306.706 57.144C307.218 57.016 307.698 56.808 308.146 56.52C309.01 55.976 309.682 55.288 310.162 54.456C310.674 53.592 310.93 52.712 310.93 51.816V50.136C310.514 50.456 309.986 50.712 309.346 50.904C308.738 51.096 308.018 51.272 307.186 51.432C306.002 51.656 305.122 51.848 304.546 52.008C303.97 52.168 303.458 52.392 303.01 52.68C302.626 52.968 302.338 53.304 302.146 53.688C301.954 54.04 301.858 54.44 301.858 54.888C301.858 55.688 302.13 56.296 302.674 56.712C303.218 57.128 304.018 57.336 305.074 57.336ZM312.274 63L311.314 58.344C310.514 59.912 309.33 61.208 307.762 62.232C306.194 63.224 304.114 63.72 301.522 63.72C298.514 63.72 296.258 63.048 294.754 61.704C293.282 60.36 292.546 58.536 292.546 56.232C292.546 54.536 292.866 53.144 293.506 52.056C294.178 50.936 295.074 50.024 296.194 49.32C296.578 49.096 296.946 48.888 297.298 48.696C297.682 48.504 298.066 48.344 298.45 48.216C299.218 47.928 300.114 47.688 301.138 47.496C302.162 47.272 303.426 47.048 304.93 46.824C307.042 46.536 308.562 46.216 309.49 45.864C310.418 45.512 310.882 44.888 310.882 43.992C310.882 43.192 310.594 42.552 310.018 42.072C309.474 41.56 308.45 41.304 306.946 41.304C305.442 41.304 304.306 41.64 303.538 42.312C302.77 42.984 302.354 43.992 302.29 45.336H293.41C293.634 42.104 294.85 39.512 297.058 37.56C299.298 35.576 302.594 34.584 306.946 34.584C308.482 34.584 309.858 34.696 311.074 34.92C312.322 35.144 313.394 35.48 314.29 35.928C316.146 36.792 317.474 38.024 318.274 39.624C319.074 41.224 319.474 43.096 319.474 45.24V63H312.274Z" fill="white"/>
<path d="M289.316 63H280.484V26.04H289.316V63Z" fill="white"/>
<path d="M275.629 63H266.797V26.04H275.629V63Z" fill="white"/>
<path d="M249.006 63.72C244.493 63.72 241.022 62.552 238.59 60.216C236.19 57.88 234.99 54.392 234.99 49.752V48.888C234.99 47.32 235.134 45.88 235.422 44.568C235.742 43.224 236.205 42.024 236.813 40.968C237.997 38.856 239.645 37.272 241.757 36.216C243.901 35.128 246.333 34.584 249.053 34.584C250.461 34.584 251.774 34.728 252.99 35.016C254.206 35.272 255.341 35.672 256.397 36.216C258.509 37.304 260.142 38.92 261.294 41.064C262.478 43.176 263.07 45.784 263.07 48.888V49.752C263.07 51.288 262.926 52.712 262.638 54.024C262.35 55.304 261.917 56.456 261.341 57.48C260.157 59.56 258.509 61.128 256.397 62.184C254.317 63.208 251.854 63.72 249.006 63.72ZM249.053 56.184C250.653 56.184 251.934 55.64 252.894 54.552C253.886 53.464 254.382 51.832 254.382 49.656V48.888C254.382 46.616 253.918 44.904 252.99 43.752C252.094 42.568 250.798 41.976 249.102 41.976C247.47 41.976 246.158 42.552 245.166 43.704C244.174 44.824 243.677 46.552 243.677 48.888V49.656C243.677 51.8 244.174 53.432 245.166 54.552C246.158 55.64 247.453 56.184 249.053 56.184Z" fill="white"/>
<path d="M219.587 63.7681C215.427 63.7681 212.211 62.8881 209.939 61.1281C207.667 59.3681 206.307 56.8881 205.859 53.6881H214.883C215.171 54.8081 215.731 55.6561 216.563 56.2321C217.427 56.8081 218.579 57.0961 220.019 57.0961C221.395 57.0961 222.387 56.8881 222.995 56.4721C223.635 56.0241 223.955 55.4161 223.955 54.6481C223.955 54.3281 223.875 54.0561 223.715 53.8321C223.587 53.5761 223.363 53.3681 223.043 53.2081C222.467 52.8881 221.683 52.6481 220.691 52.4881C219.699 52.3281 218.627 52.1841 217.475 52.0561C216.291 51.8961 215.075 51.6881 213.827 51.4321C212.611 51.1441 211.491 50.7121 210.467 50.1361C209.411 49.5921 208.563 48.8081 207.923 47.7841C207.315 46.7601 207.011 45.4161 207.011 43.7521C207.011 41.0321 208.051 38.8241 210.131 37.1281C212.211 35.4001 215.219 34.5361 219.155 34.5361C223.347 34.5361 226.451 35.4001 228.467 37.1281C230.483 38.8241 231.699 41.0641 232.115 43.8481H223.523C223.331 42.8561 222.851 42.1201 222.083 41.6401C221.347 41.1281 220.339 40.8721 219.059 40.8721C217.715 40.8721 216.771 41.0961 216.227 41.5441C215.683 41.9921 215.411 42.5521 215.411 43.2241C215.411 44.0881 215.971 44.6641 217.091 44.9521C218.243 45.2401 219.843 45.5121 221.891 45.7681C223.107 45.9281 224.323 46.1521 225.539 46.4401C226.787 46.7281 227.939 47.1601 228.995 47.7361C230.019 48.3121 230.851 49.1121 231.491 50.1361C232.131 51.1281 232.451 52.4401 232.451 54.0721C232.451 55.0001 232.323 55.8801 232.067 56.7121C231.843 57.5441 231.507 58.3281 231.059 59.0641C230.099 60.5041 228.659 61.6561 226.739 62.5201C224.851 63.3521 222.467 63.7681 219.587 63.7681Z" fill="white"/>
<path d="M197.097 63L190.665 52.152L184.233 63H174.105L185.289 44.808L175.257 28.584H184.905L190.569 38.136L196.233 28.584H205.977L195.753 44.808L206.889 63H197.097Z" fill="white"/>
</svg>
