<svg width="157" height="158" viewBox="0 0 157 158" fill="none" xmlns="http://www.w3.org/2000/svg">
<g clip-path="url(#clip0_294_2155)">
<path d="M78.5064 157.987C121.85 157.987 156.987 122.626 156.987 79.0065C156.987 35.3869 121.85 0.0261688 78.5064 0.0261688C35.1628 0.0261688 0.0258789 35.3869 0.0258789 79.0065C0.0258789 122.626 35.1628 157.987 78.5064 157.987Z" fill="#9747FF"/>
<path d="M16.4374 95.2868C16.3724 95.1036 16.3724 94.9335 16.4374 94.7764C16.5025 94.6194 16.6325 94.5016 16.8146 94.4362L32.7057 88.3245C32.8878 88.2591 33.0568 88.2591 33.2129 88.3245C33.3689 88.39 33.486 88.5208 33.551 88.7041L36.3989 96.2029C36.9321 97.6163 37.1792 98.8465 37.1272 99.8935C37.0751 100.94 36.776 101.83 36.2169 102.537C35.6577 103.257 34.8774 103.807 33.8891 104.186C33.3039 104.409 32.7447 104.5 32.2116 104.448C31.6784 104.395 31.2102 104.278 30.7941 104.068C30.378 103.859 30.0529 103.649 29.8188 103.414C29.7668 104.147 29.4937 104.893 29.0125 105.626C28.5314 106.372 27.8421 106.908 26.9448 107.261C25.8655 107.68 24.8512 107.785 23.8889 107.602C22.9265 107.419 22.0683 106.934 21.301 106.175C20.5338 105.403 19.8966 104.356 19.3764 103.008L16.4374 95.2868ZM21.0539 97.8519L22.3674 101.294C22.6405 102.001 23.0436 102.459 23.5898 102.655C24.1359 102.851 24.6691 102.864 25.1893 102.655C25.7615 102.432 26.1646 102.066 26.4247 101.542C26.6718 101.019 26.6718 100.417 26.4117 99.7234L25.0982 96.2815L21.0669 97.8388L21.0539 97.8519ZM28.1933 95.1036L29.4157 98.323C29.6757 98.9905 30.0269 99.4354 30.508 99.6448C30.9762 99.8542 31.4833 99.8542 32.0165 99.6448C32.5367 99.4485 32.9008 99.1083 33.1089 98.6502C33.3169 98.1791 33.2909 97.6163 33.0308 96.9489L31.8084 93.7295L28.1933 95.1167V95.1036Z" fill="#0F1821"/>
<path d="M30.0401 120.964C29.8971 120.833 29.832 120.676 29.832 120.506C29.832 120.335 29.8971 120.178 30.0271 120.034L41.8089 107.68C41.939 107.536 42.095 107.471 42.2641 107.471C42.4331 107.471 42.5892 107.536 42.7322 107.667L51.5491 116.187C51.6921 116.318 51.7572 116.475 51.7572 116.645C51.7572 116.815 51.6921 116.972 51.5621 117.116L49.8585 118.909C49.7285 119.053 49.5724 119.118 49.4034 119.118C49.2343 119.118 49.0783 119.053 48.9352 118.922L42.9143 113.098L40.4695 115.663L46.0743 121.081C46.2174 121.212 46.2824 121.369 46.2824 121.553C46.2824 121.736 46.2174 121.893 46.0743 122.037L44.5008 123.686C44.3838 123.817 44.2277 123.882 44.0456 123.895C43.8636 123.895 43.7075 123.843 43.5645 123.712L37.9597 118.294L35.4369 120.937L41.6139 126.905C41.7569 127.036 41.8219 127.193 41.8219 127.363C41.8219 127.533 41.7569 127.69 41.6269 127.834L39.9233 129.627C39.7933 129.771 39.6372 129.837 39.4682 129.837C39.2991 129.837 39.1431 129.771 39 129.64L30.0271 120.977L30.0401 120.964Z" fill="#0F1821"/>
<path d="M51.5749 137.218C51.3929 137.152 51.2628 137.035 51.1978 136.877C51.1328 136.72 51.1198 136.55 51.1978 136.367L57.0757 120.296C57.1407 120.113 57.2578 119.982 57.4138 119.917C57.5699 119.851 57.7389 119.838 57.921 119.917L61.159 121.121C61.3281 121.186 61.4451 121.291 61.5232 121.448C61.6012 121.605 61.6142 121.775 61.5492 121.958L56.8156 134.914L64.228 137.663C64.4101 137.728 64.5401 137.846 64.6182 138.016C64.6962 138.186 64.6962 138.356 64.6312 138.54L63.7209 141.013C63.6558 141.196 63.5388 141.314 63.3698 141.393C63.2007 141.458 63.0316 141.471 62.8496 141.393L51.5749 137.218Z" fill="#0F1821"/>
<path d="M83.578 143.12C81.9265 143.251 80.483 143.081 79.2476 142.623C78.0122 142.165 77.0239 141.432 76.2957 140.424C75.5675 139.416 75.0993 138.147 74.9172 136.629C74.8392 135.883 74.7742 135.071 74.7092 134.221C74.6442 133.37 74.5921 132.559 74.5531 131.787C74.5141 130.295 74.7742 128.999 75.3594 127.913C75.9446 126.827 76.8159 125.963 77.9732 125.335C79.1306 124.693 80.5221 124.314 82.1346 124.196C83.435 124.091 84.6054 124.17 85.6457 124.406C86.6731 124.654 87.5573 125.021 88.2856 125.505C89.0138 125.989 89.586 126.552 89.9891 127.167C90.3923 127.782 90.6263 128.41 90.7044 129.038C90.7304 129.195 90.7044 129.326 90.5873 129.444C90.4833 129.562 90.3533 129.614 90.1972 129.627L86.387 129.928C86.1919 129.941 86.0489 129.928 85.9448 129.876C85.8408 129.824 85.7498 129.732 85.6717 129.614C85.5287 129.366 85.3336 129.104 85.0735 128.829C84.8135 128.554 84.4753 128.332 84.0462 128.148C83.6171 127.965 83.0709 127.913 82.4207 127.965C81.4324 128.044 80.6651 128.371 80.1449 128.934C79.6248 129.509 79.3777 130.373 79.4167 131.525C79.4817 133.03 79.5988 134.561 79.7678 136.092C79.9109 137.309 80.301 138.173 80.9382 138.67C81.5754 139.168 82.3817 139.377 83.344 139.299C84.0072 139.246 84.5794 139.089 85.0865 138.814C85.5807 138.553 85.9578 138.16 86.2179 137.663C86.478 137.165 86.582 136.524 86.517 135.778L86.478 135.281L84.0202 135.477C83.8251 135.49 83.6691 135.438 83.526 135.32C83.383 135.202 83.305 135.045 83.292 134.849L83.1489 132.912C83.1359 132.716 83.1879 132.546 83.305 132.415C83.422 132.284 83.5781 132.192 83.7731 132.179L90.3533 131.669C90.5483 131.656 90.7044 131.708 90.8344 131.826C90.9645 131.944 91.0425 132.101 91.0555 132.297L91.2896 135.294C91.4066 136.799 91.1595 138.108 90.5743 139.233C89.9761 140.359 89.0788 141.249 87.8825 141.916C86.6861 142.583 85.2556 142.976 83.6041 143.107L83.578 143.12Z" fill="#0F1821"/>
<path d="M105.53 137.466C105.361 137.558 105.191 137.597 105.035 137.545C104.866 137.506 104.736 137.401 104.632 137.231L96.0105 122.469C95.9195 122.299 95.8805 122.128 95.9325 121.971C95.9715 121.801 96.0755 121.67 96.2446 121.579L102.383 117.954C104.32 116.802 106.115 116.357 107.766 116.593C109.418 116.828 110.718 117.77 111.681 119.432C112.305 120.506 112.578 121.566 112.487 122.613C112.396 123.66 112.045 124.628 111.421 125.505L117.793 129.248C117.897 129.313 117.962 129.379 118.001 129.457C118.066 129.575 118.092 129.719 118.053 129.876C118.014 130.033 117.923 130.151 117.793 130.229L114.815 131.996C114.529 132.166 114.281 132.219 114.06 132.153C113.839 132.088 113.67 132.009 113.54 131.931L108.052 128.449L105.725 129.824L108.664 134.862C108.755 135.032 108.794 135.202 108.742 135.359C108.703 135.53 108.599 135.66 108.43 135.765L105.517 137.493L105.53 137.466ZM103.852 126.604L106.466 125.06C107.168 124.641 107.597 124.157 107.753 123.594C107.909 123.031 107.805 122.456 107.454 121.854C107.103 121.265 106.661 120.885 106.115 120.728C105.569 120.558 104.918 120.702 104.19 121.134L101.576 122.678L103.865 126.604H103.852Z" fill="#0F1821"/>
<path d="M127.402 121.317C127.324 121.435 127.207 121.513 127.051 121.539C126.895 121.566 126.752 121.539 126.635 121.474C126.557 121.422 126.505 121.369 126.453 121.317L115.816 106.83C115.686 106.673 115.608 106.489 115.569 106.267C115.543 106.044 115.608 105.809 115.764 105.56L117.896 102.301C118.065 102.053 118.247 101.896 118.468 101.843C118.69 101.791 118.885 101.791 119.08 101.843L136.479 106.005C136.557 106.005 136.635 106.044 136.7 106.097C136.817 106.175 136.895 106.293 136.921 106.45C136.948 106.607 136.921 106.751 136.843 106.882L135.075 109.591C134.932 109.813 134.763 109.944 134.594 109.984C134.412 110.023 134.269 110.023 134.165 109.997L131.369 109.369L127.519 115.245L129.197 117.561C129.262 117.653 129.327 117.783 129.366 117.954C129.405 118.124 129.353 118.346 129.184 118.595L127.415 121.304L127.402 121.317ZM124.958 112.274L127.636 108.191L120.51 106.424L124.958 112.274Z" fill="#0F1821"/>
<path d="M141.408 93.3761C141.382 93.5724 141.304 93.7164 141.174 93.8211C141.044 93.9258 140.875 93.965 140.68 93.9519L123.8 91.8318C123.605 91.8057 123.462 91.7272 123.358 91.5832C123.254 91.4523 123.215 91.2822 123.241 91.0859L124.086 84.2937C124.295 82.5924 124.75 81.1659 125.452 80.0273C126.154 78.8888 127.051 78.0643 128.183 77.5539C129.314 77.0435 130.654 76.8603 132.201 76.9911C132.968 77.0697 133.632 77.1482 134.204 77.2136C134.776 77.279 135.426 77.3706 136.18 77.4884C137.78 77.7633 139.067 78.2737 140.056 79.0196C141.031 79.7656 141.707 80.7602 142.071 82.0035C142.435 83.2467 142.513 84.7125 142.305 86.4269L141.447 93.3499L141.408 93.3761ZM138.17 88.8873L138.508 86.1128C138.599 85.3668 138.56 84.7256 138.391 84.2021C138.222 83.6786 137.897 83.2598 137.429 82.9326C136.961 82.6186 136.323 82.3961 135.504 82.2783C135.01 82.1867 134.555 82.1082 134.165 82.0427C133.775 81.9904 133.371 81.938 132.968 81.8988C132.565 81.8595 132.123 81.8202 131.642 81.7941C130.459 81.6763 129.561 81.8857 128.937 82.3961C128.313 82.9065 127.936 83.744 127.793 84.8957L127.468 87.5393L138.17 88.8873Z" fill="#0F1821"/>
<path d="M141.343 63.9564C141.408 64.1397 141.395 64.3098 141.317 64.4668C141.239 64.6239 141.109 64.7286 140.927 64.794L124.776 70.1728C124.594 70.2382 124.424 70.2251 124.268 70.1466C124.112 70.0681 124.008 69.9372 123.943 69.754L120.107 58.0673C120.042 57.884 120.055 57.7139 120.133 57.5569C120.211 57.3998 120.341 57.2951 120.523 57.2297L122.864 56.4576C123.046 56.3921 123.215 56.4052 123.371 56.4837C123.527 56.5622 123.631 56.6931 123.696 56.8763L126.323 64.8594L129.678 63.747L127.233 56.3136C127.168 56.1304 127.181 55.9602 127.272 55.8032C127.363 55.6462 127.493 55.5415 127.676 55.476L129.834 54.7562C130.003 54.7039 130.159 54.717 130.328 54.7824C130.484 54.8609 130.601 54.9918 130.666 55.175L133.111 62.6085L136.57 61.4568L133.879 53.2774C133.814 53.0942 133.827 52.924 133.905 52.767C133.983 52.61 134.113 52.5053 134.295 52.4398L136.635 51.6677C136.817 51.6023 136.987 51.6153 137.143 51.6939C137.299 51.7724 137.403 51.9033 137.468 52.0865L141.369 63.9695L141.343 63.9564Z" fill="#0F1821"/>
<path d="M25.6964 73.811C25.6704 73.9811 25.5793 74.1251 25.4363 74.2298C25.2932 74.3345 25.1242 74.3737 24.9421 74.3475L22.5103 73.9418C22.3153 73.9157 22.1722 73.8241 22.0812 73.667C21.9772 73.5231 21.9511 73.3529 21.9772 73.1828L23.3426 65.0296C23.3686 64.8594 23.4596 64.7155 23.6027 64.6108C23.7457 64.5061 23.9148 64.4668 24.0968 64.493L26.5286 64.8987C26.7237 64.9249 26.8667 65.0165 26.9578 65.1735C27.0618 65.3306 27.0878 65.4876 27.0618 65.6577L25.6964 73.811Z" fill="#0F1821"/>
<path d="M41.8736 50.5815C41.7436 50.7254 41.5875 50.7908 41.4185 50.7908C41.2494 50.7908 41.0934 50.7254 40.9503 50.5945L28.7784 38.6199C28.6353 38.489 28.5703 38.332 28.5703 38.1618C28.5703 37.9917 28.6353 37.8347 28.7654 37.6907L37.3092 28.8962C37.4392 28.7522 37.5952 28.6868 37.7643 28.6868C37.9334 28.6868 38.0894 28.7522 38.2325 28.8831L39.988 30.6106C40.1311 30.7415 40.1961 30.8985 40.1961 31.0687C40.1961 31.2388 40.1311 31.3958 40.001 31.5398L34.1621 37.5467L36.6849 40.0333L42.1207 34.432C42.2508 34.2881 42.4068 34.2226 42.5889 34.2357C42.7709 34.2357 42.927 34.3142 43.057 34.4451L44.6825 36.0417C44.8126 36.1595 44.8776 36.3166 44.8776 36.4998C44.8776 36.683 44.8256 36.84 44.6955 36.9709L39.2598 42.5722L41.8606 45.1372L47.8426 38.9732C47.9726 38.8293 48.1287 38.7638 48.2977 38.7638C48.4668 38.7638 48.6228 38.8293 48.7659 38.9602L50.5214 40.6876C50.6645 40.8185 50.7295 40.9756 50.7295 41.1457C50.7295 41.3158 50.6645 41.4729 50.5344 41.6168L41.8476 50.5684L41.8736 50.5815Z" fill="#0F1821"/>
<path d="M60.6649 36.2119C60.4829 36.2773 60.3138 36.2773 60.1578 36.2119C60.0017 36.1464 59.8847 36.0156 59.8196 35.8323L54.9691 23.0856L50.6126 24.7607C50.4306 24.8261 50.2615 24.8261 50.1055 24.7476C49.9494 24.6691 49.8324 24.5513 49.7674 24.3812L48.7661 21.7507C48.701 21.5675 48.701 21.3973 48.7661 21.2403C48.8311 21.0832 48.9611 20.9655 49.1432 20.9L62.2904 15.8222C62.4725 15.7568 62.6416 15.7568 62.7976 15.8222C62.9537 15.8877 63.0707 16.0185 63.1357 16.2018L64.137 18.8323C64.2021 19.0024 64.2021 19.1594 64.137 19.3296C64.072 19.4997 63.942 19.6175 63.7729 19.6829L59.4165 21.3581L64.2671 34.1049C64.3321 34.2881 64.3321 34.4582 64.2671 34.6152C64.2021 34.7723 64.072 34.8901 63.89 34.9555L60.6649 36.1988V36.2119Z" fill="#0F1821"/>
<path d="M75.1514 32.0764C74.9563 32.0633 74.8133 31.9848 74.6962 31.8539C74.5792 31.723 74.5402 31.5529 74.5532 31.3697L75.9446 14.3041C75.9576 14.1078 76.0357 13.9639 76.1657 13.8461C76.2957 13.7283 76.4648 13.6891 76.6468 13.7021L80.0149 13.977C80.21 13.9901 80.3531 14.0686 80.4701 14.1995C80.5871 14.3303 80.6261 14.5005 80.6131 14.6837L80.093 21.0047L86.5301 21.5413L87.0502 15.2072C87.0632 15.0108 87.1413 14.8669 87.2713 14.7491C87.4013 14.6313 87.5704 14.5921 87.7525 14.6051L91.1206 14.88C91.3156 14.8931 91.4587 14.9716 91.5757 15.1025C91.6927 15.2333 91.7317 15.4035 91.7187 15.5867L90.3273 32.6522C90.3143 32.8485 90.2363 32.9925 90.1062 33.1102C89.9762 33.228 89.8071 33.2673 89.6251 33.2542L86.257 32.9794C86.0619 32.9663 85.9189 32.8878 85.8018 32.7569C85.6848 32.626 85.6458 32.4559 85.6588 32.2727L86.1919 25.7291L79.7419 25.1926L79.2087 31.7361C79.1957 31.9324 79.1177 32.0764 78.9876 32.1941C78.8576 32.3119 78.6885 32.3512 78.5065 32.3381L75.1384 32.0633L75.1514 32.0764Z" fill="#0F1821"/>
<path d="M110.328 35.5575C110.198 35.4397 110.12 35.2958 110.107 35.1126C110.081 34.9293 110.146 34.7723 110.263 34.6283L111.875 32.7569C112.005 32.6129 112.148 32.5344 112.33 32.5344C112.513 32.5344 112.669 32.5868 112.799 32.6915L119.015 38.1095C119.145 38.2273 119.223 38.3712 119.236 38.5545C119.249 38.7377 119.197 38.8947 119.08 39.0387L117.467 40.9101C117.337 41.0541 117.194 41.1326 117.012 41.1457C116.83 41.1457 116.674 41.0933 116.544 40.9886L110.328 35.5706V35.5575Z" fill="#0F1821"/>
<path d="M83.786 93.1406L54.1494 88.0759L91.3545 113.033L102.499 69.453L83.786 93.1406Z" fill="#0F1821"/>
<path d="M82.0045 88.4554L52.4069 83.443L49.481 75.7609L51.0285 71.9919L54.6566 73.8372L56.0871 77.58L59.3772 76.3106L60.6906 79.7656L66.3084 77.6062L65.034 74.2559L66.8806 73.5361C65.5022 69.9241 64.1237 66.299 62.7453 62.687L59.8453 61.4568L57.2835 54.717L61.5229 53.0811L62.6022 55.921L66.1264 54.5599L65.047 51.72L70.2617 49.7177L71.3411 52.5576L74.8652 51.1965L73.7859 48.3567L78.0252 46.7208L80.5871 53.4606L79.2476 56.3267C80.6261 59.9387 82.0045 63.5638 83.383 67.1758L85.1776 66.4822L86.452 69.8325L92.1738 67.6339L90.8604 64.1789L94.1115 62.9226L92.681 59.1797L94.1375 55.3713L97.7916 57.1381L100.718 64.8071L82.0175 88.4292L82.0045 88.4554Z" fill="#0F1821"/>
</g>
<defs>
<clipPath id="clip0_294_2155">
<rect width="157" height="158" fill="white"/>
</clipPath>
</defs>
</svg>
