<svg width="425" height="779" viewBox="0 0 425 779" fill="none" xmlns="http://www.w3.org/2000/svg">
<path d="M-363.242 -425.81L-595.466 -601.9L-595.411 -285.194L-595.411 -282.173L-597.818 -283.998L-779.559 -421.804L-779.48 -109.093L-779.48 -108.349L-780.073 -107.898L-963.047 31.0541L-963.954 31.7429L-964.861 31.0543L-1019.76 -10.6168L-1147.63 -107.65L-1147.61 87.0633L-1147.59 281.777L-1019.74 184.728L-964.827 143.043L-963.921 142.354L-963.014 143.042L-780.011 281.891L-779.418 282.341L-779.418 283.086L-779.339 595.797L-597.638 457.878L-595.232 456.052L-595.231 459.073L-595.176 775.779L-363.023 599.602L-362.116 598.914L-361.209 599.602L-128.985 775.692L-129.04 458.986L-129.041 455.965L-126.634 457.79L55.1078 595.596L55.0287 282.885L55.0285 282.141L55.6215 281.69L238.595 142.738L239.502 142.049L240.41 142.738L295.312 184.409L423.179 281.441L423.113 86.6348L424.607 86.6343L423.113 86.6345L423.092 -108.079L295.245 -11.0306L240.329 30.655L239.423 31.3433L238.516 30.6552L55.5137 -108.194L-363.242 -425.81Z" stroke="#4CE0B3" stroke-width="3"/>
</svg>
